<?xml version="1.0" encoding="utf-8"?>
<!-- Generator: Adobe Illustrator 24.1.1, SVG Export Plug-In . SVG Version: 6.00 Build 0)  -->
<svg version="1.1" xmlns="http://www.w3.org/2000/svg" xmlns:xlink="http://www.w3.org/1999/xlink" x="0px" y="0px"
	 viewBox="0 0 61 133" style="enable-background:new 0 0 61 133;" xml:space="preserve">
<style type="text/css">
	.st0{fill:#FFFFFF;}
	.st1{fill:#C1C1C1;}
</style>
<g id="Слой_2">
</g>
<g id="Слой_1">
	<polygon class="st0" points="57.2,61.7 57.2,69.4 53.4,69.4 53.4,61.7 51.5,61.7 51.5,46.3 49.6,46.3 49.6,36.6 53.4,36.6 53.4,27 
		55.3,27 55.3,61.7 	"/>
	<rect x="43.8" y="27" class="st0" width="1.9" height="0"/>
	<rect x="43.8" y="27" class="st1" width="1.9" height="0"/>
	<rect x="41.9" y="27" class="st0" width="1.9" height="0"/>
	<rect x="41.9" y="27" class="st1" width="1.9" height="0"/>
	<rect x="40" y="11.6" class="st0" width="1.9" height="1.9"/>
	<rect x="40" y="11.6" class="st0" width="1.9" height="0"/>
	<rect x="40" y="11.6" class="st0" width="0" height="1.9"/>
	<rect x="40" y="11.6" class="st0" width="0" height="0"/>
	<rect x="36.2" y="73.2" class="st1" width="1.9" height="0"/>
	<rect x="36.2" y="73.2" class="st0" width="1.9" height="0"/>
	<rect x="33.4" y="11.6" class="st1" width="1" height="0"/>
	<rect x="32.4" y="11.6" width="1.9" height="0"/>
	<rect x="40" y="11.6" width="1.9" height="1.9"/>
	<path class="st0" d="M30.5,9.6v7.7h1.9v1.9h1.9v1.9H40v-1.9h1.9v-1.9h1.9V9.6H30.5z M34.3,13.5h-1.9v-1.9h1.9V13.5z M41.9,13.5H40
		v-1.9h1.9V13.5z"/>
	<rect x="32.4" y="11.6" width="1.9" height="1.9"/>
	<rect x="32.4" y="11.6" class="st0" width="1.9" height="0"/>
	<rect x="30.5" y="57.8" class="st1" width="1.9" height="0"/>
	<polygon class="st1" points="38.1,73.2 38.1,82.9 36.2,82.9 36.2,96.4 34.3,96.4 34.3,84.8 32.4,84.8 32.4,75.2 30.5,75.2 
		30.5,71.3 28.6,71.3 28.6,67.5 24.8,67.5 24.8,73.2 22.9,73.2 22.9,65.5 24.8,65.5 24.8,61.7 26.7,61.7 26.7,42.4 28.6,42.4 
		28.6,59.7 30.5,59.7 30.5,57.8 32.4,57.8 32.4,67.5 34.3,67.5 34.3,69.4 36.2,69.4 36.2,73.2 	"/>
	<rect x="26.7" y="42.4" class="st1" width="1.9" height="0"/>
	<rect x="30.5" y="57.8" class="st0" width="1.9" height="0"/>
	<polygon class="st1" points="49.6,36.6 49.6,46.3 51.5,46.3 51.5,61.7 53.4,61.7 53.4,71.3 51.5,71.3 51.5,63.6 49.6,63.6 
		49.6,50.1 47.7,50.1 47.7,32.8 45.8,32.8 45.8,27 41.9,27 41.9,28.9 38.1,28.9 38.1,30.8 36.2,30.8 36.2,28.9 32.4,28.9 32.4,25.1 
		28.6,25.1 28.6,23.1 32.4,23.1 32.4,21.2 30.5,21.2 30.5,17.3 32.4,17.3 32.4,19.3 34.3,19.3 34.3,21.2 40,21.2 40,19.3 41.9,19.3 
		41.9,17.3 43.8,17.3 43.8,21.2 41.9,21.2 41.9,25.1 51.5,25.1 51.5,27 53.4,27 53.4,36.6 	"/>
	<g>
		<polygon class="st0" points="43.8,3.8 43.8,7.7 30.5,7.7 30.5,3.8 32.4,3.8 32.4,1.9 34.3,1.9 34.3,0 40,0 40,1.9 41.9,1.9 
			41.9,3.8 		"/>
	</g>
	<polygon class="st0" points="53.4,71.3 53.4,79 51.5,79 51.5,77.1 49.6,77.1 49.6,94.4 47.7,94.4 47.7,102.2 45.8,102.2 45.8,106 
		43.8,106 43.8,113.7 41.9,113.7 41.9,117.6 40,117.6 40,131.1 49.6,131.1 49.6,133 21,133 21,131.1 32.4,131.1 32.4,117.6 
		30.5,117.6 30.5,115.6 28.6,115.6 28.6,109.9 26.7,109.9 26.7,104.1 24.8,104.1 24.8,86.7 22.9,86.7 22.9,73.2 24.8,73.2 
		24.8,67.5 28.6,67.5 28.6,71.3 30.5,71.3 30.5,75.2 32.4,75.2 32.4,84.8 34.3,84.8 34.3,96.4 36.2,96.4 36.2,82.9 38.1,82.9 
		38.1,73.2 36.2,73.2 36.2,69.4 34.3,69.4 34.3,67.5 32.4,67.5 32.4,57.8 30.5,57.8 30.5,59.7 28.6,59.7 28.6,42.4 26.7,42.4 
		26.7,52 24.8,52 24.8,54 22.9,54 22.9,55.9 19.1,55.9 19.1,59.7 13.3,59.7 13.3,57.8 15.3,57.8 15.3,55.9 17.2,55.9 17.2,54 21,54 
		21,50.1 22.9,50.1 22.9,28.9 24.8,28.9 24.8,27 28.6,27 28.6,25.1 32.4,25.1 32.4,28.9 36.2,28.9 36.2,30.8 38.1,30.8 38.1,28.9 
		41.9,28.9 41.9,27 45.8,27 45.8,32.8 47.7,32.8 47.7,50.1 49.6,50.1 49.6,63.6 51.5,63.6 51.5,71.3 	"/>
	<rect x="26.7" y="42.4" class="st0" width="1.9" height="0"/>
	<rect x="26.7" y="27" class="st0" width="1.9" height="0"/>
	<rect x="26.7" y="27" class="st1" width="1.9" height="0"/>
	<polygon class="st1" points="47.7,9.6 47.7,13.5 45.8,13.5 45.8,15.4 43.8,15.4 43.8,9.6 30.5,9.6 30.5,15.4 28.6,15.4 28.6,13.5 
		26.7,13.5 26.7,9.6 28.6,9.6 28.6,7.7 45.8,7.7 45.8,9.6 	"/>
	<rect x="24.8" y="27" class="st0" width="1.9" height="0"/>
	<rect x="24.8" y="25.1" class="st1" width="3.8" height="1.9"/>
	<rect x="24.8" y="27" class="st1" width="1.9" height="0"/>
	<rect x="22.9" y="73.2" class="st0" width="1.9" height="0"/>
	<rect x="22.9" y="73.2" class="st1" width="1.9" height="0"/>
	<rect x="22.9" y="27" class="st1" width="1.9" height="1.9"/>
	<rect x="21" y="73.2" class="st1" width="1.9" height="1.9"/>
	<polygon class="st1" points="22.9,28.9 22.9,50.1 21,50.1 21,54 17.2,54 17.2,55.9 15.3,55.9 15.3,57.8 13.3,57.8 13.3,61.7 
		11.4,61.7 11.4,63.6 3.8,63.6 3.8,59.7 5.7,59.7 5.7,57.8 11.4,57.8 11.4,55.9 13.3,55.9 13.3,54 15.3,54 15.3,52 19.1,52 
		19.1,48.2 21,48.2 21,28.9 	"/>
	<path class="st1" d="M21,71.3h-1.9v1.9H21V71.3z"/>
	<path class="st1" d="M19.1,69.4h-1.9v1.9h1.9V69.4z"/>
	<path class="st1" d="M51.5,94.4h-1.9v1.9h1.9V94.4z"/>
	<path class="st1" d="M53.4,96.4h-1.9v1.9h1.9V96.4z"/>
	<path class="st1" d="M55.3,98.3h-1.9v1.9h1.9V98.3z"/>
	<path class="st1" d="M57.2,100.2h-1.9v1.9h1.9V100.2z"/>
	<path class="st1" d="M59.1,102.2h-1.9v1.9h1.9V102.2z"/>
	<path class="st1" d="M61,104.1h-1.9v1.9H61V104.1z"/>
	<path class="st1" d="M17.2,67.5h-1.9v1.9h1.9V67.5z"/>
	<path class="st1" d="M15.3,65.5h-1.9v1.9h1.9V65.5z"/>
	<rect x="13.3" y="57.8" class="st0" width="1.9" height="0"/>
	<rect x="13.3" y="57.8" class="st1" width="1.9" height="0"/>
	<path class="st1" d="M13.3,63.6h-1.9v1.9h1.9V63.6z"/>
	<rect x="3.8" y="55.9" class="st1" width="1.9" height="1.9"/>
	<path class="st1" d="M3.8,54H1.9v1.9h1.9V54z"/>
	<path class="st1" d="M1.9,52H0V54h1.9V52z"/>
</g>
</svg>
