<?xml version="1.0" encoding="utf-8"?>
<!-- Generator: Adobe Illustrator 24.1.1, SVG Export Plug-In . SVG Version: 6.00 Build 0)  -->
<svg version="1.1" xmlns="http://www.w3.org/2000/svg" xmlns:xlink="http://www.w3.org/1999/xlink" x="0px" y="0px"
	 viewBox="0 0 61 133" style="enable-background:new 0 0 61 133;" xml:space="preserve">
<style type="text/css">
	.st0{fill:#C1C1C1;}
	.st1{fill:#FFFFFF;}
	.st2{fill:none;}
	.st3{fill:#DB0303;}
	.st4{fill:#FFB600;}
	.st5{fill:#472700;}
</style>
<g id="Слой_2">
</g>
<g id="Слой_1">
	<g id="Слой_2_1_">
	</g>
	<g>
		
			<rect x="4.7" y="121.8" transform="matrix(0.7051 -0.7091 0.7091 0.7051 -85.3756 40.1867)" class="st0" width="1.9" height="1.9"/>
		<rect x="4.7" y="119" transform="matrix(0.7051 -0.7091 0.7091 0.7051 -83.4044 39.3816)" class="st0" width="1.9" height="1.9"/>
		
			<rect x="4.7" y="116.3" transform="matrix(0.7051 -0.7091 0.7091 0.7051 -81.4922 38.5768)" class="st0" width="1.9" height="1.9"/>
		
			<rect x="4.7" y="113.6" transform="matrix(0.7051 -0.7091 0.7091 0.7051 -79.5799 37.7719)" class="st0" width="1.9" height="1.9"/>
		<rect x="4.6" y="111" transform="matrix(0.7051 -0.7091 0.7091 0.7051 -77.7387 36.9381)" class="st0" width="1.9" height="1.9"/>
		
			<rect x="4.6" y="108.3" transform="matrix(0.7051 -0.7091 0.7091 0.7051 -75.8264 36.1332)" class="st0" width="1.9" height="1.9"/>
		
			<rect x="4.6" y="105.6" transform="matrix(0.7051 -0.7091 0.7091 0.7051 -73.9142 35.3285)" class="st0" width="1.9" height="1.9"/>
		<polygon class="st0" points="6.9,103.9 7,103.8 5.6,102.5 6.9,101.2 6.8,101.1 6.9,101.1 5.6,99.8 6.9,98.5 6.8,98.5 6.9,98.4 
			5.6,97.1 6.9,95.8 6.8,95.8 6.9,95.7 5.6,94.4 6.9,93.2 6.8,93.1 6.9,93 5.7,91.8 6.9,90.6 6.8,90.5 6.9,90.3 5.6,89.1 6.9,87.8 
			6.8,87.7 6.9,87.6 5.6,86.4 6.9,85.1 6.8,85 6.9,85 5.6,83.7 6.9,82.4 6.8,82.3 6.9,82.3 5.6,81 6.8,79.7 6.8,79.7 6.8,79.6 
			5.6,78.3 6.8,77 6.8,77 6.8,76.9 5.6,75.6 6.8,74.4 6.8,74.3 6.8,74.2 5.6,72.9 6.8,71.7 6.8,71.6 6.8,71.6 5.5,70.3 6.8,69 
			6.7,68.9 6.8,68.8 5.5,67.6 6.8,66.3 6.7,66.2 6.8,66.2 5.5,64.9 6.8,63.5 6.7,63.5 6.8,63.5 5.5,62.1 6.8,60.8 6.7,60.8 
			6.8,60.8 5.5,59.5 6.8,58.1 6.7,58.1 6.8,58 5.4,56.6 4.1,58 4.2,58.1 4.1,58.1 5.4,59.5 4.1,60.8 4.2,60.8 4.1,60.8 5.4,62.1 
			4.1,63.5 4.2,63.5 4.1,63.5 5.4,64.9 4.1,66.2 4.2,66.2 4.1,66.3 5.4,67.6 4.1,68.8 4.2,68.9 4.1,69 5.5,70.3 4.1,71.6 4.2,71.7 
			4.1,71.7 5.4,72.9 4.1,74.2 4.2,74.3 4.1,74.4 5.4,75.6 4.2,76.9 4.2,77 4.2,77 5.4,78.3 4.2,79.6 4.2,79.7 4.2,79.7 5.4,81 
			4.2,82.3 4.2,82.3 4.2,82.4 5.4,83.7 4.2,85 4.2,85 4.2,85.1 5.5,86.4 4.2,87.6 4.3,87.7 4.2,87.8 5.5,89.1 4.2,90.3 4.3,90.5 
			4.2,90.6 5.4,91.8 4.2,93 4.3,93.1 4.2,93.2 5.5,94.4 4.2,95.7 4.3,95.8 4.2,95.9 5.5,97.1 4.2,98.4 4.3,98.5 4.2,98.5 5.5,99.8 
			4.2,101.1 4.3,101.2 4.2,101.2 5.6,102.6 4.3,103.8 4.2,103.9 5.6,105.3 5.6,105.2 		"/>
		
			<rect x="4.5" y="54.4" transform="matrix(0.7051 -0.7091 0.7091 0.7051 -37.6528 20.2075)" class="st0" width="1.9" height="1.9"/>
		
			<rect x="4.5" y="51.7" transform="matrix(0.7051 -0.7091 0.7091 0.7051 -35.7406 19.4027)" class="st0" width="1.9" height="1.9"/>
		<rect x="4.5" y="49" transform="matrix(0.7051 -0.7091 0.7091 0.7051 -33.8283 18.5979)" class="st0" width="1.9" height="1.9"/>
		<rect x="4.5" y="46.3" transform="matrix(0.7051 -0.7091 0.7091 0.7051 -31.916 17.7931)" class="st0" width="1.9" height="1.9"/>
		
			<rect x="4.5" y="43.6" transform="matrix(0.7051 -0.7091 0.7091 0.7051 -30.0038 16.9883)" class="st0" width="1.9" height="1.9"/>
		<rect x="4.4" y="41" transform="matrix(0.7051 -0.7091 0.7091 0.7051 -28.1626 16.1544)" class="st0" width="1.9" height="1.9"/>
		
			<rect x="4.4" y="38.3" transform="matrix(0.7051 -0.7091 0.7091 0.7051 -26.2503 15.3496)" class="st0" width="1.9" height="1.9"/>
	</g>
	<rect x="4.2" y="50.3" class="st0" width="13.4" height="7.5"/>
	<rect x="0.4" y="48.3" class="st1" width="6.7" height="7.5"/>
	<g id="Слой_2_2_">
	</g>
	<g id="Слой_2_3_">
	</g>
	<polygon class="st1" points="55.7,61.8 55.7,69.5 51.9,69.5 51.9,61.8 50,61.8 50,46.3 48.1,46.3 48.1,36.6 51.9,36.6 51.9,27 
		53.8,27 53.8,61.8 	"/>
	<polygon class="st1" points="42.3,27 44.2,27 44.2,27 	"/>
	<polygon class="st0" points="42.3,27 44.2,27 44.2,27 	"/>
	<polygon class="st1" points="40.4,27 42.3,27 42.3,27 	"/>
	<polygon class="st0" points="40.4,27 42.3,27 42.3,27 	"/>
	<rect x="38.5" y="11.7" class="st1" width="1.9" height="1.9"/>
	<polygon class="st1" points="38.5,11.7 40.4,11.7 40.4,11.7 	"/>
	<rect x="38.5" y="11.7" class="st1" width="0" height="1.9"/>
	<path class="st1" d="M38.5,11.7L38.5,11.7L38.5,11.7z"/>
	<polygon class="st0" points="34.7,73.3 36.6,73.3 36.6,73.3 	"/>
	<polygon class="st1" points="34.7,73.3 36.6,73.3 36.6,73.3 	"/>
	<polygon class="st0" points="31.9,11.7 32.9,11.7 32.9,11.7 	"/>
	<polygon points="30.9,11.7 32.8,11.7 32.8,11.7 	"/>
	<rect x="38.5" y="11.7" width="1.9" height="1.9"/>
	<path class="st1" d="M29,9.7v7.7h1.9v1.9h1.9v1.9h5.7v-1.9h1.9v-1.9h1.9V9.7H29z M32.8,13.6h-1.9v-1.9h1.9V13.6z M40.4,13.6h-1.9
		v-1.9h1.9V13.6z"/>
	<rect x="30.9" y="11.7" width="1.9" height="1.9"/>
	<polygon class="st1" points="30.9,11.7 32.8,11.7 32.8,11.7 	"/>
	<polygon class="st0" points="29,57.8 30.9,57.8 30.9,57.8 	"/>
	<polygon class="st0" points="36.6,73.3 36.6,83 34.7,83 34.7,96.5 32.8,96.5 32.8,84.9 30.9,84.9 30.9,75.3 29,75.3 29,71.4 
		27.1,71.4 27.1,67.6 23.3,67.6 23.3,73.3 21.4,73.3 21.4,65.6 23.3,65.6 23.3,61.8 25.2,61.8 25.2,42.5 27.1,42.5 27.1,59.8 
		29,59.8 29,57.8 30.9,57.8 30.9,67.6 32.8,67.6 32.8,69.5 34.7,69.5 34.7,73.3 	"/>
	<polygon class="st0" points="25.2,42.5 27.1,42.5 27.1,42.5 	"/>
	<polygon class="st1" points="29,57.8 30.9,57.8 30.9,57.8 	"/>
	<polygon class="st0" points="48.1,36.6 48.1,46.3 50,46.3 50,61.8 51.9,61.8 51.9,71.4 50,71.4 50,63.6 48.1,63.6 48.1,50.1 
		46.2,50.1 46.2,32.8 44.3,32.8 44.3,27 40.4,27 40.4,28.9 36.6,28.9 36.6,30.8 34.7,30.8 34.7,28.9 30.9,28.9 30.9,25.1 27.1,25.1 
		27.1,23.1 30.9,23.1 30.9,21.3 29,21.3 29,17.3 30.9,17.3 30.9,19.3 32.8,19.3 32.8,21.3 38.5,21.3 38.5,19.3 40.4,19.3 40.4,17.3 
		42.3,17.3 42.3,21.3 40.4,21.3 40.4,25.1 50,25.1 50,27 51.9,27 51.9,36.6 	"/>
	<g>
		<polygon class="st1" points="42.3,3.8 42.3,7.8 29,7.8 29,3.8 30.9,3.8 30.9,1.9 32.8,1.9 32.8,0.1 38.5,0.1 38.5,1.9 40.4,1.9 
			40.4,3.8 		"/>
	</g>
	<polygon class="st1" points="25.2,42.5 27.1,42.5 27.1,42.5 	"/>
	<polygon class="st1" points="25.2,27 27.1,27 27.1,27 	"/>
	<polygon class="st0" points="25.2,27 27.1,27 27.1,27 	"/>
	<polygon class="st0" points="46.2,9.7 46.2,13.6 44.3,13.6 44.3,15.4 42.3,15.4 42.3,9.7 29,9.7 29,15.4 27.1,15.4 27.1,13.6 
		25.2,13.6 25.2,9.7 27.1,9.7 27.1,7.8 44.3,7.8 44.3,9.7 	"/>
	<polygon class="st1" points="23.3,27 25.2,27 25.2,27 	"/>
	<rect x="23.3" y="25.1" class="st0" width="3.8" height="1.9"/>
	<polygon class="st0" points="23.3,27 25.2,27 25.2,27 	"/>
	<polygon class="st1" points="21.4,73.3 23.3,73.3 23.3,73.3 	"/>
	<polygon class="st0" points="21.4,73.3 23.3,73.3 23.3,73.3 	"/>
	<rect x="21.4" y="27" class="st0" width="1.9" height="1.9"/>
	<line class="st2" x1="21.4" y1="73.3" x2="21.4" y2="75.2"/>
	<rect x="2.3" y="50.1" class="st0" width="1.9" height="1.9"/>
	<rect x="15.7" y="54" class="st0" width="1.9" height="1.9"/>
	<polygon class="st1" points="50,71.4 50,63.6 48.1,63.6 48.1,50.1 46.2,50.1 46.2,32.8 44.3,32.8 44.3,27 40.4,27 40.4,28.9 
		36.6,28.9 36.6,30.8 34.7,30.8 34.7,28.9 30.9,28.9 30.9,25.1 27.1,25.1 27.1,27 23.3,27 23.3,28.9 21.4,28.9 21.4,50.1 19.5,50.1 
		19.5,54 17.6,54 17.6,56 21.4,56 21.4,54 23.3,54 23.3,52 25.2,52 25.2,42.5 27.1,42.5 27.1,59.8 29,59.8 29,57.8 30.9,57.8 
		30.9,67.6 32.8,67.6 32.8,69.5 34.7,69.5 34.7,73.3 36.6,73.3 36.6,83 34.7,83 34.7,96.5 32.8,96.5 32.8,84.9 30.9,84.9 30.9,75.3 
		29,75.3 29,71.4 27.1,71.4 27.1,67.6 23.3,67.6 23.3,73.3 21.4,73.3 21.4,86.8 23.3,86.8 23.3,104.2 25.2,104.2 25.2,110 27.1,110 
		27.1,115.7 29,115.7 29,117.7 30.9,117.7 30.9,131.2 19.5,131.2 19.5,133.1 48.1,133.1 48.1,131.2 38.5,131.2 38.5,117.7 
		40.4,117.7 40.4,113.8 42.3,113.8 42.3,106.1 44.3,106.1 44.3,102.3 46.2,102.3 46.2,94.5 48.1,94.5 48.1,77.2 50,77.2 50,79.1 
		51.9,79.1 51.9,71.4 	"/>
	<polyline class="st0" points="21.4,75.2 21.4,86.8 23.3,86.8 23.3,104.2 25.2,104.2 25.2,110 27.1,110 27.1,115.7 29,115.7 
		29,117.7 30.9,117.7 30.9,131.2 19.5,131.2 19.5,132.9 48.1,132.9 48.1,131.2 38.5,131.2 38.5,117.7 40.4,117.7 40.4,113.8 
		42.3,113.8 42.3,106 44.3,106 44.3,102.3 46.2,102.3 46.2,94.5 48.1,94.5 48.1,77.2 50,77.2 50,79 51.9,79 51.9,69.5 55.7,69.5 
		55.7,61.8 53.8,61.8 53.8,26.9 50,26.9 50,25.1 40.4,25.1 40.4,21.3 42.3,21.3 42.3,15.4 44.3,15.4 44.3,13.4 46.2,13.4 46.2,9.7 
		44.3,9.7 44.3,7.8 42.3,7.8 42.3,3.8 40.4,3.8 40.4,1.9 38.5,1.9 38.5,-0.1 32.8,-0.1 32.8,1.9 30.9,1.9 30.9,3.8 29,3.8 29,7.8 
		27.1,7.8 27.1,9.7 25.2,9.7 25.2,13.4 27.1,13.4 27.1,15.4 29,15.4 29,21.3 30.9,21.3 30.9,23.1 27.1,23.1 27.1,25.1 23.3,25.1 
		23.3,26.9 21.4,26.9 21.4,28.9 19.5,28.9 19.5,48.3 17.6,48.3 17.6,52 17.6,56 21.4,56 21.4,54 23.3,54 23.3,52 25.2,52 25.2,61.8 
		23.3,61.8 23.3,65.5 21.4,65.5 21.4,73.3 	"/>
	<g id="Слой_2_5_">
	</g>
	<polygon class="st1" points="55.7,61.8 55.7,69.5 51.9,69.5 51.9,61.8 50,61.8 50,46.3 48.1,46.3 48.1,36.6 51.9,36.6 51.9,27 
		53.8,27 53.8,61.8 	"/>
	<polygon class="st1" points="42.3,27 44.2,27 44.2,27 	"/>
	<polygon class="st0" points="42.3,27 44.2,27 44.2,27 	"/>
	<polygon class="st1" points="40.4,27 42.3,27 42.3,27 	"/>
	<polygon class="st0" points="40.4,27 42.3,27 42.3,27 	"/>
	<rect x="38.5" y="11.7" class="st1" width="1.9" height="1.9"/>
	<polygon class="st1" points="38.5,11.7 40.4,11.7 40.4,11.7 	"/>
	<rect x="38.5" y="11.7" class="st1" width="0" height="1.9"/>
	<path class="st1" d="M38.5,11.7L38.5,11.7L38.5,11.7z"/>
	<polygon class="st0" points="34.7,73.3 36.6,73.3 36.6,73.3 	"/>
	<polygon class="st1" points="34.7,73.3 36.6,73.3 36.6,73.3 	"/>
	<polygon class="st0" points="31.9,11.7 32.9,11.7 32.9,11.7 	"/>
	<polygon points="30.9,11.7 32.8,11.7 32.8,11.7 	"/>
	<rect x="38.5" y="11.7" width="1.9" height="1.9"/>
	<path class="st1" d="M29,9.7v7.7h1.9v1.9h1.9v1.9h5.7v-1.9h1.9v-1.9h1.9V9.7H29z M32.8,13.6h-1.9v-1.9h1.9V13.6z M40.4,13.6h-1.9
		v-1.9h1.9V13.6z"/>
	<rect x="30.9" y="11.7" width="1.9" height="1.9"/>
	<polygon class="st1" points="30.9,11.7 32.8,11.7 32.8,11.7 	"/>
	<polygon class="st0" points="29,57.8 30.9,57.8 30.9,57.8 	"/>
	<polygon class="st0" points="36.6,73.3 36.6,83 34.7,83 34.7,96.5 32.8,96.5 32.8,84.9 30.9,84.9 30.9,75.3 29,75.3 29,71.4 
		27.1,71.4 27.1,67.6 23.3,67.6 23.3,73.3 21.4,73.3 21.4,65.6 23.3,65.6 23.3,61.8 25.2,61.8 25.2,42.5 27.1,42.5 27.1,59.8 
		29,59.8 29,57.8 30.9,57.8 30.9,67.6 32.8,67.6 32.8,69.5 34.7,69.5 34.7,73.3 	"/>
	<polygon class="st0" points="25.2,42.5 27.1,42.5 27.1,42.5 	"/>
	<polygon class="st1" points="29,57.8 30.9,57.8 30.9,57.8 	"/>
	<polygon class="st0" points="48.1,36.6 48.1,46.3 50,46.3 50,61.8 51.9,61.8 51.9,71.4 50,71.4 50,63.6 48.1,63.6 48.1,50.1 
		46.2,50.1 46.2,32.8 44.3,32.8 44.3,27 40.4,27 40.4,28.9 36.6,28.9 36.6,30.8 34.7,30.8 34.7,28.9 30.9,28.9 30.9,25.1 27.1,25.1 
		27.1,23.1 30.9,23.1 30.9,21.3 29,21.3 29,17.3 30.9,17.3 30.9,19.3 32.8,19.3 32.8,21.3 38.5,21.3 38.5,19.3 40.4,19.3 40.4,17.3 
		42.3,17.3 42.3,21.3 40.4,21.3 40.4,25.1 50,25.1 50,27 51.9,27 51.9,36.6 	"/>
	<g>
		<polygon class="st1" points="42.3,3.8 42.3,7.8 29,7.8 29,3.8 30.9,3.8 30.9,1.9 32.8,1.9 32.8,0.1 38.5,0.1 38.5,1.9 40.4,1.9 
			40.4,3.8 		"/>
	</g>
	<polygon class="st1" points="51.9,71.4 51.9,79.1 50,79.1 50,77.2 48.1,77.2 48.1,94.5 46.2,94.5 46.2,102.3 44.3,102.3 
		44.3,106.1 42.3,106.1 42.3,113.8 40.4,113.8 40.4,117.7 38.5,117.7 38.5,131.2 48.1,131.2 48.1,133.1 19.5,133.1 19.5,131.2 
		30.9,131.2 30.9,117.7 29,117.7 29,115.7 27.1,115.7 27.1,110 25.2,110 25.2,104.2 23.3,104.2 23.3,86.8 21.4,86.8 21.4,73.3 
		23.3,73.3 23.3,67.6 27.1,67.6 27.1,71.4 29,71.4 29,75.3 30.9,75.3 30.9,84.9 32.8,84.9 32.8,96.5 34.7,96.5 34.7,83 36.6,83 
		36.6,73.3 34.7,73.3 34.7,69.5 32.8,69.5 32.8,67.6 30.9,67.6 30.9,57.8 29,57.8 29,59.8 27.1,59.8 27.1,42.5 25.2,42.5 25.2,52 
		23.3,52 23.3,54 21.4,54 21.4,56 17.6,56 17.6,59.8 11.8,59.8 11.8,57.8 13.8,57.8 13.8,56 15.7,56 15.7,54 19.5,54 19.5,50.1 
		21.4,50.1 21.4,28.9 23.3,28.9 23.3,27 27.1,27 27.1,25.1 30.9,25.1 30.9,28.9 34.7,28.9 34.7,30.8 36.6,30.8 36.6,28.9 40.4,28.9 
		40.4,27 44.3,27 44.3,32.8 46.2,32.8 46.2,50.1 48.1,50.1 48.1,63.6 50,63.6 50,71.4 	"/>
	<polygon class="st1" points="25.2,42.5 27.1,42.5 27.1,42.5 	"/>
	<polygon class="st1" points="25.2,27 27.1,27 27.1,27 	"/>
	<polygon class="st0" points="25.2,27 27.1,27 27.1,27 	"/>
	<polygon class="st0" points="46.2,9.7 46.2,13.6 44.3,13.6 44.3,15.4 42.3,15.4 42.3,9.7 29,9.7 29,15.4 27.1,15.4 27.1,13.6 
		25.2,13.6 25.2,9.7 27.1,9.7 27.1,7.8 44.3,7.8 44.3,9.7 	"/>
	<polygon class="st1" points="23.3,27 25.2,27 25.2,27 	"/>
	<rect x="23.3" y="25.1" class="st0" width="3.8" height="1.9"/>
	<polygon class="st0" points="23.3,27 25.2,27 25.2,27 	"/>
	<polygon class="st1" points="21.4,73.3 23.3,73.3 23.3,73.3 	"/>
	<polygon class="st0" points="21.4,73.3 23.3,73.3 23.3,73.3 	"/>
	<rect x="21.4" y="27" class="st0" width="1.9" height="1.9"/>
	<line class="st2" x1="21.4" y1="73.3" x2="21.4" y2="75.2"/>
	<polygon class="st1" points="11.8,57.8 13.7,57.8 13.7,57.8 	"/>
	<polygon class="st0" points="11.8,57.8 13.7,57.8 13.7,57.8 	"/>
	<rect x="0.4" y="52" class="st0" width="6.7" height="3.8"/>
	<g>
		<polygon class="st3" points="10.5,32.1 11,32.1 11,32.1 		"/>
		<polygon class="st3" points="10.5,32.1 11,32.1 11,32.1 		"/>
		<polygon class="st4" points="10,32.1 10.5,32.1 10.5,32.1 		"/>
		<polygon class="st3" points="10,32.1 10.5,32.1 10.5,32.1 		"/>
		<rect x="10" y="28.4" class="st3" width="0.5" height="1.1"/>
		<rect x="9.4" y="33.8" class="st4" width="0.5" height="0.5"/>
		<polygon class="st3" points="8.9,36.3 9.4,36.3 9.4,36.3 		"/>
		<polygon class="st3" points="8.9,32.1 9.4,32.1 9.4,32.1 		"/>
		<polygon class="st4" points="8.9,32.1 9.4,32.1 9.4,32.1 		"/>
		<polygon class="st3" points="8.4,36.3 8.9,36.3 8.9,36.3 		"/>
		<path class="st3" d="M8.4,25.3H7.9v0.5h0.5V25.3z"/>
		<rect x="7.9" y="36.3" class="st3" width="0" height="0.5"/>
		<rect x="7.9" y="35.8" class="st3" width="0" height="0.5"/>
		<polygon class="st4" points="7.3,32.1 7.9,32.1 7.9,32.1 		"/>
		<polygon class="st3" points="7.3,32.1 7.9,32.1 7.9,32.1 		"/>
		<polygon class="st3" points="6.8,36.3 7.3,36.3 7.3,36.3 		"/>
		<path class="st4" d="M7.3,24.3H6.8v0.5h0.5V24.3z"/>
		<rect x="6.8" y="36.3" class="st3" width="0" height="0.5"/>
		<path class="st3" d="M6.8,36.3L6.8,36.3L6.8,36.3z"/>
		<polygon class="st4" points="5.8,36.3 6.3,36.3 6.3,36.3 		"/>
		<rect x="5.8" y="29.5" class="st4" width="0.5" height="0.5"/>
		<rect x="5.2" y="36.3" class="st3" width="0" height="0.5"/>
		<rect x="5.8" y="36.3" class="st3" width="0" height="0.5"/>
		<path class="st3" d="M5.8,36.3L5.8,36.3L5.8,36.3z"/>
		<polygon class="st4" points="6.3,34.8 6.3,36.3 5.8,36.3 5.8,35.8 5.2,35.8 5.2,35.3 5.8,35.3 5.8,34.8 		"/>
		<rect x="5.2" y="35.3" class="st4" width="0" height="0.5"/>
		<rect x="5.2" y="34.3" class="st3" width="0" height="0.5"/>
		<rect x="5.2" y="33.8" class="st3" width="0" height="0.5"/>
		<rect x="5.2" y="32.6" class="st4" width="0" height="0.5"/>
		<rect x="5.2" y="32.1" class="st4" width="0" height="0.5"/>
		<rect x="5.2" y="31.6" class="st4" width="0" height="0.5"/>
		<rect x="5.2" y="30.5" class="st3" width="0" height="0.5"/>
		<rect x="5.2" y="30" class="st3" width="0" height="0.5"/>
		<rect x="5.2" y="29.5" class="st3" width="0" height="0.5"/>
		<rect x="5.2" y="28.4" class="st4" width="0" height="0.5"/>
		<rect x="5.2" y="27.9" class="st4" width="0" height="0.5"/>
		<rect x="5.2" y="27.4" class="st4" width="0" height="0.5"/>
		<polygon class="st4" points="6.3,27.4 6.3,28.4 5.8,28.4 5.8,28.9 5.2,28.9 5.2,27.4 		"/>
		<rect x="5.2" y="26.8" class="st4" width="0.5" height="0.5"/>
		<rect x="5.2" y="26.8" class="st4" width="0" height="0.5"/>
		<rect x="5.2" y="26.3" class="st3" width="0" height="0.5"/>
		<g>
			<path class="st3" d="M11,31v-1.6h-0.5v1.1H10v-1.1H9.5v-1.6H9v-0.5H6.4v1.1H5.9v0.5H5.4v-1.6H2.2v1.1H1.5v1.1H1V31H0.5v1.6H0v1.6
				h0.5v1.1h1.1v1.1h0.5v0.5h0.5v-0.5h0.5v-0.5h0.5v0.5h1.6l0,0l0,0v0.5h0.5v-0.5l0,0v-0.5H5.2v-0.5h0.5v-0.5h0.5V37h0.5v-0.5h0.5
				V36h0.5v1.1h0.5v-0.5h1.1v-0.5h1.1v-0.5h0.5v-1.1h0.5V31H11z M1.6,34.3H1.1v-1.1h0.5V34.3z M3.1,31.6v2.6H2.6v-1.1H2.1V31h0.5v-1
				h0.5v-0.5H2.6V29h0.5v0.5h1.1V30H3.7v1.6H3.1z M5.2,34.8H4.7v0.5H4.2v-0.5H3.7v-0.5h0.5v-3.7h0.5V30h0.5v-0.5l0,0V31H4.7v2.6h0.5
				V34.8L5.2,34.8z M6.3,32.6H5.8v0.5H5.3v-1.6h0.5v-1.1h0.5V32.6z M6.3,30H5.8v-0.5h0.5V30z M11,32.1h-0.5v1.6H10v0.5H9.5v-0.5H10
				v-1.1H9.5v-0.5H9v-0.5H8.5v1.6H8v1.1h0.5v0.5H8v0.5H7.5v-3.1H8v-0.5H7.5v-1.1H8v1.1h0.5V30H9v1h0.5v0.5H10V32L11,32.1L11,32.1z"
				/>
			<polygon class="st4" points="10.5,32.1 10.5,33.8 10,33.8 10,32.6 9.4,32.6 9.4,32.1 8.9,32.1 8.9,31.6 8.4,31.6 8.4,30 8.9,30 
				8.9,31 9.4,31 9.4,31.6 10,31.6 10,32.1 			"/>
			<rect x="7.3" y="30.5" class="st4" width="0.5" height="1.1"/>
			<polygon class="st4" points="8.4,31.6 8.4,33.1 7.9,33.1 7.9,34.3 8.4,34.3 8.4,34.8 7.9,34.8 7.9,35.3 7.3,35.3 7.3,32.1 
				7.9,32.1 7.9,31.6 			"/>
			<polygon class="st4" points="6.3,30.5 6.3,32.6 5.8,32.6 5.8,33.1 5.2,33.1 5.2,31.6 5.8,31.6 5.8,30.5 			"/>
			<polygon class="st3" points="7.3,25.3 7.3,27.4 5.8,27.4 5.8,26.8 5.2,26.8 5.2,26.3 5.2,26.3 5.2,24.3 5.8,24.3 5.8,25.3 
				6.3,25.3 6.3,26.3 6.8,26.3 6.8,25.3 			"/>
		</g>
		<rect x="7.9" y="26.3" class="st3" width="0.5" height="1.1"/>
		<path class="st4" d="M5.8,23.3H5.3v0.5h0.5V23.3z"/>
		<path class="st4" d="M5.8,22.1H5.3v0.5h0.5V22.1z"/>
		<rect x="5.2" y="36.3" class="st3" width="0" height="0.5"/>
		<polygon class="st3" points="4.7,36.3 5.2,36.3 5.2,36.3 		"/>
		<rect x="5.2" y="35.3" class="st3" width="0" height="0.5"/>
		<rect x="5.2" y="34.3" class="st4" width="0" height="0.5"/>
		<rect x="5.2" y="33.8" class="st4" width="0" height="0.5"/>
		<rect x="5.2" y="32.6" class="st3" width="0" height="0.5"/>
		<rect x="5.2" y="32.1" class="st3" width="0" height="0.5"/>
		<rect x="5.2" y="31.6" class="st3" width="0" height="0.5"/>
		<rect x="5.2" y="30.5" class="st4" width="0" height="0.5"/>
		<polygon class="st4" points="5.2,30 5.2,31 4.7,31 4.7,33.8 5.2,33.8 5.2,34.8 4.7,34.8 4.7,35.3 4.2,35.3 4.2,34.8 3.7,34.8 
			3.7,34.3 4.2,34.3 4.2,30.5 4.7,30.5 4.7,30 		"/>
		<rect x="5.2" y="30" class="st4" width="0" height="0.5"/>
		<rect x="5.2" y="29.5" class="st3" width="0" height="0.5"/>
		<rect x="5.2" y="28.4" class="st3" width="0" height="0.5"/>
		<rect x="5.2" y="27.9" class="st3" width="0" height="0.5"/>
		<rect x="5.2" y="27.4" class="st3" width="0" height="0.5"/>
		<rect x="5.2" y="26.8" class="st3" width="0" height="0.5"/>
		<polygon class="st3" points="5.2,27.4 3.7,27.4 3.7,26.8 4.2,26.8 4.2,25.8 4.7,25.8 4.7,26.3 5.2,26.3 		"/>
		<rect x="5.2" y="26.3" class="st3" width="0" height="0.5"/>
		<polygon class="st3" points="4.2,36.3 4.7,36.3 4.7,36.3 		"/>
		<path class="st3" d="M4.7,24.8H4.2v0.5h0.5V24.8z"/>
		<polygon class="st3" points="3.7,36.3 4.2,36.3 4.2,36.3 		"/>
		<path class="st4" d="M4.2,24.3H3.7v0.5h0.5V24.3z"/>
		<rect x="3.7" y="35.8" class="st3" width="0" height="0.5"/>
		<path class="st3" d="M3.7,26.3H3.2v0.5h0.5V26.3z"/>
		<polygon class="st3" points="3.1,35.8 3.1,36.3 2.6,36.3 2.6,36.3 3.1,36.3 		"/>
		<rect x="2.6" y="28.9" class="st4" width="0.5" height="0.5"/>
		<polygon class="st4" points="4.2,29.5 4.2,30 3.7,30 3.7,31.6 3.1,31.6 3.1,34.3 2.6,34.3 2.6,33.1 2.1,33.1 2.1,31 2.6,31 
			2.6,30 3.1,30 3.1,29.5 		"/>
		<path class="st3" d="M2.6,25.8H2.1v0.5h0.5V25.8z"/>
		<rect x="1" y="33.1" class="st4" width="0.5" height="1.1"/>
		<path class="st4" d="M1,28.9H0.5v0.5H1V28.9z"/>
		<rect x="2.1" y="26.8" class="st3" width="0.5" height="0.5"/>
		<path class="st4" d="M0.5,30.5H0V31h0.5V30.5z"/>
		<polygon class="st5" points="8.9,36.3 9.4,36.3 9.4,36.3 		"/>
		<polygon class="st5" points="8.4,36.3 8.9,36.3 8.9,36.3 		"/>
		<polygon class="st5" points="7.3,36.3 7.3,36.3 6.8,36.3 6.8,36.8 6.8,36.8 6.8,36.3 		"/>
		<polygon class="st5" points="6.3,36.3 6.3,36.3 5.8,36.3 5.8,36.8 5.8,36.8 5.8,36.3 		"/>
		<polygon class="st5" points="4.7,36.3 5.2,36.3 5.2,36.3 		"/>
		<polygon class="st5" points="4.2,36.3 4.7,36.3 4.7,36.3 		"/>
		<polygon class="st5" points="3.7,36.3 4.2,36.3 4.2,36.3 		"/>
		<rect x="3.1" y="36.8" class="st5" width="0" height="0.5"/>
		<path class="st5" d="M3.1,36.3L3.1,36.3L3.1,36.3z"/>
		<rect x="3.1" y="35.8" class="st5" width="0" height="0.5"/>
		<polygon class="st5" points="9.4,36.3 9.4,36.8 8.9,36.8 8.9,37.3 7.9,37.3 7.9,38.5 6.8,38.5 6.8,38 5.8,38 5.8,38.5 5.2,38.5 
			5.2,38 4.2,38 4.2,37.3 3.1,37.3 3.1,36.8 2.6,36.8 2.6,36.3 3.1,36.3 3.1,35.8 3.7,35.8 3.7,36.3 5.2,36.3 5.2,36.8 5.8,36.8 
			5.8,36.3 6.3,36.3 6.3,36.8 6.8,36.8 6.8,36.3 7.3,36.3 7.3,35.8 7.9,35.8 7.9,36.8 8.4,36.8 8.4,36.3 		"/>
		<polygon class="st5" points="2.6,36.3 3.1,36.3 3.1,36.3 		"/>
	</g>
	<g>
		<rect x="9.2" y="35" class="st3" width="1.1" height="0.5"/>
		<polygon class="st3" points="8.6,36 9.2,36 9.2,36 		"/>
		<rect x="8.6" y="34.5" class="st3" width="0.5" height="0.5"/>
		<polygon class="st3" points="8.1,36 8.6,36 8.6,36 		"/>
		<polygon class="st3" points="9.2,35.5 9.2,36 8.1,36 8.1,36 7.6,36 7.6,35.5 8.1,35.5 8.1,35 8.6,35 8.6,35.5 		"/>
		<rect x="7.6" y="35.5" class="st3" width="0" height="0.5"/>
		<path class="st3" d="M8.1,36L8.1,36L8.1,36z"/>
		<rect x="7.1" y="35.5" class="st3" width="0" height="0.5"/>
		<rect x="7.1" y="35" class="st3" width="0.5" height="0.5"/>
		<polygon class="st3" points="7.1,35.5 7.1,36 6.5,36 6.5,36 7.1,36 		"/>
		<rect x="6" y="36" class="st3" width="0" height="0.5"/>
		<rect x="6.5" y="36" class="st3" width="0" height="0.5"/>
		<path class="st3" d="M6.5,36L6.5,36L6.5,36z"/>
		<polygon class="st3" points="7.1,35.5 7.1,36 6.5,36 6.5,36.5 6,36.5 6,36 6,36 6,35 6.5,35 6.5,35.5 		"/>
		<rect x="6" y="36" class="st3" width="0" height="0.5"/>
		<polygon class="st4" points="5.5,36 6,36 6,36 		"/>
		<rect x="5" y="36" class="st3" width="0" height="0.5"/>
		<rect x="5.5" y="36" class="st3" width="0" height="0.5"/>
		<path class="st3" d="M5.5,36L5.5,36L5.5,36z"/>
		<polygon class="st4" points="6,34.8 6,36 5.5,36 5.5,35.5 5,35.5 5,35 5.5,35 5.5,34.8 		"/>
		<rect x="5" y="36" class="st3" width="0" height="0.5"/>
		<polygon class="st3" points="4.4,36 5,36 5,36 		"/>
		<polygon class="st3" points="3.9,36 4.4,36 4.4,36 		"/>
		<polygon class="st3" points="3.4,36 3.9,36 3.9,36 		"/>
		<rect x="2.9" y="36.5" class="st3" width="0" height="0.5"/>
		<rect x="2.9" y="35.5" class="st3" width="0" height="0.5"/>
		<rect x="3.4" y="35.5" class="st3" width="0" height="0.5"/>
		<polygon class="st3" points="2.3,36 2.9,36 2.9,36 		"/>
		<rect x="2.3" y="36" class="st3" width="0" height="0.5"/>
		<path class="st3" d="M2.3,36L2.3,36L2.3,36z"/>
		<polygon class="st3" points="5.5,35.5 5.5,36 5.5,36 5.5,36.5 5,36.5 5,36 5,36 5,36 3.4,36 3.4,35.5 2.9,35.5 2.9,36 2.3,36 
			2.3,36.5 1.8,36.5 1.8,36 1.3,36 1.3,35 1.8,35 1.8,35.5 2.3,35.5 2.3,35 3.9,35 3.9,35.5 4.4,35.5 4.4,35 5,35 5,35.5 		"/>
		<polygon class="st5" points="8.6,36 9.2,36 9.2,36 		"/>
		<polygon class="st5" points="8.6,36 8.6,36 8.1,36 8.1,36.5 8.1,36.5 8.1,36 		"/>
		<path class="st5" d="M7.1,36L7.1,36L7.1,36z"/>
		<rect x="7.1" y="35.5" class="st5" width="0" height="0.5"/>
		<rect x="6.5" y="37.6" class="st5" width="0" height="0.5"/>
		<polygon class="st5" points="7.1,36 7.1,36 6.5,36 6.5,36.5 6.5,36.5 6.5,36 		"/>
		<polygon class="st5" points="6,36 6,36 5.5,36 5.5,36.5 5.5,36.5 5.5,36 		"/>
		<rect x="5" y="37.6" class="st5" width="0" height="0.5"/>
		<polygon class="st5" points="4.4,36 5,36 5,36 		"/>
		<polygon class="st5" points="3.9,36 4.4,36 4.4,36 		"/>
		<polygon class="st5" points="3.4,36 3.9,36 3.9,36 		"/>
		<rect x="2.9" y="36.5" class="st5" width="0" height="0.5"/>
		<path class="st5" d="M2.9,36L2.9,36L2.9,36z"/>
		<rect x="2.9" y="35.5" class="st5" width="0" height="0.5"/>
		<polygon class="st5" points="2.9,36 2.9,36 2.3,36 2.3,36.5 2.3,36.5 2.3,36 		"/>
		<rect x="7.6" y="36" class="st3" width="0" height="0.5"/>
		<rect x="7.6" y="35.5" class="st3" width="0" height="0.5"/>
		<rect x="6" y="36" class="st3" width="0" height="0.5"/>
		<path class="st4" d="M6,29.8H5.5v0.5H6V29.8z"/>
		<path class="st4" d="M4.3,31.5H3.8V32h0.5V31.5z"/>
		<path class="st4" d="M5.1,28.8H4.6v0.5h0.5V28.8z"/>
		<path class="st4" d="M7.6,34.3H7.1v0.5h0.5V34.3z"/>
		<path class="st4" d="M7.6,30.8H7.1v0.5h0.5V30.8z"/>
		<path class="st4" d="M8,26.5H7.5V27H8V26.5z"/>
		<path class="st4" d="M9.5,29.6H9v0.5h0.5V29.6z"/>
		<rect x="5.5" y="36" class="st3" width="0" height="0.5"/>
		<path class="st3" d="M5.5,33.8H5v0.5h0.5V33.8z"/>
		<path class="st3" d="M7.1,31.4H6.5v0.5H7L7.1,31.4L7.1,31.4z"/>
		<path class="st3" d="M5.4,24.4H4.9v0.5h0.5V24.4z"/>
		<rect x="5" y="36" class="st3" width="0" height="0.5"/>
		<polygon class="st3" points="4.4,36 5,36 5,36 		"/>
		<path class="st3" d="M3.7,31H3.2v0.5h0.5V31L3.7,31z"/>
		<path class="st3" d="M9.4,32.5H8.9V33h0.5V32.5z"/>
		<path class="st3" d="M9.5,30.8H9v0.5h0.5V30.8z"/>
		<path class="st3" d="M4.4,32.6H3.9v0.5h0.5V32.6z"/>
		<path class="st3" d="M3.1,27.9H2.6v0.5h0.5V27.9z"/>
		<polygon class="st3" points="3.4,36 3.9,36 3.9,36 		"/>
		<path class="st3" d="M2.2,33.1H1.7v0.5h0.5V33.1z"/>
		<path class="st3" d="M2.2,30H1.7v0.5h0.5V30z"/>
		<rect x="3.4" y="35.5" class="st3" width="0" height="0.5"/>
		<path class="st3" d="M2.9,35L2.9,35z"/>
		<path class="st3" d="M2.3,36L2.3,36z"/>
		<polygon class="st5" points="9.2,36 9.2,36.5 9.2,36.5 9.2,36 8.6,36 8.6,36 		"/>
		<rect x="8.6" y="36.5" class="st5" width="0" height="0.5"/>
		<polygon class="st5" points="8.1,36 8.6,36 8.6,36 		"/>
		<path class="st5" d="M7.1,36L7.1,36L7.1,36z"/>
		<rect x="7.1" y="35.5" class="st5" width="0" height="0.5"/>
		<polygon class="st5" points="6.5,36 7.1,36 7.1,36 		"/>
		<polygon class="st5" points="6,36 6,36.5 6,36.5 6,36 5.5,36 5.5,36 		"/>
		<rect x="5.5" y="37.6" class="st5" width="0" height="0.5"/>
		<polygon class="st5" points="5,36 5,36.5 5,36.5 5,36 4.4,36 4.4,36 		"/>
		<polygon class="st5" points="3.9,36 4.4,36 4.4,36 		"/>
		<polygon class="st5" points="3.4,36 3.9,36 3.9,36 		"/>
		<rect x="2.9" y="36.5" class="st5" width="0" height="0.5"/>
		<path class="st5" d="M2.9,36L2.9,36L2.9,36z"/>
		<path class="st5" d="M3.4,36L3.4,36L3.4,36z"/>
		<rect x="2.9" y="35.5" class="st5" width="0" height="0.5"/>
		<rect x="3.4" y="35.5" class="st5" width="0" height="0.5"/>
		<polygon class="st5" points="9.2,36 9.2,36.5 8.6,36.5 8.6,37.1 7.6,37.1 7.6,38.1 6.5,38.1 6.5,37.6 5.5,37.6 5.5,38.1 5,38.1 
			5,37.6 3.9,37.6 3.9,37.1 2.9,37.1 2.9,36.5 2.3,36.5 2.3,36 2.9,36 2.9,35.5 3.4,35.5 3.4,36 5,36 5,36.5 5.5,36.5 5.5,36 6,36 
			6,36.5 6.5,36.5 6.5,36 7.1,36 7.1,35.5 7.6,35.5 7.6,36.5 8.1,36.5 8.1,36 		"/>
		<polygon class="st5" points="2.3,36 2.9,36 2.9,36 		"/>
	</g>
	<g>
		<path class="st3" d="M8.1,36.3L8.1,36.3L8.1,36.3z"/>
		<polygon class="st3" points="10.7,33.8 10.7,34.8 9.2,34.8 9.2,35.3 8.6,35.3 8.6,34.8 7.6,34.8 7.6,34.3 8.1,34.3 8.1,33.8 
			9.7,33.8 9.7,34.3 10.2,34.3 10.2,33.8 		"/>
		<path class="st4" d="M8.1,33.3H7.6v0.5h0.5V33.3z"/>
		<rect x="7.1" y="33.8" class="st4" width="0.5" height="1.1"/>
		<polygon class="st3" points="7.1,33.8 7.1,34.8 7.1,34.8 7.1,35.3 6.5,35.3 6.5,34.8 6,34.8 6,33.8 		"/>
		<rect x="5.5" y="34.3" class="st4" width="0.5" height="0.5"/>
		<path class="st3" d="M6,33.3H5.5v0.5H6V33.3z"/>
		<polygon class="st3" points="5.5,33.8 5.5,35 5,35 5,34.8 4.4,34.8 4.4,34.3 5,34.3 5,33.8 		"/>
		<path class="st4" d="M5,33.3H4.5v0.5H5V33.3L5,33.3z"/>
		<rect x="3.9" y="34.8" class="st4" width="0.5" height="0.5"/>
		<rect x="3.4" y="33.8" class="st4" width="1.1" height="0.5"/>
		<polygon class="st3" points="3.9,34.3 3.9,34.8 2.3,34.8 2.3,34.3 2.9,34.3 2.9,33.8 3.4,33.8 3.4,34.3 		"/>
		<path class="st3" d="M2.9,33.3H2.4v0.5h0.5V33.3z"/>
		<rect x="1.8" y="34.8" class="st3" width="0.5" height="0.5"/>
		<polygon class="st3" points="2.3,33.8 2.3,34.3 1.8,34.3 1.8,34.8 1.3,34.8 1.3,33.8 		"/>
		<rect x="0.8" y="34.8" class="st3" width="0.5" height="0.5"/>
		<path class="st3" d="M1.3,33.3H0.8v0.5h0.5V33.3z"/>
		<rect x="0.2" y="33.8" class="st3" width="0.5" height="1.1"/>
		<polygon class="st3" points="8.1,36.3 8.7,36.3 8.7,36.3 		"/>
		<polygon class="st3" points="9.2,35.8 9.2,36.3 8.1,36.3 8.1,36.3 7.6,36.3 7.6,35.8 8.1,35.8 8.1,35.3 8.6,35.3 8.6,35.8 		"/>
		<rect x="7.6" y="36.3" class="st3" width="0" height="0.5"/>
		<rect x="7.1" y="35.8" class="st3" width="0" height="0.5"/>
		<rect x="7.6" y="35.8" class="st3" width="0" height="0.5"/>
		<rect x="7.1" y="35.3" class="st3" width="0.5" height="0.5"/>
		<rect x="6.5" y="36.3" class="st3" width="0" height="0.5"/>
		<polygon class="st3" points="6.5,36.3 7.1,36.3 7.1,36.3 		"/>
		<polygon class="st3" points="7.1,35.8 7.1,36.3 6.5,36.3 6.5,36.8 6,36.8 6,36.3 6,36.3 6,35.8 		"/>
		<rect x="6" y="36.3" class="st3" width="0" height="0.5"/>
		<rect x="6.5" y="36.3" class="st3" width="0" height="0.5"/>
		<path class="st3" d="M6.5,36.3L6.5,36.3L6.5,36.3z"/>
		<rect x="5.5" y="36.3" class="st3" width="0" height="0.5"/>
		<polygon class="st4" points="5.5,36.3 6,36.3 6,36.3 		"/>
		<rect x="5" y="36.3" class="st3" width="0" height="0.5"/>
		<rect x="5.5" y="36.3" class="st3" width="0" height="0.5"/>
		<path class="st3" d="M5.5,36.3L5.5,36.3L5.5,36.3z"/>
		<polygon class="st4" points="6,35 6,36.3 5.5,36.3 5.5,35.8 5,35.8 5,35.3 5.5,35.3 5.5,35 		"/>
		<polygon class="st3" points="4.4,36.3 5,36.3 5,36.3 		"/>
		<path class="st3" d="M4.4,35.3L4.4,35.3L4.4,35.3z"/>
		<polygon class="st3" points="3.9,36.3 4.4,36.3 4.4,36.3 		"/>
		<polygon class="st3" points="3.9,36.3 3.9,36.3 3.4,36.3 3.4,35.8 3.4,35.8 3.4,36.3 		"/>
		<rect x="3.4" y="35.8" class="st3" width="0" height="0.5"/>
		<rect x="2.3" y="36.3" class="st3" width="0" height="0.5"/>
		<polygon class="st3" points="2.9,35.8 2.9,36.3 2.3,36.3 2.3,36.3 2.9,36.3 		"/>
		<path class="st3" d="M2.3,35.3L2.3,35.3L2.3,35.3z"/>
		<rect x="2.3" y="36.3" class="st3" width="0" height="0.5"/>
		<path class="st3" d="M2.3,36.3L2.3,36.3L2.3,36.3z"/>
		<polygon class="st3" points="5.5,35.8 5.5,36.3 5.5,36.3 5.5,36.8 5,36.8 5,36.3 5,36.3 5,36.3 3.4,36.3 3.4,35.8 2.9,35.8 
			2.9,36.3 2.3,36.3 2.3,36.8 1.8,36.8 1.8,36.3 1.3,36.3 1.3,35.3 1.8,35.3 1.8,35.8 2.3,35.8 2.3,35.3 2.3,35.3 2.3,35.3 
			3.9,35.3 3.9,35.8 4.4,35.8 4.4,35.3 4.4,35.3 4.4,35.3 5,35.3 5,35.8 		"/>
		<polygon class="st5" points="8.1,36.3 8.7,36.3 8.7,36.3 		"/>
		<path class="st5" d="M7.1,36.3L7.1,36.3L7.1,36.3z"/>
		<rect x="7.1" y="35.8" class="st5" width="0" height="0.5"/>
		<rect x="6.5" y="38" class="st5" width="0" height="0.5"/>
		<polygon class="st5" points="7.1,36.3 7.1,36.3 6.5,36.3 6.5,36.8 6.5,36.8 6.5,36.3 		"/>
		<polygon class="st5" points="6,36.3 6,36.3 5.5,36.3 5.5,36.8 5.5,36.8 5.5,36.3 		"/>
		<polygon class="st5" points="4.4,36.3 5,36.3 5,36.3 		"/>
		<rect x="3.9" y="37.3" class="st5" width="0" height="0.5"/>
		<polygon class="st5" points="3.9,36.3 4.4,36.3 4.4,36.3 		"/>
		<polygon class="st5" points="3.4,36.3 3.9,36.3 3.9,36.3 		"/>
		<rect x="2.9" y="36.8" class="st5" width="0" height="0.5"/>
		<path class="st5" d="M2.9,36.3L2.9,36.3L2.9,36.3z"/>
		<rect x="2.9" y="35.8" class="st5" width="0" height="0.5"/>
		<polygon class="st5" points="2.9,36.3 2.9,36.3 2.3,36.3 2.3,36.8 2.3,36.8 2.3,36.3 		"/>
		<rect x="7.6" y="36.3" class="st3" width="0" height="0.5"/>
		<rect x="7.6" y="35.8" class="st3" width="0" height="0.5"/>
		<rect x="6" y="36.3" class="st3" width="0" height="0.5"/>
		<path class="st4" d="M6,31.3H5.5v0.5H6V31.3z"/>
		<path class="st4" d="M4.3,31.5H3.8V32h0.5V31.5z"/>
		<path class="st4" d="M5.1,28.8H4.6v0.5h0.5V28.8z"/>
		<path class="st4" d="M7.6,31.6H7.1v0.5h0.5V31.6z"/>
		<path class="st4" d="M8,26.3H7.5v0.5H8V26.3z"/>
		<rect x="5.5" y="36.3" class="st3" width="0" height="0.5"/>
		<path class="st3" d="M7.1,32.1H6.5v0.5H7L7.1,32.1L7.1,32.1z"/>
		<path class="st3" d="M5.4,25.1H4.9v0.5h0.5V25.1z"/>
		<rect x="5" y="36.3" class="st3" width="0" height="0.5"/>
		<polygon class="st3" points="4.4,36.3 5,36.3 5,36.3 		"/>
		<path class="st3" d="M3.7,30.9H3.2v0.5h0.5V30.9z"/>
		<path class="st3" d="M4.4,32.6H3.9v0.5h0.5V32.6z"/>
		<path class="st3" d="M3.1,27.6H2.6v0.5h0.5V27.6z"/>
		<polygon class="st3" points="3.4,36.3 3.9,36.3 3.9,36.3 		"/>
		<path class="st3" d="M2.2,30.3H1.7v0.5h0.5V30.3z"/>
		<rect x="3.4" y="35.8" class="st3" width="0" height="0.5"/>
		<path class="st3" d="M2.9,35.3L2.9,35.3z"/>
		<path class="st3" d="M2.3,36.3L2.3,36.3z"/>
		<polygon class="st5" points="8.1,36.3 8.7,36.3 8.7,36.3 		"/>
		<rect x="7.6" y="38" class="st5" width="0" height="0.5"/>
		<rect x="7.6" y="37.3" class="st5" width="0" height="0.5"/>
		<path class="st5" d="M7.1,36.3L7.1,36.3L7.1,36.3z"/>
		<rect x="7.6" y="36.3" class="st5" width="0" height="0.5"/>
		<rect x="7.1" y="35.8" class="st5" width="0" height="0.5"/>
		<rect x="7.6" y="35.8" class="st5" width="0" height="0.5"/>
		<polygon class="st5" points="7.1,36.3 7.1,36.3 6.5,36.3 6.5,36.8 6.5,36.8 6.5,36.3 		"/>
		<polygon class="st5" points="6,36.3 6,36.3 5.5,36.3 5.5,36.8 5.5,36.8 5.5,36.3 		"/>
		<rect x="5.5" y="38" class="st5" width="0" height="0.5"/>
		<polygon class="st5" points="4.4,36.3 5,36.3 5,36.3 		"/>
		<polygon class="st5" points="3.9,36.3 4.4,36.3 4.4,36.3 		"/>
		<polygon class="st5" points="3.4,36.3 3.9,36.3 3.9,36.3 		"/>
		<path class="st5" d="M3.4,36.3L3.4,36.3L3.4,36.3z"/>
		<rect x="3.4" y="35.8" class="st5" width="0" height="0.5"/>
		<polygon class="st5" points="9.2,36.3 9.2,36.8 8.6,36.8 8.6,37.3 7.6,37.3 7.6,38.5 6.5,38.5 6.5,38 5.5,38 5.5,38.5 5,38.5 
			5,38 3.9,38 3.9,37.3 2.9,37.3 2.9,36.8 2.3,36.8 2.3,36.3 2.9,36.3 2.9,35.8 3.4,35.8 3.4,36.3 5,36.3 5,36.8 5.5,36.8 5.5,36.3 
			6,36.3 6,36.8 6.5,36.8 6.5,36.3 7.1,36.3 7.1,35.8 7.6,35.8 7.6,36.8 8.1,36.8 8.1,36.3 		"/>
		<polygon class="st5" points="2.9,36.3 2.9,36.3 2.3,36.3 2.3,36.8 2.3,36.8 2.3,36.3 		"/>
	</g>
	<g>
		<rect x="7.8" y="35.8" class="st3" width="0" height="0.5"/>
		<rect x="7.8" y="35.3" class="st3" width="0" height="0.5"/>
		<rect x="7.8" y="33.8" class="st4" width="0" height="0.5"/>
		<rect x="7.8" y="33.3" class="st3" width="0" height="0.5"/>
		<polygon class="st3" points="8.3,32.8 8.3,32.8 7.8,32.8 7.8,33.3 7.8,33.3 7.8,32.8 		"/>
		<path class="st3" d="M7.2,36.5L7.2,36.5L7.2,36.5z"/>
		<rect x="7.8" y="35.8" class="st3" width="0" height="0.5"/>
		<rect x="7.2" y="35.3" class="st3" width="0" height="0.5"/>
		<rect x="7.8" y="35.3" class="st3" width="0" height="0.5"/>
		<polygon class="st4" points="8.3,32.3 8.3,32.8 7.8,32.8 7.8,34.8 7.2,34.8 7.2,34.3 7.3,34.3 7.3,33.3 7.2,33.3 7.2,32.3 
			7.3,32.3 7.3,32.3 		"/>
		<rect x="7.2" y="33.8" class="st4" width="0" height="0.5"/>
		<rect x="7.2" y="33.3" class="st4" width="0" height="0.5"/>
		<path class="st4" d="M7.2,32.3L7.2,32.3L7.2,32.3z"/>
		<path class="st3" d="M6.7,36.5L6.7,36.5L6.7,36.5z"/>
		<rect x="6.7" y="35.8" class="st3" width="0" height="0.5"/>
		<polygon class="st3" points="6.7,35.8 7.3,35.8 7.3,35.8 		"/>
		<path class="st3" d="M6.7,33.8L6.7,33.8L6.7,33.8z"/>
		<polygon class="st3" points="6.2,36.5 6.7,36.5 6.7,36.5 		"/>
		<rect x="6.2" y="35.8" class="st3" width="0" height="0.5"/>
		<rect x="6.7" y="35.8" class="st3" width="0" height="0.5"/>
		<rect x="6.2" y="35.3" class="st3" width="0" height="0.5"/>
		<path class="st3" d="M6.7,35.8L6.7,35.8L6.7,35.8z"/>
		<rect x="6.2" y="34.8" class="st3" width="0" height="0.5"/>
		<rect x="6.2" y="34.5" class="st3" width="0" height="0.3"/>
		<rect x="6.2" y="33.8" class="st3" width="0" height="0.5"/>
		<path class="st3" d="M5.7,36.5L5.7,36.5L5.7,36.5z"/>
		<rect x="5.7" y="35.8" class="st3" width="0" height="0.5"/>
		<polygon class="st4" points="6.2,35.8 6.2,35.8 5.7,35.8 5.7,35.3 5.7,35.3 5.7,35.8 		"/>
		<polygon class="st4" points="5.7,34.3 5.7,34.5 5.7,34.5 5.7,34.8 5.7,34.8 		"/>
		<polygon class="st3" points="6.2,33.8 6.2,33.8 5.7,33.8 5.7,34.3 5.7,34.3 5.7,33.8 		"/>
		<polygon class="st3" points="5.1,36.5 5.7,36.5 5.7,36.5 		"/>
		<rect x="5.1" y="35.8" class="st3" width="0" height="0.5"/>
		<rect x="5.7" y="35.8" class="st3" width="0" height="0.5"/>
		<path class="st3" d="M5.7,35.8L5.7,35.8L5.7,35.8z"/>
		<path class="st3" d="M5.1,33.8L5.1,33.8L5.1,33.8z"/>
		<rect x="5.1" y="33.3" class="st3" width="0" height="0.5"/>
		<rect x="5.1" y="32.8" class="st3" width="0" height="0.5"/>
		<rect x="5.1" y="32.3" class="st4" width="0.5" height="0.5"/>
		<rect x="5.1" y="35.8" class="st3" width="0" height="0.5"/>
		<polygon class="st3" points="4.6,35.8 5.2,35.8 5.2,35.8 		"/>
		<rect x="4.6" y="34.3" class="st3" width="0" height="0.5"/>
		<polygon class="st4" points="5.1,33.8 5.1,33.8 4.6,33.8 4.6,34.3 4.6,34.3 4.6,33.8 		"/>
		<path class="st3" d="M5.1,31.6H4.6v0.5h0.5V31.6L5.1,31.6z"/>
		<path class="st3" d="M5.1,29.1H4.6v0.5h0.5V29.1L5.1,29.1z"/>
		<path class="st3" d="M4.1,36.5L4.1,36.5L4.1,36.5z"/>
		<polygon class="st3" points="4.1,35.8 4.6,35.8 4.6,35.8 		"/>
		<rect x="4.1" y="34.3" class="st4" width="0" height="0.5"/>
		<rect x="4.1" y="33.8" class="st4" width="0" height="0.5"/>
		<rect x="4.1" y="32.3" class="st4" width="0.5" height="0.5"/>
		<path class="st3" d="M3.6,36.5L3.6,36.5L3.6,36.5z"/>
		<polygon class="st3" points="4.1,35.8 4.1,35.8 3.6,35.8 3.6,35.3 3.6,35.3 3.6,35.8 		"/>
		<polygon class="st4" points="3.6,33.8 4.1,33.8 4.1,33.8 		"/>
		<rect x="3.6" y="33.3" class="st3" width="0" height="0.5"/>
		<rect x="3" y="36.5" class="st3" width="0" height="0.5"/>
		<rect x="3" y="35.3" class="st3" width="0" height="0.5"/>
		<path class="st3" d="M3,33.8L3,33.8L3,33.8z"/>
		<rect x="3" y="33.3" class="st3" width="0" height="0.5"/>
		<rect x="2.5" y="35.8" class="st3" width="0" height="0.5"/>
		<polygon class="st3" points="3,35.3 3,35.8 2.5,35.8 2.5,35.8 3,35.8 		"/>
		<polygon class="st3" points="2.5,33.8 3,33.8 3,33.8 		"/>
		<rect x="2.5" y="33.3" class="st4" width="0.5" height="0.5"/>
		<rect x="2.5" y="32.3" class="st4" width="0.5" height="0.5"/>
		<path class="st4" d="M3,31H2.5v0.5H3V31z"/>
		<rect x="2" y="35.8" class="st3" width="0" height="0.5"/>
		<path class="st3" d="M2,33.8L2,33.8L2,33.8z"/>
		<rect x="1.5" y="33.3" class="st3" width="0" height="0.5"/>
		<path class="st3" d="M0.9,33.8L0.9,33.8L0.9,33.8z"/>
		<rect x="0.9" y="33.3" class="st4" width="0.5" height="0.5"/>
		<rect x="0.4" y="33.8" class="st3" width="0" height="0.5"/>
		<rect x="0.4" y="33.3" class="st3" width="0" height="0.5"/>
		<path class="st3" d="M11.5,33.3v-0.5l0,0v-0.5H11v-0.5h-0.5v1.1H10v-0.5H9.5v0.5H9v-1.1H8.5v1.1H8v1.6l0,0v0.5H7.5v-2.6l0,0v-0.5
			H7v0.5l0,0v0.5H6.5v-0.5H6v0.5H5.5v1.1H5V35H4.5v-1.1H4v-0.5h0.5v-0.5H4v-1.1H3.5v1.1H2.4v-0.5l0,0v-0.5H1.9v0.5H1.4v-0.5H0.9v1.6
			l0,0v1.1l0,0v0.5h1v1.1h0.5v0.5h0.5v-0.5h0.5v-0.5h0.5v0.5h1.6l0,0l0,0v0.5H6v-0.5l0,0v-0.5H5.5v-0.5H6v-1.1h0.5v0.5l0,0v0.3l0,0
			v1.3l0,0v0.5H7v-0.5h0.5v-0.5H8v1.1h0.5v-0.5h1.1v-0.5h1.1v-0.5h0.5v-1.1h0.5L11.5,33.3L11.5,33.3L11.5,33.3L11.5,33.3z M1.5,33.8
			H1l0,0l0,0v-0.5h0.5V33.8z M2,33.8L2,33.8L2,33.8L2,33.8L2,33.8z M3,33.8H2.5v-0.5H3V33.8z M6.7,33.8L6.7,33.8L6.7,33.8L6.7,33.8
			L6.7,33.8z M8.3,35.3L8.3,35.3L8.3,35.3L8.3,35.3L8.3,35.3z M8.3,33.8L8.3,33.8L8.3,33.8L8.3,33.8L8.3,33.8z M8.3,33.3L8.3,33.3
			L8.3,33.3L8.3,33.3L8.3,33.3z M8.8,33.8L8.8,33.8L8.8,33.8L8.8,33.8L8.8,33.8z M9.9,33.8L9.9,33.8L9.9,33.8L9.9,33.8L9.9,33.8z
			 M10.4,33.8L10.4,33.8L10.4,33.8L10.4,33.8L10.4,33.8z M10.9,33.3L10.9,33.3L10.9,33.3L10.9,33.3L10.9,33.3z M10.9,32.8L10.9,32.8
			L10.9,32.8L10.9,32.8L10.9,32.8z"/>
		<path class="st5" d="M7.2,35.8L7.2,35.8L7.2,35.8z"/>
		<rect x="7.2" y="35.3" class="st5" width="0" height="0.5"/>
		<rect x="6.7" y="37.5" class="st5" width="0" height="0.5"/>
		<polygon class="st5" points="7.2,35.8 7.2,35.8 6.7,35.8 6.7,36.5 6.7,36.5 6.7,35.8 		"/>
		<polygon class="st5" points="6.2,35.8 6.2,35.8 5.7,35.8 5.7,36.5 5.7,36.5 5.7,35.8 		"/>
		<rect x="5.1" y="37.5" class="st5" width="0" height="0.5"/>
		<polygon class="st5" points="4.6,35.8 5.2,35.8 5.2,35.8 		"/>
		<rect x="4.1" y="37" class="st5" width="0" height="0.5"/>
		<polygon class="st5" points="4.1,35.8 4.6,35.8 4.6,35.8 		"/>
		<polygon class="st5" points="3.6,35.8 4.1,35.8 4.1,35.8 		"/>
		<rect x="3" y="36.5" class="st5" width="0" height="0.5"/>
		<path class="st5" d="M3,35.8L3,35.8L3,35.8z"/>
		<rect x="3" y="35.3" class="st5" width="0" height="0.5"/>
		<polygon class="st5" points="3,35.8 3,35.8 2.5,35.8 2.5,36.5 2.5,36.5 2.5,35.8 		"/>
		<rect x="7.8" y="33.8" class="st4" width="0" height="0.5"/>
		<rect x="7.8" y="33.3" class="st4" width="0" height="0.5"/>
		<rect x="7.2" y="33.8" class="st3" width="0" height="0.5"/>
		<rect x="7.2" y="33.3" class="st3" width="0" height="0.5"/>
		<path class="st3" d="M6.7,33.8L6.7,33.8L6.7,33.8z"/>
		<rect x="6.2" y="33.8" class="st4" width="0" height="0.5"/>
		<rect x="5.7" y="33.8" class="st3" width="0" height="0.5"/>
		<path class="st3" d="M5.7,33.8L5.7,33.8L5.7,33.8z"/>
		<rect x="5.1" y="32.8" class="st4" width="0" height="0.5"/>
		<rect x="4.6" y="34.3" class="st4" width="0" height="0.5"/>
		<path class="st4" d="M4.6,33.8L4.6,33.8L4.6,33.8z"/>
		<rect x="4.1" y="33.8" class="st3" width="0" height="0.5"/>
		<polygon class="st4" points="5.1,32.8 5.1,33.8 4.6,33.8 4.6,34.8 4.1,34.8 4.1,33.8 3.6,33.8 3.6,33.3 4.1,33.3 4.1,32.8 		"/>
		<polygon class="st4" points="3.6,33.8 4.1,33.8 4.1,33.8 		"/>
		<rect x="3.6" y="33.3" class="st3" width="0" height="0.5"/>
		<polygon class="st3" points="2.5,33.3 3.1,33.3 3.1,33.3 		"/>
		<rect x="2.5" y="33.3" class="st3" width="0" height="0.5"/>
		<path class="st3" d="M2,33.8L2,33.8L2,33.8z"/>
		<rect x="0.9" y="33.3" class="st3" width="0" height="0.5"/>
		<path class="st3" d="M7.2,36.5L7.2,36.5L7.2,36.5z"/>
		<path class="st3" d="M7.8,36.5L7.8,36.5L7.8,36.5z"/>
		<rect x="7.8" y="35.8" class="st3" width="0" height="0.5"/>
		<rect x="7.2" y="35.3" class="st3" width="0" height="0.5"/>
		<rect x="7.8" y="35.3" class="st3" width="0" height="0.5"/>
		<path class="st3" d="M6.7,36.5L6.7,36.5L6.7,36.5z"/>
		<path class="st3" d="M7.2,36.5L7.2,36.5L7.2,36.5z"/>
		<rect x="6.7" y="35.8" class="st3" width="0" height="0.5"/>
		<polygon class="st3" points="7.2,35.3 7.2,35.8 6.7,35.8 6.7,35.8 7.2,35.8 		"/>
		<polygon class="st3" points="6.2,36.5 6.7,36.5 6.7,36.5 		"/>
		<rect x="6.2" y="35.8" class="st3" width="0" height="0.5"/>
		<rect x="6.7" y="35.8" class="st3" width="0" height="0.5"/>
		<path class="st3" d="M6.7,35.8L6.7,35.8L6.7,35.8z"/>
		<path class="st3" d="M5.7,36.5L5.7,36.5L5.7,36.5z"/>
		<path class="st3" d="M6.2,36.5L6.2,36.5L6.2,36.5z"/>
		<rect x="5.7" y="35.8" class="st3" width="0" height="0.5"/>
		<rect x="6.2" y="35.8" class="st3" width="0" height="0.5"/>
		<polygon class="st4" points="6.2,35.3 6.2,35.8 5.7,35.8 5.7,35.8 6.2,35.8 		"/>
		<rect x="6.2" y="34.8" class="st4" width="0" height="0.5"/>
		<polygon class="st3" points="5.1,36.5 5.7,36.5 5.7,36.5 		"/>
		<rect x="5.1" y="35.8" class="st3" width="0" height="0.5"/>
		<rect x="5.7" y="35.8" class="st3" width="0" height="0.5"/>
		<polygon class="st3" points="5.7,35.3 5.7,35.8 5.7,35.8 5.7,35.8 5.7,35.8 		"/>
		<polygon class="st4" points="6.2,33.8 6.2,35.8 5.7,35.8 5.7,35.3 5.1,35.3 5.1,34.8 5.7,34.8 5.7,34.5 5.7,34.5 5.7,33.8 		"/>
		<rect x="5.1" y="35.8" class="st3" width="0" height="0.5"/>
		<polygon class="st3" points="4.6,35.8 5.2,35.8 5.2,35.8 		"/>
		<polygon class="st3" points="4.1,35.8 4.6,35.8 4.6,35.8 		"/>
		<path class="st3" d="M3.6,36.5L3.6,36.5L3.6,36.5z"/>
		<path class="st3" d="M4.1,36.5L4.1,36.5L4.1,36.5z"/>
		<polygon class="st3" points="4.1,35.8 4.1,35.8 3.6,35.8 3.6,35.3 3.6,35.3 3.6,35.8 		"/>
		<path class="st3" d="M3.6,36.5L3.6,36.5L3.6,36.5z"/>
		<rect x="3.6" y="35.3" class="st3" width="0" height="0.5"/>
		<rect x="2.5" y="35.8" class="st3" width="0" height="0.5"/>
		<polygon class="st3" points="3,35.3 3,35.8 2.5,35.8 2.5,35.8 3,35.8 		"/>
		<rect x="2.5" y="35.8" class="st3" width="0" height="0.5"/>
		<path class="st3" d="M2.5,35.8L2.5,35.8L2.5,35.8z"/>
		<rect x="7.8" y="37.5" class="st5" width="0" height="0.5"/>
		<rect x="7.8" y="37" class="st5" width="0" height="0.5"/>
		<path class="st5" d="M7.2,35.8L7.2,35.8L7.2,35.8z"/>
		<rect x="7.8" y="35.8" class="st5" width="0" height="0.5"/>
		<rect x="7.2" y="35.3" class="st5" width="0" height="0.5"/>
		<rect x="7.8" y="35.3" class="st5" width="0" height="0.5"/>
		<rect x="6.7" y="37.5" class="st5" width="0" height="0.5"/>
		<polygon class="st5" points="7.2,35.8 7.2,35.8 6.7,35.8 6.7,36.5 6.7,36.5 6.7,35.8 		"/>
		<polygon class="st5" points="6.2,35.8 6.2,35.8 5.7,35.8 5.7,36.5 5.7,36.5 5.7,35.8 		"/>
		<rect x="5.7" y="37.5" class="st5" width="0" height="0.5"/>
		<polygon class="st5" points="5.1,35.8 5.1,36.5 5.1,36.5 5.1,35.8 4.6,35.8 4.6,35.8 		"/>
		<rect x="4.1" y="37" class="st5" width="0" height="0.5"/>
		<polygon class="st5" points="4.1,35.8 4.6,35.8 4.6,35.8 		"/>
		<polygon class="st5" points="3.6,35.8 4.1,35.8 4.1,35.8 		"/>
		<rect x="3" y="36.5" class="st5" width="0" height="0.5"/>
		<path class="st5" d="M3,35.8L3,35.8L3,35.8z"/>
		<rect x="3" y="35.3" class="st5" width="0" height="0.5"/>
		<polygon class="st5" points="3,35.8 3,35.8 2.5,35.8 2.5,36.5 2.5,36.5 2.5,35.8 		"/>
		<path class="st3" d="M7.8,36.5L7.8,36.5L7.8,36.5z"/>
		<rect x="7.8" y="35.8" class="st3" width="0" height="0.5"/>
		<rect x="7.8" y="35.3" class="st3" width="0" height="0.5"/>
		<path class="st3" d="M7.2,36.5L7.2,36.5L7.2,36.5z"/>
		<polygon class="st3" points="6.2,36.5 6.7,36.5 6.7,36.5 		"/>
		<path class="st3" d="M6.2,36.5L6.2,36.5L6.2,36.5z"/>
		<rect x="6.2" y="35.8" class="st3" width="0" height="0.5"/>
		<path class="st4" d="M6.2,30.9H5.7v0.5h0.5V30.9z"/>
		<path class="st4" d="M4.4,31H3.9v0.5h0.5V31z"/>
		<path class="st4" d="M5.3,28.3H4.8v0.5h0.5V28.3z"/>
		<path class="st4" d="M5.7,34.5L5.7,34.5L5.7,34.5z"/>
		<rect x="6.2" y="34.5" class="st4" width="0" height="0.5"/>
		<rect x="7.2" y="31.1" class="st4" width="0.5" height="0.5"/>
		<path class="st4" d="M8.3,30H7.8v0.5h0.5V30z"/>
		<path class="st4" d="M8.2,27.1H7.7v0.5h0.5V27.1z"/>
		<polygon class="st3" points="5.1,36.5 5.7,36.5 5.7,36.5 		"/>
		<rect x="5.7" y="35.8" class="st3" width="0" height="0.5"/>
		<rect x="5.7" y="34" class="st3" width="0" height="0.5"/>
		<path class="st3" d="M7.2,32.3L7.2,32.3L7.2,32.3z"/>
		<path class="st3" d="M5.6,23.3H5.1v0.5h0.5V23.3z"/>
		<path class="st3" d="M5.1,36.5L5.1,36.5L5.1,36.5z"/>
		<rect x="5.1" y="35.8" class="st3" width="0" height="0.5"/>
		<polygon class="st3" points="4.6,35.8 5.1,35.8 5.1,35.8 		"/>
		<path class="st3" d="M3.9,29.8H3.4v0.5h0.5V29.8z"/>
		<rect x="4.1" y="32.3" class="st3" width="0.5" height="0.5"/>
		<path class="st3" d="M3.3,27.3H2.8v0.5h0.5V27.3z"/>
		<path class="st3" d="M4.1,36.5L4.1,36.5L4.1,36.5z"/>
		<polygon class="st3" points="3.6,35.8 4.1,35.8 4.1,35.8 		"/>
		<path class="st3" d="M2.4,29H1.9v0.5h0.5V29z"/>
		<path class="st3" d="M3.6,36.5L3.6,36.5L3.6,36.5z"/>
		<rect x="3.6" y="35.3" class="st3" width="0" height="0.5"/>
		<path class="st3" d="M3,34.8L3,34.8z"/>
		<path class="st3" d="M2.5,35.8L2.5,35.8z"/>
		<rect x="7.8" y="37.5" class="st5" width="0" height="0.5"/>
		<rect x="7.8" y="37" class="st5" width="0" height="0.5"/>
		<path class="st5" d="M7.2,35.8L7.2,35.8L7.2,35.8z"/>
		<rect x="7.8" y="35.8" class="st5" width="0" height="0.5"/>
		<rect x="7.2" y="35.3" class="st5" width="0" height="0.5"/>
		<rect x="7.8" y="35.3" class="st5" width="0" height="0.5"/>
		<polygon class="st5" points="7.2,35.8 7.2,35.8 6.7,35.8 6.7,36.5 6.7,36.5 6.7,35.8 		"/>
		<polygon class="st5" points="6.2,35.8 6.2,36.5 6.2,36.5 6.2,35.8 5.7,35.8 5.7,36.5 5.7,36.5 5.7,35.8 		"/>
		<rect x="5.7" y="37.5" class="st5" width="0" height="0.5"/>
		<polygon class="st5" points="5.1,35.8 5.1,36.5 5.1,36.5 5.1,35.8 4.6,35.8 4.6,35.8 		"/>
		<polygon class="st5" points="4.1,35.8 4.6,35.8 4.6,35.8 		"/>
		<polygon class="st5" points="3.6,35.8 4.1,35.8 4.1,35.8 		"/>
		<path class="st5" d="M3.6,35.8L3.6,35.8L3.6,35.8z"/>
		<rect x="3.6" y="35.3" class="st5" width="0" height="0.5"/>
		<path class="st5" d="M7.8,36.5L7.8,36.5L7.8,36.5v-1.1H7.3v0.5H6.8v0.5H6.3v-0.5H5.8v0.5H5.3l0,0l0,0v-0.5H3.7v-0.5H3.2v0.5H2.5
			v0.5H3v0.5h1v0.5h1.1v0.5h0.5v-0.5h1.1v0.5h1.1v-1.1h1v-0.5L7.8,36.5L7.8,36.5z M3.6,36.5L3.6,36.5L3.6,36.5L3.6,36.5L3.6,36.5z
			 M4.1,36.5L4.1,36.5L4.1,36.5L4.1,36.5L4.1,36.5z M7.3,36.5L7.3,36.5L7.3,36.5L7.3,36.5L7.3,36.5z"/>
		<polygon class="st5" points="3,35.8 3,35.8 2.5,35.8 2.5,36.5 2.5,36.5 2.5,35.8 		"/>
	</g>
	<g>
		<path class="st4" d="M5,31.3H4.5v0.5H5V31.3z"/>
		<path class="st4" d="M3.2,33.3H2.7v0.5h0.5V33.3z"/>
		<path class="st4" d="M4.1,30.1H3.6v0.5h0.5V30.1z"/>
		<path class="st4" d="M5,35H4.5v0.5H5V35z"/>
		<path class="st4" d="M6.6,31.5H6.1V32h0.5V31.5z"/>
		<path class="st4" d="M7,27.6H6.5v0.5H7V27.6z"/>
		<path class="st3" d="M4.5,34.5H4V35h0.5V34.5z"/>
		<path class="st3" d="M6,33.5H5.5V34H6V33.5z"/>
		<path class="st3" d="M4.4,28.3H3.9v0.5h0.5V28.3z"/>
		<polygon class="st3" points="3.4,36.3 3.9,36.3 3.9,36.3 		"/>
		<path class="st3" d="M2.7,30.9H2.2v0.5h0.5V30.9z"/>
		<path class="st3" d="M7.6,35.1H7.1v0.5h0.5V35.1z"/>
		<path class="st3" d="M7.6,33.3H7.1v0.5h0.5V33.3z"/>
		<path class="st3" d="M1.8,35.3L1.8,35.3z"/>
		<polygon class="st5" points="4.5,36.3 5,36.3 5,36.3 		"/>
		<polygon class="st5" points="3.4,36.3 3.9,36.3 3.9,36.3 		"/>
		<polygon class="st5" points="3.2,36.3 3.4,36.3 3.4,36.3 		"/>
		<polygon class="st5" points="2.3,36.3 2.7,36.3 2.7,36.3 		"/>
		<rect x="5.9" y="36.3" class="st3" width="0" height="0.5"/>
		<path class="st4" d="M4.1,33.8H3.6v0.5h0.5V33.8z"/>
		<rect x="7.4" y="36" class="st4" width="0" height="0.5"/>
		<path class="st4" d="M5.9,35H5.4v0.5h0.5V35z"/>
		<path class="st4" d="M7.8,29H7.3v0.5h0.5V29z"/>
		<path class="st4" d="M8.7,30.6H8.2v0.5h0.5V30.6z"/>
		<rect x="4.8" y="36.3" class="st3" width="0.5" height="0.5"/>
		<rect x="5.3" y="36.3" class="st3" width="0" height="0.5"/>
		<path class="st3" d="M5.3,34.5H4.8V35h0.5V34.5z"/>
		<rect x="4.3" y="36.8" class="st3" width="0.5" height="0.5"/>
		<rect x="4.8" y="36.3" class="st3" width="0" height="0.5"/>
		<rect x="4.3" y="35.8" class="st3" width="0.5" height="0.5"/>
		<polygon class="st3" points="4.3,36.3 4.8,36.3 4.8,36.3 		"/>
		<path class="st3" d="M8.5,35.1H8v0.5h0.5V35.1z"/>
		<path class="st3" d="M8.7,33.5H8.2V34h0.5V33.5z"/>
		<path class="st3" d="M9.4,32.5H8.9V33h0.5V32.5z"/>
		<rect x="4.3" y="36.8" class="st3" width="0" height="0.5"/>
		<path class="st3" d="M3,29H2.5v0.5H3V29z"/>
		<rect x="3.2" y="35.8" class="st3" width="0.7" height="0.5"/>
		<polygon class="st3" points="3.2,36.3 3.8,36.3 3.8,36.3 		"/>
		<path class="st3" d="M2.7,34H2.2v0.5h0.5V34z"/>
		<path class="st3" d="M2,32.6H1.5v0.5H2V32.6z"/>
		<rect x="3.2" y="35.8" class="st3" width="0" height="0.5"/>
		<path class="st3" d="M2.7,35.3L2.7,35.3z"/>
		<path class="st3" d="M2.2,36.3L2.2,36.3z"/>
		<path class="st5" d="M6.9,36.3L6.9,36.3L6.9,36.3z"/>
		<rect x="6.9" y="35.8" class="st5" width="0" height="0.5"/>
		<polygon class="st5" points="6.9,36.3 6.9,36.3 6.4,36.3 6.4,36.8 6.4,36.8 6.4,36.3 		"/>
		<polygon class="st5" points="5.9,36.3 5.9,36.3 5.3,36.3 5.3,36.8 5.3,36.8 5.3,36.3 		"/>
		<polygon class="st5" points="9,36.3 9,36.8 8.5,36.8 8.5,37.3 7.4,37.3 7.4,38.3 6.4,38.3 6.4,37.8 5.3,37.8 5.3,38.3 4.8,38.3 
			4.8,37.8 3.8,37.8 3.8,37.3 2.7,37.3 2.7,36.8 2.2,36.8 2.2,36.3 2.7,36.3 2.7,35.8 3.2,35.8 3.2,36.3 4.8,36.3 4.8,36.8 
			4.3,36.8 4.3,37.3 4.8,37.3 4.8,36.8 5.3,36.8 5.3,36.3 5.9,36.3 5.9,36.8 6.4,36.8 6.4,36.3 6.9,36.3 6.9,35.8 7.4,35.8 
			7.4,36.8 8,36.8 8,36.3 		"/>
		<rect x="4.8" y="36.8" class="st5" width="0" height="0.5"/>
		<polygon class="st5" points="4.3,36.3 4.8,36.3 4.8,36.3 		"/>
		<polygon class="st5" points="3.8,36.3 4.3,36.3 4.3,36.3 		"/>
		<polygon class="st5" points="3.2,36.3 3.8,36.3 3.8,36.3 		"/>
		<polygon class="st5" points="2.7,36.3 2.7,36.3 2.2,36.3 2.2,36.8 2.2,36.8 2.2,36.3 		"/>
	</g>
	<g>
		<rect x="5.9" y="36.3" class="st3" width="0" height="0.5"/>
		<path class="st4" d="M3.4,28.8H2.9v0.5h0.5V28.8z"/>
		<polygon class="st4" points="5.9,34.5 5.9,35 5.9,35 5.9,35.5 5.3,35.5 5.3,35 5.3,35 5.3,34.5 		"/>
		<path class="st4" d="M4.3,35H3.8v0.5h0.5V35z"/>
		<path class="st4" d="M5.9,31.5H5.4V32h0.5V31.5L5.9,31.5z"/>
		<path class="st4" d="M6.3,26.3H5.8v0.5h0.5V26.3z"/>
		<path class="st4" d="M7.2,29.8H6.7v0.5h0.5V29.8z"/>
		<path class="st3" d="M3.8,34.5H3.3V35h0.5V34.5z"/>
		<path class="st3" d="M5.3,32.1H4.8v0.5h0.5V32.1z"/>
		<rect x="3.2" y="35.8" class="st3" width="0" height="0.5"/>
		<path class="st3" d="M6.9,35.1H6.4v0.5h0.5V35.1z"/>
		<path class="st3" d="M7.2,32.8H6.7v0.5h0.5V32.8z"/>
		<path class="st3" d="M3.8,32.6H3.3v0.5h0.5V32.6z"/>
		<rect x="1.7" y="35.8" class="st3" width="0.5" height="0.5"/>
		<path class="st3" d="M1.1,35.3L1.1,35.3z"/>
		<polygon class="st5" points="5.3,36.3 5.3,36.3 4.8,36.3 4.8,36.8 4.8,36.8 4.8,36.3 		"/>
		<rect x="4.3" y="36.8" class="st5" width="0" height="0.5"/>
		<polygon class="st5" points="3.8,36.3 4.3,36.3 4.3,36.3 		"/>
		<path class="st5" d="M3.2,36.3L3.2,36.3L3.2,36.3z"/>
		<polygon class="st5" points="2.2,36.3 2.7,36.3 2.7,36.3 		"/>
		<polygon class="st5" points="1.7,36.3 2.2,36.3 2.2,36.3 		"/>
		<rect x="7.4" y="36.3" class="st3" width="0" height="0.5"/>
		<rect x="7.4" y="35.8" class="st3" width="0" height="0.5"/>
		<path class="st4" d="M2.7,31.4H2.2v0.5h0.5V31.4z"/>
		<path class="st4" d="M5,28.8H4.5v0.5H5V28.8z"/>
		<path class="st4" d="M7.4,34.5H6.9V35h0.5V34.5z"/>
		<path class="st4" d="M7.4,31.5H6.9V32h0.5V31.5z"/>
		<path class="st4" d="M7.9,26.3H7.4v0.5h0.5V26.3z"/>
		<path class="st4" d="M9.3,30.4H8.8v0.5h0.5V30.4z"/>
		<rect x="4.8" y="36.3" class="st3" width="0.5" height="0.5"/>
		<path class="st3" d="M5.3,34.5H4.8V35h0.5V34.5z"/>
		<path class="st3" d="M5.2,25.1H4.7v0.5h0.5V25.1z"/>
		<rect x="4.3" y="36.8" class="st3" width="0.5" height="0.5"/>
		<rect x="4.8" y="36.3" class="st3" width="0" height="0.5"/>
		<rect x="4.3" y="35.8" class="st3" width="0.5" height="0.5"/>
		<path class="st3" d="M2.2,30.9H1.7v0.5h0.5V30.9z"/>
		<path class="st3" d="M8.5,35.1H8v0.5h0.5V35.1z"/>
		<path class="st3" d="M9.3,33.3H8.8v0.5h0.5V33.3z"/>
		<path class="st3" d="M3,27.6H2.5v0.5H3V27.6L3,27.6z"/>
		<rect x="3.2" y="35.8" class="st3" width="0.5" height="0.5"/>
		<path class="st3" d="M1.6,34H1.1v0.5h0.5V34z"/>
		<path class="st3" d="M2.7,35.3L2.7,35.3z"/>
		<path class="st3" d="M2.2,36.3L2.2,36.3z"/>
		<polygon class="st5" points="6.9,36.3 6.9,36.3 6.4,36.3 6.4,36.8 6.4,36.8 6.4,36.3 		"/>
		<polygon class="st5" points="9,36.3 9,36.8 8.5,36.8 8.5,37.3 7.4,37.3 7.4,38.3 6.4,38.3 6.4,37.8 5.3,37.8 5.3,38.3 4.8,38.3 
			4.8,37.8 3.8,37.8 3.8,37.3 2.7,37.3 2.7,36.8 2.2,36.8 2.2,36.3 2.7,36.3 2.7,35.8 3.2,35.8 3.2,36.3 4.8,36.3 4.8,36.8 
			4.3,36.8 4.3,37.3 4.8,37.3 4.8,36.8 5.3,36.8 5.3,36.3 5.9,36.3 5.9,36.8 6.4,36.8 6.4,36.3 6.9,36.3 6.9,35.8 7.4,35.8 
			7.4,36.8 8,36.8 8,36.3 		"/>
		<rect x="2.7" y="35.8" class="st5" width="0" height="0.5"/>
		<polygon class="st5" points="5.9,36.3 5.9,36.3 5.3,36.3 5.3,36.8 5.3,36.8 5.3,36.3 		"/>
		<rect x="4.8" y="36.8" class="st5" width="0" height="0.5"/>
		<polygon class="st5" points="4.3,36.3 4.8,36.3 4.8,36.3 		"/>
		<polygon class="st5" points="3.8,36.3 4.3,36.3 4.3,36.3 		"/>
		<polygon class="st5" points="3.2,36.3 3.8,36.3 3.8,36.3 		"/>
		<rect x="2.7" y="36.8" class="st5" width="0" height="0.5"/>
		<path class="st5" d="M2.7,36.3L2.7,36.3L2.7,36.3z"/>
		<rect x="2.7" y="35.8" class="st5" width="0" height="0.5"/>
		<polygon class="st5" points="2.2,36.3 2.7,36.3 2.7,36.3 		"/>
	</g>
	<rect x="38.5" y="11.7" width="1.9" height="1.9"/>
	<g>
		<rect x="32" y="15" width="1" height="1"/>
		<rect x="33.1" y="16" width="1" height="1"/>
		<rect x="34.1" y="17" width="3.1" height="1"/>
		<polygon points="35.2,17 35.2,18 36.2,18 37.2,18 37.2,17 36.2,17 		"/>
		<rect x="37.2" y="16" width="1" height="1"/>
		<rect x="38.3" y="14.8" width="1" height="1"/>
	</g>
</g>
</svg>
