<?xml version="1.0" encoding="utf-8"?>
<!-- Generator: Adobe Illustrator 24.0.1, SVG Export Plug-In . SVG Version: 6.00 Build 0)  -->
<svg version="1.1" id="Слой_1" xmlns="http://www.w3.org/2000/svg" xmlns:xlink="http://www.w3.org/1999/xlink" x="0px" y="0px"
	 viewBox="0 0 168 152" style="enable-background:new 0 0 168 152;" xml:space="preserve">
<style type="text/css">
	.st0{fill:none;stroke:#FFFFFF;stroke-miterlimit:10;}
</style>
<path class="st0" d="M126.2,12.7C115.9,7.9,80.6-8.5,49.1,8.5c-9.5,5.1-15.6,11.6-24.4,20.9C10.7,44.3,0.4,55.3,1,67.9
	c0.6,11.6,10,12.4,32.9,37c21.4,23,24.5,34.6,42.2,41.9c7.8,3.2,16.6,6.9,24.4,2.8c13.3-7,5.7-27.3,21.7-47.5
	c8.5-10.7,12.9-7.8,27.7-23.7c10.9-11.7,16.9-18.2,17.1-26.5C167.7,32,135.3,17,126.2,12.7z"/>
</svg>
