<svg width="168" height="152" viewBox="0 0 168 152" fill="none" xmlns="http://www.w3.org/2000/svg">
<path d="M126.227 12.7348C115.869 7.92004 80.6285 -8.46397 49.1312 8.54804C39.6754 13.6558 33.5407 20.1592 24.7504 29.4816C10.748 44.3305 0.382832 55.3136 1.02859 67.8598C1.62823 79.4989 11.0642 80.2246 33.9756 104.842C55.4109 127.876 58.4815 139.418 76.1477 146.71C83.9693 149.94 92.7859 153.576 100.528 149.501C113.793 142.516 106.248 122.189 122.273 102.051C130.78 91.3613 135.143 94.278 149.949 78.3266C160.848 66.5829 166.831 60.1353 167.081 51.8108C167.668 32.0006 135.307 16.9564 126.227 12.7348Z" stroke="black" stroke-miterlimit="10"/>
</svg>
