<svg width="168" height="152" viewBox="0 0 168 152" fill="none" xmlns="http://www.w3.org/2000/svg">
<mask id="mask0" mask-type="alpha" maskUnits="userSpaceOnUse" x="0" y="0" width="168" height="152">
<path d="M126.227 12.7348C115.869 7.92004 80.6285 -8.46397 49.1312 8.54804C39.6754 13.6558 33.5407 20.1592 24.7504 29.4816C10.748 44.3305 0.382832 55.3136 1.02859 67.8598C1.62823 79.4989 11.0642 80.2246 33.9756 104.842C55.4109 127.876 58.4815 139.418 76.1477 146.71C83.9693 149.94 92.7859 153.576 100.528 149.501C113.793 142.516 106.248 122.189 122.273 102.051C130.78 91.3613 135.143 94.278 149.949 78.3266C160.848 66.5829 166.831 60.1353 167.081 51.8108C167.668 32.0006 135.307 16.9564 126.227 12.7348Z" fill="black" stroke="black" stroke-miterlimit="10"/>
</mask>
<g mask="url(#mask0)">
<path d="M-100 74.2715L58.1503 263.35M-7.95362 -2.71854L150.197 186.36M-53.9768 35.7765L104.174 224.855M38.0696 -41.2135L196.22 147.865M125.514 -114.354L283.664 74.7245M-76.9884 55.024L81.1619 244.103M15.058 -21.966L173.208 167.113M102.502 -95.1066L260.652 93.9721M-30.9652 16.529L127.185 205.608M61.0812 -60.4611L219.232 128.618M148.525 -133.602L306.676 55.477M-90.7954 66.5725L67.355 255.651M1.25102 -10.4175L159.401 178.661M88.6951 -83.5581L246.845 105.521M-44.7722 28.0775L113.378 217.156M47.2742 -48.9125L205.425 140.166M134.718 -122.053L292.869 67.0255M-67.7838 47.325L90.3666 236.404M24.2626 -29.665L182.413 159.414M111.707 -102.806L269.857 86.273M-21.7606 8.82997L136.39 197.909M70.2858 -68.1601L228.436 120.919M157.73 -141.301L315.88 47.778M-95.3977 70.422L62.7527 259.501M-3.3513 -6.56804L154.799 182.511M84.0928 -79.7086L242.243 109.37M-49.3745 31.927L108.776 221.006M42.6719 -45.063L200.822 144.016M130.116 -118.204L288.266 70.875M-72.3861 51.1745L85.7642 240.253M19.6603 -25.8155L177.811 163.263M107.104 -98.9561L265.255 90.1225M-26.3629 12.6795L131.787 201.758M65.6835 -64.3106L223.834 124.768M153.128 -137.451L311.278 51.6275M-86.193 62.723L71.9573 251.802M5.85334 -14.267L164.004 174.812M93.2974 -87.4076L251.448 101.671M-40.1699 24.228L117.98 213.307M51.8765 -52.762L210.027 136.317M139.321 -125.903L297.471 63.176M-63.1814 43.4755L94.9689 232.554M28.8649 -33.5145L187.015 155.564M116.309 -106.655L274.459 82.4235M-17.1583 4.98047L140.992 194.059M74.8881 -72.0096L233.038 117.069M162.332 -145.15L320.483 43.9285M-81.5907 58.8735L76.5596 247.952M10.4557 -18.1165L168.606 170.962M97.8997 -91.2571L256.05 97.8216M-35.5675 20.3785L122.583 209.457M56.4789 -56.6116L214.629 132.467M143.923 -129.752L302.073 59.3265M-58.5791 39.626L99.5712 228.705M33.4673 -37.364L191.618 151.715M120.911 -110.505L279.062 78.574M-12.5559 1.13097L145.594 190.21M79.4904 -75.8591L237.641 113.22M166.935 -149L325.085 40.079" stroke="black"/>
</g>
</svg>
