<?xml version="1.0" encoding="utf-8"?>
<!-- Generator: Adobe Illustrator 24.1.1, SVG Export Plug-In . SVG Version: 6.00 Build 0)  -->
<svg version="1.1" id="Слой_1" xmlns="http://www.w3.org/2000/svg" xmlns:xlink="http://www.w3.org/1999/xlink" x="0px" y="0px"
	 viewBox="0 0 941.7 294.1" style="enable-background:new 0 0 941.7 294.1;" xml:space="preserve">
<style type="text/css">
	.st0{fill:#AF0000;}
	.st1{fill:#050505;}
	.st2{fill:#FFD4D4;}
	.st3{fill:#F9E1E1;}
	.st4{fill:#FCFCFC;}
	.st5{fill:#FFF5F5;}
</style>
<g id="Слой_2_1_">
	<g id="Слой_1-2">
		<rect x="490.8" y="264.7" class="st0" width="9.8" height="9.8"/>
		<polygon class="st0" points="490.8,235.3 490.8,245.1 490.8,254.9 500.6,254.9 500.6,245.1 500.6,235.3 		"/>
		<polygon class="st1" points="500.6,225.5 490.8,225.5 490.8,235.3 500.6,235.3 510.4,235.3 510.4,225.5 		"/>
		<polygon class="st0" points="490.8,205.9 490.8,215.7 490.8,225.5 500.6,225.5 500.6,215.7 500.6,205.9 		"/>
		<polygon class="st0" points="490.8,176.5 490.8,186.3 490.8,196.1 500.6,196.1 500.6,186.3 500.6,176.5 		"/>
		<polygon class="st1" points="500.6,166.7 490.8,166.7 490.8,176.5 500.6,176.5 510.4,176.5 510.4,166.7 		"/>
		<polygon class="st0" points="490.8,147.1 490.8,156.9 490.8,166.7 500.6,166.7 500.6,156.9 500.6,147.1 		"/>
		<polygon class="st1" points="500.6,254.9 490.8,254.9 481,254.9 481,264.7 490.8,264.7 500.6,264.7 510.4,264.7 510.4,254.9 		"/>
		<polygon class="st1" points="500.6,196.1 490.8,196.1 481,196.1 481,205.9 490.8,205.9 500.6,205.9 510.4,205.9 510.4,196.1 		"/>
		<polygon class="st1" points="500.6,137.3 490.8,137.3 481,137.3 481,147.1 490.8,147.1 500.6,147.1 510.4,147.1 510.4,137.3 		"/>
		<polygon points="490.8,0 481,0 481,9.8 490.8,9.8 500.6,9.8 500.6,0 		"/>
		<polygon class="st2" points="500.6,245.1 500.6,254.9 510.4,254.9 510.4,245.1 510.4,235.3 500.6,235.3 		"/>
		<polygon class="st2" points="500.6,215.7 500.6,225.5 510.4,225.5 510.4,215.7 510.4,205.9 500.6,205.9 		"/>
		<polygon class="st2" points="500.6,186.3 500.6,196.1 510.4,196.1 510.4,186.3 510.4,176.5 500.6,176.5 		"/>
		<polygon class="st2" points="500.6,156.9 500.6,166.7 510.4,166.7 510.4,156.9 510.4,147.1 500.6,147.1 		"/>
		<polygon class="st2" points="500.6,117.7 500.6,107.8 500.6,98 500.6,88.2 500.6,78.4 500.6,68.6 500.6,58.8 500.6,49 500.6,39.2 
			500.6,29.4 500.6,19.6 500.6,9.8 490.8,9.8 481,9.8 481,19.6 481,29.4 481,39.2 481,49 481,58.8 481,68.6 481,78.4 481,88.2 
			481,98 481,107.8 481,117.7 471.2,117.7 471.2,127.4 471.2,137.3 471.2,147.1 471.2,156.9 471.2,166.7 471.2,176.5 471.2,186.3 
			471.2,196.1 471.2,205.9 471.2,215.7 471.2,225.5 471.2,235.3 471.2,245.1 471.2,254.9 471.2,264.7 471.2,274.5 471.2,284.3 
			481,284.3 481,294.1 490.8,294.1 500.6,294.1 500.6,284.3 510.4,284.3 510.4,274.5 510.4,264.7 500.6,264.7 500.6,274.5 
			490.8,274.5 490.8,264.7 481,264.7 481,254.9 490.8,254.9 490.8,245.1 490.8,235.3 490.8,225.5 490.8,215.7 490.8,205.9 
			481,205.9 481,196.1 490.8,196.1 490.8,186.3 490.8,176.5 490.8,166.7 490.8,156.9 490.8,147.1 481,147.1 481,137.3 490.8,137.3 
			490.8,127.4 500.6,127.4 500.6,137.3 510.4,137.3 510.4,127.4 510.4,117.7 		"/>
		<rect x="490.8" y="9.8" class="st0" width="9.8" height="127.4"/>
	</g>
</g>
<g id="Слой_2_8_">
	<g id="Слой_1-2_11_">
		<rect x="530" y="264.7" class="st0" width="9.8" height="9.8"/>
		<polygon class="st0" points="530,235.3 530,245.1 530,254.9 539.8,254.9 539.8,245.1 539.8,235.3 		"/>
		<polygon class="st1" points="539.8,225.5 530,225.5 530,235.3 539.8,235.3 549.6,235.3 549.6,225.5 		"/>
		<polygon class="st0" points="530,205.9 530,215.7 530,225.5 539.8,225.5 539.8,215.7 539.8,205.9 		"/>
		<polygon class="st0" points="530,176.5 530,186.3 530,196.1 539.8,196.1 539.8,186.3 539.8,176.5 		"/>
		<polygon class="st1" points="539.8,166.7 530,166.7 530,176.5 539.8,176.5 549.6,176.5 549.6,166.7 		"/>
		<polygon class="st0" points="530,147.1 530,156.9 530,166.7 539.8,166.7 539.8,156.9 539.8,147.1 		"/>
		<polygon class="st1" points="539.8,254.9 530,254.9 520.2,254.9 520.2,264.7 530,264.7 539.8,264.7 549.6,264.7 549.6,254.9 		"/>
		<polygon class="st1" points="539.8,196.1 530,196.1 520.2,196.1 520.2,205.9 530,205.9 539.8,205.9 549.6,205.9 549.6,196.1 		"/>
		<polygon class="st1" points="539.8,137.3 530,137.3 520.2,137.3 520.2,147.1 530,147.1 539.8,147.1 549.6,147.1 549.6,137.3 		"/>
		<polygon points="530,0 520.2,0 520.2,9.8 530,9.8 539.8,9.8 539.8,0 		"/>
		<polygon class="st3" points="539.8,245.1 539.8,254.9 549.6,254.9 549.6,245.1 549.6,235.3 539.8,235.3 		"/>
		<polygon class="st3" points="539.8,215.7 539.8,225.5 549.6,225.5 549.6,215.7 549.6,205.9 539.8,205.9 		"/>
		<polygon class="st3" points="539.8,186.3 539.8,196.1 549.6,196.1 549.6,186.3 549.6,176.5 539.8,176.5 		"/>
		<polygon class="st3" points="539.8,156.9 539.8,166.7 549.6,166.7 549.6,156.9 549.6,147.1 539.8,147.1 		"/>
		<polygon class="st3" points="539.8,117.7 539.8,107.8 539.8,98 539.8,88.2 539.8,78.4 539.8,68.6 539.8,58.8 539.8,49 539.8,39.2 
			539.8,29.4 539.8,19.6 539.8,9.8 530,9.8 520.2,9.8 520.2,19.6 520.2,29.4 520.2,39.2 520.2,49 520.2,58.8 520.2,68.6 520.2,78.4 
			520.2,88.2 520.2,98 520.2,107.8 520.2,117.7 510.4,117.7 510.4,127.4 510.4,137.3 510.4,147.1 510.4,156.9 510.4,166.7 
			510.4,176.5 510.4,186.3 510.4,196.1 510.4,205.9 510.4,215.7 510.4,225.5 510.4,235.3 510.4,245.1 510.4,254.9 510.4,264.7 
			510.4,274.5 510.4,284.3 520.2,284.3 520.2,294.1 530,294.1 539.8,294.1 539.8,284.3 549.6,284.3 549.6,274.5 549.6,264.7 
			539.8,264.7 539.8,274.5 530,274.5 530,264.7 520.2,264.7 520.2,254.9 530,254.9 530,245.1 530,235.3 530,225.5 530,215.7 
			530,205.9 520.2,205.9 520.2,196.1 530,196.1 530,186.3 530,176.5 530,166.7 530,156.9 530,147.1 520.2,147.1 520.2,137.3 
			530,137.3 530,127.4 539.8,127.4 539.8,137.3 549.6,137.3 549.6,127.4 549.6,117.7 		"/>
		<rect x="530" y="9.8" class="st0" width="9.8" height="127.4"/>
	</g>
</g>
<g id="Слой_2_5_">
	<g id="Слой_1-2_7_">
		<rect x="569.2" y="264.7" class="st0" width="9.8" height="9.8"/>
		<polygon class="st0" points="569.2,235.3 569.2,245.1 569.2,254.9 579,254.9 579,245.1 579,235.3 		"/>
		<polygon class="st1" points="579,225.5 569.2,225.5 569.2,235.3 579,235.3 588.8,235.3 588.8,225.5 		"/>
		<polygon class="st0" points="569.2,205.9 569.2,215.7 569.2,225.5 579,225.5 579,215.7 579,205.9 		"/>
		<polygon class="st0" points="569.2,176.5 569.2,186.3 569.2,196.1 579,196.1 579,186.3 579,176.5 		"/>
		<polygon class="st1" points="579,166.7 569.2,166.7 569.2,176.5 579,176.5 588.8,176.5 588.8,166.7 		"/>
		<polygon class="st0" points="569.2,147.1 569.2,156.9 569.2,166.7 579,166.7 579,156.9 579,147.1 		"/>
		<polygon class="st1" points="579,254.9 569.2,254.9 559.4,254.9 559.4,264.7 569.2,264.7 579,264.7 588.8,264.7 588.8,254.9 		"/>
		<polygon class="st1" points="579,196.1 569.2,196.1 559.4,196.1 559.4,205.9 569.2,205.9 579,205.9 588.8,205.9 588.8,196.1 		"/>
		<polygon class="st1" points="579,137.3 569.2,137.3 559.4,137.3 559.4,147.1 569.2,147.1 579,147.1 588.8,147.1 588.8,137.3 		"/>
		<polygon points="569.2,0 559.4,0 559.4,9.8 569.2,9.8 579,9.8 579,0 		"/>
		<polygon class="st3" points="579,245.1 579,254.9 588.8,254.9 588.8,245.1 588.8,235.3 579,235.3 		"/>
		<polygon class="st3" points="579,215.7 579,225.5 588.8,225.5 588.8,215.7 588.8,205.9 579,205.9 		"/>
		<polygon class="st3" points="579,186.3 579,196.1 588.8,196.1 588.8,186.3 588.8,176.5 579,176.5 		"/>
		<polygon class="st3" points="579,156.9 579,166.7 588.8,166.7 588.8,156.9 588.8,147.1 579,147.1 		"/>
		<polygon class="st3" points="579,117.7 579,107.8 579,98 579,88.2 579,78.4 579,68.6 579,58.8 579,49 579,39.2 579,29.4 579,19.6 
			579,9.8 569.2,9.8 559.4,9.8 559.4,19.6 559.4,29.4 559.4,39.2 559.4,49 559.4,58.8 559.4,68.6 559.4,78.4 559.4,88.2 559.4,98 
			559.4,107.8 559.4,117.7 549.6,117.7 549.6,127.4 549.6,137.3 549.6,147.1 549.6,156.9 549.6,166.7 549.6,176.5 549.6,186.3 
			549.6,196.1 549.6,205.9 549.6,215.7 549.6,225.5 549.6,235.3 549.6,245.1 549.6,254.9 549.6,264.7 549.6,274.5 549.6,284.3 
			559.4,284.3 559.4,294.1 569.2,294.1 579,294.1 579,284.3 588.8,284.3 588.8,274.5 588.8,264.7 579,264.7 579,274.5 569.2,274.5 
			569.2,264.7 559.4,264.7 559.4,254.9 569.2,254.9 569.2,245.1 569.2,235.3 569.2,225.5 569.2,215.7 569.2,205.9 559.4,205.9 
			559.4,196.1 569.2,196.1 569.2,186.3 569.2,176.5 569.2,166.7 569.2,156.9 569.2,147.1 559.4,147.1 559.4,137.3 569.2,137.3 
			569.2,127.4 579,127.4 579,137.3 588.8,137.3 588.8,127.4 588.8,117.7 		"/>
		<rect x="569.2" y="20.9" class="st0" width="9.8" height="116.3"/>
	</g>
</g>
<g id="Слой_2_11_">
	<g id="Слой_1-2_14_">
		<rect x="451.6" y="264.7" class="st0" width="9.8" height="9.8"/>
		<polygon class="st0" points="451.6,235.3 451.6,245.1 451.6,254.9 461.4,254.9 461.4,245.1 461.4,235.3 		"/>
		<polygon class="st1" points="461.4,225.5 451.6,225.5 451.6,235.3 461.4,235.3 471.2,235.3 471.2,225.5 		"/>
		<polygon class="st0" points="451.6,205.9 451.6,215.7 451.6,225.5 461.4,225.5 461.4,215.7 461.4,205.9 		"/>
		<polygon class="st0" points="451.6,176.5 451.6,186.3 451.6,196.1 461.4,196.1 461.4,186.3 461.4,176.5 		"/>
		<polygon class="st1" points="461.4,166.7 451.6,166.7 451.6,176.5 461.4,176.5 471.2,176.5 471.2,166.7 		"/>
		<polygon class="st0" points="451.6,147.1 451.6,156.9 451.6,166.7 461.4,166.7 461.4,156.9 461.4,147.1 		"/>
		<polygon class="st1" points="461.4,254.9 451.6,254.9 441.7,254.9 441.7,264.7 451.6,264.7 461.4,264.7 471.2,264.7 471.2,254.9 
					"/>
		<polygon class="st1" points="461.4,196.1 451.6,196.1 441.7,196.1 441.7,205.9 451.6,205.9 461.4,205.9 471.2,205.9 471.2,196.1 
					"/>
		<polygon class="st1" points="461.4,137.3 451.6,137.3 441.7,137.3 441.7,147.1 451.6,147.1 461.4,147.1 471.2,147.1 471.2,137.3 
					"/>
		<polygon points="451.6,0 441.7,0 441.7,9.8 451.6,9.8 461.4,9.8 461.4,0 		"/>
		<polygon class="st3" points="461.4,245.1 461.4,254.9 471.2,254.9 471.2,245.1 471.2,235.3 461.4,235.3 		"/>
		<polygon class="st3" points="461.4,215.7 461.4,225.5 471.2,225.5 471.2,215.7 471.2,205.9 461.4,205.9 		"/>
		<polygon class="st3" points="461.4,186.3 461.4,196.1 471.2,196.1 471.2,186.3 471.2,176.5 461.4,176.5 		"/>
		<polygon class="st3" points="461.4,156.9 461.4,166.7 471.2,166.7 471.2,156.9 471.2,147.1 461.4,147.1 		"/>
		<polygon class="st3" points="461.4,117.7 461.4,107.8 461.4,98 461.4,88.2 461.4,78.4 461.4,68.6 461.4,58.8 461.4,49 461.4,39.2 
			461.4,29.4 461.4,19.6 461.4,9.8 451.6,9.8 441.7,9.8 441.7,19.6 441.7,29.4 441.7,39.2 441.7,49 441.7,58.8 441.7,68.6 
			441.7,78.4 441.7,88.2 441.7,98 441.7,107.8 441.7,117.7 431.9,117.7 431.9,127.4 431.9,137.3 431.9,147.1 431.9,156.9 
			431.9,166.7 431.9,176.5 431.9,186.3 431.9,196.1 431.9,205.9 431.9,215.7 431.9,225.5 431.9,235.3 431.9,245.1 431.9,254.9 
			431.9,264.7 431.9,274.5 431.9,284.3 441.7,284.3 441.7,294.1 451.6,294.1 461.4,294.1 461.4,284.3 471.2,284.3 471.2,274.5 
			471.2,264.7 461.4,264.7 461.4,274.5 451.6,274.5 451.6,264.7 441.7,264.7 441.7,254.9 451.6,254.9 451.6,245.1 451.6,235.3 
			451.6,225.5 451.6,215.7 451.6,205.9 441.7,205.9 441.7,196.1 451.6,196.1 451.6,186.3 451.6,176.5 451.6,166.7 451.6,156.9 
			451.6,147.1 441.7,147.1 441.7,137.3 451.6,137.3 451.6,127.4 461.4,127.4 461.4,137.3 471.2,137.3 471.2,127.4 471.2,117.7 		"/>
		<rect x="451.6" y="9.8" class="st0" width="9.8" height="127.4"/>
	</g>
</g>
<g id="Слой_2_7_">
	<g id="Слой_1-2_10_">
		<rect x="608.4" y="264.7" class="st0" width="9.8" height="9.8"/>
		<polygon class="st0" points="608.4,235.3 608.4,245.1 608.4,254.9 618.2,254.9 618.2,245.1 618.2,235.3 		"/>
		<polygon class="st1" points="618.2,225.5 608.4,225.5 608.4,235.3 618.2,235.3 628,235.3 628,225.5 		"/>
		<polygon class="st0" points="608.4,205.9 608.4,215.7 608.4,225.5 618.2,225.5 618.2,215.7 618.2,205.9 		"/>
		<polygon class="st0" points="608.4,176.5 608.4,186.3 608.4,196.1 618.2,196.1 618.2,186.3 618.2,176.5 		"/>
		<polygon class="st1" points="618.2,166.7 608.4,166.7 608.4,176.5 618.2,176.5 628,176.5 628,166.7 		"/>
		<polygon class="st0" points="608.4,147.1 608.4,156.9 608.4,166.7 618.2,166.7 618.2,156.9 618.2,147.1 		"/>
		<polygon class="st1" points="618.2,254.9 608.4,254.9 598.6,254.9 598.6,264.7 608.4,264.7 618.2,264.7 628,264.7 628,254.9 		"/>
		<polygon class="st1" points="618.2,196.1 608.4,196.1 598.6,196.1 598.6,205.9 608.4,205.9 618.2,205.9 628,205.9 628,196.1 		"/>
		<polygon class="st1" points="618.2,137.3 608.4,137.3 598.6,137.3 598.6,147.1 608.4,147.1 618.2,147.1 628,147.1 628,137.3 		"/>
		<polygon points="608.4,0 598.6,0 598.6,9.8 608.4,9.8 618.2,9.8 618.2,0 		"/>
		<polygon class="st4" points="618.2,245.1 618.2,254.9 628,254.9 628,245.1 628,235.3 618.2,235.3 		"/>
		<polygon class="st4" points="618.2,215.7 618.2,225.5 628,225.5 628,215.7 628,205.9 618.2,205.9 		"/>
		<polygon class="st4" points="618.2,186.3 618.2,196.1 628,196.1 628,186.3 628,176.5 618.2,176.5 		"/>
		<polygon class="st4" points="618.2,156.9 618.2,166.7 628,166.7 628,156.9 628,147.1 618.2,147.1 		"/>
		<polygon class="st4" points="618.2,117.7 618.2,107.8 618.2,98 618.2,88.2 618.2,78.4 618.2,68.6 618.2,58.8 618.2,49 618.2,39.2 
			618.2,29.4 618.2,19.6 618.2,9.8 608.4,9.8 598.6,9.8 598.6,19.6 598.6,29.4 598.6,39.2 598.6,49 598.6,58.8 598.6,68.6 
			598.6,78.4 598.6,88.2 598.6,98 598.6,107.8 598.6,117.7 588.8,117.7 588.8,127.4 588.8,137.3 588.8,147.1 588.8,156.9 
			588.8,166.7 588.8,176.5 588.8,186.3 588.8,196.1 588.8,205.9 588.8,215.7 588.8,225.5 588.8,235.3 588.8,245.1 588.8,254.9 
			588.8,264.7 588.8,274.5 588.8,284.3 598.6,284.3 598.6,294.1 608.4,294.1 618.2,294.1 618.2,284.3 628,284.3 628,274.5 
			628,264.7 618.2,264.7 618.2,274.5 608.4,274.5 608.4,264.7 598.6,264.7 598.6,254.9 608.4,254.9 608.4,245.1 608.4,235.3 
			608.4,225.5 608.4,215.7 608.4,205.9 598.6,205.9 598.6,196.1 608.4,196.1 608.4,186.3 608.4,176.5 608.4,166.7 608.4,156.9 
			608.4,147.1 598.6,147.1 598.6,137.3 608.4,137.3 608.4,127.4 618.2,127.4 618.2,137.3 628,137.3 628,127.4 628,117.7 		"/>
		<rect x="608.4" y="30.6" class="st0" width="9.8" height="106.7"/>
	</g>
</g>
<g id="Слой_2_13_">
	<g id="Слой_1-2_16_">
		<rect x="412.3" y="264.7" class="st0" width="9.8" height="9.8"/>
		<polygon class="st0" points="412.3,235.3 412.3,245.1 412.3,254.9 422.1,254.9 422.1,245.1 422.1,235.3 		"/>
		<polygon class="st1" points="422.1,225.5 412.3,225.5 412.3,235.3 422.1,235.3 431.9,235.3 431.9,225.5 		"/>
		<polygon class="st0" points="412.3,205.9 412.3,215.7 412.3,225.5 422.1,225.5 422.1,215.7 422.1,205.9 		"/>
		<polygon class="st0" points="412.3,176.5 412.3,186.3 412.3,196.1 422.1,196.1 422.1,186.3 422.1,176.5 		"/>
		<polygon class="st1" points="422.1,166.7 412.3,166.7 412.3,176.5 422.1,176.5 431.9,176.5 431.9,166.7 		"/>
		<polygon class="st0" points="412.3,147.1 412.3,156.9 412.3,166.7 422.1,166.7 422.1,156.9 422.1,147.1 		"/>
		<polygon class="st1" points="422.1,254.9 412.3,254.9 402.5,254.9 402.5,264.7 412.3,264.7 422.1,264.7 431.9,264.7 431.9,254.9 
					"/>
		<polygon class="st1" points="422.1,196.1 412.3,196.1 402.5,196.1 402.5,205.9 412.3,205.9 422.1,205.9 431.9,205.9 431.9,196.1 
					"/>
		<polygon class="st1" points="422.1,137.3 412.3,137.3 402.5,137.3 402.5,147.1 412.3,147.1 422.1,147.1 431.9,147.1 431.9,137.3 
					"/>
		<polygon points="412.3,0 402.5,0 402.5,9.8 412.3,9.8 422.1,9.8 422.1,0 		"/>
		<polygon class="st5" points="422.1,245.1 422.1,254.9 431.9,254.9 431.9,245.1 431.9,235.3 422.1,235.3 		"/>
		<polygon class="st5" points="422.1,215.7 422.1,225.5 431.9,225.5 431.9,215.7 431.9,205.9 422.1,205.9 		"/>
		<polygon class="st5" points="422.1,186.3 422.1,196.1 431.9,196.1 431.9,186.3 431.9,176.5 422.1,176.5 		"/>
		<polygon class="st5" points="422.1,156.9 422.1,166.7 431.9,166.7 431.9,156.9 431.9,147.1 422.1,147.1 		"/>
		<polygon class="st5" points="422.1,117.7 422.1,107.8 422.1,98 422.1,88.2 422.1,78.4 422.1,68.6 422.1,58.8 422.1,49 422.1,39.2 
			422.1,29.4 422.1,19.6 422.1,9.8 412.3,9.8 402.5,9.8 402.5,19.6 402.5,29.4 402.5,39.2 402.5,49 402.5,58.8 402.5,68.6 
			402.5,78.4 402.5,88.2 402.5,98 402.5,107.8 402.5,117.7 392.7,117.7 392.7,127.4 392.7,137.3 392.7,147.1 392.7,156.9 
			392.7,166.7 392.7,176.5 392.7,186.3 392.7,196.1 392.7,205.9 392.7,215.7 392.7,225.5 392.7,235.3 392.7,245.1 392.7,254.9 
			392.7,264.7 392.7,274.5 392.7,284.3 402.5,284.3 402.5,294.1 412.3,294.1 422.1,294.1 422.1,284.3 431.9,284.3 431.9,274.5 
			431.9,264.7 422.1,264.7 422.1,274.5 412.3,274.5 412.3,264.7 402.5,264.7 402.5,254.9 412.3,254.9 412.3,245.1 412.3,235.3 
			412.3,225.5 412.3,215.7 412.3,205.9 402.5,205.9 402.5,196.1 412.3,196.1 412.3,186.3 412.3,176.5 412.3,166.7 412.3,156.9 
			412.3,147.1 402.5,147.1 402.5,137.3 412.3,137.3 412.3,127.4 422.1,127.4 422.1,137.3 431.9,137.3 431.9,127.4 431.9,117.7 		"/>
		<rect x="412.3" y="20.9" class="st0" width="9.8" height="116.3"/>
	</g>
</g>
<g id="Слой_2_12_">
	<g id="Слой_1-2_15_">
		<rect x="373.1" y="264.7" class="st0" width="9.8" height="9.8"/>
		<polygon class="st0" points="373.1,235.3 373.1,245.1 373.1,254.9 382.9,254.9 382.9,245.1 382.9,235.3 		"/>
		<polygon class="st1" points="382.9,225.5 373.1,225.5 373.1,235.3 382.9,235.3 392.7,235.3 392.7,225.5 		"/>
		<polygon class="st0" points="373.1,205.9 373.1,215.7 373.1,225.5 382.9,225.5 382.9,215.7 382.9,205.9 		"/>
		<polygon class="st0" points="373.1,176.5 373.1,186.3 373.1,196.1 382.9,196.1 382.9,186.3 382.9,176.5 		"/>
		<polygon class="st1" points="382.9,166.7 373.1,166.7 373.1,176.5 382.9,176.5 392.7,176.5 392.7,166.7 		"/>
		<polygon class="st0" points="373.1,147.1 373.1,156.9 373.1,166.7 382.9,166.7 382.9,156.9 382.9,147.1 		"/>
		<polygon class="st1" points="382.9,254.9 373.1,254.9 363.3,254.9 363.3,264.7 373.1,264.7 382.9,264.7 392.7,264.7 392.7,254.9 
					"/>
		<polygon class="st1" points="382.9,196.1 373.1,196.1 363.3,196.1 363.3,205.9 373.1,205.9 382.9,205.9 392.7,205.9 392.7,196.1 
					"/>
		<polygon class="st1" points="382.9,137.3 373.1,137.3 363.3,137.3 363.3,147.1 373.1,147.1 382.9,147.1 392.7,147.1 392.7,137.3 
					"/>
		<polygon points="373.1,0 363.3,0 363.3,9.8 373.1,9.8 382.9,9.8 382.9,0 		"/>
		<polygon class="st4" points="382.9,245.1 382.9,254.9 392.7,254.9 392.7,245.1 392.7,235.3 382.9,235.3 		"/>
		<polygon class="st4" points="382.9,215.7 382.9,225.5 392.7,225.5 392.7,215.7 392.7,205.9 382.9,205.9 		"/>
		<polygon class="st4" points="382.9,186.3 382.9,196.1 392.7,196.1 392.7,186.3 392.7,176.5 382.9,176.5 		"/>
		<polygon class="st4" points="382.9,156.9 382.9,166.7 392.7,166.7 392.7,156.9 392.7,147.1 382.9,147.1 		"/>
		<polygon class="st4" points="382.9,117.7 382.9,107.8 382.9,98 382.9,88.2 382.9,78.4 382.9,68.6 382.9,58.8 382.9,49 382.9,39.2 
			382.9,29.4 382.9,19.6 382.9,9.8 373.1,9.8 363.3,9.8 363.3,19.6 363.3,29.4 363.3,39.2 363.3,49 363.3,58.8 363.3,68.6 
			363.3,78.4 363.3,88.2 363.3,98 363.3,107.8 363.3,117.7 353.5,117.7 353.5,127.4 353.5,137.3 353.5,147.1 353.5,156.9 
			353.5,166.7 353.5,176.5 353.5,186.3 353.5,196.1 353.5,205.9 353.5,215.7 353.5,225.5 353.5,235.3 353.5,245.1 353.5,254.9 
			353.5,264.7 353.5,274.5 353.5,284.3 363.3,284.3 363.3,294.1 373.1,294.1 382.9,294.1 382.9,284.3 392.7,284.3 392.7,274.5 
			392.7,264.7 382.9,264.7 382.9,274.5 373.1,274.5 373.1,264.7 363.3,264.7 363.3,254.9 373.1,254.9 373.1,245.1 373.1,235.3 
			373.1,225.5 373.1,215.7 373.1,205.9 363.3,205.9 363.3,196.1 373.1,196.1 373.1,186.3 373.1,176.5 373.1,166.7 373.1,156.9 
			373.1,147.1 363.3,147.1 363.3,137.3 373.1,137.3 373.1,127.4 382.9,127.4 382.9,137.3 392.7,137.3 392.7,127.4 392.7,117.7 		"/>
		<rect x="373.1" y="30.6" class="st0" width="9.8" height="106.7"/>
	</g>
</g>
<rect x="647.6" y="264.7" class="st0" width="9.8" height="9.8"/>
<polygon class="st0" points="647.6,235.3 647.6,245.1 647.6,254.9 657.4,254.9 657.4,245.1 657.4,235.3 "/>
<polygon class="st1" points="657.4,225.5 647.6,225.5 647.6,235.3 657.4,235.3 667.2,235.3 667.2,225.5 "/>
<polygon class="st0" points="647.6,205.9 647.6,215.7 647.6,225.5 657.4,225.5 657.4,215.7 657.4,205.9 "/>
<polygon class="st0" points="647.6,176.5 647.6,186.3 647.6,196.1 657.4,196.1 657.4,186.3 657.4,176.5 "/>
<polygon class="st1" points="657.4,166.7 647.6,166.7 647.6,176.5 657.4,176.5 667.2,176.5 667.2,166.7 "/>
<polygon class="st0" points="647.6,147.1 647.6,156.9 647.6,166.7 657.4,166.7 657.4,156.9 657.4,147.1 "/>
<polygon class="st1" points="657.4,254.9 647.6,254.9 637.8,254.9 637.8,264.7 647.6,264.7 657.4,264.7 667.2,264.7 667.2,254.9 "/>
<polygon class="st1" points="657.4,196.1 647.6,196.1 637.8,196.1 637.8,205.9 647.6,205.9 657.4,205.9 667.2,205.9 667.2,196.1 "/>
<polygon class="st1" points="657.4,137.3 647.6,137.3 637.8,137.3 637.8,147.1 647.6,147.1 657.4,147.1 667.2,147.1 667.2,137.3 "/>
<polygon points="647.6,0 637.8,0 637.8,9.8 647.6,9.8 657.4,9.8 657.4,0 "/>
<polygon class="st4" points="657.4,245.1 657.4,254.9 667.2,254.9 667.2,245.1 667.2,235.3 657.4,235.3 "/>
<polygon class="st4" points="657.4,215.7 657.4,225.5 667.2,225.5 667.2,215.7 667.2,205.9 657.4,205.9 "/>
<polygon class="st4" points="657.4,186.3 657.4,196.1 667.2,196.1 667.2,186.3 667.2,176.5 657.4,176.5 "/>
<polygon class="st4" points="657.4,156.9 657.4,166.7 667.2,166.7 667.2,156.9 667.2,147.1 657.4,147.1 "/>
<polygon class="st4" points="657.4,117.7 657.4,107.8 657.4,98 657.4,88.2 657.4,78.4 657.4,68.6 657.4,58.8 657.4,49 657.4,39.2 
	657.4,29.4 657.4,19.6 657.4,9.8 647.6,9.8 637.8,9.8 637.8,19.6 637.8,29.4 637.8,39.2 637.8,49 637.8,58.8 637.8,68.6 637.8,78.4 
	637.8,88.2 637.8,98 637.8,107.8 637.8,117.7 628,117.7 628,127.4 628,137.3 628,147.1 628,156.9 628,166.7 628,176.5 628,186.3 
	628,196.1 628,205.9 628,215.7 628,225.5 628,235.3 628,245.1 628,254.9 628,264.7 628,274.5 628,284.3 637.8,284.3 637.8,294.1 
	647.6,294.1 657.4,294.1 657.4,284.3 667.2,284.3 667.2,274.5 667.2,264.7 657.4,264.7 657.4,274.5 647.6,274.5 647.6,264.7 
	637.8,264.7 637.8,254.9 647.6,254.9 647.6,245.1 647.6,235.3 647.6,225.5 647.6,215.7 647.6,205.9 637.8,205.9 637.8,196.1 
	647.6,196.1 647.6,186.3 647.6,176.5 647.6,166.7 647.6,156.9 647.6,147.1 637.8,147.1 637.8,137.3 647.6,137.3 647.6,127.4 
	657.4,127.4 657.4,137.3 667.2,137.3 667.2,127.4 667.2,117.7 "/>
<g id="Слой_1-2_6_">
	<rect x="726" y="264.7" class="st0" width="9.8" height="9.8"/>
	<polygon class="st0" points="726,235.3 726,245.1 726,254.9 735.8,254.9 735.8,245.1 735.8,235.3 	"/>
	<polygon class="st1" points="735.8,225.5 726,225.5 726,235.3 735.8,235.3 745.6,235.3 745.6,225.5 	"/>
	<polygon class="st0" points="726,205.9 726,215.7 726,225.5 735.8,225.5 735.8,215.7 735.8,205.9 	"/>
	<polygon class="st0" points="726,176.5 726,186.3 726,196.1 735.8,196.1 735.8,186.3 735.8,176.5 	"/>
	<polygon class="st1" points="735.8,166.7 726,166.7 726,176.5 735.8,176.5 745.6,176.5 745.6,166.7 	"/>
	<polygon class="st0" points="726,147.1 726,156.9 726,166.7 735.8,166.7 735.8,156.9 735.8,147.1 	"/>
	<polygon class="st1" points="735.8,254.9 726,254.9 716.2,254.9 716.2,264.7 726,264.7 735.8,264.7 745.6,264.7 745.6,254.9 	"/>
	<polygon class="st1" points="735.8,196.1 726,196.1 716.2,196.1 716.2,205.9 726,205.9 735.8,205.9 745.6,205.9 745.6,196.1 	"/>
	<polygon class="st1" points="735.8,137.3 726,137.3 716.2,137.3 716.2,147.1 726,147.1 735.8,147.1 745.6,147.1 745.6,137.3 	"/>
	<polygon points="726,0 716.2,0 716.2,9.8 726,9.8 735.8,9.8 735.8,0 	"/>
	<polygon class="st4" points="735.8,245.1 735.8,254.9 745.6,254.9 745.6,245.1 745.6,235.3 735.8,235.3 	"/>
	<polygon class="st4" points="735.8,215.7 735.8,225.5 745.6,225.5 745.6,215.7 745.6,205.9 735.8,205.9 	"/>
	<polygon class="st4" points="735.8,186.3 735.8,196.1 745.6,196.1 745.6,186.3 745.6,176.5 735.8,176.5 	"/>
	<polygon class="st4" points="735.8,156.9 735.8,166.7 745.6,166.7 745.6,156.9 745.6,147.1 735.8,147.1 	"/>
	<polygon class="st4" points="735.8,117.7 735.8,107.8 735.8,98 735.8,88.2 735.8,78.4 735.8,68.6 735.8,58.8 735.8,49 735.8,39.2 
		735.8,29.4 735.8,19.6 735.8,9.8 726,9.8 716.2,9.8 716.2,19.6 716.2,29.4 716.2,39.2 716.2,49 716.2,58.8 716.2,68.6 716.2,78.4 
		716.2,88.2 716.2,98 716.2,107.8 716.2,117.7 706.4,117.7 706.4,127.4 706.4,137.3 706.4,147.1 706.4,156.9 706.4,166.7 
		706.4,176.5 706.4,186.3 706.4,196.1 706.4,205.9 706.4,215.7 706.4,225.5 706.4,235.3 706.4,245.1 706.4,254.9 706.4,264.7 
		706.4,274.5 706.4,284.3 716.2,284.3 716.2,294.1 726,294.1 735.8,294.1 735.8,284.3 745.6,284.3 745.6,274.5 745.6,264.7 
		735.8,264.7 735.8,274.5 726,274.5 726,264.7 716.2,264.7 716.2,254.9 726,254.9 726,245.1 726,235.3 726,225.5 726,215.7 
		726,205.9 716.2,205.9 716.2,196.1 726,196.1 726,186.3 726,176.5 726,166.7 726,156.9 726,147.1 716.2,147.1 716.2,137.3 
		726,137.3 726,127.4 735.8,127.4 735.8,137.3 745.6,137.3 745.6,127.4 745.6,117.7 	"/>
	<rect x="726" y="71.2" class="st0" width="9.8" height="66.1"/>
</g>
<g id="Слой_1-2_5_">
	<rect x="804.4" y="264.7" class="st0" width="9.8" height="9.8"/>
	<polygon class="st0" points="804.4,235.3 804.4,245.1 804.4,254.9 814.2,254.9 814.2,245.1 814.2,235.3 	"/>
	<polygon class="st1" points="814.2,225.5 804.4,225.5 804.4,235.3 814.2,235.3 824,235.3 824,225.5 	"/>
	<polygon class="st0" points="804.4,205.9 804.4,215.7 804.4,225.5 814.2,225.5 814.2,215.7 814.2,205.9 	"/>
	<polygon class="st0" points="804.4,176.5 804.4,186.3 804.4,196.1 814.2,196.1 814.2,186.3 814.2,176.5 	"/>
	<polygon class="st1" points="814.2,166.7 804.4,166.7 804.4,176.5 814.2,176.5 824,176.5 824,166.7 	"/>
	<polygon class="st0" points="804.4,147.1 804.4,156.9 804.4,166.7 814.2,166.7 814.2,156.9 814.2,147.1 	"/>
	<polygon class="st1" points="814.2,254.9 804.4,254.9 794.6,254.9 794.6,264.7 804.4,264.7 814.2,264.7 824,264.7 824,254.9 	"/>
	<polygon class="st1" points="814.2,196.1 804.4,196.1 794.6,196.1 794.6,205.9 804.4,205.9 814.2,205.9 824,205.9 824,196.1 	"/>
	<polygon class="st1" points="814.2,137.3 804.4,137.3 794.6,137.3 794.6,147.1 804.4,147.1 814.2,147.1 824,147.1 824,137.3 	"/>
	<polygon points="804.4,0 794.6,0 794.6,9.8 804.4,9.8 814.2,9.8 814.2,0 	"/>
	<polygon class="st4" points="814.2,245.1 814.2,254.9 824,254.9 824,245.1 824,235.3 814.2,235.3 	"/>
	<polygon class="st4" points="814.2,215.7 814.2,225.5 824,225.5 824,215.7 824,205.9 814.2,205.9 	"/>
	<polygon class="st4" points="814.2,186.3 814.2,196.1 824,196.1 824,186.3 824,176.5 814.2,176.5 	"/>
	<polygon class="st4" points="814.2,156.9 814.2,166.7 824,166.7 824,156.9 824,147.1 814.2,147.1 	"/>
	<polygon class="st4" points="814.2,117.7 814.2,107.8 814.2,98 814.2,88.2 814.2,78.4 814.2,68.6 814.2,58.8 814.2,49 814.2,39.2 
		814.2,29.4 814.2,19.6 814.2,9.8 804.4,9.8 794.6,9.8 794.6,19.6 794.6,29.4 794.6,39.2 794.6,49 794.6,58.8 794.6,68.6 
		794.6,78.4 794.6,88.2 794.6,98 794.6,107.8 794.6,117.7 784.8,117.7 784.8,127.4 784.8,137.3 784.8,147.1 784.8,156.9 
		784.8,166.7 784.8,176.5 784.8,186.3 784.8,196.1 784.8,205.9 784.8,215.7 784.8,225.5 784.8,235.3 784.8,245.1 784.8,254.9 
		784.8,264.7 784.8,274.5 784.8,284.3 794.6,284.3 794.6,294.1 804.4,294.1 814.2,294.1 814.2,284.3 824,284.3 824,274.5 824,264.7 
		814.2,264.7 814.2,274.5 804.4,274.5 804.4,264.7 794.6,264.7 794.6,254.9 804.4,254.9 804.4,245.1 804.4,235.3 804.4,225.5 
		804.4,215.7 804.4,205.9 794.6,205.9 794.6,196.1 804.4,196.1 804.4,186.3 804.4,176.5 804.4,166.7 804.4,156.9 804.4,147.1 
		794.6,147.1 794.6,137.3 804.4,137.3 804.4,127.4 814.2,127.4 814.2,137.3 824,137.3 824,127.4 824,117.7 	"/>
	<rect x="804.4" y="94.5" class="st0" width="9.8" height="42.8"/>
</g>
<g id="Слой_1-2_19_">
	<rect x="137.2" y="264.7" class="st0" width="9.8" height="9.8"/>
	<polygon class="st0" points="137.2,235.3 137.2,245.1 137.2,254.9 147,254.9 147,245.1 147,235.3 	"/>
	<polygon class="st1" points="147,225.5 137.2,225.5 137.2,235.3 147,235.3 156.8,235.3 156.8,225.5 	"/>
	<polygon class="st0" points="137.2,205.9 137.2,215.7 137.2,225.5 147,225.5 147,215.7 147,205.9 	"/>
	<polygon class="st0" points="137.2,176.5 137.2,186.3 137.2,196.1 147,196.1 147,186.3 147,176.5 	"/>
	<polygon class="st1" points="147,166.7 137.2,166.7 137.2,176.5 147,176.5 156.8,176.5 156.8,166.7 	"/>
	<polygon class="st0" points="137.2,147.1 137.2,156.9 137.2,166.7 147,166.7 147,156.9 147,147.1 	"/>
	<polygon class="st1" points="147,254.9 137.2,254.9 127.4,254.9 127.4,264.7 137.2,264.7 147,264.7 156.8,264.7 156.8,254.9 	"/>
	<polygon class="st1" points="147,196.1 137.2,196.1 127.4,196.1 127.4,205.9 137.2,205.9 147,205.9 156.8,205.9 156.8,196.1 	"/>
	<polygon class="st1" points="147,137.3 137.2,137.3 127.4,137.3 127.4,147.1 137.2,147.1 147,147.1 156.8,147.1 156.8,137.3 	"/>
	<polygon points="137.2,0 127.4,0 127.4,9.8 137.2,9.8 147,9.8 147,0 	"/>
	<polygon class="st4" points="147,245.1 147,254.9 156.8,254.9 156.8,245.1 156.8,235.3 147,235.3 	"/>
	<polygon class="st4" points="147,215.7 147,225.5 156.8,225.5 156.8,215.7 156.8,205.9 147,205.9 	"/>
	<polygon class="st4" points="147,186.3 147,196.1 156.8,196.1 156.8,186.3 156.8,176.5 147,176.5 	"/>
	<polygon class="st4" points="147,156.9 147,166.7 156.8,166.7 156.8,156.9 156.8,147.1 147,147.1 	"/>
	<polygon class="st4" points="147,117.7 147,107.8 147,98 147,88.2 147,78.4 147,68.6 147,58.8 147,49 147,39.2 147,29.4 147,19.6 
		147,9.8 137.2,9.8 127.4,9.8 127.4,19.6 127.4,29.4 127.4,39.2 127.4,49 127.4,58.8 127.4,68.6 127.4,78.4 127.4,88.2 127.4,98 
		127.4,107.8 127.4,117.7 117.6,117.7 117.6,127.4 117.6,137.3 117.6,147.1 117.6,156.9 117.6,166.7 117.6,176.5 117.6,186.3 
		117.6,196.1 117.6,205.9 117.6,215.7 117.6,225.5 117.6,235.3 117.6,245.1 117.6,254.9 117.6,264.7 117.6,274.5 117.6,284.3 
		127.4,284.3 127.4,294.1 137.2,294.1 147,294.1 147,284.3 156.8,284.3 156.8,274.5 156.8,264.7 147,264.7 147,274.5 137.2,274.5 
		137.2,264.7 127.4,264.7 127.4,254.9 137.2,254.9 137.2,245.1 137.2,235.3 137.2,225.5 137.2,215.7 137.2,205.9 127.4,205.9 
		127.4,196.1 137.2,196.1 137.2,186.3 137.2,176.5 137.2,166.7 137.2,156.9 137.2,147.1 127.4,147.1 127.4,137.3 137.2,137.3 
		137.2,127.4 147,127.4 147,137.3 156.8,137.3 156.8,127.4 156.8,117.7 	"/>
	<rect x="137.2" y="94.5" class="st0" width="9.8" height="42.8"/>
</g>
<g id="Слой_2_9_">
	<g id="Слой_1-2_18_">
		<rect x="843.7" y="264.7" class="st0" width="9.8" height="9.8"/>
		<polygon class="st0" points="843.7,235.3 843.7,245.1 843.7,254.9 853.5,254.9 853.5,245.1 853.5,235.3 		"/>
		<polygon class="st1" points="853.5,225.5 843.7,225.5 843.7,235.3 853.5,235.3 863.3,235.3 863.3,225.5 		"/>
		<polygon class="st0" points="843.7,205.9 843.7,215.7 843.7,225.5 853.5,225.5 853.5,215.7 853.5,205.9 		"/>
		<polygon class="st0" points="843.7,176.5 843.7,186.3 843.7,196.1 853.5,196.1 853.5,186.3 853.5,176.5 		"/>
		<polygon class="st1" points="853.5,166.7 843.7,166.7 843.7,176.5 853.5,176.5 863.3,176.5 863.3,166.7 		"/>
		<polygon class="st0" points="843.7,147.1 843.7,156.9 843.7,166.7 853.5,166.7 853.5,156.9 853.5,147.1 		"/>
		<polygon class="st1" points="853.5,254.9 843.7,254.9 833.8,254.9 833.8,264.7 843.7,264.7 853.5,264.7 863.3,264.7 863.3,254.9 
					"/>
		<polygon class="st1" points="853.5,196.1 843.7,196.1 833.8,196.1 833.8,205.9 843.7,205.9 853.5,205.9 863.3,205.9 863.3,196.1 
					"/>
		<polygon class="st1" points="853.5,137.3 843.7,137.3 833.8,137.3 833.8,147.1 843.7,147.1 853.5,147.1 863.3,147.1 863.3,137.3 
					"/>
		<polygon points="843.7,0 833.8,0 833.8,9.8 843.7,9.8 853.5,9.8 853.5,0 		"/>
		<polygon class="st4" points="853.5,245.1 853.5,254.9 863.3,254.9 863.3,245.1 863.3,235.3 853.5,235.3 		"/>
		<polygon class="st4" points="853.5,215.7 853.5,225.5 863.3,225.5 863.3,215.7 863.3,205.9 853.5,205.9 		"/>
		<polygon class="st4" points="853.5,186.3 853.5,196.1 863.3,196.1 863.3,186.3 863.3,176.5 853.5,176.5 		"/>
		<polygon class="st4" points="853.5,156.9 853.5,166.7 863.3,166.7 863.3,156.9 863.3,147.1 853.5,147.1 		"/>
		<polygon class="st4" points="853.5,117.7 853.5,107.8 853.5,98 853.5,88.2 853.5,78.4 853.5,68.6 853.5,58.8 853.5,49 853.5,39.2 
			853.5,29.4 853.5,19.6 853.5,9.8 843.7,9.8 833.8,9.8 833.8,19.6 833.8,29.4 833.8,39.2 833.8,49 833.8,58.8 833.8,68.6 
			833.8,78.4 833.8,88.2 833.8,98 833.8,107.8 833.8,117.7 824,117.7 824,127.4 824,137.3 824,147.1 824,156.9 824,166.7 824,176.5 
			824,186.3 824,196.1 824,205.9 824,215.7 824,225.5 824,235.3 824,245.1 824,254.9 824,264.7 824,274.5 824,284.3 833.8,284.3 
			833.8,294.1 843.7,294.1 853.5,294.1 853.5,284.3 863.3,284.3 863.3,274.5 863.3,264.7 853.5,264.7 853.5,274.5 843.7,274.5 
			843.7,264.7 833.8,264.7 833.8,254.9 843.7,254.9 843.7,245.1 843.7,235.3 843.7,225.5 843.7,215.7 843.7,205.9 833.8,205.9 
			833.8,196.1 843.7,196.1 843.7,186.3 843.7,176.5 843.7,166.7 843.7,156.9 843.7,147.1 833.8,147.1 833.8,137.3 843.7,137.3 
			843.7,127.4 853.5,127.4 853.5,137.3 863.3,137.3 863.3,127.4 863.3,117.7 		"/>
		<rect x="843.7" y="106.8" class="st0" width="9.8" height="30.4"/>
	</g>
</g>
<g id="Слой_2_10_">
	<g id="Слой_1-2_20_">
		<rect x="98" y="264.7" class="st0" width="9.8" height="9.8"/>
		<polygon class="st0" points="98,235.3 98,245.1 98,254.9 107.8,254.9 107.8,245.1 107.8,235.3 		"/>
		<polygon class="st1" points="107.8,225.5 98,225.5 98,235.3 107.8,235.3 117.6,235.3 117.6,225.5 		"/>
		<polygon class="st0" points="98,205.9 98,215.7 98,225.5 107.8,225.5 107.8,215.7 107.8,205.9 		"/>
		<polygon class="st0" points="98,176.5 98,186.3 98,196.1 107.8,196.1 107.8,186.3 107.8,176.5 		"/>
		<polygon class="st1" points="107.8,166.7 98,166.7 98,176.5 107.8,176.5 117.6,176.5 117.6,166.7 		"/>
		<polygon class="st0" points="98,147.1 98,156.9 98,166.7 107.8,166.7 107.8,156.9 107.8,147.1 		"/>
		<polygon class="st1" points="107.8,254.9 98,254.9 88.2,254.9 88.2,264.7 98,264.7 107.8,264.7 117.6,264.7 117.6,254.9 		"/>
		<polygon class="st1" points="107.8,196.1 98,196.1 88.2,196.1 88.2,205.9 98,205.9 107.8,205.9 117.6,205.9 117.6,196.1 		"/>
		<polygon class="st1" points="107.8,137.3 98,137.3 88.2,137.3 88.2,147.1 98,147.1 107.8,147.1 117.6,147.1 117.6,137.3 		"/>
		<polygon points="98,0 88.2,0 88.2,9.8 98,9.8 107.8,9.8 107.8,0 		"/>
		<polygon class="st4" points="107.8,245.1 107.8,254.9 117.6,254.9 117.6,245.1 117.6,235.3 107.8,235.3 		"/>
		<polygon class="st4" points="107.8,215.7 107.8,225.5 117.6,225.5 117.6,215.7 117.6,205.9 107.8,205.9 		"/>
		<polygon class="st4" points="107.8,186.3 107.8,196.1 117.6,196.1 117.6,186.3 117.6,176.5 107.8,176.5 		"/>
		<polygon class="st4" points="107.8,156.9 107.8,166.7 117.6,166.7 117.6,156.9 117.6,147.1 107.8,147.1 		"/>
		<polygon class="st4" points="107.8,117.7 107.8,107.8 107.8,98 107.8,88.2 107.8,78.4 107.8,68.6 107.8,58.8 107.8,49 107.8,39.2 
			107.8,29.4 107.8,19.6 107.8,9.8 98,9.8 88.2,9.8 88.2,19.6 88.2,29.4 88.2,39.2 88.2,49 88.2,58.8 88.2,68.6 88.2,78.4 
			88.2,88.2 88.2,98 88.2,107.8 88.2,117.7 78.4,117.7 78.4,127.4 78.4,137.3 78.4,147.1 78.4,156.9 78.4,166.7 78.4,176.5 
			78.4,186.3 78.4,196.1 78.4,205.9 78.4,215.7 78.4,225.5 78.4,235.3 78.4,245.1 78.4,254.9 78.4,264.7 78.4,274.5 78.4,284.3 
			88.2,284.3 88.2,294.1 98,294.1 107.8,294.1 107.8,284.3 117.6,284.3 117.6,274.5 117.6,264.7 107.8,264.7 107.8,274.5 98,274.5 
			98,264.7 88.2,264.7 88.2,254.9 98,254.9 98,245.1 98,235.3 98,225.5 98,215.7 98,205.9 88.2,205.9 88.2,196.1 98,196.1 98,186.3 
			98,176.5 98,166.7 98,156.9 98,147.1 88.2,147.1 88.2,137.3 98,137.3 98,127.4 107.8,127.4 107.8,137.3 117.6,137.3 117.6,127.4 
			117.6,117.7 		"/>
		<rect x="98" y="106.8" class="st0" width="9.8" height="30.4"/>
	</g>
</g>
<g id="Слой_2_3_">
	<g id="Слой_1-2_2_">
		<rect x="882.9" y="264.7" class="st0" width="9.8" height="9.8"/>
		<polygon class="st0" points="882.9,235.3 882.9,245.1 882.9,254.9 892.7,254.9 892.7,245.1 892.7,235.3 		"/>
		<polygon class="st1" points="892.7,225.5 882.9,225.5 882.9,235.3 892.7,235.3 902.5,235.3 902.5,225.5 		"/>
		<polygon class="st0" points="882.9,205.9 882.9,215.7 882.9,225.5 892.7,225.5 892.7,215.7 892.7,205.9 		"/>
		<polygon class="st0" points="882.9,176.5 882.9,186.3 882.9,196.1 892.7,196.1 892.7,186.3 892.7,176.5 		"/>
		<polygon class="st1" points="892.7,166.7 882.9,166.7 882.9,176.5 892.7,176.5 902.5,176.5 902.5,166.7 		"/>
		<polygon class="st0" points="882.9,147.1 882.9,156.9 882.9,166.7 892.7,166.7 892.7,156.9 892.7,147.1 		"/>
		<polygon class="st1" points="892.7,254.9 882.9,254.9 873.1,254.9 873.1,264.7 882.9,264.7 892.7,264.7 902.5,264.7 902.5,254.9 
					"/>
		<polygon class="st1" points="892.7,196.1 882.9,196.1 873.1,196.1 873.1,205.9 882.9,205.9 892.7,205.9 902.5,205.9 902.5,196.1 
					"/>
		<polygon class="st1" points="892.7,137.3 882.9,137.3 873.1,137.3 873.1,147.1 882.9,147.1 892.7,147.1 902.5,147.1 902.5,137.3 
					"/>
		<polygon points="882.9,0 873.1,0 873.1,9.8 882.9,9.8 892.7,9.8 892.7,0 		"/>
		<polygon class="st4" points="892.7,245.1 892.7,254.9 902.5,254.9 902.5,245.1 902.5,235.3 892.7,235.3 		"/>
		<polygon class="st4" points="892.7,215.7 892.7,225.5 902.5,225.5 902.5,215.7 902.5,205.9 892.7,205.9 		"/>
		<polygon class="st4" points="892.7,186.3 892.7,196.1 902.5,196.1 902.5,186.3 902.5,176.5 892.7,176.5 		"/>
		<polygon class="st4" points="892.7,156.9 892.7,166.7 902.5,166.7 902.5,156.9 902.5,147.1 892.7,147.1 		"/>
		<polygon class="st4" points="892.7,117.7 892.7,107.8 892.7,98 892.7,88.2 892.7,78.4 892.7,68.6 892.7,58.8 892.7,49 892.7,39.2 
			892.7,29.4 892.7,19.6 892.7,9.8 882.9,9.8 873.1,9.8 873.1,19.6 873.1,29.4 873.1,39.2 873.1,49 873.1,58.8 873.1,68.6 
			873.1,78.4 873.1,88.2 873.1,98 873.1,107.8 873.1,117.7 863.3,117.7 863.3,127.4 863.3,137.3 863.3,147.1 863.3,156.9 
			863.3,166.7 863.3,176.5 863.3,186.3 863.3,196.1 863.3,205.9 863.3,215.7 863.3,225.5 863.3,235.3 863.3,245.1 863.3,254.9 
			863.3,264.7 863.3,274.5 863.3,284.3 873.1,284.3 873.1,294.1 882.9,294.1 892.7,294.1 892.7,284.3 902.5,284.3 902.5,274.5 
			902.5,264.7 892.7,264.7 892.7,274.5 882.9,274.5 882.9,264.7 873.1,264.7 873.1,254.9 882.9,254.9 882.9,245.1 882.9,235.3 
			882.9,225.5 882.9,215.7 882.9,205.9 873.1,205.9 873.1,196.1 882.9,196.1 882.9,186.3 882.9,176.5 882.9,166.7 882.9,156.9 
			882.9,147.1 873.1,147.1 873.1,137.3 882.9,137.3 882.9,127.4 892.7,127.4 892.7,137.3 902.5,137.3 902.5,127.4 902.5,117.7 		"/>
		<rect x="882.9" y="117.9" class="st0" width="9.8" height="19.4"/>
	</g>
</g>
<g id="Слой_2_14_">
	<g id="Слой_1-2_21_">
		<rect x="58.8" y="264.7" class="st0" width="9.8" height="9.8"/>
		<polygon class="st0" points="58.8,235.3 58.8,245.1 58.8,254.9 68.6,254.9 68.6,245.1 68.6,235.3 		"/>
		<polygon class="st1" points="68.6,225.5 58.8,225.5 58.8,235.3 68.6,235.3 78.4,235.3 78.4,225.5 		"/>
		<polygon class="st0" points="58.8,205.9 58.8,215.7 58.8,225.5 68.6,225.5 68.6,215.7 68.6,205.9 		"/>
		<polygon class="st0" points="58.8,176.5 58.8,186.3 58.8,196.1 68.6,196.1 68.6,186.3 68.6,176.5 		"/>
		<polygon class="st1" points="68.6,166.7 58.8,166.7 58.8,176.5 68.6,176.5 78.4,176.5 78.4,166.7 		"/>
		<polygon class="st0" points="58.8,147.1 58.8,156.9 58.8,166.7 68.6,166.7 68.6,156.9 68.6,147.1 		"/>
		<polygon class="st1" points="68.6,254.9 58.8,254.9 49,254.9 49,264.7 58.8,264.7 68.6,264.7 78.4,264.7 78.4,254.9 		"/>
		<polygon class="st1" points="68.6,196.1 58.8,196.1 49,196.1 49,205.9 58.8,205.9 68.6,205.9 78.4,205.9 78.4,196.1 		"/>
		<polygon class="st1" points="68.6,137.3 58.8,137.3 49,137.3 49,147.1 58.8,147.1 68.6,147.1 78.4,147.1 78.4,137.3 		"/>
		<polygon points="58.8,0 49,0 49,9.8 58.8,9.8 68.6,9.8 68.6,0 		"/>
		<polygon class="st4" points="68.6,245.1 68.6,254.9 78.4,254.9 78.4,245.1 78.4,235.3 68.6,235.3 		"/>
		<polygon class="st4" points="68.6,215.7 68.6,225.5 78.4,225.5 78.4,215.7 78.4,205.9 68.6,205.9 		"/>
		<polygon class="st4" points="68.6,186.3 68.6,196.1 78.4,196.1 78.4,186.3 78.4,176.5 68.6,176.5 		"/>
		<polygon class="st4" points="68.6,156.9 68.6,166.7 78.4,166.7 78.4,156.9 78.4,147.1 68.6,147.1 		"/>
		<polygon class="st4" points="68.6,117.7 68.6,107.8 68.6,98 68.6,88.2 68.6,78.4 68.6,68.6 68.6,58.8 68.6,49 68.6,39.2 
			68.6,29.4 68.6,19.6 68.6,9.8 58.8,9.8 49,9.8 49,19.6 49,29.4 49,39.2 49,49 49,58.8 49,68.6 49,78.4 49,88.2 49,98 49,107.8 
			49,117.7 39.2,117.7 39.2,127.4 39.2,137.3 39.2,147.1 39.2,156.9 39.2,166.7 39.2,176.5 39.2,186.3 39.2,196.1 39.2,205.9 
			39.2,215.7 39.2,225.5 39.2,235.3 39.2,245.1 39.2,254.9 39.2,264.7 39.2,274.5 39.2,284.3 49,284.3 49,294.1 58.8,294.1 
			68.6,294.1 68.6,284.3 78.4,284.3 78.4,274.5 78.4,264.7 68.6,264.7 68.6,274.5 58.8,274.5 58.8,264.7 49,264.7 49,254.9 
			58.8,254.9 58.8,245.1 58.8,235.3 58.8,225.5 58.8,215.7 58.8,205.9 49,205.9 49,196.1 58.8,196.1 58.8,186.3 58.8,176.5 
			58.8,166.7 58.8,156.9 58.8,147.1 49,147.1 49,137.3 58.8,137.3 58.8,127.4 68.6,127.4 68.6,137.3 78.4,137.3 78.4,127.4 
			78.4,117.7 		"/>
		<rect x="58.8" y="117.9" class="st0" width="9.8" height="19.4"/>
	</g>
</g>
<g id="Слой_2_4_">
	<g id="Слой_1-2_3_">
		<rect x="922.1" y="264.7" class="st0" width="9.8" height="9.8"/>
		<polygon class="st0" points="922.1,235.3 922.1,245.1 922.1,254.9 931.9,254.9 931.9,245.1 931.9,235.3 		"/>
		<polygon class="st1" points="931.9,225.5 922.1,225.5 922.1,235.3 931.9,235.3 941.7,235.3 941.7,225.5 		"/>
		<polygon class="st0" points="922.1,205.9 922.1,215.7 922.1,225.5 931.9,225.5 931.9,215.7 931.9,205.9 		"/>
		<polygon class="st0" points="922.1,176.5 922.1,186.3 922.1,196.1 931.9,196.1 931.9,186.3 931.9,176.5 		"/>
		<polygon class="st1" points="931.9,166.7 922.1,166.7 922.1,176.5 931.9,176.5 941.7,176.5 941.7,166.7 		"/>
		<polygon class="st0" points="922.1,147.1 922.1,156.9 922.1,166.7 931.9,166.7 931.9,156.9 931.9,147.1 		"/>
		<rect x="922.1" y="127.4" class="st0" width="9.8" height="9.8"/>
		<polygon class="st1" points="931.9,254.9 922.1,254.9 912.3,254.9 912.3,264.7 922.1,264.7 931.9,264.7 941.7,264.7 941.7,254.9 
					"/>
		<polygon class="st1" points="931.9,196.1 922.1,196.1 912.3,196.1 912.3,205.9 922.1,205.9 931.9,205.9 941.7,205.9 941.7,196.1 
					"/>
		<polygon class="st1" points="931.9,137.3 922.1,137.3 912.3,137.3 912.3,147.1 922.1,147.1 931.9,147.1 941.7,147.1 941.7,137.3 
					"/>
		<polygon points="922.1,0 912.3,0 912.3,9.8 922.1,9.8 931.9,9.8 931.9,0 		"/>
		<polygon class="st4" points="931.9,245.1 931.9,254.9 941.7,254.9 941.7,245.1 941.7,235.3 931.9,235.3 		"/>
		<polygon class="st4" points="931.9,215.7 931.9,225.5 941.7,225.5 941.7,215.7 941.7,205.9 931.9,205.9 		"/>
		<polygon class="st4" points="931.9,186.3 931.9,196.1 941.7,196.1 941.7,186.3 941.7,176.5 931.9,176.5 		"/>
		<polygon class="st4" points="931.9,156.9 931.9,166.7 941.7,166.7 941.7,156.9 941.7,147.1 931.9,147.1 		"/>
		<polygon class="st4" points="931.9,117.7 931.9,107.8 931.9,98 931.9,88.2 931.9,78.4 931.9,68.6 931.9,58.8 931.9,49 931.9,39.2 
			931.9,29.4 931.9,19.6 931.9,9.8 922.1,9.8 912.3,9.8 912.3,19.6 912.3,29.4 912.3,39.2 912.3,49 912.3,58.8 912.3,68.6 
			912.3,78.4 912.3,88.2 912.3,98 912.3,107.8 912.3,117.7 902.5,117.7 902.5,127.4 902.5,137.3 902.5,147.1 902.5,156.9 
			902.5,166.7 902.5,176.5 902.5,186.3 902.5,196.1 902.5,205.9 902.5,215.7 902.5,225.5 902.5,235.3 902.5,245.1 902.5,254.9 
			902.5,264.7 902.5,274.5 902.5,284.3 912.3,284.3 912.3,294.1 922.1,294.1 931.9,294.1 931.9,284.3 941.7,284.3 941.7,274.5 
			941.7,264.7 931.9,264.7 931.9,274.5 922.1,274.5 922.1,264.7 912.3,264.7 912.3,254.9 922.1,254.9 922.1,245.1 922.1,235.3 
			922.1,225.5 922.1,215.7 922.1,205.9 912.3,205.9 912.3,196.1 922.1,196.1 922.1,186.3 922.1,176.5 922.1,166.7 922.1,156.9 
			922.1,147.1 912.3,147.1 912.3,137.3 922.1,137.3 922.1,127.4 931.9,127.4 931.9,137.3 941.7,137.3 941.7,127.4 941.7,117.7 		"/>
	</g>
</g>
<g id="Слой_2_2_">
	<g id="Слой_1-2_1_">
		<rect x="19.6" y="264.7" class="st0" width="9.8" height="9.8"/>
		<polygon class="st0" points="19.6,235.3 19.6,245.1 19.6,254.9 29.4,254.9 29.4,245.1 29.4,235.3 		"/>
		<polygon class="st1" points="29.4,225.5 19.6,225.5 19.6,235.3 29.4,235.3 39.2,235.3 39.2,225.5 		"/>
		<polygon class="st0" points="19.6,205.9 19.6,215.7 19.6,225.5 29.4,225.5 29.4,215.7 29.4,205.9 		"/>
		<polygon class="st0" points="19.6,176.5 19.6,186.3 19.6,196.1 29.4,196.1 29.4,186.3 29.4,176.5 		"/>
		<polygon class="st1" points="29.4,166.7 19.6,166.7 19.6,176.5 29.4,176.5 39.2,176.5 39.2,166.7 		"/>
		<polygon class="st0" points="19.6,147.1 19.6,156.9 19.6,166.7 29.4,166.7 29.4,156.9 29.4,147.1 		"/>
		<rect x="19.6" y="127.4" class="st0" width="9.8" height="9.8"/>
		<polygon class="st1" points="29.4,254.9 19.6,254.9 9.8,254.9 9.8,264.7 19.6,264.7 29.4,264.7 39.2,264.7 39.2,254.9 		"/>
		<polygon class="st1" points="29.4,196.1 19.6,196.1 9.8,196.1 9.8,205.9 19.6,205.9 29.4,205.9 39.2,205.9 39.2,196.1 		"/>
		<polygon class="st1" points="29.4,137.3 19.6,137.3 9.8,137.3 9.8,147.1 19.6,147.1 29.4,147.1 39.2,147.1 39.2,137.3 		"/>
		<polygon points="19.6,0 9.8,0 9.8,9.8 19.6,9.8 29.4,9.8 29.4,0 		"/>
		<polygon class="st4" points="29.4,245.1 29.4,254.9 39.2,254.9 39.2,245.1 39.2,235.3 29.4,235.3 		"/>
		<polygon class="st4" points="29.4,215.7 29.4,225.5 39.2,225.5 39.2,215.7 39.2,205.9 29.4,205.9 		"/>
		<polygon class="st4" points="29.4,186.3 29.4,196.1 39.2,196.1 39.2,186.3 39.2,176.5 29.4,176.5 		"/>
		<polygon class="st4" points="29.4,156.9 29.4,166.7 39.2,166.7 39.2,156.9 39.2,147.1 29.4,147.1 		"/>
		<polygon class="st4" points="29.4,117.7 29.4,107.8 29.4,98 29.4,88.2 29.4,78.4 29.4,68.6 29.4,58.8 29.4,49 29.4,39.2 
			29.4,29.4 29.4,19.6 29.4,9.8 19.6,9.8 9.8,9.8 9.8,19.6 9.8,29.4 9.8,39.2 9.8,49 9.8,58.8 9.8,68.6 9.8,78.4 9.8,88.2 9.8,98 
			9.8,107.8 9.8,117.7 0,117.7 0,127.4 0,137.3 0,147.1 0,156.9 0,166.7 0,176.5 0,186.3 0,196.1 0,205.9 0,215.7 0,225.5 0,235.3 
			0,245.1 0,254.9 0,264.7 0,274.5 0,284.3 9.8,284.3 9.8,294.1 19.6,294.1 29.4,294.1 29.4,284.3 39.2,284.3 39.2,274.5 
			39.2,264.7 29.4,264.7 29.4,274.5 19.6,274.5 19.6,264.7 9.8,264.7 9.8,254.9 19.6,254.9 19.6,245.1 19.6,235.3 19.6,225.5 
			19.6,215.7 19.6,205.9 9.8,205.9 9.8,196.1 19.6,196.1 19.6,186.3 19.6,176.5 19.6,166.7 19.6,156.9 19.6,147.1 9.8,147.1 
			9.8,137.3 19.6,137.3 19.6,127.4 29.4,127.4 29.4,137.3 39.2,137.3 39.2,127.4 39.2,117.7 		"/>
	</g>
</g>
<rect x="647.6" y="42.6" class="st0" width="9.8" height="94.7"/>
<g id="Слой_2_6_">
	<g id="Слой_1-2_13_">
		<rect x="333.9" y="264.7" class="st0" width="9.8" height="9.8"/>
		<polygon class="st0" points="333.9,235.3 333.9,245.1 333.9,254.9 343.7,254.9 343.7,245.1 343.7,235.3 		"/>
		<polygon class="st1" points="343.7,225.5 333.9,225.5 333.9,235.3 343.7,235.3 353.5,235.3 353.5,225.5 		"/>
		<polygon class="st0" points="333.9,205.9 333.9,215.7 333.9,225.5 343.7,225.5 343.7,215.7 343.7,205.9 		"/>
		<polygon class="st0" points="333.9,176.5 333.9,186.3 333.9,196.1 343.7,196.1 343.7,186.3 343.7,176.5 		"/>
		<polygon class="st1" points="343.7,166.7 333.9,166.7 333.9,176.5 343.7,176.5 353.5,176.5 353.5,166.7 		"/>
		<polygon class="st0" points="333.9,147.1 333.9,156.9 333.9,166.7 343.7,166.7 343.7,156.9 343.7,147.1 		"/>
		<polygon class="st1" points="343.7,254.9 333.9,254.9 324.1,254.9 324.1,264.7 333.9,264.7 343.7,264.7 353.5,264.7 353.5,254.9 
					"/>
		<polygon class="st1" points="343.7,196.1 333.9,196.1 324.1,196.1 324.1,205.9 333.9,205.9 343.7,205.9 353.5,205.9 353.5,196.1 
					"/>
		<polygon class="st1" points="343.7,137.3 333.9,137.3 324.1,137.3 324.1,147.1 333.9,147.1 343.7,147.1 353.5,147.1 353.5,137.3 
					"/>
		<polygon points="333.9,0 324.1,0 324.1,9.8 333.9,9.8 343.7,9.8 343.7,0 		"/>
		<polygon class="st4" points="343.7,245.1 343.7,254.9 353.5,254.9 353.5,245.1 353.5,235.3 343.7,235.3 		"/>
		<polygon class="st4" points="343.7,215.7 343.7,225.5 353.5,225.5 353.5,215.7 353.5,205.9 343.7,205.9 		"/>
		<polygon class="st4" points="343.7,186.3 343.7,196.1 353.5,196.1 353.5,186.3 353.5,176.5 343.7,176.5 		"/>
		<polygon class="st4" points="343.7,156.9 343.7,166.7 353.5,166.7 353.5,156.9 353.5,147.1 343.7,147.1 		"/>
		<polygon class="st4" points="343.7,117.7 343.7,107.8 343.7,98 343.7,88.2 343.7,78.4 343.7,68.6 343.7,58.8 343.7,49 343.7,39.2 
			343.7,29.4 343.7,19.6 343.7,9.8 333.9,9.8 324.1,9.8 324.1,19.6 324.1,29.4 324.1,39.2 324.1,49 324.1,58.8 324.1,68.6 
			324.1,78.4 324.1,88.2 324.1,98 324.1,107.8 324.1,117.7 314.3,117.7 314.3,127.4 314.3,137.3 314.3,147.1 314.3,156.9 
			314.3,166.7 314.3,176.5 314.3,186.3 314.3,196.1 314.3,205.9 314.3,215.7 314.3,225.5 314.3,235.3 314.3,245.1 314.3,254.9 
			314.3,264.7 314.3,274.5 314.3,284.3 324.1,284.3 324.1,294.1 333.9,294.1 343.7,294.1 343.7,284.3 353.5,284.3 353.5,274.5 
			353.5,264.7 343.7,264.7 343.7,274.5 333.9,274.5 333.9,264.7 324.1,264.7 324.1,254.9 333.9,254.9 333.9,245.1 333.9,235.3 
			333.9,225.5 333.9,215.7 333.9,205.9 324.1,205.9 324.1,196.1 333.9,196.1 333.9,186.3 333.9,176.5 333.9,166.7 333.9,156.9 
			333.9,147.1 324.1,147.1 324.1,137.3 333.9,137.3 333.9,127.4 343.7,127.4 343.7,137.3 353.5,137.3 353.5,127.4 353.5,117.7 		"/>
		<rect x="333.9" y="30.6" class="st0" width="9.8" height="106.7"/>
	</g>
</g>
<rect x="294.7" y="264.7" class="st0" width="9.8" height="9.8"/>
<polygon class="st0" points="294.7,235.3 294.7,245.1 294.7,254.9 304.5,254.9 304.5,245.1 304.5,235.3 "/>
<polygon class="st1" points="304.5,225.5 294.7,225.5 294.7,235.3 304.5,235.3 314.3,235.3 314.3,225.5 "/>
<polygon class="st0" points="294.7,205.9 294.7,215.7 294.7,225.5 304.5,225.5 304.5,215.7 304.5,205.9 "/>
<polygon class="st0" points="294.7,176.5 294.7,186.3 294.7,196.1 304.5,196.1 304.5,186.3 304.5,176.5 "/>
<polygon class="st1" points="304.5,166.7 294.7,166.7 294.7,176.5 304.5,176.5 314.3,176.5 314.3,166.7 "/>
<polygon class="st0" points="294.7,147.1 294.7,156.9 294.7,166.7 304.5,166.7 304.5,156.9 304.5,147.1 "/>
<polygon class="st1" points="304.5,254.9 294.7,254.9 284.9,254.9 284.9,264.7 294.7,264.7 304.5,264.7 314.3,264.7 314.3,254.9 "/>
<polygon class="st1" points="304.5,196.1 294.7,196.1 284.9,196.1 284.9,205.9 294.7,205.9 304.5,205.9 314.3,205.9 314.3,196.1 "/>
<polygon class="st1" points="304.5,137.3 294.7,137.3 284.9,137.3 284.9,147.1 294.7,147.1 304.5,147.1 314.3,147.1 314.3,137.3 "/>
<polygon points="294.7,0 284.9,0 284.9,9.8 294.7,9.8 304.5,9.8 304.5,0 "/>
<polygon class="st4" points="304.5,245.1 304.5,254.9 314.3,254.9 314.3,245.1 314.3,235.3 304.5,235.3 "/>
<polygon class="st4" points="304.5,215.7 304.5,225.5 314.3,225.5 314.3,215.7 314.3,205.9 304.5,205.9 "/>
<polygon class="st4" points="304.5,186.3 304.5,196.1 314.3,196.1 314.3,186.3 314.3,176.5 304.5,176.5 "/>
<polygon class="st4" points="304.5,156.9 304.5,166.7 314.3,166.7 314.3,156.9 314.3,147.1 304.5,147.1 "/>
<polygon class="st4" points="304.5,117.7 304.5,107.8 304.5,98 304.5,88.2 304.5,78.4 304.5,68.6 304.5,58.8 304.5,49 304.5,39.2 
	304.5,29.4 304.5,19.6 304.5,9.8 294.7,9.8 284.9,9.8 284.9,19.6 284.9,29.4 284.9,39.2 284.9,49 284.9,58.8 284.9,68.6 284.9,78.4 
	284.9,88.2 284.9,98 284.9,107.8 284.9,117.7 275.1,117.7 275.1,127.4 275.1,137.3 275.1,147.1 275.1,156.9 275.1,166.7 
	275.1,176.5 275.1,186.3 275.1,196.1 275.1,205.9 275.1,215.7 275.1,225.5 275.1,235.3 275.1,245.1 275.1,254.9 275.1,264.7 
	275.1,274.5 275.1,284.3 284.9,284.3 284.9,294.1 294.7,294.1 304.5,294.1 304.5,284.3 314.3,284.3 314.3,274.5 314.3,264.7 
	304.5,264.7 304.5,274.5 294.7,274.5 294.7,264.7 284.9,264.7 284.9,254.9 294.7,254.9 294.7,245.1 294.7,235.3 294.7,225.5 
	294.7,215.7 294.7,205.9 284.9,205.9 284.9,196.1 294.7,196.1 294.7,186.3 294.7,176.5 294.7,166.7 294.7,156.9 294.7,147.1 
	284.9,147.1 284.9,137.3 294.7,137.3 294.7,127.4 304.5,127.4 304.5,137.3 314.3,137.3 314.3,127.4 314.3,117.7 "/>
<g id="Слой_1-2_9_">
	<rect x="686.8" y="264.7" class="st0" width="9.8" height="9.8"/>
	<polygon class="st0" points="686.8,235.3 686.8,245.1 686.8,254.9 696.6,254.9 696.6,245.1 696.6,235.3 	"/>
	<polygon class="st1" points="696.6,225.5 686.8,225.5 686.8,235.3 696.6,235.3 706.4,235.3 706.4,225.5 	"/>
	<polygon class="st0" points="686.8,205.9 686.8,215.7 686.8,225.5 696.6,225.5 696.6,215.7 696.6,205.9 	"/>
	<polygon class="st0" points="686.8,176.5 686.8,186.3 686.8,196.1 696.6,196.1 696.6,186.3 696.6,176.5 	"/>
	<polygon class="st1" points="696.6,166.7 686.8,166.7 686.8,176.5 696.6,176.5 706.4,176.5 706.4,166.7 	"/>
	<polygon class="st0" points="686.8,147.1 686.8,156.9 686.8,166.7 696.6,166.7 696.6,156.9 696.6,147.1 	"/>
	<polygon class="st1" points="696.6,254.9 686.8,254.9 677,254.9 677,264.7 686.8,264.7 696.6,264.7 706.4,264.7 706.4,254.9 	"/>
	<polygon class="st1" points="696.6,196.1 686.8,196.1 677,196.1 677,205.9 686.8,205.9 696.6,205.9 706.4,205.9 706.4,196.1 	"/>
	<polygon class="st1" points="696.6,137.3 686.8,137.3 677,137.3 677,147.1 686.8,147.1 696.6,147.1 706.4,147.1 706.4,137.3 	"/>
	<polygon points="686.8,0 677,0 677,9.8 686.8,9.8 696.6,9.8 696.6,0 	"/>
	<polygon class="st4" points="696.6,245.1 696.6,254.9 706.4,254.9 706.4,245.1 706.4,235.3 696.6,235.3 	"/>
	<polygon class="st4" points="696.6,215.7 696.6,225.5 706.4,225.5 706.4,215.7 706.4,205.9 696.6,205.9 	"/>
	<polygon class="st4" points="696.6,186.3 696.6,196.1 706.4,196.1 706.4,186.3 706.4,176.5 696.6,176.5 	"/>
	<polygon class="st4" points="696.6,156.9 696.6,166.7 706.4,166.7 706.4,156.9 706.4,147.1 696.6,147.1 	"/>
	<polygon class="st4" points="696.6,117.7 696.6,107.8 696.6,98 696.6,88.2 696.6,78.4 696.6,68.6 696.6,58.8 696.6,49 696.6,39.2 
		696.6,29.4 696.6,19.6 696.6,9.8 686.8,9.8 677,9.8 677,19.6 677,29.4 677,39.2 677,49 677,58.8 677,68.6 677,78.4 677,88.2 
		677,98 677,107.8 677,117.7 667.2,117.7 667.2,127.4 667.2,137.3 667.2,147.1 667.2,156.9 667.2,166.7 667.2,176.5 667.2,186.3 
		667.2,196.1 667.2,205.9 667.2,215.7 667.2,225.5 667.2,235.3 667.2,245.1 667.2,254.9 667.2,264.7 667.2,274.5 667.2,284.3 
		677,284.3 677,294.1 686.8,294.1 696.6,294.1 696.6,284.3 706.4,284.3 706.4,274.5 706.4,264.7 696.6,264.7 696.6,274.5 
		686.8,274.5 686.8,264.7 677,264.7 677,254.9 686.8,254.9 686.8,245.1 686.8,235.3 686.8,225.5 686.8,215.7 686.8,205.9 677,205.9 
		677,196.1 686.8,196.1 686.8,186.3 686.8,176.5 686.8,166.7 686.8,156.9 686.8,147.1 677,147.1 677,137.3 686.8,137.3 686.8,127.4 
		696.6,127.4 696.6,137.3 706.4,137.3 706.4,127.4 706.4,117.7 	"/>
	<rect x="686.8" y="56.7" class="st0" width="9.8" height="80.6"/>
</g>
<g id="Слой_1-2_17_">
	<rect x="765.2" y="264.7" class="st0" width="9.8" height="9.8"/>
	<polygon class="st0" points="765.2,235.3 765.2,245.1 765.2,254.9 775,254.9 775,245.1 775,235.3 	"/>
	<polygon class="st1" points="775,225.5 765.2,225.5 765.2,235.3 775,235.3 784.8,235.3 784.8,225.5 	"/>
	<polygon class="st0" points="765.2,205.9 765.2,215.7 765.2,225.5 775,225.5 775,215.7 775,205.9 	"/>
	<polygon class="st0" points="765.2,176.5 765.2,186.3 765.2,196.1 775,196.1 775,186.3 775,176.5 	"/>
	<polygon class="st1" points="775,166.7 765.2,166.7 765.2,176.5 775,176.5 784.8,176.5 784.8,166.7 	"/>
	<polygon class="st0" points="765.2,147.1 765.2,156.9 765.2,166.7 775,166.7 775,156.9 775,147.1 	"/>
	<polygon class="st1" points="775,254.9 765.2,254.9 755.4,254.9 755.4,264.7 765.2,264.7 775,264.7 784.8,264.7 784.8,254.9 	"/>
	<polygon class="st1" points="775,196.1 765.2,196.1 755.4,196.1 755.4,205.9 765.2,205.9 775,205.9 784.8,205.9 784.8,196.1 	"/>
	<polygon class="st1" points="775,137.3 765.2,137.3 755.4,137.3 755.4,147.1 765.2,147.1 775,147.1 784.8,147.1 784.8,137.3 	"/>
	<polygon points="765.2,0 755.4,0 755.4,9.8 765.2,9.8 775,9.8 775,0 	"/>
	<polygon class="st4" points="775,245.1 775,254.9 784.8,254.9 784.8,245.1 784.8,235.3 775,235.3 	"/>
	<polygon class="st4" points="775,215.7 775,225.5 784.8,225.5 784.8,215.7 784.8,205.9 775,205.9 	"/>
	<polygon class="st4" points="775,186.3 775,196.1 784.8,196.1 784.8,186.3 784.8,176.5 775,176.5 	"/>
	<polygon class="st4" points="775,156.9 775,166.7 784.8,166.7 784.8,156.9 784.8,147.1 775,147.1 	"/>
	<polygon class="st4" points="775,117.7 775,107.8 775,98 775,88.2 775,78.4 775,68.6 775,58.8 775,49 775,39.2 775,29.4 775,19.6 
		775,9.8 765.2,9.8 755.4,9.8 755.4,19.6 755.4,29.4 755.4,39.2 755.4,49 755.4,58.8 755.4,68.6 755.4,78.4 755.4,88.2 755.4,98 
		755.4,107.8 755.4,117.7 745.6,117.7 745.6,127.4 745.6,137.3 745.6,147.1 745.6,156.9 745.6,166.7 745.6,176.5 745.6,186.3 
		745.6,196.1 745.6,205.9 745.6,215.7 745.6,225.5 745.6,235.3 745.6,245.1 745.6,254.9 745.6,264.7 745.6,274.5 745.6,284.3 
		755.4,284.3 755.4,294.1 765.2,294.1 775,294.1 775,284.3 784.8,284.3 784.8,274.5 784.8,264.7 775,264.7 775,274.5 765.2,274.5 
		765.2,264.7 755.4,264.7 755.4,254.9 765.2,254.9 765.2,245.1 765.2,235.3 765.2,225.5 765.2,215.7 765.2,205.9 755.4,205.9 
		755.4,196.1 765.2,196.1 765.2,186.3 765.2,176.5 765.2,166.7 765.2,156.9 765.2,147.1 755.4,147.1 755.4,137.3 765.2,137.3 
		765.2,127.4 775,127.4 775,137.3 784.8,137.3 784.8,127.4 784.8,117.7 	"/>
	<rect x="765.2" y="83.5" class="st0" width="9.8" height="53.7"/>
</g>
<g id="Слой_1-2_8_">
	<rect x="216.3" y="264.7" class="st0" width="9.8" height="9.8"/>
	<polygon class="st0" points="216.3,235.3 216.3,245.1 216.3,254.9 226.1,254.9 226.1,245.1 226.1,235.3 	"/>
	<polygon class="st1" points="226.1,225.5 216.3,225.5 216.3,235.3 226.1,235.3 235.9,235.3 235.9,225.5 	"/>
	<polygon class="st0" points="216.3,205.9 216.3,215.7 216.3,225.5 226.1,225.5 226.1,215.7 226.1,205.9 	"/>
	<polygon class="st0" points="216.3,176.5 216.3,186.3 216.3,196.1 226.1,196.1 226.1,186.3 226.1,176.5 	"/>
	<polygon class="st1" points="226.1,166.7 216.3,166.7 216.3,176.5 226.1,176.5 235.9,176.5 235.9,166.7 	"/>
	<polygon class="st0" points="216.3,147.1 216.3,156.9 216.3,166.7 226.1,166.7 226.1,156.9 226.1,147.1 	"/>
	<polygon class="st1" points="226.1,254.9 216.3,254.9 206.5,254.9 206.5,264.7 216.3,264.7 226.1,264.7 235.9,264.7 235.9,254.9 	
		"/>
	<polygon class="st1" points="226.1,196.1 216.3,196.1 206.5,196.1 206.5,205.9 216.3,205.9 226.1,205.9 235.9,205.9 235.9,196.1 	
		"/>
	<polygon class="st1" points="226.1,137.3 216.3,137.3 206.5,137.3 206.5,147.1 216.3,147.1 226.1,147.1 235.9,147.1 235.9,137.3 	
		"/>
	<polygon points="216.3,0 206.5,0 206.5,9.8 216.3,9.8 226.1,9.8 226.1,0 	"/>
	<polygon class="st4" points="226.1,245.1 226.1,254.9 235.9,254.9 235.9,245.1 235.9,235.3 226.1,235.3 	"/>
	<polygon class="st4" points="226.1,215.7 226.1,225.5 235.9,225.5 235.9,215.7 235.9,205.9 226.1,205.9 	"/>
	<polygon class="st4" points="226.1,186.3 226.1,196.1 235.9,196.1 235.9,186.3 235.9,176.5 226.1,176.5 	"/>
	<polygon class="st4" points="226.1,156.9 226.1,166.7 235.9,166.7 235.9,156.9 235.9,147.1 226.1,147.1 	"/>
	<polygon class="st4" points="226.1,117.7 226.1,107.8 226.1,98 226.1,88.2 226.1,78.4 226.1,68.6 226.1,58.8 226.1,49 226.1,39.2 
		226.1,29.4 226.1,19.6 226.1,9.8 216.3,9.8 206.5,9.8 206.5,19.6 206.5,29.4 206.5,39.2 206.5,49 206.5,58.8 206.5,68.6 
		206.5,78.4 206.5,88.2 206.5,98 206.5,107.8 206.5,117.7 196.7,117.7 196.7,127.4 196.7,137.3 196.7,147.1 196.7,156.9 
		196.7,166.7 196.7,176.5 196.7,186.3 196.7,196.1 196.7,205.9 196.7,215.7 196.7,225.5 196.7,235.3 196.7,245.1 196.7,254.9 
		196.7,264.7 196.7,274.5 196.7,284.3 206.5,284.3 206.5,294.1 216.3,294.1 226.1,294.1 226.1,284.3 235.9,284.3 235.9,274.5 
		235.9,264.7 226.1,264.7 226.1,274.5 216.3,274.5 216.3,264.7 206.5,264.7 206.5,254.9 216.3,254.9 216.3,245.1 216.3,235.3 
		216.3,225.5 216.3,215.7 216.3,205.9 206.5,205.9 206.5,196.1 216.3,196.1 216.3,186.3 216.3,176.5 216.3,166.7 216.3,156.9 
		216.3,147.1 206.5,147.1 206.5,137.3 216.3,137.3 216.3,127.4 226.1,127.4 226.1,137.3 235.9,137.3 235.9,127.4 235.9,117.7 	"/>
	<rect x="216.3" y="71.2" class="st0" width="9.8" height="66.1"/>
</g>
<g id="Слой_1-2_4_">
	<rect x="177.1" y="264.7" class="st0" width="9.8" height="9.8"/>
	<polygon class="st0" points="177.1,235.3 177.1,245.1 177.1,254.9 186.9,254.9 186.9,245.1 186.9,235.3 	"/>
	<polygon class="st1" points="186.9,225.5 177.1,225.5 177.1,235.3 186.9,235.3 196.7,235.3 196.7,225.5 	"/>
	<polygon class="st0" points="177.1,205.9 177.1,215.7 177.1,225.5 186.9,225.5 186.9,215.7 186.9,205.9 	"/>
	<polygon class="st0" points="177.1,176.5 177.1,186.3 177.1,196.1 186.9,196.1 186.9,186.3 186.9,176.5 	"/>
	<polygon class="st1" points="186.9,166.7 177.1,166.7 177.1,176.5 186.9,176.5 196.7,176.5 196.7,166.7 	"/>
	<polygon class="st0" points="177.1,147.1 177.1,156.9 177.1,166.7 186.9,166.7 186.9,156.9 186.9,147.1 	"/>
	<polygon class="st1" points="186.9,254.9 177.1,254.9 167.3,254.9 167.3,264.7 177.1,264.7 186.9,264.7 196.7,264.7 196.7,254.9 	
		"/>
	<polygon class="st1" points="186.9,196.1 177.1,196.1 167.3,196.1 167.3,205.9 177.1,205.9 186.9,205.9 196.7,205.9 196.7,196.1 	
		"/>
	<polygon class="st1" points="186.9,137.3 177.1,137.3 167.3,137.3 167.3,147.1 177.1,147.1 186.9,147.1 196.7,147.1 196.7,137.3 	
		"/>
	<polygon points="177.1,0 167.3,0 167.3,9.8 177.1,9.8 186.9,9.8 186.9,0 	"/>
	<polygon class="st4" points="186.9,245.1 186.9,254.9 196.7,254.9 196.7,245.1 196.7,235.3 186.9,235.3 	"/>
	<polygon class="st4" points="186.9,215.7 186.9,225.5 196.7,225.5 196.7,215.7 196.7,205.9 186.9,205.9 	"/>
	<polygon class="st4" points="186.9,186.3 186.9,196.1 196.7,196.1 196.7,186.3 196.7,176.5 186.9,176.5 	"/>
	<polygon class="st4" points="186.9,156.9 186.9,166.7 196.7,166.7 196.7,156.9 196.7,147.1 186.9,147.1 	"/>
	<polygon class="st4" points="186.9,117.7 186.9,107.8 186.9,98 186.9,88.2 186.9,78.4 186.9,68.6 186.9,58.8 186.9,49 186.9,39.2 
		186.9,29.4 186.9,19.6 186.9,9.8 177.1,9.8 167.3,9.8 167.3,19.6 167.3,29.4 167.3,39.2 167.3,49 167.3,58.8 167.3,68.6 
		167.3,78.4 167.3,88.2 167.3,98 167.3,107.8 167.3,117.7 157.5,117.7 157.5,127.4 157.5,137.3 157.5,147.1 157.5,156.9 
		157.5,166.7 157.5,176.5 157.5,186.3 157.5,196.1 157.5,205.9 157.5,215.7 157.5,225.5 157.5,235.3 157.5,245.1 157.5,254.9 
		157.5,264.7 157.5,274.5 157.5,284.3 167.3,284.3 167.3,294.1 177.1,294.1 186.9,294.1 186.9,284.3 196.7,284.3 196.7,274.5 
		196.7,264.7 186.9,264.7 186.9,274.5 177.1,274.5 177.1,264.7 167.3,264.7 167.3,254.9 177.1,254.9 177.1,245.1 177.1,235.3 
		177.1,225.5 177.1,215.7 177.1,205.9 167.3,205.9 167.3,196.1 177.1,196.1 177.1,186.3 177.1,176.5 177.1,166.7 177.1,156.9 
		177.1,147.1 167.3,147.1 167.3,137.3 177.1,137.3 177.1,127.4 186.9,127.4 186.9,137.3 196.7,137.3 196.7,127.4 196.7,117.7 	"/>
	<rect x="177.1" y="83.5" class="st0" width="9.8" height="53.7"/>
</g>
<g id="Слой_1-2_12_">
	<rect x="255.5" y="264.7" class="st0" width="9.8" height="9.8"/>
	<polygon class="st0" points="255.5,235.3 255.5,245.1 255.5,254.9 265.3,254.9 265.3,245.1 265.3,235.3 	"/>
	<polygon class="st1" points="265.3,225.5 255.5,225.5 255.5,235.3 265.3,235.3 275.1,235.3 275.1,225.5 	"/>
	<polygon class="st0" points="255.5,205.9 255.5,215.7 255.5,225.5 265.3,225.5 265.3,215.7 265.3,205.9 	"/>
	<polygon class="st0" points="255.5,176.5 255.5,186.3 255.5,196.1 265.3,196.1 265.3,186.3 265.3,176.5 	"/>
	<polygon class="st1" points="265.3,166.7 255.5,166.7 255.5,176.5 265.3,176.5 275.1,176.5 275.1,166.7 	"/>
	<polygon class="st0" points="255.5,147.1 255.5,156.9 255.5,166.7 265.3,166.7 265.3,156.9 265.3,147.1 	"/>
	<polygon class="st1" points="265.3,254.9 255.5,254.9 245.7,254.9 245.7,264.7 255.5,264.7 265.3,264.7 275.1,264.7 275.1,254.9 	
		"/>
	<polygon class="st1" points="265.3,196.1 255.5,196.1 245.7,196.1 245.7,205.9 255.5,205.9 265.3,205.9 275.1,205.9 275.1,196.1 	
		"/>
	<polygon class="st1" points="265.3,137.3 255.5,137.3 245.7,137.3 245.7,147.1 255.5,147.1 265.3,147.1 275.1,147.1 275.1,137.3 	
		"/>
	<polygon points="255.5,0 245.7,0 245.7,9.8 255.5,9.8 265.3,9.8 265.3,0 	"/>
	<polygon class="st4" points="265.3,245.1 265.3,254.9 275.1,254.9 275.1,245.1 275.1,235.3 265.3,235.3 	"/>
	<polygon class="st4" points="265.3,215.7 265.3,225.5 275.1,225.5 275.1,215.7 275.1,205.9 265.3,205.9 	"/>
	<polygon class="st4" points="265.3,186.3 265.3,196.1 275.1,196.1 275.1,186.3 275.1,176.5 265.3,176.5 	"/>
	<polygon class="st4" points="265.3,156.9 265.3,166.7 275.1,166.7 275.1,156.9 275.1,147.1 265.3,147.1 	"/>
	<polygon class="st4" points="265.3,117.7 265.3,107.8 265.3,98 265.3,88.2 265.3,78.4 265.3,68.6 265.3,58.8 265.3,49 265.3,39.2 
		265.3,29.4 265.3,19.6 265.3,9.8 255.5,9.8 245.7,9.8 245.7,19.6 245.7,29.4 245.7,39.2 245.7,49 245.7,58.8 245.7,68.6 
		245.7,78.4 245.7,88.2 245.7,98 245.7,107.8 245.7,117.7 235.9,117.7 235.9,127.4 235.9,137.3 235.9,147.1 235.9,156.9 
		235.9,166.7 235.9,176.5 235.9,186.3 235.9,196.1 235.9,205.9 235.9,215.7 235.9,225.5 235.9,235.3 235.9,245.1 235.9,254.9 
		235.9,264.7 235.9,274.5 235.9,284.3 245.7,284.3 245.7,294.1 255.5,294.1 265.3,294.1 265.3,284.3 275.1,284.3 275.1,274.5 
		275.1,264.7 265.3,264.7 265.3,274.5 255.5,274.5 255.5,264.7 245.7,264.7 245.7,254.9 255.5,254.9 255.5,245.1 255.5,235.3 
		255.5,225.5 255.5,215.7 255.5,205.9 245.7,205.9 245.7,196.1 255.5,196.1 255.5,186.3 255.5,176.5 255.5,166.7 255.5,156.9 
		255.5,147.1 245.7,147.1 245.7,137.3 255.5,137.3 255.5,127.4 265.3,127.4 265.3,137.3 275.1,137.3 275.1,127.4 275.1,117.7 	"/>
	<rect x="255.5" y="56.7" class="st0" width="9.8" height="80.6"/>
</g>
<rect x="294.7" y="42.6" class="st0" width="9.8" height="94.7"/>
</svg>
