<svg xmlns="http://www.w3.org/2000/svg" viewBox="0 0 39.21 294.12"><defs><style>.cls-1{fill:#af0000;}.cls-2{fill:#050505;}.cls-3{fill:#fcfcfc;}</style></defs><g id="Слой_2" data-name="Слой 2"><g id="Слой_1-2" data-name="Слой 1"><rect class="cls-1" x="19.61" y="264.71" width="9.8" height="9.8"/><polygon class="cls-1" points="19.61 235.3 19.61 245.1 19.61 254.91 29.41 254.91 29.41 245.1 29.41 235.3 19.61 235.3"/><polygon class="cls-2" points="29.41 225.49 19.61 225.49 19.61 235.3 29.41 235.3 39.21 235.3 39.21 225.49 29.41 225.49"/><polygon class="cls-1" points="19.61 205.89 19.61 215.69 19.61 225.49 29.41 225.49 29.41 215.69 29.41 205.89 19.61 205.89"/><polygon class="cls-1" points="19.61 176.47 19.61 186.28 19.61 196.08 29.41 196.08 29.41 186.28 29.41 176.47 19.61 176.47"/><polygon class="cls-2" points="29.41 166.67 19.61 166.67 19.61 176.47 29.41 176.47 39.21 176.47 39.21 166.67 29.41 166.67"/><polygon class="cls-1" points="19.61 147.06 19.61 156.87 19.61 166.67 29.41 166.67 29.41 156.87 29.41 147.06 19.61 147.06"/><rect class="cls-1" x="19.61" y="127.45" width="9.8" height="9.81"/><polygon class="cls-2" points="29.41 254.91 19.61 254.91 9.8 254.91 9.8 264.71 19.61 264.71 29.41 264.71 39.21 264.71 39.21 254.91 29.41 254.91"/><polygon class="cls-2" points="29.41 196.08 19.61 196.08 9.8 196.08 9.8 205.89 19.61 205.89 29.41 205.89 39.21 205.89 39.21 196.08 29.41 196.08"/><polygon class="cls-2" points="29.41 137.26 19.61 137.26 9.8 137.26 9.8 147.06 19.61 147.06 29.41 147.06 39.21 147.06 39.21 137.26 29.41 137.26"/><polygon points="19.61 0 9.8 0 9.8 9.81 19.61 9.81 29.41 9.81 29.41 0 19.61 0"/><polygon class="cls-3" points="29.41 245.1 29.41 254.91 39.21 254.91 39.21 245.1 39.21 235.3 29.41 235.3 29.41 245.1"/><polygon class="cls-3" points="29.41 215.69 29.41 225.49 39.21 225.49 39.21 215.69 39.21 205.89 29.41 205.89 29.41 215.69"/><polygon class="cls-3" points="29.41 186.28 29.41 196.08 39.21 196.08 39.21 186.28 39.21 176.47 29.41 176.47 29.41 186.28"/><polygon class="cls-3" points="29.41 156.87 29.41 166.67 39.21 166.67 39.21 156.87 39.21 147.06 29.41 147.06 29.41 156.87"/><polygon class="cls-3" points="29.41 117.65 29.41 107.85 29.41 98.04 29.41 88.24 29.41 78.43 29.41 68.63 29.41 58.83 29.41 49.02 29.41 39.22 29.41 29.42 29.41 19.61 29.41 9.81 19.61 9.81 9.8 9.81 9.8 19.61 9.8 29.42 9.8 39.22 9.8 49.02 9.8 58.83 9.8 68.63 9.8 78.43 9.8 88.24 9.8 98.04 9.8 107.85 9.8 117.65 0 117.65 0 127.45 0 137.26 0 147.06 0 156.87 0 166.67 0 176.47 0 186.28 0 196.08 0 205.89 0 215.69 0 225.49 0 235.3 0 245.1 0 254.91 0 264.71 0 274.51 0 284.32 9.8 284.32 9.8 294.12 19.61 294.12 29.41 294.12 29.41 284.32 39.21 284.32 39.21 274.51 39.21 264.71 29.41 264.71 29.41 274.51 19.61 274.51 19.61 264.71 9.8 264.71 9.8 254.91 19.61 254.91 19.61 245.1 19.61 235.3 19.61 225.49 19.61 215.69 19.61 205.89 9.8 205.89 9.8 196.08 19.61 196.08 19.61 186.28 19.61 176.47 19.61 166.67 19.61 156.87 19.61 147.06 9.8 147.06 9.8 137.26 19.61 137.26 19.61 127.45 29.41 127.45 29.41 137.26 39.21 137.26 39.21 127.45 39.21 117.65 29.41 117.65"/></g></g></svg>