<svg width="16" height="117" viewBox="0 0 16 117" fill="none" xmlns="http://www.w3.org/2000/svg">
<path d="M16 109.199H12.001V113.102H16V109.199Z" fill="white"/>
<path d="M16 105.301H12.001V109.199H16V105.301Z" fill="white"/>
<path d="M16 101.402H12.001V105.301H16V101.402Z" fill="#050505"/>
<path d="M16 97.5H12.001V101.402H16V97.5Z" fill="white"/>
<path d="M16 93.6016H12.001V97.5H16V93.6016Z" fill="white"/>
<path d="M16 89.6992H12.001V93.6016H16V89.6992Z" fill="#050505"/>
<path d="M16 85.8008H12.001V89.6992H16V85.8008Z" fill="white"/>
<path d="M16 81.9023H12.001V85.8008H16V81.9023Z" fill="white"/>
<path d="M16 78H12.001V81.9024H16V78Z" fill="#050505"/>
<path d="M16 74.1016H12.001V78H16V74.1016Z" fill="white"/>
<path d="M16 70.1992H12.001V74.1016H16V70.1992Z" fill="white"/>
<path d="M16 66.3008H12.001V70.1992H16V66.3008Z" fill="#050505"/>
<path d="M16 62.4023H12.001V66.3007H16V62.4023Z" fill="white"/>
<path d="M16 58.5H12.001V62.4024H16V58.5Z" fill="white"/>
<path d="M16 54.6016H12.001V58.5H16V54.6016Z" fill="#050505"/>
<path d="M16 50.6992H12.001V54.6016H16V50.6992Z" fill="white"/>
<path d="M16 46.8008H12.001V50.6992H16V46.8008Z" fill="#FCFCFC"/>
<path d="M12.0012 113.102H8.0022V117H12.0012V113.102Z" fill="white"/>
<path d="M12.0012 109.199H8.0022V113.102H12.0012V109.199Z" fill="white"/>
<path d="M12.0012 105.301H8.0022V109.199H12.0012V105.301Z" fill="#AF0000"/>
<path d="M12.0012 101.402H8.0022V105.301H12.0012V101.402Z" fill="#050505"/>
<path d="M12.0012 97.5H8.0022V101.402H12.0012V97.5Z" fill="#AF0000"/>
<path d="M12.0012 93.6016H8.0022V97.5H12.0012V93.6016Z" fill="#AF0000"/>
<path d="M12.0012 89.6992H8.0022V93.6016H12.0012V89.6992Z" fill="#050505"/>
<path d="M12.0012 85.8008H8.0022V89.6992H12.0012V85.8008Z" fill="#AF0000"/>
<path d="M12.0012 81.9023H8.0022V85.8008H12.0012V81.9023Z" fill="#AF0000"/>
<path d="M12.0012 78H8.0022V81.9024H12.0012V78Z" fill="#050505"/>
<path d="M12.0012 74.1016H8.0022V78H12.0012V74.1016Z" fill="#AF0000"/>
<path d="M12.0012 70.1992H8.0022V74.1016H12.0012V70.1992Z" fill="#AF0000"/>
<path d="M12.0012 66.3008H8.0022V70.1992H12.0012V66.3008Z" fill="#050505"/>
<path d="M12.0012 62.4023H8.0022V66.3007H12.0012V62.4023Z" fill="#AF0000"/>
<path d="M12.0012 58.5H8.0022V62.4024H12.0012V58.5Z" fill="white"/>
<path d="M12.0012 54.6016H8.0022V58.5H12.0012V54.6016Z" fill="#050505"/>
<path d="M12.0012 50.6992H8.0022V54.6016H12.0012V50.6992Z" fill="white"/>
<path d="M12.0012 46.8008H8.0022V50.6992H12.0012V46.8008Z" fill="white"/>
<path d="M12.0012 42.9023H8.0022V46.8008H12.0012V42.9023Z" fill="white"/>
<path d="M12.0012 39H8.0022V42.9024H12.0012V39Z" fill="white"/>
<path d="M12.0012 35.1016H8.0022V39H12.0012V35.1016Z" fill="white"/>
<path d="M12.0012 31.1992H8.0022V35.1016H12.0012V31.1992Z" fill="white"/>
<path d="M12.0012 27.3008H8.0022V31.1992H12.0012V27.3008Z" fill="white"/>
<path d="M12.0012 23.4023H8.0022V27.3007H12.0012V23.4023Z" fill="white"/>
<path d="M12.0012 19.5H8.0022V23.4024H12.0012V19.5Z" fill="white"/>
<path d="M12.0012 15.6016H8.0022V19.5H12.0012V15.6016Z" fill="white"/>
<path d="M12.0012 11.7031H8.0022V15.6015H12.0012V11.7031Z" fill="white"/>
<path d="M12.0012 7.80078H8.0022V11.7032H12.0012V7.80078Z" fill="white"/>
<path d="M12.0012 3.90234H8.0022V7.80075H12.0012V3.90234Z" fill="white"/>
<path d="M12.0012 0H8.0022V3.90239H12.0012V0Z" fill="black"/>
<path d="M8.00208 113.102H3.99902V117H8.00208V113.102Z" fill="white"/>
<path d="M8.00208 109.199H3.99902V113.102H8.00208V109.199Z" fill="white"/>
<path d="M8.00208 105.301H3.99902V109.199H8.00208V105.301Z" fill="white"/>
<path d="M8.00208 101.402H3.99902V105.301H8.00208V101.402Z" fill="#050505"/>
<path d="M8.00208 97.5H3.99902V101.402H8.00208V97.5Z" fill="white"/>
<path d="M8.00208 93.6016H3.99902V97.5H8.00208V93.6016Z" fill="white"/>
<path d="M8.00208 89.6992H3.99902V93.6016H8.00208V89.6992Z" fill="white"/>
<path d="M8.00208 85.8008H3.99902V89.6992H8.00208V85.8008Z" fill="white"/>
<path d="M8.00208 81.9023H3.99902V85.8008H8.00208V81.9023Z" fill="white"/>
<path d="M8.00208 78H3.99902V81.9024H8.00208V78Z" fill="#050505"/>
<path d="M8.00208 74.1016H3.99902V78H8.00208V74.1016Z" fill="white"/>
<path d="M8.00208 70.1992H3.99902V74.1016H8.00208V70.1992Z" fill="white"/>
<path d="M8.00208 66.3008H3.99902V70.1992H8.00208V66.3008Z" fill="white"/>
<path d="M8.00208 62.4023H3.99902V66.3007H8.00208V62.4023Z" fill="white"/>
<path d="M8.00208 58.5H3.99902V62.4024H8.00208V58.5Z" fill="white"/>
<path d="M8.00208 54.6016H3.99902V58.5H8.00208V54.6016Z" fill="#050505"/>
<path d="M8.00208 50.6992H3.99902V54.6016H8.00208V50.6992Z" fill="white"/>
<path d="M8.00208 46.8008H3.99902V50.6992H8.00208V46.8008Z" fill="white"/>
<path d="M8.00208 42.9023H3.99902V46.8008H8.00208V42.9023Z" fill="white"/>
<path d="M8.00208 39H3.99902V42.9024H8.00208V39Z" fill="white"/>
<path d="M8.00208 35.1016H3.99902V39H8.00208V35.1016Z" fill="white"/>
<path d="M8.00208 31.1992H3.99902V35.1016H8.00208V31.1992Z" fill="white"/>
<path d="M8.00208 27.3008H3.99902V31.1992H8.00208V27.3008Z" fill="white"/>
<path d="M8.00208 23.4023H3.99902V27.3007H8.00208V23.4023Z" fill="white"/>
<path d="M8.00208 19.5H3.99902V23.4024H8.00208V19.5Z" fill="white"/>
<path d="M8.00208 15.6016H3.99902V19.5H8.00208V15.6016Z" fill="white"/>
<path d="M8.00208 11.7031H3.99902V15.6015H8.00208V11.7031Z" fill="white"/>
<path d="M8.00208 7.80078H3.99902V11.7032H8.00208V7.80078Z" fill="white"/>
<path d="M8.00208 3.90234H3.99902V7.80075H8.00208V3.90234Z" fill="white"/>
<path d="M8.00208 0H3.99902V3.90239H8.00208V0Z" fill="black"/>
<path d="M3.99898 109.199H0V113.102H3.99898V109.199Z" fill="white"/>
<path d="M3.99898 105.301H0V109.199H3.99898V105.301Z" fill="white"/>
<path d="M3.99898 101.402H0V105.301H3.99898V101.402Z" fill="white"/>
<path d="M3.99898 97.5H0V101.402H3.99898V97.5Z" fill="white"/>
<path d="M3.99898 93.6016H0V97.5H3.99898V93.6016Z" fill="white"/>
<path d="M3.99898 89.6992H0V93.6016H3.99898V89.6992Z" fill="white"/>
<path d="M3.99898 85.8008H0V89.6992H3.99898V85.8008Z" fill="white"/>
<path d="M3.99898 81.9023H0V85.8008H3.99898V81.9023Z" fill="white"/>
<path d="M3.99898 78H0V81.9024H3.99898V78Z" fill="white"/>
<path d="M3.99898 74.1016H0V78H3.99898V74.1016Z" fill="white"/>
<path d="M3.99898 70.1992H0V74.1016H3.99898V70.1992Z" fill="white"/>
<path d="M3.99898 66.3008H0V70.1992H3.99898V66.3008Z" fill="white"/>
<path d="M3.99898 62.4023H0V66.3007H3.99898V62.4023Z" fill="white"/>
<path d="M3.99898 58.5H0V62.4024H3.99898V58.5Z" fill="white"/>
<path d="M3.99898 54.6016H0V58.5H3.99898V54.6016Z" fill="white"/>
<path d="M3.99898 50.6992H0V54.6016H3.99898V50.6992Z" fill="white"/>
<path d="M3.99898 46.8008H0V50.6992H3.99898V46.8008Z" fill="#FCFCFC"/>
</svg>
