<?xml version="1.0" encoding="utf-8"?>
<!-- Generator: Adobe Illustrator 24.1.1, SVG Export Plug-In . SVG Version: 6.00 Build 0)  -->
<svg version="1.1" id="Слой_1" xmlns="http://www.w3.org/2000/svg" xmlns:xlink="http://www.w3.org/1999/xlink" x="0px" y="0px"
	 viewBox="0 0 200.9 294.1" style="enable-background:new 0 0 200.9 294.1;" xml:space="preserve">
<style type="text/css">
	.st0{fill:#AF0000;}
	.st1{fill:#050505;}
	.st2{fill:#FCFCFC;}
</style>
<g id="Слой_1-2_6_">
	<rect x="73.5" y="264.7" class="st0" width="9.8" height="9.8"/>
	<polygon class="st0" points="73.5,235.3 73.5,245.1 73.5,254.9 83.3,254.9 83.3,245.1 83.3,235.3 	"/>
	<polygon class="st1" points="83.3,225.5 73.5,225.5 73.5,235.3 83.3,235.3 93.1,235.3 93.1,225.5 	"/>
	<polygon class="st0" points="73.5,205.9 73.5,215.7 73.5,225.5 83.3,225.5 83.3,215.7 83.3,205.9 	"/>
	<polygon class="st0" points="73.5,176.5 73.5,186.3 73.5,196.1 83.3,196.1 83.3,186.3 83.3,176.5 	"/>
	<polygon class="st1" points="83.3,166.7 73.5,166.7 73.5,176.5 83.3,176.5 93.1,176.5 93.1,166.7 	"/>
	<polygon class="st0" points="73.5,147.1 73.5,156.9 73.5,166.7 83.3,166.7 83.3,156.9 83.3,147.1 	"/>
	<polygon class="st1" points="83.3,254.9 73.5,254.9 63.7,254.9 63.7,264.7 73.5,264.7 83.3,264.7 93.1,264.7 93.1,254.9 	"/>
	<polygon class="st1" points="83.3,196.1 73.5,196.1 63.7,196.1 63.7,205.9 73.5,205.9 83.3,205.9 93.1,205.9 93.1,196.1 	"/>
	<polygon class="st1" points="83.3,137.3 73.5,137.3 63.7,137.3 63.7,147.1 73.5,147.1 83.3,147.1 93.1,147.1 93.1,137.3 	"/>
	<polygon points="73.5,0 63.7,0 63.7,9.8 73.5,9.8 83.3,9.8 83.3,0 	"/>
	<polygon class="st2" points="83.3,245.1 83.3,254.9 93.1,254.9 93.1,245.1 93.1,235.3 83.3,235.3 	"/>
	<polygon class="st2" points="83.3,215.7 83.3,225.5 93.1,225.5 93.1,215.7 93.1,205.9 83.3,205.9 	"/>
	<polygon class="st2" points="83.3,186.3 83.3,196.1 93.1,196.1 93.1,186.3 93.1,176.5 83.3,176.5 	"/>
	<polygon class="st2" points="83.3,156.9 83.3,166.7 93.1,166.7 93.1,156.9 93.1,147.1 83.3,147.1 	"/>
	<polygon class="st2" points="83.3,117.7 83.3,107.8 83.3,98 83.3,88.2 83.3,78.4 83.3,68.6 83.3,58.8 83.3,49 83.3,39.2 83.3,29.4 
		83.3,19.6 83.3,9.8 73.5,9.8 63.7,9.8 63.7,19.6 63.7,29.4 63.7,39.2 63.7,49 63.7,58.8 63.7,68.6 63.7,78.4 63.7,88.2 63.7,98 
		63.7,107.8 63.7,117.7 53.9,117.7 53.9,127.4 53.9,137.3 53.9,147.1 53.9,156.9 53.9,166.7 53.9,176.5 53.9,186.3 53.9,196.1 
		53.9,205.9 53.9,215.7 53.9,225.5 53.9,235.3 53.9,245.1 53.9,254.9 53.9,264.7 53.9,274.5 53.9,284.3 63.7,284.3 63.7,294.1 
		73.5,294.1 83.3,294.1 83.3,284.3 93.1,284.3 93.1,274.5 93.1,264.7 83.3,264.7 83.3,274.5 73.5,274.5 73.5,264.7 63.7,264.7 
		63.7,254.9 73.5,254.9 73.5,245.1 73.5,235.3 73.5,225.5 73.5,215.7 73.5,205.9 63.7,205.9 63.7,196.1 73.5,196.1 73.5,186.3 
		73.5,176.5 73.5,166.7 73.5,156.9 73.5,147.1 63.7,147.1 63.7,137.3 73.5,137.3 73.5,127.4 83.3,127.4 83.3,137.3 93.1,137.3 
		93.1,127.4 93.1,117.7 	"/>
	<rect x="73.5" y="71.2" class="st0" width="9.8" height="66.1"/>
</g>
<g id="Слой_1-2_5_">
	<rect x="181.3" y="264.7" class="st0" width="9.8" height="9.8"/>
	<polygon class="st0" points="181.3,235.3 181.3,245.1 181.3,254.9 191.1,254.9 191.1,245.1 191.1,235.3 	"/>
	<polygon class="st1" points="191.1,225.5 181.3,225.5 181.3,235.3 191.1,235.3 200.9,235.3 200.9,225.5 	"/>
	<polygon class="st0" points="181.3,205.9 181.3,215.7 181.3,225.5 191.1,225.5 191.1,215.7 191.1,205.9 	"/>
	<polygon class="st0" points="181.3,176.5 181.3,186.3 181.3,196.1 191.1,196.1 191.1,186.3 191.1,176.5 	"/>
	<polygon class="st1" points="191.1,166.7 181.3,166.7 181.3,176.5 191.1,176.5 200.9,176.5 200.9,166.7 	"/>
	<polygon class="st0" points="181.3,147.1 181.3,156.9 181.3,166.7 191.1,166.7 191.1,156.9 191.1,147.1 	"/>
	<polygon class="st1" points="191.1,254.9 181.3,254.9 171.5,254.9 171.5,264.7 181.3,264.7 191.1,264.7 200.9,264.7 200.9,254.9 	
		"/>
	<polygon class="st1" points="191.1,196.1 181.3,196.1 171.5,196.1 171.5,205.9 181.3,205.9 191.1,205.9 200.9,205.9 200.9,196.1 	
		"/>
	<polygon class="st1" points="191.1,137.3 181.3,137.3 171.5,137.3 171.5,147.1 181.3,147.1 191.1,147.1 200.9,147.1 200.9,137.3 	
		"/>
	<polygon points="181.3,0 171.5,0 171.5,9.8 181.3,9.8 191.1,9.8 191.1,0 	"/>
	<polygon class="st2" points="191.1,245.1 191.1,254.9 200.9,254.9 200.9,245.1 200.9,235.3 191.1,235.3 	"/>
	<polygon class="st2" points="191.1,215.7 191.1,225.5 200.9,225.5 200.9,215.7 200.9,205.9 191.1,205.9 	"/>
	<polygon class="st2" points="191.1,186.3 191.1,196.1 200.9,196.1 200.9,186.3 200.9,176.5 191.1,176.5 	"/>
	<polygon class="st2" points="191.1,156.9 191.1,166.7 200.9,166.7 200.9,156.9 200.9,147.1 191.1,147.1 	"/>
	<polygon class="st2" points="191.1,117.7 191.1,107.8 191.1,98 191.1,88.2 191.1,78.4 191.1,68.6 191.1,58.8 191.1,49 191.1,39.2 
		191.1,29.4 191.1,19.6 191.1,9.8 181.3,9.8 171.5,9.8 171.5,19.6 171.5,29.4 171.5,39.2 171.5,49 171.5,58.8 171.5,68.6 
		171.5,78.4 171.5,88.2 171.5,98 171.5,107.8 171.5,117.7 161.7,117.7 161.7,127.4 161.7,137.3 161.7,147.1 161.7,156.9 
		161.7,166.7 161.7,176.5 161.7,186.3 161.7,196.1 161.7,205.9 161.7,215.7 161.7,225.5 161.7,235.3 161.7,245.1 161.7,254.9 
		161.7,264.7 161.7,274.5 161.7,284.3 171.5,284.3 171.5,294.1 181.3,294.1 191.1,294.1 191.1,284.3 200.9,284.3 200.9,274.5 
		200.9,264.7 191.1,264.7 191.1,274.5 181.3,274.5 181.3,264.7 171.5,264.7 171.5,254.9 181.3,254.9 181.3,245.1 181.3,235.3 
		181.3,225.5 181.3,215.7 181.3,205.9 171.5,205.9 171.5,196.1 181.3,196.1 181.3,186.3 181.3,176.5 181.3,166.7 181.3,156.9 
		181.3,147.1 171.5,147.1 171.5,137.3 181.3,137.3 181.3,127.4 191.1,127.4 191.1,137.3 200.9,137.3 200.9,127.4 200.9,117.7 	"/>
	<rect x="181.3" y="94.5" class="st0" width="9.8" height="42.8"/>
</g>
<g id="Слой_1-2_9_">
	<rect x="19.6" y="264.7" class="st0" width="9.8" height="9.8"/>
	<polygon class="st0" points="19.6,235.3 19.6,245.1 19.6,254.9 29.4,254.9 29.4,245.1 29.4,235.3 	"/>
	<polygon class="st1" points="29.4,225.5 19.6,225.5 19.6,235.3 29.4,235.3 39.2,235.3 39.2,225.5 	"/>
	<polygon class="st0" points="19.6,205.9 19.6,215.7 19.6,225.5 29.4,225.5 29.4,215.7 29.4,205.9 	"/>
	<polygon class="st0" points="19.6,176.5 19.6,186.3 19.6,196.1 29.4,196.1 29.4,186.3 29.4,176.5 	"/>
	<polygon class="st1" points="29.4,166.7 19.6,166.7 19.6,176.5 29.4,176.5 39.2,176.5 39.2,166.7 	"/>
	<polygon class="st0" points="19.6,147.1 19.6,156.9 19.6,166.7 29.4,166.7 29.4,156.9 29.4,147.1 	"/>
	<polygon class="st1" points="29.4,254.9 19.6,254.9 9.8,254.9 9.8,264.7 19.6,264.7 29.4,264.7 39.2,264.7 39.2,254.9 	"/>
	<polygon class="st1" points="29.4,196.1 19.6,196.1 9.8,196.1 9.8,205.9 19.6,205.9 29.4,205.9 39.2,205.9 39.2,196.1 	"/>
	<polygon class="st1" points="29.4,137.3 19.6,137.3 9.8,137.3 9.8,147.1 19.6,147.1 29.4,147.1 39.2,147.1 39.2,137.3 	"/>
	<polygon points="19.6,0 9.8,0 9.8,9.8 19.6,9.8 29.4,9.8 29.4,0 	"/>
	<polygon class="st2" points="29.4,245.1 29.4,254.9 39.2,254.9 39.2,245.1 39.2,235.3 29.4,235.3 	"/>
	<polygon class="st2" points="29.4,215.7 29.4,225.5 39.2,225.5 39.2,215.7 39.2,205.9 29.4,205.9 	"/>
	<polygon class="st2" points="29.4,186.3 29.4,196.1 39.2,196.1 39.2,186.3 39.2,176.5 29.4,176.5 	"/>
	<polygon class="st2" points="29.4,156.9 29.4,166.7 39.2,166.7 39.2,156.9 39.2,147.1 29.4,147.1 	"/>
	<polygon class="st2" points="29.4,117.7 29.4,107.8 29.4,98 29.4,88.2 29.4,78.4 29.4,68.6 29.4,58.8 29.4,49 29.4,39.2 29.4,29.4 
		29.4,19.6 29.4,9.8 19.6,9.8 9.8,9.8 9.8,19.6 9.8,29.4 9.8,39.2 9.8,49 9.8,58.8 9.8,68.6 9.8,78.4 9.8,88.2 9.8,98 9.8,107.8 
		9.8,117.7 0,117.7 0,127.4 0,137.3 0,147.1 0,156.9 0,166.7 0,176.5 0,186.3 0,196.1 0,205.9 0,215.7 0,225.5 0,235.3 0,245.1 
		0,254.9 0,264.7 0,274.5 0,284.3 9.8,284.3 9.8,294.1 19.6,294.1 29.4,294.1 29.4,284.3 39.2,284.3 39.2,274.5 39.2,264.7 
		29.4,264.7 29.4,274.5 19.6,274.5 19.6,264.7 9.8,264.7 9.8,254.9 19.6,254.9 19.6,245.1 19.6,235.3 19.6,225.5 19.6,215.7 
		19.6,205.9 9.8,205.9 9.8,196.1 19.6,196.1 19.6,186.3 19.6,176.5 19.6,166.7 19.6,156.9 19.6,147.1 9.8,147.1 9.8,137.3 
		19.6,137.3 19.6,127.4 29.4,127.4 29.4,137.3 39.2,137.3 39.2,127.4 39.2,117.7 	"/>
	<rect x="19.6" y="56.7" class="st0" width="9.8" height="80.6"/>
</g>
<g id="Слой_1-2_17_">
	<rect x="127.4" y="264.7" class="st0" width="9.8" height="9.8"/>
	<polygon class="st0" points="127.4,235.3 127.4,245.1 127.4,254.9 137.2,254.9 137.2,245.1 137.2,235.3 	"/>
	<polygon class="st1" points="137.2,225.5 127.4,225.5 127.4,235.3 137.2,235.3 147,235.3 147,225.5 	"/>
	<polygon class="st0" points="127.4,205.9 127.4,215.7 127.4,225.5 137.2,225.5 137.2,215.7 137.2,205.9 	"/>
	<polygon class="st0" points="127.4,176.5 127.4,186.3 127.4,196.1 137.2,196.1 137.2,186.3 137.2,176.5 	"/>
	<polygon class="st1" points="137.2,166.7 127.4,166.7 127.4,176.5 137.2,176.5 147,176.5 147,166.7 	"/>
	<polygon class="st0" points="127.4,147.1 127.4,156.9 127.4,166.7 137.2,166.7 137.2,156.9 137.2,147.1 	"/>
	<polygon class="st1" points="137.2,254.9 127.4,254.9 117.6,254.9 117.6,264.7 127.4,264.7 137.2,264.7 147,264.7 147,254.9 	"/>
	<polygon class="st1" points="137.2,196.1 127.4,196.1 117.6,196.1 117.6,205.9 127.4,205.9 137.2,205.9 147,205.9 147,196.1 	"/>
	<polygon class="st1" points="137.2,137.3 127.4,137.3 117.6,137.3 117.6,147.1 127.4,147.1 137.2,147.1 147,147.1 147,137.3 	"/>
	<polygon points="127.4,0 117.6,0 117.6,9.8 127.4,9.8 137.2,9.8 137.2,0 	"/>
	<polygon class="st2" points="137.2,245.1 137.2,254.9 147,254.9 147,245.1 147,235.3 137.2,235.3 	"/>
	<polygon class="st2" points="137.2,215.7 137.2,225.5 147,225.5 147,215.7 147,205.9 137.2,205.9 	"/>
	<polygon class="st2" points="137.2,186.3 137.2,196.1 147,196.1 147,186.3 147,176.5 137.2,176.5 	"/>
	<polygon class="st2" points="137.2,156.9 137.2,166.7 147,166.7 147,156.9 147,147.1 137.2,147.1 	"/>
	<polygon class="st2" points="137.2,117.7 137.2,107.8 137.2,98 137.2,88.2 137.2,78.4 137.2,68.6 137.2,58.8 137.2,49 137.2,39.2 
		137.2,29.4 137.2,19.6 137.2,9.8 127.4,9.8 117.6,9.8 117.6,19.6 117.6,29.4 117.6,39.2 117.6,49 117.6,58.8 117.6,68.6 
		117.6,78.4 117.6,88.2 117.6,98 117.6,107.8 117.6,117.7 107.8,117.7 107.8,127.4 107.8,137.3 107.8,147.1 107.8,156.9 
		107.8,166.7 107.8,176.5 107.8,186.3 107.8,196.1 107.8,205.9 107.8,215.7 107.8,225.5 107.8,235.3 107.8,245.1 107.8,254.9 
		107.8,264.7 107.8,274.5 107.8,284.3 117.6,284.3 117.6,294.1 127.4,294.1 137.2,294.1 137.2,284.3 147,284.3 147,274.5 147,264.7 
		137.2,264.7 137.2,274.5 127.4,274.5 127.4,264.7 117.6,264.7 117.6,254.9 127.4,254.9 127.4,245.1 127.4,235.3 127.4,225.5 
		127.4,215.7 127.4,205.9 117.6,205.9 117.6,196.1 127.4,196.1 127.4,186.3 127.4,176.5 127.4,166.7 127.4,156.9 127.4,147.1 
		117.6,147.1 117.6,137.3 127.4,137.3 127.4,127.4 137.2,127.4 137.2,137.3 147,137.3 147,127.4 147,117.7 	"/>
	<rect x="127.4" y="83.5" class="st0" width="9.8" height="53.7"/>
</g>
</svg>
