<?xml version="1.0" encoding="utf-8"?>
<!-- Generator: Adobe Illustrator 24.1.1, SVG Export Plug-In . SVG Version: 6.00 Build 0)  -->
<svg version="1.1" id="Слой_1" xmlns="http://www.w3.org/2000/svg" xmlns:xlink="http://www.w3.org/1999/xlink" x="0px" y="0px"
	 viewBox="0 0 129 90" style="enable-background:new 0 0 129 90;" xml:space="preserve">
<style type="text/css">
	.st0{fill:#E7F1F7;}
	.st1{fill:#84BADA;}
	.st2{fill:#FFFFFF;}
	.st3{fill:#3A566F;}
</style>
<g>
	<polygon class="st0" points="116.1,25.7 116.1,68.6 111.8,68.6 111.8,38.6 107.5,38.6 107.5,77.1 103.2,77.1 103.2,85.7 94.6,85.7 
		94.6,72.9 90.3,72.9 90.3,90 86,90 86,42.9 81.7,42.9 81.7,72.9 77.4,72.9 77.4,68.6 73.1,68.6 73.1,30 77.4,30 77.4,25.7 
		81.7,25.7 81.7,21.4 90.3,21.4 90.3,17.1 103.2,17.1 103.2,21.4 111.8,21.4 111.8,25.7 	"/>
</g>
<g>
	<polygon class="st1" points="73.1,25.7 73.1,77.1 68.8,77.1 68.8,55.7 64.5,55.7 64.5,85.7 60.2,85.7 60.2,68.6 55.9,68.6 
		55.9,77.1 51.6,77.1 51.6,68.6 47.3,68.6 47.3,77.1 43,77.1 43,60 38.7,60 38.7,72.9 34.4,72.9 34.4,30 38.7,30 38.7,25.7 43,25.7 
		43,21.4 47.3,21.4 47.3,17.1 60.2,17.1 60.2,21.4 64.5,21.4 64.5,25.7 	"/>
</g>
<g>
	<polygon class="st2" points="107.5,12.9 103.2,12.9 98.9,12.9 98.9,8.6 98.9,4.3 94.6,4.3 94.6,8.6 94.6,12.9 90.3,12.9 86,12.9 
		81.7,12.9 77.4,12.9 77.4,17.2 81.7,17.2 86,17.2 90.3,17.2 94.6,17.2 98.9,17.2 103.2,17.2 107.5,17.2 111.8,17.2 111.8,12.9 	"/>
	<polygon class="st2" points="60.2,12.9 55.9,12.9 55.9,8.6 55.9,4.3 51.6,4.3 51.6,8.6 51.6,12.9 47.3,12.9 43,12.9 43,17.2 
		47.3,17.2 51.6,17.2 55.9,17.2 60.2,17.2 64.5,17.2 68.8,17.2 68.8,12.9 64.5,12.9 	"/>
	<polygon class="st2" points="25.8,12.9 25.8,8.6 25.8,4.3 21.5,4.3 21.5,8.6 21.5,12.9 17.2,12.9 12.9,12.9 8.6,12.9 8.6,17.2 
		12.9,17.2 17.2,17.2 21.5,17.2 25.8,17.2 30.1,17.2 34.4,17.2 34.4,12.9 30.1,12.9 	"/>
</g>
<g>
	<rect x="38.7" y="60" class="st3" width="4.3" height="8.6"/>
	<polygon class="st3" points="34.4,72.9 38.7,72.9 38.7,81.4 30.1,81.4 30.1,90 21.5,90 21.5,77.1 17.2,77.1 17.2,85.7 12.9,85.7 
		12.9,72.9 8.6,72.9 8.6,42.9 4.3,42.9 4.3,72.9 0,72.9 0,30 4.3,30 4.3,25.7 12.9,25.7 12.9,21.4 17.2,21.4 17.2,17.1 25.8,17.1 
		25.8,21.4 30.1,21.4 30.1,25.7 38.7,25.7 38.7,30 34.4,30 	"/>
</g>
</svg>
