<?xml version="1.0" encoding="utf-8"?>
<!-- Generator: Adobe Illustrator 24.1.1, SVG Export Plug-In . SVG Version: 6.00 Build 0)  -->
<svg version="1.1" id="Слой_1" xmlns="http://www.w3.org/2000/svg" xmlns:xlink="http://www.w3.org/1999/xlink" x="0px" y="0px"
	 viewBox="0 0 129 90" style="enable-background:new 0 0 129 90;" xml:space="preserve">
<style type="text/css">
	.st0{fill:#E7F1F7;}
	.st1{fill:#84BADA;}
	.st2{fill:#3A566F;}
</style>
<path d="M111.8,12.9h-4.3v4.3h4.3V12.9z"/>
<path d="M107.5,12.9h-4.3v4.3h4.3V12.9z"/>
<path d="M103.2,12.9h-4.3v4.3h4.3V12.9z"/>
<path d="M98.9,12.9h-4.3v4.3h4.3V12.9z"/>
<path d="M98.9,8.6h-4.3v4.3h4.3V8.6z"/>
<path d="M98.9,4.3h-4.3v4.3h4.3V4.3z"/>
<path d="M94.6,12.9h-4.3v4.3h4.3V12.9z"/>
<path d="M90.3,12.9H86v4.3h4.3V12.9z"/>
<path d="M86,12.9h-4.3v4.3H86V12.9z"/>
<path d="M81.7,12.9h-4.3v4.3h4.3V12.9z"/>
<g>
	<polygon class="st0" points="116.1,25.7 116.1,68.6 111.8,68.6 111.8,38.6 107.5,38.6 107.5,77.1 103.2,77.1 103.2,85.7 94.6,85.7 
		94.6,72.9 90.3,72.9 90.3,90 86,90 86,42.9 81.7,42.9 81.7,72.9 77.4,72.9 77.4,68.6 73.1,68.6 73.1,30 77.4,30 77.4,25.7 
		81.7,25.7 81.7,21.4 90.3,21.4 90.3,17.1 103.2,17.1 103.2,21.4 111.8,21.4 111.8,25.7 	"/>
</g>
<path d="M68.8,12.9h-4.3v4.3h4.3V12.9z"/>
<path d="M64.5,12.9h-4.3v4.3h4.3V12.9z"/>
<path d="M60.2,12.9h-4.3v4.3h4.3V12.9z"/>
<path d="M55.9,12.9h-4.3v4.3h4.3V12.9z"/>
<path d="M55.9,8.6h-4.3v4.3h4.3V8.6z"/>
<path d="M55.9,4.3h-4.3v4.3h4.3V4.3z"/>
<path d="M51.6,12.9h-4.3v4.3h4.3V12.9z"/>
<path d="M47.3,12.9H43v4.3h4.3V12.9z"/>
<g>
	<polygon class="st1" points="73.1,25.7 73.1,77.1 68.8,77.1 68.8,55.7 64.5,55.7 64.5,85.7 60.2,85.7 60.2,68.6 55.9,68.6 
		55.9,77.1 51.6,77.1 51.6,68.6 47.3,68.6 47.3,77.1 43,77.1 43,60 38.7,60 38.7,72.9 34.4,72.9 34.4,30 38.7,30 38.7,25.7 43,25.7 
		43,21.4 47.3,21.4 47.3,17.1 60.2,17.1 60.2,21.4 64.5,21.4 64.5,25.7 	"/>
</g>
<path d="M34.4,12.9h-4.3v4.3h4.3V12.9z"/>
<path d="M30.1,12.9h-4.3v4.3h4.3V12.9z"/>
<path d="M25.8,12.9h-4.3v4.3h4.3V12.9z"/>
<path d="M25.8,8.6h-4.3v4.3h4.3V8.6z"/>
<path d="M25.8,4.3h-4.3v4.3h4.3V4.3z"/>
<path d="M21.5,12.9h-4.3v4.3h4.3V12.9z"/>
<path d="M17.2,12.9h-4.3v4.3h4.3V12.9z"/>
<path d="M12.9,12.9H8.6v4.3h4.3V12.9z"/>
<g>
	<rect x="38.7" y="60" class="st2" width="4.3" height="8.6"/>
	<polygon class="st2" points="34.4,72.9 38.7,72.9 38.7,81.4 30.1,81.4 30.1,90 21.5,90 21.5,77.1 17.2,77.1 17.2,85.7 12.9,85.7 
		12.9,72.9 8.6,72.9 8.6,42.9 4.3,42.9 4.3,72.9 0,72.9 0,30 4.3,30 4.3,25.7 12.9,25.7 12.9,21.4 17.2,21.4 17.2,17.1 25.8,17.1 
		25.8,21.4 30.1,21.4 30.1,25.7 38.7,25.7 38.7,30 34.4,30 	"/>
</g>
</svg>
