<svg width="208" height="210" viewBox="0 0 208 210" fill="none" xmlns="http://www.w3.org/2000/svg">
<mask id="mask0" mask-type="alpha" maskUnits="userSpaceOnUse" x="0" y="0" width="208" height="210">
<path d="M139.406 10.1794C108.152 1.75015 89.9194 -2.87614 66.4744 5.19724C55.6875 8.90946 41.0327 16.2641 26.9709 31.0921C17.2714 41.3216 5.68062 53.5398 1.89831 73.9221C-0.388211 86.245 1.89171 97.7446 6.45816 120.737C12.382 150.588 20.6847 170.307 25.4488 180.502C32.8553 196.328 36.5519 204.241 42.1595 207.395C47.9648 210.66 55.5228 210.821 93.0626 186.475C121.693 167.914 124.487 163.162 137.884 159.582C154.568 155.13 157.342 160.601 169.032 154.6C190.994 143.324 200.351 114.163 201.702 109.781C203.264 104.715 213.747 69.1981 200.18 42.0473C191.245 24.1631 173.967 19.5018 139.406 10.1794Z" fill="black" stroke="black" stroke-miterlimit="10"/>
</mask>
<g mask="url(#mask0)">
<path d="M157.935 -101L316.085 88.079M-109 122.271L49.1503 311.35L-109 122.271ZM-16.9536 45.2815L141.197 234.36L-16.9536 45.2815ZM-62.9768 83.7765L95.1735 272.855L-62.9768 83.7765ZM29.0696 6.78645L187.22 195.865L29.0696 6.78645ZM116.514 -66.3541L274.664 122.725L116.514 -66.3541ZM-85.9884 103.024L72.1619 292.103L-85.9884 103.024ZM6.05798 26.034L164.208 215.113L6.05798 26.034ZM93.502 -47.1066L251.652 141.972L93.502 -47.1066ZM-39.9652 64.529L118.185 253.608L-39.9652 64.529ZM52.0812 -12.4611L210.232 176.618L52.0812 -12.4611ZM139.525 -85.6016L297.676 103.477L139.525 -85.6016ZM-99.7954 114.572L58.355 303.651L-99.7954 114.572ZM-7.74898 37.5825L150.401 226.661L-7.74898 37.5825ZM79.6951 -35.5581L237.845 153.521L79.6951 -35.5581ZM-53.7722 76.0775L104.378 265.156L-53.7722 76.0775ZM38.2742 -0.912544L196.425 188.166L38.2742 -0.912544ZM125.718 -74.0531L283.869 115.026L125.718 -74.0531ZM-76.7838 95.325L81.3666 284.404L-76.7838 95.325ZM15.2626 18.335L173.413 207.414L15.2626 18.335ZM102.707 -54.8056L260.857 134.273L102.707 -54.8056ZM-30.7606 56.83L127.39 245.909L-30.7606 56.83ZM61.2858 -20.1601L219.436 168.919L61.2858 -20.1601ZM148.73 -93.3006L306.88 95.778L148.73 -93.3006ZM-104.398 118.422L53.7527 307.501L-104.398 118.422ZM-12.3513 41.432L145.799 230.511L-12.3513 41.432ZM75.0928 -31.7086L233.243 157.37L75.0928 -31.7086ZM-58.3745 79.927L99.7758 269.006L-58.3745 79.927ZM33.6719 2.93695L191.822 192.016L33.6719 2.93695ZM121.116 -70.2036L279.266 118.875L121.116 -70.2036ZM-81.3861 99.1745L76.7642 288.253L-81.3861 99.1745ZM10.6603 22.1845L168.811 211.263L10.6603 22.1845ZM98.1044 -50.9561L256.255 138.123L98.1044 -50.9561ZM-35.3629 60.6795L122.787 249.758L-35.3629 60.6795ZM56.6835 -16.3106L214.834 172.768L56.6835 -16.3106ZM144.128 -89.4511L302.278 99.6275L144.128 -89.4511ZM-95.193 110.723L62.9573 299.802L-95.193 110.723ZM-3.14666 33.733L155.004 222.812L-3.14666 33.733ZM84.2974 -39.4076L242.448 149.671L84.2974 -39.4076ZM-49.1699 72.228L108.98 261.307L-49.1699 72.228ZM42.8765 -4.76205L201.027 184.317L42.8765 -4.76205ZM130.321 -77.9026L288.471 111.176L130.321 -77.9026ZM-72.1814 91.4755L85.9689 280.554L-72.1814 91.4755ZM19.8649 14.4855L178.015 203.564L19.8649 14.4855ZM107.309 -58.6551L265.459 130.424L107.309 -58.6551ZM-26.1583 52.9805L131.992 242.059L-26.1583 52.9805ZM65.8881 -24.0096L224.038 165.069L65.8881 -24.0096ZM153.332 -97.1501L311.483 91.9285L153.332 -97.1501ZM-90.5907 106.873L67.5596 295.952L-90.5907 106.873ZM1.45566 29.8835L159.606 218.962L1.45566 29.8835ZM88.8997 -43.2571L247.05 145.822L88.8997 -43.2571ZM-44.5675 68.3785L113.583 257.457L-44.5675 68.3785ZM47.4789 -8.61155L205.629 180.467L47.4789 -8.61155ZM134.923 -81.7521L293.073 107.327L134.923 -81.7521ZM-67.5791 87.626L90.5712 276.705L-67.5791 87.626ZM24.4673 10.636L182.618 199.715L24.4673 10.636ZM111.911 -62.5046L270.062 126.574L111.911 -62.5046ZM-21.5559 49.131L136.594 238.21L-21.5559 49.131ZM70.4904 -27.8591L228.641 161.22L70.4904 -27.8591Z" stroke="white"/>
</g>
</svg>
