<svg width="129" height="90" viewBox="0 0 129 90" fill="none" xmlns="http://www.w3.org/2000/svg">
<path d="M116.101 64.2832H111.798V68.5714H116.101V64.2832Z" fill="#E7F1F7"/>
<path d="M116.101 60H111.798V64.2838H116.101V60Z" fill="#E7F1F7"/>
<path d="M116.101 55.7168H111.798V60.0006H116.101V55.7168Z" fill="#E7F1F7"/>
<path d="M116.101 51.4277H111.798V55.7159H116.101V51.4277Z" fill="#E7F1F7"/>
<path d="M116.101 47.1445H111.798V51.4284H116.101V47.1445Z" fill="#E7F1F7"/>
<path d="M116.101 42.8555H111.798V47.1437H116.101V42.8555Z" fill="#E7F1F7"/>
<path d="M116.101 38.5723H111.798V42.8561H116.101V38.5723Z" fill="#E7F1F7"/>
<path d="M116.101 34.2891H111.798V38.5729H116.101V34.2891Z" fill="#E7F1F7"/>
<path d="M116.101 30H111.798V34.2882H116.101V30Z" fill="#E7F1F7"/>
<path d="M116.101 25.7168H111.798V30.0006H116.101V25.7168Z" fill="#E7F1F7"/>
<path d="M111.798 34.2891H107.5V38.5729H111.798V34.2891Z" fill="#E7F1F7"/>
<path d="M111.798 30H107.5V34.2882H111.798V30Z" fill="#E7F1F7"/>
<path d="M111.798 25.7168H107.5V30.0006H111.798V25.7168Z" fill="#E7F1F7"/>
<path d="M111.798 21.4277H107.5V25.7159H111.798V21.4277Z" fill="#E7F1F7"/>
<path d="M111.798 12.8594H107.5V17.1432H111.798V12.8594Z" fill="black"/>
<path d="M107.5 72.8555H103.202V77.1437H107.5V72.8555Z" fill="#E7F1F7"/>
<path d="M107.5 68.5723H103.202V72.8561H107.5V68.5723Z" fill="#E7F1F7"/>
<path d="M107.5 64.2832H103.202V68.5714H107.5V64.2832Z" fill="#E7F1F7"/>
<path d="M107.5 60H103.202V64.2838H107.5V60Z" fill="#E7F1F7"/>
<path d="M107.5 55.7168H103.202V60.0006H107.5V55.7168Z" fill="#E7F1F7"/>
<path d="M107.5 51.4277H103.202V55.7159H107.5V51.4277Z" fill="#E7F1F7"/>
<path d="M107.5 47.1445H103.202V51.4284H107.5V47.1445Z" fill="#E7F1F7"/>
<path d="M107.5 42.8555H103.202V47.1437H107.5V42.8555Z" fill="#E7F1F7"/>
<path d="M107.5 38.5723H103.202V42.8561H107.5V38.5723Z" fill="#E7F1F7"/>
<path d="M107.5 34.2891H103.202V38.5729H107.5V34.2891Z" fill="#E7F1F7"/>
<path d="M107.5 30H103.202V34.2882H107.5V30Z" fill="#E7F1F7"/>
<path d="M107.5 25.7168H103.202V30.0006H107.5V25.7168Z" fill="#E7F1F7"/>
<path d="M107.5 21.4277H103.202V25.7159H107.5V21.4277Z" fill="#E7F1F7"/>
<path d="M107.5 12.8594H103.202V17.1432H107.5V12.8594Z" fill="black"/>
<path d="M103.202 81.4277H98.8992V85.7116H103.202V81.4277Z" fill="#E7F1F7"/>
<path d="M103.202 77.1445H98.8992V81.4284H103.202V77.1445Z" fill="#E7F1F7"/>
<path d="M103.202 72.8555H98.8992V77.1437H103.202V72.8555Z" fill="#E7F1F7"/>
<path d="M103.202 68.5723H98.8992V72.8561H103.202V68.5723Z" fill="#E7F1F7"/>
<path d="M103.202 64.2832H98.8992V68.5714H103.202V64.2832Z" fill="#E7F1F7"/>
<path d="M103.202 60H98.8992V64.2838H103.202V60Z" fill="#E7F1F7"/>
<path d="M103.202 55.7168H98.8992V60.0006H103.202V55.7168Z" fill="#E7F1F7"/>
<path d="M103.202 51.4277H98.8992V55.7159H103.202V51.4277Z" fill="#E7F1F7"/>
<path d="M103.202 47.1445H98.8992V51.4284H103.202V47.1445Z" fill="#E7F1F7"/>
<path d="M103.202 42.8555H98.8992V47.1437H103.202V42.8555Z" fill="#E7F1F7"/>
<path d="M103.202 38.5723H98.8992V42.8561H103.202V38.5723Z" fill="#E7F1F7"/>
<path d="M103.202 34.2891H98.8992V38.5729H103.202V34.2891Z" fill="#E7F1F7"/>
<path d="M103.202 30H98.8992V34.2882H103.202V30Z" fill="#E7F1F7"/>
<path d="M103.202 25.7168H98.8992V30.0006H103.202V25.7168Z" fill="#E7F1F7"/>
<path d="M103.202 21.4277H98.8992V25.7159H103.202V21.4277Z" fill="#E7F1F7"/>
<path d="M103.202 17.1445H98.8992V21.4284H103.202V17.1445Z" fill="#E7F1F7"/>
<path d="M103.202 12.8594H98.8992V17.1432H103.202V12.8594Z" fill="black"/>
<path d="M98.8991 81.4277H94.6008V85.7116H98.8991V81.4277Z" fill="#E7F1F7"/>
<path d="M98.8991 77.1445H94.6008V81.4284H98.8991V77.1445Z" fill="#E7F1F7"/>
<path d="M98.8991 72.8555H94.6008V77.1437H98.8991V72.8555Z" fill="#E7F1F7"/>
<path d="M98.8991 68.5723H94.6008V72.8561H98.8991V68.5723Z" fill="#E7F1F7"/>
<path d="M98.8991 64.2832H94.6008V68.5714H98.8991V64.2832Z" fill="#E7F1F7"/>
<path d="M98.8991 60H94.6008V64.2838H98.8991V60Z" fill="#E7F1F7"/>
<path d="M98.8991 55.7168H94.6008V60.0006H98.8991V55.7168Z" fill="#E7F1F7"/>
<path d="M98.8991 51.4277H94.6008V55.7159H98.8991V51.4277Z" fill="#E7F1F7"/>
<path d="M98.8991 47.1445H94.6008V51.4284H98.8991V47.1445Z" fill="#E7F1F7"/>
<path d="M98.8991 42.8555H94.6008V47.1437H98.8991V42.8555Z" fill="#E7F1F7"/>
<path d="M98.8991 38.5723H94.6008V42.8561H98.8991V38.5723Z" fill="#E7F1F7"/>
<path d="M98.8991 34.2891H94.6008V38.5729H98.8991V34.2891Z" fill="#E7F1F7"/>
<path d="M98.8991 30H94.6008V34.2882H98.8991V30Z" fill="#E7F1F7"/>
<path d="M98.8991 25.7168H94.6008V30.0006H98.8991V25.7168Z" fill="#E7F1F7"/>
<path d="M98.8991 21.4277H94.6008V25.7159H98.8991V21.4277Z" fill="#E7F1F7"/>
<path d="M98.8991 17.1445H94.6008V21.4284H98.8991V17.1445Z" fill="#E7F1F7"/>
<path d="M98.8991 12.8594H94.6008V17.1432H98.8991V12.8594Z" fill="black"/>
<path d="M98.8991 8.57227H94.6008V12.8605H98.8991V8.57227Z" fill="black"/>
<path d="M98.8991 4.28906H94.6008V8.5729H98.8991V4.28906Z" fill="black"/>
<path d="M94.6009 68.5723H90.2982V72.8561H94.6009V68.5723Z" fill="#E7F1F7"/>
<path d="M94.6009 64.2832H90.2982V68.5714H94.6009V64.2832Z" fill="#E7F1F7"/>
<path d="M94.6009 60H90.2982V64.2838H94.6009V60Z" fill="#E7F1F7"/>
<path d="M94.6009 55.7168H90.2982V60.0006H94.6009V55.7168Z" fill="#E7F1F7"/>
<path d="M94.6009 51.4277H90.2982V55.7159H94.6009V51.4277Z" fill="#E7F1F7"/>
<path d="M94.6009 47.1445H90.2982V51.4284H94.6009V47.1445Z" fill="#E7F1F7"/>
<path d="M94.6009 42.8555H90.2982V47.1437H94.6009V42.8555Z" fill="#E7F1F7"/>
<path d="M94.6009 38.5723H90.2982V42.8561H94.6009V38.5723Z" fill="#E7F1F7"/>
<path d="M94.6009 34.2891H90.2982V38.5729H94.6009V34.2891Z" fill="#E7F1F7"/>
<path d="M94.6009 30H90.2982V34.2882H94.6009V30Z" fill="#E7F1F7"/>
<path d="M94.6009 25.7168H90.2982V30.0006H94.6009V25.7168Z" fill="#E7F1F7"/>
<path d="M94.6009 21.4277H90.2982V25.7159H94.6009V21.4277Z" fill="#E7F1F7"/>
<path d="M94.6009 17.1445H90.2982V21.4284H94.6009V17.1445Z" fill="#E7F1F7"/>
<path d="M94.6009 12.8594H90.2982V17.1432H94.6009V12.8594Z" fill="black"/>
<path d="M90.2982 85.7109H86V89.9992H90.2982V85.7109Z" fill="#E7F1F7"/>
<path d="M90.2982 81.4277H86V85.7116H90.2982V81.4277Z" fill="#E7F1F7"/>
<path d="M90.2982 77.1445H86V81.4284H90.2982V77.1445Z" fill="#E7F1F7"/>
<path d="M90.2982 72.8555H86V77.1437H90.2982V72.8555Z" fill="#E7F1F7"/>
<path d="M90.2982 68.5723H86V72.8561H90.2982V68.5723Z" fill="#E7F1F7"/>
<path d="M90.2982 64.2832H86V68.5714H90.2982V64.2832Z" fill="#E7F1F7"/>
<path d="M90.2982 60H86V64.2838H90.2982V60Z" fill="#E7F1F7"/>
<path d="M90.2982 55.7168H86V60.0006H90.2982V55.7168Z" fill="#E7F1F7"/>
<path d="M90.2982 51.4277H86V55.7159H90.2982V51.4277Z" fill="#E7F1F7"/>
<path d="M90.2982 47.1445H86V51.4284H90.2982V47.1445Z" fill="#E7F1F7"/>
<path d="M90.2982 42.8555H86V47.1437H90.2982V42.8555Z" fill="#E7F1F7"/>
<path d="M90.2982 38.5723H86V42.8561H90.2982V38.5723Z" fill="#E7F1F7"/>
<path d="M90.2982 34.2891H86V38.5729H90.2982V34.2891Z" fill="#E7F1F7"/>
<path d="M90.2982 30H86V34.2882H90.2982V30Z" fill="#E7F1F7"/>
<path d="M90.2982 25.7168H86V30.0006H90.2982V25.7168Z" fill="#E7F1F7"/>
<path d="M90.2982 21.4277H86V25.7159H90.2982V21.4277Z" fill="#E7F1F7"/>
<path d="M90.2982 12.8594H86V17.1432H90.2982V12.8594Z" fill="black"/>
<path d="M86 38.5723H81.7018V42.8561H86V38.5723Z" fill="#E7F1F7"/>
<path d="M86 34.2891H81.7018V38.5729H86V34.2891Z" fill="#E7F1F7"/>
<path d="M86 30H81.7018V34.2882H86V30Z" fill="#E7F1F7"/>
<path d="M86 25.7168H81.7018V30.0006H86V25.7168Z" fill="#E7F1F7"/>
<path d="M86 21.4277H81.7018V25.7159H86V21.4277Z" fill="#E7F1F7"/>
<path d="M86 12.8594H81.7018V17.1432H86V12.8594Z" fill="black"/>
<path d="M81.7018 68.5723H77.3992V72.8561H81.7018V68.5723Z" fill="#E7F1F7"/>
<path d="M81.7018 64.2832H77.3992V68.5714H81.7018V64.2832Z" fill="#E7F1F7"/>
<path d="M81.7018 60H77.3992V64.2838H81.7018V60Z" fill="#E7F1F7"/>
<path d="M81.7018 55.7168H77.3992V60.0006H81.7018V55.7168Z" fill="#E7F1F7"/>
<path d="M81.7018 51.4277H77.3992V55.7159H81.7018V51.4277Z" fill="#E7F1F7"/>
<path d="M81.7018 47.1445H77.3992V51.4284H81.7018V47.1445Z" fill="#E7F1F7"/>
<path d="M81.7018 42.8555H77.3992V47.1437H81.7018V42.8555Z" fill="#E7F1F7"/>
<path d="M81.7018 38.5723H77.3992V42.8561H81.7018V38.5723Z" fill="#E7F1F7"/>
<path d="M81.7018 34.2891H77.3992V38.5729H81.7018V34.2891Z" fill="#E7F1F7"/>
<path d="M81.7018 30H77.3992V34.2882H81.7018V30Z" fill="#E7F1F7"/>
<path d="M81.7018 25.7168H77.3992V30.0006H81.7018V25.7168Z" fill="#E7F1F7"/>
<path d="M81.7018 12.8594H77.3992V17.1432H81.7018V12.8594Z" fill="black"/>
<path d="M77.3991 64.2832H73.1009V68.5714H77.3991V64.2832Z" fill="#E7F1F7"/>
<path d="M77.3991 60H73.1009V64.2838H77.3991V60Z" fill="#E7F1F7"/>
<path d="M77.3991 55.7168H73.1009V60.0006H77.3991V55.7168Z" fill="#E7F1F7"/>
<path d="M77.3991 51.4277H73.1009V55.7159H77.3991V51.4277Z" fill="#E7F1F7"/>
<path d="M77.3991 47.1445H73.1009V51.4284H77.3991V47.1445Z" fill="#E7F1F7"/>
<path d="M77.3991 42.8555H73.1009V47.1437H77.3991V42.8555Z" fill="#E7F1F7"/>
<path d="M77.3991 38.5723H73.1009V42.8561H77.3991V38.5723Z" fill="#E7F1F7"/>
<path d="M77.3991 34.2891H73.1009V38.5729H77.3991V34.2891Z" fill="#E7F1F7"/>
<path d="M77.3991 30H73.1009V34.2882H77.3991V30Z" fill="#E7F1F7"/>
<path d="M73.1008 72.8555H68.7982V77.1437H73.1008V72.8555Z" fill="#84BADA"/>
<path d="M73.1008 68.5723H68.7982V72.8561H73.1008V68.5723Z" fill="#84BADA"/>
<path d="M73.1008 64.2832H68.7982V68.5714H73.1008V64.2832Z" fill="#84BADA"/>
<path d="M73.1008 60H68.7982V64.2838H73.1008V60Z" fill="#84BADA"/>
<path d="M73.1008 55.7168H68.7982V60.0006H73.1008V55.7168Z" fill="#84BADA"/>
<path d="M73.1008 51.4277H68.7982V55.7159H73.1008V51.4277Z" fill="#84BADA"/>
<path d="M73.1008 47.1445H68.7982V51.4284H73.1008V47.1445Z" fill="#84BADA"/>
<path d="M73.1008 42.8555H68.7982V47.1437H73.1008V42.8555Z" fill="#84BADA"/>
<path d="M73.1008 38.5723H68.7982V42.8561H73.1008V38.5723Z" fill="#84BADA"/>
<path d="M73.1008 34.2891H68.7982V38.5729H73.1008V34.2891Z" fill="#84BADA"/>
<path d="M73.1008 30H68.7982V34.2882H73.1008V30Z" fill="#84BADA"/>
<path d="M73.1008 25.7168H68.7982V30.0006H73.1008V25.7168Z" fill="#84BADA"/>
<path d="M68.7982 51.4277H64.5V55.7159H68.7982V51.4277Z" fill="#84BADA"/>
<path d="M68.7982 47.1445H64.5V51.4284H68.7982V47.1445Z" fill="#84BADA"/>
<path d="M68.7982 42.8555H64.5V47.1437H68.7982V42.8555Z" fill="#84BADA"/>
<path d="M68.7982 38.5723H64.5V42.8561H68.7982V38.5723Z" fill="#84BADA"/>
<path d="M68.7982 34.2891H64.5V38.5729H68.7982V34.2891Z" fill="#84BADA"/>
<path d="M68.7982 30H64.5V34.2882H68.7982V30Z" fill="#84BADA"/>
<path d="M68.7982 25.7168H64.5V30.0006H68.7982V25.7168Z" fill="#84BADA"/>
<path d="M68.7982 12.8594H64.5V17.1432H68.7982V12.8594Z" fill="black"/>
<path d="M64.5 81.4277H60.2017V85.7116H64.5V81.4277Z" fill="#84BADA"/>
<path d="M64.5 77.1445H60.2017V81.4284H64.5V77.1445Z" fill="#84BADA"/>
<path d="M64.5 72.8555H60.2017V77.1437H64.5V72.8555Z" fill="#84BADA"/>
<path d="M64.5 68.5723H60.2017V72.8561H64.5V68.5723Z" fill="#84BADA"/>
<path d="M64.5 64.2832H60.2017V68.5714H64.5V64.2832Z" fill="#84BADA"/>
<path d="M64.5 60H60.2017V64.2838H64.5V60Z" fill="#84BADA"/>
<path d="M64.5 55.7168H60.2017V60.0006H64.5V55.7168Z" fill="#84BADA"/>
<path d="M64.5 51.4277H60.2017V55.7159H64.5V51.4277Z" fill="#84BADA"/>
<path d="M64.5 47.1445H60.2017V51.4284H64.5V47.1445Z" fill="#84BADA"/>
<path d="M64.5 42.8555H60.2017V47.1437H64.5V42.8555Z" fill="#84BADA"/>
<path d="M64.5 38.5723H60.2017V42.8561H64.5V38.5723Z" fill="#84BADA"/>
<path d="M64.5 34.2891H60.2017V38.5729H64.5V34.2891Z" fill="#84BADA"/>
<path d="M64.5 30H60.2017V34.2882H64.5V30Z" fill="#84BADA"/>
<path d="M64.5 25.7168H60.2017V30.0006H64.5V25.7168Z" fill="#84BADA"/>
<path d="M64.5 21.4277H60.2017V25.7159H64.5V21.4277Z" fill="#84BADA"/>
<path d="M64.5 12.8594H60.2017V17.1432H64.5V12.8594Z" fill="black"/>
<path d="M60.2017 64.2832H55.8991V68.5714H60.2017V64.2832Z" fill="#84BADA"/>
<path d="M60.2017 60H55.8991V64.2838H60.2017V60Z" fill="#84BADA"/>
<path d="M60.2017 55.7168H55.8991V60.0006H60.2017V55.7168Z" fill="#84BADA"/>
<path d="M60.2017 51.4277H55.8991V55.7159H60.2017V51.4277Z" fill="#84BADA"/>
<path d="M60.2017 47.1445H55.8991V51.4284H60.2017V47.1445Z" fill="#84BADA"/>
<path d="M60.2017 42.8555H55.8991V47.1437H60.2017V42.8555Z" fill="#84BADA"/>
<path d="M60.2017 38.5723H55.8991V42.8561H60.2017V38.5723Z" fill="#84BADA"/>
<path d="M60.2017 34.2891H55.8991V38.5729H60.2017V34.2891Z" fill="#84BADA"/>
<path d="M60.2017 30H55.8991V34.2882H60.2017V30Z" fill="#84BADA"/>
<path d="M60.2017 25.7168H55.8991V30.0006H60.2017V25.7168Z" fill="#84BADA"/>
<path d="M60.2017 21.4277H55.8991V25.7159H60.2017V21.4277Z" fill="#84BADA"/>
<path d="M60.2017 17.1445H55.8991V21.4284H60.2017V17.1445Z" fill="#84BADA"/>
<path d="M60.2017 12.8594H55.8991V17.1432H60.2017V12.8594Z" fill="black"/>
<path d="M55.8991 72.8555H51.6009V77.1437H55.8991V72.8555Z" fill="#84BADA"/>
<path d="M55.8991 68.5723H51.6009V72.8561H55.8991V68.5723Z" fill="#84BADA"/>
<path d="M55.8991 64.2832H51.6009V68.5714H55.8991V64.2832Z" fill="#84BADA"/>
<path d="M55.8991 60H51.6009V64.2838H55.8991V60Z" fill="#84BADA"/>
<path d="M55.8991 55.7168H51.6009V60.0006H55.8991V55.7168Z" fill="#84BADA"/>
<path d="M55.8991 51.4277H51.6009V55.7159H55.8991V51.4277Z" fill="#84BADA"/>
<path d="M55.8991 47.1445H51.6009V51.4284H55.8991V47.1445Z" fill="#84BADA"/>
<path d="M55.8991 42.8555H51.6009V47.1437H55.8991V42.8555Z" fill="#84BADA"/>
<path d="M55.8991 38.5723H51.6009V42.8561H55.8991V38.5723Z" fill="#84BADA"/>
<path d="M55.8991 34.2891H51.6009V38.5729H55.8991V34.2891Z" fill="#84BADA"/>
<path d="M55.8991 30H51.6009V34.2882H55.8991V30Z" fill="#84BADA"/>
<path d="M55.8991 25.7168H51.6009V30.0006H55.8991V25.7168Z" fill="#84BADA"/>
<path d="M55.8991 21.4277H51.6009V25.7159H55.8991V21.4277Z" fill="#84BADA"/>
<path d="M55.8991 17.1445H51.6009V21.4284H55.8991V17.1445Z" fill="#84BADA"/>
<path d="M55.8991 12.8594H51.6009V17.1432H55.8991V12.8594Z" fill="black"/>
<path d="M55.8991 8.57227H51.6009V12.8605H55.8991V8.57227Z" fill="black"/>
<path d="M55.8991 4.28906H51.6009V8.5729H55.8991V4.28906Z" fill="black"/>
<path d="M51.6009 64.2832H47.2983V68.5714H51.6009V64.2832Z" fill="#84BADA"/>
<path d="M51.6009 60H47.2983V64.2838H51.6009V60Z" fill="#84BADA"/>
<path d="M51.6009 55.7168H47.2983V60.0006H51.6009V55.7168Z" fill="#84BADA"/>
<path d="M51.6009 51.4277H47.2983V55.7159H51.6009V51.4277Z" fill="#84BADA"/>
<path d="M51.6009 47.1445H47.2983V51.4284H51.6009V47.1445Z" fill="#84BADA"/>
<path d="M51.6009 42.8555H47.2983V47.1437H51.6009V42.8555Z" fill="#84BADA"/>
<path d="M51.6009 38.5723H47.2983V42.8561H51.6009V38.5723Z" fill="#84BADA"/>
<path d="M51.6009 34.2891H47.2983V38.5729H51.6009V34.2891Z" fill="#84BADA"/>
<path d="M51.6009 30H47.2983V34.2882H51.6009V30Z" fill="#84BADA"/>
<path d="M51.6009 25.7168H47.2983V30.0006H51.6009V25.7168Z" fill="#84BADA"/>
<path d="M51.6009 21.4277H47.2983V25.7159H51.6009V21.4277Z" fill="#84BADA"/>
<path d="M51.6009 17.1445H47.2983V21.4284H51.6009V17.1445Z" fill="#84BADA"/>
<path d="M51.6009 12.8594H47.2983V17.1432H51.6009V12.8594Z" fill="black"/>
<path d="M47.2982 72.8555H43V77.1437H47.2982V72.8555Z" fill="#84BADA"/>
<path d="M47.2982 68.5723H43V72.8561H47.2982V68.5723Z" fill="#84BADA"/>
<path d="M47.2982 64.2832H43V68.5714H47.2982V64.2832Z" fill="#84BADA"/>
<path d="M47.2982 60H43V64.2838H47.2982V60Z" fill="#84BADA"/>
<path d="M47.2982 55.7168H43V60.0006H47.2982V55.7168Z" fill="#84BADA"/>
<path d="M47.2982 51.4277H43V55.7159H47.2982V51.4277Z" fill="#84BADA"/>
<path d="M47.2982 47.1445H43V51.4284H47.2982V47.1445Z" fill="#84BADA"/>
<path d="M47.2982 42.8555H43V47.1437H47.2982V42.8555Z" fill="#84BADA"/>
<path d="M47.2982 38.5723H43V42.8561H47.2982V38.5723Z" fill="#84BADA"/>
<path d="M47.2982 34.2891H43V38.5729H47.2982V34.2891Z" fill="#84BADA"/>
<path d="M47.2982 30H43V34.2882H47.2982V30Z" fill="#84BADA"/>
<path d="M47.2982 25.7168H43V30.0006H47.2982V25.7168Z" fill="#84BADA"/>
<path d="M47.2982 21.4277H43V25.7159H47.2982V21.4277Z" fill="#84BADA"/>
<path d="M47.2982 12.8594H43V17.1432H47.2982V12.8594Z" fill="black"/>
<path d="M43 64.2832H38.7018V68.5714H43V64.2832Z" fill="#3A566F"/>
<path d="M43 60H38.7018V64.2838H43V60Z" fill="#3A566F"/>
<path d="M43 55.7168H38.7018V60.0006H43V55.7168Z" fill="#84BADA"/>
<path d="M43 51.4277H38.7018V55.7159H43V51.4277Z" fill="#84BADA"/>
<path d="M43 47.1445H38.7018V51.4284H43V47.1445Z" fill="#84BADA"/>
<path d="M43 42.8555H38.7018V47.1437H43V42.8555Z" fill="#84BADA"/>
<path d="M43 38.5723H38.7018V42.8561H43V38.5723Z" fill="#84BADA"/>
<path d="M43 34.2891H38.7018V38.5729H43V34.2891Z" fill="#84BADA"/>
<path d="M43 30H38.7018V34.2882H43V30Z" fill="#84BADA"/>
<path d="M43 25.7168H38.7018V30.0006H43V25.7168Z" fill="#84BADA"/>
<path d="M38.7018 77.1445H34.3992V81.4284H38.7018V77.1445Z" fill="#3A566F"/>
<path d="M38.7018 72.8555H34.3992V77.1437H38.7018V72.8555Z" fill="#3A566F"/>
<path d="M38.7018 68.5723H34.3992V72.8561H38.7018V68.5723Z" fill="#84BADA"/>
<path d="M38.7018 64.2832H34.3992V68.5714H38.7018V64.2832Z" fill="#84BADA"/>
<path d="M38.7018 60H34.3992V64.2838H38.7018V60Z" fill="#84BADA"/>
<path d="M38.7018 55.7168H34.3992V60.0006H38.7018V55.7168Z" fill="#84BADA"/>
<path d="M38.7018 51.4277H34.3992V55.7159H38.7018V51.4277Z" fill="#84BADA"/>
<path d="M38.7018 47.1445H34.3992V51.4284H38.7018V47.1445Z" fill="#84BADA"/>
<path d="M38.7018 42.8555H34.3992V47.1437H38.7018V42.8555Z" fill="#84BADA"/>
<path d="M38.7018 38.5723H34.3992V42.8561H38.7018V38.5723Z" fill="#84BADA"/>
<path d="M38.7018 34.2891H34.3992V38.5729H38.7018V34.2891Z" fill="#84BADA"/>
<path d="M38.7018 30H34.3992V34.2882H38.7018V30Z" fill="#84BADA"/>
<path d="M38.7018 25.7168H34.3992V30.0006H38.7018V25.7168Z" fill="#3A566F"/>
<path d="M34.3991 77.1445H30.1009V81.4284H34.3991V77.1445Z" fill="#3A566F"/>
<path d="M34.3991 72.8555H30.1009V77.1437H34.3991V72.8555Z" fill="#3A566F"/>
<path d="M34.3991 68.5723H30.1009V72.8561H34.3991V68.5723Z" fill="#3A566F"/>
<path d="M34.3991 64.2832H30.1009V68.5714H34.3991V64.2832Z" fill="#3A566F"/>
<path d="M34.3991 60H30.1009V64.2838H34.3991V60Z" fill="#3A566F"/>
<path d="M34.3991 55.7168H30.1009V60.0006H34.3991V55.7168Z" fill="#3A566F"/>
<path d="M34.3991 51.4277H30.1009V55.7159H34.3991V51.4277Z" fill="#3A566F"/>
<path d="M34.3991 47.1445H30.1009V51.4284H34.3991V47.1445Z" fill="#3A566F"/>
<path d="M34.3991 42.8555H30.1009V47.1437H34.3991V42.8555Z" fill="#3A566F"/>
<path d="M34.3991 38.5723H30.1009V42.8561H34.3991V38.5723Z" fill="#3A566F"/>
<path d="M34.3991 34.2891H30.1009V38.5729H34.3991V34.2891Z" fill="#3A566F"/>
<path d="M34.3991 30H30.1009V34.2882H34.3991V30Z" fill="#3A566F"/>
<path d="M34.3991 25.7168H30.1009V30.0006H34.3991V25.7168Z" fill="#3A566F"/>
<path d="M34.3991 12.8594H30.1009V17.1432H34.3991V12.8594Z" fill="black"/>
<path d="M30.1009 85.7109H25.7982V89.9992H30.1009V85.7109Z" fill="#3A566F"/>
<path d="M30.1009 81.4277H25.7982V85.7116H30.1009V81.4277Z" fill="#3A566F"/>
<path d="M30.1009 77.1445H25.7982V81.4284H30.1009V77.1445Z" fill="#3A566F"/>
<path d="M30.1009 72.8555H25.7982V77.1437H30.1009V72.8555Z" fill="#3A566F"/>
<path d="M30.1009 68.5723H25.7982V72.8561H30.1009V68.5723Z" fill="#3A566F"/>
<path d="M30.1009 64.2832H25.7982V68.5714H30.1009V64.2832Z" fill="#3A566F"/>
<path d="M30.1009 60H25.7982V64.2838H30.1009V60Z" fill="#3A566F"/>
<path d="M30.1009 55.7168H25.7982V60.0006H30.1009V55.7168Z" fill="#3A566F"/>
<path d="M30.1009 51.4277H25.7982V55.7159H30.1009V51.4277Z" fill="#3A566F"/>
<path d="M30.1009 47.1445H25.7982V51.4284H30.1009V47.1445Z" fill="#3A566F"/>
<path d="M30.1009 42.8555H25.7982V47.1437H30.1009V42.8555Z" fill="#3A566F"/>
<path d="M30.1009 38.5723H25.7982V42.8561H30.1009V38.5723Z" fill="#3A566F"/>
<path d="M30.1009 34.2891H25.7982V38.5729H30.1009V34.2891Z" fill="#3A566F"/>
<path d="M30.1009 30H25.7982V34.2882H30.1009V30Z" fill="#3A566F"/>
<path d="M30.1009 25.7168H25.7982V30.0006H30.1009V25.7168Z" fill="#3A566F"/>
<path d="M30.1009 21.4277H25.7982V25.7159H30.1009V21.4277Z" fill="#3A566F"/>
<path d="M30.1009 12.8594H25.7982V17.1432H30.1009V12.8594Z" fill="black"/>
<path d="M25.7982 85.7109H21.5V89.9992H25.7982V85.7109Z" fill="#3A566F"/>
<path d="M25.7982 81.4277H21.5V85.7116H25.7982V81.4277Z" fill="#3A566F"/>
<path d="M25.7982 77.1445H21.5V81.4284H25.7982V77.1445Z" fill="#3A566F"/>
<path d="M25.7982 72.8555H21.5V77.1437H25.7982V72.8555Z" fill="#3A566F"/>
<path d="M25.7982 68.5723H21.5V72.8561H25.7982V68.5723Z" fill="#3A566F"/>
<path d="M25.7982 64.2832H21.5V68.5714H25.7982V64.2832Z" fill="#3A566F"/>
<path d="M25.7982 60H21.5V64.2838H25.7982V60Z" fill="#3A566F"/>
<path d="M25.7982 55.7168H21.5V60.0006H25.7982V55.7168Z" fill="#3A566F"/>
<path d="M25.7982 51.4277H21.5V55.7159H25.7982V51.4277Z" fill="#3A566F"/>
<path d="M25.7982 47.1445H21.5V51.4284H25.7982V47.1445Z" fill="#3A566F"/>
<path d="M25.7982 42.8555H21.5V47.1437H25.7982V42.8555Z" fill="#3A566F"/>
<path d="M25.7982 38.5723H21.5V42.8561H25.7982V38.5723Z" fill="#3A566F"/>
<path d="M25.7982 34.2891H21.5V38.5729H25.7982V34.2891Z" fill="#3A566F"/>
<path d="M25.7982 30H21.5V34.2882H25.7982V30Z" fill="#3A566F"/>
<path d="M25.7982 25.7168H21.5V30.0006H25.7982V25.7168Z" fill="#3A566F"/>
<path d="M25.7982 21.4277H21.5V25.7159H25.7982V21.4277Z" fill="#3A566F"/>
<path d="M25.7982 17.1445H21.5V21.4284H25.7982V17.1445Z" fill="#3A566F"/>
<path d="M25.7982 12.8594H21.5V17.1432H25.7982V12.8594Z" fill="black"/>
<path d="M25.7982 8.57227H21.5V12.8605H25.7982V8.57227Z" fill="black"/>
<path d="M25.7982 4.28906H21.5V8.5729H25.7982V4.28906Z" fill="black"/>
<path d="M21.5 72.8555H17.2018V77.1437H21.5V72.8555Z" fill="#3A566F"/>
<path d="M21.5 68.5723H17.2018V72.8561H21.5V68.5723Z" fill="#3A566F"/>
<path d="M21.5 64.2832H17.2018V68.5714H21.5V64.2832Z" fill="#3A566F"/>
<path d="M21.5 60H17.2018V64.2838H21.5V60Z" fill="#3A566F"/>
<path d="M21.5 55.7168H17.2018V60.0006H21.5V55.7168Z" fill="#3A566F"/>
<path d="M21.5 51.4277H17.2018V55.7159H21.5V51.4277Z" fill="#3A566F"/>
<path d="M21.5 47.1445H17.2018V51.4284H21.5V47.1445Z" fill="#3A566F"/>
<path d="M21.5 42.8555H17.2018V47.1437H21.5V42.8555Z" fill="#3A566F"/>
<path d="M21.5 38.5723H17.2018V42.8561H21.5V38.5723Z" fill="#3A566F"/>
<path d="M21.5 34.2891H17.2018V38.5729H21.5V34.2891Z" fill="#3A566F"/>
<path d="M21.5 30H17.2018V34.2882H21.5V30Z" fill="#3A566F"/>
<path d="M21.5 25.7168H17.2018V30.0006H21.5V25.7168Z" fill="#3A566F"/>
<path d="M21.5 21.4277H17.2018V25.7159H21.5V21.4277Z" fill="#3A566F"/>
<path d="M21.5 17.1445H17.2018V21.4284H21.5V17.1445Z" fill="#3A566F"/>
<path d="M21.5 12.8594H17.2018V17.1432H21.5V12.8594Z" fill="black"/>
<path d="M17.2017 81.4277H12.8991V85.7116H17.2017V81.4277Z" fill="#3A566F"/>
<path d="M17.2017 77.1445H12.8991V81.4284H17.2017V77.1445Z" fill="#3A566F"/>
<path d="M17.2017 72.8555H12.8991V77.1437H17.2017V72.8555Z" fill="#3A566F"/>
<path d="M17.2017 68.5723H12.8991V72.8561H17.2017V68.5723Z" fill="#3A566F"/>
<path d="M17.2017 64.2832H12.8991V68.5714H17.2017V64.2832Z" fill="#3A566F"/>
<path d="M17.2017 60H12.8991V64.2838H17.2017V60Z" fill="#3A566F"/>
<path d="M17.2017 55.7168H12.8991V60.0006H17.2017V55.7168Z" fill="#3A566F"/>
<path d="M17.2017 51.4277H12.8991V55.7159H17.2017V51.4277Z" fill="#3A566F"/>
<path d="M17.2017 47.1445H12.8991V51.4284H17.2017V47.1445Z" fill="#3A566F"/>
<path d="M17.2017 42.8555H12.8991V47.1437H17.2017V42.8555Z" fill="#3A566F"/>
<path d="M17.2017 38.5723H12.8991V42.8561H17.2017V38.5723Z" fill="#3A566F"/>
<path d="M17.2017 34.2891H12.8991V38.5729H17.2017V34.2891Z" fill="#3A566F"/>
<path d="M17.2017 30H12.8991V34.2882H17.2017V30Z" fill="#3A566F"/>
<path d="M17.2017 25.7168H12.8991V30.0006H17.2017V25.7168Z" fill="#3A566F"/>
<path d="M17.2017 21.4277H12.8991V25.7159H17.2017V21.4277Z" fill="#3A566F"/>
<path d="M17.2017 12.8594H12.8991V17.1432H17.2017V12.8594Z" fill="black"/>
<path d="M12.8991 42.8555H8.60089V47.1437H12.8991V42.8555Z" fill="#3A566F"/>
<path d="M12.8991 38.5723H8.60089V42.8561H12.8991V38.5723Z" fill="#3A566F"/>
<path d="M12.8991 34.2891H8.60089V38.5729H12.8991V34.2891Z" fill="#3A566F"/>
<path d="M12.8991 30H8.60089V34.2882H12.8991V30Z" fill="#3A566F"/>
<path d="M12.8991 25.7168H8.60089V30.0006H12.8991V25.7168Z" fill="#3A566F"/>
<path d="M12.8991 12.8594H8.60089V17.1432H12.8991V12.8594Z" fill="black"/>
<path d="M12.8991 64.2832H8.60089V68.5714H12.8991V64.2832Z" fill="#3A566F"/>
<path d="M12.8991 68.5723H8.60089V72.8605H12.8991V68.5723Z" fill="#3A566F"/>
<path d="M12.8991 60H8.60089V64.2838H12.8991V60Z" fill="#3A566F"/>
<path d="M12.8991 55.7168H8.60089V60.0006H12.8991V55.7168Z" fill="#3A566F"/>
<path d="M12.8991 51.4277H8.60089V55.7159H12.8991V51.4277Z" fill="#3A566F"/>
<path d="M12.8991 47.1445H8.60089V51.4284H12.8991V47.1445Z" fill="#3A566F"/>
<path d="M8.60086 38.5723H4.30261V42.8561H8.60086V38.5723Z" fill="#3A566F"/>
<path d="M8.60086 34.2891H4.30261V38.5729H8.60086V34.2891Z" fill="#3A566F"/>
<path d="M8.60086 30H4.30261V34.2882H8.60086V30Z" fill="#3A566F"/>
<path d="M8.60086 25.7168H4.30261V30.0006H8.60086V25.7168Z" fill="#3A566F"/>
<path d="M4.30263 68.5723H0V72.8561H4.30263V68.5723Z" fill="#3A566F"/>
<path d="M4.30263 64.2832H0V68.5714H4.30263V64.2832Z" fill="#3A566F"/>
<path d="M4.30263 60H0V64.2838H4.30263V60Z" fill="#3A566F"/>
<path d="M4.30263 55.7168H0V60.0006H4.30263V55.7168Z" fill="#3A566F"/>
<path d="M4.30263 51.4277H0V55.7159H4.30263V51.4277Z" fill="#3A566F"/>
<path d="M4.30263 47.1445H0V51.4284H4.30263V47.1445Z" fill="#3A566F"/>
<path d="M4.30263 42.8555H0V47.1437H4.30263V42.8555Z" fill="#3A566F"/>
<path d="M4.30263 38.5723H0V42.8561H4.30263V38.5723Z" fill="#3A566F"/>
<path d="M4.30263 34.2891H0V38.5729H4.30263V34.2891Z" fill="#3A566F"/>
<path d="M4.30263 30H0V34.2882H4.30263V30Z" fill="#3A566F"/>
</svg>
