<svg width="208" height="210" viewBox="0 0 208 210" fill="none" xmlns="http://www.w3.org/2000/svg">
<mask id="mask0" mask-type="alpha" maskUnits="userSpaceOnUse" x="0" y="0" width="208" height="210">
<path d="M139.406 10.1794C108.152 1.75015 89.9194 -2.87614 66.4744 5.19724C55.6875 8.90946 41.0327 16.2641 26.9709 31.0921C17.2714 41.3216 5.68062 53.5398 1.89831 73.9221C-0.388211 86.245 1.89171 97.7446 6.45816 120.737C12.382 150.588 20.6847 170.307 25.4488 180.502C32.8553 196.328 36.5519 204.241 42.1595 207.395C47.9648 210.66 55.5228 210.821 93.0626 186.475C121.693 167.914 124.487 163.162 137.884 159.582C154.568 155.13 157.342 160.601 169.032 154.6C190.994 143.324 200.351 114.163 201.702 109.781C203.264 104.715 213.747 69.1981 200.18 42.0473C191.245 24.1631 173.967 19.5018 139.406 10.1794Z" fill="black" stroke="black" stroke-miterlimit="10"/>
</mask>
<g mask="url(#mask0)">
<path d="M-109 122.271L49.1503 311.35M-16.9536 45.2815L141.197 234.36M-62.9768 83.7765L95.1735 272.855M29.0696 6.78645L187.22 195.865M116.514 -66.3541L274.664 122.725M-85.9884 103.024L72.1619 292.103M6.05798 26.034L164.208 215.113M93.502 -47.1066L251.652 141.972M-39.9652 64.529L118.185 253.608M52.0812 -12.4611L210.232 176.618M139.525 -85.6016L297.676 103.477M-99.7954 114.572L58.355 303.651M-7.74898 37.5825L150.401 226.661M79.6951 -35.5581L237.845 153.521M-53.7722 76.0775L104.378 265.156M38.2742 -0.912548L196.425 188.166M125.718 -74.0531L283.869 115.026M-76.7838 95.325L81.3666 284.404M15.2626 18.335L173.413 207.414M102.707 -54.8056L260.857 134.273M-30.7606 56.83L127.39 245.909M61.2858 -20.1601L219.436 168.919M148.73 -93.3006L306.88 95.778M-104.398 118.422L53.7527 307.501M-12.3513 41.432L145.799 230.511M75.0928 -31.7086L233.243 157.37M-58.3745 79.927L99.7758 269.006M33.6719 2.93695L191.822 192.016M121.116 -70.2036L279.266 118.875M-81.3861 99.1745L76.7642 288.253M10.6603 22.1845L168.811 211.263M98.1044 -50.9561L256.255 138.123M-35.3629 60.6795L122.787 249.758M56.6835 -16.3106L214.834 172.768M144.128 -89.4511L302.278 99.6275M-95.193 110.723L62.9573 299.802M-3.14666 33.733L155.004 222.812M84.2974 -39.4076L242.448 149.671M-49.1699 72.228L108.98 261.307M42.8765 -4.76205L201.027 184.317M130.321 -77.9026L288.471 111.176M-72.1814 91.4755L85.9689 280.554M19.8649 14.4855L178.015 203.564M107.309 -58.6551L265.459 130.424M-26.1583 52.9805L131.992 242.059M65.8881 -24.0096L224.038 165.069M153.332 -97.1501L311.483 91.9285M-90.5907 106.873L67.5596 295.952M1.45566 29.8835L159.606 218.962M88.8997 -43.2571L247.05 145.822M-44.5675 68.3785L113.583 257.457M47.4789 -8.61155L205.629 180.467M134.923 -81.7521L293.073 107.327M-67.5791 87.626L90.5712 276.705M24.4673 10.636L182.618 199.715M111.911 -62.5046L270.062 126.574M-21.5559 49.131L136.594 238.21M70.4904 -27.8591L228.641 161.22M157.935 -101L316.085 88.079" stroke="black"/>
</g>
</svg>
