<?xml version="1.0" encoding="utf-8"?>
<!-- Generator: Adobe Illustrator 24.0.1, SVG Export Plug-In . SVG Version: 6.00 Build 0)  -->
<svg version="1.1" id="Слой_1" xmlns="http://www.w3.org/2000/svg" xmlns:xlink="http://www.w3.org/1999/xlink" x="0px" y="0px"
	 viewBox="0 0 208 210" style="enable-background:new 0 0 208 210;" xml:space="preserve">
<style type="text/css">
	.st0{fill:none;stroke:#FFFFFF;stroke-miterlimit:10;}
</style>
<path class="st0" d="M139.4,10.2c-31.3-8.4-49.5-13.1-72.9-5C55.7,8.9,41,16.3,27,31.1C17.3,41.3,5.7,53.5,1.9,73.9
	c-2.3,12.3,0,23.8,4.6,46.8c5.9,29.9,14.2,49.6,19,59.8c7.4,15.8,11.1,23.7,16.7,26.9c5.8,3.3,13.4,3.4,50.9-20.9
	c28.6-18.6,31.4-23.3,44.8-26.9c16.7-4.5,19.5,1,31.1-5c22-11.3,31.3-40.4,32.7-44.8c1.6-5.1,12-40.6-1.5-67.7
	C191.2,24.2,174,19.5,139.4,10.2z"/>
</svg>
