<svg width="208" height="210" viewBox="0 0 208 210" fill="none" xmlns="http://www.w3.org/2000/svg">
<path d="M139.406 10.1794C108.152 1.75015 89.9194 -2.87614 66.4744 5.19724C55.6875 8.90946 41.0327 16.2641 26.9709 31.0921C17.2714 41.3216 5.68062 53.5398 1.89831 73.9221C-0.388211 86.245 1.89171 97.7446 6.45816 120.737C12.382 150.588 20.6847 170.307 25.4488 180.502C32.8553 196.328 36.5519 204.241 42.1595 207.395C47.9648 210.66 55.5228 210.821 93.0626 186.475C121.693 167.914 124.487 163.162 137.884 159.582C154.568 155.13 157.342 160.601 169.032 154.6C190.994 143.324 200.351 114.163 201.702 109.781C203.264 104.715 213.747 69.1981 200.18 42.0473C191.245 24.1631 173.967 19.5018 139.406 10.1794Z" stroke="black" stroke-miterlimit="10"/>
</svg>
