<svg width="100" height="93" viewBox="0 0 100 93" fill="none" xmlns="http://www.w3.org/2000/svg">
<path d="M20.1683 71.2974C23.5289 73.9211 25.2158 74.6049 38.7043 80.878C60.0012 90.7796 61.8858 91.903 66.6499 91.9519C69.0419 91.9728 80.3691 92.0914 87.4197 83.9552C88.5268 82.6783 90.0884 80.55 93.9762 64.2079C97.0007 51.4873 98.5096 44.9979 98.536 38.5643C98.5623 32.1377 98.5887 25.1738 94.9316 17.547C93.7784 15.1396 87.9338 2.96325 77.9113 1.44208C71.513 0.472155 70.4981 4.92403 61.0424 5.66368C54.5979 6.16609 53.9851 4.18437 41.742 2.38408C31.2649 0.841975 26.0197 0.0744206 21.3017 2.48178C17.4403 4.44954 14.798 8.44783 9.50674 16.4445C4.67671 23.7363 2.26494 27.3857 1.38196 31.8934C-0.443299 41.2787 3.43788 49.3311 5.69145 53.9993C10.2513 63.4334 16.7682 68.6388 20.1683 71.2974Z" stroke="black" stroke-miterlimit="10"/>
</svg>
