<?xml version="1.0" encoding="utf-8"?>
<!-- Generator: Adobe Illustrator 24.1.1, SVG Export Plug-In . SVG Version: 6.00 Build 0)  -->
<svg version="1.1" id="Слой_1" xmlns="http://www.w3.org/2000/svg" xmlns:xlink="http://www.w3.org/1999/xlink" x="0px" y="0px"
	 viewBox="0 0 121 87" style="enable-background:new 0 0 121 87;" xml:space="preserve">
<style type="text/css">
	.st0{fill:#E6A47B;}
	.st1{fill:#F7C186;}
	.st2{fill:#E5CCAA;}
	.st3{fill:#F4D9AE;}
</style>
<path class="st0" d="M116.7,82.9v-3.4V79h-4V63.2h4v-3.9h-4V43.5h4.1v-4H60.4v-7.8h-4v-7.9h-4v-0.1v-3.9v-4h-4V8h-0.1h-4h-0.1l0,0
	h0.1V0.1H4V4h4.1v3.4v8.4v0.1H4v4h4.1v3.8v0.1v1.4v2v12.3H4v4h4.1v3.9v7.7v4.1v0.1H4v3.9h4.1v4V79H4v0.5v3.4H0V83v3.9h4l0,0h112.7
	l0,0h0.1h4l0,0v-4H116.7z M92.7,47.4h8v4.5v7.3v0.1h-8.1v-0.1h0.1V47.4z M76.5,47.4h8.1v4v7.8v0.1h-8.1v-0.1l0,0V47.4z M60.5,59.2
	V47.4h7.9v4.5v7.3v0.1L60.5,59.2L60.5,59.2L60.5,59.2z M44.3,27.7h8.1v4v7.8h-8.1C44.3,39.5,44.3,27.7,44.3,27.7z M52.4,47.4v4v7.8
	v0.1h-8.1v-6.6h-0.1v-5.3H52.4z M28.2,6.9V4h8v11.8h-8V6.9z M28.2,27.7h8v11.8h-8V27.7z M28.2,47.4h8v5.3v6.5v0.1h-8v-0.1v-5.3V47.4
	z M12.1,7.3V4h4v2.9v8.9h-4V7.3z M12.1,27.7h4v11.8h-4V27.7z M12.1,59.2v-4.1v-7.7h4v6.5v5.3v0.1L12.1,59.2L12.1,59.2z M16.1,79h-4
	V67.2h4V79z M36.2,79h-8V67.2h8V79z M52.4,79h-8.1v-3.9v-7.9h8.1V79z M68.4,71.1L68.4,71.1V79h-7.9V67.2h7.9V71.1z M84.6,75.1V79
	h-8.1v-3.9l0,0V75l0,0v-3.8v-0.1v-3.9h8.1V75.1z M100.7,75.1V79h-8.1V67.2h8.1V75.1z"/>
<path class="st0" d="M120.9,83h-4v3.9h4V83z"/>
<rect x="112.8" y="82.9" class="st0" width="4" height="4"/>
<rect x="108.8" y="82.9" class="st0" width="4" height="4"/>
<rect x="104.8" y="82.9" class="st0" width="4" height="4"/>
<polygon class="st1" points="108.8,67.2 108.8,79 100.8,79 100.8,75.1 104.8,75.1 104.8,67.2 "/>
<rect x="100.8" y="82.9" class="st0" width="4" height="4"/>
<rect x="100.8" y="47.4" class="st1" width="8" height="11.8"/>
<rect x="96.7" y="82.9" class="st0" width="4" height="4"/>
<rect x="92.7" y="82.9" class="st0" width="4" height="4"/>
<rect x="88.7" y="82.9" class="st0" width="4" height="4"/>
<polygon class="st1" points="92.7,67.2 92.7,79 84.7,79 84.7,75.1 88.7,75.1 88.7,67.2 "/>
<rect x="84.7" y="82.9" class="st0" width="4" height="4"/>
<rect x="84.7" y="47.4" class="st1" width="8.1" height="11.8"/>
<rect x="80.6" y="82.9" class="st0" width="4" height="4"/>
<rect x="76.6" y="82.9" class="st0" width="4" height="4"/>
<rect x="72.6" y="82.9" class="st0" width="4" height="4"/>
<rect x="72.6" y="75.1" class="st2" width="4" height="4"/>
<rect x="72.6" y="67.2" class="st1" width="4" height="4"/>
<rect x="68.5" y="82.9" class="st0" width="4" height="4"/>
<rect x="68.5" y="71.1" class="st1" width="4" height="7.9"/>
<rect x="68.5" y="67.2" class="st2" width="4" height="4"/>
<rect x="68.5" y="47.4" class="st1" width="8.1" height="11.8"/>
<rect x="64.5" y="82.9" class="st0" width="4" height="4"/>
<rect x="60.5" y="82.9" class="st0" width="4" height="4"/>
<rect x="56.5" y="82.9" class="st0" width="4" height="4"/>
<rect x="52.5" y="82.9" class="st0" width="4" height="4"/>
<rect x="52.5" y="67.2" class="st1" width="8.1" height="11.8"/>
<rect x="52.5" y="47.4" class="st1" width="8.1" height="11.8"/>
<rect x="52.5" y="31.7" class="st0" width="4" height="7.9"/>
<rect x="52.5" y="23.8" class="st3" width="4" height="7.9"/>
<rect x="48.4" y="82.9" class="st0" width="4" height="4"/>
<rect x="8.2" y="19.8" class="st0" width="44.3" height="3.9"/>
<rect x="44.4" y="82.9" class="st0" width="4" height="4"/>
<rect x="44.4" y="11.9" class="st3" width="4" height="3.9"/>
<rect x="40.4" y="82.9" class="st0" width="4" height="4"/>
<rect x="36.3" y="82.9" class="st0" width="4" height="4"/>
<polygon class="st1" points="44.4,75.1 44.4,79 36.3,79 36.3,67.2 40.4,67.2 40.4,75.1 "/>
<rect x="36.3" y="47.4" class="st1" width="8" height="11.8"/>
<rect x="36.3" y="11.9" class="st1" width="8" height="3.9"/>
<rect x="36.3" y="8" class="st1" width="8" height="3.9"/>
<rect x="36.3" y="4" class="st0" width="4" height="4"/>
<rect x="32.3" y="82.9" class="st0" width="4" height="4"/>
<rect x="28.3" y="82.9" class="st0" width="4" height="4"/>
<rect x="24.3" y="82.9" class="st0" width="4" height="4"/>
<rect x="20.2" y="82.9" class="st0" width="4" height="4"/>
<rect x="16.2" y="82.9" class="st0" width="4" height="4"/>
<polygon class="st1" points="28.3,67.2 28.3,79 16.2,79 16.2,67.2 20.2,67.2 20.2,75.1 24.3,75.1 24.3,67.2 "/>
<rect x="16.2" y="47.4" class="st1" width="12.1" height="11.8"/>
<rect x="16.2" y="11.9" class="st1" width="12.1" height="3.9"/>
<rect x="16.2" y="8" class="st1" width="12.1" height="3.9"/>
<rect x="16.2" y="4" class="st0" width="12.1" height="4"/>
<rect x="12.2" y="82.9" class="st0" width="4" height="4"/>
<rect x="8.2" y="82.9" class="st0" width="4" height="4"/>
<rect x="8.2" y="67.2" class="st1" width="4" height="11.8"/>
<polygon class="st0" points="112.8,63.2 112.8,79 108.8,79 108.8,67.2 104.8,67.2 104.8,75.1 100.8,75.1 100.8,67.2 88.7,67.2 
	88.7,75.1 84.7,75.1 84.7,67.2 44.4,67.2 44.4,75.1 40.4,75.1 40.4,67.2 24.3,67.2 24.3,75.1 20.2,75.1 20.2,67.2 8.2,67.2 
	8.2,63.2 "/>
<rect x="8.2" y="47.4" class="st1" width="4" height="11.8"/>
<polygon class="st0" points="112.8,43.5 112.8,59.3 108.8,59.3 108.8,47.4 8.2,47.4 8.2,43.5 "/>
<polygon class="st1" points="52.5,23.8 52.5,27.7 44.4,27.7 44.4,39.5 36.3,39.5 36.3,27.7 28.3,27.7 28.3,39.5 16.2,39.5 
	16.2,27.7 12.2,27.7 12.2,39.5 8.2,39.5 8.2,23.8 "/>
<rect x="8.2" y="8" class="st1" width="4" height="3.9"/>
<rect x="8.2" y="11.9" class="st1" width="4" height="3.9"/>
<rect x="8.2" y="4" class="st0" width="4" height="4"/>
<rect x="4.1" y="82.9" class="st0" width="4" height="4"/>
<polygon class="st3" points="76.6,79 76.6,71.1 72.6,71.1 72.6,79 4.1,79 4.1,82.9 116.8,82.9 116.8,79 "/>
<rect x="4.1" y="59.3" class="st3" width="112.7" height="3.9"/>
<polygon class="st3" points="116.9,39.5 116.9,43.5 4.1,43.5 4.1,39.5 56.5,39.5 56.5,31.7 60.5,31.7 60.5,39.5 "/>
<polygon class="st3" points="48.4,15.9 48.4,8 44.4,8 44.4,15.9 4.1,15.9 4.1,19.9 52.4,19.9 52.4,15.9 "/>
<polygon class="st3" points="44.4,0.1 44.4,8 40.4,8 40.4,4 4.1,4 4.1,0.1 "/>
<path class="st0" d="M4.1,83h-4v3.9h4V83z"/>
</svg>
