<?xml version="1.0" encoding="utf-8"?>
<!-- Generator: Adobe Illustrator 24.1.1, SVG Export Plug-In . SVG Version: 6.00 Build 0)  -->
<svg version="1.1" id="Слой_1" xmlns="http://www.w3.org/2000/svg" xmlns:xlink="http://www.w3.org/1999/xlink" x="0px" y="0px"
	 viewBox="0 0 120.7 86.9" style="enable-background:new 0 0 120.7 86.9;" xml:space="preserve">
<style type="text/css">
	.st0{fill:#E6A47B;}
	.st1{fill:#F7C186;}
	.st2{fill:#E5CCAA;}
	.st3{fill:#F4D9AE;}
	.st4{fill:#719CB9;}
	.st5{fill:#DB0303;}
	.st6{fill:#3AB900;}
</style>
<path class="st0" d="M120.7,82.9L120.7,82.9l-4-0.1h-0.1v-3.4v-0.5h-4V63.1h4v-3.9h-4V43.4h4.1v-4H60.3v-7.8h-4v-7.9h-4v-0.1v-3.9
	v-4h-4V7.9h-0.1h-4V0H3.9v3.9H8v3.4v8.4v0.1H3.9v4H8v3.8v0.1v1.4v2v12.3H3.9v4H8v3.9V55v4.1v0.1H3.9v3.9H8v4v11.8H3.9v0.5v3.4h-4
	v0.1v3.9H0h3.9H4h4h0.1h4h4h4h4h0.1h4h4h4h4h0.1h4h4h4h0.1h4h4h4h4h4h0.1h4h4h4h0.1h4h4h4h4h0.1h4h4h4h3.9h0.1h0.1h3.9h0.1v-3.9
	H120.7z M12,7.2V3.9h4v2.9v8.9h-4V7.2z M12,27.6h4v11.8h-4V27.6z M12,55v-7.7h4v6.5v5.3v0.1l-4-0.1V55z M12,67.1h4v11.8h-4V67.1z
	 M28.1,6.8V3.9h8v11.8h-8V6.8z M28.1,27.6h8v11.8h-8V27.6z M28.1,59.1v-5.3v-6.5h8v5.3v6.5v0.1L28.1,59.1L28.1,59.1z M28.1,67.1h8
	v11.8h-8V67.1z M52.3,78.9h-8.1V75v-7.9h8.1V78.9z M52.3,51.3v7.8v0.1h-8.1v-6.6h-0.1v-5.3h8.2V51.3z M52.3,31.6v7.8h-8.1V27.6h8.1
	V31.6z M60.4,47.3h7.9v4.5v7.3v0.1l-7.9-0.1V47.3z M60.4,67.1h7.9V71v7.9h-7.9V67.1z M84.5,75v3.9h-8.1V75v-0.1v-3.8V71v-3.9h8.1V75
	z M84.5,51.3v7.8v0.1h-8.1v-0.1V47.3h8.1V51.3z M100.6,75v3.9h-8.1V67.1h8.1V75z M100.6,51.8v7.3v0.1h-8.1v-0.1h0.1V47.3h8V51.8z"/>
<polygon class="st1" points="108.7,67.1 108.7,78.9 100.7,78.9 100.7,75 104.7,75 104.7,67.1 "/>
<rect x="100.7" y="47.3" class="st1" width="8" height="11.8"/>
<polygon class="st1" points="92.6,67.1 92.6,78.9 84.6,78.9 84.6,75 88.6,75 88.6,67.1 "/>
<rect x="84.6" y="47.3" class="st1" width="8.1" height="11.8"/>
<rect x="72.5" y="75" class="st2" width="4" height="4"/>
<rect x="72.5" y="67.1" class="st1" width="4" height="4"/>
<rect x="68.4" y="71" class="st1" width="4" height="7.9"/>
<rect x="68.4" y="67.1" class="st2" width="4" height="4"/>
<rect x="68.4" y="47.3" class="st1" width="8.1" height="11.8"/>
<rect x="52.4" y="67.1" class="st1" width="8.1" height="11.8"/>
<rect x="52.4" y="47.3" class="st1" width="8.1" height="11.8"/>
<rect x="52.4" y="31.6" class="st0" width="4" height="7.9"/>
<rect x="52.4" y="23.7" class="st3" width="4" height="7.9"/>
<rect x="8.1" y="19.7" class="st0" width="44.3" height="3.9"/>
<rect x="44.3" y="11.8" class="st3" width="4" height="3.9"/>
<polygon class="st1" points="44.3,75 44.3,78.9 36.2,78.9 36.2,67.1 40.3,67.1 40.3,75 "/>
<rect x="36.2" y="47.3" class="st1" width="8" height="11.8"/>
<rect x="36.2" y="11.8" class="st1" width="8" height="3.9"/>
<rect x="36.2" y="7.9" class="st1" width="8" height="3.9"/>
<rect x="36.2" y="3.9" class="st0" width="4" height="4"/>
<polygon class="st1" points="28.2,67.1 28.2,78.9 16.1,78.9 16.1,67.1 20.1,67.1 20.1,75 24.2,75 24.2,67.1 "/>
<rect x="16.1" y="47.3" class="st1" width="12.1" height="11.8"/>
<rect x="16.1" y="11.8" class="st1" width="12.1" height="3.9"/>
<rect x="16.1" y="7.9" class="st1" width="12.1" height="3.9"/>
<rect x="16.1" y="3.9" class="st0" width="12.1" height="4"/>
<rect x="8.1" y="67.1" class="st1" width="4" height="11.8"/>
<polygon class="st0" points="112.7,63.1 112.7,78.9 108.7,78.9 108.7,67.1 104.7,67.1 104.7,75 100.7,75 100.7,67.1 88.6,67.1 
	88.6,75 84.6,75 84.6,67.1 44.3,67.1 44.3,75 40.3,75 40.3,67.1 24.2,67.1 24.2,75 20.1,75 20.1,67.1 8.1,67.1 8.1,63.1 "/>
<rect x="8.1" y="47.3" class="st1" width="4" height="11.8"/>
<polygon class="st0" points="112.7,43.4 112.7,59.2 108.7,59.2 108.7,47.3 8.1,47.3 8.1,43.4 "/>
<polygon class="st1" points="52.4,23.7 52.4,27.6 44.3,27.6 44.3,39.4 36.2,39.4 36.2,27.6 28.2,27.6 28.2,39.4 16.1,39.4 
	16.1,27.6 12.1,27.6 12.1,39.4 8.1,39.4 8.1,23.7 "/>
<rect x="8.1" y="7.9" class="st1" width="4" height="3.9"/>
<rect x="8.1" y="11.8" class="st1" width="4" height="3.9"/>
<rect x="8.1" y="3.9" class="st0" width="4" height="4"/>
<polygon class="st3" points="76.5,78.9 76.5,71 72.5,71 72.5,78.9 4,78.9 4,82.8 116.7,82.8 116.7,78.9 "/>
<rect x="4" y="59.2" class="st3" width="112.7" height="3.9"/>
<polygon class="st3" points="116.8,39.4 116.8,43.4 4,43.4 4,39.4 56.4,39.4 56.4,31.6 60.4,31.6 60.4,39.4 "/>
<polygon class="st3" points="48.3,15.8 48.3,7.9 44.3,7.9 44.3,15.8 4,15.8 4,19.8 52.3,19.8 52.3,15.8 "/>
<polygon class="st3" points="44.3,0 44.3,7.9 40.3,7.9 40.3,3.9 4,3.9 4,0 "/>
<rect x="30.1" y="27.7" class="st4" width="4" height="4"/>
<rect x="62.5" y="47.3" class="st4" width="4" height="4"/>
<rect x="30.1" y="47.3" class="st5" width="4" height="4"/>
<rect x="30.1" y="67.1" class="st6" width="4" height="4"/>
<rect x="78.5" y="67.1" class="st5" width="4" height="4"/>
<rect x="94.7" y="67.1" class="st6" width="4" height="4"/>
</svg>
