<?xml version="1.0" encoding="utf-8"?>
<!-- Generator: Adobe Illustrator 24.1.1, SVG Export Plug-In . SVG Version: 6.00 Build 0)  -->
<svg version="1.1" id="Слой_1" xmlns="http://www.w3.org/2000/svg" xmlns:xlink="http://www.w3.org/1999/xlink" x="0px" y="0px"
	 viewBox="0 0 846.9 119" style="enable-background:new 0 0 846.9 119;" xml:space="preserve">
<style type="text/css">
	.st0{fill:#E6A47B;}
	.st1{fill:#F7C186;}
	.st2{fill:#E5CCAA;}
	.st3{fill:#F4D9AE;}
	.st4{fill:#3AB900;}
	.st5{fill:#DB0303;}
	.st6{fill:#719CB9;}
</style>
<path class="st0" d="M241.9,115h-4v3.9h4V115z"/>
<rect x="112.8" y="114.9" class="st0" width="4" height="4"/>
<rect x="108.8" y="114.9" class="st0" width="4" height="4"/>
<rect x="104.8" y="114.9" class="st0" width="4" height="4"/>
<polygon class="st1" points="108.8,99.2 108.8,111 100.8,111 100.8,107.1 104.8,107.1 104.8,99.2 "/>
<rect x="100.8" y="114.9" class="st0" width="4" height="4"/>
<rect x="100.8" y="79.4" class="st1" width="8" height="11.8"/>
<rect x="96.7" y="114.9" class="st0" width="4" height="4"/>
<rect x="92.7" y="114.9" class="st0" width="4" height="4"/>
<rect x="88.7" y="114.9" class="st0" width="4" height="4"/>
<polygon class="st1" points="92.7,99.2 92.7,111 84.7,111 84.7,107.1 88.7,107.1 88.7,99.2 "/>
<rect x="84.7" y="114.9" class="st0" width="4" height="4"/>
<rect x="84.7" y="79.4" class="st1" width="8.1" height="11.8"/>
<rect x="80.6" y="114.9" class="st0" width="4" height="4"/>
<rect x="76.6" y="114.9" class="st0" width="4" height="4"/>
<rect x="72.6" y="114.9" class="st0" width="4" height="4"/>
<rect x="72.6" y="107.1" class="st2" width="4" height="4"/>
<rect x="72.6" y="99.2" class="st1" width="4" height="4"/>
<rect x="68.5" y="114.9" class="st0" width="4" height="4"/>
<rect x="68.5" y="103.1" class="st1" width="4" height="7.9"/>
<rect x="68.5" y="99.2" class="st2" width="4" height="4"/>
<rect x="68.5" y="79.4" class="st1" width="8.1" height="11.8"/>
<rect x="64.5" y="114.9" class="st0" width="4" height="4"/>
<rect x="60.5" y="114.9" class="st0" width="4" height="4"/>
<rect x="56.5" y="114.9" class="st0" width="4" height="4"/>
<rect x="52.5" y="114.9" class="st0" width="4" height="4"/>
<rect x="52.5" y="99.2" class="st1" width="8.1" height="11.8"/>
<rect x="52.5" y="79.4" class="st1" width="8.1" height="11.8"/>
<rect x="52.5" y="63.7" class="st0" width="4" height="7.9"/>
<rect x="52.5" y="55.8" class="st3" width="4" height="7.9"/>
<rect x="48.4" y="114.9" class="st0" width="4" height="4"/>
<rect x="8.2" y="51.8" class="st0" width="44.3" height="3.9"/>
<rect x="44.4" y="114.9" class="st0" width="4" height="4"/>
<rect x="44.4" y="43.9" class="st3" width="4" height="3.9"/>
<rect x="40.4" y="114.9" class="st0" width="4" height="4"/>
<rect x="36.3" y="114.9" class="st0" width="4" height="4"/>
<polygon class="st1" points="44.4,107.1 44.4,111 36.3,111 36.3,99.2 40.4,99.2 40.4,107.1 "/>
<rect x="36.3" y="79.4" class="st1" width="8" height="11.8"/>
<rect x="36.3" y="43.9" class="st1" width="8" height="3.9"/>
<rect x="36.3" y="40" class="st1" width="8" height="3.9"/>
<rect x="36.3" y="36" class="st0" width="4" height="4"/>
<path class="st0" d="M842.7,114.9v-3.4V111h-4V95.2h4v-3.9h-4V75.5h4.1v-4h-56.4v-7.8h-4v-7.9h-4v-0.1v-3.9v-4h-4V40h-0.1h-4h-0.1
	l0,0h0.1v-7.9H730V36h4.1v3.4v8.4v0.1H730v4h4.1v3.8v0.1v1.4v2v12.3H730v4h4.1v3.9v7.7v4.1v0.1H730v3.9h4.1v4V111H730v0.5v3.4h-4
	v0.1v3.9h4l0,0h112.7l0,0h0.1h4l0,0v-4H842.7z M818.7,79.4h8v4.5v7.3v0.1h-8.1v-0.1h0.1V79.4z M802.5,79.4h8.1v4v7.8v0.1h-8.1v-0.1
	l0,0V79.4z M786.5,91.2V79.4h7.9v4.5v7.3v0.1L786.5,91.2L786.5,91.2L786.5,91.2z M770.3,59.7h8.1v4v7.8h-8.1
	C770.3,71.5,770.3,59.7,770.3,59.7z M778.4,79.4v4v7.8v0.1h-8.1v-6.6h-0.1v-5.3H778.4z M754.2,38.9V36h8v11.8h-8V38.9z M754.2,59.7
	h8v11.8h-8V59.7z M754.2,79.4h8v5.3v6.5v0.1h-8v-0.1v-5.3V79.4z M738.1,39.3V36h4v2.9v8.9h-4V39.3z M738.1,59.7h4v11.8h-4V59.7z
	 M738.1,91.2v-4.1v-7.7h4v6.5v5.3v0.1L738.1,91.2L738.1,91.2z M742.1,111h-4V99.2h4V111z M762.2,111h-8V99.2h8V111z M778.4,111h-8.1
	v-3.9v-7.9h8.1V111z M794.4,103.1L794.4,103.1v7.9h-7.9V99.2h7.9V103.1z M810.6,107.1v3.9h-8.1v-3.9l0,0V107l0,0v-3.8v-0.1v-3.9h8.1
	V107.1z M826.7,107.1v3.9h-8.1V99.2h8.1V107.1z"/>
<path class="st0" d="M846.9,115h-4v3.9h4V115z"/>
<rect x="838.8" y="114.9" class="st0" width="4" height="4"/>
<rect x="834.8" y="114.9" class="st0" width="4" height="4"/>
<rect x="830.8" y="114.9" class="st0" width="4" height="4"/>
<polygon class="st1" points="834.8,99.2 834.8,111 826.8,111 826.8,107.1 830.8,107.1 830.8,99.2 "/>
<rect x="826.8" y="114.9" class="st0" width="4" height="4"/>
<rect x="826.8" y="79.4" class="st1" width="8" height="11.8"/>
<rect x="822.7" y="114.9" class="st0" width="4" height="4"/>
<rect x="818.7" y="114.9" class="st0" width="4" height="4"/>
<rect x="814.7" y="114.9" class="st0" width="4" height="4"/>
<polygon class="st1" points="818.7,99.2 818.7,111 810.7,111 810.7,107.1 814.7,107.1 814.7,99.2 "/>
<rect x="810.7" y="114.9" class="st0" width="4" height="4"/>
<rect x="810.7" y="79.4" class="st1" width="8.1" height="11.8"/>
<rect x="806.6" y="114.9" class="st0" width="4" height="4"/>
<rect x="802.6" y="114.9" class="st0" width="4" height="4"/>
<rect x="798.6" y="114.9" class="st0" width="4" height="4"/>
<rect x="798.6" y="107.1" class="st2" width="4" height="4"/>
<rect x="798.6" y="99.2" class="st1" width="4" height="4"/>
<rect x="794.5" y="114.9" class="st0" width="4" height="4"/>
<rect x="794.5" y="103.1" class="st1" width="4" height="7.9"/>
<rect x="794.5" y="99.2" class="st2" width="4" height="4"/>
<rect x="794.5" y="79.4" class="st1" width="8.1" height="11.8"/>
<rect x="790.5" y="114.9" class="st0" width="4" height="4"/>
<rect x="786.5" y="114.9" class="st0" width="4" height="4"/>
<rect x="782.5" y="114.9" class="st0" width="4" height="4"/>
<rect x="778.5" y="114.9" class="st0" width="4" height="4"/>
<rect x="778.5" y="99.2" class="st1" width="8.1" height="11.8"/>
<rect x="778.5" y="79.4" class="st1" width="8.1" height="11.8"/>
<rect x="778.5" y="63.7" class="st0" width="4" height="7.9"/>
<rect x="778.5" y="55.8" class="st3" width="4" height="7.9"/>
<rect x="774.4" y="114.9" class="st0" width="4" height="4"/>
<rect x="734.2" y="51.8" class="st0" width="44.3" height="3.9"/>
<rect x="770.4" y="114.9" class="st0" width="4" height="4"/>
<rect x="770.4" y="43.9" class="st3" width="4" height="3.9"/>
<rect x="766.4" y="114.9" class="st0" width="4" height="4"/>
<rect x="762.3" y="114.9" class="st0" width="4" height="4"/>
<polygon class="st1" points="770.4,107.1 770.4,111 762.3,111 762.3,99.2 766.4,99.2 766.4,107.1 "/>
<rect x="762.3" y="79.4" class="st1" width="8" height="11.8"/>
<rect x="762.3" y="43.9" class="st1" width="8" height="3.9"/>
<rect x="762.3" y="40" class="st1" width="8" height="3.9"/>
<rect x="762.3" y="36" class="st0" width="4" height="4"/>
<rect x="758.3" y="114.9" class="st0" width="4" height="4"/>
<rect x="754.3" y="114.9" class="st0" width="4" height="4"/>
<rect x="750.3" y="114.9" class="st0" width="4" height="4"/>
<rect x="746.2" y="114.9" class="st0" width="4" height="4"/>
<rect x="742.2" y="114.9" class="st0" width="4" height="4"/>
<polygon class="st1" points="754.3,99.2 754.3,111 742.2,111 742.2,99.2 746.2,99.2 746.2,107.1 750.3,107.1 750.3,99.2 "/>
<rect x="742.2" y="79.4" class="st1" width="12.1" height="11.8"/>
<rect x="742.2" y="43.9" class="st1" width="12.1" height="3.9"/>
<rect x="742.2" y="40" class="st1" width="12.1" height="3.9"/>
<rect x="742.2" y="36" class="st0" width="12.1" height="4"/>
<rect x="738.2" y="114.9" class="st0" width="4" height="4"/>
<rect x="734.2" y="114.9" class="st0" width="4" height="4"/>
<rect x="734.2" y="99.2" class="st1" width="4" height="11.8"/>
<polygon class="st0" points="838.8,95.2 838.8,111 834.8,111 834.8,99.2 830.8,99.2 830.8,107.1 826.8,107.1 826.8,99.2 814.7,99.2 
	814.7,107.1 810.7,107.1 810.7,99.2 770.4,99.2 770.4,107.1 766.4,107.1 766.4,99.2 750.3,99.2 750.3,107.1 746.2,107.1 746.2,99.2 
	734.2,99.2 734.2,95.2 "/>
<rect x="734.2" y="79.4" class="st1" width="4" height="11.8"/>
<polygon class="st0" points="838.8,75.5 838.8,91.3 834.8,91.3 834.8,79.4 734.2,79.4 734.2,75.5 "/>
<polygon class="st1" points="778.5,55.8 778.5,59.7 770.4,59.7 770.4,71.5 762.3,71.5 762.3,59.7 754.3,59.7 754.3,71.5 742.2,71.5 
	742.2,59.7 738.2,59.7 738.2,71.5 734.2,71.5 734.2,55.8 "/>
<rect x="734.2" y="40" class="st1" width="4" height="3.9"/>
<rect x="734.2" y="43.9" class="st1" width="4" height="3.9"/>
<rect x="734.2" y="36" class="st0" width="4" height="4"/>
<rect x="730.1" y="114.9" class="st0" width="4" height="4"/>
<polygon class="st3" points="802.6,111 802.6,103.1 798.6,103.1 798.6,111 730.1,111 730.1,114.9 842.8,114.9 842.8,111 "/>
<rect x="730.1" y="91.3" class="st3" width="112.7" height="3.9"/>
<polygon class="st3" points="842.9,71.5 842.9,75.5 730.1,75.5 730.1,71.5 782.5,71.5 782.5,63.7 786.5,63.7 786.5,71.5 "/>
<polygon class="st3" points="774.4,47.9 774.4,40 770.4,40 770.4,47.9 730.1,47.9 730.1,51.9 778.4,51.9 778.4,47.9 "/>
<polygon class="st3" points="770.4,32.1 770.4,40 766.4,40 766.4,36 730.1,36 730.1,32.1 "/>
<path class="st0" d="M730.1,115h-4v3.9h4V115z"/>
<rect x="756.2" y="36" class="st4" width="4" height="4"/>
<rect x="804.5" y="79.4" class="st5" width="4" height="4"/>
<rect x="820.7" y="79.4" class="st6" width="4" height="4"/>
<rect x="756.2" y="79.4" class="st5" width="4" height="4"/>
<rect x="756.2" y="99.2" class="st4" width="4" height="4"/>
<rect x="788.5" y="99.2" class="st6" width="4" height="4"/>
<rect x="820.8" y="99.2" class="st4" width="4" height="4"/>
<path class="st0" d="M721.7,114.9v-3.4V111h-4V95.2h4v-3.9h-4V75.5h4.1v-4h-56.4v-7.8h-4v-7.9h-4v-0.1v-3.9v-4h-4V40h-0.1h-4h-0.1
	l0,0h0.1v-7.9H609V36h4.1v3.4v8.4v0.1H609v4h4.1v3.8v0.1v1.4v2v12.3H609v4h4.1v3.9v7.7v4.1v0.1H609v3.9h4.1v4V111H609v0.5v3.4h-4
	v0.1v3.9h4l0,0h112.7l0,0h0.1h4l0,0v-4H721.7z M697.7,79.4h8v4.5v7.3v0.1h-8.1v-0.1h0.1V79.4z M681.5,79.4h8.1v4v7.8v0.1h-8.1v-0.1
	l0,0V79.4z M665.5,91.2V79.4h7.9v4.5v7.3v0.1L665.5,91.2L665.5,91.2L665.5,91.2z M649.3,59.7h8.1v4v7.8h-8.1
	C649.3,71.5,649.3,59.7,649.3,59.7z M657.4,79.4v4v7.8v0.1h-8.1v-6.6h-0.1v-5.3H657.4z M633.2,38.9V36h8v11.8h-8V38.9z M633.2,59.7
	h8v11.8h-8V59.7z M633.2,79.4h8v5.3v6.5v0.1h-8v-0.1v-5.3V79.4z M617.1,39.3V36h4v2.9v8.9h-4V39.3z M617.1,59.7h4v11.8h-4V59.7z
	 M617.1,91.2v-4.1v-7.7h4v6.5v5.3v0.1L617.1,91.2L617.1,91.2z M621.1,111h-4V99.2h4V111z M641.2,111h-8V99.2h8V111z M657.4,111h-8.1
	v-3.9v-7.9h8.1V111z M673.4,103.1L673.4,103.1v7.9h-7.9V99.2h7.9V103.1z M689.6,107.1v3.9h-8.1v-3.9l0,0V107l0,0v-3.8v-0.1v-3.9h8.1
	V107.1z M705.7,107.1v3.9h-8.1V99.2h8.1V107.1z"/>
<path class="st0" d="M725.9,115h-4v3.9h4V115z"/>
<rect x="717.8" y="114.9" class="st0" width="4" height="4"/>
<rect x="713.8" y="114.9" class="st0" width="4" height="4"/>
<rect x="709.8" y="114.9" class="st0" width="4" height="4"/>
<polygon class="st1" points="713.8,99.2 713.8,111 705.8,111 705.8,107.1 709.8,107.1 709.8,99.2 "/>
<rect x="705.8" y="114.9" class="st0" width="4" height="4"/>
<rect x="705.8" y="79.4" class="st1" width="8" height="11.8"/>
<rect x="701.7" y="114.9" class="st0" width="4" height="4"/>
<rect x="697.7" y="114.9" class="st0" width="4" height="4"/>
<rect x="693.7" y="114.9" class="st0" width="4" height="4"/>
<polygon class="st1" points="697.7,99.2 697.7,111 689.7,111 689.7,107.1 693.7,107.1 693.7,99.2 "/>
<rect x="689.7" y="114.9" class="st0" width="4" height="4"/>
<rect x="689.7" y="79.4" class="st1" width="8.1" height="11.8"/>
<rect x="685.6" y="114.9" class="st0" width="4" height="4"/>
<rect x="681.6" y="114.9" class="st0" width="4" height="4"/>
<rect x="677.6" y="114.9" class="st0" width="4" height="4"/>
<rect x="677.6" y="107.1" class="st2" width="4" height="4"/>
<rect x="677.6" y="99.2" class="st1" width="4" height="4"/>
<rect x="673.5" y="114.9" class="st0" width="4" height="4"/>
<rect x="673.5" y="103.1" class="st1" width="4" height="7.9"/>
<rect x="673.5" y="99.2" class="st2" width="4" height="4"/>
<rect x="673.5" y="79.4" class="st1" width="8.1" height="11.8"/>
<rect x="669.5" y="114.9" class="st0" width="4" height="4"/>
<rect x="665.5" y="114.9" class="st0" width="4" height="4"/>
<rect x="661.5" y="114.9" class="st0" width="4" height="4"/>
<rect x="657.5" y="114.9" class="st0" width="4" height="4"/>
<rect x="657.5" y="99.2" class="st1" width="8.1" height="11.8"/>
<rect x="657.5" y="79.4" class="st1" width="8.1" height="11.8"/>
<rect x="657.5" y="63.7" class="st0" width="4" height="7.9"/>
<rect x="657.5" y="55.8" class="st3" width="4" height="7.9"/>
<rect x="653.4" y="114.9" class="st0" width="4" height="4"/>
<rect x="613.2" y="51.8" class="st0" width="44.3" height="3.9"/>
<rect x="649.4" y="114.9" class="st0" width="4" height="4"/>
<rect x="649.4" y="43.9" class="st3" width="4" height="3.9"/>
<rect x="645.4" y="114.9" class="st0" width="4" height="4"/>
<rect x="641.3" y="114.9" class="st0" width="4" height="4"/>
<polygon class="st1" points="649.4,107.1 649.4,111 641.3,111 641.3,99.2 645.4,99.2 645.4,107.1 "/>
<rect x="641.3" y="79.4" class="st1" width="8" height="11.8"/>
<rect x="641.3" y="43.9" class="st1" width="8" height="3.9"/>
<rect x="641.3" y="40" class="st1" width="8" height="3.9"/>
<rect x="641.3" y="36" class="st0" width="4" height="4"/>
<rect x="637.3" y="114.9" class="st0" width="4" height="4"/>
<rect x="633.3" y="114.9" class="st0" width="4" height="4"/>
<rect x="629.3" y="114.9" class="st0" width="4" height="4"/>
<rect x="625.2" y="114.9" class="st0" width="4" height="4"/>
<rect x="621.2" y="114.9" class="st0" width="4" height="4"/>
<polygon class="st1" points="633.3,99.2 633.3,111 621.2,111 621.2,99.2 625.2,99.2 625.2,107.1 629.3,107.1 629.3,99.2 "/>
<rect x="621.2" y="79.4" class="st1" width="12.1" height="11.8"/>
<rect x="621.2" y="43.9" class="st1" width="12.1" height="3.9"/>
<rect x="621.2" y="40" class="st1" width="12.1" height="3.9"/>
<rect x="621.2" y="36" class="st0" width="12.1" height="4"/>
<rect x="617.2" y="114.9" class="st0" width="4" height="4"/>
<rect x="613.2" y="114.9" class="st0" width="4" height="4"/>
<rect x="613.2" y="99.2" class="st1" width="4" height="11.8"/>
<polygon class="st0" points="717.8,95.2 717.8,111 713.8,111 713.8,99.2 709.8,99.2 709.8,107.1 705.8,107.1 705.8,99.2 693.7,99.2 
	693.7,107.1 689.7,107.1 689.7,99.2 649.4,99.2 649.4,107.1 645.4,107.1 645.4,99.2 629.3,99.2 629.3,107.1 625.2,107.1 625.2,99.2 
	613.2,99.2 613.2,95.2 "/>
<rect x="613.2" y="79.4" class="st1" width="4" height="11.8"/>
<polygon class="st0" points="717.8,75.5 717.8,91.3 713.8,91.3 713.8,79.4 613.2,79.4 613.2,75.5 "/>
<polygon class="st1" points="657.5,55.8 657.5,59.7 649.4,59.7 649.4,71.5 641.3,71.5 641.3,59.7 633.3,59.7 633.3,71.5 621.2,71.5 
	621.2,59.7 617.2,59.7 617.2,71.5 613.2,71.5 613.2,55.8 "/>
<rect x="613.2" y="40" class="st1" width="4" height="3.9"/>
<rect x="613.2" y="43.9" class="st1" width="4" height="3.9"/>
<rect x="613.2" y="36" class="st0" width="4" height="4"/>
<rect x="609.1" y="114.9" class="st0" width="4" height="4"/>
<polygon class="st3" points="681.6,111 681.6,103.1 677.6,103.1 677.6,111 609.1,111 609.1,114.9 721.8,114.9 721.8,111 "/>
<rect x="609.1" y="91.3" class="st3" width="112.7" height="3.9"/>
<polygon class="st3" points="721.9,71.5 721.9,75.5 609.1,75.5 609.1,71.5 661.5,71.5 661.5,63.7 665.5,63.7 665.5,71.5 "/>
<polygon class="st3" points="653.4,47.9 653.4,40 649.4,40 649.4,47.9 609.1,47.9 609.1,51.9 657.4,51.9 657.4,47.9 "/>
<polygon class="st3" points="649.4,32.1 649.4,40 645.4,40 645.4,36 609.1,36 609.1,32.1 "/>
<path class="st0" d="M609.1,115h-4v3.9h4V115z"/>
<rect x="651.4" y="59.8" class="st5" width="4" height="4"/>
<rect x="683.5" y="79.4" class="st5" width="4" height="4"/>
<rect x="635.2" y="79.4" class="st5" width="4" height="4"/>
<rect x="635.2" y="99.2" class="st4" width="4" height="4"/>
<rect x="667.5" y="99.2" class="st6" width="4" height="4"/>
<rect x="683.7" y="99.2" class="st5" width="4" height="4"/>
<path class="st0" d="M600.7,114.9v-3.4V111h-4V95.2h4v-3.9h-4V75.5h4.1v-4h-56.4v-7.8h-4v-7.9h-4v-0.1v-3.9v-4h-4V40h-0.1h-4h-0.1
	l0,0h0.1v-7.9H488V36h4.1v3.4v8.4v0.1H488v4h4.1v3.8v0.1v1.4v2v12.3H488v4h4.1v3.9v7.7v4.1v0.1H488v3.9h4.1v4V111H488v0.5v3.4h-4
	v0.1v3.9h4l0,0h112.7l0,0h0.1h4l0,0v-4H600.7z M576.7,79.4h8v4.5v7.3v0.1h-8.1v-0.1h0.1V79.4z M560.5,79.4h8.1v4v7.8v0.1h-8.1v-0.1
	l0,0V79.4z M544.5,91.2V79.4h7.9v4.5v7.3v0.1L544.5,91.2L544.5,91.2L544.5,91.2z M528.3,59.7h8.1v4v7.8h-8.1
	C528.3,71.5,528.3,59.7,528.3,59.7z M536.4,79.4v4v7.8v0.1h-8.1v-6.6h-0.1v-5.3H536.4z M512.2,38.9V36h8v11.8h-8V38.9z M512.2,59.7
	h8v11.8h-8V59.7z M512.2,79.4h8v5.3v6.5v0.1h-8v-0.1v-5.3V79.4z M496.1,39.3V36h4v2.9v8.9h-4V39.3z M496.1,59.7h4v11.8h-4V59.7z
	 M496.1,91.2v-4.1v-7.7h4v6.5v5.3v0.1L496.1,91.2L496.1,91.2z M500.1,111h-4V99.2h4V111z M520.2,111h-8V99.2h8V111z M536.4,111h-8.1
	v-3.9v-7.9h8.1V111z M552.4,103.1L552.4,103.1v7.9h-7.9V99.2h7.9V103.1z M568.6,107.1v3.9h-8.1v-3.9l0,0V107l0,0v-3.8v-0.1v-3.9h8.1
	V107.1z M584.7,107.1v3.9h-8.1V99.2h8.1V107.1z"/>
<path class="st0" d="M604.9,115h-4v3.9h4V115z"/>
<rect x="596.8" y="114.9" class="st0" width="4" height="4"/>
<rect x="592.8" y="114.9" class="st0" width="4" height="4"/>
<rect x="588.8" y="114.9" class="st0" width="4" height="4"/>
<polygon class="st1" points="592.8,99.2 592.8,111 584.8,111 584.8,107.1 588.8,107.1 588.8,99.2 "/>
<rect x="584.8" y="114.9" class="st0" width="4" height="4"/>
<rect x="584.8" y="79.4" class="st1" width="8" height="11.8"/>
<rect x="580.7" y="114.9" class="st0" width="4" height="4"/>
<rect x="576.7" y="114.9" class="st0" width="4" height="4"/>
<rect x="572.7" y="114.9" class="st0" width="4" height="4"/>
<polygon class="st1" points="576.7,99.2 576.7,111 568.7,111 568.7,107.1 572.7,107.1 572.7,99.2 "/>
<rect x="568.7" y="114.9" class="st0" width="4" height="4"/>
<rect x="568.7" y="79.4" class="st1" width="8.1" height="11.8"/>
<rect x="564.6" y="114.9" class="st0" width="4" height="4"/>
<rect x="560.6" y="114.9" class="st0" width="4" height="4"/>
<rect x="556.6" y="114.9" class="st0" width="4" height="4"/>
<rect x="556.6" y="107.1" class="st2" width="4" height="4"/>
<rect x="556.6" y="99.2" class="st1" width="4" height="4"/>
<rect x="552.5" y="114.9" class="st0" width="4" height="4"/>
<rect x="552.5" y="103.1" class="st1" width="4" height="7.9"/>
<rect x="552.5" y="99.2" class="st2" width="4" height="4"/>
<rect x="552.5" y="79.4" class="st1" width="8.1" height="11.8"/>
<rect x="548.5" y="114.9" class="st0" width="4" height="4"/>
<rect x="544.5" y="114.9" class="st0" width="4" height="4"/>
<rect x="540.5" y="114.9" class="st0" width="4" height="4"/>
<rect x="536.5" y="114.9" class="st0" width="4" height="4"/>
<rect x="536.5" y="99.2" class="st1" width="8.1" height="11.8"/>
<rect x="536.5" y="79.4" class="st1" width="8.1" height="11.8"/>
<rect x="536.5" y="63.7" class="st0" width="4" height="7.9"/>
<rect x="536.5" y="55.8" class="st3" width="4" height="7.9"/>
<rect x="532.4" y="114.9" class="st0" width="4" height="4"/>
<rect x="492.2" y="51.8" class="st0" width="44.3" height="3.9"/>
<rect x="528.4" y="114.9" class="st0" width="4" height="4"/>
<rect x="528.4" y="43.9" class="st3" width="4" height="3.9"/>
<rect x="524.4" y="114.9" class="st0" width="4" height="4"/>
<rect x="520.3" y="114.9" class="st0" width="4" height="4"/>
<polygon class="st1" points="528.4,107.1 528.4,111 520.3,111 520.3,99.2 524.4,99.2 524.4,107.1 "/>
<rect x="520.3" y="79.4" class="st1" width="8" height="11.8"/>
<rect x="520.3" y="43.9" class="st1" width="8" height="3.9"/>
<rect x="520.3" y="40" class="st1" width="8" height="3.9"/>
<rect x="520.3" y="36" class="st0" width="4" height="4"/>
<rect x="516.3" y="114.9" class="st0" width="4" height="4"/>
<rect x="512.3" y="114.9" class="st0" width="4" height="4"/>
<rect x="508.3" y="114.9" class="st0" width="4" height="4"/>
<rect x="504.2" y="114.9" class="st0" width="4" height="4"/>
<rect x="500.2" y="114.9" class="st0" width="4" height="4"/>
<polygon class="st1" points="512.3,99.2 512.3,111 500.2,111 500.2,99.2 504.2,99.2 504.2,107.1 508.3,107.1 508.3,99.2 "/>
<rect x="500.2" y="79.4" class="st1" width="12.1" height="11.8"/>
<rect x="500.2" y="43.9" class="st1" width="12.1" height="3.9"/>
<rect x="500.2" y="40" class="st1" width="12.1" height="3.9"/>
<rect x="500.2" y="36" class="st0" width="12.1" height="4"/>
<rect x="496.2" y="114.9" class="st0" width="4" height="4"/>
<rect x="492.2" y="114.9" class="st0" width="4" height="4"/>
<rect x="492.2" y="99.2" class="st1" width="4" height="11.8"/>
<polygon class="st0" points="596.8,95.2 596.8,111 592.8,111 592.8,99.2 588.8,99.2 588.8,107.1 584.8,107.1 584.8,99.2 572.7,99.2 
	572.7,107.1 568.7,107.1 568.7,99.2 528.4,99.2 528.4,107.1 524.4,107.1 524.4,99.2 508.3,99.2 508.3,107.1 504.2,107.1 504.2,99.2 
	492.2,99.2 492.2,95.2 "/>
<rect x="492.2" y="79.4" class="st1" width="4" height="11.8"/>
<polygon class="st0" points="596.8,75.5 596.8,91.3 592.8,91.3 592.8,79.4 492.2,79.4 492.2,75.5 "/>
<polygon class="st1" points="536.5,55.8 536.5,59.7 528.4,59.7 528.4,71.5 520.3,71.5 520.3,59.7 512.3,59.7 512.3,71.5 500.2,71.5 
	500.2,59.7 496.2,59.7 496.2,71.5 492.2,71.5 492.2,55.8 "/>
<rect x="492.2" y="40" class="st1" width="4" height="3.9"/>
<rect x="492.2" y="43.9" class="st1" width="4" height="3.9"/>
<rect x="492.2" y="36" class="st0" width="4" height="4"/>
<rect x="488.1" y="114.9" class="st0" width="4" height="4"/>
<polygon class="st3" points="560.6,111 560.6,103.1 556.6,103.1 556.6,111 488.1,111 488.1,114.9 600.8,114.9 600.8,111 "/>
<rect x="488.1" y="91.3" class="st3" width="112.7" height="3.9"/>
<polygon class="st3" points="600.9,71.5 600.9,75.5 488.1,75.5 488.1,71.5 540.5,71.5 540.5,63.7 544.5,63.7 544.5,71.5 "/>
<polygon class="st3" points="532.4,47.9 532.4,40 528.4,40 528.4,47.9 488.1,47.9 488.1,51.9 536.4,51.9 536.4,47.9 "/>
<polygon class="st3" points="528.4,32.1 528.4,40 524.4,40 524.4,36 488.1,36 488.1,32.1 "/>
<path class="st0" d="M488.1,115h-4v3.9h4V115z"/>
<rect x="514.2" y="36" class="st4" width="4" height="4"/>
<rect x="514.2" y="59.8" class="st6" width="4" height="4"/>
<rect x="546.5" y="79.4" class="st4" width="4" height="4"/>
<rect x="578.7" y="79.4" class="st6" width="4" height="4"/>
<rect x="514.2" y="79.4" class="st5" width="4" height="4"/>
<rect x="514.2" y="99.2" class="st4" width="4" height="4"/>
<rect x="562.7" y="99.2" class="st5" width="4" height="4"/>
<rect x="578.8" y="99.2" class="st4" width="4" height="4"/>
<path class="st0" d="M479.7,114.9v-3.4V111h-4V95.2h4v-3.9h-4V75.5h4.1v-4h-56.4v-7.8h-4v-7.9h-4v-0.1v-3.9v-4h-4V40h-0.1h-4h-0.1
	l0,0h0.1v-7.9H367V36h4.1v3.4v8.4v0.1H367v4h4.1v3.8v0.1v1.4v2v12.3H367v4h4.1v3.9v7.7v4.1v0.1H367v3.9h4.1v4V111H367v0.5v3.4h-4
	v0.1v3.9h4l0,0h112.7l0,0h0.1h4l0,0v-4H479.7z M455.7,79.4h8v4.5v7.3v0.1h-8.1v-0.1h0.1V79.4z M439.5,79.4h8.1v4v7.8v0.1h-8.1v-0.1
	l0,0V79.4z M423.5,91.2V79.4h7.9v4.5v7.3v0.1L423.5,91.2L423.5,91.2L423.5,91.2z M407.3,59.7h8.1v4v7.8h-8.1
	C407.3,71.5,407.3,59.7,407.3,59.7z M415.4,79.4v4v7.8v0.1h-8.1v-6.6h-0.1v-5.3H415.4z M391.2,38.9V36h8v11.8h-8V38.9z M391.2,59.7
	h8v11.8h-8V59.7z M391.2,79.4h8v5.3v6.5v0.1h-8v-0.1v-5.3V79.4z M375.1,39.3V36h4v2.9v8.9h-4V39.3z M375.1,59.7h4v11.8h-4V59.7z
	 M375.1,91.2v-4.1v-7.7h4v6.5v5.3v0.1L375.1,91.2L375.1,91.2z M379.1,111h-4V99.2h4V111z M399.2,111h-8V99.2h8V111z M415.4,111h-8.1
	v-3.9v-7.9h8.1V111z M431.4,103.1L431.4,103.1v7.9h-7.9V99.2h7.9V103.1z M447.6,107.1v3.9h-8.1v-3.9l0,0V107l0,0v-3.8v-0.1v-3.9h8.1
	V107.1z M463.7,107.1v3.9h-8.1V99.2h8.1V107.1z"/>
<path class="st0" d="M483.9,115h-4v3.9h4V115z"/>
<rect x="475.8" y="114.9" class="st0" width="4" height="4"/>
<rect x="471.8" y="114.9" class="st0" width="4" height="4"/>
<rect x="467.8" y="114.9" class="st0" width="4" height="4"/>
<polygon class="st1" points="471.8,99.2 471.8,111 463.8,111 463.8,107.1 467.8,107.1 467.8,99.2 "/>
<rect x="463.8" y="114.9" class="st0" width="4" height="4"/>
<rect x="463.8" y="79.4" class="st1" width="8" height="11.8"/>
<rect x="459.7" y="114.9" class="st0" width="4" height="4"/>
<rect x="455.7" y="114.9" class="st0" width="4" height="4"/>
<rect x="451.7" y="114.9" class="st0" width="4" height="4"/>
<polygon class="st1" points="455.7,99.2 455.7,111 447.7,111 447.7,107.1 451.7,107.1 451.7,99.2 "/>
<rect x="447.7" y="114.9" class="st0" width="4" height="4"/>
<rect x="447.7" y="79.4" class="st1" width="8.1" height="11.8"/>
<rect x="443.6" y="114.9" class="st0" width="4" height="4"/>
<rect x="439.6" y="114.9" class="st0" width="4" height="4"/>
<rect x="435.6" y="114.9" class="st0" width="4" height="4"/>
<rect x="435.6" y="107.1" class="st2" width="4" height="4"/>
<rect x="435.6" y="99.2" class="st1" width="4" height="4"/>
<rect x="431.5" y="114.9" class="st0" width="4" height="4"/>
<rect x="431.5" y="103.1" class="st1" width="4" height="7.9"/>
<rect x="431.5" y="99.2" class="st2" width="4" height="4"/>
<rect x="431.5" y="79.4" class="st1" width="8.1" height="11.8"/>
<rect x="427.5" y="114.9" class="st0" width="4" height="4"/>
<rect x="423.5" y="114.9" class="st0" width="4" height="4"/>
<rect x="419.5" y="114.9" class="st0" width="4" height="4"/>
<rect x="415.5" y="114.9" class="st0" width="4" height="4"/>
<rect x="415.5" y="99.2" class="st1" width="8.1" height="11.8"/>
<rect x="415.5" y="79.4" class="st1" width="8.1" height="11.8"/>
<rect x="415.5" y="63.7" class="st0" width="4" height="7.9"/>
<rect x="415.5" y="55.8" class="st3" width="4" height="7.9"/>
<rect x="411.4" y="114.9" class="st0" width="4" height="4"/>
<rect x="371.2" y="51.8" class="st0" width="44.3" height="3.9"/>
<rect x="407.4" y="114.9" class="st0" width="4" height="4"/>
<rect x="407.4" y="43.9" class="st3" width="4" height="3.9"/>
<rect x="403.4" y="114.9" class="st0" width="4" height="4"/>
<rect x="399.3" y="114.9" class="st0" width="4" height="4"/>
<polygon class="st1" points="407.4,107.1 407.4,111 399.3,111 399.3,99.2 403.4,99.2 403.4,107.1 "/>
<rect x="399.3" y="79.4" class="st1" width="8" height="11.8"/>
<rect x="399.3" y="43.9" class="st1" width="8" height="3.9"/>
<rect x="399.3" y="40" class="st1" width="8" height="3.9"/>
<rect x="399.3" y="36" class="st0" width="4" height="4"/>
<rect x="395.3" y="114.9" class="st0" width="4" height="4"/>
<rect x="391.3" y="114.9" class="st0" width="4" height="4"/>
<rect x="387.3" y="114.9" class="st0" width="4" height="4"/>
<rect x="383.2" y="114.9" class="st0" width="4" height="4"/>
<rect x="379.2" y="114.9" class="st0" width="4" height="4"/>
<polygon class="st1" points="391.3,99.2 391.3,111 379.2,111 379.2,99.2 383.2,99.2 383.2,107.1 387.3,107.1 387.3,99.2 "/>
<rect x="379.2" y="79.4" class="st1" width="12.1" height="11.8"/>
<rect x="379.2" y="43.9" class="st1" width="12.1" height="3.9"/>
<rect x="379.2" y="40" class="st1" width="12.1" height="3.9"/>
<rect x="379.2" y="36" class="st0" width="12.1" height="4"/>
<rect x="375.2" y="114.9" class="st0" width="4" height="4"/>
<rect x="371.2" y="114.9" class="st0" width="4" height="4"/>
<rect x="371.2" y="99.2" class="st1" width="4" height="11.8"/>
<polygon class="st0" points="475.8,95.2 475.8,111 471.8,111 471.8,99.2 467.8,99.2 467.8,107.1 463.8,107.1 463.8,99.2 451.7,99.2 
	451.7,107.1 447.7,107.1 447.7,99.2 407.4,99.2 407.4,107.1 403.4,107.1 403.4,99.2 387.3,99.2 387.3,107.1 383.2,107.1 383.2,99.2 
	371.2,99.2 371.2,95.2 "/>
<rect x="371.2" y="79.4" class="st1" width="4" height="11.8"/>
<polygon class="st0" points="475.8,75.5 475.8,91.3 471.8,91.3 471.8,79.4 371.2,79.4 371.2,75.5 "/>
<polygon class="st1" points="415.5,55.8 415.5,59.7 407.4,59.7 407.4,71.5 399.3,71.5 399.3,59.7 391.3,59.7 391.3,71.5 379.2,71.5 
	379.2,59.7 375.2,59.7 375.2,71.5 371.2,71.5 371.2,55.8 "/>
<rect x="371.2" y="40" class="st1" width="4" height="3.9"/>
<rect x="371.2" y="43.9" class="st1" width="4" height="3.9"/>
<rect x="371.2" y="36" class="st0" width="4" height="4"/>
<rect x="367.1" y="114.9" class="st0" width="4" height="4"/>
<polygon class="st3" points="439.6,111 439.6,103.1 435.6,103.1 435.6,111 367.1,111 367.1,114.9 479.8,114.9 479.8,111 "/>
<rect x="367.1" y="91.3" class="st3" width="112.7" height="3.9"/>
<polygon class="st3" points="479.9,71.5 479.9,75.5 367.1,75.5 367.1,71.5 419.5,71.5 419.5,63.7 423.5,63.7 423.5,71.5 "/>
<polygon class="st3" points="411.4,47.9 411.4,40 407.4,40 407.4,47.9 367.1,47.9 367.1,51.9 415.4,51.9 415.4,47.9 "/>
<polygon class="st3" points="407.4,32.1 407.4,40 403.4,40 403.4,36 367.1,36 367.1,32.1 "/>
<path class="st0" d="M367.1,115h-4v3.9h4V115z"/>
<rect x="393.2" y="59.8" class="st6" width="4" height="4"/>
<rect x="425.5" y="79.4" class="st4" width="4" height="4"/>
<rect x="393.2" y="79.4" class="st5" width="4" height="4"/>
<rect x="393.2" y="99.2" class="st4" width="4" height="4"/>
<rect x="409.5" y="99.2" class="st5" width="4" height="4"/>
<rect x="441.6" y="99.2" class="st5" width="4" height="4"/>
<path class="st0" d="M358.7,114.9v-3.4V111h-4V95.2h4v-3.9h-4V75.5h4.1v-4h-56.4v-7.8h-4v-7.9h-4v-0.1v-3.9v-4h-4V40h-0.1h-4h-0.1
	l0,0h0.1v-7.9H246V36h4.1v3.4v8.4v0.1H246v4h4.1v3.8v0.1v1.4v2v12.3H246v4h4.1v3.9v7.7v4.1v0.1H246v3.9h4.1v4V111H246v0.5v3.4h-4
	v0.1v3.9h4l0,0h112.7l0,0h0.1h4l0,0v-4H358.7z M334.7,79.4h8v4.5v7.3v0.1h-8.1v-0.1h0.1V79.4z M318.5,79.4h8.1v4v7.8v0.1h-8.1v-0.1
	l0,0V79.4z M302.5,91.2V79.4h7.9v4.5v7.3v0.1L302.5,91.2L302.5,91.2L302.5,91.2z M286.3,59.7h8.1v4v7.8h-8.1
	C286.3,71.5,286.3,59.7,286.3,59.7z M294.4,79.4v4v7.8v0.1h-8.1v-6.6h-0.1v-5.3H294.4z M270.2,38.9V36h8v11.8h-8V38.9z M270.2,59.7
	h8v11.8h-8V59.7z M270.2,79.4h8v5.3v6.5v0.1h-8v-0.1v-5.3V79.4z M254.1,39.3V36h4v2.9v8.9h-4V39.3z M254.1,59.7h4v11.8h-4V59.7z
	 M254.1,91.2v-4.1v-7.7h4v6.5v5.3v0.1L254.1,91.2L254.1,91.2z M258.1,111h-4V99.2h4V111z M278.2,111h-8V99.2h8V111z M294.4,111h-8.1
	v-3.9v-7.9h8.1V111z M310.4,103.1L310.4,103.1v7.9h-7.9V99.2h7.9V103.1z M326.6,107.1v3.9h-8.1v-3.9l0,0V107l0,0v-3.8v-0.1v-3.9h8.1
	V107.1z M342.7,107.1v3.9h-8.1V99.2h8.1V107.1z"/>
<path class="st0" d="M362.9,115h-4v3.9h4V115z"/>
<rect x="354.8" y="114.9" class="st0" width="4" height="4"/>
<rect x="350.8" y="114.9" class="st0" width="4" height="4"/>
<rect x="346.8" y="114.9" class="st0" width="4" height="4"/>
<polygon class="st1" points="350.8,99.2 350.8,111 342.8,111 342.8,107.1 346.8,107.1 346.8,99.2 "/>
<rect x="342.8" y="114.9" class="st0" width="4" height="4"/>
<rect x="342.8" y="79.4" class="st1" width="8" height="11.8"/>
<rect x="338.7" y="114.9" class="st0" width="4" height="4"/>
<rect x="334.7" y="114.9" class="st0" width="4" height="4"/>
<rect x="330.7" y="114.9" class="st0" width="4" height="4"/>
<polygon class="st1" points="334.7,99.2 334.7,111 326.7,111 326.7,107.1 330.7,107.1 330.7,99.2 "/>
<rect x="326.7" y="114.9" class="st0" width="4" height="4"/>
<rect x="326.7" y="79.4" class="st1" width="8.1" height="11.8"/>
<rect x="322.6" y="114.9" class="st0" width="4" height="4"/>
<rect x="318.6" y="114.9" class="st0" width="4" height="4"/>
<rect x="314.6" y="114.9" class="st0" width="4" height="4"/>
<rect x="314.6" y="107.1" class="st2" width="4" height="4"/>
<rect x="314.6" y="99.2" class="st1" width="4" height="4"/>
<rect x="310.5" y="114.9" class="st0" width="4" height="4"/>
<rect x="310.5" y="103.1" class="st1" width="4" height="7.9"/>
<rect x="310.5" y="99.2" class="st2" width="4" height="4"/>
<rect x="310.5" y="79.4" class="st1" width="8.1" height="11.8"/>
<rect x="306.5" y="114.9" class="st0" width="4" height="4"/>
<rect x="302.5" y="114.9" class="st0" width="4" height="4"/>
<rect x="298.5" y="114.9" class="st0" width="4" height="4"/>
<rect x="294.5" y="114.9" class="st0" width="4" height="4"/>
<rect x="294.5" y="99.2" class="st1" width="8.1" height="11.8"/>
<rect x="294.5" y="79.4" class="st1" width="8.1" height="11.8"/>
<rect x="294.5" y="63.7" class="st0" width="4" height="7.9"/>
<rect x="294.5" y="55.8" class="st3" width="4" height="7.9"/>
<rect x="290.4" y="114.9" class="st0" width="4" height="4"/>
<rect x="250.2" y="51.8" class="st0" width="44.3" height="3.9"/>
<rect x="286.4" y="114.9" class="st0" width="4" height="4"/>
<rect x="286.4" y="43.9" class="st3" width="4" height="3.9"/>
<rect x="282.4" y="114.9" class="st0" width="4" height="4"/>
<rect x="278.3" y="114.9" class="st0" width="4" height="4"/>
<polygon class="st1" points="286.4,107.1 286.4,111 278.3,111 278.3,99.2 282.4,99.2 282.4,107.1 "/>
<rect x="278.3" y="79.4" class="st1" width="8" height="11.8"/>
<rect x="278.3" y="43.9" class="st1" width="8" height="3.9"/>
<rect x="278.3" y="40" class="st1" width="8" height="3.9"/>
<rect x="278.3" y="36" class="st0" width="4" height="4"/>
<rect x="274.3" y="114.9" class="st0" width="4" height="4"/>
<rect x="270.3" y="114.9" class="st0" width="4" height="4"/>
<rect x="266.3" y="114.9" class="st0" width="4" height="4"/>
<rect x="262.2" y="114.9" class="st0" width="4" height="4"/>
<rect x="258.2" y="114.9" class="st0" width="4" height="4"/>
<polygon class="st1" points="270.3,99.2 270.3,111 258.2,111 258.2,99.2 262.2,99.2 262.2,107.1 266.3,107.1 266.3,99.2 "/>
<rect x="258.2" y="79.4" class="st1" width="12.1" height="11.8"/>
<rect x="258.2" y="43.9" class="st1" width="12.1" height="3.9"/>
<rect x="258.2" y="40" class="st1" width="12.1" height="3.9"/>
<rect x="258.2" y="36" class="st0" width="12.1" height="4"/>
<rect x="254.2" y="114.9" class="st0" width="4" height="4"/>
<rect x="250.2" y="114.9" class="st0" width="4" height="4"/>
<rect x="250.2" y="99.2" class="st1" width="4" height="11.8"/>
<polygon class="st0" points="354.8,95.2 354.8,111 350.8,111 350.8,99.2 346.8,99.2 346.8,107.1 342.8,107.1 342.8,99.2 330.7,99.2 
	330.7,107.1 326.7,107.1 326.7,99.2 286.4,99.2 286.4,107.1 282.4,107.1 282.4,99.2 266.3,99.2 266.3,107.1 262.2,107.1 262.2,99.2 
	250.2,99.2 250.2,95.2 "/>
<rect x="250.2" y="79.4" class="st1" width="4" height="11.8"/>
<polygon class="st0" points="354.8,75.5 354.8,91.3 350.8,91.3 350.8,79.4 250.2,79.4 250.2,75.5 "/>
<polygon class="st1" points="294.5,55.8 294.5,59.7 286.4,59.7 286.4,71.5 278.3,71.5 278.3,59.7 270.3,59.7 270.3,71.5 258.2,71.5 
	258.2,59.7 254.2,59.7 254.2,71.5 250.2,71.5 250.2,55.8 "/>
<rect x="250.2" y="40" class="st1" width="4" height="3.9"/>
<rect x="250.2" y="43.9" class="st1" width="4" height="3.9"/>
<rect x="250.2" y="36" class="st0" width="4" height="4"/>
<rect x="246.1" y="114.9" class="st0" width="4" height="4"/>
<polygon class="st3" points="318.6,111 318.6,103.1 314.6,103.1 314.6,111 246.1,111 246.1,114.9 358.8,114.9 358.8,111 "/>
<rect x="246.1" y="91.3" class="st3" width="112.7" height="3.9"/>
<polygon class="st3" points="358.9,71.5 358.9,75.5 246.1,75.5 246.1,71.5 298.5,71.5 298.5,63.7 302.5,63.7 302.5,71.5 "/>
<polygon class="st3" points="290.4,47.9 290.4,40 286.4,40 286.4,47.9 246.1,47.9 246.1,51.9 294.4,51.9 294.4,47.9 "/>
<polygon class="st3" points="286.4,32.1 286.4,40 282.4,40 282.4,36 246.1,36 246.1,32.1 "/>
<path class="st0" d="M246.1,115h-4v3.9h4V115z"/>
<rect x="272.2" y="36" class="st4" width="4" height="4"/>
<rect x="288.4" y="59.8" class="st5" width="4" height="4"/>
<rect x="320.5" y="79.4" class="st5" width="4" height="4"/>
<rect x="336.6" y="79.4" class="st6" width="4" height="4"/>
<rect x="288.3" y="79.4" class="st5" width="4" height="4"/>
<rect x="288.5" y="99.2" class="st5" width="4" height="4"/>
<rect x="304.5" y="99.2" class="st6" width="4" height="4"/>
<path class="st0" d="M116.7,114.9v-3.4V111h-4V95.2h4v-3.9h-4V75.5h4.1v-4H60.4v-7.8h-4v-7.9h-4v-0.1v-3.9v-4h-4V40h-0.1h-4h-0.1
	l0,0h0.1v-7.9H4V36h4.1v3.4v8.4v0.1H4v4h4.1v3.8v0.1v1.4v2v12.3H4v4h4.1v3.9v7.7v4.1v0.1H4v3.9h4.1v4V111H4v0.5v3.4H0v0.1v3.9h4l0,0
	h112.7l0,0h0.1h4l0,0v-4H116.7z M92.7,79.4h8v4.5v7.3v0.1h-8.1v-0.1h0.1V79.4z M76.5,79.4h8.1v4v7.8v0.1h-8.1v-0.1l0,0V79.4z
	 M60.5,91.2V79.4h7.9v4.5v7.3v0.1L60.5,91.2L60.5,91.2L60.5,91.2z M44.3,59.7h8.1v4v7.8h-8.1C44.3,71.5,44.3,59.7,44.3,59.7z
	 M52.4,79.4v4v7.8v0.1h-8.1v-6.6h-0.1v-5.3H52.4z M28.2,38.9V36h8v11.8h-8V38.9z M28.2,59.7h8v11.8h-8V59.7z M28.2,79.4h8v5.3v6.5
	v0.1h-8v-0.1v-5.3V79.4z M12.1,39.3V36h4v2.9v8.9h-4V39.3z M12.1,59.7h4v11.8h-4V59.7z M12.1,91.2v-4.1v-7.7h4v6.5v5.3v0.1
	L12.1,91.2L12.1,91.2z M16.1,111h-4V99.2h4V111z M36.2,111h-8V99.2h8V111z M52.4,111h-8.1v-3.9v-7.9h8.1V111z M68.4,103.1
	L68.4,103.1v7.9h-7.9V99.2h7.9V103.1z M84.6,107.1v3.9h-8.1v-3.9l0,0V107l0,0v-3.8v-0.1v-3.9h8.1V107.1z M100.7,107.1v3.9h-8.1V99.2
	h8.1V107.1z"/>
<path class="st0" d="M120.9,115h-4v3.9h4V115z"/>
<path class="st0" d="M237.7,114.9v-3.4V111h-4V95.2h4v-3.9h-4V75.5h4.1v-4h-56.4v-7.8h-4v-7.9h-4v-0.1v-3.9v-4h-4V40h-0.1h-4h-0.1
	l0,0h0.1v-7.9H125V36h4.1v3.4v8.4v0.1H125v4h4.1v3.8v0.1v1.4v2v12.3H125v4h4.1v3.9v7.7v4.1v0.1H125v3.9h4.1v4V111H125v0.5v3.4h-4
	v0.1v3.9h4l0,0h112.7l0,0h0.1h4l0,0v-4H237.7z M213.7,79.4h8v4.5v7.3v0.1h-8.1v-0.1h0.1V79.4z M197.5,79.4h8.1v4v7.8v0.1h-8.1v-0.1
	l0,0V79.4z M181.5,91.2V79.4h7.9v4.5v7.3v0.1L181.5,91.2L181.5,91.2L181.5,91.2z M165.3,59.7h8.1v4v7.8h-8.1
	C165.3,71.5,165.3,59.7,165.3,59.7z M173.4,79.4v4v7.8v0.1h-8.1v-6.6h-0.1v-5.3H173.4z M149.2,38.9V36h8v11.8h-8V38.9z M149.2,59.7
	h8v11.8h-8V59.7z M149.2,79.4h8v5.3v6.5v0.1h-8v-0.1v-5.3V79.4z M133.1,39.3V36h4v2.9v8.9h-4V39.3z M133.1,59.7h4v11.8h-4V59.7z
	 M133.1,91.2v-4.1v-7.7h4v6.5v5.3v0.1L133.1,91.2L133.1,91.2z M137.1,111h-4V99.2h4V111z M157.2,111h-8V99.2h8V111z M173.4,111h-8.1
	v-3.9v-7.9h8.1V111z M189.4,103.1L189.4,103.1v7.9h-7.9V99.2h7.9V103.1z M205.6,107.1v3.9h-8.1v-3.9l0,0V107l0,0v-3.8v-0.1v-3.9h8.1
	V107.1z M221.7,107.1v3.9h-8.1V99.2h8.1V107.1z"/>
<path class="st0" d="M241.9,115h-4v3.9h4V115z"/>
<rect x="233.8" y="114.9" class="st0" width="4" height="4"/>
<rect x="229.8" y="114.9" class="st0" width="4" height="4"/>
<rect x="225.8" y="114.9" class="st0" width="4" height="4"/>
<polygon class="st1" points="229.8,99.2 229.8,111 221.8,111 221.8,107.1 225.8,107.1 225.8,99.2 "/>
<rect x="221.8" y="114.9" class="st0" width="4" height="4"/>
<rect x="221.8" y="79.4" class="st1" width="8" height="11.8"/>
<rect x="217.7" y="114.9" class="st0" width="4" height="4"/>
<rect x="213.7" y="114.9" class="st0" width="4" height="4"/>
<rect x="209.7" y="114.9" class="st0" width="4" height="4"/>
<polygon class="st1" points="213.7,99.2 213.7,111 205.7,111 205.7,107.1 209.7,107.1 209.7,99.2 "/>
<rect x="205.7" y="114.9" class="st0" width="4" height="4"/>
<rect x="205.7" y="79.4" class="st1" width="8.1" height="11.8"/>
<rect x="201.6" y="114.9" class="st0" width="4" height="4"/>
<rect x="197.6" y="114.9" class="st0" width="4" height="4"/>
<rect x="193.6" y="114.9" class="st0" width="4" height="4"/>
<rect x="193.6" y="107.1" class="st2" width="4" height="4"/>
<rect x="193.6" y="99.2" class="st1" width="4" height="4"/>
<rect x="189.5" y="114.9" class="st0" width="4" height="4"/>
<rect x="189.5" y="103.1" class="st1" width="4" height="7.9"/>
<rect x="189.5" y="99.2" class="st2" width="4" height="4"/>
<rect x="189.5" y="79.4" class="st1" width="8.1" height="11.8"/>
<rect x="185.5" y="114.9" class="st0" width="4" height="4"/>
<rect x="181.5" y="114.9" class="st0" width="4" height="4"/>
<rect x="177.5" y="114.9" class="st0" width="4" height="4"/>
<rect x="173.5" y="114.9" class="st0" width="4" height="4"/>
<rect x="173.5" y="99.2" class="st1" width="8.1" height="11.8"/>
<rect x="173.5" y="79.4" class="st1" width="8.1" height="11.8"/>
<rect x="173.5" y="63.7" class="st0" width="4" height="7.9"/>
<rect x="173.5" y="55.8" class="st3" width="4" height="7.9"/>
<rect x="169.4" y="114.9" class="st0" width="4" height="4"/>
<rect x="129.2" y="51.8" class="st0" width="44.3" height="3.9"/>
<rect x="165.4" y="114.9" class="st0" width="4" height="4"/>
<rect x="165.4" y="43.9" class="st3" width="4" height="3.9"/>
<rect x="161.4" y="114.9" class="st0" width="4" height="4"/>
<rect x="157.3" y="114.9" class="st0" width="4" height="4"/>
<polygon class="st1" points="165.4,107.1 165.4,111 157.3,111 157.3,99.2 161.4,99.2 161.4,107.1 "/>
<rect x="157.3" y="79.4" class="st1" width="8" height="11.8"/>
<rect x="157.3" y="43.9" class="st1" width="8" height="3.9"/>
<rect x="157.3" y="40" class="st1" width="8" height="3.9"/>
<rect x="157.3" y="36" class="st0" width="4" height="4"/>
<rect x="153.3" y="114.9" class="st0" width="4" height="4"/>
<rect x="149.3" y="114.9" class="st0" width="4" height="4"/>
<rect x="145.3" y="114.9" class="st0" width="4" height="4"/>
<rect x="141.2" y="114.9" class="st0" width="4" height="4"/>
<rect x="137.2" y="114.9" class="st0" width="4" height="4"/>
<polygon class="st1" points="149.3,99.2 149.3,111 137.2,111 137.2,99.2 141.2,99.2 141.2,107.1 145.3,107.1 145.3,99.2 "/>
<rect x="137.2" y="79.4" class="st1" width="12.1" height="11.8"/>
<rect x="137.2" y="43.9" class="st1" width="12.1" height="3.9"/>
<rect x="137.2" y="40" class="st1" width="12.1" height="3.9"/>
<rect x="137.2" y="36" class="st0" width="12.1" height="4"/>
<rect x="133.2" y="114.9" class="st0" width="4" height="4"/>
<rect x="129.2" y="114.9" class="st0" width="4" height="4"/>
<rect x="129.2" y="99.2" class="st1" width="4" height="11.8"/>
<polygon class="st0" points="233.8,95.2 233.8,111 229.8,111 229.8,99.2 225.8,99.2 225.8,107.1 221.8,107.1 221.8,99.2 209.7,99.2 
	209.7,107.1 205.7,107.1 205.7,99.2 165.4,99.2 165.4,107.1 161.4,107.1 161.4,99.2 145.3,99.2 145.3,107.1 141.2,107.1 141.2,99.2 
	129.2,99.2 129.2,95.2 "/>
<rect x="129.2" y="79.4" class="st1" width="4" height="11.8"/>
<polygon class="st0" points="233.8,75.5 233.8,91.3 229.8,91.3 229.8,79.4 129.2,79.4 129.2,75.5 "/>
<polygon class="st1" points="173.5,55.8 173.5,59.7 165.4,59.7 165.4,71.5 157.3,71.5 157.3,59.7 149.3,59.7 149.3,71.5 137.2,71.5 
	137.2,59.7 133.2,59.7 133.2,71.5 129.2,71.5 129.2,55.8 "/>
<rect x="129.2" y="40" class="st1" width="4" height="3.9"/>
<rect x="129.2" y="43.9" class="st1" width="4" height="3.9"/>
<rect x="129.2" y="36" class="st0" width="4" height="4"/>
<rect x="125.1" y="114.9" class="st0" width="4" height="4"/>
<polygon class="st3" points="197.6,111 197.6,103.1 193.6,103.1 193.6,111 125.1,111 125.1,114.9 237.8,114.9 237.8,111 "/>
<rect x="125.1" y="91.3" class="st3" width="112.7" height="3.9"/>
<polygon class="st3" points="237.9,71.5 237.9,75.5 125.1,75.5 125.1,71.5 177.5,71.5 177.5,63.7 181.5,63.7 181.5,71.5 "/>
<polygon class="st3" points="169.4,47.9 169.4,40 165.4,40 165.4,47.9 125.1,47.9 125.1,51.9 173.4,51.9 173.4,47.9 "/>
<polygon class="st3" points="165.4,32.1 165.4,40 161.4,40 161.4,36 125.1,36 125.1,32.1 "/>
<path class="st0" d="M125.1,115h-4v3.9h4V115z"/>
<rect x="151.2" y="59.8" class="st6" width="4" height="4"/>
<rect x="183.6" y="79.4" class="st4" width="4" height="4"/>
<rect x="151.2" y="79.4" class="st5" width="4" height="4"/>
<g>
	<polygon class="st5" points="175.6,33.4 173.4,33.4 173.4,34.5 173.4,35.7 173.4,36.8 175.6,36.8 177.9,36.8 177.9,35.7 
		177.9,34.5 177.9,33.4 177.9,25.1 175.6,25.1 	"/>
	<rect x="177.9" y="22.9" class="st5" width="2.2" height="2.2"/>
	<polygon class="st5" points="182.4,18.4 182.4,20.6 180.1,20.6 180.1,22.9 182.4,22.9 182.4,30.9 180.1,30.9 180.1,32 180.1,33.1 
		180.1,34.2 184.6,34.2 184.6,34.2 184.6,33.1 184.6,32 184.6,30.9 184.6,18.4 	"/>
</g>
<g>
	<polygon class="st5" points="306.2,28.3 304,28.3 304,29.4 304,30.5 304,31.6 306.2,31.6 308.5,31.6 308.5,30.5 308.5,29.4 
		308.5,28.3 308.5,19.9 306.2,19.9 	"/>
	<rect x="308.5" y="17.7" class="st5" width="2.2" height="2.2"/>
	<polygon class="st5" points="313,13.2 313,15.4 310.7,15.4 310.7,17.7 313,17.7 313,25.7 310.7,25.7 310.7,26.8 310.7,28 
		310.7,29.1 315.2,29.1 315.2,29 315.2,28 315.2,26.8 315.2,25.7 315.2,13.2 	"/>
</g>
<rect x="151.2" y="99.2" class="st4" width="4" height="4"/>
<rect x="199.6" y="99.2" class="st5" width="4" height="4"/>
<rect x="215.8" y="99.2" class="st4" width="4" height="4"/>
<path class="st0" d="M116.9,114.9v-3.4V111h-4V95.2h4v-3.9h-4V75.5h4.1v-4H60.6v-7.8h-4v-7.9h-4v-0.1v-3.9v-4h-4V40h-0.1h-4h-0.1
	l0,0h0.1v-7.9H4.2V36h4.1v3.4v8.4v0.1H4.2v4h4.1v3.8v0.1v1.4v2v12.3H4.2v4h4.1v3.9v7.7v4.1v0.1H4.2v3.9h4.1v4V111H4.2v0.5v3.4h-4
	v0.1v3.9h4l0,0h112.7l0,0h0.1h4l0,0v-4H116.9z M92.9,79.4h8v4.5v7.3v0.1h-8.1v-0.1h0.1V79.4z M76.7,79.4h8.1v4v7.8v0.1h-8.1v-0.1
	l0,0V79.4z M60.7,91.2V79.4h7.9v4.5v7.3v0.1L60.7,91.2L60.7,91.2L60.7,91.2z M44.5,59.7h8.1v4v7.8h-8.1
	C44.5,71.5,44.5,59.7,44.5,59.7z M52.6,79.4v4v7.8v0.1h-8.1v-6.6h-0.1v-5.3H52.6z M28.4,38.9V36h8v11.8h-8V38.9z M28.4,59.7h8v11.8
	h-8V59.7z M28.4,79.4h8v5.3v6.5v0.1h-8v-0.1v-5.3V79.4z M12.3,39.3V36h4v2.9v8.9h-4V39.3z M12.3,59.7h4v11.8h-4V59.7z M12.3,91.2
	v-4.1v-7.7h4v6.5v5.3v0.1L12.3,91.2L12.3,91.2z M16.3,111h-4V99.2h4V111z M36.4,111h-8V99.2h8V111z M52.6,111h-8.1v-3.9v-7.9h8.1
	V111z M68.6,103.1L68.6,103.1v7.9h-7.9V99.2h7.9V103.1z M84.8,107.1v3.9h-8.1v-3.9l0,0V107l0,0v-3.8v-0.1v-3.9h8.1V107.1z
	 M100.9,107.1v3.9h-8.1V99.2h8.1V107.1z"/>
<rect x="109" y="114.9" class="st0" width="4" height="4"/>
<rect x="105" y="114.9" class="st0" width="4" height="4"/>
<polygon class="st1" points="109,99.2 109,111 101,111 101,107.1 105,107.1 105,99.2 "/>
<rect x="101" y="114.9" class="st0" width="4" height="4"/>
<rect x="101" y="79.4" class="st1" width="8" height="11.8"/>
<rect x="96.9" y="114.9" class="st0" width="4" height="4"/>
<rect x="92.9" y="114.9" class="st0" width="4" height="4"/>
<rect x="88.9" y="114.9" class="st0" width="4" height="4"/>
<polygon class="st1" points="92.9,99.2 92.9,111 84.9,111 84.9,107.1 88.9,107.1 88.9,99.2 "/>
<rect x="84.9" y="114.9" class="st0" width="4" height="4"/>
<rect x="84.9" y="79.4" class="st1" width="8.1" height="11.8"/>
<rect x="80.8" y="114.9" class="st0" width="4" height="4"/>
<rect x="76.8" y="114.9" class="st0" width="4" height="4"/>
<rect x="72.8" y="114.9" class="st0" width="4" height="4"/>
<rect x="72.8" y="107.1" class="st2" width="4" height="4"/>
<rect x="72.8" y="99.2" class="st1" width="4" height="4"/>
<rect x="68.7" y="114.9" class="st0" width="4" height="4"/>
<rect x="68.7" y="103.1" class="st1" width="4" height="7.9"/>
<rect x="68.7" y="99.2" class="st2" width="4" height="4"/>
<rect x="68.7" y="79.4" class="st1" width="8.1" height="11.8"/>
<rect x="64.7" y="114.9" class="st0" width="4" height="4"/>
<rect x="60.7" y="114.9" class="st0" width="4" height="4"/>
<rect x="56.7" y="114.9" class="st0" width="4" height="4"/>
<rect x="52.7" y="114.9" class="st0" width="4" height="4"/>
<rect x="52.7" y="99.2" class="st1" width="8.1" height="11.8"/>
<rect x="52.7" y="79.4" class="st1" width="8.1" height="11.8"/>
<rect x="52.7" y="63.7" class="st0" width="4" height="7.9"/>
<rect x="52.7" y="55.8" class="st3" width="4" height="7.9"/>
<rect x="48.6" y="114.9" class="st0" width="4" height="4"/>
<rect x="8.4" y="51.8" class="st0" width="44.3" height="3.9"/>
<rect x="44.6" y="114.9" class="st0" width="4" height="4"/>
<rect x="44.6" y="43.9" class="st3" width="4" height="3.9"/>
<rect x="40.6" y="114.9" class="st0" width="4" height="4"/>
<rect x="36.5" y="114.9" class="st0" width="4" height="4"/>
<polygon class="st1" points="44.6,107.1 44.6,111 36.5,111 36.5,99.2 40.6,99.2 40.6,107.1 "/>
<rect x="36.5" y="79.4" class="st1" width="8" height="11.8"/>
<rect x="36.5" y="43.9" class="st1" width="8" height="3.9"/>
<rect x="36.5" y="40" class="st1" width="8" height="3.9"/>
<rect x="36.5" y="36" class="st0" width="4" height="4"/>
<rect x="32.5" y="114.9" class="st0" width="4" height="4"/>
<rect x="28.5" y="114.9" class="st0" width="4" height="4"/>
<rect x="24.5" y="114.9" class="st0" width="4" height="4"/>
<rect x="20.4" y="114.9" class="st0" width="4" height="4"/>
<rect x="16.4" y="114.9" class="st0" width="4" height="4"/>
<polygon class="st1" points="28.5,99.2 28.5,111 16.4,111 16.4,99.2 20.4,99.2 20.4,107.1 24.5,107.1 24.5,99.2 "/>
<rect x="16.4" y="79.4" class="st1" width="12.1" height="11.8"/>
<rect x="16.4" y="43.9" class="st1" width="12.1" height="3.9"/>
<rect x="16.4" y="40" class="st1" width="12.1" height="3.9"/>
<rect x="16.4" y="36" class="st0" width="12.1" height="4"/>
<rect x="12.4" y="114.9" class="st0" width="4" height="4"/>
<rect x="8.4" y="114.9" class="st0" width="4" height="4"/>
<rect x="8.4" y="99.2" class="st1" width="4" height="11.8"/>
<polygon class="st0" points="113,95.2 113,111 109,111 109,99.2 105,99.2 105,107.1 101,107.1 101,99.2 88.9,99.2 88.9,107.1 
	84.9,107.1 84.9,99.2 44.6,99.2 44.6,107.1 40.6,107.1 40.6,99.2 24.5,99.2 24.5,107.1 20.4,107.1 20.4,99.2 8.4,99.2 8.4,95.2 "/>
<rect x="8.4" y="79.4" class="st1" width="4" height="11.8"/>
<polygon class="st0" points="113,75.5 113,91.3 109,91.3 109,79.4 8.4,79.4 8.4,75.5 "/>
<polygon class="st1" points="52.7,55.8 52.7,59.7 44.6,59.7 44.6,71.5 36.5,71.5 36.5,59.7 28.5,59.7 28.5,71.5 16.4,71.5 
	16.4,59.7 12.4,59.7 12.4,71.5 8.4,71.5 8.4,55.8 "/>
<rect x="8.4" y="40" class="st1" width="4" height="3.9"/>
<rect x="8.4" y="43.9" class="st1" width="4" height="3.9"/>
<rect x="8.4" y="36" class="st0" width="4" height="4"/>
<polygon class="st3" points="76.8,111 76.8,103.1 72.8,103.1 72.8,111 4.3,111 4.3,114.9 117,114.9 117,111 "/>
<rect x="4.3" y="91.3" class="st3" width="112.7" height="3.9"/>
<polygon class="st3" points="117.1,71.5 117.1,75.5 4.3,75.5 4.3,71.5 56.7,71.5 56.7,63.7 60.7,63.7 60.7,71.5 "/>
<polygon class="st3" points="48.6,47.9 48.6,40 44.6,40 44.6,47.9 4.3,47.9 4.3,51.9 52.6,51.9 52.6,47.9 "/>
<polygon class="st3" points="44.6,32.1 44.6,40 40.6,40 40.6,36 4.3,36 4.3,32.1 "/>
<polygon class="st4" points="321.1,49.3 315.9,49.3 315.9,51.9 316,51.9 316,54.4 316,56.9 316,57 316,58.2 312.1,58.2 312.1,62.1 
	318.5,62.1 318.5,62 318.5,59.5 318.5,58.2 318.5,57 318.5,56.9 318.5,54.4 318.5,51.9 321.1,51.9 "/>
<g>
	<polygon class="st5" points="422.1,23.5 419.9,23.5 419.9,24.7 419.9,25.8 419.9,26.9 422.1,26.9 424.4,26.9 424.4,25.8 
		424.4,24.7 424.4,23.5 424.4,15.2 422.1,15.2 	"/>
	<rect x="424.4" y="13" class="st5" width="2.2" height="2.2"/>
	<polygon class="st5" points="428.9,8.5 428.9,10.7 426.6,10.7 426.6,13 428.9,13 428.9,21 426.6,21 426.6,22.1 426.6,23.2 
		426.6,24.3 431.1,24.3 431.1,24.3 431.1,23.2 431.1,22.1 431.1,21 431.1,8.5 	"/>
</g>
<polygon class="st4" points="452.1,43 446.9,43 446.9,45.5 447,45.5 447,48 447,50.6 447,50.6 447,51.8 443.1,51.8 443.1,55.7 
	449.5,55.7 449.5,55.7 449.5,53.1 449.5,51.8 449.5,50.6 449.5,50.6 449.5,48 449.5,45.5 452.1,45.5 "/>
<polygon class="st4" points="464.2,14.8 459,14.8 459,17.3 459.1,17.3 459.1,19.8 459.1,22.3 459.1,22.4 459.1,23.6 455.2,23.6 
	455.2,27.5 461.6,27.5 461.6,27.5 461.6,24.9 461.6,23.6 461.6,22.4 461.6,22.3 461.6,19.8 461.6,17.3 464.2,17.3 "/>
<g>
	<polygon class="st5" points="535.1,18.8 532.9,18.8 532.9,19.9 532.9,21.1 532.9,22.2 535.1,22.2 537.4,22.2 537.4,21.1 
		537.4,19.9 537.4,18.8 537.4,10.5 535.1,10.5 	"/>
	<rect x="537.4" y="8.3" class="st5" width="2.2" height="2.2"/>
	<polygon class="st5" points="541.9,3.8 541.9,6 539.6,6 539.6,8.3 541.9,8.3 541.9,16.3 539.6,16.3 539.6,17.4 539.6,18.5 
		539.6,19.6 544.1,19.6 544.1,19.6 544.1,18.5 544.1,17.4 544.1,16.3 544.1,3.8 	"/>
</g>
<g>
	<polygon class="st5" points="551.1,47.7 548.9,47.7 548.9,48.9 548.9,50 548.9,51.1 551.1,51.1 553.4,51.1 553.4,50 553.4,48.9 
		553.4,47.7 553.4,39.4 551.1,39.4 	"/>
	<rect x="553.4" y="37.2" class="st5" width="2.2" height="2.2"/>
	<polygon class="st5" points="557.9,32.7 557.9,34.9 555.6,34.9 555.6,37.2 557.9,37.2 557.9,45.2 555.6,45.2 555.6,46.3 
		555.6,47.4 555.6,48.5 560.1,48.5 560.1,48.5 560.1,47.4 560.1,46.3 560.1,45.2 560.1,32.7 	"/>
</g>
<polygon class="st4" points="579.3,47.1 574.2,47.1 574.2,49.6 574.2,49.6 574.2,52.2 574.2,54.7 574.2,54.7 574.2,56 570.3,56 
	570.3,59.8 576.7,59.8 576.7,59.8 576.7,57.2 576.7,56 576.7,54.7 576.7,54.7 576.7,52.2 576.7,49.6 579.3,49.6 "/>
<polygon class="st4" points="589.3,10 584.2,10 584.2,12.6 584.2,12.6 584.2,15.1 584.2,17.6 584.2,17.7 584.2,18.9 580.3,18.9 
	580.3,22.8 586.7,22.8 586.7,22.7 586.7,20.2 586.7,18.9 586.7,17.7 586.7,17.6 586.7,15.1 586.7,12.6 589.3,12.6 "/>
<g>
	<polygon class="st5" points="662.2,16.9 660,16.9 660,18.1 660,19.2 660,20.3 662.2,20.3 664.5,20.3 664.5,19.2 664.5,18.1 
		664.5,16.9 664.5,8.6 662.2,8.6 	"/>
	<rect x="664.5" y="6.4" class="st5" width="2.2" height="2.2"/>
	<polygon class="st5" points="669,1.9 669,4.1 666.7,4.1 666.7,6.4 669,6.4 669,14.4 666.7,14.4 666.7,15.5 666.7,16.6 666.7,17.7 
		671.2,17.7 671.2,17.7 671.2,16.6 671.2,15.5 671.2,14.4 671.2,1.9 	"/>
</g>
<g>
	<polygon class="st5" points="680.3,37.9 678,37.9 678,39.1 678,40.2 678,41.3 680.3,41.3 682.5,41.3 682.5,40.2 682.5,39.1 
		682.5,37.9 682.5,29.6 680.3,29.6 	"/>
	<rect x="682.5" y="27.4" class="st5" width="2.2" height="2.2"/>
	<polygon class="st5" points="687,22.9 687,25.1 684.8,25.1 684.8,27.4 687,27.4 687,35.4 684.8,35.4 684.8,36.5 684.8,37.6 
		684.8,38.7 689.3,38.7 689.3,38.7 689.3,37.6 689.3,36.5 689.3,35.4 689.3,22.9 	"/>
</g>
<polygon class="st4" points="716.4,43 711.2,43 711.2,45.5 711.2,45.5 711.2,48 711.2,50.6 711.2,50.6 711.2,51.8 707.3,51.8 
	707.3,55.7 713.8,55.7 713.8,55.7 713.8,53.1 713.8,51.8 713.8,50.6 713.8,50.6 713.8,48 713.8,45.5 716.4,45.5 "/>
<polygon class="st4" points="716.3,3.7 711.2,3.7 711.2,6.2 711.2,6.2 711.2,8.8 711.2,11.3 711.2,11.3 711.2,12.5 707.3,12.5 
	707.3,16.4 713.7,16.4 713.7,16.4 713.7,13.8 713.7,12.5 713.7,11.3 713.7,11.3 713.7,8.8 713.7,6.2 716.3,6.2 "/>
<g>
	<polygon class="st5" points="796.3,28.7 794.1,28.7 794.1,29.9 794.1,31 794.1,32.1 796.3,32.1 798.6,32.1 798.6,31 798.6,29.9 
		798.6,28.7 798.6,20.4 796.3,20.4 	"/>
	<rect x="798.6" y="18.2" class="st5" width="2.2" height="2.2"/>
	<polygon class="st5" points="803,13.7 803,15.9 800.8,15.9 800.8,18.2 803,18.2 803,26.2 800.8,26.2 800.8,27.3 800.8,28.4 
		800.8,29.5 805.3,29.5 805.3,29.5 805.3,28.4 805.3,27.3 805.3,26.2 805.3,13.7 	"/>
</g>
<polygon class="st4" points="837.5,37.5 832.3,37.5 832.3,40.1 832.3,40.1 832.3,42.6 832.3,45.1 832.3,45.2 832.3,46.4 828.4,46.4 
	828.4,50.3 834.9,50.3 834.9,50.2 834.9,47.7 834.9,46.4 834.9,45.2 834.9,45.1 834.9,42.6 834.9,40.1 837.5,40.1 "/>
<polygon class="st4" points="829.3,0 824.1,0 824.1,2.6 824.1,2.6 824.1,5.1 824.1,7.6 824.1,7.7 824.1,8.9 820.2,8.9 820.2,12.7 
	826.7,12.7 826.7,12.7 826.7,10.2 826.7,8.9 826.7,7.7 826.7,7.6 826.7,5.1 826.7,2.6 829.3,2.6 "/>
<rect x="32.3" y="114.9" class="st0" width="4" height="4"/>
<rect x="28.3" y="114.9" class="st0" width="4" height="4"/>
<rect x="24.3" y="114.9" class="st0" width="4" height="4"/>
<rect x="20.2" y="114.9" class="st0" width="4" height="4"/>
<rect x="16.2" y="114.9" class="st0" width="4" height="4"/>
<polygon class="st1" points="28.3,99.2 28.3,111 16.2,111 16.2,99.2 20.2,99.2 20.2,107.1 24.3,107.1 24.3,99.2 "/>
<rect x="16.2" y="79.4" class="st1" width="12.1" height="11.8"/>
<rect x="16.2" y="43.9" class="st1" width="12.1" height="3.9"/>
<rect x="16.2" y="40" class="st1" width="12.1" height="3.9"/>
<rect x="16.2" y="36" class="st0" width="12.1" height="4"/>
<rect x="12.2" y="114.9" class="st0" width="4" height="4"/>
<rect x="8.2" y="114.9" class="st0" width="4" height="4"/>
<rect x="8.2" y="99.2" class="st1" width="4" height="11.8"/>
<polygon class="st0" points="112.8,95.2 112.8,111 108.8,111 108.8,99.2 104.8,99.2 104.8,107.1 100.8,107.1 100.8,99.2 88.7,99.2 
	88.7,107.1 84.7,107.1 84.7,99.2 44.4,99.2 44.4,107.1 40.4,107.1 40.4,99.2 24.3,99.2 24.3,107.1 20.2,107.1 20.2,99.2 8.2,99.2 
	8.2,95.2 "/>
<rect x="8.2" y="79.4" class="st1" width="4" height="11.8"/>
<polygon class="st1" points="52.5,55.8 52.5,59.7 44.4,59.7 44.4,71.5 36.3,71.5 36.3,59.7 28.3,59.7 28.3,71.5 16.2,71.5 
	16.2,59.7 12.2,59.7 12.2,71.5 8.2,71.5 8.2,55.8 "/>
<rect x="8.2" y="40" class="st1" width="4" height="3.9"/>
<rect x="8.2" y="43.9" class="st1" width="4" height="3.9"/>
<rect x="8.2" y="36" class="st0" width="4" height="4"/>
<rect x="4.1" y="114.9" class="st0" width="4" height="4"/>
<polygon class="st3" points="76.6,111 76.6,103.1 72.6,103.1 72.6,111 4.1,111 4.1,114.9 116.8,114.9 116.8,111 "/>
<rect x="4.1" y="91.3" class="st3" width="112.7" height="3.9"/>
<polygon class="st3" points="116.9,71.5 116.9,75.5 4.1,75.5 4.1,71.5 56.5,71.5 56.5,63.7 60.5,63.7 60.5,71.5 "/>
<polygon class="st3" points="48.4,47.9 48.4,40 44.4,40 44.4,47.9 4.1,47.9 4.1,51.9 52.4,51.9 52.4,47.9 "/>
<polygon class="st3" points="44.4,32.1 44.4,40 40.4,40 40.4,36 4.1,36 4.1,32.1 "/>
<path class="st0" d="M4.1,115h-4v3.9h4V115z"/>
</svg>
