<?xml version="1.0" encoding="utf-8"?>
<!-- Generator: Adobe Illustrator 24.0.1, SVG Export Plug-In . SVG Version: 6.00 Build 0)  -->
<svg version="1.1" id="Слой_1" xmlns="http://www.w3.org/2000/svg" xmlns:xlink="http://www.w3.org/1999/xlink" x="0px" y="0px"
	 viewBox="0 0 100 93" style="enable-background:new 0 0 100 93;" xml:space="preserve">
<style type="text/css">
	.st0{fill:none;stroke:#FFFFFF;stroke-miterlimit:10;}
</style>
<path class="st0" d="M20.2,71.3c3.4,2.6,5,3.3,18.5,9.6C60,90.8,61.9,91.9,66.6,92c2.4,0,13.7,0.1,20.8-8c1.1-1.3,2.7-3.4,6.6-19.7
	c3-12.7,4.5-19.2,4.6-25.6c0-6.4,0.1-13.4-3.6-21c-1.2-2.4-7-14.6-17-16.1c-6.4-1-7.4,3.5-16.9,4.2C54.6,6.2,54,4.2,41.7,2.4
	C31.3,0.8,26,0.1,21.3,2.5c-3.9,2-6.5,6-11.8,14c-4.8,7.3-7.2,10.9-8.1,15.4C-0.4,41.3,3.4,49.3,5.7,54
	C10.3,63.4,16.8,68.6,20.2,71.3z"/>
</svg>
