<svg width="100" height="93" viewBox="0 0 100 93" fill="none" xmlns="http://www.w3.org/2000/svg">
<mask id="mask0" mask-type="alpha" maskUnits="userSpaceOnUse" x="0" y="0" width="100" height="93">
<path d="M20.2601 71.356C23.6207 73.9797 25.3076 74.6635 38.7961 80.9366C60.093 90.8382 61.9776 91.9616 66.7417 92.0105C69.1337 92.0314 80.4609 92.15 87.5115 84.0138C88.6186 82.7369 90.1802 80.6086 94.068 64.2665C97.0925 51.5459 98.6014 45.0565 98.6278 38.6229C98.6541 32.1963 98.6805 25.2324 95.0234 17.6056C93.8702 15.1982 88.0255 3.02184 78.0031 1.50067C71.6048 0.530748 70.5899 4.98262 61.1342 5.72228C54.6897 6.22468 54.0769 4.24296 41.8338 2.44267C31.3567 0.900568 26.1115 0.133014 21.3935 2.54038C17.5321 4.50813 14.8898 8.50643 9.59854 16.5031C4.76851 23.7949 2.35674 27.4443 1.47376 31.952C-0.351502 41.3373 3.52968 49.3897 5.78325 54.0579C10.3431 63.4919 16.86 68.6974 20.2601 71.356Z" fill="black" stroke="black" stroke-miterlimit="10"/>
</mask>
<g mask="url(#mask0)">
<path d="M-211 1.27148L-9.54279 242.126M-118.954 -75.7185L82.5036 165.136M-164.977 -37.2235L36.4804 203.631M-72.9304 -114.214L128.527 126.641M14.5136 -187.354L215.971 53.5006M-187.988 -17.976L13.4688 222.879M-95.942 -94.966L105.515 145.889M-8.49796 -168.107L192.959 72.7481M-141.965 -56.471L59.492 184.384M-49.9188 -133.461L151.538 107.394M37.5252 -206.602L238.982 34.2531M-201.795 -6.42752L-0.338148 234.427M-109.749 -83.4175L91.7082 157.437M-22.3049 -156.558L179.152 84.2966M-155.772 -44.9225L45.685 195.932M-63.7258 -121.913L137.731 118.942M23.7183 -195.053L225.175 45.8016M-178.784 -25.675L22.6734 215.18M-86.7374 -102.665L114.72 138.19M0.70668 -175.806L202.164 65.0491M-132.761 -64.17L68.6966 176.685M-40.7142 -141.16L160.743 99.6946M46.7299 -214.301L248.187 26.5541M-206.398 -2.57802L-4.94047 238.277M-114.351 -79.568L87.1059 161.287M-26.9072 -152.709L174.55 88.1461M-160.374 -41.073L41.0827 199.782M-68.3281 -118.063L133.129 122.792M19.116 -191.204L220.573 49.6511M-183.386 -21.8255L18.0711 219.029M-91.3397 -98.8155L110.118 142.039M-3.89564 -171.956L197.562 68.8986M-137.363 -60.3205L64.0943 180.534M-45.3165 -137.311L156.141 103.544M42.1276 -210.451L243.585 30.4036M-197.193 -10.277L4.26417 230.578M-105.147 -87.267L96.3106 153.588M-17.7026 -160.408L183.755 80.4471M-151.17 -48.772L50.2874 192.083M-59.1235 -125.762L142.334 115.093M28.3206 -198.903L229.778 41.9521M-174.181 -29.5245L27.2758 211.33M-82.1351 -106.515L119.322 134.34M5.309 -179.655L206.766 61.1996M-128.158 -68.0195L73.299 172.835M-36.1119 -145.01L165.345 95.8451M51.3322 -218.15L252.789 22.7046M-192.591 -14.1265L8.86649 226.728M-100.544 -91.1165L100.913 149.738M-13.1003 -164.257L188.357 76.5976M-146.568 -52.6215L54.8897 188.233M-54.5211 -129.612L146.936 111.243M32.9229 -202.752L234.38 38.1026M-169.579 -33.374L31.8781 207.481M-77.5327 -110.364L123.924 130.491M9.91132 -183.505L211.369 57.3501M-123.556 -71.869L77.9013 168.986M-31.5096 -148.859L169.948 91.9956M55.9345 -222L257.392 18.8551" stroke="black"/>
</g>
</svg>
