<?xml version="1.0" encoding="utf-8"?>
<!-- Generator: Adobe Illustrator 24.1.1, SVG Export Plug-In . SVG Version: 6.00 Build 0)  -->
<svg version="1.1" id="Слой_1" xmlns="http://www.w3.org/2000/svg" xmlns:xlink="http://www.w3.org/1999/xlink" x="0px" y="0px"
	 viewBox="0 0 140.6 131.5" style="enable-background:new 0 0 140.6 131.5;" xml:space="preserve">
<style type="text/css">
	.st0{fill:#FFFFFF;}
	.st1{fill:#020202;}
</style>
<g id="Слой_2_1_">
</g>
<path class="st0" d="M59.5,87.6l2.1-2.1l-2.1-2.1l2.1-2.1L34.7,54.7l-2.1,2.1l-2.1-2.1l-2.1,2.1l-2.1-2.1L0,81.2l2.1,2.1L0,85.3
	l2.1,2.1l-2,2l26.7,26.7l2.1-2.1l2.1,2.1L35,112l2.1,2.1l24.4-24.4L59.5,87.6z M16.5,89.5l-6.2-6.2l6.2-6.2l6.2,6.2L16.5,89.5
	L16.5,89.5z M28.7,77.2L22.5,71l6.1-6.1l6.2,6.2L28.7,77.2L28.7,77.2z M33,106l-6.2-6.2l6.2-6.2l6.2,6.2L33,106L33,106z M45.2,93.7
	L39,87.5l6.1-6.1l6.2,6.2L45.2,93.7L45.2,93.7z"/>
<path class="st0" d="M100.3,5.8V2.9h-2.9V0H59.9v2.9H57v2.9h-2.8v37.8h2.9v2.9h5.8v2.9h34.5v-2.8h2.9v-2.9h2.9V5.8H100.3z
	 M74.4,40.7l-8.7,0.1V32h8.7V40.7z M74.4,17.4h-8.7V8.7h8.7V17.4z M91.6,40.7L83,40.8V32h8.6V40.7z M91.6,17.4H83V8.7h8.6V17.4z"/>
<polygon points="74.4,32 74.4,40.7 65.7,40.8 65.7,32 "/>
<polygon points="91.6,32 91.6,40.7 83,40.8 83,32 "/>
<rect x="83" y="8.7" width="8.6" height="8.7"/>
<rect x="65.7" y="8.7" width="8.7" height="8.7"/>
<path class="st0" d="M119.3,73.2l-1.5-2.5l-2.5,1.5l-1.5-2.5L81.7,90l1.5,2.5L80.7,94l1.5,2.5L79.8,98l20,31.8l2.5-1.5l1.5,2.5
	l2.5-1.5l1.5,2.4l32-20.1l-1.5-2.5l2.5-1.5l-3.1-4.9l2.5-1.5l-18.4-29.2L119.3,73.2z M111.4,115.6l-7.4,4.6l-4.6-7.4l7.4-4.6
	L111.4,115.6z M94.9,105.6l-4.6-7.3l7.4-4.6l4.6,7.3L94.9,105.6z M131.2,103.1l-7.5,4.7l-4.6-7.4l7.4-4.6L131.2,103.1z M122,88.5
	l-7.5,4.7l-4.6-7.3l7.4-4.6L122,88.5z"/>
<polygon points="117.4,81.3 122,88.5 114.6,93.2 110,85.9 "/>
<polygon points="126.5,95.8 131.2,103.1 123.8,107.8 119.2,100.4 "/>
<polygon points="106.8,108.2 111.4,115.6 104.1,120.2 99.4,112.8 "/>
<rect x="91.9" y="95.3" transform="matrix(0.8468 -0.5319 0.5319 0.8468 -38.2364 66.4604)" width="8.7" height="8.6"/>
<rect x="28.5" y="95.4" transform="matrix(0.7071 -0.7071 0.7071 0.7071 -60.8887 52.46)" class="st1" width="8.7" height="8.7"/>
<rect x="40.8" y="83.1" transform="matrix(0.7071 -0.7071 0.7071 0.7071 -48.6204 57.5417)" class="st1" width="8.6" height="8.7"/>
<rect x="12.1" y="78.9" transform="matrix(0.7071 -0.7071 0.7071 0.7071 -54.0643 35.9844)" class="st1" width="8.7" height="8.7"/>
<rect x="24.4" y="66.6" transform="matrix(0.7071 -0.7071 0.7071 0.7071 -41.796 41.0661)" class="st1" width="8.6" height="8.7"/>
<path class="st0" d="M89.4,68L89.4,68L89.4,68z"/>
<path class="st0" d="M89.4,68L89.4,68L89.4,68z"/>
<path class="st0" d="M81.2,68L81.2,68L81.2,68z"/>
<path class="st0" d="M81.2,68L81.2,68L81.2,68z"/>
<path class="st0" d="M64.5,39.2L64.5,39.2L64.5,39.2z"/>
<path class="st0" d="M64.5,39.2L64.5,39.2L64.5,39.2z"/>
<path class="st0" d="M60.6,43.6L60.6,43.6L60.6,43.6z"/>
<path class="st0" d="M72.8,82.5L72.8,82.5L72.8,82.5z"/>
<path class="st0" d="M60.6,43.6L60.6,43.6L60.6,43.6z"/>
<path class="st0" d="M56.5,47.6L56.5,47.6L56.5,47.6z"/>
<path class="st0" d="M56.5,47.6L56.5,47.6L56.5,47.6z"/>
</svg>
