<?xml version="1.0" encoding="utf-8"?>
<!-- Generator: Adobe Illustrator 24.1.1, SVG Export Plug-In . SVG Version: 6.00 Build 0)  -->
<svg version="1.1" id="Слой_1" xmlns="http://www.w3.org/2000/svg" xmlns:xlink="http://www.w3.org/1999/xlink" x="0px" y="0px"
	 viewBox="0 0 49.5 49" style="enable-background:new 0 0 49.5 49;" xml:space="preserve">
<style type="text/css">
	.st0{fill:#FFFFFF;}
	.st1{fill:#020202;}
</style>
<g id="Слой_2_1_">
</g>
<path class="st0" d="M46.6,5.8V2.9h-2.9V0H5.8v2.9H2.9v2.9H0v37.5h2.9v2.9h2.9V49h37.8v-2.9h2.9v-5.8h2.9V5.8H46.6z M17.5,37.5H8.7
	v-8.7h8.7v8.7H17.5z M17.5,20.2H8.7v-8.6h8.7v8.6H17.5z M40.8,37.5H32v-8.7h8.7L40.8,37.5L40.8,37.5z M40.8,20.2H32v-8.6h8.7
	L40.8,20.2L40.8,20.2z"/>
<rect x="32" y="28.8" class="st1" width="8.7" height="8.7"/>
<rect x="32" y="11.5" class="st1" width="8.7" height="8.6"/>
<rect x="8.7" y="28.8" class="st1" width="8.7" height="8.7"/>
<rect x="8.7" y="11.5" class="st1" width="8.7" height="8.6"/>
<path class="st0" d="M81.2,5L81.2,5L81.2,5z"/>
<path class="st0" d="M81.2,5L81.2,5L81.2,5z"/>
<path class="st0" d="M73,5L73,5L73,5z"/>
<path class="st0" d="M73,5L73,5L73,5z"/>
<path class="st0" d="M62.7-5.2L62.7-5.2L62.7-5.2z"/>
<path class="st0" d="M62.7-5.2L62.7-5.2L62.7-5.2z"/>
<path class="st0" d="M52.4-19.4L52.4-19.4L52.4-19.4z"/>
<path class="st0" d="M52.4-7.2L52.4-7.2L52.4-7.2z"/>
<path class="st0" d="M52.4-19.4L52.4-19.4L52.4-19.4z"/>
<path class="st0" d="M48.3-15.4L48.3-15.4L48.3-15.4z"/>
<path class="st0" d="M48.3-15.4L48.3-15.4L48.3-15.4z"/>
</svg>
