<?xml version="1.0" encoding="utf-8"?>
<!-- Generator: Adobe Illustrator 24.1.1, SVG Export Plug-In . SVG Version: 6.00 Build 0)  -->
<svg version="1.1" id="Слой_1" xmlns="http://www.w3.org/2000/svg" xmlns:xlink="http://www.w3.org/1999/xlink" x="0px" y="0px"
	 viewBox="0 0 63.2 60.2" style="enable-background:new 0 0 63.2 60.2;" xml:space="preserve">
<style type="text/css">
	.st0{fill:#FFFFFF;}
	.st1{fill:#020202;}
	.st2{fill:#FFCD00;}
</style>
<g id="Слой_2_1_">
</g>
<path class="st0" d="M54.9,38.8L54.9,38.8L54.9,38.8z"/>
<path class="st0" d="M54.9,38.8L54.9,38.8L54.9,38.8z"/>
<path class="st0" d="M50.8,38.8L50.8,38.8L50.8,38.8z"/>
<path class="st0" d="M50.8,26.6L50.8,26.6L50.8,26.6z"/>
<path class="st0" d="M50.8,38.8L50.8,38.8L50.8,38.8z"/>
<path class="st0" d="M50.8,26.6L50.8,26.6L50.8,26.6z"/>
<polygon class="st0" points="48.7,20.5 48.7,20.5 48.7,20.4 "/>
<polygon class="st0" points="48.7,20.5 48.7,20.5 48.7,20.4 "/>
<path class="st0" d="M46.7,30.6L46.7,30.6L46.7,30.6z"/>
<path class="st0" d="M46.7,30.6L46.7,30.6L46.7,30.6z"/>
<path class="st0" d="M38.4,51L38.4,51L38.4,51z"/>
<path d="M38.4,30.6L38.4,30.6L38.4,30.6z"/>
<path class="st0" d="M38.4,30.6L38.4,30.6L38.4,30.6z"/>
<path class="st0" d="M38.4,51L38.4,51L38.4,51z"/>
<path class="st0" d="M38.4,26.6L38.4,26.6L38.4,26.6z"/>
<path class="st0" d="M30.2,51L30.2,51L30.2,51z"/>
<path class="st0" d="M30.2,18.4L30.2,18.4L30.2,18.4z"/>
<path class="st0" d="M30.2,51L30.2,51L30.2,51z"/>
<polygon class="st1" points="32.2,24 30.2,26.1 30.2,26.1 28.1,28.1 28.1,28.1 26.1,30.1 24,28.1 22,26.1 19.9,24 22,22 24,19.9 
	26.1,17.9 28.1,19.9 28.1,20 28.1,20 30.2,22 "/>
<path class="st0" d="M19.9,40.8L19.9,40.8L19.9,40.8z"/>
<path class="st0" d="M19.9,40.8L19.9,40.8L19.9,40.8z"/>
<path class="st0" d="M9.6,26.6L9.6,26.6L9.6,26.6z"/>
<path class="st0" d="M9.6,38.8L9.6,38.8L9.6,38.8z"/>
<path class="st0" d="M9.6,26.6L9.6,26.6L9.6,26.6z"/>
<path class="st0" d="M5.5,30.6L5.5,30.6L5.5,30.6z"/>
<path class="st0" d="M5.5,30.6L5.5,30.6L5.5,30.6z"/>
<path class="st2" d="M63.1,30L61,28l-2-2l2-2l-2-2l-2.1-2l-2.1-2l-2.1-2l-2.1-2l-2.1-2l-2-2l0,0l-2-2l-2.1,2l2-2l-2-2l-2.1-2l-2.1-2
	l-2.1-2L34,2l-2.1-2l-2.1,2l-2.1-2l-2,2l-2.1,2l-2.1,2l-2.1,2l-4.1,4.1l-2,2l-4.1,4.1l-2.1,2l0,0l-2.1,2l-2.1,2l-2.1,2l2.1,2l2.1-2
	l-2.1,2l-2.1,2l2.1,2l-2,2l2,2l2.1,2l2.1-2l-2.1,2l2.1,2l2.1,2l2.1,2l2.1,2l2,2l2.1,2l0,0l2,2l2.1,2l2,2l2.1,2l2.1,2l2-2l0,0l2,2
	l2.1-2l2.1,2l2.1-2l2.1-2l-2.1-2l2.1,2l2.1-2l2.1-2l-2.1-2l-2.1,2l2.1-2l2.1,2l2-2l0,0l2-2l4.1-4.1l2.1-2l2.1-2l-2-2l0,0l0,0l0,0
	l2,2l2.1-2l2.1-2l-2.1-2l2.1,2l2-2l-2.1-2L63.1,30z M5.5,30L5.5,30L5.5,30L5.5,30z M9.6,38.2L9.6,38.2L9.6,38.2L9.6,38.2z M9.6,26
	L9.6,26L9.6,26L9.6,26z M38.4,26L38.4,26L38.4,26L38.4,26z M30.2,17.8L30.2,17.8L30.2,17.8L30.2,17.8z M28.1,15.8L28.1,15.8
	L28.1,15.8L28.1,15.8L28.1,15.8z M19.9,40.2L19.9,40.2L19.9,40.2L19.9,40.2z M30.2,50.4L30.2,50.4L30.2,50.4L30.2,50.4z M30.2,26
	L30.2,26l-2.1,2l0,0l-2,2L24,28l-2.1-2l-2.1-2l2.1-2l2.1-2l2.1-2l2,2l0,0l0,0l2,2l2.1,2L30.2,26z M38.4,50.4L38.4,50.4L38.4,50.4
	L38.4,50.4z M42.5,38.2l-2.1,2l-2.1,2l-2.1-2l-2-2l0,0l-2.1-2l2.1-2l2.1-2l2.1-2l0,0l0,0l0,0l2.1,2l2.1,2l2,2L42.5,38.2z M46.7,30
	L46.7,30L46.7,30L46.7,30z M48.7,19.9L48.7,19.9L48.7,19.9L48.7,19.9z M50.8,38.2L50.8,38.2L50.8,38.2L50.8,38.2z M50.8,26L50.8,26
	L50.8,26L50.8,26L50.8,26z"/>
<polygon class="st1" points="44.6,36.3 42.5,38.3 40.5,40.3 38.4,42.4 36.4,40.3 34.3,38.3 34.3,38.3 32.2,36.3 34.3,34.2 
	36.4,32.2 38.4,30 38.4,30 40.5,32.2 42.5,34.2 "/>
</svg>
