<?xml version="1.0" encoding="utf-8"?>
<!-- Generator: Adobe Illustrator 24.1.1, SVG Export Plug-In . SVG Version: 6.00 Build 0)  -->
<svg version="1.1" xmlns="http://www.w3.org/2000/svg" xmlns:xlink="http://www.w3.org/1999/xlink" x="0px" y="0px"
	 viewBox="0 0 106 95" style="enable-background:new 0 0 106 95;" xml:space="preserve">
<style type="text/css">
	.st0{fill:#FFFFFF;}
	.st1{fill:#020202;}
</style>
<g id="Слой_2">
</g>
<g id="Слой_1">
	<path class="st0" d="M46.6,51.8v-2.9h-2.9V46H5.8v2.9H2.9v2.9H0v37.5h2.9v2.9h2.9V95h37.8v-2.9h2.9v-5.8h2.9V51.8H46.6z M17.5,83.5
		H8.7v-8.7h8.7V83.5z M17.5,66.2H8.7v-8.6h8.7V66.2z M40.8,83.5H32v-8.7h8.7V83.5z M40.8,66.2H32v-8.6h8.7V66.2z"/>
	<rect x="32" y="74.8" class="st1" width="8.7" height="8.7"/>
	<rect x="32" y="57.5" class="st1" width="8.7" height="8.6"/>
	<rect x="8.7" y="74.8" class="st1" width="8.7" height="8.7"/>
	<rect x="8.7" y="57.5" class="st1" width="8.7" height="8.6"/>
	<polygon class="st0" points="97.7,38.8 97.7,38.8 97.7,38.8 	"/>
	<polygon class="st0" points="97.7,38.8 97.7,38.8 97.7,38.8 	"/>
	<polygon class="st0" points="93.6,38.8 93.6,38.8 93.6,38.8 	"/>
	<rect x="93.6" y="26.6" class="st0" width="0" height="0"/>
	<polygon class="st0" points="93.6,38.8 93.6,38.8 93.6,38.8 	"/>
	<rect x="93.6" y="26.6" class="st0" width="0" height="0"/>
	<polygon class="st0" points="91.5,20.5 91.5,20.5 91.5,20.4 	"/>
	<polygon class="st0" points="91.5,20.5 91.5,20.5 91.5,20.4 	"/>
	<polygon class="st0" points="89.5,30.6 89.5,30.6 89.5,30.6 	"/>
	<polygon class="st0" points="89.5,30.6 89.5,30.6 89.5,30.6 	"/>
	<polygon class="st0" points="81.2,51 81.2,51 81.2,51 	"/>
	<polygon points="81.2,30.6 81.2,30.6 81.2,30.6 81.2,30.6 	"/>
	<polygon class="st0" points="81.2,30.6 81.2,30.6 81.2,30.6 81.2,30.6 	"/>
	<polygon class="st0" points="81.2,51 81.2,51 81.2,51 	"/>
	<polygon class="st0" points="81.2,26.6 81.2,26.6 81.2,26.6 	"/>
	<polygon class="st0" points="73,51 73,51 73,51 	"/>
	<polygon class="st0" points="73,18.4 73,18.4 73,18.4 	"/>
	<polygon class="st0" points="73,51 73,51 73,51 	"/>
	<polygon class="st1" points="75,24.5 73,26.6 73,26.6 70.9,28.6 70.9,28.6 68.9,30.6 66.8,28.6 64.8,26.6 62.7,24.5 64.8,22.5 
		66.8,20.4 68.9,18.4 70.9,20.4 70.9,20.5 70.9,20.5 73,22.5 	"/>
	<polygon class="st0" points="62.7,40.8 62.7,40.8 62.7,40.8 	"/>
	<polygon class="st0" points="62.7,40.8 62.7,40.8 62.7,40.8 	"/>
	<polygon class="st0" points="52.4,26.6 52.4,26.6 52.4,26.6 	"/>
	<polygon class="st0" points="52.4,38.8 52.4,38.8 52.4,38.8 	"/>
	<polygon class="st0" points="52.4,26.6 52.4,26.6 52.4,26.6 	"/>
	<polygon class="st0" points="48.3,30.6 48.3,30.6 48.3,30.6 	"/>
	<polygon class="st0" points="48.3,30.6 48.3,30.6 48.3,30.6 	"/>
	<path class="st0" d="M105.9,30.6l-2.1-2l-2-2l2-2l-2-2l-2.1-2l-2.1-2l-2.1-2l-2.1-2l-2.1-2l-2-2h0l-2-2l-2.1,2l2-2l-2-2l-2.1-2
		l-2.1-2l-2.1-2l-2.1,2l-2.1-2l-2.1,2l-2.1-2l-2,2l-2.1,2l-2.1,2l-2.1,2l-4.1,4.1l-2,2l-4.1,4.1l-2.1,2l0,0l-2.1,2l-2.1,2l-2.1,2
		l2.1,2l2.1-2l-2.1,2l-2.1,2l2.1,2l-2,2l2,2l2.1,2l2.1-2l-2.1,2l2.1,2l2.1,2l2.1,2l2.1,2l2,2l2.1,2h0l2,2l2.1,2l2,2l2.1,2l2.1,2l2-2
		h0l2,2l2.1-2l2.1,2l2.1-2l2.1-2l-2.1-2l2.1,2l2.1-2l2.1-2l-2.1-2l-2.1,2l2.1-2l2.1,2l2-2h0l2-2l4.1-4.1l2.1-2l2.1-2l-2-2h0l0,0l0,0
		l2,2l2.1-2l2.1-2l-2.1-2l2.1,2l2-2l-2.1-2L105.9,30.6z M48.3,30.6L48.3,30.6L48.3,30.6L48.3,30.6z M52.4,38.8L52.4,38.8L52.4,38.8
		L52.4,38.8z M52.4,26.6L52.4,26.6L52.4,26.6L52.4,26.6z M81.2,26.6L81.2,26.6L81.2,26.6L81.2,26.6z M73,18.4L73,18.4L73,18.4
		L73,18.4z M70.9,16.4L70.9,16.4L70.9,16.4L70.9,16.4L70.9,16.4z M62.7,40.8L62.7,40.8L62.7,40.8L62.7,40.8z M73,51L73,51L73,51
		L73,51z M73,26.6L73,26.6l-2.1,2h0l-2,2l-2.1-2l-2.1-2l-2.1-2l2.1-2l2.1-2l2.1-2l2,2v0h0l2,2l2.1,2L73,26.6z M81.2,51L81.2,51
		L81.2,51L81.2,51z M85.3,38.8l-2.1,2l-2.1,2l-2.1-2l-2-2l0,0l-2.1-2l2.1-2l2.1-2l2.1-2l0,0h0v0l2.1,2l2.1,2l2,2L85.3,38.8z
		 M89.5,30.6L89.5,30.6L89.5,30.6L89.5,30.6z M91.5,20.5L91.5,20.5L91.5,20.5L91.5,20.5z M93.6,38.8L93.6,38.8L93.6,38.8L93.6,38.8z
		 M93.6,26.6L93.6,26.6L93.6,26.6L93.6,26.6L93.6,26.6z"/>
	<polygon class="st1" points="87.4,36.8 85.3,38.8 83.3,40.8 81.2,42.9 79.2,40.8 77.1,38.8 77.1,38.8 75,36.8 77.1,34.7 79.2,32.7 
		81.2,30.6 81.2,30.6 83.3,32.7 85.3,34.7 	"/>
</g>
</svg>
