<svg width="198" height="173" viewBox="0 0 198 173" fill="none" xmlns="http://www.w3.org/2000/svg">
<path d="M83.1634 4.25811C56.9508 1.06225 43.8445 -0.53569 35.3376 3.02302C17.3024 10.5661 2.41042 31.9881 1.09254 53.0333C-0.350533 76.1161 15.5563 82.5008 15.8528 116.623C15.9516 127.85 14.2713 132.204 17.6253 138.847C25.4337 154.324 47.8113 157.038 60.7266 158.601C90.3195 162.188 95.288 151.951 117.995 157.987C136.432 162.886 137.302 170.736 152.827 171.566C165.485 172.243 185.18 168.112 193.562 153.047C200.158 141.192 196.976 127.571 192.969 110.447C190.781 101.076 188.132 94.8098 182.933 82.6683C171.87 56.8293 166.335 43.9132 155.772 33.279C143.252 20.677 129.797 15.332 122.12 12.2896C110.45 7.64936 101.199 6.45614 83.1634 4.25811Z" stroke="black" stroke-miterlimit="10"/>
</svg>
