<?xml version="1.0" encoding="utf-8"?>
<!-- Generator: Adobe Illustrator 24.0.1, SVG Export Plug-In . SVG Version: 6.00 Build 0)  -->
<svg version="1.1" id="Слой_1" xmlns="http://www.w3.org/2000/svg" xmlns:xlink="http://www.w3.org/1999/xlink" x="0px" y="0px"
	 viewBox="0 0 198 173" style="enable-background:new 0 0 198 173;" xml:space="preserve">
<style type="text/css">
	.st0{fill:none;stroke:#FFFFFF;stroke-miterlimit:10;}
</style>
<path class="st0" d="M83.2,4.3C57,1.1,43.8-0.5,35.3,3c-18,7.5-32.9,29-34.2,50c-1.4,23.1,14.5,29.5,14.8,63.6
	c0.1,11.2-1.6,15.6,1.8,22.2c7.8,15.5,30.2,18.2,43.1,19.8c29.6,3.6,34.6-6.6,57.3-0.6c18.4,4.9,19.3,12.7,34.8,13.6
	c12.7,0.7,32.4-3.5,40.7-18.5c6.6-11.9,3.4-25.5-0.6-42.6c-2.2-9.4-4.8-15.6-10-27.8c-11.1-25.8-16.6-38.8-27.2-49.4
	c-12.5-12.6-26-17.9-33.7-21C110.4,7.6,101.2,6.5,83.2,4.3z"/>
</svg>
