<?xml version="1.0" encoding="utf-8"?>
<!-- Generator: Adobe Illustrator 24.1.1, SVG Export Plug-In . SVG Version: 6.00 Build 0)  -->
<svg version="1.1" id="Слой_1" xmlns="http://www.w3.org/2000/svg" xmlns:xlink="http://www.w3.org/1999/xlink" x="0px" y="0px"
	 viewBox="0 0 156 104" style="enable-background:new 0 0 156 104;" xml:space="preserve">
<style type="text/css">
	.st0{fill:#FFFFFF;}
	.st1{opacity:0.5;fill:#FFCD00;enable-background:new    ;}
	.st2{fill:#FFCD00;}
	.st3{fill:#3A566F;}
	.st4{fill:#84BADA;}
	.st5{fill:#719CB9;}
	.st6{fill:#C0D8E9;}
	.st7{fill:#E7F1F7;}
	.st8{fill:#9DBACE;}
	.st9{fill:#1B1827;}
</style>
<g>
	<path class="st0" d="M81.2,23.3H76h-0.1h-5.1v5.3h-5.2h-5v5.3h-0.2h-5v5h-0.2v0.3h-5v10.5v0.1h-0.2v0.1h-5.1h-0.1v5.3v10.7v5.3v5.2
		h0.1h5.1v0.1v5.2v5.3h5.2v5.3h5.2v5.3h5.2h5.2v5.3h5.1h5.3h10.3h5.2v-5.3h0.1h5.1h5.2v-0.1v-5.2h0.1v0.1h5.1v-0.2v-5.2h5.2V76.5
		h5.2V65.9v-16h-5.2v-0.1v-0.1V39.3h-5.2v-5.3h-5.2v-5.3h-5.2h-5.2v-5.3H86.3 M81.2,33.9v5.3h-0.1L81.2,33.9L81.2,33.9z"/>
</g>
<g id="Слой_2_1_">
</g>
<g id="Слой_1_1_">
	<polygon class="st1" points="54.2,33.9 59.4,33.9 59.4,33.9 	"/>
	<polygon class="st2" points="150.8,45.5 156,44.2 154.7,39 149.5,40.3 149.5,40.3 144.2,41.5 144.2,41.5 139,42.8 140.3,48 
		135,49.3 135,49.3 129.8,50.6 131.1,55.8 136.3,54.5 141.5,53.3 146.8,52 145.5,46.8 	"/>
	<polygon class="st2" points="34.3,41.8 30.5,45.6 19.1,34.1 15.3,37.9 11.4,34.1 3.8,26.5 3.8,26.5 0,22.7 3.8,18.9 15.3,30.3 
		15.3,30.3 19.1,26.5 26.7,34.1 26.7,34.1 30.5,37.9 	"/>
	<polygon class="st3" points="124.1,66.3 124.1,77 118.7,77 118.7,87.8 113.3,87.8 113.3,71.7 118.7,71.7 118.7,66.3 	"/>
	<polygon class="st4" points="124.1,50.1 124.1,66.3 118.7,66.3 118.7,60.9 113.3,60.9 113.3,50.1 	"/>
	<rect x="118.7" y="49.9" class="st5" width="0" height="0.1"/>
	<polygon class="st2" points="135.5,0 132.6,4.6 129.8,9.1 126.9,13.7 124,18.2 128.6,21.1 128.6,21.1 122.8,30.2 127.4,33.1 
		136,19.4 131.4,16.6 131.5,16.5 134.3,12 134.3,12 137.2,7.4 137.2,7.4 140.1,2.9 	"/>
	<rect x="108" y="93.1" class="st5" width="5.3" height="0.2"/>
	<rect x="107.9" y="60.9" class="st5" width="10.8" height="10.8"/>
	<polygon class="st5" points="118.7,49.9 118.7,50 118.7,50 118.7,50.1 107.9,50.1 107.9,39.3 118.7,39.3 	"/>
	<rect x="102.5" y="98.5" class="st5" width="5.4" height="0.1"/>
	<rect x="102.5" y="77" class="st3" width="5.4" height="10.8"/>
	<polygon class="st6" points="113.3,33.9 113.3,39.3 107.9,39.3 107.9,50.1 102.5,50.1 102.5,28.5 107.9,28.5 107.9,33.9 	"/>
	<rect x="97.2" y="98.5" class="st5" width="5.3" height="0.1"/>
	<rect x="97.1" y="50.1" class="st7" width="5.4" height="5.4"/>
	<rect x="91.7" y="98.6" class="st0" width="5.4" height="5.4"/>
	<polygon class="st5" points="113.3,82.4 113.3,93.1 108,93.1 108,93.2 107.9,93.2 107.9,98.5 97.2,98.5 97.2,98.6 91.7,98.6 
		91.7,93.2 97.1,93.2 97.1,87.8 107.9,87.8 107.9,82.4 	"/>
	<polygon class="st8" points="102.5,71.7 102.5,82.4 97.1,82.4 97.1,77 91.7,77 91.7,66.3 97.1,66.3 97.1,71.7 	"/>
	<polygon class="st5" points="102.5,55.5 102.5,60.9 91.7,60.9 91.7,50.1 97.1,50.1 97.1,55.5 	"/>
	<rect x="91.7" y="44.7" class="st0" width="10.8" height="5.4"/>
	<rect x="91.7" y="39.3" class="st3" width="10.8" height="5.4"/>
	<rect x="91.7" y="33.9" class="st0" width="10.8" height="5.4"/>
	<rect x="91.7" y="28.5" class="st5" width="10.8" height="5.4"/>
	<polygon class="st7" points="97.1,23.1 97.1,28.5 91.7,28.5 91.7,33.9 86.3,33.9 86.3,23.1 	"/>
	<rect x="86.3" y="87.8" class="st3" width="5.4" height="10.8"/>
	<rect x="86.3" y="33.9" class="st8" width="5.4" height="16.2"/>
	<polygon class="st5" points="91.7,98.6 91.7,104 81,104 81,93.2 86.3,93.2 86.3,98.6 	"/>
	<polygon class="st8" points="91.7,82.4 91.7,87.8 81,87.8 81,71.7 86.3,71.7 86.3,82.4 	"/>
	<polygon class="st0" points="107.9,60.9 107.9,71.7 113.3,71.7 113.3,82.4 107.9,82.4 107.9,77 102.5,77 102.5,71.7 97.1,71.7 
		97.1,66.3 91.7,66.3 91.7,77 97.1,77 97.1,82.4 102.5,82.4 102.5,87.8 97.1,87.8 97.1,93.2 91.7,93.2 91.7,82.4 86.3,82.4 
		86.3,71.7 81,71.7 81,55.5 86.3,55.5 86.3,50.1 91.7,50.1 91.7,60.9 102.5,60.9 102.5,50.1 113.3,50.1 113.3,60.9 	"/>
	<polygon class="st0" points="86.3,87.8 86.3,93.2 81,93.2 81,104 75.5,104 75.5,93.2 70.2,93.2 70.2,82.4 48.8,82.4 48.8,82.4 
		48.8,82.4 48.8,82.3 48.8,82.3 48.8,77 54,77 54,66.3 48.6,66.3 48.6,55.5 43.3,55.5 43.3,50.1 54,50.1 54,60.9 59.4,60.9 
		59.4,71.7 70.2,71.7 70.2,77 81,77 81,87.8 	"/>
	<rect x="75.5" y="44.7" class="st7" width="10.8" height="10.8"/>
	<rect x="75.5" y="33.9" class="st5" width="5.4" height="5.4"/>
	<polygon class="st5" points="86.3,23.1 86.3,33.9 81,33.9 81,28.5 75.5,28.5 75.5,23.1 	"/>
	<rect x="70.2" y="55.5" class="st6" width="10.8" height="21.6"/>
	<polygon class="st0" points="86.3,33.9 86.3,44.7 75.5,44.7 75.5,55.5 70.2,55.5 70.2,39.3 81,39.3 81,33.9 	"/>
	<rect x="70.2" y="33.9" class="st4" width="5.4" height="5.4"/>
	<rect x="70.2" y="28.5" class="st3" width="10.8" height="5.4"/>
	<rect x="70.2" y="23.1" class="st4" width="5.4" height="5.4"/>
	<polygon class="st9" points="97.1,7 97.1,12.4 86.3,12.4 86.3,23.1 81,23.1 81,12.4 70.2,12.4 70.2,7 	"/>
	<polygon class="st3" points="75.5,93.2 75.5,104 70.2,104 70.2,98.6 64.8,98.6 64.8,93.2 	"/>
	<rect x="64.8" y="82.4" class="st5" width="5.4" height="10.8"/>
	<rect x="64.8" y="50.1" class="st8" width="5.4" height="5.4"/>
	<path class="st5" d="M64.8,93.2h-5.4v5.4h5.4V93.2z"/>
	<rect x="59.4" y="82.4" class="st3" width="5.4" height="10.8"/>
	<rect x="59.4" y="60.9" class="st5" width="10.8" height="10.8"/>
	<polygon class="st0" points="70.2,55.5 70.2,60.9 59.4,60.9 59.4,50.1 64.8,50.1 64.8,55.5 	"/>
	<path class="st0" d="M59.4,87.8H54v5.4h5.4V87.8z"/>
	<rect x="54" y="50.1" class="st3" width="5.4" height="10.8"/>
	<polygon class="st7" points="70.2,28.5 70.2,50.1 54,50.1 54,44.7 64.8,44.7 64.8,28.5 	"/>
	<rect x="48.6" y="82.4" class="st5" width="10.8" height="5.4"/>
	<polygon class="st0" points="48.8,82.3 48.8,82.4 48.8,82.4 48.8,82.4 48.6,82.4 48.6,77 48.8,77 	"/>
	<rect x="48.6" y="66.3" class="st8" width="5.4" height="10.8"/>
	<polygon class="st5" points="64.8,28.5 64.8,44.7 54,44.7 54,50.1 48.6,50.1 48.6,50 48.8,50 48.8,49.9 48.8,49.9 48.8,39.3 
		54,39.3 54,39 54.2,39 54.2,33.9 59.4,33.9 59.4,33.9 59.6,33.9 59.6,28.5 	"/>
	<polygon class="st0" points="48.6,77 48.6,77 43.2,77 43.2,71.7 43.3,71.7 43.3,77 	"/>
	<rect x="43.3" y="66.3" class="st0" width="5.3" height="10.7"/>
	<rect x="43.2" y="66.3" class="st0" width="0.1" height="5.4"/>
	<rect x="43.2" y="55.5" class="st5" width="5.4" height="10.8"/>
	<rect x="43.2" y="50.1" class="st0" width="0.1" height="5.4"/>
	<polygon class="st2" points="60.3,18.3 55.7,21.1 52.8,16.6 50,12 45.4,14.8 42.6,10.2 39.8,5.6 44.3,2.8 47.2,7.4 51.8,4.5 
		54.6,9.1 54.6,9.1 57.4,13.7 	"/>
</g>
</svg>
