<?xml version="1.0" encoding="utf-8"?>
<!-- Generator: Adobe Illustrator 24.1.1, SVG Export Plug-In . SVG Version: 6.00 Build 0)  -->
<svg version="1.1" id="Слой_1" xmlns="http://www.w3.org/2000/svg" xmlns:xlink="http://www.w3.org/1999/xlink" x="0px" y="0px"
	 viewBox="0 0 1404 104" style="enable-background:new 0 0 1404 104;" xml:space="preserve">
<style type="text/css">
	.st0{fill:#FFCD00;}
	.st1{fill:#FFFFFF;}
	.st2{opacity:0.5;fill:#FFCD00;enable-background:new    ;}
	.st3{fill:#3A566F;}
	.st4{fill:#84BADA;}
	.st5{fill:#719CB9;}
	.st6{fill:#C0D8E9;}
	.st7{fill:#E7F1F7;}
	.st8{fill:#9DBACE;}
</style>
<g id="Слой_2_1_">
</g>
<polygon class="st0" points="1240.3,53.6 1245.6,52.3 1244.3,47.1 1239.1,48.4 1239.1,48.4 1233.8,49.6 1233.8,49.6 1228.6,50.9 
	1229.8,56.1 1224.6,57.4 1224.6,57.4 1219.3,58.7 1220.7,63.9 1225.8,62.6 1231.1,61.4 1236.3,60.1 1235.1,54.9 "/>
<polygon class="st0" points="1227.8,8.1 1224.9,12.7 1222.2,17.2 1219.3,21.8 1216.3,26.3 1220.9,29.2 1220.9,29.2 1215.2,38.3 
	1219.8,41.2 1228.3,27.5 1223.8,24.7 1223.8,24.6 1226.7,20.1 1226.7,20.1 1229.6,15.5 1229.6,15.5 1232.4,11 "/>
<polygon class="st0" points="1148.8,23.3 1144.2,26.1 1141.3,21.6 1138.4,17 1133.8,19.8 1131.1,15.2 1128.3,10.6 1132.8,7.8 
	1135.7,12.4 1140.3,9.5 1143.1,14.1 1143.1,14.1 1145.8,18.7 "/>
<g>
	<path class="st1" d="M1173.2,23.3h-5.2h-0.1h-5.1v5.3h-5.2h-5v5.3h-0.2h-5v5h-0.2v0.3h-5v10.5v0.1h-0.2v0.1h-5.1h-0.1v5.3v10.7v5.3
		v5.2h0.1h5.1v0.1v5.2V87h5.2v5.3h5.2v5.3h5.2h5.2v5.3h5.1h5.3h10.3h5.2v-5.3h0.1h5.1h5.2v-0.1v-5.2h0.1v0.1h5.1v-0.2V87h5.2V76.5
		h5.2V65.9v-16h-5.2v-0.1v-0.1V39.3h-5.2V34h-5.2v-5.3h-5.2h-5.2v-5.3h-10.4 M1173.2,33.9v5.3h-0.1L1173.2,33.9L1173.2,33.9z"/>
</g>
<polygon class="st2" points="1146.2,33.9 1151.4,33.9 1151.4,33.9 "/>
<polygon class="st0" points="1130.6,57 1126.8,60.8 1115.4,49.3 1111.6,53.1 1107.7,49.3 1100.1,41.7 1100.1,41.7 1096.3,37.9 
	1100.1,34.1 1111.6,45.5 1111.6,45.5 1115.4,41.7 1123,49.3 1123,49.3 1126.8,53.1 "/>
<polygon class="st3" points="1216.1,66.3 1216.1,77 1210.7,77 1210.7,87.8 1205.3,87.8 1205.3,71.7 1210.7,71.7 1210.7,66.3 "/>
<polygon class="st4" points="1216.1,50.1 1216.1,66.3 1210.7,66.3 1210.7,60.9 1205.3,60.9 1205.3,50.1 "/>
<rect x="1210.7" y="49.9" class="st5" width="0" height="0.1"/>
<rect x="1200" y="93.1" class="st5" width="5.3" height="0.2"/>
<rect x="1199.9" y="60.9" class="st5" width="10.8" height="10.8"/>
<polygon class="st5" points="1210.7,49.9 1210.7,50 1210.7,50 1210.7,50.1 1199.9,50.1 1199.9,39.3 1210.7,39.3 "/>
<rect x="1194.5" y="98.5" class="st5" width="5.4" height="0.1"/>
<rect x="1194.5" y="77" class="st3" width="5.4" height="10.8"/>
<polygon class="st6" points="1205.3,33.9 1205.3,39.3 1199.9,39.3 1199.9,50.1 1194.5,50.1 1194.5,28.5 1199.9,28.5 1199.9,33.9 "/>
<rect x="1189.2" y="98.5" class="st5" width="5.3" height="0.1"/>
<rect x="1189.1" y="50.1" class="st7" width="5.4" height="5.4"/>
<rect x="1183.7" y="98.6" class="st1" width="5.4" height="5.4"/>
<polygon class="st5" points="1205.3,82.4 1205.3,93.1 1200,93.1 1200,93.2 1199.9,93.2 1199.9,98.5 1189.2,98.5 1189.2,98.6 
	1183.7,98.6 1183.7,93.2 1189.1,93.2 1189.1,87.8 1199.9,87.8 1199.9,82.4 "/>
<polygon class="st8" points="1194.5,71.7 1194.5,82.4 1189.1,82.4 1189.1,77 1183.7,77 1183.7,66.3 1189.1,66.3 1189.1,71.7 "/>
<polygon class="st5" points="1194.5,55.5 1194.5,60.9 1183.7,60.9 1183.7,50.1 1189.1,50.1 1189.1,55.5 "/>
<rect x="1183.7" y="44.7" class="st1" width="10.8" height="5.4"/>
<rect x="1183.7" y="39.3" class="st3" width="10.8" height="5.4"/>
<rect x="1183.7" y="33.9" class="st1" width="10.8" height="5.4"/>
<rect x="1183.7" y="28.5" class="st5" width="10.8" height="5.4"/>
<polygon class="st7" points="1189.1,23.1 1189.1,28.5 1183.7,28.5 1183.7,33.9 1178.3,33.9 1178.3,23.1 "/>
<rect x="1178.3" y="87.8" class="st3" width="5.4" height="10.8"/>
<rect x="1178.3" y="33.9" class="st8" width="5.4" height="16.2"/>
<polygon class="st5" points="1183.7,98.6 1183.7,104 1173,104 1173,93.2 1178.3,93.2 1178.3,98.6 "/>
<polygon class="st8" points="1183.7,82.4 1183.7,87.8 1173,87.8 1173,71.7 1178.3,71.7 1178.3,82.4 "/>
<polygon class="st1" points="1199.9,60.9 1199.9,71.7 1205.3,71.7 1205.3,82.4 1199.9,82.4 1199.9,77 1194.5,77 1194.5,71.7 
	1189.1,71.7 1189.1,66.3 1183.7,66.3 1183.7,77 1189.1,77 1189.1,82.4 1194.5,82.4 1194.5,87.8 1189.1,87.8 1189.1,93.2 
	1183.7,93.2 1183.7,82.4 1178.3,82.4 1178.3,71.7 1173,71.7 1173,55.5 1178.3,55.5 1178.3,50.1 1183.7,50.1 1183.7,60.9 
	1194.5,60.9 1194.5,50.1 1205.3,50.1 1205.3,60.9 "/>
<polygon class="st1" points="1178.3,87.8 1178.3,93.2 1173,93.2 1173,104 1167.5,104 1167.5,93.2 1162.2,93.2 1162.2,82.4 
	1140.8,82.4 1140.8,82.4 1140.8,82.4 1140.8,82.3 1140.8,82.3 1140.8,77 1146,77 1146,66.3 1140.6,66.3 1140.6,55.5 1135.3,55.5 
	1135.3,50.1 1146,50.1 1146,60.9 1151.4,60.9 1151.4,71.7 1162.2,71.7 1162.2,77 1173,77 1173,87.8 "/>
<rect x="1167.5" y="44.7" class="st7" width="10.8" height="10.8"/>
<rect x="1167.5" y="33.9" class="st5" width="5.4" height="5.4"/>
<polygon class="st5" points="1178.3,23.1 1178.3,33.9 1173,33.9 1173,28.5 1167.5,28.5 1167.5,23.1 "/>
<rect x="1162.2" y="55.5" class="st6" width="10.8" height="21.6"/>
<polygon class="st1" points="1178.3,33.9 1178.3,44.7 1167.5,44.7 1167.5,55.5 1162.2,55.5 1162.2,39.3 1173,39.3 1173,33.9 "/>
<rect x="1162.2" y="33.9" class="st4" width="5.4" height="5.4"/>
<rect x="1162.2" y="28.5" class="st3" width="10.8" height="5.4"/>
<rect x="1162.2" y="23.1" class="st4" width="5.4" height="5.4"/>
<polygon class="st1" points="1189.1,7 1189.1,12.4 1178.3,12.4 1178.3,23.1 1173,23.1 1173,12.4 1162.2,12.4 1162.2,7 "/>
<polygon class="st3" points="1167.5,93.2 1167.5,104 1162.2,104 1162.2,98.6 1156.8,98.6 1156.8,93.2 "/>
<rect x="1156.8" y="82.4" class="st5" width="5.4" height="10.8"/>
<rect x="1156.8" y="50.1" class="st8" width="5.4" height="5.4"/>
<path class="st5" d="M1156.8,93.2h-5.4v5.4h5.4V93.2z"/>
<rect x="1151.4" y="82.4" class="st3" width="5.4" height="10.8"/>
<rect x="1151.4" y="60.9" class="st5" width="10.8" height="10.8"/>
<polygon class="st1" points="1162.2,55.5 1162.2,60.9 1151.4,60.9 1151.4,50.1 1156.8,50.1 1156.8,55.5 "/>
<path class="st1" d="M1151.4,87.8h-5.4v5.4h5.4V87.8z"/>
<rect x="1146" y="50.1" class="st3" width="5.4" height="10.8"/>
<rect x="1171.2" y="69" class="st3" width="5.4" height="10.8"/>
<rect x="1159.5" y="42" class="st3" width="5.4" height="10.8"/>
<polygon class="st7" points="1162.2,28.5 1162.2,50.1 1146,50.1 1146,44.7 1156.8,44.7 1156.8,28.5 "/>
<rect x="1140.6" y="82.4" class="st5" width="10.8" height="5.4"/>
<polygon class="st1" points="1140.8,82.3 1140.8,82.4 1140.8,82.4 1140.8,82.4 1140.6,82.4 1140.6,77 1140.8,77 "/>
<rect x="1140.6" y="66.3" class="st8" width="5.4" height="10.8"/>
<polygon class="st5" points="1156.8,28.5 1156.8,44.7 1146,44.7 1146,50.1 1140.6,50.1 1140.6,50 1140.8,50 1140.8,49.9 
	1140.8,49.9 1140.8,39.3 1146,39.3 1146,39 1146.2,39 1146.2,33.9 1151.4,33.9 1151.4,33.9 1151.6,33.9 1151.6,28.5 "/>
<polygon class="st1" points="1140.6,77 1140.6,77 1135.2,77 1135.2,71.7 1135.3,71.7 1135.3,77 "/>
<rect x="1135.3" y="66.3" class="st1" width="5.3" height="10.7"/>
<rect x="1135.2" y="66.3" class="st1" width="0.1" height="5.4"/>
<rect x="1135.2" y="55.5" class="st5" width="5.4" height="10.8"/>
<rect x="1135.2" y="50.1" class="st1" width="0.1" height="5.4"/>
<polygon class="st0" points="616.3,53.6 621.5,52.3 620.3,47.1 615,48.4 615,48.4 609.8,49.6 609.8,49.6 604.5,50.9 605.8,56.1 
	600.5,57.4 600.5,57.4 595.3,58.7 596.7,63.9 601.8,62.6 607,61.4 612.3,60.1 611,54.9 "/>
<polygon class="st0" points="603.8,8.1 601,12.7 598.2,17.2 595.3,21.8 592.3,26.3 597,29.2 597,29.2 591.2,38.3 595.8,41.2 
	604.3,27.5 599.8,24.7 599.8,24.6 602.7,20.1 602.7,20.1 605.5,15.5 605.5,15.5 608.5,11 "/>
<polygon class="st0" points="524.8,23.3 520.2,26.1 517.3,21.6 514.5,17 509.9,19.8 507,15.2 504.3,10.6 508.8,7.8 511.6,12.4 
	516.3,9.5 519,14.1 519,14.1 521.8,18.7 "/>
<g>
	<path class="st1" d="M549.2,23.3H544h-0.1h-5.1v5.3h-5.2h-5v5.3h-0.2h-5v5h-0.2v0.3h-5v10.5v0.1H518v0.1h-5.1h-0.1v5.3v10.7v5.3
		v5.2h0.1h5.1v0.1v5.2V87h5.2v5.3h5.2v5.3h5.2h5.2v5.3h5.1h5.3h10.3h5.2v-5.3h0.1h5.1h5.2v-0.1v-5.2h0.1v0.1h5.1v-0.2V87h5.2V76.5
		h5.2V65.9v-16h-5.2v-0.1v-0.1V39.3h-5.2V34h-5.2v-5.3h-5.2h-5.2v-5.3h-10.4 M549.2,33.9v5.3h-0.1L549.2,33.9L549.2,33.9z"/>
</g>
<polygon class="st2" points="522.2,33.9 527.4,33.9 527.4,33.9 "/>
<polygon class="st0" points="506.6,57 502.8,60.8 491.4,49.3 487.6,53.1 483.7,49.3 476.1,41.7 476.1,41.7 472.3,37.9 476.1,34.1 
	487.6,45.5 487.6,45.5 491.4,41.7 499,49.3 499,49.3 502.8,53.1 "/>
<polygon class="st3" points="592.1,66.3 592.1,77 586.7,77 586.7,87.8 581.3,87.8 581.3,71.7 586.7,71.7 586.7,66.3 "/>
<polygon class="st4" points="592.1,50.1 592.1,66.3 586.7,66.3 586.7,60.9 581.3,60.9 581.3,50.1 "/>
<rect x="586.7" y="49.9" class="st5" width="0" height="0.1"/>
<rect x="576" y="93.1" class="st5" width="5.3" height="0.2"/>
<rect x="575.9" y="60.9" class="st5" width="10.8" height="10.8"/>
<polygon class="st5" points="586.7,49.9 586.7,50 586.7,50 586.7,50.1 575.9,50.1 575.9,39.3 586.7,39.3 "/>
<rect x="570.5" y="98.5" class="st5" width="5.4" height="0.1"/>
<rect x="570.5" y="77" class="st3" width="5.4" height="10.8"/>
<polygon class="st6" points="581.3,33.9 581.3,39.3 575.9,39.3 575.9,50.1 570.5,50.1 570.5,28.5 575.9,28.5 575.9,33.9 "/>
<rect x="565.2" y="98.5" class="st5" width="5.3" height="0.1"/>
<rect x="565.1" y="50.1" class="st7" width="5.4" height="5.4"/>
<rect x="559.7" y="98.6" class="st1" width="5.4" height="5.4"/>
<polygon class="st5" points="581.3,82.4 581.3,93.1 576,93.1 576,93.2 575.9,93.2 575.9,98.5 565.2,98.5 565.2,98.6 559.7,98.6 
	559.7,93.2 565.1,93.2 565.1,87.8 575.9,87.8 575.9,82.4 "/>
<polygon class="st8" points="570.5,71.7 570.5,82.4 565.1,82.4 565.1,77 559.7,77 559.7,66.3 565.1,66.3 565.1,71.7 "/>
<polygon class="st5" points="570.5,55.5 570.5,60.9 559.7,60.9 559.7,50.1 565.1,50.1 565.1,55.5 "/>
<rect x="559.7" y="44.7" class="st1" width="10.8" height="5.4"/>
<rect x="559.7" y="39.3" class="st3" width="10.8" height="5.4"/>
<rect x="559.7" y="33.9" class="st1" width="10.8" height="5.4"/>
<rect x="559.7" y="28.5" class="st5" width="10.8" height="5.4"/>
<polygon class="st7" points="565.1,23.1 565.1,28.5 559.7,28.5 559.7,33.9 554.3,33.9 554.3,23.1 "/>
<rect x="554.3" y="87.8" class="st3" width="5.4" height="10.8"/>
<rect x="554.3" y="33.9" class="st8" width="5.4" height="16.2"/>
<polygon class="st5" points="559.7,98.6 559.7,104 549,104 549,93.2 554.3,93.2 554.3,98.6 "/>
<polygon class="st8" points="559.7,82.4 559.7,87.8 549,87.8 549,71.7 554.3,71.7 554.3,82.4 "/>
<polygon class="st1" points="575.9,60.9 575.9,71.7 581.3,71.7 581.3,82.4 575.9,82.4 575.9,77 570.5,77 570.5,71.7 565.1,71.7 
	565.1,66.3 559.7,66.3 559.7,77 565.1,77 565.1,82.4 570.5,82.4 570.5,87.8 565.1,87.8 565.1,93.2 559.7,93.2 559.7,82.4 
	554.3,82.4 554.3,71.7 549,71.7 549,55.5 554.3,55.5 554.3,50.1 559.7,50.1 559.7,60.9 570.5,60.9 570.5,50.1 581.3,50.1 
	581.3,60.9 "/>
<polygon class="st1" points="554.3,87.8 554.3,93.2 549,93.2 549,104 543.5,104 543.5,93.2 538.2,93.2 538.2,82.4 516.8,82.4 
	516.8,82.4 516.8,82.4 516.8,82.3 516.8,82.3 516.8,77 522,77 522,66.3 516.6,66.3 516.6,55.5 511.3,55.5 511.3,50.1 522,50.1 
	522,60.9 527.4,60.9 527.4,71.7 538.2,71.7 538.2,77 549,77 549,87.8 "/>
<rect x="543.5" y="44.7" class="st7" width="10.8" height="10.8"/>
<rect x="543.5" y="33.9" class="st5" width="5.4" height="5.4"/>
<polygon class="st5" points="554.3,23.1 554.3,33.9 549,33.9 549,28.5 543.5,28.5 543.5,23.1 "/>
<rect x="538.2" y="55.5" class="st6" width="10.8" height="21.6"/>
<polygon class="st1" points="554.3,33.9 554.3,44.7 543.5,44.7 543.5,55.5 538.2,55.5 538.2,39.3 549,39.3 549,33.9 "/>
<rect x="538.2" y="33.9" class="st4" width="5.4" height="5.4"/>
<rect x="538.2" y="28.5" class="st3" width="10.8" height="5.4"/>
<rect x="555.4" y="71.7" class="st3" width="10.8" height="5.4"/>
<rect x="532.7" y="42.9" class="st3" width="10.8" height="5.4"/>
<rect x="538.2" y="23.1" class="st4" width="5.4" height="5.4"/>
<polygon class="st1" points="565.1,7 565.1,12.4 554.3,12.4 554.3,23.1 549,23.1 549,12.4 538.2,12.4 538.2,7 "/>
<polygon class="st3" points="543.5,93.2 543.5,104 538.2,104 538.2,98.6 532.8,98.6 532.8,93.2 "/>
<rect x="532.8" y="82.4" class="st5" width="5.4" height="10.8"/>
<rect x="532.8" y="50.1" class="st8" width="5.4" height="5.4"/>
<path class="st5" d="M532.8,93.2h-5.4v5.4h5.4V93.2z"/>
<rect x="527.4" y="82.4" class="st3" width="5.4" height="10.8"/>
<rect x="527.4" y="60.9" class="st5" width="10.8" height="10.8"/>
<polygon class="st1" points="538.2,55.5 538.2,60.9 527.4,60.9 527.4,50.1 532.8,50.1 532.8,55.5 "/>
<path class="st1" d="M527.4,87.8H522v5.4h5.4V87.8z"/>
<rect x="522" y="50.1" class="st3" width="5.4" height="10.8"/>
<polygon class="st7" points="538.2,28.5 538.2,50.1 522,50.1 522,44.7 532.8,44.7 532.8,28.5 "/>
<rect x="516.6" y="82.4" class="st5" width="10.8" height="5.4"/>
<polygon class="st1" points="516.8,82.3 516.8,82.4 516.8,82.4 516.8,82.4 516.6,82.4 516.6,77 516.8,77 "/>
<rect x="516.6" y="66.3" class="st8" width="5.4" height="10.8"/>
<polygon class="st5" points="532.8,28.5 532.8,44.7 522,44.7 522,50.1 516.6,50.1 516.6,50 516.8,50 516.8,49.9 516.8,49.9 
	516.8,39.3 522,39.3 522,39 522.2,39 522.2,33.9 527.4,33.9 527.4,33.9 527.6,33.9 527.6,28.5 "/>
<polygon class="st1" points="516.6,77 516.6,77 511.2,77 511.2,71.7 511.3,71.7 511.3,77 "/>
<rect x="511.3" y="66.3" class="st1" width="5.3" height="10.7"/>
<rect x="511.2" y="66.3" class="st1" width="0.1" height="5.4"/>
<rect x="511.2" y="55.5" class="st5" width="5.4" height="10.8"/>
<rect x="511.2" y="50.1" class="st1" width="0.1" height="5.4"/>
<polygon class="st0" points="1075.7,53.9 1080.9,52.6 1079.6,47.4 1074.4,48.7 1074.4,48.7 1069.1,49.9 1069.1,49.9 1063.9,51.2 
	1065.2,56.4 1059.9,57.7 1059.9,57.7 1054.7,59 1056,64.2 1061.2,62.9 1066.4,61.7 1071.7,60.4 1070.4,55.2 "/>
<polygon class="st0" points="1059,17.4 1056.1,22 1053.3,26.5 1050.4,31.1 1047.5,35.6 1052.1,38.5 1052.1,38.5 1046.3,47.6 
	1050.9,50.5 1059.5,36.8 1054.9,34 1055,33.9 1057.8,29.4 1057.8,29.4 1060.7,24.8 1060.7,24.8 1063.6,20.3 "/>
<polygon class="st0" points="1003,29.7 998.3,32.5 995.5,28 992.7,23.4 988,26.2 985.3,21.6 982.5,17 987,14.2 989.8,18.8 
	994.5,15.9 997.3,20.5 997.3,20.5 1000,25.1 "/>
<g>
	<path class="st1" d="M1017.2,23.3h-5.2h-0.1h-5.1v5.3h-5.2h-5v5.3h-0.2h-5v5h-0.2v0.3h-5v10.5v0.1H986v0.1h-5.1h-0.1v5.3v10.7v5.3
		v5.2h0.1h5.1v0.1v5.2V87h5.2v5.3h5.2v5.3h5.2h5.2v5.3h5.1h5.3h10.3h5.2v-5.3h0.1h5.1h5.2v-0.1v-5.2h0.1v0.1h5.1v-0.2V87h5.2V76.5
		h5.2V65.9v-16h-5.2v-0.1v-0.1V39.3h-5.2V34h-5.2v-5.3h-5.2h-5.2v-5.3h-10.4 M1017.2,33.9v5.3h-0.1L1017.2,33.9L1017.2,33.9z"/>
</g>
<polygon class="st2" points="990.2,33.9 995.4,33.9 995.4,33.9 "/>
<polygon class="st0" points="998.8,62.4 995,66.2 983.7,54.7 979.8,58.5 976,54.7 968.3,47.1 968.3,47.1 964.5,43.3 968.3,39.5 
	979.8,50.9 979.8,50.9 983.7,47.1 991.3,54.7 991.3,54.7 995,58.5 "/>
<polygon class="st3" points="1060.1,66.3 1060.1,77 1054.7,77 1054.7,87.8 1049.3,87.8 1049.3,71.7 1054.7,71.7 1054.7,66.3 "/>
<polygon class="st4" points="1060.1,50.1 1060.1,66.3 1054.7,66.3 1054.7,60.9 1049.3,60.9 1049.3,50.1 "/>
<rect x="1054.7" y="49.9" class="st5" width="0" height="0.1"/>
<rect x="1044" y="93.1" class="st5" width="5.3" height="0.2"/>
<rect x="1043.9" y="60.9" class="st5" width="10.8" height="10.8"/>
<polygon class="st5" points="1054.7,49.9 1054.7,50 1054.7,50 1054.7,50.1 1043.9,50.1 1043.9,39.3 1054.7,39.3 "/>
<rect x="1038.5" y="98.5" class="st5" width="5.4" height="0.1"/>
<rect x="1038.5" y="77" class="st3" width="5.4" height="10.8"/>
<polygon class="st6" points="1049.3,33.9 1049.3,39.3 1043.9,39.3 1043.9,50.1 1038.5,50.1 1038.5,28.5 1043.9,28.5 1043.9,33.9 "/>
<rect x="1033.2" y="98.5" class="st5" width="5.3" height="0.1"/>
<rect x="1033.1" y="50.1" class="st7" width="5.4" height="5.4"/>
<rect x="1027.7" y="98.6" class="st1" width="5.4" height="5.4"/>
<polygon class="st5" points="1049.3,82.4 1049.3,93.1 1044,93.1 1044,93.2 1043.9,93.2 1043.9,98.5 1033.2,98.5 1033.2,98.6 
	1027.7,98.6 1027.7,93.2 1033.1,93.2 1033.1,87.8 1043.9,87.8 1043.9,82.4 "/>
<polygon class="st8" points="1038.5,71.7 1038.5,82.4 1033.1,82.4 1033.1,77 1027.7,77 1027.7,66.3 1033.1,66.3 1033.1,71.7 "/>
<polygon class="st5" points="1038.5,55.5 1038.5,60.9 1027.7,60.9 1027.7,50.1 1033.1,50.1 1033.1,55.5 "/>
<rect x="1027.7" y="44.7" class="st1" width="10.8" height="5.4"/>
<rect x="1027.7" y="39.3" class="st3" width="10.8" height="5.4"/>
<rect x="1027.7" y="33.9" class="st1" width="10.8" height="5.4"/>
<rect x="1027.7" y="28.5" class="st5" width="10.8" height="5.4"/>
<polygon class="st7" points="1033.1,23.1 1033.1,28.5 1027.7,28.5 1027.7,33.9 1022.3,33.9 1022.3,23.1 "/>
<rect x="1022.3" y="87.8" class="st3" width="5.4" height="10.8"/>
<rect x="1022.3" y="33.9" class="st8" width="5.4" height="16.2"/>
<polygon class="st5" points="1027.7,98.6 1027.7,104 1017,104 1017,93.2 1022.3,93.2 1022.3,98.6 "/>
<polygon class="st8" points="1027.7,82.4 1027.7,87.8 1017,87.8 1017,71.7 1022.3,71.7 1022.3,82.4 "/>
<polygon class="st1" points="1043.9,60.9 1043.9,71.7 1049.3,71.7 1049.3,82.4 1043.9,82.4 1043.9,77 1038.5,77 1038.5,71.7 
	1033.1,71.7 1033.1,66.3 1027.7,66.3 1027.7,77 1033.1,77 1033.1,82.4 1038.5,82.4 1038.5,87.8 1033.1,87.8 1033.1,93.2 
	1027.7,93.2 1027.7,82.4 1022.3,82.4 1022.3,71.7 1017,71.7 1017,55.5 1022.3,55.5 1022.3,50.1 1027.7,50.1 1027.7,60.9 
	1038.5,60.9 1038.5,50.1 1049.3,50.1 1049.3,60.9 "/>
<polygon class="st1" points="1022.3,87.8 1022.3,93.2 1017,93.2 1017,104 1011.5,104 1011.5,93.2 1006.2,93.2 1006.2,82.4 
	984.8,82.4 984.8,82.4 984.8,82.4 984.8,82.3 984.8,82.3 984.8,77 990,77 990,66.3 984.6,66.3 984.6,55.5 979.3,55.5 979.3,50.1 
	990,50.1 990,60.9 995.4,60.9 995.4,71.7 1006.2,71.7 1006.2,77 1017,77 1017,87.8 "/>
<rect x="1011.5" y="44.7" class="st7" width="10.8" height="10.8"/>
<rect x="1011.5" y="33.9" class="st5" width="5.4" height="5.4"/>
<polygon class="st5" points="1022.3,23.1 1022.3,33.9 1017,33.9 1017,28.5 1011.5,28.5 1011.5,23.1 "/>
<rect x="1006.2" y="55.5" class="st6" width="10.8" height="21.6"/>
<polygon class="st1" points="1022.3,33.9 1022.3,44.7 1011.5,44.7 1011.5,55.5 1006.2,55.5 1006.2,39.3 1017,39.3 1017,33.9 "/>
<rect x="1006.2" y="33.9" class="st4" width="5.4" height="5.4"/>
<rect x="1006.2" y="28.5" class="st3" width="10.8" height="5.4"/>
<rect x="1006.2" y="23.1" class="st4" width="5.4" height="5.4"/>
<polygon class="st1" points="1033.1,7 1033.1,12.4 1022.3,12.4 1022.3,23.1 1017,23.1 1017,12.4 1006.2,12.4 1006.2,7 "/>
<polygon class="st3" points="1011.5,93.2 1011.5,104 1006.2,104 1006.2,98.6 1000.8,98.6 1000.8,93.2 "/>
<rect x="1000.8" y="82.4" class="st5" width="5.4" height="10.8"/>
<rect x="1000.8" y="50.1" class="st8" width="5.4" height="5.4"/>
<path class="st5" d="M1000.8,93.2h-5.4v5.4h5.4V93.2z"/>
<rect x="995.4" y="82.4" class="st3" width="5.4" height="10.8"/>
<rect x="995.4" y="60.9" class="st5" width="10.8" height="10.8"/>
<polygon class="st1" points="1006.2,55.5 1006.2,60.9 995.4,60.9 995.4,50.1 1000.8,50.1 1000.8,55.5 "/>
<path class="st1" d="M995.4,87.8H990v5.4h5.4V87.8z"/>
<rect x="990" y="50.1" class="st3" width="5.4" height="10.8"/>
<polygon class="st7" points="1006.2,28.5 1006.2,50.1 990,50.1 990,44.7 1000.8,44.7 1000.8,28.5 "/>
<rect x="984.6" y="82.4" class="st5" width="10.8" height="5.4"/>
<polygon class="st1" points="984.8,82.3 984.8,82.4 984.8,82.4 984.8,82.4 984.6,82.4 984.6,77 984.8,77 "/>
<rect x="984.6" y="66.3" class="st8" width="5.4" height="10.8"/>
<polygon class="st5" points="1000.8,28.5 1000.8,44.7 990,44.7 990,50.1 984.6,50.1 984.6,50 984.8,50 984.8,49.9 984.8,49.9 
	984.8,39.3 990,39.3 990,39 990.2,39 990.2,33.9 995.4,33.9 995.4,33.9 995.6,33.9 995.6,28.5 "/>
<polygon class="st1" points="984.6,77 984.6,77 979.2,77 979.2,71.7 979.3,71.7 979.3,77 "/>
<rect x="979.3" y="66.3" class="st1" width="5.3" height="10.7"/>
<rect x="979.2" y="66.3" class="st1" width="0.1" height="5.4"/>
<rect x="979.2" y="55.5" class="st5" width="5.4" height="10.8"/>
<rect x="979.2" y="50.1" class="st1" width="0.1" height="5.4"/>
<polygon class="st0" points="451.7,53.9 456.9,52.6 455.6,47.4 450.4,48.7 450.4,48.7 445.1,49.9 445.1,49.9 439.9,51.2 441.2,56.4 
	435.9,57.7 435.9,57.7 430.7,59 432,64.2 437.2,62.9 442.4,61.7 447.7,60.4 446.4,55.2 "/>
<polygon class="st0" points="435,17.4 432.1,22 429.3,26.5 426.4,31.1 423.5,35.6 428.1,38.5 428.1,38.5 422.3,47.6 426.9,50.5 
	435.5,36.8 430.9,34 431,33.9 433.8,29.4 433.8,29.4 436.7,24.8 436.7,24.8 439.6,20.3 "/>
<polygon class="st0" points="379,29.7 374.4,32.5 371.5,28 368.6,23.4 364,26.2 361.3,21.6 358.5,17 363,14.2 365.9,18.8 
	370.5,15.9 373.3,20.5 373.3,20.5 376,25.1 "/>
<g>
	<path class="st1" d="M393.2,23.3H388h-0.1h-5.1v5.3h-5.2h-5v5.3h-0.2h-5v5h-0.2v0.3h-5v10.5v0.1H362v0.1h-5.1h-0.1v5.3v10.7v5.3
		v5.2h0.1h5.1v0.1v5.2V87h5.2v5.3h5.2v5.3h5.2h5.2v5.3h5.1h5.3h10.3h5.2v-5.3h0.1h5.1h5.2v-0.1v-5.2h0.1v0.1h5.1v-0.2V87h5.2V76.5
		h5.2V65.9v-16h-5.2v-0.1v-0.1V39.3h-5.2V34h-5.2v-5.3h-5.2h-5.2v-5.3h-10.4 M393.2,33.9v5.3h-0.1L393.2,33.9L393.2,33.9z"/>
</g>
<polygon class="st2" points="366.2,33.9 371.4,33.9 371.4,33.9 "/>
<polygon class="st0" points="374.9,62.4 371,66.2 359.6,54.7 355.9,58.5 352,54.7 344.4,47.1 344.4,47.1 340.5,43.3 344.4,39.5 
	355.9,50.9 355.9,50.9 359.6,47.1 367.3,54.7 367.3,54.7 371,58.5 "/>
<polygon class="st3" points="436.1,66.3 436.1,77 430.7,77 430.7,87.8 425.3,87.8 425.3,71.7 430.7,71.7 430.7,66.3 "/>
<polygon class="st4" points="436.1,50.1 436.1,66.3 430.7,66.3 430.7,60.9 425.3,60.9 425.3,50.1 "/>
<rect x="430.7" y="49.9" class="st5" width="0" height="0.1"/>
<rect x="420" y="93.1" class="st5" width="5.3" height="0.2"/>
<rect x="419.9" y="60.9" class="st5" width="10.8" height="10.8"/>
<polygon class="st5" points="430.7,49.9 430.7,50 430.7,50 430.7,50.1 419.9,50.1 419.9,39.3 430.7,39.3 "/>
<rect x="414.5" y="98.5" class="st5" width="5.4" height="0.1"/>
<rect x="414.5" y="77" class="st3" width="5.4" height="10.8"/>
<polygon class="st6" points="425.3,33.9 425.3,39.3 419.9,39.3 419.9,50.1 414.5,50.1 414.5,28.5 419.9,28.5 419.9,33.9 "/>
<rect x="409.2" y="98.5" class="st5" width="5.3" height="0.1"/>
<rect x="409.1" y="50.1" class="st7" width="5.4" height="5.4"/>
<rect x="403.7" y="98.6" class="st1" width="5.4" height="5.4"/>
<polygon class="st5" points="425.3,82.4 425.3,93.1 420,93.1 420,93.2 419.9,93.2 419.9,98.5 409.2,98.5 409.2,98.6 403.7,98.6 
	403.7,93.2 409.1,93.2 409.1,87.8 419.9,87.8 419.9,82.4 "/>
<polygon class="st8" points="414.5,71.7 414.5,82.4 409.1,82.4 409.1,77 403.7,77 403.7,66.3 409.1,66.3 409.1,71.7 "/>
<polygon class="st5" points="414.5,55.5 414.5,60.9 403.7,60.9 403.7,50.1 409.1,50.1 409.1,55.5 "/>
<rect x="403.7" y="44.7" class="st1" width="10.8" height="5.4"/>
<rect x="403.7" y="39.3" class="st3" width="10.8" height="5.4"/>
<rect x="403.7" y="33.9" class="st1" width="10.8" height="5.4"/>
<rect x="403.7" y="28.5" class="st5" width="10.8" height="5.4"/>
<polygon class="st7" points="409.1,23.1 409.1,28.5 403.7,28.5 403.7,33.9 398.3,33.9 398.3,23.1 "/>
<rect x="398.3" y="87.8" class="st3" width="5.4" height="10.8"/>
<rect x="398.3" y="33.9" class="st8" width="5.4" height="16.2"/>
<polygon class="st5" points="403.7,98.6 403.7,104 393,104 393,93.2 398.3,93.2 398.3,98.6 "/>
<polygon class="st8" points="403.7,82.4 403.7,87.8 393,87.8 393,71.7 398.3,71.7 398.3,82.4 "/>
<polygon class="st1" points="419.9,60.9 419.9,71.7 425.3,71.7 425.3,82.4 419.9,82.4 419.9,77 414.5,77 414.5,71.7 409.1,71.7 
	409.1,66.3 403.7,66.3 403.7,77 409.1,77 409.1,82.4 414.5,82.4 414.5,87.8 409.1,87.8 409.1,93.2 403.7,93.2 403.7,82.4 
	398.3,82.4 398.3,71.7 393,71.7 393,55.5 398.3,55.5 398.3,50.1 403.7,50.1 403.7,60.9 414.5,60.9 414.5,50.1 425.3,50.1 
	425.3,60.9 "/>
<polygon class="st1" points="398.3,87.8 398.3,93.2 393,93.2 393,104 387.5,104 387.5,93.2 382.2,93.2 382.2,82.4 360.8,82.4 
	360.8,82.4 360.8,82.4 360.8,82.3 360.8,82.3 360.8,77 366,77 366,66.3 360.6,66.3 360.6,55.5 355.3,55.5 355.3,50.1 366,50.1 
	366,60.9 371.4,60.9 371.4,71.7 382.2,71.7 382.2,77 393,77 393,87.8 "/>
<rect x="387.5" y="44.7" class="st7" width="10.8" height="10.8"/>
<rect x="387.5" y="33.9" class="st5" width="5.4" height="5.4"/>
<polygon class="st5" points="398.3,23.1 398.3,33.9 393,33.9 393,28.5 387.5,28.5 387.5,23.1 "/>
<rect x="382.2" y="55.5" class="st6" width="10.8" height="21.6"/>
<polygon class="st1" points="398.3,33.9 398.3,44.7 387.5,44.7 387.5,55.5 382.2,55.5 382.2,39.3 393,39.3 393,33.9 "/>
<rect x="382.2" y="33.9" class="st4" width="5.4" height="5.4"/>
<rect x="382.2" y="28.5" class="st3" width="10.8" height="5.4"/>
<rect x="382.2" y="23.1" class="st4" width="5.4" height="5.4"/>
<polygon class="st1" points="409.1,7 409.1,12.4 398.3,12.4 398.3,23.1 393,23.1 393,12.4 382.2,12.4 382.2,7 "/>
<polygon class="st3" points="387.5,93.2 387.5,104 382.2,104 382.2,98.6 376.8,98.6 376.8,93.2 "/>
<rect x="376.8" y="82.4" class="st5" width="5.4" height="10.8"/>
<rect x="376.8" y="50.1" class="st8" width="5.4" height="5.4"/>
<path class="st5" d="M376.8,93.2h-5.4v5.4h5.4V93.2z"/>
<rect x="371.4" y="82.4" class="st3" width="5.4" height="10.8"/>
<rect x="371.4" y="60.9" class="st5" width="10.8" height="10.8"/>
<polygon class="st1" points="382.2,55.5 382.2,60.9 371.4,60.9 371.4,50.1 376.8,50.1 376.8,55.5 "/>
<path class="st1" d="M371.4,87.8H366v5.4h5.4V87.8z"/>
<rect x="366" y="50.1" class="st3" width="5.4" height="10.8"/>
<rect x="377.9" y="67.3" class="st3" width="5.4" height="10.8"/>
<rect x="393" y="46.6" class="st3" width="5.4" height="10.8"/>
<rect x="406.4" y="65.2" class="st3" width="5.4" height="10.8"/>
<polygon class="st7" points="382.2,28.5 382.2,50.1 366,50.1 366,44.7 376.8,44.7 376.8,28.5 "/>
<rect x="360.6" y="82.4" class="st5" width="10.8" height="5.4"/>
<polygon class="st1" points="360.8,82.3 360.8,82.4 360.8,82.4 360.8,82.4 360.6,82.4 360.6,77 360.8,77 "/>
<rect x="360.6" y="66.3" class="st8" width="5.4" height="10.8"/>
<polygon class="st5" points="376.8,28.5 376.8,44.7 366,44.7 366,50.1 360.6,50.1 360.6,50 360.8,50 360.8,49.9 360.8,49.9 
	360.8,39.3 366,39.3 366,39 366.2,39 366.2,33.9 371.4,33.9 371.4,33.9 371.6,33.9 371.6,28.5 "/>
<polygon class="st1" points="360.6,77 360.6,77 355.2,77 355.2,71.7 355.3,71.7 355.3,77 "/>
<rect x="355.3" y="66.3" class="st1" width="5.3" height="10.7"/>
<rect x="355.2" y="66.3" class="st1" width="0.1" height="5.4"/>
<rect x="355.2" y="55.5" class="st5" width="5.4" height="10.8"/>
<rect x="355.2" y="50.1" class="st1" width="0.1" height="5.4"/>
<polygon class="st0" points="903.5,56.3 908.7,55 907.4,49.8 902.2,51.1 902.2,51.1 896.9,52.3 896.9,52.3 891.7,53.6 893,58.8 
	887.7,60.1 887.7,60.1 882.5,61.4 883.8,66.6 889,65.3 894.2,64.1 899.5,62.8 898.2,57.6 "/>
<polygon class="st0" points="894.3,25.8 891.4,30.4 888.6,34.9 885.7,39.5 882.8,44 887.4,46.9 887.4,46.9 881.6,56 886.2,58.9 
	894.8,45.2 890.2,42.4 890.3,42.3 893.1,37.8 893.1,37.8 896,33.2 896,33.2 898.9,28.7 "/>
<polygon class="st0" points="858.6,40.1 854,42.9 851.1,38.4 848.3,33.8 843.7,36.6 840.9,32 838.1,27.4 842.6,24.6 845.5,29.2 
	850.1,26.3 852.9,30.9 852.9,30.9 855.7,35.5 "/>
<g>
	<path class="st1" d="M861.2,23.3H856h-0.1h-5.1v5.3h-5.2h-5v5.3h-0.2h-5v5h-0.2v0.3h-5v10.5v0.1H830v0.1h-5.1h-0.1v5.3v10.7v5.3
		v5.2h0.1h5.1v0.1v5.2V87h5.2v5.3h5.2v5.3h5.2h5.2v5.3h5.1h5.3h10.3h5.2v-5.3h0.1h5.1h5.2v-0.1v-5.2h0.1v0.1h5.1v-0.2V87h5.2V76.5
		h5.2V65.9v-16h-5.2v-0.1v-0.1V39.3h-5.2V34h-5.2v-5.3h-5.2h-5.2v-5.3h-10.4 M861.2,33.9v5.3h-0.1L861.2,33.9L861.2,33.9z"/>
</g>
<polygon class="st2" points="834.2,33.9 839.4,33.9 839.4,33.9 "/>
<polygon class="st0" points="856.5,70.4 852.7,74.2 841.3,62.7 837.5,66.5 833.6,62.7 826,55.1 826,55.1 822.2,51.3 826,47.5 
	837.5,58.9 837.5,58.9 841.3,55.1 848.9,62.7 848.9,62.7 852.7,66.5 "/>
<polygon class="st3" points="904.1,66.3 904.1,77 898.7,77 898.7,87.8 893.3,87.8 893.3,71.7 898.7,71.7 898.7,66.3 "/>
<polygon class="st4" points="904.1,50.1 904.1,66.3 898.7,66.3 898.7,60.9 893.3,60.9 893.3,50.1 "/>
<rect x="898.7" y="49.9" class="st5" width="0" height="0.1"/>
<rect x="888" y="93.1" class="st5" width="5.3" height="0.2"/>
<rect x="887.9" y="60.9" class="st5" width="10.8" height="10.8"/>
<polygon class="st5" points="898.7,49.9 898.7,50 898.7,50 898.7,50.1 887.9,50.1 887.9,39.3 898.7,39.3 "/>
<rect x="882.5" y="98.5" class="st5" width="5.4" height="0.1"/>
<rect x="882.5" y="77" class="st3" width="5.4" height="10.8"/>
<polygon class="st6" points="893.3,33.9 893.3,39.3 887.9,39.3 887.9,50.1 882.5,50.1 882.5,28.5 887.9,28.5 887.9,33.9 "/>
<rect x="877.2" y="98.5" class="st5" width="5.3" height="0.1"/>
<rect x="877.1" y="50.1" class="st7" width="5.4" height="5.4"/>
<rect x="871.7" y="98.6" class="st1" width="5.4" height="5.4"/>
<polygon class="st5" points="893.3,82.4 893.3,93.1 888,93.1 888,93.2 887.9,93.2 887.9,98.5 877.2,98.5 877.2,98.6 871.7,98.6 
	871.7,93.2 877.1,93.2 877.1,87.8 887.9,87.8 887.9,82.4 "/>
<polygon class="st8" points="882.5,71.7 882.5,82.4 877.1,82.4 877.1,77 871.7,77 871.7,66.3 877.1,66.3 877.1,71.7 "/>
<polygon class="st5" points="882.5,55.5 882.5,60.9 871.7,60.9 871.7,50.1 877.1,50.1 877.1,55.5 "/>
<rect x="871.7" y="44.7" class="st1" width="10.8" height="5.4"/>
<rect x="871.7" y="39.3" class="st3" width="10.8" height="5.4"/>
<rect x="871.7" y="33.9" class="st1" width="10.8" height="5.4"/>
<rect x="871.7" y="28.5" class="st5" width="10.8" height="5.4"/>
<polygon class="st7" points="877.1,23.1 877.1,28.5 871.7,28.5 871.7,33.9 866.3,33.9 866.3,23.1 "/>
<rect x="866.3" y="87.8" class="st3" width="5.4" height="10.8"/>
<rect x="866.3" y="33.9" class="st8" width="5.4" height="16.2"/>
<polygon class="st5" points="871.7,98.6 871.7,104 861,104 861,93.2 866.3,93.2 866.3,98.6 "/>
<polygon class="st8" points="871.7,82.4 871.7,87.8 861,87.8 861,71.7 866.3,71.7 866.3,82.4 "/>
<polygon class="st1" points="887.9,60.9 887.9,71.7 893.3,71.7 893.3,82.4 887.9,82.4 887.9,77 882.5,77 882.5,71.7 877.1,71.7 
	877.1,66.3 871.7,66.3 871.7,77 877.1,77 877.1,82.4 882.5,82.4 882.5,87.8 877.1,87.8 877.1,93.2 871.7,93.2 871.7,82.4 
	866.3,82.4 866.3,71.7 861,71.7 861,55.5 866.3,55.5 866.3,50.1 871.7,50.1 871.7,60.9 882.5,60.9 882.5,50.1 893.3,50.1 
	893.3,60.9 "/>
<polygon class="st1" points="866.3,87.8 866.3,93.2 861,93.2 861,104 855.5,104 855.5,93.2 850.2,93.2 850.2,82.4 828.8,82.4 
	828.8,82.4 828.8,82.4 828.8,82.3 828.8,82.3 828.8,77 834,77 834,66.3 828.6,66.3 828.6,55.5 823.3,55.5 823.3,50.1 834,50.1 
	834,60.9 839.4,60.9 839.4,71.7 850.2,71.7 850.2,77 861,77 861,87.8 "/>
<rect x="855.5" y="44.7" class="st7" width="10.8" height="10.8"/>
<rect x="855.5" y="33.9" class="st5" width="5.4" height="5.4"/>
<polygon class="st5" points="866.3,23.1 866.3,33.9 861,33.9 861,28.5 855.5,28.5 855.5,23.1 "/>
<rect x="850.2" y="55.5" class="st6" width="10.8" height="21.6"/>
<polygon class="st1" points="866.3,33.9 866.3,44.7 855.5,44.7 855.5,55.5 850.2,55.5 850.2,39.3 861,39.3 861,33.9 "/>
<rect x="850.2" y="33.9" class="st4" width="5.4" height="5.4"/>
<rect x="850.2" y="28.5" class="st3" width="10.8" height="5.4"/>
<rect x="850.2" y="23.1" class="st4" width="5.4" height="5.4"/>
<polygon class="st1" points="877.1,7 877.1,12.4 866.3,12.4 866.3,23.1 861,23.1 861,12.4 850.2,12.4 850.2,7 "/>
<polygon class="st3" points="855.5,93.2 855.5,104 850.2,104 850.2,98.6 844.8,98.6 844.8,93.2 "/>
<rect x="844.8" y="82.4" class="st5" width="5.4" height="10.8"/>
<rect x="844.8" y="50.1" class="st8" width="5.4" height="5.4"/>
<path class="st5" d="M844.8,93.2h-5.4v5.4h5.4V93.2z"/>
<rect x="839.4" y="82.4" class="st3" width="5.4" height="10.8"/>
<rect x="839.4" y="60.9" class="st5" width="10.8" height="10.8"/>
<polygon class="st1" points="850.2,55.5 850.2,60.9 839.4,60.9 839.4,50.1 844.8,50.1 844.8,55.5 "/>
<path class="st1" d="M839.4,87.8H834v5.4h5.4V87.8z"/>
<rect x="834" y="50.1" class="st3" width="5.4" height="10.8"/>
<rect x="850.2" y="70.1" class="st3" width="5.4" height="10.8"/>
<rect x="861" y="46.6" class="st3" width="5.4" height="10.8"/>
<polygon class="st7" points="850.2,28.5 850.2,50.1 834,50.1 834,44.7 844.8,44.7 844.8,28.5 "/>
<rect x="828.6" y="82.4" class="st5" width="10.8" height="5.4"/>
<polygon class="st1" points="828.8,82.3 828.8,82.4 828.8,82.4 828.8,82.4 828.6,82.4 828.6,77 828.8,77 "/>
<rect x="828.6" y="66.3" class="st8" width="5.4" height="10.8"/>
<polygon class="st5" points="844.8,28.5 844.8,44.7 834,44.7 834,50.1 828.6,50.1 828.6,50 828.8,50 828.8,49.9 828.8,49.9 
	828.8,39.3 834,39.3 834,39 834.2,39 834.2,33.9 839.4,33.9 839.4,33.9 839.6,33.9 839.6,28.5 "/>
<polygon class="st1" points="828.6,77 828.6,77 823.2,77 823.2,71.7 823.3,71.7 823.3,77 "/>
<rect x="823.3" y="66.3" class="st1" width="5.3" height="10.7"/>
<rect x="823.2" y="66.3" class="st1" width="0.1" height="5.4"/>
<rect x="823.2" y="55.5" class="st5" width="5.4" height="10.8"/>
<rect x="823.2" y="50.1" class="st1" width="0.1" height="5.4"/>
<g>
	<path class="st1" d="M1329.2,23.3h-5.2h-0.1h-5.1v5.3h-5.2h-5v5.3h-0.2h-5v5h-0.2v0.3h-5v10.5v0.1h-0.2v0.1h-5.1h-0.1v5.3v10.7v5.3
		v5.2h0.1h5.1v0.1v5.2V87h5.2v5.3h5.2v5.3h5.2h5.2v5.3h5.1h5.3h10.3h5.2v-5.3h0.1h5.1h5.2v-0.1v-5.2h0.1v0.1h5.1v-0.2V87h5.2V76.5
		h5.2V65.9v-16h-5.2v-0.1v-0.1V39.3h-5.2V34h-5.2v-5.3h-5.2h-5.2v-5.3h-10.4 M1329.2,33.9v5.3h-0.1L1329.2,33.9L1329.2,33.9z"/>
</g>
<g id="Слой_1_2_">
	<polygon class="st2" points="1302.2,33.9 1307.4,33.9 1307.4,33.9 	"/>
	<polygon class="st0" points="1398.8,45.5 1404,44.2 1402.7,39 1397.5,40.3 1397.5,40.3 1392.2,41.5 1392.2,41.5 1387,42.8 
		1388.3,48 1383,49.3 1383,49.3 1377.8,50.6 1379.1,55.8 1384.3,54.5 1389.5,53.3 1394.8,52 1393.5,46.8 	"/>
	<polygon class="st0" points="1282.3,41.8 1278.5,45.6 1267.1,34.1 1263.3,37.9 1259.4,34.1 1251.8,26.5 1251.8,26.5 1248,22.7 
		1251.8,18.9 1263.3,30.3 1263.3,30.3 1267.1,26.5 1274.7,34.1 1274.7,34.1 1278.5,37.9 	"/>
	<polygon class="st3" points="1372.1,66.3 1372.1,77 1366.7,77 1366.7,87.8 1361.3,87.8 1361.3,71.7 1366.7,71.7 1366.7,66.3 	"/>
	<polygon class="st4" points="1372.1,50.1 1372.1,66.3 1366.7,66.3 1366.7,60.9 1361.3,60.9 1361.3,50.1 	"/>
	<rect x="1366.7" y="49.9" class="st5" width="0" height="0.1"/>
	<polygon class="st0" points="1383.5,0 1380.6,4.6 1377.8,9.1 1374.9,13.7 1372,18.2 1376.6,21.1 1376.6,21.1 1370.8,30.2 
		1375.4,33.1 1384,19.4 1379.4,16.6 1379.5,16.5 1382.3,12 1382.3,12 1385.2,7.4 1385.2,7.4 1388.1,2.9 	"/>
	<rect x="1356" y="93.1" class="st5" width="5.3" height="0.2"/>
	<rect x="1355.9" y="60.9" class="st5" width="10.8" height="10.8"/>
	<polygon class="st5" points="1366.7,49.9 1366.7,50 1366.7,50 1366.7,50.1 1355.9,50.1 1355.9,39.3 1366.7,39.3 	"/>
	<rect x="1350.5" y="98.5" class="st5" width="5.4" height="0.1"/>
	<rect x="1350.5" y="77" class="st3" width="5.4" height="10.8"/>
	<polygon class="st6" points="1361.3,33.9 1361.3,39.3 1355.9,39.3 1355.9,50.1 1350.5,50.1 1350.5,28.5 1355.9,28.5 1355.9,33.9 	
		"/>
	<rect x="1345.2" y="98.5" class="st5" width="5.3" height="0.1"/>
	<rect x="1345.1" y="50.1" class="st7" width="5.4" height="5.4"/>
	<rect x="1339.7" y="98.6" class="st1" width="5.4" height="5.4"/>
	<polygon class="st5" points="1361.3,82.4 1361.3,93.1 1356,93.1 1356,93.2 1355.9,93.2 1355.9,98.5 1345.2,98.5 1345.2,98.6 
		1339.7,98.6 1339.7,93.2 1345.1,93.2 1345.1,87.8 1355.9,87.8 1355.9,82.4 	"/>
	<polygon class="st8" points="1350.5,71.7 1350.5,82.4 1345.1,82.4 1345.1,77 1339.7,77 1339.7,66.3 1345.1,66.3 1345.1,71.7 	"/>
	<polygon class="st5" points="1350.5,55.5 1350.5,60.9 1339.7,60.9 1339.7,50.1 1345.1,50.1 1345.1,55.5 	"/>
	<rect x="1339.7" y="44.7" class="st1" width="10.8" height="5.4"/>
	<rect x="1339.7" y="39.3" class="st3" width="10.8" height="5.4"/>
	<rect x="1339.7" y="33.9" class="st1" width="10.8" height="5.4"/>
	<rect x="1339.7" y="28.5" class="st5" width="10.8" height="5.4"/>
	<polygon class="st7" points="1345.1,23.1 1345.1,28.5 1339.7,28.5 1339.7,33.9 1334.3,33.9 1334.3,23.1 	"/>
	<rect x="1334.3" y="87.8" class="st3" width="5.4" height="10.8"/>
	<rect x="1334.3" y="33.9" class="st8" width="5.4" height="16.2"/>
	<polygon class="st5" points="1339.7,98.6 1339.7,104 1329,104 1329,93.2 1334.3,93.2 1334.3,98.6 	"/>
	<polygon class="st8" points="1339.7,82.4 1339.7,87.8 1329,87.8 1329,71.7 1334.3,71.7 1334.3,82.4 	"/>
	<polygon class="st1" points="1355.9,60.9 1355.9,71.7 1361.3,71.7 1361.3,82.4 1355.9,82.4 1355.9,77 1350.5,77 1350.5,71.7 
		1345.1,71.7 1345.1,66.3 1339.7,66.3 1339.7,77 1345.1,77 1345.1,82.4 1350.5,82.4 1350.5,87.8 1345.1,87.8 1345.1,93.2 
		1339.7,93.2 1339.7,82.4 1334.3,82.4 1334.3,71.7 1329,71.7 1329,55.5 1334.3,55.5 1334.3,50.1 1339.7,50.1 1339.7,60.9 
		1350.5,60.9 1350.5,50.1 1361.3,50.1 1361.3,60.9 	"/>
	<polygon class="st1" points="1334.3,87.8 1334.3,93.2 1329,93.2 1329,104 1323.5,104 1323.5,93.2 1318.2,93.2 1318.2,82.4 
		1296.8,82.4 1296.8,82.4 1296.8,82.4 1296.8,82.3 1296.8,82.3 1296.8,77 1302,77 1302,66.3 1296.6,66.3 1296.6,55.5 1291.3,55.5 
		1291.3,50.1 1302,50.1 1302,60.9 1307.4,60.9 1307.4,71.7 1318.2,71.7 1318.2,77 1329,77 1329,87.8 	"/>
	<rect x="1323.5" y="44.7" class="st7" width="10.8" height="10.8"/>
	<rect x="1323.5" y="33.9" class="st5" width="5.4" height="5.4"/>
	<polygon class="st5" points="1334.3,23.1 1334.3,33.9 1329,33.9 1329,28.5 1323.5,28.5 1323.5,23.1 	"/>
	<rect x="1318.2" y="55.5" class="st6" width="10.8" height="21.6"/>
	<polygon class="st1" points="1334.3,33.9 1334.3,44.7 1323.5,44.7 1323.5,55.5 1318.2,55.5 1318.2,39.3 1329,39.3 1329,33.9 	"/>
	<rect x="1318.2" y="33.9" class="st4" width="5.4" height="5.4"/>
	<rect x="1318.2" y="28.5" class="st3" width="10.8" height="5.4"/>
	<rect x="1318.2" y="23.1" class="st4" width="5.4" height="5.4"/>
	<polygon class="st1" points="1345.1,7 1345.1,12.4 1334.3,12.4 1334.3,23.1 1329,23.1 1329,12.4 1318.2,12.4 1318.2,7 	"/>
	<polygon class="st3" points="1323.5,93.2 1323.5,104 1318.2,104 1318.2,98.6 1312.8,98.6 1312.8,93.2 	"/>
	<rect x="1312.8" y="82.4" class="st5" width="5.4" height="10.8"/>
	<rect x="1312.8" y="50.1" class="st8" width="5.4" height="5.4"/>
	<path class="st5" d="M1312.8,93.2h-5.4v5.4h5.4V93.2z"/>
	<rect x="1307.4" y="82.4" class="st3" width="5.4" height="10.8"/>
	<rect x="1307.4" y="60.9" class="st5" width="10.8" height="10.8"/>
	<polygon class="st1" points="1318.2,55.5 1318.2,60.9 1307.4,60.9 1307.4,50.1 1312.8,50.1 1312.8,55.5 	"/>
	<path class="st1" d="M1307.4,87.8h-5.4v5.4h5.4V87.8z"/>
	<rect x="1302" y="50.1" class="st3" width="5.4" height="10.8"/>
	<polygon class="st7" points="1318.2,28.5 1318.2,50.1 1302,50.1 1302,44.7 1312.8,44.7 1312.8,28.5 	"/>
	<rect x="1296.6" y="82.4" class="st5" width="10.8" height="5.4"/>
	<polygon class="st1" points="1296.8,82.3 1296.8,82.4 1296.8,82.4 1296.8,82.4 1296.6,82.4 1296.6,77 1296.8,77 	"/>
	<rect x="1296.6" y="66.3" class="st8" width="5.4" height="10.8"/>
	<polygon class="st5" points="1312.8,28.5 1312.8,44.7 1302,44.7 1302,50.1 1296.6,50.1 1296.6,50 1296.8,50 1296.8,49.9 
		1296.8,49.9 1296.8,39.3 1302,39.3 1302,39 1302.2,39 1302.2,33.9 1307.4,33.9 1307.4,33.9 1307.6,33.9 1307.6,28.5 	"/>
	<polygon class="st1" points="1296.6,77 1296.6,77 1291.2,77 1291.2,71.7 1291.3,71.7 1291.3,77 	"/>
	<rect x="1291.3" y="66.3" class="st1" width="5.3" height="10.7"/>
	<rect x="1291.2" y="66.3" class="st1" width="0.1" height="5.4"/>
	<rect x="1291.2" y="55.5" class="st5" width="5.4" height="10.8"/>
	<rect x="1291.2" y="50.1" class="st1" width="0.1" height="5.4"/>
	<polygon class="st0" points="1308.3,18.3 1303.7,21.1 1300.8,16.6 1298,12 1293.4,14.8 1290.6,10.2 1287.8,5.6 1292.3,2.8 
		1295.2,7.4 1299.8,4.5 1302.6,9.1 1302.6,9.1 1305.4,13.7 	"/>
</g>
<g>
	<path class="st1" d="M705.2,23.3H700h-0.1h-5.1v5.3h-5.2h-5v5.3h-0.2h-5v5h-0.2v0.3h-5v10.5v0.1H674v0.1h-5.1h-0.1v5.3v10.7v5.3
		v5.2h0.1h5.1v0.1v5.2V87h5.2v5.3h5.2v5.3h5.2h5.2v5.3h5.1h5.3h10.3h5.2v-5.3h0.1h5.1h5.2v-0.1v-5.2h0.1v0.1h5.1v-0.2V87h5.2V76.5
		h5.2V65.9v-16h-5.2v-0.1v-0.1V39.3h-5.2V34h-5.2v-5.3h-5.2h-5.2v-5.3h-10.4 M705.2,33.9v5.3h-0.1L705.2,33.9L705.2,33.9z"/>
</g>
<polygon class="st2" points="678.2,33.9 683.4,33.9 683.4,33.9 "/>
<polygon class="st0" points="774.8,45.5 780,44.2 778.7,39 773.5,40.3 773.5,40.3 768.2,41.5 768.2,41.5 763,42.8 764.3,48 
	759,49.3 759,49.3 753.8,50.6 755.1,55.8 760.3,54.5 765.5,53.3 770.8,52 769.5,46.8 "/>
<polygon class="st0" points="658.3,41.8 654.5,45.6 643.1,34.1 639.3,37.9 635.4,34.1 627.8,26.5 627.8,26.5 624,22.7 627.8,18.9 
	639.3,30.3 639.3,30.3 643.1,26.5 650.7,34.1 650.7,34.1 654.5,37.9 "/>
<polygon class="st3" points="748.1,66.3 748.1,77 742.7,77 742.7,87.8 737.3,87.8 737.3,71.7 742.7,71.7 742.7,66.3 "/>
<polygon class="st4" points="748.1,50.1 748.1,66.3 742.7,66.3 742.7,60.9 737.3,60.9 737.3,50.1 "/>
<rect x="742.7" y="49.9" class="st5" width="0" height="0.1"/>
<polygon class="st0" points="759.5,0 756.6,4.6 753.8,9.1 750.9,13.7 748,18.2 752.6,21.1 752.6,21.1 746.8,30.2 751.4,33.1 
	760,19.4 755.4,16.6 755.5,16.5 758.3,12 758.3,12 761.2,7.4 761.2,7.4 764.1,2.9 "/>
<rect x="732" y="93.1" class="st5" width="5.3" height="0.2"/>
<rect x="731.9" y="60.9" class="st5" width="10.8" height="10.8"/>
<polygon class="st5" points="742.7,49.9 742.7,50 742.7,50 742.7,50.1 731.9,50.1 731.9,39.3 742.7,39.3 "/>
<rect x="726.5" y="98.5" class="st5" width="5.4" height="0.1"/>
<rect x="726.5" y="77" class="st3" width="5.4" height="10.8"/>
<polygon class="st6" points="737.3,33.9 737.3,39.3 731.9,39.3 731.9,50.1 726.5,50.1 726.5,28.5 731.9,28.5 731.9,33.9 "/>
<rect x="721.2" y="98.5" class="st5" width="5.3" height="0.1"/>
<rect x="721.1" y="50.1" class="st7" width="5.4" height="5.4"/>
<rect x="715.7" y="98.6" class="st1" width="5.4" height="5.4"/>
<polygon class="st5" points="737.3,82.4 737.3,93.1 732,93.1 732,93.2 731.9,93.2 731.9,98.5 721.2,98.5 721.2,98.6 715.7,98.6 
	715.7,93.2 721.1,93.2 721.1,87.8 731.9,87.8 731.9,82.4 "/>
<polygon class="st8" points="726.5,71.7 726.5,82.4 721.1,82.4 721.1,77 715.7,77 715.7,66.3 721.1,66.3 721.1,71.7 "/>
<polygon class="st5" points="726.5,55.5 726.5,60.9 715.7,60.9 715.7,50.1 721.1,50.1 721.1,55.5 "/>
<rect x="715.7" y="44.7" class="st1" width="10.8" height="5.4"/>
<rect x="715.7" y="39.3" class="st3" width="10.8" height="5.4"/>
<rect x="715.7" y="33.9" class="st1" width="10.8" height="5.4"/>
<rect x="715.7" y="28.5" class="st5" width="10.8" height="5.4"/>
<polygon class="st7" points="721.1,23.1 721.1,28.5 715.7,28.5 715.7,33.9 710.3,33.9 710.3,23.1 "/>
<rect x="710.3" y="87.8" class="st3" width="5.4" height="10.8"/>
<rect x="710.3" y="33.9" class="st8" width="5.4" height="16.2"/>
<polygon class="st5" points="715.7,98.6 715.7,104 705,104 705,93.2 710.3,93.2 710.3,98.6 "/>
<polygon class="st8" points="715.7,82.4 715.7,87.8 705,87.8 705,71.7 710.3,71.7 710.3,82.4 "/>
<polygon class="st1" points="731.9,60.9 731.9,71.7 737.3,71.7 737.3,82.4 731.9,82.4 731.9,77 726.5,77 726.5,71.7 721.1,71.7 
	721.1,66.3 715.7,66.3 715.7,77 721.1,77 721.1,82.4 726.5,82.4 726.5,87.8 721.1,87.8 721.1,93.2 715.7,93.2 715.7,82.4 
	710.3,82.4 710.3,71.7 705,71.7 705,55.5 710.3,55.5 710.3,50.1 715.7,50.1 715.7,60.9 726.5,60.9 726.5,50.1 737.3,50.1 
	737.3,60.9 "/>
<polygon class="st1" points="710.3,87.8 710.3,93.2 705,93.2 705,104 699.5,104 699.5,93.2 694.2,93.2 694.2,82.4 672.8,82.4 
	672.8,82.4 672.8,82.4 672.8,82.3 672.8,82.3 672.8,77 678,77 678,66.3 672.6,66.3 672.6,55.5 667.3,55.5 667.3,50.1 678,50.1 
	678,60.9 683.4,60.9 683.4,71.7 694.2,71.7 694.2,77 705,77 705,87.8 "/>
<rect x="699.5" y="44.7" class="st7" width="10.8" height="10.8"/>
<rect x="699.5" y="33.9" class="st5" width="5.4" height="5.4"/>
<polygon class="st5" points="710.3,23.1 710.3,33.9 705,33.9 705,28.5 699.5,28.5 699.5,23.1 "/>
<rect x="694.2" y="55.5" class="st6" width="10.8" height="21.6"/>
<polygon class="st1" points="710.3,33.9 710.3,44.7 699.5,44.7 699.5,55.5 694.2,55.5 694.2,39.3 705,39.3 705,33.9 "/>
<rect x="694.2" y="33.9" class="st4" width="5.4" height="5.4"/>
<rect x="694.2" y="28.5" class="st3" width="10.8" height="5.4"/>
<rect x="694.2" y="23.1" class="st4" width="5.4" height="5.4"/>
<polygon class="st1" points="721.1,7 721.1,12.4 710.3,12.4 710.3,23.1 705,23.1 705,12.4 694.2,12.4 694.2,7 "/>
<polygon class="st3" points="699.5,93.2 699.5,104 694.2,104 694.2,98.6 688.8,98.6 688.8,93.2 "/>
<rect x="688.8" y="82.4" class="st5" width="5.4" height="10.8"/>
<rect x="688.8" y="50.1" class="st8" width="5.4" height="5.4"/>
<path class="st5" d="M688.8,93.2h-5.4v5.4h5.4V93.2z"/>
<rect x="683.4" y="82.4" class="st3" width="5.4" height="10.8"/>
<rect x="683.4" y="60.9" class="st5" width="10.8" height="10.8"/>
<polygon class="st1" points="694.2,55.5 694.2,60.9 683.4,60.9 683.4,50.1 688.8,50.1 688.8,55.5 "/>
<path class="st1" d="M683.4,87.8H678v5.4h5.4V87.8z"/>
<rect x="678" y="50.1" class="st3" width="5.4" height="10.8"/>
<polygon class="st7" points="694.2,28.5 694.2,50.1 678,50.1 678,44.7 688.8,44.7 688.8,28.5 "/>
<rect x="672.6" y="82.4" class="st5" width="10.8" height="5.4"/>
<polygon class="st1" points="672.8,82.3 672.8,82.4 672.8,82.4 672.8,82.4 672.6,82.4 672.6,77 672.8,77 "/>
<rect x="672.6" y="66.3" class="st8" width="5.4" height="10.8"/>
<polygon class="st5" points="688.8,28.5 688.8,44.7 678,44.7 678,50.1 672.6,50.1 672.6,50 672.8,50 672.8,49.9 672.8,49.9 
	672.8,39.3 678,39.3 678,39 678.2,39 678.2,33.9 683.4,33.9 683.4,33.9 683.6,33.9 683.6,28.5 "/>
<polygon class="st1" points="672.6,77 672.6,77 667.2,77 667.2,71.7 667.3,71.7 667.3,77 "/>
<rect x="667.3" y="66.3" class="st1" width="5.3" height="10.7"/>
<rect x="667.2" y="66.3" class="st1" width="0.1" height="5.4"/>
<rect x="667.2" y="55.5" class="st5" width="5.4" height="10.8"/>
<rect x="667.2" y="50.1" class="st1" width="0.1" height="5.4"/>
<polygon class="st0" points="684.3,18.3 679.7,21.1 676.8,16.6 674,12 669.4,14.8 666.6,10.2 663.8,5.6 668.3,2.8 671.2,7.4 
	675.8,4.5 678.6,9.1 678.6,9.1 681.4,13.7 "/>
<g>
	<path class="st1" d="M81.2,23.3H76h-0.1h-5.1v5.3h-5.2h-5v5.3h-0.2h-5v5h-0.2v0.3h-5v10.5v0.1H50v0.1h-5.1h-0.1v5.3v10.7v5.3v5.2
		h0.1H50v0.1v5.2V87h5.2v5.3h5.2v5.3h5.2h5.2v5.3h5.1h5.3h10.3h5.2v-5.3h0.1h5.1h5.2v-0.1v-5.2h0.1v0.1h5.1v-0.2V87h5.2V76.5h5.2
		V65.9v-16h-5.2v-0.1v-0.1V39.3h-5.2V34h-5.2v-5.3h-5.2h-5.2v-5.3H86.3 M81.2,33.9v5.3h-0.1L81.2,33.9L81.2,33.9z"/>
</g>
<polygon class="st0" points="279.5,56.3 284.7,55 283.4,49.8 278.2,51.1 278.2,51.1 272.9,52.3 272.9,52.3 267.7,53.6 269,58.8 
	263.7,60.1 263.7,60.1 258.5,61.4 259.8,66.6 265,65.3 270.2,64.1 275.5,62.8 274.2,57.6 "/>
<polygon class="st0" points="270.3,25.8 267.4,30.4 264.6,34.9 261.7,39.5 258.8,44 263.4,46.9 263.4,46.9 257.6,56 262.2,58.9 
	270.8,45.2 266.2,42.4 266.3,42.3 269.1,37.8 269.1,37.8 272,33.2 272,33.2 274.9,28.7 "/>
<polygon class="st0" points="234.6,40.1 230,42.9 227.1,38.4 224.3,33.8 219.7,36.6 216.9,32 214.1,27.4 218.6,24.6 221.5,29.2 
	226.1,26.3 228.9,30.9 228.9,30.9 231.7,35.5 "/>
<g>
	<path class="st1" d="M237.2,23.3H232h-0.1h-5.1v5.3h-5.2h-5v5.3h-0.2h-5v5h-0.2v0.3h-5v10.5v0.1H206v0.1h-5.1h-0.1v5.3v10.7v5.3
		v5.2h0.1h5.1v0.1v5.2V87h5.2v5.3h5.2v5.3h5.2h5.2v5.3h5.1h5.3h10.3h5.2v-5.3h0.1h5.1h5.2v-0.1v-5.2h0.1v0.1h5.1v-0.2V87h5.2V76.5
		h5.2V65.9v-16h-5.2v-0.1v-0.1V39.3h-5.2V34h-5.2v-5.3h-5.2h-5.2v-5.3h-10.4 M237.2,33.9v5.3h-0.1L237.2,33.9L237.2,33.9z"/>
</g>
<polygon class="st2" points="210.2,33.9 215.4,33.9 215.4,33.9 "/>
<polygon class="st0" points="232.5,70.4 228.7,74.2 217.3,62.7 213.5,66.5 209.6,62.7 202,55.1 202,55.1 198.2,51.3 202,47.5 
	213.5,58.9 213.5,58.9 217.3,55.1 224.9,62.7 224.9,62.7 228.7,66.5 "/>
<polygon class="st3" points="280.1,66.3 280.1,77 274.7,77 274.7,87.8 269.3,87.8 269.3,71.7 274.7,71.7 274.7,66.3 "/>
<polygon class="st4" points="280.1,50.1 280.1,66.3 274.7,66.3 274.7,60.9 269.3,60.9 269.3,50.1 "/>
<rect x="274.7" y="49.9" class="st5" width="0" height="0.1"/>
<rect x="264" y="93.1" class="st5" width="5.3" height="0.2"/>
<rect x="263.9" y="60.9" class="st5" width="10.8" height="10.8"/>
<polygon class="st5" points="274.7,49.9 274.7,50 274.7,50 274.7,50.1 263.9,50.1 263.9,39.3 274.7,39.3 "/>
<rect x="258.5" y="98.5" class="st5" width="5.4" height="0.1"/>
<rect x="258.5" y="77" class="st3" width="5.4" height="10.8"/>
<polygon class="st6" points="269.3,33.9 269.3,39.3 263.9,39.3 263.9,50.1 258.5,50.1 258.5,28.5 263.9,28.5 263.9,33.9 "/>
<rect x="253.2" y="98.5" class="st5" width="5.3" height="0.1"/>
<rect x="253.1" y="50.1" class="st7" width="5.4" height="5.4"/>
<rect x="247.7" y="98.6" class="st1" width="5.4" height="5.4"/>
<polygon class="st5" points="269.3,82.4 269.3,93.1 264,93.1 264,93.2 263.9,93.2 263.9,98.5 253.2,98.5 253.2,98.6 247.7,98.6 
	247.7,93.2 253.1,93.2 253.1,87.8 263.9,87.8 263.9,82.4 "/>
<polygon class="st8" points="258.5,71.7 258.5,82.4 253.1,82.4 253.1,77 247.7,77 247.7,66.3 253.1,66.3 253.1,71.7 "/>
<polygon class="st5" points="258.5,55.5 258.5,60.9 247.7,60.9 247.7,50.1 253.1,50.1 253.1,55.5 "/>
<rect x="247.7" y="44.7" class="st1" width="10.8" height="5.4"/>
<rect x="247.7" y="39.3" class="st3" width="10.8" height="5.4"/>
<rect x="247.7" y="33.9" class="st1" width="10.8" height="5.4"/>
<rect x="247.7" y="28.5" class="st5" width="10.8" height="5.4"/>
<polygon class="st7" points="253.1,23.1 253.1,28.5 247.7,28.5 247.7,33.9 242.3,33.9 242.3,23.1 "/>
<rect x="242.3" y="87.8" class="st3" width="5.4" height="10.8"/>
<rect x="242.3" y="33.9" class="st8" width="5.4" height="16.2"/>
<polygon class="st5" points="247.7,98.6 247.7,104 237,104 237,93.2 242.3,93.2 242.3,98.6 "/>
<polygon class="st8" points="247.7,82.4 247.7,87.8 237,87.8 237,71.7 242.3,71.7 242.3,82.4 "/>
<polygon class="st1" points="263.9,60.9 263.9,71.7 269.3,71.7 269.3,82.4 263.9,82.4 263.9,77 258.5,77 258.5,71.7 253.1,71.7 
	253.1,66.3 247.7,66.3 247.7,77 253.1,77 253.1,82.4 258.5,82.4 258.5,87.8 253.1,87.8 253.1,93.2 247.7,93.2 247.7,82.4 
	242.3,82.4 242.3,71.7 237,71.7 237,55.5 242.3,55.5 242.3,50.1 247.7,50.1 247.7,60.9 258.5,60.9 258.5,50.1 269.3,50.1 
	269.3,60.9 "/>
<polygon class="st1" points="242.3,87.8 242.3,93.2 237,93.2 237,104 231.5,104 231.5,93.2 226.2,93.2 226.2,82.4 204.8,82.4 
	204.8,82.4 204.8,82.4 204.8,82.3 204.8,82.3 204.8,77 210,77 210,66.3 204.6,66.3 204.6,55.5 199.3,55.5 199.3,50.1 210,50.1 
	210,60.9 215.4,60.9 215.4,71.7 226.2,71.7 226.2,77 237,77 237,87.8 "/>
<rect x="231.5" y="44.7" class="st7" width="10.8" height="10.8"/>
<rect x="231.5" y="33.9" class="st5" width="5.4" height="5.4"/>
<polygon class="st5" points="242.3,23.1 242.3,33.9 237,33.9 237,28.5 231.5,28.5 231.5,23.1 "/>
<rect x="226.2" y="55.5" class="st6" width="10.8" height="21.6"/>
<polygon class="st1" points="242.3,33.9 242.3,44.7 231.5,44.7 231.5,55.5 226.2,55.5 226.2,39.3 237,39.3 237,33.9 "/>
<rect x="226.2" y="33.9" class="st4" width="5.4" height="5.4"/>
<rect x="226.2" y="28.5" class="st3" width="10.8" height="5.4"/>
<rect x="226.2" y="23.1" class="st4" width="5.4" height="5.4"/>
<polygon class="st1" points="253.1,7 253.1,12.4 242.3,12.4 242.3,23.1 237,23.1 237,12.4 226.2,12.4 226.2,7 "/>
<polygon class="st3" points="231.5,93.2 231.5,104 226.2,104 226.2,98.6 220.8,98.6 220.8,93.2 "/>
<rect x="220.8" y="82.4" class="st5" width="5.4" height="10.8"/>
<rect x="220.8" y="50.1" class="st8" width="5.4" height="5.4"/>
<path class="st5" d="M220.8,93.2h-5.4v5.4h5.4V93.2z"/>
<rect x="215.4" y="82.4" class="st3" width="5.4" height="10.8"/>
<rect x="215.4" y="60.9" class="st5" width="10.8" height="10.8"/>
<polygon class="st1" points="226.2,55.5 226.2,60.9 215.4,60.9 215.4,50.1 220.8,50.1 220.8,55.5 "/>
<path class="st1" d="M215.4,87.8H210v5.4h5.4V87.8z"/>
<rect x="210" y="50.1" class="st3" width="5.4" height="10.8"/>
<rect x="220.8" y="69" class="st3" width="5.4" height="10.8"/>
<rect x="240.1" y="44.4" class="st3" width="5.4" height="10.8"/>
<polygon class="st7" points="226.2,28.5 226.2,50.1 210,50.1 210,44.7 220.8,44.7 220.8,28.5 "/>
<rect x="204.6" y="82.4" class="st5" width="10.8" height="5.4"/>
<polygon class="st1" points="204.8,82.3 204.8,82.4 204.8,82.4 204.8,82.4 204.6,82.4 204.6,77 204.8,77 "/>
<rect x="204.6" y="66.3" class="st8" width="5.4" height="10.8"/>
<polygon class="st5" points="220.8,28.5 220.8,44.7 210,44.7 210,50.1 204.6,50.1 204.6,50 204.8,50 204.8,49.9 204.8,49.9 
	204.8,39.3 210,39.3 210,39 210.2,39 210.2,33.9 215.4,33.9 215.4,33.9 215.6,33.9 215.6,28.5 "/>
<polygon class="st1" points="204.6,77 204.6,77 199.2,77 199.2,71.7 199.3,71.7 199.3,77 "/>
<rect x="199.3" y="66.3" class="st1" width="5.3" height="10.7"/>
<rect x="199.2" y="66.3" class="st1" width="0.1" height="5.4"/>
<rect x="199.2" y="55.5" class="st5" width="5.4" height="10.8"/>
<rect x="199.2" y="50.1" class="st1" width="0.1" height="5.4"/>
<polygon class="st2" points="54.2,33.9 59.4,33.9 59.4,33.9 "/>
<polygon class="st0" points="150.8,45.5 156,44.2 154.7,39 149.5,40.3 149.5,40.3 144.2,41.5 144.2,41.5 139,42.8 140.3,48 
	135,49.3 135,49.3 129.8,50.6 131.1,55.8 136.3,54.5 141.5,53.3 146.8,52 145.5,46.8 "/>
<polygon class="st0" points="34.3,41.8 30.5,45.6 19.1,34.1 15.3,37.9 11.4,34.1 3.8,26.5 3.8,26.5 0,22.7 3.8,18.9 15.3,30.3 
	15.3,30.3 19.1,26.5 26.7,34.1 26.7,34.1 30.5,37.9 "/>
<polygon class="st3" points="124.1,66.3 124.1,77 118.7,77 118.7,87.8 113.3,87.8 113.3,71.7 118.7,71.7 118.7,66.3 "/>
<polygon class="st4" points="124.1,50.1 124.1,66.3 118.7,66.3 118.7,60.9 113.3,60.9 113.3,50.1 "/>
<rect x="118.7" y="49.9" class="st5" width="0" height="0.1"/>
<polygon class="st0" points="135.5,0 132.6,4.6 129.8,9.1 126.9,13.7 124,18.2 128.6,21.1 128.6,21.1 122.8,30.2 127.4,33.1 
	136,19.4 131.4,16.6 131.5,16.5 134.3,12 134.3,12 137.2,7.4 137.2,7.4 140.1,2.9 "/>
<rect x="108" y="93.1" class="st5" width="5.3" height="0.2"/>
<rect x="107.9" y="60.9" class="st5" width="10.8" height="10.8"/>
<polygon class="st5" points="118.7,49.9 118.7,50 118.7,50 118.7,50.1 107.9,50.1 107.9,39.3 118.7,39.3 "/>
<rect x="102.5" y="98.5" class="st5" width="5.4" height="0.1"/>
<rect x="102.5" y="77" class="st3" width="5.4" height="10.8"/>
<polygon class="st6" points="113.3,33.9 113.3,39.3 107.9,39.3 107.9,50.1 102.5,50.1 102.5,28.5 107.9,28.5 107.9,33.9 "/>
<rect x="97.2" y="98.5" class="st5" width="5.3" height="0.1"/>
<rect x="97.1" y="50.1" class="st7" width="5.4" height="5.4"/>
<rect x="91.7" y="98.6" class="st1" width="5.4" height="5.4"/>
<polygon class="st5" points="113.3,82.4 113.3,93.1 108,93.1 108,93.2 107.9,93.2 107.9,98.5 97.2,98.5 97.2,98.6 91.7,98.6 
	91.7,93.2 97.1,93.2 97.1,87.8 107.9,87.8 107.9,82.4 "/>
<polygon class="st8" points="102.5,71.7 102.5,82.4 97.1,82.4 97.1,77 91.7,77 91.7,66.3 97.1,66.3 97.1,71.7 "/>
<polygon class="st5" points="102.5,55.5 102.5,60.9 91.7,60.9 91.7,50.1 97.1,50.1 97.1,55.5 "/>
<rect x="91.7" y="44.7" class="st1" width="10.8" height="5.4"/>
<rect x="91.7" y="39.3" class="st3" width="10.8" height="5.4"/>
<rect x="91.7" y="33.9" class="st1" width="10.8" height="5.4"/>
<rect x="91.7" y="28.5" class="st5" width="10.8" height="5.4"/>
<polygon class="st7" points="97.1,23.1 97.1,28.5 91.7,28.5 91.7,33.9 86.3,33.9 86.3,23.1 "/>
<rect x="86.3" y="87.8" class="st3" width="5.4" height="10.8"/>
<rect x="86.3" y="33.9" class="st8" width="5.4" height="16.2"/>
<polygon class="st5" points="91.7,98.6 91.7,104 81,104 81,93.2 86.3,93.2 86.3,98.6 "/>
<polygon class="st8" points="91.7,82.4 91.7,87.8 81,87.8 81,71.7 86.3,71.7 86.3,82.4 "/>
<polygon class="st1" points="107.9,60.9 107.9,71.7 113.3,71.7 113.3,82.4 107.9,82.4 107.9,77 102.5,77 102.5,71.7 97.1,71.7 
	97.1,66.3 91.7,66.3 91.7,77 97.1,77 97.1,82.4 102.5,82.4 102.5,87.8 97.1,87.8 97.1,93.2 91.7,93.2 91.7,82.4 86.3,82.4 
	86.3,71.7 81,71.7 81,55.5 86.3,55.5 86.3,50.1 91.7,50.1 91.7,60.9 102.5,60.9 102.5,50.1 113.3,50.1 113.3,60.9 "/>
<polygon class="st1" points="86.3,87.8 86.3,93.2 81,93.2 81,104 75.5,104 75.5,93.2 70.2,93.2 70.2,82.4 48.8,82.4 48.8,82.4 
	48.8,82.4 48.8,82.3 48.8,82.3 48.8,77 54,77 54,66.3 48.6,66.3 48.6,55.5 43.3,55.5 43.3,50.1 54,50.1 54,60.9 59.4,60.9 
	59.4,71.7 70.2,71.7 70.2,77 81,77 81,87.8 "/>
<rect x="75.5" y="44.7" class="st7" width="10.8" height="10.8"/>
<rect x="75.5" y="33.9" class="st5" width="5.4" height="5.4"/>
<polygon class="st5" points="86.3,23.1 86.3,33.9 81,33.9 81,28.5 75.5,28.5 75.5,23.1 "/>
<rect x="70.2" y="55.5" class="st6" width="10.8" height="21.6"/>
<polygon class="st1" points="86.3,33.9 86.3,44.7 75.5,44.7 75.5,55.5 70.2,55.5 70.2,39.3 81,39.3 81,33.9 "/>
<rect x="70.2" y="33.9" class="st4" width="5.4" height="5.4"/>
<rect x="70.2" y="28.5" class="st3" width="10.8" height="5.4"/>
<rect x="70.2" y="23.1" class="st4" width="5.4" height="5.4"/>
<polygon class="st1" points="97.1,7 97.1,12.4 86.3,12.4 86.3,23.1 81,23.1 81,12.4 70.2,12.4 70.2,7 "/>
<polygon class="st3" points="75.5,93.2 75.5,104 70.2,104 70.2,98.6 64.8,98.6 64.8,93.2 "/>
<rect x="64.8" y="82.4" class="st5" width="5.4" height="10.8"/>
<rect x="64.8" y="50.1" class="st8" width="5.4" height="5.4"/>
<path class="st5" d="M64.8,93.2h-5.4v5.4h5.4V93.2z"/>
<rect x="59.4" y="82.4" class="st3" width="5.4" height="10.8"/>
<rect x="59.4" y="60.9" class="st5" width="10.8" height="10.8"/>
<polygon class="st1" points="70.2,55.5 70.2,60.9 59.4,60.9 59.4,50.1 64.8,50.1 64.8,55.5 "/>
<path class="st1" d="M59.4,87.8H54v5.4h5.4V87.8z"/>
<rect x="54" y="50.1" class="st3" width="5.4" height="10.8"/>
<polygon class="st7" points="70.2,28.5 70.2,50.1 54,50.1 54,44.7 64.8,44.7 64.8,28.5 "/>
<rect x="48.6" y="82.4" class="st5" width="10.8" height="5.4"/>
<polygon class="st1" points="48.8,82.3 48.8,82.4 48.8,82.4 48.8,82.4 48.6,82.4 48.6,77 48.8,77 "/>
<rect x="48.6" y="66.3" class="st8" width="5.4" height="10.8"/>
<polygon class="st5" points="64.8,28.5 64.8,44.7 54,44.7 54,50.1 48.6,50.1 48.6,50 48.8,50 48.8,49.9 48.8,49.9 48.8,39.3 
	54,39.3 54,39 54.2,39 54.2,33.9 59.4,33.9 59.4,33.9 59.6,33.9 59.6,28.5 "/>
<polygon class="st1" points="48.6,77 48.6,77 43.2,77 43.2,71.7 43.3,71.7 43.3,77 "/>
<rect x="43.3" y="66.3" class="st1" width="5.3" height="10.7"/>
<rect x="43.2" y="66.3" class="st1" width="0.1" height="5.4"/>
<rect x="43.2" y="55.5" class="st5" width="5.4" height="10.8"/>
<rect x="43.2" y="50.1" class="st1" width="0.1" height="5.4"/>
<polygon class="st0" points="60.3,18.3 55.7,21.1 52.8,16.6 50,12 45.4,14.8 42.6,10.2 39.8,5.6 44.3,2.8 47.2,7.4 51.8,4.5 
	54.6,9.1 54.6,9.1 57.4,13.7 "/>
<rect x="559.8" y="50.4" class="st3" width="5.4" height="10.8"/>
<rect x="688.8" y="66.3" class="st3" width="5.4" height="10.8"/>
<polygon class="st8" points="709.3,47.8 709.3,58.5 703.9,58.5 703.9,53.1 698.5,53.1 698.5,42.4 703.9,42.4 703.9,47.8 "/>
<rect x="1016.9" y="70.1" class="st3" width="10.8" height="5.4"/>
<rect x="1006.2" y="47.4" class="st3" width="10.8" height="5.4"/>
<polygon class="st5" points="1159.5,71 1159.5,76.4 1148.7,76.4 1148.7,65.6 1154.1,65.6 1154.1,71 "/>
</svg>
