<svg width="168" height="152" viewBox="0 0 168 152" fill="none" xmlns="http://www.w3.org/2000/svg">
<mask id="mask0" mask-type="alpha" maskUnits="userSpaceOnUse" x="0" y="0" width="168" height="152">
<path d="M126.227 12.7348C115.869 7.92004 80.6285 -8.46397 49.1312 8.54804C39.6754 13.6558 33.5407 20.1592 24.7504 29.4816C10.748 44.3305 0.382832 55.3136 1.02859 67.8598C1.62823 79.4989 11.0642 80.2246 33.9756 104.842C55.4109 127.876 58.4815 139.418 76.1477 146.71C83.9693 149.94 92.7859 153.576 100.528 149.501C113.793 142.516 106.248 122.189 122.273 102.051C130.78 91.3613 135.143 94.278 149.949 78.3266C160.848 66.5829 166.831 60.1353 167.081 51.8108C167.668 32.0006 135.307 16.9564 126.227 12.7348Z" fill="black" stroke="black" stroke-miterlimit="10"/>
</mask>
<g mask="url(#mask0)">
<path d="M-141 108.271L17.1503 297.35M-48.9536 31.2815L109.197 220.36M-94.9768 69.7765L63.1735 258.855M-2.93043 -7.21355L155.22 181.865M84.5136 -80.3541L242.664 108.725M-117.988 89.024L40.1619 278.103M-25.942 12.034L132.208 201.113M61.502 -61.1066L219.652 127.972M-71.9652 50.529L86.1851 239.608M20.0812 -26.4611L178.232 162.618M107.525 -99.6016L265.676 89.477M-131.795 100.572L26.355 289.651M-39.749 23.5825L118.401 212.661M47.6951 -49.5581L205.845 139.521M-85.7722 62.0775L72.3782 251.156M6.27421 -14.9125L164.425 174.166M93.7183 -88.0531L251.869 101.026M-108.784 81.325L49.3666 270.404M-16.7374 4.33496L141.413 193.414M70.7067 -68.8056L228.857 120.273M-62.7606 42.83L95.3898 231.909M29.2858 -34.1601L187.436 154.919M116.73 -107.301L274.88 81.778M-136.398 104.422L21.7527 293.501M-44.3513 27.432L113.799 216.511M43.0928 -45.7086L201.243 143.37M-90.3745 65.927L67.7758 255.006M1.67189 -11.063L159.822 178.016M89.116 -84.2036L247.266 104.875M-113.386 85.1745L44.7642 274.253M-21.3397 8.18446L136.811 197.263M66.1044 -64.9561L224.255 124.123M-67.3629 46.6795L90.7874 235.758M24.6835 -30.3106L182.834 158.768M112.128 -103.451L270.278 85.6275M-127.193 96.723L30.9573 285.802M-35.1467 19.733L123.004 208.812M52.2974 -53.4076L210.448 135.671M-81.1699 58.228L76.9805 247.307M10.8765 -18.762L169.027 170.317M98.3206 -91.9026L256.471 97.176M-104.181 77.4755L53.9689 266.554M-12.1351 0.485456L146.015 189.564M75.309 -72.6551L233.459 116.424M-58.1583 38.9805L99.9921 228.059M33.8881 -38.0096L192.038 151.069M121.332 -111.15L279.483 77.9285M-122.591 92.8735L35.5596 281.952M-30.5443 15.8835L127.606 204.962M56.8997 -57.2571L215.05 131.822M-76.5675 54.3785L81.5828 243.457M15.4789 -22.6116L173.629 166.467M102.923 -95.7521L261.073 93.3265M-99.5791 73.626L58.5712 262.705M-7.53275 -3.36405L150.618 185.715M79.9113 -76.5046L238.062 112.574M-53.5559 35.131L104.594 224.21M38.4904 -41.8591L196.641 147.22M125.935 -115L284.085 74.079" stroke="black"/>
</g>
</svg>
