<svg width="182" height="165" viewBox="0 0 182 165" fill="none" xmlns="http://www.w3.org/2000/svg">
<path d="M136.634 13.7129C125.412 8.49345 87.2466 -9.25124 53.1333 9.17728C42.8934 14.7107 36.2512 21.7514 26.7229 31.8484C11.5542 47.9323 0.332424 59.8296 1.0309 73.4155C1.67666 86.0245 11.9033 86.8129 36.719 113.475C59.94 138.421 63.2611 150.919 82.3967 158.824C90.8707 162.32 100.419 166.263 108.807 161.846C123.172 154.282 115.001 132.267 132.358 110.454C141.576 98.8707 146.301 102.032 162.333 84.7545C174.141 72.0339 180.618 65.049 180.888 56.0336C181.521 34.5837 146.465 18.2834 136.634 13.7129Z" stroke="black" stroke-miterlimit="10"/>
</svg>
