<?xml version="1.0" encoding="utf-8"?>
<!-- Generator: Adobe Illustrator 24.0.1, SVG Export Plug-In . SVG Version: 6.00 Build 0)  -->
<svg version="1.1" id="Слой_1" xmlns="http://www.w3.org/2000/svg" xmlns:xlink="http://www.w3.org/1999/xlink" x="0px" y="0px"
	 viewBox="0 0 182 165" style="enable-background:new 0 0 182 165;" xml:space="preserve">
<style type="text/css">
	.st0{fill:none;stroke:#FFFFFF;stroke-miterlimit:10;}
</style>
<path class="st0" d="M136.6,13.7c-11.2-5.2-49.4-23-83.5-4.5c-10.2,5.5-16.9,12.6-26.4,22.7C11.6,47.9,0.3,59.8,1,73.4
	C1.7,86,11.9,86.8,36.7,113.5c23.2,24.9,26.5,37.4,45.7,45.3c8.5,3.5,18,7.4,26.4,3c14.4-7.6,6.2-29.6,23.6-51.4
	c9.2-11.6,13.9-8.4,30-25.7C174.1,72,180.6,65,180.9,56C181.5,34.6,146.5,18.3,136.6,13.7z"/>
</svg>
