<svg width="147" height="76" viewBox="0 0 147 76" fill="none" xmlns="http://www.w3.org/2000/svg">
<path d="M114.348 12.6057C76.8077 3.93916 76.5441 -0.470846 64.2681 1.44109C52.3545 3.2972 44.0255 9.19349 27.3675 20.9791C10.3866 32.995 1.35256 39.3867 1.00991 49.5883C0.660671 60.069 9.59589 71.3522 19.4602 74.0108C29.1071 76.6135 32.4347 69.0286 51.7482 64.9396C65.296 62.0717 77.0186 62.9718 82.0595 63.544C100.655 65.6583 103.244 71.8407 113.03 69.1263C122.222 66.5724 127.691 58.9596 135.434 48.1927C142.866 37.8515 148.046 30.6434 145.977 24.468C143.822 18.0414 135.407 17.4622 114.348 12.6057Z" stroke="black" stroke-miterlimit="10"/>
</svg>
