<svg width="147" height="76" viewBox="0 0 147 76" fill="none" xmlns="http://www.w3.org/2000/svg">
<mask id="mask0" mask-type="alpha" maskUnits="userSpaceOnUse" x="0" y="0" width="147" height="76">
<path d="M114.348 12.6057C76.8077 3.93916 76.5441 -0.470846 64.2681 1.44109C52.3545 3.2972 44.0255 9.19349 27.3675 20.9791C10.3866 32.995 1.35256 39.3867 1.00991 49.5883C0.660671 60.069 9.59589 71.3522 19.4602 74.0108C29.1071 76.6135 32.4347 69.0286 51.7482 64.9396C65.296 62.0717 77.0186 62.9718 82.0595 63.544C100.655 65.6583 103.244 71.8407 113.03 69.1263C122.222 66.5724 127.691 58.9596 135.434 48.1927C142.866 37.8515 148.046 30.6434 145.977 24.468C143.822 18.0414 135.407 17.4622 114.348 12.6057Z" fill="black" stroke="black" stroke-miterlimit="10"/>
</mask>
<g mask="url(#mask0)">
<path d="M-121 -20.7285L37.1503 168.35M-28.9536 -97.7185L129.197 91.3601M-74.9768 -59.2235L83.1735 129.855M17.0696 -136.214L175.22 52.8651M104.514 -209.354L262.664 -20.2755M-97.9884 -39.976L60.1619 149.103M-5.94202 -116.966L152.208 72.1126M81.502 -190.107L239.652 -1.02795M-51.9652 -78.471L106.185 110.608M40.0812 -155.461L198.232 33.6176M127.525 -228.602L285.676 -39.523M-111.795 -28.4275L46.355 160.651M-19.749 -105.418L138.401 83.6611M67.6951 -178.558L225.845 10.5206M-65.7722 -66.9225L92.3782 122.156M26.2742 -143.913L184.425 45.1661M113.718 -217.053L271.869 -27.9745M-88.7838 -47.675L69.3666 141.404M3.26262 -124.665L161.413 64.4136M90.7067 -197.806L248.857 -8.72695M-42.7606 -86.17L115.39 102.909M49.2858 -163.16L207.436 25.9186M136.73 -236.301L294.88 -47.222M-116.398 -24.578L41.7527 164.501M-24.3513 -101.568L133.799 87.5106M63.0928 -174.709L221.243 14.3701M-70.3745 -63.073L87.7758 126.006M21.6719 -140.063L179.822 49.0156M109.116 -213.204L267.266 -24.125M-93.3861 -43.8255L64.7642 145.253M-1.3397 -120.816L156.811 68.2631M86.1044 -193.956L244.255 -4.87745M-47.3629 -82.3205L110.787 106.758M44.6835 -159.311L202.834 29.7681M132.128 -232.451L290.278 -43.3725M-107.193 -32.277L50.9573 156.802M-15.1467 -109.267L143.004 79.8116M72.2974 -182.408L230.448 6.67105M-61.1699 -70.772L96.9805 118.307M30.8765 -147.762L189.027 41.3166M118.321 -220.903L276.471 -31.824M-84.1814 -51.5245L73.9689 137.554M7.86494 -128.515L166.015 60.5641M95.309 -201.655L253.459 -12.5765M-38.1583 -90.0195L119.992 99.0591M53.8881 -167.01L212.038 22.0691M141.332 -240.15L299.483 -51.0715M-102.591 -36.1265L55.5596 152.952M-10.5443 -113.117L147.606 75.9621M76.8997 -186.257L235.05 2.82155M-56.5675 -74.6215L101.583 114.457M35.4789 -151.612L193.629 37.4671M122.923 -224.752L281.073 -35.6735M-79.5791 -55.374L78.5712 133.705M12.4673 -132.364L170.618 56.7146M99.9113 -205.505L258.062 -16.426M-33.5559 -93.869L124.594 95.2096M58.4904 -170.859L216.641 18.2196M145.935 -244L304.085 -54.921" stroke="black"/>
</g>
</svg>
