<svg width="118" height="79" viewBox="0 0 118 79" fill="none" xmlns="http://www.w3.org/2000/svg">
<mask id="mask0" mask-type="alpha" maskUnits="userSpaceOnUse" x="0" y="0" width="118" height="79">
<path d="M98.6607 5.3868C87.8277 -0.139659 78.1413 0.662794 63.078 1.89787C45.5041 3.34229 36.7204 4.06101 28.8131 10.9691C26.5793 12.9159 22.2698 19.7123 13.6575 33.2982C8.39917 41.5879 6.25762 45.4676 4.43236 50.7429C1.82296 58.258 -0.667834 65.4522 2.45554 70.9787C6.97586 78.9683 20.1547 78.0193 20.9058 77.9565C35.7913 76.6935 37.1158 63.3449 51.876 60.5119C63.816 58.2162 66.689 66.2337 80.2104 63.303C89.9759 61.1817 96.4467 55.2715 100.638 51.4407C107.293 45.356 118.066 35.5172 116.452 24.227C114.95 13.6905 103.51 7.85696 98.6607 5.3868Z" fill="black" stroke="black" stroke-miterlimit="10"/>
</mask>
<g mask="url(#mask0)">
<path d="M-200 106.271L-41.8497 295.35M-107.954 29.2815L50.1967 218.36M-153.977 67.7765L4.17352 256.855M-61.9304 -9.21355L96.2199 179.865M25.5136 -82.3541L183.664 106.725M-176.988 87.024L-18.8381 276.103M-84.942 10.034L73.2083 199.113M2.50204 -63.1066L160.652 125.972M-130.965 48.529L27.1851 237.608M-38.9188 -28.4611L119.232 160.618M48.5252 -101.602L206.676 87.477M-190.795 98.5725L-32.645 287.651M-98.749 21.5825L59.4014 210.661M-11.3049 -51.5581L146.845 137.521M-144.772 60.0775L13.3782 249.156M-52.7258 -16.9125L105.425 172.166M34.7183 -90.0531L192.869 99.0255M-167.784 79.325L-9.63343 268.404M-75.7374 2.33496L82.4129 191.414M11.7067 -70.8056L169.857 118.273M-121.761 40.83L36.3898 229.909M-29.7142 -36.1601L128.436 152.919M57.7299 -109.301L215.88 79.778M-195.398 102.422L-37.2473 291.501M-103.351 25.432L54.799 214.511M-15.9072 -47.7086L142.243 141.37M-149.374 63.927L8.77584 253.006M-57.3281 -13.063L100.822 176.016M30.116 -86.2036L188.266 102.875M-172.386 83.1745L-14.2358 272.253M-80.3397 6.18446L77.8106 195.263M7.10436 -66.9561L165.255 122.123M-126.363 44.6795L31.7874 233.758M-34.3165 -32.3106L123.834 156.768M53.1276 -105.451L211.278 83.6275M-186.193 94.723L-28.0427 283.802M-94.1467 17.733L64.0037 206.812M-6.7026 -55.4076L151.448 133.671M-140.17 56.228L17.9805 245.307M-48.1235 -20.762L110.027 168.317M39.3206 -93.9026L197.471 95.176M-163.181 75.4755L-5.03111 264.554M-71.1351 -1.51454L87.0153 187.564M16.309 -74.6551L174.459 114.424M-117.158 36.9805L40.9921 226.059M-25.1119 -40.0096L133.038 149.069M62.3322 -113.15L220.483 75.9285M-181.591 90.8735L-23.4404 279.952M-89.5443 13.8835L68.606 202.962M-2.10028 -59.2571L156.05 129.822M-135.568 52.3785L22.5828 241.457M-43.5211 -24.6116L114.629 164.467M43.9229 -97.7521L202.073 91.3265M-158.579 71.626L-0.428795 260.705M-66.5327 -5.36405L91.6176 183.715M20.9113 -78.5046L179.062 110.574M-112.556 33.131L45.5944 222.21M-20.5096 -43.8591L137.641 145.22M66.9345 -117L225.085 72.079" stroke="black"/>
</g>
</svg>
