<svg width="120" height="117" viewBox="0 0 120 117" fill="none" xmlns="http://www.w3.org/2000/svg">
<path d="M92.7689 12.0777C82.8519 7.00478 64.3225 -2.47115 40.7127 2.30868C31.7446 4.12292 13.604 7.79327 5.13001 23.2422C0.609681 31.4831 0.800774 39.8984 1.17637 56.7359C1.39382 66.4072 1.72988 77.3415 6.44788 90.2296C10.7969 102.106 14.7044 112.782 22.9214 115.35C34.5055 118.964 48.7979 104.646 61.7988 91.6252C74.4109 78.9883 76.3877 72.3384 87.4974 67.9005C96.1888 64.4255 100.096 66.4561 106.607 61.6204C113.763 56.3103 119.983 45.7388 118.468 35.8023C116.715 24.3238 105.368 18.5182 92.7689 12.0777Z" stroke="black" stroke-miterlimit="10"/>
</svg>
