<svg width="120" height="117" viewBox="0 0 120 117" fill="none" xmlns="http://www.w3.org/2000/svg">
<mask id="mask0" mask-type="alpha" maskUnits="userSpaceOnUse" x="0" y="0" width="120" height="117">
<path d="M92.7689 12.0777C82.8519 7.00478 64.3225 -2.47115 40.7127 2.30868C31.7446 4.12292 13.604 7.79327 5.13001 23.2422C0.609681 31.4831 0.800774 39.8984 1.17637 56.7359C1.39382 66.4072 1.72988 77.3415 6.44788 90.2296C10.7969 102.106 14.7044 112.782 22.9214 115.35C34.5055 118.964 48.7979 104.646 61.7988 91.6252C74.4109 78.9883 76.3877 72.3384 87.4974 67.9005C96.1888 64.4255 100.096 66.4561 106.607 61.6204C113.763 56.3103 119.983 45.7388 118.468 35.8023C116.715 24.3238 105.368 18.5182 92.7689 12.0777Z" fill="black" stroke="black" stroke-miterlimit="10"/>
</mask>
<g mask="url(#mask0)">
<path d="M-153 86.2715L5.15033 275.35M-60.9536 9.28146L97.1967 198.36M-106.977 47.7765L51.1735 236.855M-14.9304 -29.2135L143.22 159.865M72.5136 -102.354L230.664 86.7245M-129.988 67.024L28.1619 256.103M-37.942 -9.96604L120.208 179.113M49.502 -83.1066L207.652 105.972M-83.9652 28.529L74.1851 217.608M8.08117 -48.4611L166.232 140.618M95.5252 -121.602L253.676 67.477M-143.795 78.5725L14.355 267.651M-51.749 1.58246L106.401 190.661M35.6951 -71.5581L193.845 117.521M-97.7722 40.0775L60.3782 229.156M-5.72579 -36.9125L152.425 152.166M81.7183 -110.053L239.869 79.0255M-120.784 59.325L37.3666 248.404M-28.7374 -17.665L129.413 171.414M58.7067 -90.8056L216.857 98.273M-74.7606 20.83L83.3898 209.909M17.2858 -56.1601L175.436 132.919M104.73 -129.301L262.88 59.778M-148.398 82.422L9.75265 271.501M-56.3513 5.43196L101.799 194.511M31.0928 -67.7086L189.243 121.37M-102.374 43.927L55.7758 233.006M-10.3281 -33.063L147.822 156.016M77.116 -106.204L235.266 82.875M-125.386 63.1745L32.7642 252.253M-33.3397 -13.8155L124.811 175.263M54.1044 -86.9561L212.255 102.123M-79.3629 24.6795L78.7874 213.758M12.6835 -52.3106L170.834 136.768M100.128 -125.451L258.278 63.6275M-139.193 74.723L18.9573 263.802M-47.1467 -2.26704L111.004 186.812M40.2974 -75.4076L198.448 113.671M-93.1699 36.228L64.9805 225.307M-1.12347 -40.762L157.027 148.317M86.3206 -113.903L244.471 75.176M-116.181 55.4755L41.9689 244.554M-24.1351 -21.5145L134.015 167.564M63.309 -94.6551L221.459 94.4235M-70.1583 16.9805L87.9921 206.059M21.8881 -60.0096L180.038 129.069M109.332 -133.15L267.483 55.9285M-134.591 70.8735L23.5596 259.952M-42.5443 -6.11654L115.606 182.962M44.8997 -79.2571L203.05 109.822M-88.5675 32.3785L69.5828 221.457M3.47885 -44.6116L161.629 144.467M90.9229 -117.752L249.073 71.3265M-111.579 51.626L46.5712 240.705M-19.5327 -25.364L138.618 163.715M67.9113 -98.5046L226.062 90.574M-65.5559 13.131L92.5944 202.21M26.4904 -63.8591L184.641 125.22M113.935 -137L272.085 52.079" stroke="black"/>
</g>
</svg>
