<svg width="121" height="111" viewBox="0 0 121 111" fill="none" xmlns="http://www.w3.org/2000/svg">
<path d="M77.7 1.32004C72.8041 0.657143 70.6823 0.978124 53.3192 2.71561C25.9139 5.45791 23.3441 5.44395 18.3954 8.2979C15.9046 9.73533 4.13598 16.5178 1.263 29.2315C0.814924 31.2202 0.353666 34.3811 5.21664 53.654C9.00554 68.6494 10.9692 76.2832 14.4418 82.961C17.9078 89.6248 21.6704 96.8399 29.5974 102.499C32.1014 104.285 44.7662 113.322 55.955 108.779C63.0979 105.883 61.7339 100.657 71.1106 94.1255C77.5023 89.6737 79.2089 91.3553 92.8556 85.7521C104.532 80.9583 110.37 78.5579 113.942 73.192C116.861 68.8029 117.427 63.0531 118.554 51.5606C119.582 41.0729 120.096 35.8255 118.554 30.627C115.339 19.8044 106.95 13.8453 102.081 10.3913C92.2362 3.40642 82.6618 1.98991 77.7 1.32004Z" stroke="black" stroke-miterlimit="10"/>
</svg>
