<svg width="121" height="111" viewBox="0 0 121 111" fill="none" xmlns="http://www.w3.org/2000/svg">
<mask id="mask0" mask-type="alpha" maskUnits="userSpaceOnUse" x="0" y="0" width="121" height="111">
<path d="M77.7 1.32004C72.8041 0.657143 70.6823 0.978124 53.3192 2.71561C25.9139 5.45791 23.3441 5.44395 18.3954 8.2979C15.9046 9.73533 4.13598 16.5178 1.263 29.2315C0.814924 31.2202 0.353666 34.3811 5.21664 53.654C9.00554 68.6494 10.9692 76.2832 14.4418 82.961C17.9078 89.6248 21.6704 96.8399 29.5974 102.499C32.1014 104.285 44.7662 113.322 55.955 108.779C63.0979 105.883 61.7339 100.657 71.1106 94.1255C77.5023 89.6737 79.2089 91.3553 92.8556 85.7521C104.532 80.9583 110.37 78.5579 113.942 73.192C116.861 68.8029 117.427 63.0531 118.554 51.5606C119.582 41.0729 120.096 35.8255 118.554 30.627C115.339 19.8044 106.95 13.8453 102.081 10.3913C92.2362 3.40642 82.6618 1.98991 77.7 1.32004Z" fill="black" stroke="black" stroke-miterlimit="10"/>
</mask>
<g mask="url(#mask0)">
<path d="M-201 88.2715L-42.8497 277.35M-108.954 11.2815L49.1967 200.36M-154.977 49.7765L3.17352 238.855M-62.9304 -27.2135L95.2199 161.865M24.5136 -100.354L182.664 88.7245M-177.988 69.024L-19.8381 258.103M-85.942 -7.96604L72.2083 181.113M1.50204 -81.1066L159.652 107.972M-131.965 30.529L26.1851 219.608M-39.9188 -46.4611L118.232 142.618M47.5252 -119.602L205.676 69.477M-191.795 80.5725L-33.645 269.651M-99.749 3.58246L58.4014 192.661M-12.3049 -69.5581L145.845 119.521M-145.772 42.0775L12.3782 231.156M-53.7258 -34.9125L104.425 154.166M33.7183 -108.053L191.869 81.0255M-168.784 61.325L-10.6334 250.404M-76.7374 -15.665L81.4129 173.414M10.7067 -88.8056L168.857 100.273M-122.761 22.83L35.3898 211.909M-30.7142 -54.1601L127.436 134.919M56.7299 -127.301L214.88 61.778M-196.398 84.422L-38.2473 273.501M-104.351 7.43196L53.799 196.511M-16.9072 -65.7086L141.243 123.37M-150.374 45.927L7.77584 235.006M-58.3281 -31.063L99.8222 158.016M29.116 -104.204L187.266 84.875M-173.386 65.1745L-15.2358 254.253M-81.3397 -11.8155L76.8106 177.263M6.10436 -84.9561L164.255 104.123M-127.363 26.6795L30.7874 215.758M-35.3165 -50.3106L122.834 138.768M52.1276 -123.451L210.278 65.6275M-187.193 76.723L-29.0427 265.802M-95.1467 -0.267039L63.0037 188.812M-7.7026 -73.4076L150.448 115.671M-141.17 38.228L16.9805 227.307M-49.1235 -38.762L109.027 150.317M38.3206 -111.903L196.471 77.176M-164.181 57.4755L-6.03111 246.554M-72.1351 -19.5145L86.0153 169.564M15.309 -92.6551L173.459 96.4235M-118.158 18.9805L39.9921 208.059M-26.1119 -58.0096L132.038 131.069M61.3322 -131.15L219.483 57.9285M-182.591 72.8735L-24.4404 261.952M-90.5443 -4.11654L67.606 184.962M-3.10028 -77.2571L155.05 111.822M-136.568 34.3785L21.5828 223.457M-44.5211 -42.6116L113.629 146.467M42.9229 -115.752L201.073 73.3265M-159.579 53.626L-1.42879 242.705M-67.5327 -23.364L90.6176 165.715M19.9113 -96.5046L178.062 92.574M-113.556 15.131L44.5944 204.21M-21.5096 -61.8591L136.641 127.22M65.9345 -135L224.085 54.079" stroke="black"/>
</g>
</svg>
