<svg width="137" height="104" viewBox="0 0 137 104" fill="none" xmlns="http://www.w3.org/2000/svg">
<mask id="mask0" mask-type="alpha" maskUnits="userSpaceOnUse" x="0" y="0" width="137" height="104">
<path d="M97.274 16.8541C89.2745 12.0673 50.5816 -11.0713 22.1549 9.17845C10.9661 17.1472 0.0277322 32.7985 1.06886 49.65C1.83982 62.1055 8.86411 70.6255 21.496 85.9349C30.9122 97.3437 35.6171 103.052 41.9231 103.38C55.1151 104.063 58.2055 83.7229 74.8701 81.0504C87.5415 79.0198 91.2118 89.9053 105.84 88.726C118.307 87.7212 132.685 78.4407 135.493 66.3969C140.843 43.4676 102.091 19.7359 97.274 16.8541Z" fill="black" stroke="black" stroke-miterlimit="10"/>
</mask>
<g mask="url(#mask0)">
<path d="M-147 20.2715L54.4572 261.126M-54.9536 -56.7185L146.504 184.136M-100.977 -18.2235L100.48 222.631M-8.93043 -95.2135L192.527 145.641M78.5136 -168.354L279.971 72.5006M-123.988 1.02398L77.4688 241.879M-31.942 -75.966L169.515 164.889M55.502 -149.107L256.959 91.7481M-77.9652 -37.471L123.492 203.384M14.0812 -114.461L215.538 126.394M101.525 -187.602L302.982 53.2531M-137.795 12.5725L63.6619 253.427M-45.749 -64.4175L155.708 176.437M41.6951 -137.558L243.152 103.297M-91.7722 -25.9225L109.685 214.932M0.274212 -102.913L201.731 137.942M87.7183 -176.053L289.175 64.8016M-114.784 -6.67502L86.6734 234.18M-22.7374 -83.665L178.72 157.19M64.7067 -156.806L266.164 84.0491M-68.7606 -45.17L132.697 195.685M23.2858 -122.16L224.743 118.695M110.73 -195.301L312.187 45.5541M-142.398 16.422L59.0595 257.277M-50.3513 -60.568L151.106 180.287M37.0928 -133.709L238.55 107.146M-96.3745 -22.073L105.083 218.782M-4.32811 -99.063L197.129 141.792M83.116 -172.204L284.573 68.6511M-119.386 -2.82552L82.0711 238.029M-27.3397 -79.8155L174.118 161.039M60.1044 -152.956L261.562 87.8986M-73.3629 -41.3205L128.094 199.534M18.6835 -118.311L220.141 122.544M106.128 -191.451L307.585 49.4036M-133.193 8.72298L68.2642 249.578M-41.1467 -68.267L160.311 172.588M46.2974 -141.408L247.755 99.4471M-87.1699 -29.772L114.287 211.083M4.87653 -106.762L206.334 134.093M92.3206 -179.903L293.778 60.9521M-110.181 -10.5245L91.2758 230.33M-18.1351 -87.5145L183.322 153.34M69.309 -160.655L270.766 80.1996M-64.1583 -49.0195L137.299 191.835M27.8881 -126.01L229.345 114.845M115.332 -199.15L316.789 41.7046M-128.591 4.87348L72.8665 245.728M-36.5443 -72.1165L164.913 168.738M50.8997 -145.257L252.357 95.5976M-82.5675 -33.6215L118.89 207.233M9.47885 -110.612L210.936 130.243M96.9229 -183.752L298.38 57.1026M-105.579 -14.374L95.8781 226.481M-13.5327 -91.364L187.924 149.491M73.9113 -164.505L275.369 76.3501M-59.5559 -52.869L141.901 187.986M32.4904 -129.859L233.948 110.996M119.935 -203L321.392 37.8551" stroke="black"/>
</g>
</svg>
