<svg width="118" height="79" viewBox="0 0 118 79" fill="none" xmlns="http://www.w3.org/2000/svg">
<path d="M98.6607 5.3868C87.8277 -0.139659 78.1413 0.662794 63.078 1.89787C45.5041 3.34229 36.7204 4.06101 28.8131 10.9691C26.5793 12.9159 22.2698 19.7123 13.6575 33.2982C8.39917 41.5879 6.25762 45.4676 4.43236 50.7429C1.82296 58.258 -0.667834 65.4522 2.45554 70.9787C6.97586 78.9683 20.1547 78.0193 20.9058 77.9565C35.7913 76.6935 37.1158 63.3449 51.876 60.5119C63.816 58.2162 66.689 66.2337 80.2104 63.303C89.9759 61.1817 96.4467 55.2715 100.638 51.4407C107.293 45.356 118.066 35.5172 116.452 24.227C114.95 13.6905 103.51 7.85696 98.6607 5.3868Z" stroke="black" stroke-miterlimit="10"/>
</svg>
