<svg width="118" height="79" viewBox="0 0 118 79" fill="none" xmlns="http://www.w3.org/2000/svg">
<mask id="mask0" mask-type="alpha" maskUnits="userSpaceOnUse" x="0" y="0" width="118" height="79">
<path d="M98.6607 5.3868C87.8277 -0.139659 78.1413 0.662794 63.078 1.89787C45.5041 3.34229 36.7204 4.06101 28.8131 10.9691C26.5793 12.9159 22.2698 19.7123 13.6575 33.2982C8.39917 41.5879 6.25762 45.4676 4.43236 50.7429C1.82296 58.258 -0.667834 65.4522 2.45554 70.9787C6.97586 78.9683 20.1547 78.0193 20.9058 77.9565C35.7913 76.6935 37.1158 63.3449 51.876 60.5119C63.816 58.2162 66.689 66.2337 80.2104 63.303C89.9759 61.1817 96.4467 55.2715 100.638 51.4407C107.293 45.356 118.066 35.5172 116.452 24.227C114.95 13.6905 103.51 7.85696 98.6607 5.3868Z" fill="black" stroke="black" stroke-miterlimit="10"/>
</mask>
<g mask="url(#mask0)">
<path d="M-148 18.2715L10.1503 207.35M-55.9536 -58.7185L102.197 130.36M-101.977 -20.2235L56.1735 168.855M-9.93043 -97.2135L148.22 91.8651M77.5136 -170.354L235.664 18.7245M-124.988 -0.976021L33.1619 188.103M-32.942 -77.966L125.208 111.113M54.502 -151.107L212.652 37.9721M-78.9652 -39.471L79.1851 149.608M13.0812 -116.461L171.232 72.6176M100.525 -189.602L258.676 -0.52296M-138.795 10.5725L19.355 199.651M-46.749 -66.4175L111.401 122.661M40.6951 -139.558L198.845 49.5206M-92.7722 -27.9225L65.3782 161.156M-0.725788 -104.913L157.425 84.1661M86.7183 -178.053L244.869 11.0255M-115.784 -8.67502L42.3666 180.404M-23.7374 -85.665L134.413 103.414M63.7067 -158.806L221.857 30.273M-69.7606 -47.17L88.3898 141.909M22.2858 -124.16L180.436 64.9186M109.73 -197.301L267.88 -8.22196M-143.398 14.422L14.7527 203.501M-51.3513 -62.568L106.799 126.511M36.0928 -135.709L194.243 53.3701M-97.3745 -24.073L60.7758 165.006M-5.32811 -101.063L152.822 88.0156M82.116 -174.204L240.266 14.875M-120.386 -4.82552L37.7642 184.253M-28.3397 -81.8155L129.811 107.263M59.1044 -154.956L217.255 34.1225M-74.3629 -43.3205L83.7874 145.758M17.6835 -120.311L175.834 68.7681M105.128 -193.451L263.278 -4.37246M-134.193 6.72298L23.9573 195.802M-42.1467 -70.267L116.004 118.812M45.2974 -143.408L203.448 45.6711M-88.1699 -31.772L69.9805 157.307M3.87653 -108.762L162.027 80.3166M91.3206 -181.903L249.471 7.17604M-111.181 -12.5245L46.9689 176.554M-19.1351 -89.5145L139.015 99.5641M68.309 -162.655L226.459 26.4235M-65.1583 -51.0195L92.9921 138.059M26.8881 -128.01L185.038 61.0691M114.332 -201.15L272.483 -12.0715M-129.591 2.87348L28.5596 191.952M-37.5443 -74.1165L120.606 114.962M49.8997 -147.257L208.05 41.8216M-83.5675 -35.6215L74.5828 153.457M8.47885 -112.612L166.629 76.4671M95.9229 -185.752L254.073 3.32654M-106.579 -16.374L51.5712 172.705M-14.5327 -93.364L143.618 95.7146M72.9113 -166.505L231.062 22.574M-60.5559 -54.869L97.5944 134.21M31.4904 -131.859L189.641 57.2196M118.935 -205L277.085 -15.921" stroke="black"/>
</g>
</svg>
