<svg id="Слой_1" data-name="Слой 1" xmlns="http://www.w3.org/2000/svg" viewBox="0 0 256.13 256.46"><defs><style>.cls-1{fill:#8768e1;}</style></defs><rect x="64.1" y="160.47" width="128" height="32.21"/><rect x="-16" y="47.9" width="128" height="32.21" transform="translate(112.1 16) rotate(90)"/><rect x="16" y="79.5" width="128" height="32.21" transform="translate(175.71 15.6) rotate(90)"/><rect x="112" y="79.5" width="128" height="32.21" transform="translate(271.71 -80.4) rotate(90)"/><rect x="48.09" y="119.03" width="128" height="32.21" transform="translate(247.32 23.04) rotate(90)"/><rect x="48.09" y="113.76" width="128" height="32.21" transform="translate(242.06 17.78) rotate(90)"/><rect x="80" y="113.76" width="128" height="32.21" transform="translate(273.97 -14.13) rotate(90)"/><rect x="144" y="47.9" width="128" height="32.21" transform="translate(272.1 -144) rotate(90)"/><rect class="cls-1" x="0.1" width="32" height="64.91"/><rect x="0.1" y="64.96" width="32" height="64.91"/><rect x="16.28" y="97.41" width="32" height="64.91"/><rect x="32.1" y="128.07" width="32" height="64.91"/><rect x="48.1" y="159.54" width="32" height="64.91"/><rect x="64.1" y="191.54" width="32" height="64.91"/><rect x="224" y="64.96" width="32" height="64.91" transform="translate(480.1 194.82) rotate(-180)"/><rect x="207.82" y="97.41" width="32" height="64.91" transform="translate(447.75 259.74) rotate(-180)"/><rect x="192" y="128.07" width="32" height="64.91" transform="translate(416.1 321.06) rotate(-180)"/><rect x="176" y="159.54" width="32" height="64.91" transform="translate(384.1 384) rotate(-180)"/><rect x="160" y="191.54" width="32" height="64.91" transform="translate(352.1 448) rotate(-180)"/><rect class="cls-1" x="16.43" y="32.91" width="32" height="64.32"/><rect class="cls-1" x="32.28" y="65.24" width="32" height="64.18"/><rect class="cls-1" x="112.1" y="224" width="32" height="32"/><rect class="cls-1" x="96.1" y="192" width="32" height="64"/><rect class="cls-1" x="80.1" y="160.47" width="32" height="63.53"/><rect class="cls-1" x="64.1" y="128.07" width="32" height="63.06"/><rect class="cls-1" x="48.1" y="128.07" width="32" height="32"/><rect class="cls-1" x="224" y="0.06" width="32" height="64.91" transform="translate(480.1 65.03) rotate(-180)"/><rect class="cls-1" x="207.68" y="32.97" width="32" height="64.32" transform="translate(447.46 130.26) rotate(-180)"/><rect class="cls-1" x="191.82" y="65.29" width="32" height="64.18" transform="translate(415.75 194.76) rotate(-180)"/><rect class="cls-1" x="112" y="224.06" width="32" height="32" transform="translate(256.1 480.12) rotate(-180)"/><rect class="cls-1" x="128" y="192.06" width="32" height="64" transform="translate(288.1 448.12) rotate(-180)"/><rect class="cls-1" x="144" y="160.53" width="32" height="63.53" transform="translate(320.1 384.59) rotate(-180)"/><rect class="cls-1" x="160" y="129" width="32" height="63.06" transform="translate(352.1 321.06) rotate(-180)"/><rect class="cls-1" x="176" y="97.47" width="32" height="63.06" transform="translate(384.1 258) rotate(-180)"/><rect x="64.1" y="224.06" width="128" height="31.94"/><rect x="-48" y="47.9" width="128" height="32.21" transform="translate(80.1 48) rotate(90)"/><rect x="175.93" y="47.9" width="128" height="32.21" transform="translate(304.03 -175.93) rotate(90)"/></svg>