<?xml version="1.0" encoding="utf-8"?>
<!-- Generator: Adobe Illustrator 24.1.1, SVG Export Plug-In . SVG Version: 6.00 Build 0)  -->
<svg version="1.1" id="Слой_1" xmlns="http://www.w3.org/2000/svg" xmlns:xlink="http://www.w3.org/1999/xlink" x="0px" y="0px"
	 viewBox="0 0 683.9 107" style="enable-background:new 0 0 683.9 107;" xml:space="preserve">
<style type="text/css">
	.st0{fill:#DB0303;}
	.st1{fill:#FFB600;}
	.st2{fill:#472700;}
</style>
<rect x="677" y="65.5" class="st0" width="3.5" height="0"/>
<rect x="677" y="65.5" class="st0" width="3.5" height="0"/>
<rect x="673.5" y="65.5" class="st1" width="3.5" height="0"/>
<rect x="673.5" y="65.5" class="st0" width="3.5" height="0"/>
<rect x="673.5" y="41.4" class="st0" width="3.5" height="6.9"/>
<rect x="670.1" y="75.8" class="st1" width="3.5" height="3.5"/>
<rect x="666.6" y="93" class="st0" width="3.5" height="0"/>
<rect x="666.6" y="65.5" class="st0" width="3.5" height="0"/>
<rect x="666.6" y="65.5" class="st1" width="3.5" height="0"/>
<rect x="663.2" y="93" class="st0" width="3.5" height="0"/>
<path class="st0" d="M663.2,20.7h-3.5v3.4h3.5V20.7z"/>
<rect x="659.7" y="93.1" class="st0" width="0" height="3.4"/>
<rect x="659.7" y="89.6" class="st0" width="0" height="3.5"/>
<rect x="656.3" y="65.5" class="st1" width="3.5" height="0"/>
<rect x="656.3" y="65.5" class="st0" width="3.5" height="0"/>
<rect x="652.8" y="93" class="st0" width="3.5" height="0"/>
<path class="st1" d="M656.3,13.8h-3.5v3.4h3.5V13.8z"/>
<rect x="652.8" y="93.1" class="st0" width="0" height="3.4"/>
<rect x="652.8" y="93" class="st0" width="0" height="0"/>
<rect x="645.9" y="93" class="st1" width="3.5" height="0"/>
<rect x="645.9" y="48.2" class="st1" width="3.5" height="3.5"/>
<rect x="642.4" y="93.1" class="st0" width="0" height="3.4"/>
<rect x="645.9" y="93.1" class="st0" width="0" height="3.4"/>
<rect x="645.9" y="93" class="st0" width="0" height="0"/>
<polygon class="st1" points="649.3,82.7 649.3,93 645.9,93 645.9,89.6 642.4,89.6 642.4,86.2 645.9,86.2 645.9,82.7 "/>
<rect x="642.4" y="86.2" class="st1" width="0" height="3.4"/>
<rect x="642.4" y="79.3" class="st0" width="0" height="3.5"/>
<rect x="642.4" y="75.8" class="st0" width="0" height="3.5"/>
<rect x="642.4" y="68.9" class="st1" width="0" height="3.5"/>
<rect x="642.4" y="65.5" class="st1" width="0" height="3.5"/>
<rect x="642.4" y="62" class="st1" width="0" height="3.5"/>
<rect x="642.4" y="55.1" class="st0" width="0" height="3.5"/>
<rect x="642.4" y="51.7" class="st0" width="0" height="3.4"/>
<rect x="642.4" y="48.2" class="st0" width="0" height="3.5"/>
<rect x="642.4" y="41.4" class="st1" width="0" height="3.4"/>
<rect x="642.4" y="37.9" class="st1" width="0" height="3.4"/>
<rect x="642.4" y="34.5" class="st1" width="0" height="3.4"/>
<polygon class="st1" points="649.3,34.5 649.3,41.4 645.9,41.4 645.9,44.8 642.4,44.8 642.4,34.5 "/>
<rect x="642.4" y="31" class="st1" width="3.5" height="3.4"/>
<rect x="642.4" y="31" class="st1" width="0" height="3.4"/>
<rect x="642.4" y="27.6" class="st0" width="0" height="3.5"/>
<g>
	<path class="st0" d="M680.4,58.6V48.2H677v6.9h-3.5v-6.9h-3.5V37.9h-3.5v-3.4h-17.3v6.9h-3.5v3.4h-3.5V34.5h-20.7v6.9h-3.5v6.9
		h-3.5v10.3h-3.4v10.3h-3.5v10.3h3.5v6.9h6.9v6.9h3.5v3.4h3.5V93h3.4v-3.4h3.5V93h10.4v0h0v3.4h3.4V93h0v-3.4h-3.5v-3.4h3.5v-3.4
		h3.5v13.8h3.5V93h3.5v-3.4h3.5v6.9h3.5V93h6.9v-3.4h6.9v-3.4h3.5v-6.9h3.5V58.6H680.4z M618.3,79.3h-3.5v-6.9h3.5V79.3z M628.6,62
		v17.2h-3.5v-6.9h-3.5V58.6h3.5v-6.9h3.5v-3.5h-3.5v-3.5h3.5v3.5h6.9v3.5h-3.5V62H628.6z M642.4,82.7H639v3.4h-3.5v-3.4h-3.5v-3.5
		h3.5V55.1h3.5v-3.4h3.4v-3.5h0v10.3H639v17.2h3.5V82.7z M649.3,68.9h-3.5v3.5h-3.5V62h3.5v-6.9h3.5V68.9z M649.3,51.7h-3.5v-3.5
		h3.5V51.7z M680.4,65.5H677v10.3h-3.5v3.5h-3.5v-3.5h3.5v-6.9h-3.5v-3.4h-3.5V62h-3.5v10.3h-3.5v6.9h3.5v3.5h-3.5v3.4h-3.5V65.5
		h3.5V62h-3.5v-6.9h3.5V62h3.5V51.7h3.5v6.9h3.5V62h3.5v3.4L680.4,65.5L680.4,65.5z"/>
	<polygon class="st1" points="677,65.5 677,75.8 673.5,75.8 673.5,68.9 670.1,68.9 670.1,65.5 666.6,65.5 666.6,62 663.2,62 
		663.2,51.7 666.6,51.7 666.6,58.6 670.1,58.6 670.1,62 673.5,62 673.5,65.5 	"/>
	<rect x="656.3" y="55.1" class="st1" width="3.5" height="6.9"/>
	<polygon class="st1" points="663.2,62 663.2,72.4 659.7,72.4 659.7,79.3 663.2,79.3 663.2,82.7 659.7,82.7 659.7,86.2 656.3,86.2 
		656.3,65.5 659.7,65.5 659.7,62 	"/>
	<polygon class="st1" points="649.3,55.1 649.3,68.9 645.9,68.9 645.9,72.4 642.4,72.4 642.4,62 645.9,62 645.9,55.1 	"/>
	<polygon class="st0" points="656.3,20.7 656.3,34.5 645.9,34.5 645.9,31 642.4,31 642.4,27.6 642.4,27.6 642.4,13.8 645.9,13.8 
		645.9,20.7 649.3,20.7 649.3,27.6 652.8,27.6 652.8,20.7 	"/>
</g>
<rect x="659.7" y="27.6" class="st0" width="3.5" height="6.9"/>
<path class="st1" d="M645.9,6.9h-3.5v3.4h3.5V6.9z"/>
<path class="st1" d="M645.9,0h-3.5v3.4h3.5V0z"/>
<rect x="642.4" y="93.1" class="st0" width="0" height="3.4"/>
<rect x="639" y="93" class="st0" width="3.4" height="0"/>
<rect x="642.4" y="86.2" class="st0" width="0" height="3.4"/>
<rect x="642.4" y="79.3" class="st1" width="0" height="3.5"/>
<rect x="642.4" y="75.8" class="st1" width="0" height="3.5"/>
<rect x="642.4" y="68.9" class="st0" width="0" height="3.5"/>
<rect x="642.4" y="65.5" class="st0" width="0" height="3.5"/>
<rect x="642.4" y="62" class="st0" width="0" height="3.5"/>
<rect x="642.4" y="55.1" class="st1" width="0" height="3.5"/>
<polygon class="st1" points="642.4,51.7 642.4,58.6 639,58.6 639,75.8 642.4,75.8 642.4,82.7 639,82.7 639,86.2 635.5,86.2 
	635.5,82.7 632.1,82.7 632.1,79.3 635.5,79.3 635.5,55.1 639,55.1 639,51.7 "/>
<rect x="642.4" y="51.7" class="st1" width="0" height="3.4"/>
<rect x="642.4" y="48.2" class="st0" width="0" height="3.5"/>
<rect x="642.4" y="41.4" class="st0" width="0" height="3.4"/>
<rect x="642.4" y="37.9" class="st0" width="0" height="3.4"/>
<rect x="642.4" y="34.5" class="st0" width="0" height="3.4"/>
<rect x="642.4" y="31" class="st0" width="0" height="3.4"/>
<polygon class="st0" points="642.4,34.5 632.1,34.5 632.1,31 635.5,31 635.5,24.1 639,24.1 639,27.6 642.4,27.6 "/>
<rect x="642.4" y="27.6" class="st0" width="0" height="3.5"/>
<rect x="635.5" y="93" class="st0" width="3.5" height="0"/>
<path class="st0" d="M639,17.2h-3.5v3.4h3.5V17.2z"/>
<rect x="632.1" y="93" class="st0" width="3.5" height="0"/>
<path class="st1" d="M635.5,13.8h-3.5v3.4h3.5V13.8z"/>
<rect x="632.1" y="89.6" class="st0" width="0" height="3.5"/>
<path class="st0" d="M632.1,27.6h-3.5V31h3.5V27.6z"/>
<polygon class="st0" points="628.6,89.6 628.6,93.1 625.2,93.1 625.2,93 628.6,93 628.6,89.6 "/>
<rect x="625.2" y="44.8" class="st1" width="3.5" height="3.5"/>
<polygon class="st1" points="635.5,48.2 635.5,51.7 632.1,51.7 632.1,62 628.6,62 628.6,79.3 625.2,79.3 625.2,72.4 621.7,72.4 
	621.7,58.6 625.2,58.6 625.2,51.7 628.6,51.7 628.6,48.2 "/>
<path class="st0" d="M625.2,24.1h-3.5v3.4h3.5V24.1z"/>
<rect x="614.8" y="72.4" class="st1" width="3.5" height="6.9"/>
<path class="st1" d="M614.8,44.8h-3.5v3.4h3.5V44.8z"/>
<rect x="621.7" y="31" class="st0" width="3.5" height="3.4"/>
<path class="st1" d="M611.3,55.1h-3.5v3.4h3.5V55.1z"/>
<rect x="666.6" y="93" class="st2" width="3.5" height="0"/>
<rect x="663.2" y="93" class="st2" width="3.4" height="0"/>
<polygon class="st2" points="656.3,93 656.3,93.1 652.8,93.1 652.8,96.5 652.8,96.5 652.8,93 "/>
<polygon class="st2" points="649.3,93 649.3,93.1 645.9,93.1 645.9,96.5 645.9,96.5 645.9,93 "/>
<rect x="639" y="93" class="st2" width="3.5" height="0"/>
<rect x="635.5" y="93" class="st2" width="3.5" height="0"/>
<rect x="632.1" y="93" class="st2" width="3.5" height="0"/>
<rect x="628.6" y="96.5" class="st2" width="0" height="3.5"/>
<rect x="628.6" y="93" class="st2" width="0" height="0"/>
<rect x="628.6" y="89.6" class="st2" width="0" height="3.4"/>
<polygon class="st2" points="670.1,93.1 670.1,96.5 666.6,96.5 666.6,99.9 659.7,99.9 659.7,106.8 652.8,106.8 652.8,103.4 
	645.9,103.4 645.9,106.8 642.4,106.8 642.4,103.4 635.5,103.4 635.5,99.9 628.6,99.9 628.6,96.5 625.2,96.5 625.2,93.1 628.6,93.1 
	628.6,89.6 632.1,89.6 632.1,93.1 642.4,93.1 642.4,96.5 645.9,96.5 645.9,93.1 649.3,93.1 649.3,96.5 652.8,96.5 652.8,93.1 
	656.3,93.1 656.3,89.6 659.7,89.6 659.7,96.5 663.2,96.5 663.2,93.1 "/>
<rect x="625.2" y="93" class="st2" width="3.4" height="0"/>
<rect x="597.5" y="41.4" class="st0" width="3.5" height="6.9"/>
<rect x="594.1" y="75.8" class="st1" width="3.5" height="3.5"/>
<rect x="594.1" y="55.1" class="st0" width="3.5" height="6.9"/>
<path class="st0" d="M597.5,48.3h-3.5v3.4h3.5V48.3z"/>
<rect x="590.6" y="93" class="st0" width="3.4" height="0"/>
<rect x="590.6" y="65.5" class="st0" width="3.4" height="0"/>
<rect x="590.6" y="65.5" class="st1" width="3.4" height="0"/>
<rect x="590.6" y="41.4" class="st0" width="3.4" height="6.9"/>
<rect x="587.2" y="93" class="st0" width="3.5" height="0"/>
<polygon class="st1" points="601,65.5 601,75.8 597.5,75.8 597.5,68.9 594.1,68.9 594.1,65.5 590.6,65.5 590.6,62 587.2,62 
	587.2,55.1 590.6,55.1 590.6,58.6 594.1,58.6 594.1,62 597.5,62 597.5,65.5 "/>
<rect x="583.7" y="48.2" class="st0" width="3.5" height="13.8"/>
<rect x="583.7" y="31" class="st0" width="3.5" height="3.4"/>
<rect x="583.7" y="34.5" class="st0" width="6.9" height="3.4"/>
<path class="st0" d="M587.2,20.7h-3.5v3.4h3.5V20.7z"/>
<rect x="583.7" y="93.1" class="st0" width="0" height="3.4"/>
<rect x="583.7" y="89.6" class="st0" width="0" height="3.5"/>
<polygon class="st1" points="587.2,62 587.2,72.4 583.7,72.4 583.7,79.3 587.2,79.3 587.2,82.7 583.7,82.7 583.7,86.2 580.3,86.2 
	580.3,65.5 583.7,65.5 583.7,62 "/>
<rect x="580.3" y="65.5" class="st1" width="3.5" height="0"/>
<rect x="580.3" y="65.5" class="st0" width="3.5" height="0"/>
<rect x="580.3" y="55.1" class="st1" width="3.5" height="3.5"/>
<rect x="580.3" y="41.4" class="st0" width="6.9" height="3.4"/>
<rect x="576.8" y="93" class="st0" width="3.4" height="0"/>
<rect x="576.8" y="44.8" class="st0" width="3.4" height="6.9"/>
<rect x="576.8" y="23.2" class="st0" width="3.4" height="7.8"/>
<rect x="576.8" y="19.8" class="st1" width="3.4" height="3.4"/>
<rect x="576.8" y="93.1" class="st0" width="0" height="3.4"/>
<rect x="576.8" y="93" class="st0" width="0" height="0"/>
<rect x="569.9" y="93" class="st1" width="3.5" height="0"/>
<rect x="569.9" y="48.2" class="st1" width="3.5" height="3.5"/>
<polygon class="st1" points="573.3,34.5 573.3,41.4 569.9,41.4 569.9,44.8 566.4,44.8 566.4,37.9 569.9,37.9 569.9,34.5 "/>
<polygon class="st0" points="569.9,34.5 569.9,27.6 573.3,27.6 573.3,31 576.8,31 576.8,34.5 "/>
<polygon class="st0" points="580.3,34.5 580.3,41.4 576.8,41.4 576.8,37.9 573.3,37.9 573.3,34.5 "/>
<rect x="566.4" y="93.1" class="st0" width="0" height="3.4"/>
<rect x="569.9" y="93.1" class="st0" width="0" height="3.4"/>
<rect x="569.9" y="93" class="st0" width="0" height="0"/>
<polygon class="st1" points="573.3,82.7 573.3,93 569.9,93 569.9,89.6 566.4,89.6 566.4,86.2 569.9,86.2 569.9,82.7 "/>
<rect x="566.4" y="86.2" class="st1" width="0" height="3.4"/>
<rect x="566.4" y="79.3" class="st0" width="0" height="3.5"/>
<rect x="566.4" y="75.8" class="st0" width="0" height="3.5"/>
<polygon class="st1" points="573.3,55.1 573.3,68.9 569.9,68.9 569.9,72.4 566.4,72.4 566.4,62 569.9,62 569.9,55.1 "/>
<rect x="566.4" y="68.9" class="st1" width="0" height="3.5"/>
<rect x="566.4" y="65.5" class="st1" width="0" height="3.5"/>
<rect x="566.4" y="62" class="st1" width="0" height="3.5"/>
<rect x="566.4" y="41.4" class="st1" width="0" height="3.4"/>
<rect x="566.4" y="37.9" class="st1" width="0" height="3.4"/>
<rect x="566.4" y="31" class="st1" width="3.5" height="3.4"/>
<rect x="566.4" y="20.7" class="st0" width="3.5" height="6.9"/>
<path class="st1" d="M569.9,11h-3.5v3.4h3.5V11z"/>
<rect x="566.4" y="93.1" class="st0" width="0" height="3.4"/>
<rect x="563" y="93" class="st0" width="3.5" height="0"/>
<rect x="566.4" y="86.2" class="st0" width="0" height="3.4"/>
<rect x="566.4" y="79.3" class="st1" width="0" height="3.5"/>
<rect x="566.4" y="75.8" class="st1" width="0" height="3.5"/>
<rect x="566.4" y="68.9" class="st0" width="0" height="3.5"/>
<rect x="566.4" y="65.5" class="st0" width="0" height="3.5"/>
<rect x="566.4" y="62" class="st0" width="0" height="3.5"/>
<rect x="566.4" y="41.4" class="st0" width="0" height="3.4"/>
<rect x="566.4" y="37.9" class="st0" width="0" height="3.4"/>
<polygon class="st0" points="566.4,34.5 566.4,37.9 566.4,37.9 566.4,44.8 563,44.8 563,34.5 "/>
<rect x="559.5" y="93" class="st0" width="3.4" height="0"/>
<polygon class="st1" points="566.4,75.8 566.4,82.7 563,82.7 563,86.2 559.5,86.2 559.5,82.7 556.1,82.7 556.1,79.3 559.5,79.3 
	559.5,55.1 563,55.1 563,75.8 "/>
<rect x="559.5" y="48.2" class="st0" width="3.5" height="6.9"/>
<path class="st0" d="M563,31h-3.5v3.4h3.5V31z"/>
<path class="st0" d="M563,24.1h-3.5v3.4h3.5V24.1z"/>
<path class="st0" d="M563,17.2h-3.5v3.4h3.5V17.2z"/>
<rect x="556.1" y="93" class="st0" width="3.5" height="0"/>
<rect x="556.1" y="48.2" class="st1" width="3.5" height="3.5"/>
<path class="st0" d="M559.5,44.8h-3.5v3.4h3.5V44.8z"/>
<path class="st0" d="M559.5,37.9h-3.5v3.4h3.5V37.9z"/>
<path class="st1" d="M559.5,19.8h-3.5v3.4h3.5V19.8z"/>
<path class="st0" d="M556.1,34.5h-3.5v3.4h3.5V34.5z"/>
<path class="st0" d="M556.1,27.6h-3.5V31h3.5V27.6z"/>
<polygon class="st0" points="552.6,89.6 552.6,93.1 549.2,93.1 549.2,93 552.6,93 552.6,89.6 "/>
<rect x="549.2" y="48.2" class="st0" width="3.5" height="3.5"/>
<rect x="549.2" y="44.8" class="st1" width="3.5" height="3.5"/>
<polygon class="st0" points="556.1,41.4 556.1,44.8 549.2,44.8 549.2,37.9 552.6,37.9 552.6,41.4 "/>
<polygon class="st1" points="556.1,51.7 556.1,62 552.6,62 552.6,79.3 549.2,79.3 549.2,72.4 545.7,72.4 545.7,58.6 549.2,58.6 
	549.2,51.7 "/>
<rect x="545.7" y="51.7" class="st0" width="3.5" height="6.9"/>
<path class="st0" d="M549.2,34.5h-3.5v3.4h3.5V34.5z"/>
<path class="st0" d="M549.2,28.1h-3.5v3.4h3.5V28.1z"/>
<path class="st0" d="M604.4,58.6V48.2H601v27.6h-3.5v3.5h-3.5v-3.5h3.5v-6.9h-3.5v-3.4h-3.4V62h-3.5v10.3h-3.5v6.9h3.5v3.5h-3.5v3.4
	h-3.5V65.5h3.5V62h-3.5v-6.9h-3.4v10.3h-3.5v3.5h-3.5v3.5h-3.5V62h3.5v-6.9h3.5v-3.4h-3.5v-3.5h3.5v-3.5h3.5v-3.4h-6.9v3.4h-3.5
	v13.8H563v17.2h3.5v6.9H563v3.4h-3.5v-3.4h-3.5v-3.5h3.5V58.6h-3.5v6.9h-3.4v13.8h-3.5v-6.9h-3.5v-6.9h-3.5V51.7h3.5V41.4h-3.5v6.9
	h-3.5v10.3h-3.5v27.6h6.9v6.9h3.5v3.4h3.5V93h3.5v-3.4h3.5V93h6.9v0h0v0h3.5v0h0v3.4h3.4V93h0v-3.4h-3.5v-3.4h3.5v-3.4h3.5v13.8h3.5
	V93h3.5v-3.4h3.5v6.9h3.5V93h6.9v-3.4h6.9v-3.4h3.5v-6.9h3.5V58.6H604.4z M542.3,79.3h-3.5v-6.9h3.5V79.3z"/>
<rect x="538.8" y="72.4" class="st1" width="3.5" height="6.9"/>
<rect x="590.6" y="93" class="st2" width="3.5" height="0"/>
<rect x="587.2" y="93" class="st2" width="3.5" height="0"/>
<polygon class="st2" points="580.3,93 580.3,93.1 576.8,93.1 576.8,96.5 576.8,96.5 576.8,93 "/>
<polygon class="st2" points="573.3,93 573.3,93.1 569.9,93.1 569.9,96.5 569.9,96.5 569.9,93 "/>
<rect x="563" y="93" class="st2" width="3.5" height="0"/>
<rect x="559.5" y="93" class="st2" width="3.5" height="0"/>
<rect x="556.1" y="93" class="st2" width="3.5" height="0"/>
<rect x="552.6" y="96.5" class="st2" width="0" height="3.5"/>
<rect x="552.6" y="93" class="st2" width="0" height="0"/>
<rect x="552.6" y="89.6" class="st2" width="0" height="3.4"/>
<polygon class="st2" points="594.1,93.1 594.1,96.5 590.6,96.5 590.6,99.9 583.7,99.9 583.7,106.8 576.8,106.8 576.8,103.4 
	569.9,103.4 569.9,106.8 566.4,106.8 566.4,103.4 563,103.4 563,99.9 563,99.9 563,103.4 559.5,103.4 559.5,99.9 552.6,99.9 
	552.6,96.5 549.2,96.5 549.2,93.1 552.6,93.1 552.6,89.6 556.1,89.6 556.1,93.1 566.4,93.1 566.4,96.5 569.9,96.5 569.9,93.1 
	573.3,93.1 573.3,96.5 576.8,96.5 576.8,93.1 580.3,93.1 580.3,89.6 583.7,89.6 583.7,96.5 587.2,96.5 587.2,93.1 "/>
<rect x="549.2" y="93" class="st2" width="3.5" height="0"/>
<rect x="528.4" y="75.7" class="st0" width="0" height="0.1"/>
<rect x="527.9" y="75.7" class="st0" width="0.6" height="0.1"/>
<rect x="525" y="79.2" class="st0" width="0" height="0"/>
<rect x="527.9" y="75.7" class="st0" width="0.6" height="0.1"/>
<rect x="521.5" y="79.2" class="st0" width="0" height="0"/>
<rect x="521.5" y="68.8" class="st1" width="3.5" height="3.4"/>
<rect x="514.6" y="93" class="st0" width="3.5" height="0"/>
<rect x="514.6" y="79.2" class="st0" width="0" height="0"/>
<rect x="511.1" y="89.5" class="st0" width="0" height="0"/>
<rect x="511.1" y="93" class="st0" width="3.5" height="0"/>
<rect x="511.1" y="79.2" class="st0" width="0" height="0"/>
<rect x="511.1" y="75.7" class="st0" width="0" height="0"/>
<rect x="507.7" y="93" class="st0" width="0" height="3.4"/>
<rect x="507.7" y="89.5" class="st0" width="0" height="3.5"/>
<rect x="507.7" y="79.2" class="st1" width="0" height="3.5"/>
<rect x="507.7" y="75.7" class="st0" width="0" height="3.4"/>
<polygon class="st0" points="511.1,72.3 511.1,72.3 507.7,72.3 507.7,75.7 507.7,75.7 507.7,72.3 "/>
<rect x="504.2" y="96.4" class="st0" width="0" height="0"/>
<rect x="507.7" y="93" class="st0" width="0" height="3.4"/>
<rect x="504.2" y="89.5" class="st0" width="0" height="3.5"/>
<rect x="507.7" y="89.5" class="st0" width="0" height="3.5"/>
<polygon class="st1" points="511.1,68.8 511.1,72.3 507.7,72.3 507.7,86.1 504.2,86.1 504.2,82.6 504.3,82.6 504.3,75.7 504.2,75.7 
	504.2,68.8 504.3,68.8 504.3,68.8 "/>
<rect x="504.2" y="79.2" class="st1" width="0" height="3.5"/>
<rect x="504.2" y="75.7" class="st1" width="0" height="3.4"/>
<rect x="504.2" y="68.8" class="st1" width="0" height="0"/>
<rect x="500.8" y="96.4" class="st0" width="0" height="0"/>
<rect x="500.8" y="93" class="st0" width="0" height="3.4"/>
<rect x="500.8" y="93" class="st0" width="3.5" height="0"/>
<rect x="500.8" y="79.2" class="st0" width="0" height="0"/>
<rect x="497.3" y="96.4" class="st0" width="3.5" height="0"/>
<rect x="497.3" y="93" class="st0" width="0" height="3.4"/>
<rect x="500.8" y="93" class="st0" width="0" height="3.4"/>
<rect x="497.3" y="89.5" class="st0" width="0" height="3.5"/>
<rect x="500.8" y="93" class="st0" width="0" height="0"/>
<rect x="497.3" y="86.1" class="st0" width="0" height="3.4"/>
<rect x="497.3" y="84.3" class="st0" width="0" height="1.7"/>
<rect x="497.3" y="79.2" class="st0" width="0" height="3.5"/>
<rect x="493.9" y="96.4" class="st0" width="0" height="0"/>
<rect x="493.9" y="93" class="st0" width="0" height="3.4"/>
<polygon class="st1" points="497.3,93 497.3,93 493.9,93 493.9,89.5 493.9,89.5 493.9,93 "/>
<polygon class="st1" points="493.9,82.6 493.9,84.4 493.9,84.4 493.9,86.1 493.9,86.1 493.9,82.6 "/>
<polygon class="st0" points="497.3,79.2 497.3,79.2 493.9,79.2 493.9,82.6 493.9,82.6 493.9,79.2 "/>
<rect x="490.4" y="96.4" class="st0" width="3.5" height="0"/>
<rect x="490.4" y="93" class="st0" width="0" height="3.4"/>
<rect x="493.9" y="93" class="st0" width="0" height="3.4"/>
<rect x="493.9" y="93" class="st0" width="0" height="0"/>
<rect x="490.4" y="79.2" class="st0" width="0" height="0"/>
<rect x="490.4" y="75.7" class="st0" width="0" height="3.4"/>
<rect x="490.4" y="72.3" class="st0" width="0" height="3.5"/>
<rect x="490.4" y="68.8" class="st1" width="3.5" height="3.4"/>
<rect x="490.4" y="93" class="st0" width="0" height="3.4"/>
<rect x="487" y="93" class="st0" width="3.5" height="0"/>
<rect x="487" y="82.6" class="st0" width="0" height="3.5"/>
<polygon class="st1" points="490.4,79.2 490.4,79.2 487,79.2 487,82.6 487,82.6 487,79.2 "/>
<path class="st0" d="M490.4,64.8H487v3.4h3.5V64.8z"/>
<path class="st0" d="M490.4,48.4H487v3.4h3.5V48.4z"/>
<rect x="483.5" y="96.4" class="st0" width="0" height="0"/>
<rect x="483.5" y="93" class="st0" width="3.5" height="0"/>
<rect x="483.5" y="82.6" class="st1" width="0" height="3.5"/>
<rect x="483.5" y="79.2" class="st1" width="0" height="3.5"/>
<rect x="483.5" y="68.8" class="st1" width="3.5" height="3.4"/>
<rect x="480.1" y="96.4" class="st0" width="0" height="0"/>
<polygon class="st0" points="483.5,93 483.5,93 480.1,93 480.1,89.5 480.1,89.5 480.1,93 "/>
<rect x="480.1" y="79.2" class="st1" width="3.5" height="0"/>
<rect x="480.1" y="75.7" class="st0" width="0" height="3.4"/>
<rect x="476.6" y="96.4" class="st0" width="0" height="3.4"/>
<rect x="476.6" y="89.5" class="st0" width="0" height="3.5"/>
<rect x="476.6" y="79.2" class="st0" width="0" height="0"/>
<rect x="476.6" y="75.7" class="st0" width="0" height="3.4"/>
<rect x="473.1" y="93" class="st0" width="0" height="3.4"/>
<polygon class="st0" points="476.6,89.5 476.6,93 473.1,93 473.1,93 476.6,93 476.6,89.5 "/>
<rect x="473.1" y="79.2" class="st0" width="3.5" height="0"/>
<rect x="473.1" y="75.7" class="st1" width="3.5" height="3.4"/>
<rect x="473.1" y="68.8" class="st1" width="3.5" height="3.4"/>
<path class="st1" d="M476.6,61.2h-3.5v3.4h3.5V61.2z"/>
<rect x="469.7" y="93" class="st0" width="0" height="3.4"/>
<rect x="469.7" y="79.2" class="st0" width="0" height="0"/>
<rect x="466.2" y="75.7" class="st0" width="0" height="3.4"/>
<rect x="462.8" y="79.2" class="st0" width="0" height="0"/>
<rect x="462.8" y="75.7" class="st1" width="3.5" height="3.4"/>
<rect x="459.3" y="79.2" class="st0" width="0" height="3.5"/>
<rect x="459.3" y="75.7" class="st0" width="0" height="3.4"/>
<path class="st0" d="M531.9,75.7v-3.4h0v-3.4h-3.5v-3.4H525v6.9h-3.5v-3.4h-3.5v3.4h-3.5v-6.9h-3.5v6.9h-3.4v10.3h0v3.5h-3.5V68.8h0
	v-3.4h-3.5v3.4h0v3.4h-3.5v-3.4h-3.4v3.4h-3.4v6.9H487v6.9h-3.5v-6.9h-3.5v-3.5h3.5v-3.5h-3.5v-6.9h-3.5v6.9h-6.9v-3.4h0v-3.4h-3.5
	v3.4h-3.5v-3.4h-3.5v10.3h0v6.9h0v3.5h6.9V93h3.5v3.4h3.4V93h3.5v-3.4h3.5V93h10.4v0h0v3.4h3.4V93h0v-3.4h-3.5v-3.4h3.5v-6.9h3.5
	v3.5h0v1.7h0V93h0v3.4h3.4V93h3.5v-3.4h3.5v6.9h3.4V93h6.9v-3.4h6.9v-3.4h3.5v-6.9h3.5L531.9,75.7l-0.6,0v0H531.9z M466.3,79.2h-3.5
	v0h0v-3.5h3.5V79.2z M469.7,79.2L469.7,79.2L469.7,79.2L469.7,79.2L469.7,79.2z M476.6,79.2h-3.5v-3.5h3.5V79.2z M500.8,79.2
	L500.8,79.2L500.8,79.2L500.8,79.2L500.8,79.2z M511.2,89.5L511.2,89.5L511.2,89.5L511.2,89.5L511.2,89.5z M511.2,79.2L511.2,79.2
	L511.2,79.2L511.2,79.2L511.2,79.2z M511.2,75.7L511.2,75.7L511.2,75.7L511.2,75.7L511.2,75.7z M514.6,79.2L514.6,79.2L514.6,79.2
	L514.6,79.2L514.6,79.2z M521.5,79.2L521.5,79.2L521.5,79.2L521.5,79.2L521.5,79.2z M525,79.2L525,79.2L525,79.2L525,79.2L525,79.2z
	 M528.4,75.8h-0.6v-0.1L528.4,75.8L528.4,75.8z M528.4,72.4L528.4,72.4L528.4,72.4L528.4,72.4L528.4,72.4z"/>
<rect x="514.6" y="93" class="st2" width="3.5" height="0"/>
<polygon class="st2" points="514.6,93 514.6,93 511.2,93 511.2,96.4 511.1,96.4 511.1,93 "/>
<rect x="504.2" y="93" class="st2" width="0" height="0"/>
<rect x="504.2" y="89.5" class="st2" width="0" height="3.4"/>
<rect x="500.8" y="103.3" class="st2" width="0" height="3.5"/>
<polygon class="st2" points="504.2,93 504.2,93 500.8,93 500.8,96.4 500.8,96.4 500.8,93 "/>
<polygon class="st2" points="497.3,93 497.3,93 493.9,93 493.9,96.4 493.9,96.4 493.9,93 "/>
<rect x="490.4" y="103.3" class="st2" width="0" height="3.5"/>
<rect x="487" y="93" class="st2" width="3.5" height="0"/>
<rect x="483.5" y="99.9" class="st2" width="0" height="3.5"/>
<rect x="483.5" y="93" class="st2" width="3.5" height="0"/>
<rect x="480.1" y="93" class="st2" width="3.4" height="0"/>
<rect x="476.6" y="96.4" class="st2" width="0" height="3.4"/>
<rect x="476.6" y="93" class="st2" width="0" height="0"/>
<rect x="476.6" y="89.5" class="st2" width="0" height="3.4"/>
<polygon class="st2" points="476.6,93 476.6,93 473.2,93 473.2,96.4 473.1,96.4 473.1,93 "/>
<path class="st0" d="M449,72.4h-3.5v3.4h3.5V72.4z"/>
<rect x="366.1" y="86.2" class="st0" width="6.9" height="3.4"/>
<rect x="362.6" y="93" class="st0" width="3.5" height="0"/>
<rect x="362.6" y="82.7" class="st0" width="3.5" height="3.4"/>
<rect x="359.2" y="93" class="st0" width="3.5" height="0"/>
<path class="st0" d="M455.9,72.4h-3.5v3.4h3.5V72.4z"/>
<rect x="435.2" y="93" class="st0" width="0" height="0"/>
<polygon class="st0" points="366.1,89.6 366.1,93 359.2,93 359.2,93.1 355.7,93.1 355.7,89.6 359.2,89.6 359.2,86.2 362.6,86.2 
	362.6,89.6 "/>
<rect x="355.7" y="89.6" class="st0" width="0" height="3.5"/>
<rect x="359.2" y="93" class="st0" width="0" height="0"/>
<polygon class="st0" points="452.4,75.8 452.4,82.7 442.1,82.7 442.1,86.2 438.6,86.2 438.6,82.7 431.7,82.7 431.7,79.3 435.2,79.3 
	435.2,75.8 445.5,75.8 445.5,79.3 449,79.3 449,75.8 "/>
<path class="st1" d="M435.2,72.4h-3.5v3.4h3.5V72.4z"/>
<rect x="352.3" y="89.6" class="st0" width="0" height="3.5"/>
<rect x="352.3" y="86.2" class="st0" width="3.5" height="3.4"/>
<rect x="428.3" y="75.8" class="st1" width="3.5" height="6.9"/>
<polygon class="st0" points="352.3,89.6 352.3,93.1 348.8,93.1 348.8,93 352.3,93 352.3,89.6 "/>
<rect x="345.4" y="93.1" class="st0" width="0" height="3.4"/>
<rect x="348.8" y="93.1" class="st0" width="0" height="3.4"/>
<rect x="348.8" y="93" class="st0" width="0" height="0"/>
<polygon class="st0" points="352.3,89.6 352.3,93 348.8,93 348.8,96.5 345.4,96.5 345.4,93.1 345.4,93.1 345.4,86.2 348.8,86.2 
	348.8,89.6 "/>
<polygon class="st0" points="428.3,75.8 428.3,82.7 428.3,82.7 428.3,86.2 424.8,86.2 424.8,82.7 421.4,82.7 421.4,75.8 "/>
<rect x="345.4" y="93.1" class="st0" width="0" height="3.4"/>
<rect x="341.9" y="93" class="st1" width="3.5" height="0"/>
<rect x="417.9" y="79.3" class="st1" width="3.5" height="3.4"/>
<path class="st0" d="M421.4,72.4h-3.5v3.4h3.5V72.4z"/>
<rect x="338.5" y="93.1" class="st0" width="0" height="3.4"/>
<rect x="341.9" y="93.1" class="st0" width="0" height="3.4"/>
<rect x="341.9" y="93" class="st0" width="0" height="0"/>
<polygon class="st1" points="345.4,84.4 345.4,93 341.9,93 341.9,89.6 338.5,89.6 338.5,86.2 341.9,86.2 341.9,84.4 "/>
<rect x="338.5" y="93.1" class="st0" width="0" height="3.4"/>
<rect x="335" y="93" class="st0" width="3.5" height="0"/>
<polygon class="st0" points="417.9,75.8 417.9,84.4 414.4,84.4 414.4,82.7 411,82.7 411,79.3 414.4,79.3 414.4,75.8 "/>
<path class="st1" d="M414.4,72.4H411v3.4h3.5V72.4z"/>
<rect x="331.6" y="93" class="st0" width="3.5" height="0"/>
<rect x="407.5" y="82.7" class="st1" width="3.5" height="3.4"/>
<rect x="328.1" y="93" class="st0" width="3.5" height="0"/>
<rect x="404.1" y="75.8" class="st1" width="6.9" height="3.5"/>
<rect x="324.6" y="96.5" class="st0" width="0" height="3.5"/>
<rect x="324.6" y="89.6" class="st0" width="0" height="3.5"/>
<rect x="328.1" y="89.6" class="st0" width="0" height="3.5"/>
<polygon class="st0" points="407.5,79.3 407.5,82.7 397.2,82.7 397.2,79.3 400.6,79.3 400.6,75.8 404.1,75.8 404.1,79.3 "/>
<rect x="321.2" y="93" class="st0" width="3.5" height="0"/>
<path class="st0" d="M400.6,72.4h-3.5v3.4h3.5V72.4z"/>
<rect x="321.2" y="93.1" class="st0" width="0" height="3.4"/>
<rect x="321.2" y="93" class="st0" width="0" height="0"/>
<rect x="393.7" y="82.7" class="st0" width="3.5" height="3.4"/>
<polygon class="st0" points="341.9,89.6 341.9,93 341.9,93 341.9,96.5 338.5,96.5 338.5,93.1 338.5,93.1 338.5,93 328.1,93 
	328.1,89.6 324.6,89.6 324.6,93 321.2,93 321.2,96.5 317.7,96.5 317.7,93.1 314.3,93.1 314.3,86.2 317.7,86.2 317.7,89.6 
	321.2,89.6 321.2,86.2 331.6,86.2 331.6,89.6 335,89.6 335,86.2 338.5,86.2 338.5,89.6 "/>
<polygon class="st0" points="397.2,75.8 397.2,79.3 393.7,79.3 393.7,82.7 390.3,82.7 390.3,75.8 "/>
<rect x="386.8" y="82.7" class="st0" width="3.4" height="3.4"/>
<path class="st0" d="M390.3,72.4h-3.5v3.4h3.5V72.4z"/>
<rect x="383.4" y="75.8" class="st0" width="3.5" height="6.9"/>
<rect x="362.6" y="93" class="st2" width="3.5" height="0"/>
<polygon class="st2" points="362.6,93 362.6,93.1 359.2,93.1 359.2,96.5 359.2,96.5 359.2,93 "/>
<rect x="352.3" y="93" class="st2" width="0" height="0"/>
<rect x="352.3" y="89.6" class="st2" width="0" height="3.4"/>
<rect x="348.8" y="103.4" class="st2" width="0" height="3.4"/>
<polygon class="st2" points="352.3,93 352.3,93.1 348.8,93.1 348.8,96.5 348.8,96.5 348.8,93 "/>
<polygon class="st2" points="345.4,93 345.4,93.1 341.9,93.1 341.9,96.5 341.9,96.5 341.9,93 "/>
<rect x="338.5" y="103.4" class="st2" width="0" height="3.4"/>
<rect x="335" y="93" class="st2" width="3.5" height="0"/>
<rect x="331.6" y="93" class="st2" width="3.4" height="0"/>
<rect x="328.1" y="93" class="st2" width="3.5" height="0"/>
<rect x="324.6" y="96.5" class="st2" width="0" height="3.5"/>
<rect x="324.6" y="93" class="st2" width="0" height="0"/>
<rect x="324.6" y="89.6" class="st2" width="0" height="3.4"/>
<polygon class="st2" points="324.6,93 324.6,93.1 321.2,93.1 321.2,96.5 321.2,96.5 321.2,93 "/>
<rect x="355.7" y="93.1" class="st0" width="0" height="3.4"/>
<rect x="355.7" y="89.6" class="st0" width="0" height="3.5"/>
<rect x="345.4" y="93.1" class="st0" width="0" height="3.4"/>
<path class="st1" d="M345.4,52.3h-3.5v3.4h3.5V52.3z"/>
<path class="st1" d="M333.9,63.3h-3.5v3.4h3.5V63.3z"/>
<path class="st1" d="M339.6,45.6h-3.5v3.4h3.5V45.6z"/>
<path class="st1" d="M355.7,81h-3.5v3.4h3.5V81z"/>
<path class="st1" d="M355.7,59h-3.5v3.4h3.5V59z"/>
<path class="st1" d="M358.5,30.6h-3.5V34h3.5V30.6z"/>
<path class="st1" d="M368.6,51h-3.5v3.4h3.5V51z"/>
<rect x="341.9" y="93.1" class="st0" width="0" height="3.4"/>
<path class="st0" d="M341.9,78h-3.5v3.4h3.5V78z"/>
<path class="st0" d="M352.3,62.5h-3.5v3.4h3.5V62.5z"/>
<path class="st0" d="M341.3,16.8h-3.5v3.4h3.5V16.8z"/>
<rect x="338.5" y="93.1" class="st0" width="0" height="3.4"/>
<rect x="335" y="93" class="st0" width="3.5" height="0"/>
<path class="st0" d="M330.4,59.8H327v3.4h3.5V59.8z"/>
<path class="st0" d="M367.8,69.9h-3.5v3.4h3.5V69.9z"/>
<path class="st0" d="M368.6,59h-3.5v3.4h3.5V59z"/>
<path class="st0" d="M335,70.9h-3.5v3.4h3.5V70.9z"/>
<path class="st0" d="M326.4,39.6h-3.5v3.4h3.5V39.6z"/>
<rect x="328.1" y="93" class="st0" width="3.5" height="0"/>
<path class="st0" d="M320.2,74.1h-3.5v3.4h3.5V74.1z"/>
<path class="st0" d="M320.2,53.4h-3.5v3.4h3.5V53.4z"/>
<rect x="328.1" y="89.6" class="st0" width="0" height="3.5"/>
<path class="st0" d="M324.7,86.2L324.7,86.2z"/>
<path class="st0" d="M321.2,93.1L321.2,93.1z"/>
<polygon class="st2" points="366.1,93 366.1,96.5 366.1,96.5 366.1,93.1 362.6,93.1 362.6,93 "/>
<rect x="362.6" y="96.5" class="st2" width="0" height="3.5"/>
<rect x="359.2" y="93" class="st2" width="3.5" height="0"/>
<rect x="352.3" y="93" class="st2" width="0" height="0"/>
<rect x="352.3" y="89.6" class="st2" width="0" height="3.4"/>
<rect x="348.8" y="93" class="st2" width="3.5" height="0"/>
<polygon class="st2" points="345.4,93 345.4,96.5 345.4,96.5 345.4,93.1 341.9,93.1 341.9,93 "/>
<rect x="341.9" y="103.4" class="st2" width="0" height="3.4"/>
<polygon class="st2" points="338.5,93 338.5,96.5 338.5,96.5 338.5,93.1 335,93.1 335,93 "/>
<rect x="331.6" y="93" class="st2" width="3.5" height="0"/>
<rect x="328.1" y="93" class="st2" width="3.5" height="0"/>
<rect x="324.6" y="96.5" class="st2" width="0" height="3.5"/>
<rect x="324.6" y="93" class="st2" width="0" height="0"/>
<rect x="328.1" y="93" class="st2" width="0" height="0"/>
<rect x="324.6" y="89.6" class="st2" width="0" height="3.4"/>
<rect x="328.1" y="89.6" class="st2" width="0" height="3.4"/>
<polygon class="st2" points="366.1,93.1 366.1,96.5 362.6,96.5 362.6,99.9 355.7,99.9 355.7,106.8 348.8,106.8 348.8,103.4 
	341.9,103.4 341.9,106.8 338.5,106.8 338.5,103.4 331.6,103.4 331.6,99.9 324.7,99.9 324.7,96.5 321.2,96.5 321.2,93.1 324.7,93.1 
	324.7,89.6 328.1,89.6 328.1,93.1 338.5,93.1 338.5,96.5 341.9,96.5 341.9,93.1 345.4,93.1 345.4,96.5 348.8,96.5 348.8,93.1 
	352.3,93.1 352.3,89.6 355.7,89.6 355.7,96.5 359.2,96.5 359.2,93.1 "/>
<rect x="321.2" y="93" class="st2" width="3.5" height="0"/>
<rect x="442.1" y="86.2" class="st0" width="6.9" height="3.4"/>
<rect x="438.6" y="93" class="st0" width="3.4" height="0"/>
<rect x="435.2" y="93" class="st0" width="3.5" height="0"/>
<polygon class="st0" points="442.1,89.6 442.1,93 435.2,93 435.2,93.1 431.7,93.1 431.7,89.6 435.2,89.6 435.2,86.2 438.6,86.2 
	438.6,89.6 "/>
<rect x="431.7" y="93.1" class="st0" width="0" height="3.4"/>
<rect x="428.3" y="89.6" class="st0" width="0" height="3.5"/>
<rect x="431.7" y="89.6" class="st0" width="0" height="3.5"/>
<rect x="428.3" y="86.2" class="st0" width="3.5" height="3.4"/>
<rect x="424.8" y="93.1" class="st0" width="0" height="3.4"/>
<rect x="424.8" y="93" class="st0" width="3.4" height="0"/>
<polygon class="st0" points="428.3,89.6 428.3,93 424.8,93 424.8,96.5 421.4,96.5 421.4,93.1 421.3,93.1 421.3,89.6 "/>
<rect x="421.3" y="93.1" class="st0" width="0" height="3.4"/>
<rect x="424.8" y="93.1" class="st0" width="0" height="3.4"/>
<rect x="424.8" y="93" class="st0" width="0" height="0"/>
<rect x="417.9" y="93.1" class="st0" width="0" height="3.4"/>
<rect x="417.9" y="93" class="st1" width="3.5" height="0"/>
<rect x="414.4" y="93.1" class="st0" width="0" height="3.4"/>
<rect x="417.9" y="93.1" class="st0" width="0" height="3.4"/>
<rect x="417.9" y="93" class="st0" width="0" height="0"/>
<polygon class="st1" points="421.3,84.4 421.3,93 417.9,93 417.9,89.6 414.4,89.6 414.4,86.2 417.9,86.2 417.9,84.4 "/>
<rect x="411" y="93" class="st0" width="3.5" height="0"/>
<rect x="411" y="86.2" class="st0" width="0" height="0"/>
<rect x="407.5" y="93" class="st0" width="3.5" height="0"/>
<polygon class="st0" points="407.5,93 407.5,93.1 404.1,93.1 404.1,89.6 404.1,89.6 404.1,93 "/>
<rect x="404.1" y="89.6" class="st0" width="0" height="3.5"/>
<rect x="397.2" y="93.1" class="st0" width="0" height="3.4"/>
<polygon class="st0" points="400.6,89.6 400.6,93.1 397.2,93.1 397.2,93 400.6,93 400.6,89.6 "/>
<rect x="397.2" y="86.2" class="st0" width="0" height="0"/>
<rect x="397.2" y="93.1" class="st0" width="0" height="3.4"/>
<rect x="397.2" y="93" class="st0" width="0" height="0"/>
<polygon class="st0" points="417.9,89.6 417.9,93 417.9,93 417.9,96.5 414.4,96.5 414.4,93.1 414.4,93.1 414.4,93 404.1,93 
	404.1,89.6 400.6,89.6 400.6,93 397.2,93 397.2,96.5 393.7,96.5 393.7,93.1 390.3,93.1 390.3,86.2 393.7,86.2 393.7,89.6 
	397.2,89.6 397.2,86.2 397.2,86.2 397.2,86.2 407.5,86.2 407.5,89.6 411,89.6 411,86.2 411,86.2 411,86.2 414.4,86.2 414.4,89.6 "/>
<rect x="438.6" y="93" class="st2" width="3.5" height="0"/>
<rect x="435.2" y="93" class="st2" width="3.5" height="0"/>
<rect x="428.3" y="93" class="st2" width="0" height="0"/>
<rect x="428.3" y="89.6" class="st2" width="0" height="3.4"/>
<rect x="424.8" y="103.4" class="st2" width="0" height="3.4"/>
<polygon class="st2" points="428.3,93 428.3,93.1 424.8,93.1 424.8,96.5 424.8,96.5 424.8,93 "/>
<polygon class="st2" points="421.3,93 421.3,93.1 417.9,93.1 417.9,96.5 417.9,96.5 417.9,93 "/>
<rect x="411" y="93" class="st2" width="3.5" height="0"/>
<rect x="407.5" y="99.9" class="st2" width="0" height="3.5"/>
<rect x="407.5" y="93" class="st2" width="3.5" height="0"/>
<rect x="404.1" y="93" class="st2" width="3.5" height="0"/>
<rect x="400.6" y="96.5" class="st2" width="0" height="3.5"/>
<rect x="400.6" y="93" class="st2" width="0" height="0"/>
<rect x="400.6" y="89.6" class="st2" width="0" height="3.4"/>
<polygon class="st2" points="400.6,93 400.6,93.1 397.2,93.1 397.2,96.5 397.2,96.5 397.2,93 "/>
<rect x="431.7" y="93.1" class="st0" width="0" height="3.4"/>
<rect x="431.7" y="89.6" class="st0" width="0" height="3.5"/>
<rect x="421.3" y="93.1" class="st0" width="0" height="3.4"/>
<path class="st1" d="M421.4,60.3h-3.5v3.4h3.5V60.3z"/>
<path class="st1" d="M409.8,61.3h-3.5v3.4h3.5V61.3z"/>
<path class="st1" d="M415.6,43.6h-3.5v3.4h3.5V43.6z"/>
<path class="st1" d="M431.7,62h-3.5v3.4h3.5V62z"/>
<path class="st1" d="M434.5,27.6h-3.5V31h3.5V27.6z"/>
<path class="st1" d="M444.6,51h-3.5v3.4h3.5V51z"/>
<rect x="417.9" y="93.1" class="st0" width="0" height="3.4"/>
<path class="st0" d="M428.3,65.5h-3.5v3.4h3.5V65.5z"/>
<path class="st0" d="M417.3,19.8h-3.5v3.4h3.5V19.8z"/>
<rect x="414.4" y="93.1" class="st0" width="0" height="3.4"/>
<rect x="411" y="93" class="st0" width="3.4" height="0"/>
<path class="st0" d="M406.4,57.8h-3.5v3.4h3.5V57.8z"/>
<path class="st0" d="M443.8,69.9h-3.5v3.4h3.5V69.9z"/>
<path class="st0" d="M444.6,62h-3.5v3.4h3.5V62z"/>
<path class="st0" d="M411,68.9h-3.5v3.4h3.5V68.9z"/>
<path class="st0" d="M402.4,36.2h-3.5v3.4h3.5V36.2z"/>
<rect x="404.1" y="93" class="st0" width="3.5" height="0"/>
<path class="st0" d="M396.2,53.4h-3.5v3.4h3.5V53.4z"/>
<rect x="404.1" y="89.6" class="st0" width="0" height="3.5"/>
<path class="st0" d="M400.6,86.2L400.6,86.2z"/>
<path class="st0" d="M397.2,93.1L397.2,93.1z"/>
<rect x="438.6" y="93" class="st2" width="3.4" height="0"/>
<rect x="438.6" y="96.5" class="st2" width="0" height="3.5"/>
<rect x="435.2" y="93" class="st2" width="3.5" height="0"/>
<rect x="431.7" y="103.4" class="st2" width="0" height="3.4"/>
<rect x="431.7" y="99.9" class="st2" width="0" height="3.5"/>
<rect x="428.3" y="93" class="st2" width="0" height="0"/>
<rect x="431.7" y="93" class="st2" width="0" height="3.5"/>
<rect x="428.3" y="89.6" class="st2" width="0" height="3.4"/>
<rect x="431.7" y="89.6" class="st2" width="0" height="3.4"/>
<polygon class="st2" points="428.3,93 428.3,93.1 424.8,93.1 424.8,96.5 424.8,96.5 424.8,93 "/>
<polygon class="st2" points="421.3,93 421.3,93.1 417.9,93.1 417.9,96.5 417.9,96.5 417.9,93 "/>
<rect x="417.9" y="103.4" class="st2" width="0" height="3.4"/>
<rect x="411" y="93" class="st2" width="3.5" height="0"/>
<rect x="407.5" y="93" class="st2" width="3.5" height="0"/>
<rect x="404.1" y="93" class="st2" width="3.5" height="0"/>
<rect x="404.1" y="93" class="st2" width="0" height="0"/>
<rect x="404.1" y="89.6" class="st2" width="0" height="3.4"/>
<polygon class="st2" points="442.1,93.1 442.1,96.5 438.6,96.5 438.6,99.9 431.7,99.9 431.7,106.8 424.8,106.8 424.8,103.4 
	417.9,103.4 417.9,106.8 414.4,106.8 414.4,103.4 407.5,103.4 407.5,99.9 400.6,99.9 400.6,96.5 397.2,96.5 397.2,93.1 400.6,93.1 
	400.6,89.6 404.1,89.6 404.1,93.1 414.4,93.1 414.4,96.5 417.9,96.5 417.9,93.1 421.3,93.1 421.3,96.5 424.8,96.5 424.8,93.1 
	428.3,93.1 428.3,89.6 431.7,89.6 431.7,96.5 435.2,96.5 435.2,93.1 "/>
<polygon class="st2" points="400.6,93 400.6,93.1 397.2,93.1 397.2,96.5 397.2,96.5 397.2,93 "/>
<rect x="528.4" y="79.2" class="st0" width="0" height="3.4"/>
<rect x="527.9" y="75.7" class="st0" width="0.6" height="0.1"/>
<rect x="528.4" y="79.2" class="st0" width="0" height="0"/>
<rect x="521.5" y="79.2" class="st0" width="0" height="0"/>
<rect x="514.6" y="79.2" class="st0" width="0" height="0"/>
<rect x="511.1" y="93" class="st0" width="0" height="0"/>
<rect x="511.1" y="75.7" class="st1" width="0" height="0"/>
<rect x="507.7" y="79.2" class="st1" width="0" height="3.4"/>
<rect x="507.7" y="75.7" class="st1" width="0" height="3.5"/>
<rect x="504.2" y="79.2" class="st0" width="0" height="3.4"/>
<rect x="504.2" y="75.7" class="st0" width="0" height="3.5"/>
<rect x="500.8" y="79.2" class="st0" width="0" height="0"/>
<rect x="497.3" y="79.2" class="st1" width="0" height="3.4"/>
<rect x="493.9" y="79.2" class="st0" width="0" height="3.4"/>
<rect x="493.9" y="79.2" class="st0" width="0" height="0"/>
<rect x="490.4" y="72.3" class="st1" width="0" height="3.5"/>
<rect x="487" y="82.6" class="st1" width="0" height="3.5"/>
<rect x="487" y="79.2" class="st1" width="0" height="0"/>
<rect x="483.5" y="79.2" class="st0" width="0" height="3.4"/>
<polygon class="st1" points="490.4,72.3 490.4,79.2 487,79.2 487,86.1 483.5,86.1 483.5,79.2 480.1,79.2 480.1,75.7 483.5,75.7 
	483.5,72.3 "/>
<rect x="480.1" y="79.2" class="st1" width="3.5" height="0"/>
<rect x="480.1" y="75.7" class="st0" width="0" height="3.5"/>
<rect x="473.2" y="75.7" class="st0" width="3.5" height="0"/>
<rect x="473.1" y="75.7" class="st0" width="0" height="3.5"/>
<rect x="469.7" y="79.2" class="st0" width="0" height="0"/>
<rect x="462.8" y="75.7" class="st0" width="0" height="3.5"/>
<rect x="525" y="86.1" class="st0" width="0" height="3.4"/>
<polygon class="st0" points="518.1,89.5 518.1,93 514.6,93 514.6,93 518.1,93 518.1,89.5 "/>
<rect x="511.2" y="93" class="st0" width="3.5" height="0"/>
<rect x="511.1" y="89.5" class="st0" width="0" height="0"/>
<rect x="511.1" y="93" class="st0" width="0" height="0"/>
<rect x="504.2" y="96.4" class="st0" width="0" height="0"/>
<rect x="507.7" y="96.4" class="st0" width="0" height="0"/>
<rect x="507.7" y="93" class="st0" width="0" height="3.4"/>
<rect x="504.2" y="89.5" class="st0" width="0" height="3.5"/>
<rect x="507.7" y="89.5" class="st0" width="0" height="3.5"/>
<rect x="500.8" y="96.4" class="st0" width="0" height="0"/>
<rect x="504.2" y="96.4" class="st0" width="0" height="0"/>
<rect x="500.8" y="93" class="st0" width="0" height="3.4"/>
<polygon class="st0" points="504.2,89.5 504.2,93 500.8,93 500.8,93 504.2,93 504.2,89.5 "/>
<rect x="497.3" y="96.4" class="st0" width="3.5" height="0"/>
<rect x="497.3" y="93" class="st0" width="0" height="3.4"/>
<rect x="500.8" y="93" class="st0" width="0" height="3.4"/>
<rect x="500.8" y="93" class="st0" width="0" height="0"/>
<rect x="493.9" y="96.4" class="st0" width="0" height="0"/>
<rect x="497.3" y="96.4" class="st0" width="0" height="0"/>
<rect x="493.9" y="93" class="st0" width="0" height="3.4"/>
<rect x="497.3" y="93" class="st0" width="0" height="3.4"/>
<polygon class="st1" points="497.3,89.5 497.3,93 493.9,93 493.9,93 497.3,93 497.3,89.5 "/>
<rect x="497.3" y="86.1" class="st1" width="0" height="3.4"/>
<rect x="490.4" y="96.4" class="st0" width="3.5" height="0"/>
<rect x="490.4" y="93" class="st0" width="0" height="3.4"/>
<rect x="493.9" y="93" class="st0" width="0" height="3.4"/>
<polygon class="st0" points="493.9,89.5 493.9,93 493.9,93 493.9,93 493.9,93 493.9,89.5 "/>
<polygon class="st1" points="497.3,79.2 497.3,93 493.9,93 493.9,89.5 490.4,89.5 490.4,86.1 493.9,86.1 493.9,84.4 493.9,84.4 
	493.9,79.2 "/>
<rect x="490.4" y="93" class="st0" width="0" height="3.4"/>
<rect x="487" y="93" class="st0" width="3.5" height="0"/>
<rect x="483.5" y="93" class="st0" width="3.5" height="0"/>
<rect x="480.1" y="96.4" class="st0" width="0" height="0"/>
<rect x="483.5" y="96.4" class="st0" width="0" height="0"/>
<polygon class="st0" points="483.5,93 483.5,93 480.1,93 480.1,89.5 480.1,89.5 480.1,93 "/>
<rect x="480.1" y="96.4" class="st0" width="0" height="0"/>
<rect x="480.1" y="89.5" class="st0" width="0" height="3.5"/>
<rect x="473.2" y="93" class="st0" width="0" height="3.4"/>
<polygon class="st0" points="476.6,89.5 476.6,93 473.2,93 473.2,93 476.6,93 476.6,89.5 "/>
<rect x="473.1" y="93" class="st0" width="0" height="3.4"/>
<rect x="473.1" y="93" class="st0" width="0" height="0"/>
<rect x="514.6" y="93" class="st2" width="3.5" height="0"/>
<rect x="514.6" y="96.4" class="st2" width="0" height="3.4"/>
<polygon class="st2" points="514.6,93 514.6,93 511.2,93 511.2,96.4 511.1,96.4 511.1,93 "/>
<rect x="507.7" y="103.3" class="st2" width="0" height="3.5"/>
<rect x="507.7" y="99.9" class="st2" width="0" height="3.5"/>
<rect x="504.2" y="93" class="st2" width="0" height="0"/>
<rect x="507.7" y="93" class="st2" width="0" height="3.5"/>
<rect x="504.2" y="89.5" class="st2" width="0" height="3.4"/>
<rect x="507.7" y="89.5" class="st2" width="0" height="3.4"/>
<rect x="500.8" y="103.3" class="st2" width="0" height="3.5"/>
<polygon class="st2" points="504.2,93 504.2,93 500.8,93 500.8,96.4 500.8,96.4 500.8,93 "/>
<polygon class="st2" points="497.3,93 497.3,93 493.9,93 493.9,96.4 493.9,96.4 493.9,93 "/>
<rect x="493.9" y="103.3" class="st2" width="0" height="3.5"/>
<polygon class="st2" points="490.4,93 490.4,96.4 490.4,96.4 490.4,93 487,93 487,93 "/>
<rect x="483.5" y="99.9" class="st2" width="0" height="3.5"/>
<rect x="483.5" y="93" class="st2" width="3.5" height="0"/>
<rect x="480.1" y="93" class="st2" width="3.5" height="0"/>
<rect x="476.6" y="96.4" class="st2" width="0" height="3.4"/>
<rect x="476.6" y="93" class="st2" width="0" height="0"/>
<rect x="476.6" y="89.5" class="st2" width="0" height="3.4"/>
<polygon class="st2" points="476.6,93 476.6,93 473.2,93 473.2,96.4 473.1,96.4 473.1,93 "/>
<rect x="507.7" y="96.4" class="st0" width="0" height="0"/>
<rect x="507.7" y="93" class="st0" width="0" height="3.4"/>
<rect x="507.7" y="89.5" class="st0" width="0" height="3.5"/>
<rect x="504.2" y="96.4" class="st0" width="0" height="0"/>
<rect x="497.3" y="96.4" class="st0" width="3.5" height="0"/>
<rect x="497.3" y="96.4" class="st0" width="0" height="0"/>
<rect x="497.3" y="93" class="st0" width="0" height="3.4"/>
<path class="st1" d="M497.3,60.2h-3.5v3.4h3.5V60.2z"/>
<path class="st1" d="M485.8,61.2h-3.5v3.4h3.5V61.2z"/>
<path class="st1" d="M491.6,43.5h-3.5V47h3.5V43.5z"/>
<rect x="493.9" y="84.3" class="st1" width="0" height="0"/>
<rect x="497.3" y="84.3" class="st1" width="0" height="3.4"/>
<rect x="504.2" y="61.9" class="st1" width="3.5" height="3.5"/>
<path class="st1" d="M511.1,54.5h-3.5v3.4h3.5V54.5z"/>
<path class="st1" d="M510.5,35.5h-3.5v3.4h3.5V35.5z"/>
<path class="st1" d="M520.6,46.9h-3.5v3.4h3.5V46.9z"/>
<rect x="490.4" y="96.4" class="st0" width="3.5" height="0"/>
<rect x="493.9" y="93" class="st0" width="0" height="3.4"/>
<rect x="493.9" y="80.9" class="st0" width="0" height="3.4"/>
<rect x="504.2" y="68.8" class="st0" width="0" height="0"/>
<path class="st0" d="M493.3,9.7h-3.5v3.4h3.5V9.7z"/>
<rect x="490.4" y="96.4" class="st0" width="0" height="0"/>
<rect x="490.4" y="93" class="st0" width="0" height="3.4"/>
<rect x="487" y="93" class="st0" width="3.4" height="0"/>
<path class="st0" d="M482.4,52.7h-3.5v3.4h3.5V52.7z"/>
<path class="st0" d="M520.6,61.9h-3.5v3.4h3.5V61.9z"/>
<rect x="483.5" y="68.8" class="st0" width="3.5" height="3.4"/>
<path class="st0" d="M478.3,36.1h-3.5v3.4h3.5V36.1z"/>
<rect x="483.5" y="96.4" class="st0" width="0" height="0"/>
<rect x="480.1" y="93" class="st0" width="3.5" height="0"/>
<path class="st0" d="M472.1,48.3h-3.5v3.4h3.5V48.3z"/>
<rect x="480.1" y="96.4" class="st0" width="0" height="0"/>
<rect x="480.1" y="89.5" class="st0" width="0" height="3.5"/>
<path class="st0" d="M476.6,86.1L476.6,86.1z"/>
<path class="st0" d="M473.2,93L473.2,93z"/>
<polygon class="st2" points="518.1,93 518.1,96.4 518.1,96.4 518.1,93 514.6,93 514.6,93 "/>
<rect x="514.6" y="96.4" class="st2" width="0" height="3.4"/>
<rect x="511.2" y="93" class="st2" width="3.5" height="0"/>
<rect x="507.7" y="103.3" class="st2" width="0" height="3.5"/>
<rect x="507.7" y="99.9" class="st2" width="0" height="3.5"/>
<rect x="504.2" y="93" class="st2" width="0" height="0"/>
<rect x="507.7" y="93" class="st2" width="0" height="3.5"/>
<rect x="504.2" y="89.5" class="st2" width="0" height="3.4"/>
<rect x="507.7" y="89.5" class="st2" width="0" height="3.4"/>
<polygon class="st2" points="504.2,93 504.2,93 500.8,93 500.8,96.4 500.8,96.4 500.8,93 "/>
<polygon class="st2" points="497.3,93 497.3,96.4 497.3,96.4 497.3,93 493.9,93 493.9,96.4 493.9,96.4 493.9,93 "/>
<rect x="493.9" y="103.3" class="st2" width="0" height="3.5"/>
<polygon class="st2" points="490.4,93 490.4,96.4 490.4,96.4 490.4,93 487,93 487,93 "/>
<rect x="483.5" y="93" class="st2" width="3.5" height="0"/>
<rect x="480.1" y="93" class="st2" width="3.5" height="0"/>
<rect x="480.1" y="93" class="st2" width="0" height="0"/>
<rect x="480.1" y="89.5" class="st2" width="0" height="3.4"/>
<rect x="511.2" y="93" class="st2" width="6.9" height="3.4"/>
<path class="st2" d="M507.7,96.4L507.7,96.4L507.7,96.4l0-6.9h-3.4V93h-3.4v3.4h-3.5V93h-3.4v3.4h-3.5v0h0V93h-10.4v-3.5h-3.4V93
	h-3.5v3.4h3.5v3.4h6.9v3.5h6.9v3.5h3.4v-3.5h6.9v3.5h6.9v-6.9h6.9v-3.4H507.7z M480.1,96.4L480.1,96.4L480.1,96.4L480.1,96.4
	L480.1,96.4z M483.5,96.4L483.5,96.4L483.5,96.4L483.5,96.4L483.5,96.4z M504.3,96.4L504.3,96.4L504.3,96.4L504.3,96.4L504.3,96.4z"
	/>
<polygon class="st2" points="476.6,93 476.6,93 473.2,93 473.2,96.4 473.2,96.4 473.2,93 "/>
<path class="st1" d="M111.6,60.3h-3.5v3.4h3.5V60.3z"/>
<path class="st1" d="M100.1,73.2h-3.5v3.4h3.5V73.2z"/>
<path class="st1" d="M105.8,52.7h-3.5v3.4h3.5V52.7z"/>
<path class="st1" d="M111.6,84.4h-3.5v3.4h3.5V84.4z"/>
<path class="st1" d="M122,62h-3.5v3.4h3.5V62z"/>
<path class="st1" d="M124.8,36.2h-3.5v3.4h3.5V36.2z"/>
<path class="st0" d="M108.2,81h-3.5v3.4h3.5V81z"/>
<path class="st0" d="M118.5,75h-3.5v3.4h3.5V75z"/>
<path class="st0" d="M107.6,41h-3.5v3.4h3.5V41z"/>
<rect x="101.3" y="93" class="st0" width="3.5" height="0"/>
<path class="st0" d="M96.6,57.8h-3.5v3.4h3.5V57.8z"/>
<path class="st0" d="M128.9,85.2h-3.5v3.4h3.5V85.2z"/>
<path class="st0" d="M129.1,72.8h-3.5v3.4h3.5V72.8z"/>
<path class="st0" d="M90.9,86.2L90.9,86.2z"/>
<rect x="108.2" y="93" class="st2" width="3.5" height="0"/>
<rect x="101.2" y="93" class="st2" width="3.4" height="0"/>
<rect x="100.1" y="93" class="st2" width="1.2" height="0"/>
<rect x="94.3" y="93" class="st2" width="2.3" height="0"/>
<rect x="117.4" y="93.1" class="st0" width="0" height="3.4"/>
<path class="st1" d="M105.9,77.2h-3.5v3.4h3.5V77.2z"/>
<rect x="127.7" y="90.9" class="st1" width="0" height="3.5"/>
<path class="st1" d="M117.4,84.4h-3.5v3.4h3.5V84.4z"/>
<path class="st1" d="M130.5,45.3H127v3.4h3.5V45.3z"/>
<path class="st1" d="M136.4,56.1h-3.5v3.4h3.5V56.1z"/>
<rect x="110.5" y="93.1" class="st0" width="3.5" height="3.4"/>
<rect x="113.9" y="93.1" class="st0" width="0" height="3.4"/>
<path class="st0" d="M113.9,81h-3.5v3.4h3.5V81z"/>
<rect x="107" y="96.5" class="st0" width="3.5" height="3.5"/>
<rect x="110.5" y="93.1" class="st0" width="0" height="3.4"/>
<rect x="107" y="89.6" class="st0" width="3.5" height="3.4"/>
<rect x="107" y="93" class="st0" width="3.5" height="0"/>
<path class="st0" d="M134.6,85.2h-3.5v3.4h3.5V85.2z"/>
<path class="st0" d="M136.4,74.6h-3.5V78h3.5V74.6z"/>
<path class="st0" d="M140.6,68.2h-3.5v3.4h3.5V68.2z"/>
<rect x="107" y="96.5" class="st0" width="0" height="3.5"/>
<path class="st0" d="M98.4,45.3h-3.5v3.4h3.5V45.3z"/>
<rect x="100.1" y="89.6" class="st0" width="4.6" height="3.4"/>
<rect x="100.1" y="93" class="st0" width="3.5" height="0"/>
<path class="st0" d="M96.6,77.5h-3.5V81h3.5V77.5z"/>
<path class="st0" d="M92.2,69.4h-3.5v3.4h3.5V69.4z"/>
<rect x="100.1" y="89.6" class="st0" width="0" height="3.5"/>
<path class="st0" d="M96.7,86.2L96.7,86.2z"/>
<path class="st0" d="M93.2,93.1L93.2,93.1z"/>
<rect x="124.3" y="93" class="st2" width="0" height="0"/>
<rect x="124.3" y="89.6" class="st2" width="0" height="3.4"/>
<polygon class="st2" points="124.3,93 124.3,93.1 120.8,93.1 120.8,96.5 120.8,96.5 120.8,93 "/>
<polygon class="st2" points="117.4,93 117.4,93.1 113.9,93.1 113.9,96.5 113.9,96.5 113.9,93 "/>
<polygon class="st2" points="138.1,93 138.1,96.5 134.6,96.5 134.6,99.9 127.7,99.9 127.7,106.8 120.8,106.8 120.8,103.4 
	113.9,103.4 113.9,106.8 110.5,106.8 110.5,103.4 103.6,103.4 103.6,99.9 96.6,99.9 96.6,96.5 93.2,96.5 93.2,93.1 96.6,93.1 
	96.6,89.6 100.1,89.6 100.1,93.1 110.5,93.1 110.5,96.5 107,96.5 107,99.9 110.5,99.9 110.5,96.5 113.9,96.5 113.9,93.1 117.4,93.1 
	117.4,96.5 120.8,96.5 120.8,93.1 124.3,93.1 124.3,89.6 127.7,89.6 127.7,96.5 131.2,96.5 131.2,93 "/>
<rect x="110.5" y="96.5" class="st2" width="0" height="3.5"/>
<rect x="107" y="93" class="st2" width="3.5" height="0"/>
<rect x="103.6" y="93" class="st2" width="3.4" height="0"/>
<rect x="100.1" y="93" class="st2" width="3.5" height="0"/>
<polygon class="st2" points="96.6,93 96.6,93.1 93.2,93.1 93.2,96.5 93.2,96.5 93.2,93 "/>
<rect x="203.7" y="93.1" class="st0" width="0" height="3.4"/>
<rect x="200.3" y="93" class="st0" width="0" height="0"/>
<rect x="203.7" y="89.6" class="st0" width="0" height="3.5"/>
<path class="st1" d="M193.4,67.7h-3.5v3.4h3.5V67.7z"/>
<path class="st1" d="M181.9,73.2h-3.5v3.4h3.5V73.2z"/>
<path class="st1" d="M187.6,62h-3.5v3.4h3.5V62z"/>
<rect x="203.7" y="90.9" class="st1" width="0" height="3.5"/>
<path class="st1" d="M193.4,84.4h-3.5v3.4h3.5V84.4z"/>
<path class="st1" d="M203.7,62h-3.5v3.4h3.5V62z"/>
<path class="st1" d="M206.5,45.3h-3.5v3.4h3.5V45.3z"/>
<path class="st1" d="M212.4,56.1h-3.5v3.4h3.5V56.1z"/>
<rect x="186.5" y="93.1" class="st0" width="3.5" height="3.4"/>
<path class="st0" d="M189.9,81h-3.5v3.4h3.5V81z"/>
<path class="st0" d="M200.3,81h-3.5v3.4h3.5V81z"/>
<path class="st0" d="M189.3,58.1h-3.5v3.4h3.5V58.1z"/>
<rect x="183" y="96.5" class="st0" width="3.5" height="3.5"/>
<rect x="186.5" y="93.1" class="st0" width="0" height="3.4"/>
<rect x="183" y="89.6" class="st0" width="3.5" height="3.5"/>
<path class="st0" d="M178.4,67.2H175v3.4h3.5V67.2z"/>
<path class="st0" d="M210.6,89.1h-3.5v3.4h3.5V89.1z"/>
<path class="st0" d="M212.4,83.4h-3.5v3.4h3.5V83.4z"/>
<path class="st0" d="M216.6,71.7h-3.5v3.4h3.5V71.7z"/>
<path class="st0" d="M183,82.7h-3.5v3.4h3.5V82.7z"/>
<path class="st0" d="M174.4,54.4h-3.5v3.4h3.5V54.4z"/>
<rect x="176.1" y="89.6" class="st0" width="3.5" height="3.5"/>
<path class="st0" d="M172.6,79.3h-3.5v3.4h3.5V79.3z"/>
<path class="st0" d="M168.2,71.1h-3.5v3.4h3.5V71.1z"/>
<path class="st0" d="M172.7,86.2L172.7,86.2z"/>
<path class="st0" d="M169.2,93.1L169.2,93.1z"/>
<rect x="200.3" y="93" class="st2" width="0" height="0"/>
<polygon class="st2" points="200.3,93 200.3,93.1 196.8,93.1 196.8,96.5 196.8,96.5 196.8,93 "/>
<polygon class="st2" points="193.4,93 193.4,93.1 189.9,93.1 189.9,96.5 189.9,96.5 189.9,93 "/>
<rect x="186.5" y="96.5" class="st2" width="0" height="3.5"/>
<rect x="183" y="93" class="st2" width="3.5" height="0"/>
<rect x="179.6" y="93" class="st2" width="3.5" height="0"/>
<rect x="176.1" y="93" class="st2" width="3.5" height="0"/>
<rect x="172.6" y="96.5" class="st2" width="0" height="3.5"/>
<rect x="172.6" y="93" class="st2" width="0" height="0"/>
<polygon class="st2" points="214.1,93 214.1,96.5 210.6,96.5 210.6,99.9 203.7,99.9 203.7,106.8 196.8,106.8 196.8,103.4 
	189.9,103.4 189.9,106.8 186.5,106.8 186.5,103.4 179.6,103.4 179.6,99.9 172.7,99.9 172.7,96.5 169.2,96.5 169.2,93.1 172.7,93.1 
	172.7,89.6 176.1,89.6 176.1,93.1 186.5,93.1 186.5,96.5 183,96.5 183,99.9 186.5,99.9 186.5,96.5 189.9,96.5 189.9,93.1 
	193.4,93.1 193.4,96.5 196.8,96.5 196.8,93.1 200.3,93.1 200.3,93 200.3,93 200.3,89.6 203.7,89.6 203.7,96.5 207.2,96.5 207.2,93 
	"/>
<rect x="172.6" y="89.6" class="st2" width="0" height="3.4"/>
<rect x="169.2" y="93" class="st2" width="3.5" height="0"/>
<rect x="279.7" y="93.1" class="st0" width="0" height="3.4"/>
<rect x="276.3" y="93" class="st0" width="0" height="0"/>
<rect x="279.7" y="89.6" class="st0" width="0" height="3.5"/>
<path class="st1" d="M269.4,75h-3.5v3.4h3.5V75z"/>
<path class="st1" d="M257.9,77.5h-3.5V81h3.5V77.5z"/>
<path class="st1" d="M263.6,70h-3.5v3.4h3.5V70z"/>
<rect x="279.7" y="90.9" class="st1" width="0" height="3.5"/>
<path class="st1" d="M269.4,84.4h-3.5v3.4h3.5V84.4z"/>
<path class="st1" d="M279.7,71.7h-3.5v3.4h3.5V71.7z"/>
<path class="st1" d="M282.5,62.4h-3.5v3.4h3.5V62.4z"/>
<path class="st1" d="M288.4,71.7h-3.5v3.4h3.5V71.7z"/>
<rect x="262.5" y="93.1" class="st0" width="3.5" height="3.4"/>
<path class="st0" d="M265.9,81h-3.5v3.4h3.5V81z"/>
<path class="st0" d="M276.3,81h-3.5v3.4h3.5V81z"/>
<path class="st0" d="M265.3,64.7h-3.5v3.4h3.5V64.7z"/>
<rect x="259" y="96.5" class="st0" width="3.5" height="3.5"/>
<rect x="259" y="89.6" class="st0" width="3.5" height="3.5"/>
<path class="st0" d="M254.4,72.8H251v3.4h3.5V72.8z"/>
<path class="st0" d="M286.6,89.1h-3.5v3.4h3.5V89.1z"/>
<path class="st0" d="M288.4,83.4h-3.5v3.4h3.5V83.4z"/>
<path class="st0" d="M292.6,78.4h-3.5v3.4h3.5V78.4z"/>
<rect x="259" y="96.5" class="st0" width="0" height="3.5"/>
<path class="st0" d="M259,82.7h-3.5v3.4h3.5V82.7z"/>
<path class="st0" d="M250.4,65.5h-3.5v3.4h3.5V65.5z"/>
<rect x="252.1" y="89.6" class="st0" width="3.5" height="3.5"/>
<path class="st0" d="M248.6,83.5h-3.5v3.4h3.5V83.5z"/>
<path class="st0" d="M244.2,76.7h-3.5v3.4h3.5V76.7z"/>
<rect x="252.1" y="89.6" class="st0" width="0" height="3.5"/>
<path class="st0" d="M248.7,86.2L248.7,86.2z"/>
<path class="st0" d="M245.2,93.1L245.2,93.1z"/>
<rect x="276.3" y="93" class="st2" width="0" height="0"/>
<polygon class="st2" points="276.3,93 276.3,93.1 272.8,93.1 272.8,96.5 272.8,96.5 272.8,93 "/>
<polygon class="st2" points="269.4,93 269.4,93.1 265.9,93.1 265.9,96.5 265.9,96.5 265.9,93 "/>
<rect x="259" y="93" class="st2" width="3.5" height="0"/>
<rect x="255.6" y="93" class="st2" width="3.4" height="0"/>
<rect x="252.1" y="93" class="st2" width="3.5" height="0"/>
<rect x="248.6" y="96.5" class="st2" width="0" height="3.5"/>
<rect x="248.6" y="93" class="st2" width="0" height="0"/>
<rect x="248.6" y="89.6" class="st2" width="0" height="3.4"/>
<polygon class="st2" points="290.1,93 290.1,96.5 286.6,96.5 286.6,99.9 279.7,99.9 279.7,106.8 272.8,106.8 272.8,103.4 
	265.9,103.4 265.9,106.8 262.5,106.8 262.5,103.4 255.6,103.4 255.6,99.9 248.7,99.9 248.7,96.5 245.2,96.5 245.2,93.1 248.7,93.1 
	248.7,89.6 252.1,89.6 252.1,93.1 262.5,93.1 262.5,96.5 259,96.5 259,99.9 262.5,99.9 262.5,96.5 265.9,96.5 265.9,93.1 
	269.4,93.1 269.4,96.5 272.8,96.5 272.8,93.1 276.3,93.1 276.3,93 276.3,93 276.3,89.6 279.7,89.6 279.7,96.5 283.2,96.5 283.2,93 
	"/>
<polygon class="st2" points="248.6,93 248.6,93.1 245.2,93.1 245.2,96.5 245.2,96.5 245.2,93 "/>
<rect x="41.4" y="93.1" class="st0" width="0" height="3.4"/>
<path class="st1" d="M25.3,43.6h-3.5v3.4h3.5V43.6z"/>
<polygon class="st1" points="41.4,81 41.4,84.4 41.4,84.4 41.4,87.9 38,87.9 38,84.4 38,84.4 38,81 "/>
<path class="st1" d="M31.1,84.4h-3.5v3.4h3.5V84.4z"/>
<path class="st1" d="M41.4,62H38v3.4h3.5V62z"/>
<path class="st1" d="M44.2,27.6h-3.5V31h3.5V27.6z"/>
<path class="st1" d="M50.1,51h-3.5v3.4h3.5V51z"/>
<path class="st0" d="M27.6,81h-3.5v3.4h3.5V81z"/>
<path class="st0" d="M38,65.5h-3.5v3.4H38V65.5z"/>
<rect x="24.1" y="89.6" class="st0" width="0" height="3.5"/>
<path class="st0" d="M48.3,85.2h-3.5v3.4h3.5V85.2z"/>
<path class="st0" d="M50.1,69.9h-3.5v3.4h3.5V69.9z"/>
<path class="st0" d="M27.6,68.9h-3.5v3.4h3.5V68.9z"/>
<rect x="13.8" y="89.6" class="st0" width="3.5" height="3.5"/>
<path class="st0" d="M10.3,86.2L10.3,86.2z"/>
<polygon class="st2" points="38,93 38,93.1 34.5,93.1 34.5,96.5 34.5,96.5 34.5,93 "/>
<rect x="31.1" y="96.5" class="st2" width="0" height="3.5"/>
<rect x="27.6" y="93" class="st2" width="3.5" height="0"/>
<rect x="24.1" y="93" class="st2" width="0" height="0"/>
<rect x="17.2" y="93" class="st2" width="3.5" height="0"/>
<rect x="13.8" y="93" class="st2" width="3.5" height="0"/>
<rect x="51.8" y="93.1" class="st0" width="0" height="3.4"/>
<rect x="51.8" y="89.6" class="st0" width="0" height="3.5"/>
<path class="st1" d="M20.7,61.3h-3.5v3.4h3.5V61.3z"/>
<path class="st1" d="M35.7,43.6h-3.5v3.4h3.5V43.6z"/>
<path class="st1" d="M51.8,81h-3.5v3.4h3.5V81z"/>
<path class="st1" d="M51.8,62h-3.5v3.4h3.5V62z"/>
<path class="st1" d="M54.6,27.6h-3.5V31h3.5V27.6z"/>
<path class="st1" d="M63.9,54.4h-3.5v3.4h3.5V54.4z"/>
<rect x="34.5" y="93.1" class="st0" width="3.5" height="3.4"/>
<path class="st0" d="M38,81h-3.5v3.4H38V81z"/>
<path class="st0" d="M37.4,19.8h-3.5v3.4h3.5V19.8z"/>
<rect x="31.1" y="96.5" class="st0" width="3.5" height="3.5"/>
<rect x="34.5" y="93.1" class="st0" width="0" height="3.4"/>
<rect x="31.1" y="89.6" class="st0" width="3.5" height="3.5"/>
<path class="st0" d="M17.3,57.8h-3.5v3.4h3.5V57.8z"/>
<path class="st0" d="M58.7,85.2h-3.5v3.4h3.5V85.2z"/>
<path class="st0" d="M63.9,73.2h-3.5v3.4h3.5V73.2z"/>
<path class="st0" d="M22.4,36.2H19v3.4h3.5V36.2z"/>
<rect x="24.1" y="89.6" class="st0" width="3.5" height="3.5"/>
<path class="st0" d="M13.3,77.5H9.8V81h3.5V77.5z"/>
<path class="st0" d="M20.7,86.2L20.7,86.2z"/>
<path class="st0" d="M17.2,93.1L17.2,93.1z"/>
<polygon class="st2" points="48.3,93 48.3,93.1 44.9,93.1 44.9,96.5 44.9,96.5 44.9,93 "/>
<polygon class="st2" points="62.1,93 62.1,96.5 58.7,96.5 58.7,99.9 51.8,99.9 51.8,106.8 44.9,106.8 44.9,103.4 38,103.4 38,106.8 
	34.5,106.8 34.5,103.4 27.6,103.4 27.6,99.9 20.7,99.9 20.7,96.5 17.2,96.5 17.2,93.1 20.7,93.1 20.7,89.6 24.1,89.6 24.1,93.1 
	34.5,93.1 34.5,96.5 31.1,96.5 31.1,99.9 34.5,99.9 34.5,96.5 38,96.5 38,93.1 41.4,93.1 41.4,96.5 44.9,96.5 44.9,93.1 48.3,93.1 
	48.3,89.6 51.8,89.6 51.8,96.5 55.2,96.5 55.2,93 "/>
<rect x="20.7" y="89.6" class="st2" width="0" height="3.5"/>
<polygon class="st2" points="41.4,93 41.4,93.1 38,93.1 38,96.5 38,96.5 38,93 "/>
<rect x="34.5" y="96.5" class="st2" width="0" height="3.5"/>
<rect x="31.1" y="93" class="st2" width="3.4" height="0"/>
<rect x="27.6" y="93" class="st2" width="3.5" height="0"/>
<rect x="24.1" y="93" class="st2" width="3.5" height="0"/>
<rect x="20.7" y="96.5" class="st2" width="0" height="3.5"/>
<rect x="20.7" y="93" class="st2" width="0" height="0"/>
<rect x="20.7" y="89.6" class="st2" width="0" height="3.4"/>
<rect x="17.2" y="93" class="st2" width="3.5" height="0"/>
</svg>
