<svg width="198" height="173" viewBox="0 0 198 173" fill="none" xmlns="http://www.w3.org/2000/svg">
<mask id="mask0" mask-type="alpha" maskUnits="userSpaceOnUse" x="0" y="0" width="198" height="173">
<path d="M83.1634 4.25811C56.9508 1.06225 43.8445 -0.53569 35.3376 3.02302C17.3024 10.5661 2.41042 31.9881 1.09254 53.0333C-0.350529 76.1161 15.5563 82.5008 15.8528 116.623C15.9516 127.85 14.2713 132.204 17.6253 138.847C25.4337 154.324 47.8113 157.038 60.7266 158.601C90.3195 162.188 95.288 151.951 117.995 157.987C136.432 162.886 137.302 170.736 152.827 171.566C165.485 172.243 185.18 168.112 193.562 153.047C200.158 141.192 196.976 127.571 192.969 110.447C190.781 101.076 188.132 94.8098 182.933 82.6683C171.87 56.8293 166.335 43.9132 155.772 33.279C143.252 20.677 129.797 15.332 122.12 12.2896C110.45 7.64936 101.199 6.45614 83.1634 4.25811Z" fill="black" stroke="black" stroke-miterlimit="10"/>
</mask>
<g mask="url(#mask0)">
<path d="M139.935 -105L298.085 84.079M-127 118.271L31.1503 307.35L-127 118.271ZM-34.9536 41.2815L123.197 230.36L-34.9536 41.2815ZM-80.9768 79.7765L77.1735 268.855L-80.9768 79.7765ZM11.0696 2.78645L169.22 191.865L11.0696 2.78645ZM98.5136 -70.3541L256.664 118.725L98.5136 -70.3541ZM-103.988 99.024L54.1619 288.103L-103.988 99.024ZM-11.942 22.034L146.208 211.113L-11.942 22.034ZM75.502 -51.1066L233.652 137.972L75.502 -51.1066ZM-57.9652 60.529L100.185 249.608L-57.9652 60.529ZM34.0812 -16.4611L192.232 172.618L34.0812 -16.4611ZM121.525 -89.6016L279.676 99.477L121.525 -89.6016ZM-117.795 110.572L40.355 299.651L-117.795 110.572ZM-25.749 33.5825L132.401 222.661L-25.749 33.5825ZM61.6951 -39.5581L219.845 149.521L61.6951 -39.5581ZM-71.7722 72.0775L86.3782 261.156L-71.7722 72.0775ZM20.2742 -4.91255L178.425 184.166L20.2742 -4.91255ZM107.718 -78.0531L265.869 111.026L107.718 -78.0531ZM-94.7838 91.325L63.3666 280.404L-94.7838 91.325ZM-2.73738 14.335L155.413 203.414L-2.73738 14.335ZM84.7067 -58.8056L242.857 130.273L84.7067 -58.8056ZM-48.7606 52.83L109.39 241.909L-48.7606 52.83ZM43.2858 -24.1601L201.436 164.919L43.2858 -24.1601ZM130.73 -97.3006L288.88 91.778L130.73 -97.3006ZM-122.398 114.422L35.7527 303.501L-122.398 114.422ZM-30.3513 37.432L127.799 226.511L-30.3513 37.432ZM57.0928 -35.7086L215.243 153.37L57.0928 -35.7086ZM-76.3745 75.927L81.7758 265.006L-76.3745 75.927ZM15.6719 -1.06305L173.822 188.016L15.6719 -1.06305ZM103.116 -74.2036L261.266 114.875L103.116 -74.2036ZM-99.3861 95.1745L58.7642 284.253L-99.3861 95.1745ZM-7.3397 18.1845L150.811 207.263L-7.3397 18.1845ZM80.1044 -54.9561L238.255 134.123L80.1044 -54.9561ZM-53.3629 56.6795L104.787 245.758L-53.3629 56.6795ZM38.6835 -20.3106L196.834 168.768L38.6835 -20.3106ZM126.128 -93.4511L284.278 95.6275L126.128 -93.4511ZM-113.193 106.723L44.9573 295.802L-113.193 106.723ZM-21.1467 29.733L137.004 218.812L-21.1467 29.733ZM66.2974 -43.4076L224.448 145.671L66.2974 -43.4076ZM-67.1699 68.228L90.9805 257.307L-67.1699 68.228ZM24.8765 -8.76205L183.027 180.317L24.8765 -8.76205ZM112.321 -81.9026L270.471 107.176L112.321 -81.9026ZM-90.1814 87.4755L67.9689 276.554L-90.1814 87.4755ZM1.86494 10.4855L160.015 199.564L1.86494 10.4855ZM89.309 -62.6551L247.459 126.424L89.309 -62.6551ZM-44.1583 48.9805L113.992 238.059L-44.1583 48.9805ZM47.8881 -28.0096L206.038 161.069L47.8881 -28.0096ZM135.332 -101.15L293.483 87.9285L135.332 -101.15ZM-108.591 102.873L49.5596 291.952L-108.591 102.873ZM-16.5443 25.8835L141.606 214.962L-16.5443 25.8835ZM70.8997 -47.2571L229.05 141.822L70.8997 -47.2571ZM-62.5675 64.3785L95.5828 253.457L-62.5675 64.3785ZM29.4789 -12.6116L187.629 176.467L29.4789 -12.6116ZM116.923 -85.7521L275.073 103.327L116.923 -85.7521ZM-85.5791 83.626L72.5712 272.705L-85.5791 83.626ZM6.46725 6.63595L164.618 195.715L6.46725 6.63595ZM93.9113 -66.5046L252.062 122.574L93.9113 -66.5046ZM-39.5559 45.131L118.594 234.21L-39.5559 45.131ZM52.4904 -31.8591L210.641 157.22L52.4904 -31.8591Z" stroke="white"/>
</g>
</svg>
