<?xml version="1.0" encoding="utf-8"?>
<!-- Generator: Adobe Illustrator 24.1.1, SVG Export Plug-In . SVG Version: 6.00 Build 0)  -->
<svg version="1.1" id="Слой_1" xmlns="http://www.w3.org/2000/svg" xmlns:xlink="http://www.w3.org/1999/xlink" x="0px" y="0px"
	 viewBox="0 0 58 133" style="enable-background:new 0 0 58 133;" xml:space="preserve">
<style type="text/css">
	.st0{fill:#E6A47B;}
	.st1{fill:#C1C1C1;}
	.st2{fill:#FFFFFF;}
	.st3{fill:#606060;}
</style>
<g>
	<polygon class="st0" points="55.4,20.2 55.4,23.1 50.1,23.1 50.1,20.2 44.8,20.2 44.8,17.3 52.7,17.3 52.7,20.2 	"/>
	<polygon class="st0" points="58,52 58,57.8 55.4,57.8 55.4,60.7 52.7,60.7 52.7,69.4 50.1,69.4 50.1,75.2 47.5,75.2 47.5,83.8 
		44.8,83.8 44.8,72.3 47.5,72.3 47.5,66.5 50.1,66.5 50.1,46.3 47.5,46.3 47.5,37.6 44.8,37.6 44.8,28.9 39.5,28.9 39.5,26 36.9,26 
		36.9,5.8 34.3,5.8 34.3,2.9 23.7,2.9 23.7,0 36.9,0 36.9,2.9 39.5,2.9 39.5,5.8 42.2,5.8 42.2,2.9 47.5,2.9 47.5,5.8 50.1,5.8 
		50.1,8.7 52.7,8.7 52.7,5.8 55.4,5.8 55.4,11.6 47.5,11.6 47.5,8.7 42.2,8.7 42.2,11.6 44.8,11.6 44.8,17.3 42.2,17.3 42.2,20.2 
		44.8,20.2 44.8,23.1 47.5,23.1 47.5,26 50.1,26 50.1,28.9 52.7,28.9 52.7,34.7 50.1,34.7 50.1,40.5 52.7,40.5 52.7,43.4 55.4,43.4 
		55.4,52 	"/>
	<rect x="36.9" y="83.8" class="st1" width="5.3" height="2.9"/>
	<polygon class="st0" points="47.5,92.5 47.5,98.3 44.8,98.3 44.8,95.4 36.9,95.4 36.9,92.5 34.3,92.5 34.3,81 39.5,81 39.5,83.8 
		36.9,83.8 36.9,89.6 39.5,89.6 39.5,92.5 	"/>
	<polygon class="st2" points="44.8,130.1 44.8,133 29,133 29,124.3 31.6,124.3 31.6,115.6 29,115.6 29,107 31.6,107 31.6,95.4 
		34.3,95.4 34.3,92.5 36.9,92.5 36.9,95.4 42.2,95.4 42.2,104.1 39.5,104.1 39.5,112.8 36.9,112.8 36.9,121.4 34.3,121.4 
		34.3,127.2 39.5,127.2 39.5,130.1 	"/>
	<polygon class="st1" points="44.8,43.4 44.8,60.7 42.2,60.7 42.2,69.4 39.5,69.4 39.5,75.2 36.9,75.2 36.9,81 34.3,81 34.3,95.4 
		31.6,95.4 31.6,107 29,107 29,115.6 31.6,115.6 31.6,124.3 29,124.3 29,133 26.4,133 26.4,104.1 29,104.1 29,89.6 31.6,89.6 
		31.6,75.2 34.3,75.2 34.3,72.3 36.9,72.3 36.9,66.5 39.5,66.5 39.5,57.8 42.2,57.8 42.2,46.3 31.6,46.3 31.6,49.1 26.4,49.1 
		26.4,54.9 21.1,54.9 21.1,52 23.7,52 23.7,46.3 29,46.3 29,43.4 39.5,43.4 39.5,40.5 36.9,40.5 36.9,37.6 34.3,37.6 34.3,34.7 
		39.5,34.7 39.5,37.6 42.2,37.6 42.2,43.4 	"/>
	<rect x="29" y="8.7" width="2.6" height="2.9"/>
	<rect x="26.4" y="31.8" class="st2" width="2.6" height="2.9"/>
	<polygon class="st2" points="42.2,46.3 42.2,57.8 39.5,57.8 39.5,66.5 36.9,66.5 36.9,72.3 34.3,72.3 34.3,75.2 31.6,75.2 
		31.6,89.6 29,89.6 29,98.3 26.4,98.3 26.4,101.2 23.7,101.2 23.7,107 21.1,107 21.1,109.9 18.5,109.9 18.5,115.6 15.8,115.6 
		15.8,121.4 13.2,121.4 13.2,124.3 10.5,124.3 10.5,130.1 5.3,130.1 5.3,133 0,133 0,127.2 2.6,127.2 2.6,124.3 5.3,124.3 
		5.3,121.4 7.9,121.4 7.9,112.8 10.5,112.8 10.5,107 13.2,107 13.2,101.2 15.8,101.2 15.8,95.4 18.5,95.4 18.5,89.6 15.8,89.6 
		15.8,83.8 18.5,83.8 18.5,69.4 21.1,69.4 21.1,63.6 23.7,63.6 23.7,57.8 15.8,57.8 15.8,60.7 10.5,60.7 10.5,43.4 13.2,43.4 
		13.2,34.7 15.8,34.7 15.8,26 18.5,26 18.5,23.1 26.4,23.1 26.4,31.8 21.1,31.8 21.1,37.6 15.8,37.6 15.8,43.4 21.1,43.4 21.1,40.5 
		23.7,40.5 23.7,37.6 36.9,37.6 36.9,40.5 39.5,40.5 39.5,43.4 29,43.4 29,46.3 23.7,46.3 23.7,52 21.1,52 21.1,54.9 26.4,54.9 
		26.4,49.1 31.6,49.1 31.6,46.3 	"/>
	<polygon class="st0" points="34.3,34.7 34.3,37.6 29,37.6 29,31.8 26.4,31.8 26.4,23.1 23.7,23.1 23.7,20.2 29,20.2 29,28.9 
		31.6,28.9 31.6,34.7 	"/>
	<path class="st2" d="M47.5,46.3v-8.7h-2.6v-8.7h-5.3V26h-2.6V5.8h-2.6V2.9H23.7v17.3H29v8.7h2.6v5.8h7.9v2.9h2.6v5.8h2.6v17.4h-2.6
		v8.7h-2.6v5.8h-2.6V81h2.6v2.9h2.6v2.9h-5.3v2.9h2.6v2.9h5.3V72.3h2.6v-5.8h2.6V46.3H47.5z M31.6,11.6H29V8.7h2.6V11.6z"/>
	<polygon class="st3" points="23.7,57.8 23.7,63.6 21.1,63.6 21.1,60.7 18.5,60.7 18.5,57.8 	"/>
	<polygon class="st1" points="29,34.7 29,37.6 23.7,37.6 23.7,40.5 21.1,40.5 21.1,43.4 15.8,43.4 15.8,37.6 21.1,37.6 21.1,31.8 
		26.4,31.8 26.4,34.7 	"/>
</g>
</svg>
