<svg width="192" height="184" viewBox="0 0 192 184" fill="none" xmlns="http://www.w3.org/2000/svg">
<mask id="mask0" mask-type="alpha" maskUnits="userSpaceOnUse" x="0" y="0" width="192" height="184">
<path d="M71.1154 162.381C82.2749 164.82 120.241 173.119 147.267 149.644C155.38 142.596 159.948 134.911 166.492 123.895C176.917 106.349 178.868 92.4231 175.5 80.3201C172.375 69.0923 168.776 71.3886 141.045 52.3633C115.101 34.5618 109.586 23.9685 90.754 20.7072C82.4159 19.261 73.0184 17.637 66.3517 23.3034C54.931 33.0143 66.7294 51.2046 55.4844 74.3543C49.5151 86.643 44.6216 84.7484 33.6527 103.546C25.579 117.385 21.1469 124.983 22.719 133.162C26.4693 152.622 61.3328 160.243 71.1154 162.381Z" fill="black" stroke="black" stroke-miterlimit="10"/>
</mask>
<g mask="url(#mask0)">
<path d="M-179 155.27L-20.8497 344.348M-86.9536 78.2795L71.1967 267.358M-132.977 116.775L25.1735 305.853M-40.9304 39.7845L117.22 228.863M46.5136 -33.356L204.664 155.723M-155.988 136.022L2.16193 325.101M-63.942 59.032L94.2083 248.111M23.502 -14.1085L181.652 174.97M-109.965 97.527L48.1851 286.606M-17.9188 20.537L140.232 209.616M69.5252 -52.6035L227.676 136.475M-169.795 147.571L-11.645 336.649M-77.749 70.5805L80.4014 259.659M9.69508 -2.56001L167.845 186.519M-123.772 109.076L34.3782 298.154M-31.7258 32.0855L126.425 221.164M55.7183 -41.055L213.869 148.024M-146.784 128.323L11.3666 317.402M-54.7374 51.333L103.413 240.412M32.7067 -21.8075L190.857 167.271M-100.761 89.828L57.3898 278.907M-8.71419 12.838L149.436 201.917M78.7299 -60.3025L236.88 128.776M-174.398 151.42L-16.2473 340.499M-82.3513 74.43L75.799 263.509M5.09276 1.28949L163.243 190.368M-128.374 112.925L29.7758 302.004M-36.3281 35.935L121.822 225.014M51.116 -37.2055L209.266 151.873M-151.386 132.173L6.76425 321.251M-59.3397 55.1825L98.8106 244.261M28.1044 -17.958L186.255 171.121M-105.363 93.6775L52.7874 282.756M-13.3165 16.6875L144.834 205.766M74.1276 -56.453L232.278 132.626M-165.193 143.721L-7.04271 332.8M-73.1467 66.731L85.0037 255.81M14.2974 -6.40951L172.448 182.669M-119.17 105.226L38.9805 294.305M-27.1235 28.236L131.027 217.315M60.3206 -44.9045L218.471 144.174M-142.181 124.474L15.9689 313.552M-50.1351 47.4835L108.015 236.562M37.309 -25.657L195.459 163.422M-96.1583 85.9785L61.9921 275.057M-4.11187 8.98849L154.038 198.067M83.3322 -64.152L241.483 124.927M-160.591 139.872L-2.44039 328.95M-68.5443 62.8815L89.606 251.96M18.8997 -10.259L177.05 178.82M-114.568 101.377L43.5828 290.455M-22.5211 24.3865L135.629 213.465M64.9229 -48.754L223.073 140.325M-137.579 120.624L20.5712 309.703M-45.5327 43.634L112.618 232.713M41.9113 -29.5065L200.062 159.572M-91.5559 82.129L66.5944 271.208M0.490446 5.13899L158.641 194.218M87.9345 -68.0015L246.085 121.077" stroke="black"/>
</g>
</svg>
