<svg width="75" height="105" viewBox="0 0 75 105" fill="none" xmlns="http://www.w3.org/2000/svg">
<g clip-path="url(#clip0)">
<path d="M52.9402 0H57.3504V8.75083H52.9402V0Z" fill="#3AB900"/>
<path d="M52.9402 8.75195H57.3504L57.3503 13.125H61.7695V21.875H66.1751V26.2483H52.9402V8.75195Z" fill="#3AB900"/>
<path d="M39.7051 21.875H44.1152V26.2483H39.7051V21.875Z" fill="#3AB900"/>
<path d="M66.1751 26.25V30.6233H61.7695V34.9989H52.9402V26.25H66.1751Z" fill="#3AB900"/>
<path d="M44.1153 35H52.9401V43.7508H48.5299V39.3733H44.1153V35Z" fill="#3AB900"/>
<path d="M70.5853 43.752H75V48.1253H70.5853L70.5853 52.4983H66.1752V48.125L70.5853 48.1253V43.752Z" fill="#3AB900"/>
<path d="M66.1752 52.4983L61.7694 52.498V56.875H57.3503L57.3504 43.752H52.9402V65.6258H57.3504L57.3503 61.2483H61.7695L61.7694 56.875L66.1751 56.8758L66.1752 52.4983Z" fill="#3AB900"/>
<path d="M52.9402 96.25V105H66.1751V100.628V96.25H52.9402Z" fill="#3AB900"/>
<path d="M44.1153 100.627H48.5299V96.25H52.9402V105H44.1153V100.627Z" fill="#3AB900"/>
<path d="M66.1751 100.628L70.5853 100.627V105H66.1751V100.628Z" fill="#3AB900"/>
<path d="M52.9402 96.2483V83.125H57.3504V91.875H61.7695V96.2483H52.9402Z" fill="#3AB900"/>
<path d="M57.3504 83.1233V65.627H52.9402V70V74.373V83.1233H57.3504Z" fill="#3AB900"/>
<path d="M57.3504 43.7508H52.9401V35H61.7695V39.3733H57.3503L57.3504 43.7508Z" fill="#3AB900"/>
<path d="M44.1152 26.25H39.7051V30.6233H44.1152V26.25Z" fill="#3AB900"/>
<path d="M44.1153 34.9989L44.1152 30.6233L44.1153 30.6211L44.1152 26.25H52.9402V34.9989H44.1153Z" fill="#3AB900"/>
<path d="M44.1153 17.498H48.5299V8.75195H52.9402V26.2483H44.1152V21.875L44.1153 17.498Z" fill="#3AB900"/>
<path d="M26.4656 56.8758V43.752H35.2904V56.8758H26.4656Z" fill="#3AB900"/>
<path d="M17.6497 52.4983V56.8758H26.4656V43.752H17.6497V52.4983Z" fill="#3AB900"/>
<path d="M17.6497 52.4983H13.2305V48.1253V43.752H17.6497V52.4983Z" fill="#3AB900"/>
<path d="M48.5299 70.0003H44.1153V65.627H48.53L48.5299 70.0003L52.9402 70V74.373L48.5299 74.3733V70.0003Z" fill="#3AB900"/>
<path d="M44.1152 61.248H39.7051L39.7051 56.875L35.2904 56.8758L35.2904 61.2483L39.7051 61.248V65.6258H44.1152V61.248Z" fill="#3AB900"/>
<path d="M26.4656 39.373H30.8803V43.7508H26.4656V39.373Z" fill="#3AB900"/>
<path d="M26.4655 35H17.6497V43.7508H26.4656V39.373L26.4655 35Z" fill="#3AB900"/>
<path d="M17.6497 30.6211H22.0554V34.9989H17.6497V30.6211Z" fill="#3AB900"/>
<path d="M17.6497 30.6211H13.2305V34.9989H17.6497V30.6211Z" fill="#3AB900"/>
<path d="M13.2305 26.25L13.2305 30.6211L13.2305 30.6233L13.2305 34.9989H4.41016V26.25H13.2305Z" fill="#3AB900"/>
<path d="M4.41018 21.875H0V26.2483H4.41018V21.875Z" fill="#3AB900"/>
<path d="M4.41016 35V39.3733H8.82033L8.82031 43.7508H13.2305V35H4.41016Z" fill="#3AB900"/>
<path d="M8.82031 43.752H13.2305V48.1253H8.82031V43.752Z" fill="#3AB900"/>
<path d="M13.2305 43.7508V35H17.6497V43.7508H13.2305Z" fill="#3AB900"/>
</g>
<defs>
<clipPath id="clip0">
<rect width="75" height="105" fill="white"/>
</clipPath>
</defs>
</svg>
