<svg width="192" height="184" viewBox="0 0 192 184" fill="none" xmlns="http://www.w3.org/2000/svg">
<mask id="mask0" mask-type="alpha" maskUnits="userSpaceOnUse" x="21" y="18" width="157" height="149">
<path d="M71.1149 162.381C82.2744 164.82 120.241 173.119 147.267 149.644C155.38 142.596 159.948 134.911 166.492 123.895C176.917 106.349 178.868 92.423 175.5 80.32C172.375 69.0922 168.776 71.3885 141.045 52.3632C115.101 34.5617 109.586 23.9684 90.7535 20.7071C82.4154 19.2609 73.0179 17.6369 66.3512 23.3033C54.9305 33.0142 66.7289 51.2045 55.4839 74.3542C49.5146 86.6429 44.6211 84.7483 33.6522 103.546C25.5785 117.385 21.1464 124.983 22.7185 133.162C26.4688 152.622 61.3323 160.243 71.1149 162.381Z" fill="black" stroke="black" stroke-miterlimit="10"/>
</mask>
<g mask="url(#mask0)">
<path d="M87.9345 -68.0015L246.085 121.077M-179 155.27L-20.8497 344.348L-179 155.27ZM-86.9536 78.2795L71.1967 267.358L-86.9536 78.2795ZM-132.977 116.775L25.1735 305.853L-132.977 116.775ZM-40.9304 39.7845L117.22 228.863L-40.9304 39.7845ZM46.5136 -33.356L204.664 155.723L46.5136 -33.356ZM-155.988 136.022L2.16193 325.101L-155.988 136.022ZM-63.942 59.032L94.2083 248.111L-63.942 59.032ZM23.502 -14.1085L181.652 174.97L23.502 -14.1085ZM-109.965 97.527L48.1851 286.606L-109.965 97.527ZM-17.9188 20.537L140.232 209.616L-17.9188 20.537ZM69.5252 -52.6035L227.676 136.475L69.5252 -52.6035ZM-169.795 147.571L-11.645 336.649L-169.795 147.571ZM-77.749 70.5805L80.4014 259.659L-77.749 70.5805ZM9.69508 -2.55997L167.845 186.519L9.69508 -2.55997ZM-123.772 109.076L34.3782 298.154L-123.772 109.076ZM-31.7258 32.0855L126.425 221.164L-31.7258 32.0855ZM55.7183 -41.055L213.869 148.024L55.7183 -41.055ZM-146.784 128.323L11.3666 317.402L-146.784 128.323ZM-54.7374 51.333L103.413 240.412L-54.7374 51.333ZM32.7067 -21.8075L190.857 167.271L32.7067 -21.8075ZM-100.761 89.828L57.3898 278.907L-100.761 89.828ZM-8.71419 12.838L149.436 201.917L-8.71419 12.838ZM78.7299 -60.3025L236.88 128.776L78.7299 -60.3025ZM-174.398 151.42L-16.2473 340.499L-174.398 151.42ZM-82.3513 74.43L75.799 263.509L-82.3513 74.43ZM5.09276 1.28953L163.243 190.368L5.09276 1.28953ZM-128.374 112.925L29.7758 302.004L-128.374 112.925ZM-36.3281 35.935L121.822 225.014L-36.3281 35.935ZM51.116 -37.2055L209.266 151.873L51.116 -37.2055ZM-151.386 132.173L6.76425 321.251L-151.386 132.173ZM-59.3397 55.1825L98.8106 244.261L-59.3397 55.1825ZM28.1044 -17.958L186.255 171.121L28.1044 -17.958ZM-105.363 93.6775L52.7874 282.756L-105.363 93.6775ZM-13.3165 16.6875L144.834 205.766L-13.3165 16.6875ZM74.1276 -56.453L232.278 132.626L74.1276 -56.453ZM-165.193 143.721L-7.04271 332.8L-165.193 143.721ZM-73.1467 66.731L85.0037 255.81L-73.1467 66.731ZM14.2974 -6.40947L172.448 182.669L14.2974 -6.40947ZM-119.17 105.226L38.9805 294.305L-119.17 105.226ZM-27.1235 28.236L131.027 217.315L-27.1235 28.236ZM60.3206 -44.9045L218.471 144.174L60.3206 -44.9045ZM-142.181 124.474L15.9689 313.552L-142.181 124.474ZM-50.1351 47.4835L108.015 236.562L-50.1351 47.4835ZM37.309 -25.657L195.459 163.422L37.309 -25.657ZM-96.1583 85.9785L61.9921 275.057L-96.1583 85.9785ZM-4.11188 8.98853L154.038 198.067L-4.11188 8.98853ZM83.3322 -64.152L241.483 124.927L83.3322 -64.152ZM-160.591 139.872L-2.44038 328.95L-160.591 139.872ZM-68.5443 62.8815L89.606 251.96L-68.5443 62.8815ZM18.8997 -10.259L177.05 178.82L18.8997 -10.259ZM-114.568 101.377L43.5828 290.455L-114.568 101.377ZM-22.5211 24.3865L135.629 213.465L-22.5211 24.3865ZM64.9229 -48.754L223.073 140.325L64.9229 -48.754ZM-137.579 120.624L20.5712 309.703L-137.579 120.624ZM-45.5327 43.634L112.618 232.713L-45.5327 43.634ZM41.9113 -29.5065L200.062 159.572L41.9113 -29.5065ZM-91.5559 82.129L66.5944 271.208L-91.5559 82.129ZM0.490448 5.13903L158.641 194.218L0.490448 5.13903Z" stroke="white"/>
</g>
</svg>
