<svg width="192" height="184" viewBox="0 0 192 184" fill="none" xmlns="http://www.w3.org/2000/svg">
<path d="M71.1154 162.383C82.2749 164.822 120.241 173.121 147.267 149.646C155.38 142.598 159.948 134.913 166.492 123.897C176.917 106.351 178.868 92.425 175.5 80.3221C172.375 69.0943 168.776 71.3906 141.045 52.3653C115.101 34.5637 109.586 23.9705 90.754 20.7092C82.4159 19.263 73.0184 17.639 66.3517 23.3053C54.931 33.0162 66.7294 51.2066 55.4844 74.3562C49.5151 86.645 44.6216 84.7504 33.6527 103.548C25.579 117.387 21.1469 124.985 22.719 133.163C26.4693 152.624 61.3328 160.245 71.1154 162.383Z" stroke="black" stroke-miterlimit="10"/>
</svg>
