<?xml version="1.0" encoding="utf-8"?>
<!-- Generator: Adobe Illustrator 24.0.1, SVG Export Plug-In . SVG Version: 6.00 Build 0)  -->
<svg version="1.1" id="Слой_1" xmlns="http://www.w3.org/2000/svg" xmlns:xlink="http://www.w3.org/1999/xlink" x="0px" y="0px"
	 viewBox="0 0 192 184" style="enable-background:new 0 0 192 184;" xml:space="preserve">
<style type="text/css">
	.st0{fill:none;stroke:#FCFCFC;stroke-miterlimit:10;}
</style>
<path class="st0" d="M71.1,162.4c11.2,2.4,49.1,10.7,76.2-12.7c8.1-7,12.7-14.7,19.2-25.7c10.4-17.5,12.4-31.5,9-43.6
	c-3.1-11.2-6.7-8.9-34.5-28C115.1,34.6,109.6,24,90.8,20.7c-8.3-1.4-17.7-3.1-24.4,2.6C54.9,33,66.7,51.2,55.5,74.4
	c-6,12.3-10.9,10.4-21.8,29.2c-8.1,13.8-12.5,21.4-10.9,29.6C26.5,152.6,61.3,160.2,71.1,162.4z"/>
</svg>
