<?xml version="1.0" encoding="utf-8"?>
<!-- Generator: Adobe Illustrator 24.1.1, SVG Export Plug-In . SVG Version: 6.00 Build 0)  -->
<svg version="1.1" id="Слой_1" xmlns="http://www.w3.org/2000/svg" xmlns:xlink="http://www.w3.org/1999/xlink" x="0px" y="0px"
	 viewBox="0 0 72.8 100.5" style="enable-background:new 0 0 72.8 100.5;" xml:space="preserve">
<style type="text/css">
	.st0{fill:#3AB900;}
</style>
<rect x="37.5" y="56.7" class="st0" width="4.4" height="4.4"/>
<rect x="33.1" y="52.4" class="st0" width="4.4" height="4.4"/>
<rect x="41.9" y="61.1" class="st0" width="4.4" height="4.4"/>
<rect x="59.6" y="48" class="st0" width="4.4" height="4.4"/>
<rect x="64" y="43.6" class="st0" width="4.4" height="4.4"/>
<rect x="68.4" y="39.3" class="st0" width="4.4" height="4.4"/>
<polygon class="st0" points="64,96.1 64,91.7 59.6,91.7 59.6,87.4 55.1,87.4 55.1,83.5 55.1,78.6 55.1,75.2 55.1,56.7 59.6,56.7 
	59.6,52.4 55.1,52.4 55.1,39.3 50.7,39.3 50.7,65.5 46.3,65.5 46.3,69.9 50.7,69.9 50.7,75.2 50.7,78.6 50.7,83.5 50.7,91.7 
	46.3,91.7 46.3,96.1 41.9,96.1 41.9,100.5 68.4,100.5 68.4,96.1 "/>
<polygon class="st0" points="30.9,37.1 26.5,37.1 26.5,32.7 22.1,32.7 22.1,28.3 13.2,28.3 13.2,23.9 4.4,23.9 4.4,37.1 8.8,37.1 
	8.8,45.8 13.2,45.8 13.2,50.2 17.7,50.2 17.7,54.6 35.3,54.6 35.3,41.4 30.9,41.4 "/>
<polygon class="st0" points="61.7,28.1 58.6,25 61.7,21.8 58.6,18.7 61.7,15.6 55.4,9.3 58.5,6.2 52.3,0 43,9.3 46.1,12.4 40,18.6 
	43.1,21.7 40,24.8 43.1,28 40,31.1 52.5,43.6 61.8,34.2 58.7,31.1 "/>
<rect y="19.6" class="st0" width="4.4" height="4.4"/>
</svg>
