<?xml version="1.0" encoding="utf-8"?>
<!-- Generator: Adobe Illustrator 24.1.1, SVG Export Plug-In . SVG Version: 6.00 Build 0)  -->
<svg version="1.1" id="Слой_1" xmlns="http://www.w3.org/2000/svg" xmlns:xlink="http://www.w3.org/1999/xlink" x="0px" y="0px"
	 viewBox="0 0 75 105" style="enable-background:new 0 0 75 105;" xml:space="preserve">
<style type="text/css">
	.st0{fill:#3AB900;}
</style>
<rect x="39.7" y="61.2" class="st0" width="4.4" height="4.4"/>
<rect x="35.3" y="56.9" class="st0" width="4.4" height="4.4"/>
<rect x="44.1" y="65.6" class="st0" width="4.4" height="4.4"/>
<rect x="61.8" y="52.5" class="st0" width="4.4" height="4.4"/>
<rect x="66.2" y="48.1" class="st0" width="4.4" height="4.4"/>
<rect x="70.6" y="43.8" class="st0" width="4.4" height="4.4"/>
<polygon class="st0" points="66.2,100.6 66.2,96.2 61.8,96.2 61.8,91.9 57.3,91.9 57.3,88 57.3,83.1 57.3,79.7 57.3,61.2 61.8,61.2 
	61.8,56.9 57.3,56.9 57.3,43.8 52.9,43.8 52.9,70 48.5,70 48.5,74.4 52.9,74.4 52.9,79.7 52.9,83.1 52.9,88 52.9,96.2 48.5,96.2 
	48.5,100.6 44.1,100.6 44.1,105 70.6,105 70.6,100.6 "/>
</svg>
