<svg width="316" height="294" viewBox="0 0 316 294" fill="none" xmlns="http://www.w3.org/2000/svg">
<mask id="mask0" mask-type="alpha" maskUnits="userSpaceOnUse" x="0" y="0" width="316" height="294">
<path d="M33.7977 55.3696C41.1713 51.9016 52.9531 51.5527 71.3573 40.7161C86.6381 31.7216 86.4074 27.3255 101.668 17.6891C114.07 9.85997 137.884 -5.17034 155.043 3.73341C158.93 5.75001 163.787 12.058 173.493 24.667C185.551 40.3323 187.067 45.8657 193.92 47.6939C196.45 48.3708 198.065 48.0986 216.983 42.1116C234.603 36.5363 236.263 35.7967 239.387 36.5293C247.551 38.4413 250.786 46.8915 259.155 62.3474C259.155 62.3474 270.008 82.3878 286.172 105.61C303.871 131.03 309.564 130.451 313.188 143.988C316.944 158.021 313.926 170.218 309.893 186.553C309.893 186.553 303.548 212.246 290.784 232.607C262.054 278.445 97.9125 335.558 29.8441 245.167C-18.0674 181.543 1.1341 70.7348 33.7977 55.3696Z" fill="black" stroke="black" stroke-miterlimit="10"/>
</mask>
<g mask="url(#mask0)">
<path d="M-96 147.271L141.386 431.081M-3.95362 70.2815L233.432 354.091M-49.9768 108.776L187.409 392.586M42.0696 31.7865L279.455 315.596M129.514 -41.3541L366.9 242.456M-72.9884 128.024L164.397 411.834M19.058 51.034L256.444 334.844M106.502 -22.1066L343.888 261.703M-26.9652 89.529L210.421 373.339M65.0812 12.5389L302.467 296.349M152.525 -60.6016L389.911 223.208M-86.7954 139.572L150.591 423.382M5.25102 62.5825L242.637 346.392M92.6951 -10.5581L330.081 273.252M-40.7722 101.077L196.614 384.887M51.2742 24.0875L288.66 307.897M138.718 -49.0531L376.104 234.757M-63.7838 120.325L173.602 404.135M28.2626 43.335L265.649 327.145M115.707 -29.8056L353.093 254.004M-17.7606 81.83L219.625 365.64M74.2858 4.83995L311.672 288.65M161.73 -68.3006L399.116 215.509M-91.3977 143.422L145.988 427.232M0.648702 66.432L238.035 350.242M88.0928 -6.70856L325.479 277.101M-45.3745 104.927L192.011 388.737M46.6719 27.937L284.058 311.747M134.116 -45.2036L371.502 238.606M-68.3861 124.174L169 407.984M23.6603 47.1845L261.046 330.994M111.104 -25.9561L348.49 257.854M-22.3629 85.6795L215.023 369.489M69.6835 8.68945L307.069 292.499M157.128 -64.4511L394.513 219.359M-82.193 135.723L155.193 419.533M9.85334 58.733L247.239 342.543M97.2974 -14.4076L334.683 269.402M-36.1699 97.228L201.216 381.038M55.8765 20.238L293.262 304.048M143.321 -52.9026L380.706 230.907M-59.1814 116.475L178.204 400.285M32.8649 39.4855L270.251 323.295M120.309 -33.6551L357.695 250.155M-13.1583 77.9805L224.228 361.79M78.8881 0.990446L316.274 284.8M166.332 -72.1501L403.718 211.66M-77.5907 131.873L159.795 415.683M14.4557 54.8835L251.842 338.693M101.9 -18.2571L339.286 265.553M-31.5675 93.3785L205.818 377.188M60.4789 16.3884L297.865 300.198M147.923 -56.7521L385.309 227.058M-54.5791 112.626L182.807 396.436M37.4673 35.636L274.853 319.446M124.911 -37.5046L362.297 246.305M-8.55594 74.131L228.83 357.941M83.4904 -2.85906L320.876 280.951M170.935 -75.9996L408.32 207.81" stroke="black"/>
</g>
</svg>
