<svg width="316" height="294" viewBox="0 0 316 294" fill="none" xmlns="http://www.w3.org/2000/svg">
<mask id="mask0" mask-type="alpha" maskUnits="userSpaceOnUse" x="0" y="0" width="316" height="294">
<path d="M33.7977 55.3696C41.1713 51.9016 52.9531 51.5527 71.3573 40.7161C86.6381 31.7216 86.4074 27.3255 101.668 17.6891C114.07 9.85997 137.884 -5.17034 155.043 3.73341C158.93 5.75001 163.787 12.058 173.493 24.667C185.551 40.3323 187.067 45.8657 193.92 47.6939C196.45 48.3708 198.065 48.0986 216.983 42.1116C234.603 36.5363 236.263 35.7967 239.387 36.5293C247.551 38.4413 250.786 46.8915 259.155 62.3474C259.155 62.3474 270.008 82.3878 286.172 105.61C303.871 131.03 309.564 130.451 313.188 143.988C316.944 158.021 313.926 170.218 309.893 186.553C309.893 186.553 303.548 212.246 290.784 232.607C262.054 278.445 97.9125 335.558 29.8441 245.167C-18.0674 181.543 1.1341 70.7348 33.7977 55.3696Z" fill="black" stroke="black" stroke-miterlimit="10"/>
</mask>
<g mask="url(#mask0)">
<path d="M170.935 -75.9995L408.32 207.81M-96 147.271L141.386 431.081L-96 147.271ZM-3.95362 70.2816L233.432 354.091L-3.95362 70.2816ZM-49.9768 108.776L187.409 392.586L-49.9768 108.776ZM42.0696 31.7866L279.455 315.596L42.0696 31.7866ZM129.514 -41.354L366.9 242.456L129.514 -41.354ZM-72.9884 128.024L164.397 411.834L-72.9884 128.024ZM19.058 51.0341L256.444 334.844L19.058 51.0341ZM106.502 -22.1065L343.888 261.703L106.502 -22.1065ZM-26.9652 89.5291L210.421 373.339L-26.9652 89.5291ZM65.0812 12.539L302.467 296.349L65.0812 12.539ZM152.525 -60.6015L389.911 223.208L152.525 -60.6015ZM-86.7954 139.572L150.591 423.382L-86.7954 139.572ZM5.25102 62.5826L242.637 346.392L5.25102 62.5826ZM92.6951 -10.558L330.081 273.252L92.6951 -10.558ZM-40.7722 101.077L196.614 384.887L-40.7722 101.077ZM51.2742 24.0876L288.66 307.897L51.2742 24.0876ZM138.718 -49.053L376.104 234.757L138.718 -49.053ZM-63.7838 120.325L173.602 404.135L-63.7838 120.325ZM28.2626 43.3351L265.649 327.145L28.2626 43.3351ZM115.707 -29.8055L353.093 254.004L115.707 -29.8055ZM-17.7606 81.8301L219.625 365.64L-17.7606 81.8301ZM74.2858 4.84004L311.672 288.65L74.2858 4.84004ZM161.73 -68.3005L399.116 215.509L161.73 -68.3005ZM-91.3977 143.422L145.988 427.232L-91.3977 143.422ZM0.648705 66.4321L238.035 350.242L0.648705 66.4321ZM88.0928 -6.70847L325.479 277.101L88.0928 -6.70847ZM-45.3745 104.927L192.011 388.737L-45.3745 104.927ZM46.6719 27.9371L284.058 311.747L46.6719 27.9371ZM134.116 -45.2035L371.502 238.606L134.116 -45.2035ZM-68.3861 124.174L169 407.984L-68.3861 124.174ZM23.6603 47.1846L261.046 330.994L23.6603 47.1846ZM111.104 -25.956L348.49 257.854L111.104 -25.956ZM-22.3629 85.6796L215.023 369.489L-22.3629 85.6796ZM69.6835 8.68954L307.069 292.499L69.6835 8.68954ZM157.128 -64.451L394.513 219.359L157.128 -64.451ZM-82.193 135.723L155.193 419.533L-82.193 135.723ZM9.85334 58.7331L247.239 342.543L9.85334 58.7331ZM97.2974 -14.4075L334.683 269.402L97.2974 -14.4075ZM-36.1699 97.2281L201.216 381.038L-36.1699 97.2281ZM55.8765 20.2381L293.262 304.048L55.8765 20.2381ZM143.321 -52.9025L380.706 230.907L143.321 -52.9025ZM-59.1814 116.475L178.204 400.285L-59.1814 116.475ZM32.8649 39.4856L270.251 323.295L32.8649 39.4856ZM120.309 -33.655L357.695 250.155L120.309 -33.655ZM-13.1583 77.9806L224.228 361.79L-13.1583 77.9806ZM78.8881 0.99054L316.274 284.8L78.8881 0.99054ZM166.332 -72.15L403.718 211.66L166.332 -72.15ZM-77.5907 131.873L159.795 415.683L-77.5907 131.873ZM14.4557 54.8836L251.842 338.693L14.4557 54.8836ZM101.9 -18.257L339.286 265.553L101.9 -18.257ZM-31.5675 93.3786L205.818 377.188L-31.5675 93.3786ZM60.4789 16.3885L297.865 300.198L60.4789 16.3885ZM147.923 -56.752L385.309 227.058L147.923 -56.752ZM-54.5791 112.626L182.807 396.436L-54.5791 112.626ZM37.4673 35.6361L274.853 319.446L37.4673 35.6361ZM124.911 -37.5045L362.297 246.305L124.911 -37.5045ZM-8.55594 74.1311L228.83 357.941L-8.55594 74.1311ZM83.4904 -2.85897L320.876 280.951L83.4904 -2.85897Z" stroke="white"/>
</g>
</svg>
