<?xml version="1.0" encoding="utf-8"?>
<!-- Generator: Adobe Illustrator 24.0.1, SVG Export Plug-In . SVG Version: 6.00 Build 0)  -->
<svg version="1.1" id="Слой_1" xmlns="http://www.w3.org/2000/svg" xmlns:xlink="http://www.w3.org/1999/xlink" x="0px" y="0px"
	 viewBox="0 0 316 294" style="enable-background:new 0 0 316 294;" xml:space="preserve">
<style type="text/css">
	.st0{fill:none;stroke:#FFFFFF;stroke-miterlimit:10;}
</style>
<path class="st0" d="M33.8,55.4c7.4-3.5,19.2-3.8,37.6-14.7c15.3-9,15.1-13.4,30.3-23c12.4-7.8,36.2-22.9,53.4-14
	c3.9,2,8.7,8.3,18.4,20.9c12.1,15.7,13.6,21.2,20.4,23c2.5,0.7,4.1,0.4,23.1-5.6c17.6-5.6,19.3-6.3,22.4-5.6
	c8.2,1.9,11.4,10.4,19.8,25.8c0,0,10.9,20,27,43.3c17.7,25.4,23.4,24.8,27,38.4c3.8,14,0.7,26.2-3.3,42.6c0,0-6.3,25.7-19.1,46.1
	c-28.7,45.8-192.9,103-260.9,12.6C-18.1,181.5,1.1,70.7,33.8,55.4z"/>
</svg>
