<svg width="316" height="294" viewBox="0 0 316 294" fill="none" xmlns="http://www.w3.org/2000/svg">
<path d="M33.7977 55.3696C41.1713 51.9016 52.9531 51.5527 71.3573 40.7161C86.6381 31.7216 86.4074 27.3255 101.668 17.6891C114.07 9.85997 137.884 -5.17034 155.043 3.73341C158.93 5.75001 163.787 12.058 173.493 24.667C185.551 40.3323 187.067 45.8657 193.92 47.6939C196.45 48.3708 198.065 48.0986 216.983 42.1116C234.603 36.5363 236.263 35.7967 239.387 36.5293C247.551 38.4413 250.786 46.8915 259.155 62.3474C259.155 62.3474 270.008 82.3878 286.172 105.61C303.871 131.03 309.564 130.451 313.188 143.988C316.944 158.021 313.926 170.218 309.893 186.553C309.893 186.553 303.548 212.246 290.784 232.607C262.054 278.445 97.9125 335.558 29.8441 245.167C-18.0674 181.543 1.1341 70.7348 33.7977 55.3696Z" stroke="black" stroke-miterlimit="10"/>
</svg>
