<?xml version="1.0" encoding="utf-8"?>
<!-- Generator: Adobe Illustrator 24.1.1, SVG Export Plug-In . SVG Version: 6.00 Build 0)  -->
<svg version="1.1" id="Слой_1" xmlns="http://www.w3.org/2000/svg" xmlns:xlink="http://www.w3.org/1999/xlink" x="0px" y="0px"
	 viewBox="0 0 182.9 164.6" style="enable-background:new 0 0 182.9 164.6;" xml:space="preserve">
<style type="text/css">
	.st0{fill:#E6A47B;}
	.st1{fill:#F7C186;}
	.st2{fill:#F4D9AE;}
	.st3{fill:#FFFFFF;}
</style>
<polygon class="st0" points="113.6,99.7 113.6,94.3 108.2,94.3 108.2,89 97.4,89 97.4,83.6 16.6,83.6 16.6,89 5.8,89 5.8,94.3 
	0.4,94.3 0.4,99.7 5.8,99.7 5.8,159 0.4,159 0.4,164.4 113.6,164.4 113.6,159 108.2,159 108.2,99.7 "/>
<g>
	<polygon class="st0" points="97.4,126.6 97.4,159 75.9,159 75.9,126.6 81.3,126.6 81.3,121.2 92.1,121.2 92.1,126.6 	"/>
	<polygon class="st0" points="70.5,126.6 70.5,159 48.9,159 48.9,126.6 54.3,126.6 54.3,121.2 65.1,121.2 65.1,126.6 	"/>
	<polygon class="st0" points="38.1,126.6 38.1,159 16.6,159 16.6,126.6 22,126.6 22,121.2 32.7,121.2 32.7,126.6 	"/>
	<path class="st1" d="M108.2,159V99.7H5.8V159H0.4v5.4h113.2V159H108.2z M102.8,159H11.2v-37.8h5.4v-5.4h21.6v5.4H49v-5.4h21.6v5.4
		H76v-5.4h21.4v5.4h5.4L102.8,159L102.8,159z"/>
	<polygon class="st2" points="102.8,121.2 102.8,159 97.4,159 97.4,126.6 92.1,126.6 92.1,121.2 81.3,121.2 81.3,126.6 75.9,126.6 
		75.9,159 70.5,159 70.5,126.6 65.1,126.6 65.1,121.2 54.3,121.2 54.3,126.6 48.9,126.6 48.9,159 38.1,159 38.1,126.6 32.7,126.6 
		32.7,121.2 22,121.2 22,126.6 16.6,126.6 16.6,159 11.2,159 11.2,121.2 16.6,121.2 16.6,115.8 38.1,115.8 38.1,121.2 48.9,121.2 
		48.9,115.8 70.5,115.8 70.5,121.2 75.9,121.2 75.9,115.8 97.4,115.8 97.4,121.2 	"/>
	<polygon class="st0" points="113.6,94.3 113.6,99.7 0.4,99.7 0.4,94.3 5.8,94.3 5.8,88.9 16.6,88.9 16.6,83.5 97.4,83.5 97.4,88.9 
		108.2,88.9 108.2,94.3 	"/>
</g>
<polygon class="st0" points="182.9,129.9 182.9,127.1 180,127.1 180,124.2 174.3,124.2 174.3,121.3 131.1,121.3 131.1,124.2 
	125.4,124.2 125.4,127.1 122.5,127.1 122.5,129.9 125.4,129.9 125.4,161.6 122.5,161.6 122.5,164.5 182.9,164.5 182.9,161.6 
	180,161.6 180,129.9 "/>
<g>
	<polygon class="st0" points="174.3,144.3 174.3,161.6 162.8,161.6 162.8,144.3 165.6,144.3 165.6,141.4 171.4,141.4 171.4,144.3 	
		"/>
	<polygon class="st0" points="159.9,144.3 159.9,161.6 148.4,161.6 148.4,144.3 151.3,144.3 151.3,141.4 157,141.4 157,144.3 	"/>
	<polygon class="st0" points="142.6,144.3 142.6,161.6 131.1,161.6 131.1,144.3 134,144.3 134,141.4 139.7,141.4 139.7,144.3 	"/>
	<path class="st1" d="M180,161.6v-31.7h-54.6v31.6h-2.9v2.9h60.4v-2.9L180,161.6L180,161.6z M177.1,161.6h-48.9v-20.2h2.9v-2.9h11.5
		v2.9h5.8v-2.9h11.5v2.9h2.9v-2.9h11.5v2.9h2.9L177.1,161.6L177.1,161.6z"/>
	<polygon class="st2" points="177.1,141.4 177.1,161.6 174.3,161.6 174.3,144.3 171.4,144.3 171.4,141.4 165.6,141.4 165.6,144.3 
		162.8,144.3 162.8,161.6 159.9,161.6 159.9,144.3 157,144.3 157,141.4 151.3,141.4 151.3,144.3 148.4,144.3 148.4,161.6 
		142.6,161.6 142.6,144.3 139.7,144.3 139.7,141.4 134,141.4 134,144.3 131.1,144.3 131.1,161.6 128.2,161.6 128.2,141.4 
		131.1,141.4 131.1,138.5 142.6,138.5 142.6,141.4 148.4,141.4 148.4,138.5 159.9,138.5 159.9,141.4 162.8,141.4 162.8,138.5 
		174.3,138.5 174.3,141.4 	"/>
	<polygon class="st0" points="182.9,127 182.9,129.9 122.5,129.9 122.5,127 125.4,127 125.4,124.1 131.1,124.1 131.1,121.3 
		174.3,121.3 174.3,124.1 180,124.1 180,127 	"/>
</g>
<g>
	<polygon class="st3" points="58.2,33.3 53.4,35.7 48.6,38.1 48.6,38.1 43.9,40.5 39,43 41.4,47.8 46.3,45.3 51,42.9 51.1,42.9 
		55.8,40.4 58.3,45.2 63,42.8 60.6,38 65.4,35.6 63,30.8 	"/>
	
		<rect x="54.4" y="46.1" transform="matrix(0.8917 -0.4527 0.4527 0.8917 -15.8701 31.1113)" class="st3" width="5.3" height="5.3"/>
	<rect x="52" y="53.3" transform="matrix(0.8917 -0.4527 0.4527 0.8917 -19.3951 30.8077)" class="st3" width="5.3" height="5.3"/>
	
		<rect x="48.5" y="55.7" transform="matrix(0.8917 -0.4527 0.4527 0.8917 -19.6852 34.3476)" class="st3" width="26.8" height="5.3"/>
</g>
<g>
	<polygon class="st3" points="99.5,4 96.5,3 93.4,2 93.4,2 90.3,1 87.2,0 86.3,3.1 89.3,4.1 92.4,5.1 92.4,5.1 95.5,6.1 94.5,9.1 
		97.5,10.1 98.5,7.1 101.6,8.1 102.6,5 	"/>
	<rect x="90.7" y="8.6" transform="matrix(0.3104 -0.9506 0.9506 0.3104 54.0096 94.7936)" class="st3" width="3.2" height="3.2"/>
	<rect x="86.7" y="10.6" transform="matrix(0.3104 -0.9506 0.9506 0.3104 49.3471 92.3755)" class="st3" width="3.2" height="3.2"/>
	<rect x="88.8" y="8.2" transform="matrix(0.3104 -0.9506 0.9506 0.3104 46.8297 97.119)" class="st3" width="3.2" height="16.1"/>
</g>
<rect x="48.9" y="153.6" width="21.6" height="5.3"/>
<rect x="75.9" y="142.9" width="21.5" height="11.3"/>
<rect x="131.1" y="144.4" width="11.5" height="11.9"/>
<rect x="133.8" y="141.4" width="5.8" height="11.9"/>
<rect x="151.3" y="141.4" width="5.8" height="11.9"/>
<rect x="148.4" y="151" width="11.5" height="5.3"/>
<rect x="148.4" y="144.4" width="11.5" height="6.6"/>
<rect x="162.8" y="144.4" width="11.5" height="6.6"/>
<rect x="131.1" y="156.3" width="11.5" height="5.3"/>
<rect x="148.4" y="156.3" width="11.5" height="5.3"/>
<rect x="162.8" y="151" width="11.5" height="5.3"/>
<rect x="162.8" y="156.3" width="11.5" height="5.3"/>
<rect x="75.9" y="153.6" width="21.5" height="5.3"/>
<rect x="16.6" y="153.6" width="21.5" height="5.3"/>
<rect x="48.9" y="142.9" width="21.6" height="11.3"/>
<rect x="16.6" y="126.4" width="21.5" height="27.8"/>
<rect x="22" y="121.3" width="10.8" height="27.8"/>
<rect x="54.4" y="121.3" width="10.8" height="27.8"/>
<rect x="81.3" y="121.3" width="10.8" height="27.8"/>
<rect x="48.9" y="126.4" width="21.5" height="27.8"/>
<rect x="75.9" y="126.4" width="21.5" height="27.8"/>
<rect x="32.8" y="148.8" width="5.3" height="5.3"/>
</svg>
