<?xml version="1.0" encoding="utf-8"?>
<!-- Generator: Adobe Illustrator 24.1.1, SVG Export Plug-In . SVG Version: 6.00 Build 0)  -->
<svg version="1.1" xmlns="http://www.w3.org/2000/svg" xmlns:xlink="http://www.w3.org/1999/xlink" x="0px" y="0px"
	 viewBox="0 0 3473.2 164.6" style="enable-background:new 0 0 3473.2 164.6;" xml:space="preserve">
<style type="text/css">
	.st0{fill:#E6A47B;}
	.st1{fill:#F7C186;}
	.st2{fill:#F4D9AE;}
</style>
<g id="Слой_1">
	<polygon class="st0" points="113.2,99.9 113.2,94.5 107.8,94.5 107.8,89.2 97,89.2 97,83.8 16.2,83.8 16.2,89.2 5.4,89.2 5.4,94.5 
		0,94.5 0,99.9 5.4,99.9 5.4,159.2 0,159.2 0,164.6 113.2,164.6 113.2,159.2 107.8,159.2 107.8,99.9 	"/>
	<g>
		<polygon class="st0" points="97,126.8 97,159.2 75.5,159.2 75.5,126.8 80.9,126.8 80.9,121.4 91.7,121.4 91.7,126.8 		"/>
		<polygon class="st0" points="70.1,126.8 70.1,159.2 48.5,159.2 48.5,126.8 53.9,126.8 53.9,121.4 64.7,121.4 64.7,126.8 		"/>
		<polygon class="st0" points="37.7,126.8 37.7,159.2 16.2,159.2 16.2,126.8 21.6,126.8 21.6,121.4 32.3,121.4 32.3,126.8 		"/>
		<path class="st1" d="M107.8,159.2V99.9H5.4v59.3H0v5.4h113.2v-5.4H107.8z M102.4,159.2H10.8v-37.8h5.4V116h21.6v5.4h10.8V116h21.6
			v5.4h5.4V116H97v5.4h5.4V159.2z"/>
		<polygon class="st2" points="102.4,121.4 102.4,159.2 97,159.2 97,126.8 91.7,126.8 91.7,121.4 80.9,121.4 80.9,126.8 75.5,126.8 
			75.5,159.2 70.1,159.2 70.1,126.8 64.7,126.8 64.7,121.4 53.9,121.4 53.9,126.8 48.5,126.8 48.5,159.2 37.7,159.2 37.7,126.8 
			32.3,126.8 32.3,121.4 21.6,121.4 21.6,126.8 16.2,126.8 16.2,159.2 10.8,159.2 10.8,121.4 16.2,121.4 16.2,116 37.7,116 
			37.7,121.4 48.5,121.4 48.5,116 70.1,116 70.1,121.4 75.5,121.4 75.5,116 97,116 97,121.4 		"/>
		<polygon class="st0" points="113.2,94.5 113.2,99.9 0,99.9 0,94.5 5.4,94.5 5.4,89.1 16.2,89.1 16.2,83.7 97,83.7 97,89.1 
			107.8,89.1 107.8,94.5 		"/>
	</g>
	<polygon class="st0" points="182.5,130 182.5,127.2 179.6,127.2 179.6,124.3 173.9,124.3 173.9,121.4 130.7,121.4 130.7,124.3 
		125,124.3 125,127.2 122.1,127.2 122.1,130 125,130 125,161.7 122.1,161.7 122.1,164.6 182.5,164.6 182.5,161.7 179.6,161.7 
		179.6,130 	"/>
	<g>
		<polygon class="st0" points="173.9,144.5 173.9,161.8 162.4,161.8 162.4,144.5 165.2,144.5 165.2,141.6 171,141.6 171,144.5 		"/>
		<polygon class="st0" points="159.5,144.5 159.5,161.8 148,161.8 148,144.5 150.9,144.5 150.9,141.6 156.6,141.6 156.6,144.5 		"/>
		<polygon class="st0" points="142.2,144.5 142.2,161.8 130.7,161.8 130.7,144.5 133.6,144.5 133.6,141.6 139.3,141.6 139.3,144.5 
					"/>
		<path class="st1" d="M179.6,161.8v-31.7H125v31.6h-2.9v2.9h60.4v-2.9L179.6,161.8L179.6,161.8z M176.7,161.8h-48.9v-20.2h2.9v-2.9
			h11.5v2.9h5.8v-2.9h11.5v2.9h2.9v-2.9h11.5v2.9h2.9L176.7,161.8L176.7,161.8z"/>
		<polygon class="st2" points="176.7,141.6 176.7,161.8 173.9,161.8 173.9,144.5 171,144.5 171,141.6 165.2,141.6 165.2,144.5 
			162.4,144.5 162.4,161.8 159.5,161.8 159.5,144.5 156.6,144.5 156.6,141.6 150.9,141.6 150.9,144.5 148,144.5 148,161.8 
			142.2,161.8 142.2,144.5 139.3,144.5 139.3,141.6 133.6,141.6 133.6,144.5 130.7,144.5 130.7,161.8 127.8,161.8 127.8,141.6 
			130.7,141.6 130.7,138.7 142.2,138.7 142.2,141.6 148,141.6 148,138.7 159.5,138.7 159.5,141.6 162.4,141.6 162.4,138.7 
			173.9,138.7 173.9,141.6 		"/>
		<polygon class="st0" points="182.5,127.2 182.5,130.1 122.1,130.1 122.1,127.2 125,127.2 125,124.3 130.7,124.3 130.7,121.5 
			173.9,121.5 173.9,124.3 179.6,124.3 179.6,127.2 		"/>
	</g>
	<polygon class="st0" points="295.9,99.9 295.9,94.5 290.5,94.5 290.5,89.2 279.7,89.2 279.7,83.8 198.9,83.8 198.9,89.2 
		188.1,89.2 188.1,94.5 182.7,94.5 182.7,99.9 188.1,99.9 188.1,159.2 182.7,159.2 182.7,164.6 295.9,164.6 295.9,159.2 
		290.5,159.2 290.5,99.9 	"/>
	<g>
		<polygon class="st0" points="279.7,126.8 279.7,159.2 258.2,159.2 258.2,126.8 263.6,126.8 263.6,121.4 274.4,121.4 274.4,126.8 
					"/>
		<polygon class="st0" points="252.8,126.8 252.8,159.2 231.2,159.2 231.2,126.8 236.6,126.8 236.6,121.4 247.4,121.4 247.4,126.8 
					"/>
		<polygon class="st0" points="220.4,126.8 220.4,159.2 198.9,159.2 198.9,126.8 204.3,126.8 204.3,121.4 215,121.4 215,126.8 		"/>
		<path class="st1" d="M290.5,159.2V99.9H188.1v59.3h-5.4v5.4h113.2v-5.4H290.5z M285.1,159.2h-91.6v-37.8h5.4V116h21.6v5.4h10.8
			V116h21.6v5.4h5.4V116h21.4v5.4h5.4V159.2z"/>
		<polygon class="st2" points="285.1,121.4 285.1,159.2 279.7,159.2 279.7,126.8 274.4,126.8 274.4,121.4 263.6,121.4 263.6,126.8 
			258.2,126.8 258.2,159.2 252.8,159.2 252.8,126.8 247.4,126.8 247.4,121.4 236.6,121.4 236.6,126.8 231.2,126.8 231.2,159.2 
			220.4,159.2 220.4,126.8 215,126.8 215,121.4 204.3,121.4 204.3,126.8 198.9,126.8 198.9,159.2 193.5,159.2 193.5,121.4 
			198.9,121.4 198.9,116 220.4,116 220.4,121.4 231.2,121.4 231.2,116 252.8,116 252.8,121.4 258.2,121.4 258.2,116 279.7,116 
			279.7,121.4 		"/>
		<polygon class="st0" points="295.9,94.5 295.9,99.9 182.7,99.9 182.7,94.5 188.1,94.5 188.1,89.1 198.9,89.1 198.9,83.7 
			279.7,83.7 279.7,89.1 290.5,89.1 290.5,94.5 		"/>
	</g>
	<polygon class="st0" points="365.2,130 365.2,127.2 362.3,127.2 362.3,124.3 356.6,124.3 356.6,121.4 313.4,121.4 313.4,124.3 
		307.7,124.3 307.7,127.2 304.8,127.2 304.8,130 307.7,130 307.7,161.7 304.8,161.7 304.8,164.6 365.2,164.6 365.2,161.7 
		362.3,161.7 362.3,130 	"/>
	<g>
		<polygon class="st0" points="356.6,144.5 356.6,161.8 345.1,161.8 345.1,144.5 347.9,144.5 347.9,141.6 353.7,141.6 353.7,144.5 
					"/>
		<polygon class="st0" points="342.2,144.5 342.2,161.8 330.7,161.8 330.7,144.5 333.6,144.5 333.6,141.6 339.3,141.6 339.3,144.5 
					"/>
		<polygon class="st0" points="324.9,144.5 324.9,161.8 313.4,161.8 313.4,144.5 316.3,144.5 316.3,141.6 322,141.6 322,144.5 		"/>
		<path class="st1" d="M362.3,161.8v-31.7h-54.6v31.6h-2.9v2.9h60.4v-2.9L362.3,161.8L362.3,161.8z M359.4,161.8h-48.9v-20.2h2.9
			v-2.9h11.5v2.9h5.8v-2.9h11.5v2.9h2.9v-2.9h11.5v2.9h2.9L359.4,161.8L359.4,161.8z"/>
		<polygon class="st2" points="359.4,141.6 359.4,161.8 356.6,161.8 356.6,144.5 353.7,144.5 353.7,141.6 347.9,141.6 347.9,144.5 
			345.1,144.5 345.1,161.8 342.2,161.8 342.2,144.5 339.3,144.5 339.3,141.6 333.6,141.6 333.6,144.5 330.7,144.5 330.7,161.8 
			324.9,161.8 324.9,144.5 322,144.5 322,141.6 316.3,141.6 316.3,144.5 313.4,144.5 313.4,161.8 310.5,161.8 310.5,141.6 
			313.4,141.6 313.4,138.7 324.9,138.7 324.9,141.6 330.7,141.6 330.7,138.7 342.2,138.7 342.2,141.6 345.1,141.6 345.1,138.7 
			356.6,138.7 356.6,141.6 		"/>
		<polygon class="st0" points="365.2,127.2 365.2,130.1 304.8,130.1 304.8,127.2 307.7,127.2 307.7,124.3 313.4,124.3 313.4,121.5 
			356.6,121.5 356.6,124.3 362.3,124.3 362.3,127.2 		"/>
	</g>
	<polygon class="st0" points="478.7,99.9 478.7,94.5 473.3,94.5 473.3,89.2 462.5,89.2 462.5,83.8 381.7,83.8 381.7,89.2 
		370.9,89.2 370.9,94.5 365.5,94.5 365.5,99.9 370.9,99.9 370.9,159.2 365.5,159.2 365.5,164.6 478.7,164.6 478.7,159.2 
		473.3,159.2 473.3,99.9 	"/>
	<g>
		<polygon class="st0" points="462.5,126.8 462.5,159.2 441,159.2 441,126.8 446.4,126.8 446.4,121.4 457.2,121.4 457.2,126.8 		"/>
		<polygon class="st0" points="435.6,126.8 435.6,159.2 414,159.2 414,126.8 419.4,126.8 419.4,121.4 430.2,121.4 430.2,126.8 		"/>
		<polygon class="st0" points="403.2,126.8 403.2,159.2 381.7,159.2 381.7,126.8 387.1,126.8 387.1,121.4 397.8,121.4 397.8,126.8 
					"/>
		<path class="st1" d="M473.3,159.2V99.9H370.9v59.3h-5.4v5.4h113.2v-5.4H473.3z M467.9,159.2h-91.6v-37.8h5.4V116h21.6v5.4h10.8
			V116h21.6v5.4h5.4V116h21.4v5.4h5.4V159.2z"/>
		<polygon class="st2" points="467.9,121.4 467.9,159.2 462.5,159.2 462.5,126.8 457.2,126.8 457.2,121.4 446.4,121.4 446.4,126.8 
			441,126.8 441,159.2 435.6,159.2 435.6,126.8 430.2,126.8 430.2,121.4 419.4,121.4 419.4,126.8 414,126.8 414,159.2 403.2,159.2 
			403.2,126.8 397.8,126.8 397.8,121.4 387.1,121.4 387.1,126.8 381.7,126.8 381.7,159.2 376.3,159.2 376.3,121.4 381.7,121.4 
			381.7,116 403.2,116 403.2,121.4 414,121.4 414,116 435.6,116 435.6,121.4 441,121.4 441,116 462.5,116 462.5,121.4 		"/>
		<polygon class="st0" points="478.7,94.5 478.7,99.9 365.5,99.9 365.5,94.5 370.9,94.5 370.9,89.1 381.7,89.1 381.7,83.7 
			462.5,83.7 462.5,89.1 473.3,89.1 473.3,94.5 		"/>
	</g>
	<polygon class="st0" points="548,130 548,127.2 545.1,127.2 545.1,124.3 539.4,124.3 539.4,121.4 496.2,121.4 496.2,124.3 
		490.5,124.3 490.5,127.2 487.6,127.2 487.6,130 490.5,130 490.5,161.7 487.6,161.7 487.6,164.6 548,164.6 548,161.7 545.1,161.7 
		545.1,130 	"/>
	<g>
		<polygon class="st0" points="539.4,144.5 539.4,161.8 527.9,161.8 527.9,144.5 530.7,144.5 530.7,141.6 536.5,141.6 536.5,144.5 
					"/>
		<polygon class="st0" points="525,144.5 525,161.8 513.5,161.8 513.5,144.5 516.4,144.5 516.4,141.6 522.1,141.6 522.1,144.5 		"/>
		<polygon class="st0" points="507.7,144.5 507.7,161.8 496.2,161.8 496.2,144.5 499.1,144.5 499.1,141.6 504.8,141.6 504.8,144.5 
					"/>
		<path class="st1" d="M545.1,161.8v-31.7h-54.6v31.6h-2.9v2.9H548v-2.9L545.1,161.8L545.1,161.8z M542.2,161.8h-48.9v-20.2h2.9
			v-2.9h11.5v2.9h5.8v-2.9H525v2.9h2.9v-2.9h11.5v2.9h2.9L542.2,161.8L542.2,161.8z"/>
		<polygon class="st2" points="542.2,141.6 542.2,161.8 539.4,161.8 539.4,144.5 536.5,144.5 536.5,141.6 530.7,141.6 530.7,144.5 
			527.9,144.5 527.9,161.8 525,161.8 525,144.5 522.1,144.5 522.1,141.6 516.4,141.6 516.4,144.5 513.5,144.5 513.5,161.8 
			507.7,161.8 507.7,144.5 504.8,144.5 504.8,141.6 499.1,141.6 499.1,144.5 496.2,144.5 496.2,161.8 493.3,161.8 493.3,141.6 
			496.2,141.6 496.2,138.7 507.7,138.7 507.7,141.6 513.5,141.6 513.5,138.7 525,138.7 525,141.6 527.9,141.6 527.9,138.7 
			539.4,138.7 539.4,141.6 		"/>
		<polygon class="st0" points="548,127.2 548,130.1 487.6,130.1 487.6,127.2 490.5,127.2 490.5,124.3 496.2,124.3 496.2,121.5 
			539.4,121.5 539.4,124.3 545.1,124.3 545.1,127.2 		"/>
	</g>
	<polygon class="st0" points="661.8,99.9 661.8,94.5 656.3,94.5 656.3,89.2 645.5,89.2 645.5,83.8 564.8,83.8 564.8,89.2 554,89.2 
		554,94.5 548.5,94.5 548.5,99.9 554,99.9 554,159.2 548.5,159.2 548.5,164.6 661.8,164.6 661.8,159.2 656.3,159.2 656.3,99.9 	"/>
	<g>
		<polygon class="st0" points="645.5,126.8 645.5,159.2 624,159.2 624,126.8 629.5,126.8 629.5,121.4 640.3,121.4 640.3,126.8 		"/>
		<polygon class="st0" points="618.6,126.8 618.6,159.2 597,159.2 597,126.8 602.5,126.8 602.5,121.4 613.3,121.4 613.3,126.8 		"/>
		<polygon class="st0" points="586.3,126.8 586.3,159.2 564.8,159.2 564.8,126.8 570.1,126.8 570.1,121.4 580.8,121.4 580.8,126.8 
					"/>
		<path class="st1" d="M656.3,159.2V99.9H554v59.3h-5.4v5.4h113.2v-5.4H656.3z M651,159.2h-91.6v-37.8h5.4V116h21.6v5.4h10.8V116
			h21.6v5.4h5.4V116h21.4v5.4h5.4V159.2z"/>
		<polygon class="st2" points="651,121.4 651,159.2 645.5,159.2 645.5,126.8 640.3,126.8 640.3,121.4 629.5,121.4 629.5,126.8 
			624,126.8 624,159.2 618.6,159.2 618.6,126.8 613.3,126.8 613.3,121.4 602.5,121.4 602.5,126.8 597,126.8 597,159.2 586.3,159.2 
			586.3,126.8 580.8,126.8 580.8,121.4 570.1,121.4 570.1,126.8 564.8,126.8 564.8,159.2 559.3,159.2 559.3,121.4 564.8,121.4 
			564.8,116 586.3,116 586.3,121.4 597,121.4 597,116 618.6,116 618.6,121.4 624,121.4 624,116 645.5,116 645.5,121.4 		"/>
		<polygon class="st0" points="661.8,94.5 661.8,99.9 548.5,99.9 548.5,94.5 554,94.5 554,89.1 564.8,89.1 564.8,83.7 645.5,83.7 
			645.5,89.1 656.3,89.1 656.3,94.5 		"/>
	</g>
	<polygon class="st0" points="731,130 731,127.2 728.2,127.2 728.2,124.3 722.4,124.3 722.4,121.4 679.3,121.4 679.3,124.3 
		673.5,124.3 673.5,127.2 670.6,127.2 670.6,130 673.5,130 673.5,161.7 670.6,161.7 670.6,164.6 731,164.6 731,161.7 728.2,161.7 
		728.2,130 	"/>
	<g>
		<polygon class="st0" points="722.4,144.5 722.4,161.8 710.9,161.8 710.9,144.5 713.8,144.5 713.8,141.6 719.5,141.6 719.5,144.5 
					"/>
		<polygon class="st0" points="708,144.5 708,161.8 696.5,161.8 696.5,144.5 699.4,144.5 699.4,141.6 705.2,141.6 705.2,144.5 		"/>
		<polygon class="st0" points="690.8,144.5 690.8,161.8 679.3,161.8 679.3,144.5 682.2,144.5 682.2,141.6 687.8,141.6 687.8,144.5 
					"/>
		<path class="st1" d="M728.2,161.8v-31.7h-54.6v31.6h-2.9v2.9H731v-2.9L728.2,161.8L728.2,161.8z M725.3,161.8h-48.9v-20.2h2.9
			v-2.9h11.5v2.9h5.8v-2.9H708v2.9h2.9v-2.9h11.5v2.9h2.9L725.3,161.8L725.3,161.8z"/>
		<polygon class="st2" points="725.3,141.6 725.3,161.8 722.4,161.8 722.4,144.5 719.5,144.5 719.5,141.6 713.8,141.6 713.8,144.5 
			710.9,144.5 710.9,161.8 708,161.8 708,144.5 705.2,144.5 705.2,141.6 699.4,141.6 699.4,144.5 696.5,144.5 696.5,161.8 
			690.8,161.8 690.8,144.5 687.8,144.5 687.8,141.6 682.2,141.6 682.2,144.5 679.3,144.5 679.3,161.8 676.3,161.8 676.3,141.6 
			679.3,141.6 679.3,138.7 690.8,138.7 690.8,141.6 696.5,141.6 696.5,138.7 708,138.7 708,141.6 710.9,141.6 710.9,138.7 
			722.4,138.7 722.4,141.6 		"/>
		<polygon class="st0" points="731,127.2 731,130.1 670.6,130.1 670.6,127.2 673.5,127.2 673.5,124.3 679.3,124.3 679.3,121.5 
			722.4,121.5 722.4,124.3 728.2,124.3 728.2,127.2 		"/>
	</g>
	<polygon class="st0" points="844.3,99.9 844.3,94.5 838.9,94.5 838.9,89.2 828.1,89.2 828.1,83.8 747.3,83.8 747.3,89.2 
		736.5,89.2 736.5,94.5 731.1,94.5 731.1,99.9 736.5,99.9 736.5,159.2 731.1,159.2 731.1,164.6 844.3,164.6 844.3,159.2 
		838.9,159.2 838.9,99.9 	"/>
	<g>
		<polygon class="st0" points="828.1,126.8 828.1,159.2 806.6,159.2 806.6,126.8 812,126.8 812,121.4 822.8,121.4 822.8,126.8 		"/>
		<polygon class="st0" points="801.2,126.8 801.2,159.2 779.6,159.2 779.6,126.8 785,126.8 785,121.4 795.8,121.4 795.8,126.8 		"/>
		<polygon class="st0" points="768.8,126.8 768.8,159.2 747.3,159.2 747.3,126.8 752.7,126.8 752.7,121.4 763.4,121.4 763.4,126.8 
					"/>
		<path class="st1" d="M838.9,159.2V99.9H736.5v59.3h-5.4v5.4h113.2v-5.4H838.9z M833.5,159.2h-91.6v-37.8h5.4V116h21.6v5.4h10.8
			V116h21.6v5.4h5.4V116h21.4v5.4h5.4V159.2z"/>
		<polygon class="st2" points="833.5,121.4 833.5,159.2 828.1,159.2 828.1,126.8 822.8,126.8 822.8,121.4 812,121.4 812,126.8 
			806.6,126.8 806.6,159.2 801.2,159.2 801.2,126.8 795.8,126.8 795.8,121.4 785,121.4 785,126.8 779.6,126.8 779.6,159.2 
			768.8,159.2 768.8,126.8 763.4,126.8 763.4,121.4 752.7,121.4 752.7,126.8 747.3,126.8 747.3,159.2 741.9,159.2 741.9,121.4 
			747.3,121.4 747.3,116 768.8,116 768.8,121.4 779.6,121.4 779.6,116 801.2,116 801.2,121.4 806.6,121.4 806.6,116 828.1,116 
			828.1,121.4 		"/>
		<polygon class="st0" points="844.3,94.5 844.3,99.9 731.1,99.9 731.1,94.5 736.5,94.5 736.5,89.1 747.3,89.1 747.3,83.7 
			828.1,83.7 828.1,89.1 838.9,89.1 838.9,94.5 		"/>
	</g>
	<polygon class="st0" points="913.6,130 913.6,127.2 910.7,127.2 910.7,124.3 905,124.3 905,121.4 861.8,121.4 861.8,124.3 
		856.1,124.3 856.1,127.2 853.2,127.2 853.2,130 856.1,130 856.1,161.7 853.2,161.7 853.2,164.6 913.6,164.6 913.6,161.7 
		910.7,161.7 910.7,130 	"/>
	<g>
		<polygon class="st0" points="905,144.5 905,161.8 893.5,161.8 893.5,144.5 896.3,144.5 896.3,141.6 902.1,141.6 902.1,144.5 		"/>
		<polygon class="st0" points="890.6,144.5 890.6,161.8 879.1,161.8 879.1,144.5 882,144.5 882,141.6 887.7,141.6 887.7,144.5 		"/>
		<polygon class="st0" points="873.3,144.5 873.3,161.8 861.8,161.8 861.8,144.5 864.7,144.5 864.7,141.6 870.4,141.6 870.4,144.5 
					"/>
		<path class="st1" d="M910.7,161.8v-31.7h-54.6v31.6h-2.9v2.9h60.4v-2.9L910.7,161.8L910.7,161.8z M907.8,161.8h-48.9v-20.2h2.9
			v-2.9h11.5v2.9h5.8v-2.9h11.5v2.9h2.9v-2.9H905v2.9h2.9L907.8,161.8L907.8,161.8z"/>
		<polygon class="st2" points="907.8,141.6 907.8,161.8 905,161.8 905,144.5 902.1,144.5 902.1,141.6 896.3,141.6 896.3,144.5 
			893.5,144.5 893.5,161.8 890.6,161.8 890.6,144.5 887.7,144.5 887.7,141.6 882,141.6 882,144.5 879.1,144.5 879.1,161.8 
			873.3,161.8 873.3,144.5 870.4,144.5 870.4,141.6 864.7,141.6 864.7,144.5 861.8,144.5 861.8,161.8 858.9,161.8 858.9,141.6 
			861.8,141.6 861.8,138.7 873.3,138.7 873.3,141.6 879.1,141.6 879.1,138.7 890.6,138.7 890.6,141.6 893.5,141.6 893.5,138.7 
			905,138.7 905,141.6 		"/>
		<polygon class="st0" points="913.6,127.2 913.6,130.1 853.2,130.1 853.2,127.2 856.1,127.2 856.1,124.3 861.8,124.3 861.8,121.5 
			905,121.5 905,124.3 910.7,124.3 910.7,127.2 		"/>
	</g>
	<polygon class="st0" points="1026.8,99.9 1026.8,94.5 1021.4,94.5 1021.4,89.2 1010.6,89.2 1010.6,83.8 929.8,83.8 929.8,89.2 
		919,89.2 919,94.5 913.6,94.5 913.6,99.9 919,99.9 919,159.2 913.6,159.2 913.6,164.6 1026.8,164.6 1026.8,159.2 1021.4,159.2 
		1021.4,99.9 	"/>
	<g>
		<polygon class="st0" points="1010.6,126.8 1010.6,159.2 989.1,159.2 989.1,126.8 994.5,126.8 994.5,121.4 1005.3,121.4 
			1005.3,126.8 		"/>
		<polygon class="st0" points="983.7,126.8 983.7,159.2 962.1,159.2 962.1,126.8 967.5,126.8 967.5,121.4 978.3,121.4 978.3,126.8 
					"/>
		<polygon class="st0" points="951.3,126.8 951.3,159.2 929.8,159.2 929.8,126.8 935.2,126.8 935.2,121.4 945.9,121.4 945.9,126.8 
					"/>
		<path class="st1" d="M1021.4,159.2V99.9H919v59.3h-5.4v5.4h113.2v-5.4H1021.4z M1016,159.2h-91.6v-37.8h5.4V116h21.6v5.4h10.8V116
			h21.6v5.4h5.4V116h21.4v5.4h5.4V159.2z"/>
		<polygon class="st2" points="1016,121.4 1016,159.2 1010.6,159.2 1010.6,126.8 1005.3,126.8 1005.3,121.4 994.5,121.4 
			994.5,126.8 989.1,126.8 989.1,159.2 983.7,159.2 983.7,126.8 978.3,126.8 978.3,121.4 967.5,121.4 967.5,126.8 962.1,126.8 
			962.1,159.2 951.3,159.2 951.3,126.8 945.9,126.8 945.9,121.4 935.2,121.4 935.2,126.8 929.8,126.8 929.8,159.2 924.4,159.2 
			924.4,121.4 929.8,121.4 929.8,116 951.3,116 951.3,121.4 962.1,121.4 962.1,116 983.7,116 983.7,121.4 989.1,121.4 989.1,116 
			1010.6,116 1010.6,121.4 		"/>
		<polygon class="st0" points="1026.8,94.5 1026.8,99.9 913.6,99.9 913.6,94.5 919,94.5 919,89.1 929.8,89.1 929.8,83.7 
			1010.6,83.7 1010.6,89.1 1021.4,89.1 1021.4,94.5 		"/>
	</g>
	<polygon class="st0" points="1096.1,130 1096.1,127.2 1093.3,127.2 1093.3,124.3 1087.5,124.3 1087.5,121.4 1044.3,121.4 
		1044.3,124.3 1038.6,124.3 1038.6,127.2 1035.8,127.2 1035.8,130 1038.6,130 1038.6,161.7 1035.8,161.7 1035.8,164.6 1096.1,164.6 
		1096.1,161.7 1093.3,161.7 1093.3,130 	"/>
	<g>
		<polygon class="st0" points="1087.5,144.5 1087.5,161.8 1076,161.8 1076,144.5 1078.8,144.5 1078.8,141.6 1084.6,141.6 
			1084.6,144.5 		"/>
		<polygon class="st0" points="1073.1,144.5 1073.1,161.8 1061.6,161.8 1061.6,144.5 1064.5,144.5 1064.5,141.6 1070.3,141.6 
			1070.3,144.5 		"/>
		<polygon class="st0" points="1055.8,144.5 1055.8,161.8 1044.3,161.8 1044.3,144.5 1047.3,144.5 1047.3,141.6 1052.9,141.6 
			1052.9,144.5 		"/>
		<path class="st1" d="M1093.3,161.8v-31.7h-54.6v31.6h-2.9v2.9h60.4v-2.9L1093.3,161.8L1093.3,161.8z M1090.3,161.8h-48.9v-20.2
			h2.9v-2.9h11.5v2.9h5.8v-2.9h11.5v2.9h2.9v-2.9h11.5v2.9h2.9L1090.3,161.8L1090.3,161.8z"/>
		<polygon class="st2" points="1090.3,141.6 1090.3,161.8 1087.5,161.8 1087.5,144.5 1084.6,144.5 1084.6,141.6 1078.8,141.6 
			1078.8,144.5 1076,144.5 1076,161.8 1073.1,161.8 1073.1,144.5 1070.3,144.5 1070.3,141.6 1064.5,141.6 1064.5,144.5 
			1061.6,144.5 1061.6,161.8 1055.8,161.8 1055.8,144.5 1052.9,144.5 1052.9,141.6 1047.3,141.6 1047.3,144.5 1044.3,144.5 
			1044.3,161.8 1041.4,161.8 1041.4,141.6 1044.3,141.6 1044.3,138.7 1055.8,138.7 1055.8,141.6 1061.6,141.6 1061.6,138.7 
			1073.1,138.7 1073.1,141.6 1076,141.6 1076,138.7 1087.5,138.7 1087.5,141.6 		"/>
		<polygon class="st0" points="1096.1,127.2 1096.1,130.1 1035.8,130.1 1035.8,127.2 1038.6,127.2 1038.6,124.3 1044.3,124.3 
			1044.3,121.5 1087.5,121.5 1087.5,124.3 1093.3,124.3 1093.3,127.2 		"/>
	</g>
	<polygon class="st0" points="1209.4,99.9 1209.4,94.5 1204,94.5 1204,89.2 1193.2,89.2 1193.2,83.8 1112.4,83.8 1112.4,89.2 
		1101.6,89.2 1101.6,94.5 1096.2,94.5 1096.2,99.9 1101.6,99.9 1101.6,159.2 1096.2,159.2 1096.2,164.6 1209.4,164.6 1209.4,159.2 
		1204,159.2 1204,99.9 	"/>
	<g>
		<polygon class="st0" points="1193.2,126.8 1193.2,159.2 1171.7,159.2 1171.7,126.8 1177.1,126.8 1177.1,121.4 1187.9,121.4 
			1187.9,126.8 		"/>
		<polygon class="st0" points="1166.3,126.8 1166.3,159.2 1144.7,159.2 1144.7,126.8 1150.1,126.8 1150.1,121.4 1160.9,121.4 
			1160.9,126.8 		"/>
		<polygon class="st0" points="1133.9,126.8 1133.9,159.2 1112.4,159.2 1112.4,126.8 1117.8,126.8 1117.8,121.4 1128.5,121.4 
			1128.5,126.8 		"/>
		<path class="st1" d="M1204,159.2V99.9h-102.4v59.3h-5.4v5.4h113.2v-5.4H1204z M1198.6,159.2H1107v-37.8h5.4V116h21.6v5.4h10.8V116
			h21.6v5.4h5.4V116h21.4v5.4h5.4V159.2z"/>
		<polygon class="st2" points="1198.6,121.4 1198.6,159.2 1193.2,159.2 1193.2,126.8 1187.9,126.8 1187.9,121.4 1177.1,121.4 
			1177.1,126.8 1171.7,126.8 1171.7,159.2 1166.3,159.2 1166.3,126.8 1160.9,126.8 1160.9,121.4 1150.1,121.4 1150.1,126.8 
			1144.7,126.8 1144.7,159.2 1133.9,159.2 1133.9,126.8 1128.5,126.8 1128.5,121.4 1117.8,121.4 1117.8,126.8 1112.4,126.8 
			1112.4,159.2 1107,159.2 1107,121.4 1112.4,121.4 1112.4,116 1133.9,116 1133.9,121.4 1144.7,121.4 1144.7,116 1166.3,116 
			1166.3,121.4 1171.7,121.4 1171.7,116 1193.2,116 1193.2,121.4 		"/>
		<polygon class="st0" points="1209.4,94.5 1209.4,99.9 1096.2,99.9 1096.2,94.5 1101.6,94.5 1101.6,89.1 1112.4,89.1 1112.4,83.7 
			1193.2,83.7 1193.2,89.1 1204,89.1 1204,94.5 		"/>
	</g>
	<polygon class="st0" points="1278.7,130 1278.7,127.2 1275.8,127.2 1275.8,124.3 1270.1,124.3 1270.1,121.4 1226.9,121.4 
		1226.9,124.3 1221.2,124.3 1221.2,127.2 1218.3,127.2 1218.3,130 1221.2,130 1221.2,161.7 1218.3,161.7 1218.3,164.6 1278.7,164.6 
		1278.7,161.7 1275.8,161.7 1275.8,130 	"/>
	<g>
		<polygon class="st0" points="1270.1,144.5 1270.1,161.8 1258.6,161.8 1258.6,144.5 1261.4,144.5 1261.4,141.6 1267.2,141.6 
			1267.2,144.5 		"/>
		<polygon class="st0" points="1255.7,144.5 1255.7,161.8 1244.2,161.8 1244.2,144.5 1247.1,144.5 1247.1,141.6 1252.8,141.6 
			1252.8,144.5 		"/>
		<polygon class="st0" points="1238.4,144.5 1238.4,161.8 1226.9,161.8 1226.9,144.5 1229.8,144.5 1229.8,141.6 1235.5,141.6 
			1235.5,144.5 		"/>
		<path class="st1" d="M1275.8,161.8v-31.7h-54.6v31.6h-2.9v2.9h60.4v-2.9L1275.8,161.8L1275.8,161.8z M1272.9,161.8H1224v-20.2h2.9
			v-2.9h11.5v2.9h5.8v-2.9h11.5v2.9h2.9v-2.9h11.5v2.9h2.9v20.2H1272.9z"/>
		<polygon class="st2" points="1272.9,141.6 1272.9,161.8 1270.1,161.8 1270.1,144.5 1267.2,144.5 1267.2,141.6 1261.4,141.6 
			1261.4,144.5 1258.6,144.5 1258.6,161.8 1255.7,161.8 1255.7,144.5 1252.8,144.5 1252.8,141.6 1247.1,141.6 1247.1,144.5 
			1244.2,144.5 1244.2,161.8 1238.4,161.8 1238.4,144.5 1235.5,144.5 1235.5,141.6 1229.8,141.6 1229.8,144.5 1226.9,144.5 
			1226.9,161.8 1224,161.8 1224,141.6 1226.9,141.6 1226.9,138.7 1238.4,138.7 1238.4,141.6 1244.2,141.6 1244.2,138.7 
			1255.7,138.7 1255.7,141.6 1258.6,141.6 1258.6,138.7 1270.1,138.7 1270.1,141.6 		"/>
		<polygon class="st0" points="1278.7,127.2 1278.7,130.1 1218.3,130.1 1218.3,127.2 1221.2,127.2 1221.2,124.3 1226.9,124.3 
			1226.9,121.5 1270.1,121.5 1270.1,124.3 1275.8,124.3 1275.8,127.2 		"/>
	</g>
	<polygon class="st0" points="1392.4,99.9 1392.4,94.5 1387,94.5 1387,89.2 1376.2,89.2 1376.2,83.8 1295.4,83.8 1295.4,89.2 
		1284.6,89.2 1284.6,94.5 1279.2,94.5 1279.2,99.9 1284.6,99.9 1284.6,159.2 1279.2,159.2 1279.2,164.6 1392.4,164.6 1392.4,159.2 
		1387,159.2 1387,99.9 	"/>
	<g>
		<polygon class="st0" points="1376.2,126.8 1376.2,159.2 1354.7,159.2 1354.7,126.8 1360.1,126.8 1360.1,121.4 1370.9,121.4 
			1370.9,126.8 		"/>
		<polygon class="st0" points="1349.3,126.8 1349.3,159.2 1327.7,159.2 1327.7,126.8 1333.1,126.8 1333.1,121.4 1343.9,121.4 
			1343.9,126.8 		"/>
		<polygon class="st0" points="1316.9,126.8 1316.9,159.2 1295.4,159.2 1295.4,126.8 1300.8,126.8 1300.8,121.4 1311.5,121.4 
			1311.5,126.8 		"/>
		<path class="st1" d="M1387,159.2V99.9h-102.4v59.3h-5.4v5.4h113.2v-5.4H1387z M1381.6,159.2H1290v-37.8h5.4V116h21.6v5.4h10.8V116
			h21.6v5.4h5.4V116h21.4v5.4h5.4V159.2z"/>
		<polygon class="st2" points="1381.6,121.4 1381.6,159.2 1376.2,159.2 1376.2,126.8 1370.9,126.8 1370.9,121.4 1360.1,121.4 
			1360.1,126.8 1354.7,126.8 1354.7,159.2 1349.3,159.2 1349.3,126.8 1343.9,126.8 1343.9,121.4 1333.1,121.4 1333.1,126.8 
			1327.7,126.8 1327.7,159.2 1316.9,159.2 1316.9,126.8 1311.5,126.8 1311.5,121.4 1300.8,121.4 1300.8,126.8 1295.4,126.8 
			1295.4,159.2 1290,159.2 1290,121.4 1295.4,121.4 1295.4,116 1316.9,116 1316.9,121.4 1327.7,121.4 1327.7,116 1349.3,116 
			1349.3,121.4 1354.7,121.4 1354.7,116 1376.2,116 1376.2,121.4 		"/>
		<polygon class="st0" points="1392.4,94.5 1392.4,99.9 1279.2,99.9 1279.2,94.5 1284.6,94.5 1284.6,89.1 1295.4,89.1 1295.4,83.7 
			1376.2,83.7 1376.2,89.1 1387,89.1 1387,94.5 		"/>
	</g>
	<polygon class="st0" points="1461.7,130 1461.7,127.2 1458.8,127.2 1458.8,124.3 1453.1,124.3 1453.1,121.4 1409.9,121.4 
		1409.9,124.3 1404.2,124.3 1404.2,127.2 1401.3,127.2 1401.3,130 1404.2,130 1404.2,161.7 1401.3,161.7 1401.3,164.6 1461.7,164.6 
		1461.7,161.7 1458.8,161.7 1458.8,130 	"/>
	<g>
		<polygon class="st0" points="1453.1,144.5 1453.1,161.8 1441.6,161.8 1441.6,144.5 1444.4,144.5 1444.4,141.6 1450.2,141.6 
			1450.2,144.5 		"/>
		<polygon class="st0" points="1438.7,144.5 1438.7,161.8 1427.2,161.8 1427.2,144.5 1430.1,144.5 1430.1,141.6 1435.8,141.6 
			1435.8,144.5 		"/>
		<polygon class="st0" points="1421.4,144.5 1421.4,161.8 1409.9,161.8 1409.9,144.5 1412.8,144.5 1412.8,141.6 1418.5,141.6 
			1418.5,144.5 		"/>
		<path class="st1" d="M1458.8,161.8v-31.7h-54.6v31.6h-2.9v2.9h60.4v-2.9L1458.8,161.8L1458.8,161.8z M1455.9,161.8H1407v-20.2h2.9
			v-2.9h11.5v2.9h5.8v-2.9h11.5v2.9h2.9v-2.9h11.5v2.9h2.9L1455.9,161.8L1455.9,161.8z"/>
		<polygon class="st2" points="1455.9,141.6 1455.9,161.8 1453.1,161.8 1453.1,144.5 1450.2,144.5 1450.2,141.6 1444.4,141.6 
			1444.4,144.5 1441.6,144.5 1441.6,161.8 1438.7,161.8 1438.7,144.5 1435.8,144.5 1435.8,141.6 1430.1,141.6 1430.1,144.5 
			1427.2,144.5 1427.2,161.8 1421.4,161.8 1421.4,144.5 1418.5,144.5 1418.5,141.6 1412.8,141.6 1412.8,144.5 1409.9,144.5 
			1409.9,161.8 1407,161.8 1407,141.6 1409.9,141.6 1409.9,138.7 1421.4,138.7 1421.4,141.6 1427.2,141.6 1427.2,138.7 
			1438.7,138.7 1438.7,141.6 1441.6,141.6 1441.6,138.7 1453.1,138.7 1453.1,141.6 		"/>
		<polygon class="st0" points="1461.7,127.2 1461.7,130.1 1401.3,130.1 1401.3,127.2 1404.2,127.2 1404.2,124.3 1409.9,124.3 
			1409.9,121.5 1453.1,121.5 1453.1,124.3 1458.8,124.3 1458.8,127.2 		"/>
	</g>
	<polygon class="st0" points="1575.6,99.9 1575.6,94.5 1570.2,94.5 1570.2,89.2 1559.4,89.2 1559.4,83.8 1478.6,83.8 1478.6,89.2 
		1467.8,89.2 1467.8,94.5 1462.4,94.5 1462.4,99.9 1467.8,99.9 1467.8,159.2 1462.4,159.2 1462.4,164.6 1575.6,164.6 1575.6,159.2 
		1570.2,159.2 1570.2,99.9 	"/>
	<g>
		<polygon class="st0" points="1559.4,126.8 1559.4,159.2 1537.9,159.2 1537.9,126.8 1543.3,126.8 1543.3,121.4 1554.1,121.4 
			1554.1,126.8 		"/>
		<polygon class="st0" points="1532.5,126.8 1532.5,159.2 1510.9,159.2 1510.9,126.8 1516.3,126.8 1516.3,121.4 1527.1,121.4 
			1527.1,126.8 		"/>
		<polygon class="st0" points="1500.1,126.8 1500.1,159.2 1478.6,159.2 1478.6,126.8 1484,126.8 1484,121.4 1494.7,121.4 
			1494.7,126.8 		"/>
		<path class="st1" d="M1570.2,159.2V99.9h-102.4v59.3h-5.4v5.4h113.2v-5.4H1570.2z M1564.8,159.2h-91.6v-37.8h5.4V116h21.6v5.4
			h10.8V116h21.6v5.4h5.4V116h21.4v5.4h5.4V159.2z"/>
		<polygon class="st2" points="1564.8,121.4 1564.8,159.2 1559.4,159.2 1559.4,126.8 1554.1,126.8 1554.1,121.4 1543.3,121.4 
			1543.3,126.8 1537.9,126.8 1537.9,159.2 1532.5,159.2 1532.5,126.8 1527.1,126.8 1527.1,121.4 1516.3,121.4 1516.3,126.8 
			1510.9,126.8 1510.9,159.2 1500.1,159.2 1500.1,126.8 1494.7,126.8 1494.7,121.4 1484,121.4 1484,126.8 1478.6,126.8 
			1478.6,159.2 1473.2,159.2 1473.2,121.4 1478.6,121.4 1478.6,116 1500.1,116 1500.1,121.4 1510.9,121.4 1510.9,116 1532.5,116 
			1532.5,121.4 1537.9,121.4 1537.9,116 1559.4,116 1559.4,121.4 		"/>
		<polygon class="st0" points="1575.6,94.5 1575.6,99.9 1462.4,99.9 1462.4,94.5 1467.8,94.5 1467.8,89.1 1478.6,89.1 1478.6,83.7 
			1559.4,83.7 1559.4,89.1 1570.2,89.1 1570.2,94.5 		"/>
	</g>
	<polygon class="st0" points="1644.9,130 1644.9,127.2 1642,127.2 1642,124.3 1636.3,124.3 1636.3,121.4 1593.1,121.4 1593.1,124.3 
		1587.4,124.3 1587.4,127.2 1584.5,127.2 1584.5,130 1587.4,130 1587.4,161.7 1584.5,161.7 1584.5,164.6 1644.9,164.6 1644.9,161.7 
		1642,161.7 1642,130 	"/>
	<g>
		<polygon class="st0" points="1636.3,144.5 1636.3,161.8 1624.8,161.8 1624.8,144.5 1627.6,144.5 1627.6,141.6 1633.4,141.6 
			1633.4,144.5 		"/>
		<polygon class="st0" points="1621.9,144.5 1621.9,161.8 1610.4,161.8 1610.4,144.5 1613.3,144.5 1613.3,141.6 1619,141.6 
			1619,144.5 		"/>
		<polygon class="st0" points="1604.6,144.5 1604.6,161.8 1593.1,161.8 1593.1,144.5 1596,144.5 1596,141.6 1601.7,141.6 
			1601.7,144.5 		"/>
		<path class="st1" d="M1642,161.8v-31.7h-54.6v31.6h-2.9v2.9h60.4v-2.9L1642,161.8L1642,161.8z M1639.1,161.8h-48.9v-20.2h2.9v-2.9
			h11.5v2.9h5.8v-2.9h11.5v2.9h2.9v-2.9h11.5v2.9h2.9L1639.1,161.8L1639.1,161.8z"/>
		<polygon class="st2" points="1639.1,141.6 1639.1,161.8 1636.3,161.8 1636.3,144.5 1633.4,144.5 1633.4,141.6 1627.6,141.6 
			1627.6,144.5 1624.8,144.5 1624.8,161.8 1621.9,161.8 1621.9,144.5 1619,144.5 1619,141.6 1613.3,141.6 1613.3,144.5 
			1610.4,144.5 1610.4,161.8 1604.6,161.8 1604.6,144.5 1601.7,144.5 1601.7,141.6 1596,141.6 1596,144.5 1593.1,144.5 
			1593.1,161.8 1590.2,161.8 1590.2,141.6 1593.1,141.6 1593.1,138.7 1604.6,138.7 1604.6,141.6 1610.4,141.6 1610.4,138.7 
			1621.9,138.7 1621.9,141.6 1624.8,141.6 1624.8,138.7 1636.3,138.7 1636.3,141.6 		"/>
		<polygon class="st0" points="1644.9,127.2 1644.9,130.1 1584.5,130.1 1584.5,127.2 1587.4,127.2 1587.4,124.3 1593.1,124.3 
			1593.1,121.5 1636.3,121.5 1636.3,124.3 1642,124.3 1642,127.2 		"/>
	</g>
	<polygon class="st0" points="1759.1,99.9 1759.1,94.5 1753.7,94.5 1753.7,89.2 1742.9,89.2 1742.9,83.8 1662.1,83.8 1662.1,89.2 
		1651.3,89.2 1651.3,94.5 1645.9,94.5 1645.9,99.9 1651.3,99.9 1651.3,159.2 1645.9,159.2 1645.9,164.6 1759.1,164.6 1759.1,159.2 
		1753.7,159.2 1753.7,99.9 	"/>
	<g>
		<polygon class="st0" points="1742.9,126.8 1742.9,159.2 1721.4,159.2 1721.4,126.8 1726.8,126.8 1726.8,121.4 1737.6,121.4 
			1737.6,126.8 		"/>
		<polygon class="st0" points="1716,126.8 1716,159.2 1694.4,159.2 1694.4,126.8 1699.8,126.8 1699.8,121.4 1710.6,121.4 
			1710.6,126.8 		"/>
		<polygon class="st0" points="1683.6,126.8 1683.6,159.2 1662.1,159.2 1662.1,126.8 1667.5,126.8 1667.5,121.4 1678.2,121.4 
			1678.2,126.8 		"/>
		<path class="st1" d="M1753.7,159.2V99.9h-102.4v59.3h-5.4v5.4h113.2v-5.4H1753.7z M1748.3,159.2h-91.6v-37.8h5.4V116h21.6v5.4
			h10.8V116h21.6v5.4h5.4V116h21.4v5.4h5.4V159.2z"/>
		<polygon class="st2" points="1748.3,121.4 1748.3,159.2 1742.9,159.2 1742.9,126.8 1737.6,126.8 1737.6,121.4 1726.8,121.4 
			1726.8,126.8 1721.4,126.8 1721.4,159.2 1716,159.2 1716,126.8 1710.6,126.8 1710.6,121.4 1699.8,121.4 1699.8,126.8 
			1694.4,126.8 1694.4,159.2 1683.6,159.2 1683.6,126.8 1678.2,126.8 1678.2,121.4 1667.5,121.4 1667.5,126.8 1662.1,126.8 
			1662.1,159.2 1656.7,159.2 1656.7,121.4 1662.1,121.4 1662.1,116 1683.6,116 1683.6,121.4 1694.4,121.4 1694.4,116 1716,116 
			1716,121.4 1721.4,121.4 1721.4,116 1742.9,116 1742.9,121.4 		"/>
		<polygon class="st0" points="1759.1,94.5 1759.1,99.9 1645.9,99.9 1645.9,94.5 1651.3,94.5 1651.3,89.1 1662.1,89.1 1662.1,83.7 
			1742.9,83.7 1742.9,89.1 1753.7,89.1 1753.7,94.5 		"/>
	</g>
	<polygon class="st0" points="1828.4,130 1828.4,127.2 1825.5,127.2 1825.5,124.3 1819.8,124.3 1819.8,121.4 1776.6,121.4 
		1776.6,124.3 1770.9,124.3 1770.9,127.2 1768,127.2 1768,130 1770.9,130 1770.9,161.7 1768,161.7 1768,164.6 1828.4,164.6 
		1828.4,161.7 1825.5,161.7 1825.5,130 	"/>
	<g>
		<polygon class="st0" points="1819.8,144.5 1819.8,161.8 1808.3,161.8 1808.3,144.5 1811.1,144.5 1811.1,141.6 1816.9,141.6 
			1816.9,144.5 		"/>
		<polygon class="st0" points="1805.4,144.5 1805.4,161.8 1793.9,161.8 1793.9,144.5 1796.8,144.5 1796.8,141.6 1802.5,141.6 
			1802.5,144.5 		"/>
		<polygon class="st0" points="1788.1,144.5 1788.1,161.8 1776.6,161.8 1776.6,144.5 1779.5,144.5 1779.5,141.6 1785.2,141.6 
			1785.2,144.5 		"/>
		<path class="st1" d="M1825.5,161.8v-31.7h-54.6v31.6h-2.9v2.9h60.4v-2.9L1825.5,161.8L1825.5,161.8z M1822.6,161.8h-48.9v-20.2
			h2.9v-2.9h11.5v2.9h5.8v-2.9h11.5v2.9h2.9v-2.9h11.5v2.9h2.9L1822.6,161.8L1822.6,161.8z"/>
		<polygon class="st2" points="1822.6,141.6 1822.6,161.8 1819.8,161.8 1819.8,144.5 1816.9,144.5 1816.9,141.6 1811.1,141.6 
			1811.1,144.5 1808.3,144.5 1808.3,161.8 1805.4,161.8 1805.4,144.5 1802.5,144.5 1802.5,141.6 1796.8,141.6 1796.8,144.5 
			1793.9,144.5 1793.9,161.8 1788.1,161.8 1788.1,144.5 1785.2,144.5 1785.2,141.6 1779.5,141.6 1779.5,144.5 1776.6,144.5 
			1776.6,161.8 1773.7,161.8 1773.7,141.6 1776.6,141.6 1776.6,138.7 1788.1,138.7 1788.1,141.6 1793.9,141.6 1793.9,138.7 
			1805.4,138.7 1805.4,141.6 1808.3,141.6 1808.3,138.7 1819.8,138.7 1819.8,141.6 		"/>
		<polygon class="st0" points="1828.4,127.2 1828.4,130.1 1768,130.1 1768,127.2 1770.9,127.2 1770.9,124.3 1776.6,124.3 
			1776.6,121.5 1819.8,121.5 1819.8,124.3 1825.5,124.3 1825.5,127.2 		"/>
	</g>
</g>
<g id="Слой_2">
	<rect x="231.2" y="153.7" width="21.6" height="5.3"/>
	<rect x="313.4" y="156.4" width="11.5" height="5.3"/>
	<rect x="330.7" y="156.4" width="11.5" height="5.3"/>
	<rect x="345.1" y="156.4" width="11.5" height="5.3"/>
	<rect x="198.7" y="148.4" width="5.3" height="5.3"/>
	<rect x="258.2" y="153.7" width="21.5" height="5.3"/>
	<rect x="198.9" y="153.7" width="21.5" height="5.3"/>
	<rect x="247.5" y="148.9" width="5.3" height="5.3"/>
	<rect x="414" y="153.7" width="21.6" height="5.3"/>
	<g>
		<polygon points="1343.5,33.4 1338.7,35.8 1333.9,38.2 1333.9,38.2 1329.1,40.6 1324.3,43.1 1326.7,47.9 1331.5,45.4 1336.3,43 
			1336.3,43 1341.1,40.5 1343.5,45.3 1348.3,42.9 1345.9,38.1 1350.6,35.7 1348.2,30.9 		"/>
		<rect x="1339.7" y="46.2" transform="matrix(0.8917 -0.4527 0.4527 0.8917 123.2657 612.9398)" width="5.3" height="5.3"/>
		<rect x="1337.3" y="53.4" transform="matrix(0.8917 -0.4527 0.4527 0.8917 119.7495 612.6464)" width="5.3" height="5.3"/>
		<rect x="1333.8" y="55.8" transform="matrix(0.8917 -0.4527 0.4527 0.8917 119.4495 616.1642)" width="26.8" height="5.3"/>
	</g>
	<g>
		<polygon points="1520.2,33.4 1515.4,35.8 1510.6,38.2 1510.6,38.2 1505.8,40.6 1501,43.1 1503.4,47.9 1508.2,45.4 1513,43 
			1513,43 1517.8,40.5 1520.2,45.3 1525,42.9 1522.6,38.1 1527.3,35.7 1524.9,30.9 		"/>
		<rect x="1516.4" y="46.2" transform="matrix(0.8917 -0.4527 0.4527 0.8917 142.4058 692.9252)" width="5.3" height="5.3"/>
		<rect x="1514" y="53.4" transform="matrix(0.8917 -0.4527 0.4527 0.8917 138.8896 692.6318)" width="5.3" height="5.3"/>
		<rect x="1510.5" y="55.8" transform="matrix(0.8917 -0.4527 0.4527 0.8917 138.5896 696.1497)" width="26.8" height="5.3"/>
	</g>
	<g>
		<polygon points="1561.5,4.1 1558.4,3.1 1555.4,2.1 1555.4,2.1 1552.3,1.1 1549.2,0.1 1548.2,3.2 1551.3,4.2 1554.4,5.2 
			1554.4,5.2 1557.4,6.2 1556.4,9.2 1559.5,10.2 1560.5,7.2 1563.5,8.2 1564.5,5.1 		"/>
		<rect x="1552.8" y="8.6" transform="matrix(0.3104 -0.9506 0.9506 0.3104 1062.146 1484.6871)" width="3.2" height="3.2"/>
		<rect x="1548.7" y="10.7" transform="matrix(0.3104 -0.9506 0.9506 0.3104 1057.3934 1482.2374)" width="3.2" height="3.2"/>
		<rect x="1550.8" y="8.3" transform="matrix(0.3104 -0.9506 0.9506 0.3104 1054.9335 1486.9884)" width="3.2" height="16.1"/>
	</g>
	<rect x="441" y="148.9" width="10.8" height="5.3"/>
	<rect x="496.2" y="151.1" width="11.5" height="5.3"/>
	<rect x="519.2" y="151.1" width="5.8" height="5.3"/>
	<rect x="496.2" y="156.4" width="11.5" height="5.3"/>
	<rect x="513.5" y="156.4" width="11.5" height="5.3"/>
	<rect x="533.6" y="151.1" width="5.8" height="5.3"/>
	<rect x="527.9" y="156.4" width="11.5" height="5.3"/>
	<rect x="441" y="153.7" width="21.5" height="5.3"/>
	<rect x="381.7" y="153.7" width="21.5" height="5.3"/>
	<rect x="414" y="148.9" width="21.6" height="5.3"/>
	<rect x="381.6" y="148.9" width="5.3" height="5.3"/>
	<rect x="397.8" y="148.9" width="5.3" height="5.3"/>
	<rect x="597" y="153.7" width="21.6" height="5.3"/>
	<rect x="624" y="143" width="21.5" height="11.3"/>
	<rect x="679.3" y="151.1" width="11.5" height="5.3"/>
	<rect x="696.5" y="151.1" width="11.5" height="5.3"/>
	<rect x="679.3" y="156.4" width="11.5" height="5.3"/>
	<rect x="696.5" y="156.4" width="11.5" height="5.3"/>
	<rect x="710.9" y="151.1" width="11.5" height="5.3"/>
	<rect x="710.9" y="156.4" width="11.5" height="5.3"/>
	<rect x="624" y="153.7" width="21.5" height="5.3"/>
	<rect x="564.8" y="153.7" width="21.5" height="5.3"/>
	<rect x="597" y="143" width="21.6" height="11.3"/>
	<rect x="564.7" y="143" width="21.5" height="11.3"/>
	<rect x="580.9" y="148.9" width="5.3" height="5.3"/>
	<rect x="779.6" y="153.7" width="21.6" height="5.3"/>
	<rect x="806.6" y="143" width="21.5" height="11.3"/>
	<rect x="861.8" y="144.5" width="11.5" height="11.9"/>
	<rect x="879.1" y="151.1" width="11.5" height="5.3"/>
	<rect x="884.8" y="144.5" width="5.8" height="6.6"/>
	<rect x="893.5" y="144.5" width="5.8" height="6.6"/>
	<rect x="861.8" y="156.4" width="11.5" height="5.3"/>
	<rect x="879.1" y="156.4" width="11.5" height="5.3"/>
	<rect x="893.5" y="151.1" width="11.5" height="5.3"/>
	<rect x="893.5" y="156.4" width="11.5" height="5.3"/>
	<rect x="806.6" y="153.7" width="21.5" height="5.3"/>
	<rect x="747.3" y="153.7" width="21.5" height="5.3"/>
	<rect x="779.6" y="143" width="21.6" height="11.3"/>
	<rect x="747.3" y="132.7" width="21.5" height="21.5"/>
	<rect x="779.6" y="132.7" width="10.8" height="21.5"/>
	<rect x="817.4" y="132.7" width="10.8" height="21.5"/>
	<rect x="763.4" y="148.9" width="5.3" height="5.3"/>
	<rect x="962.1" y="153.7" width="21.6" height="5.3"/>
	<rect x="989.1" y="143" width="21.5" height="11.3"/>
	<rect x="1044.3" y="144.5" width="11.5" height="11.9"/>
	<rect x="1061.6" y="151.1" width="11.5" height="5.3"/>
	<rect x="1061.6" y="144.5" width="11.5" height="6.6"/>
	<rect x="1076" y="144.5" width="11.5" height="6.6"/>
	<rect x="1044.3" y="156.4" width="11.5" height="5.3"/>
	<rect x="1061.6" y="156.4" width="11.5" height="5.3"/>
	<rect x="1076" y="151.1" width="11.5" height="5.3"/>
	<rect x="1076" y="156.4" width="11.5" height="5.3"/>
	<rect x="989.1" y="153.7" width="21.5" height="5.3"/>
	<rect x="929.8" y="153.7" width="21.5" height="5.3"/>
	<rect x="962.1" y="143" width="21.6" height="11.3"/>
	<rect x="929.8" y="126.5" width="21.5" height="27.8"/>
	<rect x="962.1" y="132.7" width="21.5" height="21.5"/>
	<rect x="989.1" y="126.5" width="21.5" height="27.8"/>
	<rect x="946" y="148.9" width="5.3" height="5.3"/>
	<rect x="1144.7" y="153.7" width="21.6" height="5.3"/>
	<rect x="1171.7" y="143" width="21.5" height="11.3"/>
	<rect x="1226.9" y="144.5" width="11.5" height="11.9"/>
	<rect x="1229.6" y="141.5" width="5.8" height="11.9"/>
	<rect x="1247.1" y="141.5" width="5.8" height="11.9"/>
	<rect x="1261.5" y="141.5" width="5.8" height="11.9"/>
	<rect x="1244.2" y="151.1" width="11.5" height="5.3"/>
	<rect x="1244.2" y="144.5" width="11.5" height="6.6"/>
	<rect x="1258.6" y="144.5" width="11.5" height="6.6"/>
	<rect x="1226.9" y="156.4" width="11.5" height="5.3"/>
	<rect x="1244.2" y="156.4" width="11.5" height="5.3"/>
	<rect x="1258.6" y="151.1" width="11.5" height="5.3"/>
	<rect x="1258.6" y="156.4" width="11.5" height="5.3"/>
	<rect x="1171.7" y="153.7" width="21.5" height="5.3"/>
	<rect x="1112.4" y="153.7" width="21.5" height="5.3"/>
	<rect x="1144.7" y="143" width="21.6" height="11.3"/>
	<rect x="1112.3" y="126.5" width="21.5" height="27.8"/>
	<rect x="1117.8" y="121.4" width="10.8" height="27.8"/>
	<rect x="1150.1" y="121.4" width="10.8" height="27.8"/>
	<rect x="1177.1" y="121.4" width="10.8" height="27.8"/>
	<rect x="1144.7" y="126.5" width="21.5" height="27.8"/>
	<rect x="1171.7" y="126.5" width="21.5" height="27.8"/>
	<rect x="1128.5" y="148.9" width="5.3" height="5.3"/>
	<rect x="1327.7" y="153.7" width="21.6" height="5.3"/>
	<rect x="1354.7" y="143" width="21.5" height="11.3"/>
	<rect x="1409.9" y="144.5" width="11.5" height="11.9"/>
	<rect x="1412.6" y="141.5" width="5.8" height="11.9"/>
	<rect x="1430.1" y="141.5" width="5.8" height="11.9"/>
	<rect x="1444.5" y="141.5" width="5.8" height="11.9"/>
	<rect x="1427.2" y="151.1" width="11.5" height="5.3"/>
	<rect x="1427.2" y="144.5" width="11.5" height="6.6"/>
	<rect x="1441.6" y="144.5" width="11.5" height="6.6"/>
	<rect x="1409.9" y="156.4" width="11.5" height="5.3"/>
	<rect x="1427.2" y="156.4" width="11.5" height="5.3"/>
	<rect x="1441.6" y="151.1" width="11.5" height="5.3"/>
	<rect x="1441.6" y="156.4" width="11.5" height="5.3"/>
	<rect x="1354.7" y="153.7" width="21.5" height="5.3"/>
	<rect x="1295.4" y="153.7" width="21.5" height="5.3"/>
	<rect x="1327.7" y="143" width="21.6" height="11.3"/>
	<rect x="1295.4" y="126.5" width="21.5" height="27.8"/>
	<rect x="1300.8" y="121.4" width="10.8" height="27.8"/>
	<rect x="1333.2" y="121.4" width="10.8" height="27.8"/>
	<rect x="1360.1" y="121.4" width="10.8" height="27.8"/>
	<rect x="1327.7" y="126.5" width="21.5" height="27.8"/>
	<rect x="1354.7" y="126.5" width="21.5" height="27.8"/>
	<rect x="1311.6" y="148.9" width="5.3" height="5.3"/>
	<rect x="1510.9" y="153.7" width="21.6" height="5.3"/>
	<rect x="1537.9" y="143" width="21.5" height="11.3"/>
	<rect x="1593.1" y="144.5" width="11.5" height="11.9"/>
	<rect x="1595.8" y="141.5" width="5.8" height="11.9"/>
	<rect x="1613.3" y="141.5" width="5.8" height="11.9"/>
	<rect x="1627.7" y="141.5" width="5.8" height="11.9"/>
	<rect x="1610.4" y="151.1" width="11.5" height="5.3"/>
	<rect x="1610.4" y="144.5" width="11.5" height="6.6"/>
	<rect x="1624.8" y="144.5" width="11.5" height="6.6"/>
	<rect x="1593.1" y="156.4" width="11.5" height="5.3"/>
	<rect x="1610.4" y="156.4" width="11.5" height="5.3"/>
	<rect x="1624.8" y="151.1" width="11.5" height="5.3"/>
	<rect x="1624.8" y="156.4" width="11.5" height="5.3"/>
	<rect x="1537.9" y="153.7" width="21.5" height="5.3"/>
	<rect x="1478.6" y="153.7" width="21.5" height="5.3"/>
	<rect x="1510.9" y="143" width="21.6" height="11.3"/>
	<rect x="1478.6" y="126.5" width="21.5" height="27.8"/>
	<rect x="1484" y="121.4" width="10.8" height="27.8"/>
	<rect x="1516.3" y="121.4" width="10.8" height="27.8"/>
	<rect x="1543.3" y="121.4" width="10.8" height="27.8"/>
	<rect x="1510.9" y="126.5" width="21.5" height="27.8"/>
	<rect x="1537.9" y="126.5" width="21.5" height="27.8"/>
	<rect x="1494.7" y="148.9" width="5.3" height="5.3"/>
	<g>
		<polygon points="1703.7,33.3 1698.9,35.7 1694.1,38.1 1694.1,38.1 1689.3,40.5 1684.5,43 1686.9,47.8 1691.7,45.3 1696.5,42.9 
			1696.5,42.9 1701.3,40.4 1703.7,45.2 1708.5,42.8 1706.1,38 1710.8,35.6 1708.4,30.8 		"/>
		<rect x="1699.9" y="46.1" transform="matrix(0.8917 -0.4527 0.4527 0.8917 162.3285 775.9808)" width="5.3" height="5.3"/>
		<rect x="1697.5" y="53.3" transform="matrix(0.8917 -0.4527 0.4527 0.8917 158.8123 775.6875)" width="5.3" height="5.3"/>
		<rect x="1694" y="55.7" transform="matrix(0.8917 -0.4527 0.4527 0.8917 158.5123 779.2053)" width="26.8" height="5.3"/>
	</g>
	<g>
		<polygon points="1745,4 1741.9,3 1738.9,2 1738.9,2 1735.8,1 1732.7,0 1731.7,3.1 1734.8,4.1 1737.9,5.1 1737.9,5.1 1740.9,6.1 
			1739.9,9.1 1743,10.1 1744,7.1 1747,8.1 1748,5 		"/>
		<rect x="1736.3" y="8.5" transform="matrix(0.3104 -0.9506 0.9506 0.3104 1188.7803 1659.0563)" width="3.2" height="3.2"/>
		<rect x="1732.2" y="10.6" transform="matrix(0.3104 -0.9506 0.9506 0.3104 1184.0277 1656.6066)" width="3.2" height="3.2"/>
		<rect x="1734.3" y="8.2" transform="matrix(0.3104 -0.9506 0.9506 0.3104 1181.5677 1661.3575)" width="3.2" height="16.1"/>
	</g>
	<g>
		<polygon points="1795.2,83.4 1792.2,82.4 1789.1,81.4 1789.1,81.4 1786,80.4 1782.9,79.4 1781.9,82.4 1785,83.4 1788.1,84.4 
			1788.1,84.4 1791.2,85.4 1790.2,88.5 1793.2,89.5 1794.2,86.4 1797.3,87.4 1798.3,84.4 		"/>
		<rect x="1786.5" y="87.9" transform="matrix(0.3104 -0.9506 0.9506 0.3104 1147.9489 1761.5345)" width="3.2" height="3.2"/>
		<rect x="1782.5" y="90" transform="matrix(0.3104 -0.9506 0.9506 0.3104 1143.1964 1759.0848)" width="3.2" height="3.2"/>
		<rect x="1784.5" y="87.6" transform="matrix(0.3104 -0.9506 0.9506 0.3104 1140.7363 1763.8358)" width="3.2" height="16.1"/>
	</g>
	<rect x="1694.4" y="153.6" width="21.6" height="5.3"/>
	<rect x="1721.4" y="142.9" width="21.5" height="11.3"/>
	<rect x="1776.6" y="144.4" width="11.5" height="11.9"/>
	<rect x="1779.3" y="141.4" width="5.8" height="11.9"/>
	<rect x="1796.8" y="141.4" width="5.8" height="11.9"/>
	<rect x="1811.2" y="141.4" width="5.8" height="11.9"/>
	<rect x="1793.9" y="151" width="11.5" height="5.3"/>
	<rect x="1793.9" y="144.4" width="11.5" height="6.6"/>
	<rect x="1808.3" y="144.4" width="11.5" height="6.6"/>
	<rect x="1776.6" y="156.3" width="11.5" height="5.3"/>
	<rect x="1793.9" y="156.3" width="11.5" height="5.3"/>
	<rect x="1808.3" y="151" width="11.5" height="5.3"/>
	<rect x="1808.3" y="156.3" width="11.5" height="5.3"/>
	<rect x="1721.4" y="153.6" width="21.5" height="5.3"/>
	<rect x="1662.1" y="153.6" width="21.5" height="5.3"/>
	<rect x="1694.4" y="142.9" width="21.6" height="11.3"/>
	<rect x="1662.1" y="126.4" width="21.5" height="27.8"/>
	<rect x="1667.5" y="121.3" width="10.8" height="27.8"/>
	<rect x="1699.8" y="121.3" width="10.8" height="27.8"/>
	<rect x="1726.8" y="121.3" width="10.8" height="27.8"/>
	<rect x="1694.4" y="126.4" width="21.5" height="27.8"/>
	<rect x="1721.4" y="126.4" width="21.5" height="27.8"/>
	<rect x="1678.2" y="148.8" width="5.3" height="5.3"/>
	<polygon class="st0" points="3405.6,99.7 3405.6,94.3 3400.2,94.3 3400.2,89 3389.4,89 3389.4,83.6 3308.6,83.6 3308.6,89 
		3297.8,89 3297.8,94.3 3292.4,94.3 3292.4,99.7 3297.8,99.7 3297.8,159 3292.4,159 3292.4,164.4 3405.6,164.4 3405.6,159 
		3400.2,159 3400.2,99.7 	"/>
	<g>
		<polygon class="st0" points="3389.4,126.6 3389.4,159 3367.9,159 3367.9,126.6 3373.3,126.6 3373.3,121.2 3384.1,121.2 
			3384.1,126.6 		"/>
		<polygon class="st0" points="3362.5,126.6 3362.5,159 3340.9,159 3340.9,126.6 3346.3,126.6 3346.3,121.2 3357.1,121.2 
			3357.1,126.6 		"/>
		<polygon class="st0" points="3330.1,126.6 3330.1,159 3308.6,159 3308.6,126.6 3314,126.6 3314,121.2 3324.7,121.2 3324.7,126.6 
					"/>
		<path class="st1" d="M3400.2,159V99.7h-102.4V159h-5.4v5.4h113.2V159H3400.2z M3394.8,159h-91.6v-37.8h5.4v-5.4h21.6v5.4h10.8
			v-5.4h21.6v5.4h5.4v-5.4h21.4v5.4h5.4V159z"/>
		<polygon class="st2" points="3394.8,121.2 3394.8,159 3389.4,159 3389.4,126.6 3384.1,126.6 3384.1,121.2 3373.3,121.2 
			3373.3,126.6 3367.9,126.6 3367.9,159 3362.5,159 3362.5,126.6 3357.1,126.6 3357.1,121.2 3346.3,121.2 3346.3,126.6 
			3340.9,126.6 3340.9,159 3330.1,159 3330.1,126.6 3324.7,126.6 3324.7,121.2 3314,121.2 3314,126.6 3308.6,126.6 3308.6,159 
			3303.2,159 3303.2,121.2 3308.6,121.2 3308.6,115.8 3330.1,115.8 3330.1,121.2 3340.9,121.2 3340.9,115.8 3362.5,115.8 
			3362.5,121.2 3367.9,121.2 3367.9,115.8 3389.4,115.8 3389.4,121.2 		"/>
		<polygon class="st0" points="3405.6,94.3 3405.6,99.7 3292.4,99.7 3292.4,94.3 3297.8,94.3 3297.8,88.9 3308.6,88.9 3308.6,83.5 
			3389.4,83.5 3389.4,88.9 3400.2,88.9 3400.2,94.3 		"/>
	</g>
	<polygon class="st0" points="3474.9,129.9 3474.9,127.1 3472,127.1 3472,124.2 3466.3,124.2 3466.3,121.3 3423.1,121.3 
		3423.1,124.2 3417.4,124.2 3417.4,127.1 3414.5,127.1 3414.5,129.9 3417.4,129.9 3417.4,161.6 3414.5,161.6 3414.5,164.5 
		3474.9,164.5 3474.9,161.6 3472,161.6 3472,129.9 	"/>
	<g>
		<polygon class="st0" points="3466.3,144.3 3466.3,161.6 3454.8,161.6 3454.8,144.3 3457.6,144.3 3457.6,141.4 3463.4,141.4 
			3463.4,144.3 		"/>
		<polygon class="st0" points="3451.9,144.3 3451.9,161.6 3440.4,161.6 3440.4,144.3 3443.3,144.3 3443.3,141.4 3449,141.4 
			3449,144.3 		"/>
		<polygon class="st0" points="3434.6,144.3 3434.6,161.6 3423.1,161.6 3423.1,144.3 3426,144.3 3426,141.4 3431.7,141.4 
			3431.7,144.3 		"/>
		<path class="st1" d="M3472,161.6v-31.7h-54.6v31.6h-2.9v2.9h60.4v-2.9L3472,161.6L3472,161.6z M3469.1,161.6h-48.9v-20.2h2.9v-2.9
			h11.5v2.9h5.8v-2.9h11.5v2.9h2.9v-2.9h11.5v2.9h2.9L3469.1,161.6L3469.1,161.6z"/>
		<polygon class="st2" points="3469.1,141.4 3469.1,161.6 3466.3,161.6 3466.3,144.3 3463.4,144.3 3463.4,141.4 3457.6,141.4 
			3457.6,144.3 3454.8,144.3 3454.8,161.6 3451.9,161.6 3451.9,144.3 3449,144.3 3449,141.4 3443.3,141.4 3443.3,144.3 
			3440.4,144.3 3440.4,161.6 3434.6,161.6 3434.6,144.3 3431.7,144.3 3431.7,141.4 3426,141.4 3426,144.3 3423.1,144.3 
			3423.1,161.6 3420.2,161.6 3420.2,141.4 3423.1,141.4 3423.1,138.5 3434.6,138.5 3434.6,141.4 3440.4,141.4 3440.4,138.5 
			3451.9,138.5 3451.9,141.4 3454.8,141.4 3454.8,138.5 3466.3,138.5 3466.3,141.4 		"/>
		<polygon class="st0" points="3474.9,127 3474.9,129.9 3414.5,129.9 3414.5,127 3417.4,127 3417.4,124.1 3423.1,124.1 
			3423.1,121.3 3466.3,121.3 3466.3,124.1 3472,124.1 3472,127 		"/>
	</g>
	<polygon class="st0" points="3222.6,99.5 3222.6,94.1 3217.2,94.1 3217.2,88.8 3206.4,88.8 3206.4,83.4 3125.6,83.4 3125.6,88.8 
		3114.8,88.8 3114.8,94.1 3109.4,94.1 3109.4,99.5 3114.8,99.5 3114.8,158.8 3109.4,158.8 3109.4,164.2 3222.6,164.2 3222.6,158.8 
		3217.2,158.8 3217.2,99.5 	"/>
	<g>
		<polygon class="st0" points="3206.4,126.4 3206.4,158.8 3184.9,158.8 3184.9,126.4 3190.3,126.4 3190.3,121 3201.1,121 
			3201.1,126.4 		"/>
		<polygon class="st0" points="3179.5,126.4 3179.5,158.8 3157.9,158.8 3157.9,126.4 3163.3,126.4 3163.3,121 3174.1,121 
			3174.1,126.4 		"/>
		<polygon class="st0" points="3147.1,126.4 3147.1,158.8 3125.6,158.8 3125.6,126.4 3131,126.4 3131,121 3141.7,121 3141.7,126.4 
					"/>
		<path class="st1" d="M3217.2,158.8V99.5h-102.4v59.3h-5.4v5.4h113.2v-5.4H3217.2z M3211.8,158.8h-91.6V121h5.4v-5.4h21.6v5.4h10.8
			v-5.4h21.6v5.4h5.4v-5.4h21.4v5.4h5.4V158.8z"/>
		<polygon class="st2" points="3211.8,121 3211.8,158.8 3206.4,158.8 3206.4,126.4 3201.1,126.4 3201.1,121 3190.3,121 
			3190.3,126.4 3184.9,126.4 3184.9,158.8 3179.5,158.8 3179.5,126.4 3174.1,126.4 3174.1,121 3163.3,121 3163.3,126.4 
			3157.9,126.4 3157.9,158.8 3147.1,158.8 3147.1,126.4 3141.7,126.4 3141.7,121 3131,121 3131,126.4 3125.6,126.4 3125.6,158.8 
			3120.2,158.8 3120.2,121 3125.6,121 3125.6,115.6 3147.1,115.6 3147.1,121 3157.9,121 3157.9,115.6 3179.5,115.6 3179.5,121 
			3184.9,121 3184.9,115.6 3206.4,115.6 3206.4,121 		"/>
		<polygon class="st0" points="3222.6,94.1 3222.6,99.5 3109.4,99.5 3109.4,94.1 3114.8,94.1 3114.8,88.7 3125.6,88.7 3125.6,83.3 
			3206.4,83.3 3206.4,88.7 3217.2,88.7 3217.2,94.1 		"/>
	</g>
	<polygon class="st0" points="3291.9,129.7 3291.9,126.9 3289,126.9 3289,124 3283.3,124 3283.3,121.1 3240.1,121.1 3240.1,124 
		3234.4,124 3234.4,126.9 3231.5,126.9 3231.5,129.7 3234.4,129.7 3234.4,161.4 3231.5,161.4 3231.5,164.3 3291.9,164.3 
		3291.9,161.4 3289,161.4 3289,129.7 	"/>
	<g>
		<polygon class="st0" points="3283.3,144.1 3283.3,161.4 3271.8,161.4 3271.8,144.1 3274.6,144.1 3274.6,141.2 3280.4,141.2 
			3280.4,144.1 		"/>
		<polygon class="st0" points="3268.9,144.1 3268.9,161.4 3257.4,161.4 3257.4,144.1 3260.3,144.1 3260.3,141.2 3266,141.2 
			3266,144.1 		"/>
		<polygon class="st0" points="3251.6,144.1 3251.6,161.4 3240.1,161.4 3240.1,144.1 3243,144.1 3243,141.2 3248.7,141.2 
			3248.7,144.1 		"/>
		<path class="st1" d="M3289,161.4v-31.7h-54.6v31.6h-2.9v2.9h60.4v-2.9h-2.9V161.4z M3286.1,161.4h-48.9v-20.2h2.9v-2.9h11.5v2.9
			h5.8v-2.9h11.5v2.9h2.9v-2.9h11.5v2.9h2.9L3286.1,161.4L3286.1,161.4z"/>
		<polygon class="st2" points="3286.1,141.2 3286.1,161.4 3283.3,161.4 3283.3,144.1 3280.4,144.1 3280.4,141.2 3274.6,141.2 
			3274.6,144.1 3271.8,144.1 3271.8,161.4 3268.9,161.4 3268.9,144.1 3266,144.1 3266,141.2 3260.3,141.2 3260.3,144.1 
			3257.4,144.1 3257.4,161.4 3251.6,161.4 3251.6,144.1 3248.7,144.1 3248.7,141.2 3243,141.2 3243,144.1 3240.1,144.1 
			3240.1,161.4 3237.2,161.4 3237.2,141.2 3240.1,141.2 3240.1,138.3 3251.6,138.3 3251.6,141.2 3257.4,141.2 3257.4,138.3 
			3268.9,138.3 3268.9,141.2 3271.8,141.2 3271.8,138.3 3283.3,138.3 3283.3,141.2 		"/>
		<polygon class="st0" points="3291.9,126.8 3291.9,129.7 3231.5,129.7 3231.5,126.8 3234.4,126.8 3234.4,123.9 3240.1,123.9 
			3240.1,121.1 3283.3,121.1 3283.3,123.9 3289,123.9 3289,126.8 		"/>
	</g>
	<polygon class="st0" points="3039.5,99.7 3039.5,94.3 3034.1,94.3 3034.1,89 3023.3,89 3023.3,83.6 2942.5,83.6 2942.5,89 
		2931.7,89 2931.7,94.3 2926.3,94.3 2926.3,99.7 2931.7,99.7 2931.7,159 2926.3,159 2926.3,164.4 3039.5,164.4 3039.5,159 
		3034.1,159 3034.1,99.7 	"/>
	<g>
		<polygon class="st0" points="3023.3,126.6 3023.3,159 3001.8,159 3001.8,126.6 3007.2,126.6 3007.2,121.2 3018,121.2 3018,126.6 
					"/>
		<polygon class="st0" points="2996.4,126.6 2996.4,159 2974.8,159 2974.8,126.6 2980.2,126.6 2980.2,121.2 2991,121.2 2991,126.6 
					"/>
		<polygon class="st0" points="2964,126.6 2964,159 2942.5,159 2942.5,126.6 2947.9,126.6 2947.9,121.2 2958.6,121.2 2958.6,126.6 
					"/>
		<path class="st1" d="M3034.1,159V99.7h-102.4V159h-5.4v5.4h113.2V159H3034.1z M3028.7,159h-91.6v-37.8h5.4v-5.4h21.6v5.4h10.8
			v-5.4h21.6v5.4h5.4v-5.4h21.4v5.4h5.4V159z"/>
		<polygon class="st2" points="3028.7,121.2 3028.7,159 3023.3,159 3023.3,126.6 3018,126.6 3018,121.2 3007.2,121.2 3007.2,126.6 
			3001.8,126.6 3001.8,159 2996.4,159 2996.4,126.6 2991,126.6 2991,121.2 2980.2,121.2 2980.2,126.6 2974.8,126.6 2974.8,159 
			2964,159 2964,126.6 2958.6,126.6 2958.6,121.2 2947.9,121.2 2947.9,126.6 2942.5,126.6 2942.5,159 2937.1,159 2937.1,121.2 
			2942.5,121.2 2942.5,115.8 2964,115.8 2964,121.2 2974.8,121.2 2974.8,115.8 2996.4,115.8 2996.4,121.2 3001.8,121.2 
			3001.8,115.8 3023.3,115.8 3023.3,121.2 		"/>
		<polygon class="st0" points="3039.5,94.3 3039.5,99.7 2926.3,99.7 2926.3,94.3 2931.7,94.3 2931.7,88.9 2942.5,88.9 2942.5,83.5 
			3023.3,83.5 3023.3,88.9 3034.1,88.9 3034.1,94.3 		"/>
	</g>
	<polygon class="st0" points="3108.8,129.9 3108.8,127.1 3105.9,127.1 3105.9,124.2 3100.2,124.2 3100.2,121.3 3057,121.3 
		3057,124.2 3051.3,124.2 3051.3,127.1 3048.4,127.1 3048.4,129.9 3051.3,129.9 3051.3,161.6 3048.4,161.6 3048.4,164.5 
		3108.8,164.5 3108.8,161.6 3105.9,161.6 3105.9,129.9 	"/>
	<g>
		<polygon class="st0" points="3100.2,144.3 3100.2,161.6 3088.7,161.6 3088.7,144.3 3091.5,144.3 3091.5,141.4 3097.3,141.4 
			3097.3,144.3 		"/>
		<polygon class="st0" points="3085.8,144.3 3085.8,161.6 3074.3,161.6 3074.3,144.3 3077.2,144.3 3077.2,141.4 3082.9,141.4 
			3082.9,144.3 		"/>
		<polygon class="st0" points="3068.5,144.3 3068.5,161.6 3057,161.6 3057,144.3 3059.9,144.3 3059.9,141.4 3065.6,141.4 
			3065.6,144.3 		"/>
		<path class="st1" d="M3105.9,161.6v-31.7h-54.6v31.6h-2.9v2.9h60.4v-2.9L3105.9,161.6L3105.9,161.6z M3103,161.6h-48.9v-20.2h2.9
			v-2.9h11.5v2.9h5.8v-2.9h11.5v2.9h2.9v-2.9h11.5v2.9h2.9v20.2H3103z"/>
		<polygon class="st2" points="3103,141.4 3103,161.6 3100.2,161.6 3100.2,144.3 3097.3,144.3 3097.3,141.4 3091.5,141.4 
			3091.5,144.3 3088.7,144.3 3088.7,161.6 3085.8,161.6 3085.8,144.3 3082.9,144.3 3082.9,141.4 3077.2,141.4 3077.2,144.3 
			3074.3,144.3 3074.3,161.6 3068.5,161.6 3068.5,144.3 3065.6,144.3 3065.6,141.4 3059.9,141.4 3059.9,144.3 3057,144.3 
			3057,161.6 3054.1,161.6 3054.1,141.4 3057,141.4 3057,138.5 3068.5,138.5 3068.5,141.4 3074.3,141.4 3074.3,138.5 3085.8,138.5 
			3085.8,141.4 3088.7,141.4 3088.7,138.5 3100.2,138.5 3100.2,141.4 		"/>
		<polygon class="st0" points="3108.8,127 3108.8,129.9 3048.4,129.9 3048.4,127 3051.3,127 3051.3,124.1 3057,124.1 3057,121.3 
			3100.2,121.3 3100.2,124.1 3105.9,124.1 3105.9,127 		"/>
	</g>
	<polygon class="st0" points="2857.1,99.7 2857.1,94.3 2851.7,94.3 2851.7,89 2840.9,89 2840.9,83.6 2760.1,83.6 2760.1,89 
		2749.3,89 2749.3,94.3 2743.9,94.3 2743.9,99.7 2749.3,99.7 2749.3,159 2743.9,159 2743.9,164.4 2857.1,164.4 2857.1,159 
		2851.7,159 2851.7,99.7 	"/>
	<g>
		<polygon class="st0" points="2840.9,126.6 2840.9,159 2819.4,159 2819.4,126.6 2824.8,126.6 2824.8,121.2 2835.6,121.2 
			2835.6,126.6 		"/>
		<polygon class="st0" points="2814,126.6 2814,159 2792.4,159 2792.4,126.6 2797.8,126.6 2797.8,121.2 2808.6,121.2 2808.6,126.6 
					"/>
		<polygon class="st0" points="2781.6,126.6 2781.6,159 2760.1,159 2760.1,126.6 2765.5,126.6 2765.5,121.2 2776.2,121.2 
			2776.2,126.6 		"/>
		<path class="st1" d="M2851.7,159V99.7h-102.4V159h-5.4v5.4h113.2V159H2851.7z M2846.3,159h-91.6v-37.8h5.4v-5.4h21.6v5.4h10.8
			v-5.4h21.6v5.4h5.4v-5.4h21.4v5.4h5.4V159z"/>
		<polygon class="st2" points="2846.3,121.2 2846.3,159 2840.9,159 2840.9,126.6 2835.6,126.6 2835.6,121.2 2824.8,121.2 
			2824.8,126.6 2819.4,126.6 2819.4,159 2814,159 2814,126.6 2808.6,126.6 2808.6,121.2 2797.8,121.2 2797.8,126.6 2792.4,126.6 
			2792.4,159 2781.6,159 2781.6,126.6 2776.2,126.6 2776.2,121.2 2765.5,121.2 2765.5,126.6 2760.1,126.6 2760.1,159 2754.7,159 
			2754.7,121.2 2760.1,121.2 2760.1,115.8 2781.6,115.8 2781.6,121.2 2792.4,121.2 2792.4,115.8 2814,115.8 2814,121.2 
			2819.4,121.2 2819.4,115.8 2840.9,115.8 2840.9,121.2 		"/>
		<polygon class="st0" points="2857.1,94.3 2857.1,99.7 2743.9,99.7 2743.9,94.3 2749.3,94.3 2749.3,88.9 2760.1,88.9 2760.1,83.5 
			2840.9,83.5 2840.9,88.9 2851.7,88.9 2851.7,94.3 		"/>
	</g>
	<polygon class="st0" points="2926.4,129.9 2926.4,127.1 2923.5,127.1 2923.5,124.2 2917.8,124.2 2917.8,121.3 2874.6,121.3 
		2874.6,124.2 2868.9,124.2 2868.9,127.1 2866,127.1 2866,129.9 2868.9,129.9 2868.9,161.6 2866,161.6 2866,164.5 2926.4,164.5 
		2926.4,161.6 2923.5,161.6 2923.5,129.9 	"/>
	<g>
		<polygon class="st0" points="2917.8,144.3 2917.8,161.6 2906.3,161.6 2906.3,144.3 2909.1,144.3 2909.1,141.4 2914.9,141.4 
			2914.9,144.3 		"/>
		<polygon class="st0" points="2903.4,144.3 2903.4,161.6 2891.9,161.6 2891.9,144.3 2894.8,144.3 2894.8,141.4 2900.5,141.4 
			2900.5,144.3 		"/>
		<polygon class="st0" points="2886.1,144.3 2886.1,161.6 2874.6,161.6 2874.6,144.3 2877.5,144.3 2877.5,141.4 2883.2,141.4 
			2883.2,144.3 		"/>
		<path class="st1" d="M2923.5,161.6v-31.7h-54.6v31.6h-2.9v2.9h60.4v-2.9L2923.5,161.6L2923.5,161.6z M2920.6,161.6h-48.9v-20.2
			h2.9v-2.9h11.5v2.9h5.8v-2.9h11.5v2.9h2.9v-2.9h11.5v2.9h2.9v20.2H2920.6z"/>
		<polygon class="st2" points="2920.6,141.4 2920.6,161.6 2917.8,161.6 2917.8,144.3 2914.9,144.3 2914.9,141.4 2909.1,141.4 
			2909.1,144.3 2906.3,144.3 2906.3,161.6 2903.4,161.6 2903.4,144.3 2900.5,144.3 2900.5,141.4 2894.8,141.4 2894.8,144.3 
			2891.9,144.3 2891.9,161.6 2886.1,161.6 2886.1,144.3 2883.2,144.3 2883.2,141.4 2877.5,141.4 2877.5,144.3 2874.6,144.3 
			2874.6,161.6 2871.7,161.6 2871.7,141.4 2874.6,141.4 2874.6,138.5 2886.1,138.5 2886.1,141.4 2891.9,141.4 2891.9,138.5 
			2903.4,138.5 2903.4,141.4 2906.3,141.4 2906.3,138.5 2917.8,138.5 2917.8,141.4 		"/>
		<polygon class="st0" points="2926.4,127 2926.4,129.9 2866,129.9 2866,127 2868.9,127 2868.9,124.1 2874.6,124.1 2874.6,121.3 
			2917.8,121.3 2917.8,124.1 2923.5,124.1 2923.5,127 		"/>
	</g>
	<polygon class="st0" points="2674.1,99.7 2674.1,94.3 2668.7,94.3 2668.7,89 2657.9,89 2657.9,83.6 2577.1,83.6 2577.1,89 
		2566.3,89 2566.3,94.3 2560.9,94.3 2560.9,99.7 2566.3,99.7 2566.3,159 2560.9,159 2560.9,164.4 2674.1,164.4 2674.1,159 
		2668.7,159 2668.7,99.7 	"/>
	<g>
		<polygon class="st0" points="2657.9,126.6 2657.9,159 2636.4,159 2636.4,126.6 2641.8,126.6 2641.8,121.2 2652.6,121.2 
			2652.6,126.6 		"/>
		<polygon class="st0" points="2631,126.6 2631,159 2609.4,159 2609.4,126.6 2614.8,126.6 2614.8,121.2 2625.6,121.2 2625.6,126.6 
					"/>
		<polygon class="st0" points="2598.6,126.6 2598.6,159 2577.1,159 2577.1,126.6 2582.5,126.6 2582.5,121.2 2593.2,121.2 
			2593.2,126.6 		"/>
		<path class="st1" d="M2668.7,159V99.7h-102.4V159h-5.4v5.4h113.2V159H2668.7z M2663.3,159h-91.6v-37.8h5.4v-5.4h21.6v5.4h10.8
			v-5.4h21.6v5.4h5.4v-5.4h21.4v5.4h5.4V159z"/>
		<polygon class="st2" points="2663.3,121.2 2663.3,159 2657.9,159 2657.9,126.6 2652.6,126.6 2652.6,121.2 2641.8,121.2 
			2641.8,126.6 2636.4,126.6 2636.4,159 2631,159 2631,126.6 2625.6,126.6 2625.6,121.2 2614.8,121.2 2614.8,126.6 2609.4,126.6 
			2609.4,159 2598.6,159 2598.6,126.6 2593.2,126.6 2593.2,121.2 2582.5,121.2 2582.5,126.6 2577.1,126.6 2577.1,159 2571.7,159 
			2571.7,121.2 2577.1,121.2 2577.1,115.8 2598.6,115.8 2598.6,121.2 2609.4,121.2 2609.4,115.8 2631,115.8 2631,121.2 
			2636.4,121.2 2636.4,115.8 2657.9,115.8 2657.9,121.2 		"/>
		<polygon class="st0" points="2674.1,94.3 2674.1,99.7 2560.9,99.7 2560.9,94.3 2566.3,94.3 2566.3,88.9 2577.1,88.9 2577.1,83.5 
			2657.9,83.5 2657.9,88.9 2668.7,88.9 2668.7,94.3 		"/>
	</g>
	<polygon class="st0" points="2743.4,129.9 2743.4,127.1 2740.5,127.1 2740.5,124.2 2734.8,124.2 2734.8,121.3 2691.6,121.3 
		2691.6,124.2 2685.9,124.2 2685.9,127.1 2683,127.1 2683,129.9 2685.9,129.9 2685.9,161.6 2683,161.6 2683,164.5 2743.4,164.5 
		2743.4,161.6 2740.5,161.6 2740.5,129.9 	"/>
	<g>
		<polygon class="st0" points="2734.8,144.3 2734.8,161.6 2723.3,161.6 2723.3,144.3 2726.1,144.3 2726.1,141.4 2731.9,141.4 
			2731.9,144.3 		"/>
		<polygon class="st0" points="2720.4,144.3 2720.4,161.6 2708.9,161.6 2708.9,144.3 2711.8,144.3 2711.8,141.4 2717.5,141.4 
			2717.5,144.3 		"/>
		<polygon class="st0" points="2703.1,144.3 2703.1,161.6 2691.6,161.6 2691.6,144.3 2694.5,144.3 2694.5,141.4 2700.2,141.4 
			2700.2,144.3 		"/>
		<path class="st1" d="M2740.5,161.6v-31.7h-54.6v31.6h-2.9v2.9h60.4v-2.9L2740.5,161.6L2740.5,161.6z M2737.6,161.6h-48.9v-20.2
			h2.9v-2.9h11.5v2.9h5.8v-2.9h11.5v2.9h2.9v-2.9h11.5v2.9h2.9L2737.6,161.6L2737.6,161.6z"/>
		<polygon class="st2" points="2737.6,141.4 2737.6,161.6 2734.8,161.6 2734.8,144.3 2731.9,144.3 2731.9,141.4 2726.1,141.4 
			2726.1,144.3 2723.3,144.3 2723.3,161.6 2720.4,161.6 2720.4,144.3 2717.5,144.3 2717.5,141.4 2711.8,141.4 2711.8,144.3 
			2708.9,144.3 2708.9,161.6 2703.1,161.6 2703.1,144.3 2700.2,144.3 2700.2,141.4 2694.5,141.4 2694.5,144.3 2691.6,144.3 
			2691.6,161.6 2688.7,161.6 2688.7,141.4 2691.6,141.4 2691.6,138.5 2703.1,138.5 2703.1,141.4 2708.9,141.4 2708.9,138.5 
			2720.4,138.5 2720.4,141.4 2723.3,141.4 2723.3,138.5 2734.8,138.5 2734.8,141.4 		"/>
		<polygon class="st0" points="2743.4,127 2743.4,129.9 2683,129.9 2683,127 2685.9,127 2685.9,124.1 2691.6,124.1 2691.6,121.3 
			2734.8,121.3 2734.8,124.1 2740.5,124.1 2740.5,127 		"/>
	</g>
	<polygon class="st0" points="2491.1,99.7 2491.1,94.3 2485.7,94.3 2485.7,89 2474.9,89 2474.9,83.6 2394.1,83.6 2394.1,89 
		2383.3,89 2383.3,94.3 2377.9,94.3 2377.9,99.7 2383.3,99.7 2383.3,159 2377.9,159 2377.9,164.4 2491.1,164.4 2491.1,159 
		2485.7,159 2485.7,99.7 	"/>
	<g>
		<polygon class="st0" points="2474.9,126.6 2474.9,159 2453.4,159 2453.4,126.6 2458.8,126.6 2458.8,121.2 2469.6,121.2 
			2469.6,126.6 		"/>
		<polygon class="st0" points="2448,126.6 2448,159 2426.4,159 2426.4,126.6 2431.8,126.6 2431.8,121.2 2442.6,121.2 2442.6,126.6 
					"/>
		<polygon class="st0" points="2415.6,126.6 2415.6,159 2394.1,159 2394.1,126.6 2399.5,126.6 2399.5,121.2 2410.2,121.2 
			2410.2,126.6 		"/>
		<path class="st1" d="M2485.7,159V99.7h-102.4V159h-5.4v5.4h113.2V159H2485.7z M2480.3,159h-91.6v-37.8h5.4v-5.4h21.6v5.4h10.8
			v-5.4h21.6v5.4h5.4v-5.4h21.4v5.4h5.4V159z"/>
		<polygon class="st2" points="2480.3,121.2 2480.3,159 2474.9,159 2474.9,126.6 2469.6,126.6 2469.6,121.2 2458.8,121.2 
			2458.8,126.6 2453.4,126.6 2453.4,159 2448,159 2448,126.6 2442.6,126.6 2442.6,121.2 2431.8,121.2 2431.8,126.6 2426.4,126.6 
			2426.4,159 2415.6,159 2415.6,126.6 2410.2,126.6 2410.2,121.2 2399.5,121.2 2399.5,126.6 2394.1,126.6 2394.1,159 2388.7,159 
			2388.7,121.2 2394.1,121.2 2394.1,115.8 2415.6,115.8 2415.6,121.2 2426.4,121.2 2426.4,115.8 2448,115.8 2448,121.2 
			2453.4,121.2 2453.4,115.8 2474.9,115.8 2474.9,121.2 		"/>
		<polygon class="st0" points="2491.1,94.3 2491.1,99.7 2377.9,99.7 2377.9,94.3 2383.3,94.3 2383.3,88.9 2394.1,88.9 2394.1,83.5 
			2474.9,83.5 2474.9,88.9 2485.7,88.9 2485.7,94.3 		"/>
	</g>
	<polygon class="st0" points="2560.4,129.9 2560.4,127.1 2557.5,127.1 2557.5,124.2 2551.8,124.2 2551.8,121.3 2508.6,121.3 
		2508.6,124.2 2502.9,124.2 2502.9,127.1 2500,127.1 2500,129.9 2502.9,129.9 2502.9,161.6 2500,161.6 2500,164.5 2560.4,164.5 
		2560.4,161.6 2557.5,161.6 2557.5,129.9 	"/>
	<g>
		<polygon class="st0" points="2551.8,144.3 2551.8,161.6 2540.3,161.6 2540.3,144.3 2543.1,144.3 2543.1,141.4 2548.9,141.4 
			2548.9,144.3 		"/>
		<polygon class="st0" points="2537.4,144.3 2537.4,161.6 2525.9,161.6 2525.9,144.3 2528.8,144.3 2528.8,141.4 2534.5,141.4 
			2534.5,144.3 		"/>
		<polygon class="st0" points="2520.1,144.3 2520.1,161.6 2508.6,161.6 2508.6,144.3 2511.5,144.3 2511.5,141.4 2517.2,141.4 
			2517.2,144.3 		"/>
		<path class="st1" d="M2557.5,161.6v-31.7h-54.6v31.6h-2.9v2.9h60.4v-2.9L2557.5,161.6L2557.5,161.6z M2554.6,161.6h-48.9v-20.2
			h2.9v-2.9h11.5v2.9h5.8v-2.9h11.5v2.9h2.9v-2.9h11.5v2.9h2.9v20.2H2554.6z"/>
		<polygon class="st2" points="2554.6,141.4 2554.6,161.6 2551.8,161.6 2551.8,144.3 2548.9,144.3 2548.9,141.4 2543.1,141.4 
			2543.1,144.3 2540.3,144.3 2540.3,161.6 2537.4,161.6 2537.4,144.3 2534.5,144.3 2534.5,141.4 2528.8,141.4 2528.8,144.3 
			2525.9,144.3 2525.9,161.6 2520.1,161.6 2520.1,144.3 2517.2,144.3 2517.2,141.4 2511.5,141.4 2511.5,144.3 2508.6,144.3 
			2508.6,161.6 2505.7,161.6 2505.7,141.4 2508.6,141.4 2508.6,138.5 2520.1,138.5 2520.1,141.4 2525.9,141.4 2525.9,138.5 
			2537.4,138.5 2537.4,141.4 2540.3,141.4 2540.3,138.5 2551.8,138.5 2551.8,141.4 		"/>
		<polygon class="st0" points="2560.4,127 2560.4,129.9 2500,129.9 2500,127 2502.9,127 2502.9,124.1 2508.6,124.1 2508.6,121.3 
			2551.8,121.3 2551.8,124.1 2557.5,124.1 2557.5,127 		"/>
	</g>
	<polygon class="st0" points="2308.1,99.6 2308.1,94.2 2302.7,94.2 2302.7,88.9 2291.9,88.9 2291.9,83.5 2211.1,83.5 2211.1,88.9 
		2200.3,88.9 2200.3,94.2 2194.9,94.2 2194.9,99.6 2200.3,99.6 2200.3,158.9 2194.9,158.9 2194.9,164.3 2308.1,164.3 2308.1,158.9 
		2302.7,158.9 2302.7,99.6 	"/>
	<g>
		<polygon class="st0" points="2291.9,126.5 2291.9,158.9 2270.4,158.9 2270.4,126.5 2275.8,126.5 2275.8,121.1 2286.6,121.1 
			2286.6,126.5 		"/>
		<polygon class="st0" points="2265,126.5 2265,158.9 2243.4,158.9 2243.4,126.5 2248.8,126.5 2248.8,121.1 2259.6,121.1 
			2259.6,126.5 		"/>
		<polygon class="st0" points="2232.6,126.5 2232.6,158.9 2211.1,158.9 2211.1,126.5 2216.5,126.5 2216.5,121.1 2227.2,121.1 
			2227.2,126.5 		"/>
		<path class="st1" d="M2302.7,158.9V99.6h-102.4v59.3h-5.4v5.4h113.2v-5.4H2302.7z M2297.3,158.9h-91.6v-37.8h5.4v-5.4h21.6v5.4
			h10.8v-5.4h21.6v5.4h5.4v-5.4h21.4v5.4h5.4V158.9z"/>
		<polygon class="st2" points="2297.3,121.1 2297.3,158.9 2291.9,158.9 2291.9,126.5 2286.6,126.5 2286.6,121.1 2275.8,121.1 
			2275.8,126.5 2270.4,126.5 2270.4,158.9 2265,158.9 2265,126.5 2259.6,126.5 2259.6,121.1 2248.8,121.1 2248.8,126.5 
			2243.4,126.5 2243.4,158.9 2232.6,158.9 2232.6,126.5 2227.2,126.5 2227.2,121.1 2216.5,121.1 2216.5,126.5 2211.1,126.5 
			2211.1,158.9 2205.7,158.9 2205.7,121.1 2211.1,121.1 2211.1,115.7 2232.6,115.7 2232.6,121.1 2243.4,121.1 2243.4,115.7 
			2265,115.7 2265,121.1 2270.4,121.1 2270.4,115.7 2291.9,115.7 2291.9,121.1 		"/>
		<polygon class="st0" points="2308.1,94.2 2308.1,99.6 2194.9,99.6 2194.9,94.2 2200.3,94.2 2200.3,88.8 2211.1,88.8 2211.1,83.4 
			2291.9,83.4 2291.9,88.8 2302.7,88.8 2302.7,94.2 		"/>
	</g>
	<polygon class="st0" points="2377.4,129.8 2377.4,127 2374.5,127 2374.5,124.1 2368.8,124.1 2368.8,121.2 2325.6,121.2 
		2325.6,124.1 2319.9,124.1 2319.9,127 2317,127 2317,129.8 2319.9,129.8 2319.9,161.5 2317,161.5 2317,164.4 2377.4,164.4 
		2377.4,161.5 2374.5,161.5 2374.5,129.8 	"/>
	<g>
		<polygon class="st0" points="2368.8,144.2 2368.8,161.5 2357.3,161.5 2357.3,144.2 2360.1,144.2 2360.1,141.3 2365.9,141.3 
			2365.9,144.2 		"/>
		<polygon class="st0" points="2354.4,144.2 2354.4,161.5 2342.9,161.5 2342.9,144.2 2345.8,144.2 2345.8,141.3 2351.5,141.3 
			2351.5,144.2 		"/>
		<polygon class="st0" points="2337.1,144.2 2337.1,161.5 2325.6,161.5 2325.6,144.2 2328.5,144.2 2328.5,141.3 2334.2,141.3 
			2334.2,144.2 		"/>
		<path class="st1" d="M2374.5,161.5v-31.7h-54.6v31.6h-2.9v2.9h60.4v-2.9h-2.9V161.5z M2371.6,161.5h-48.9v-20.2h2.9v-2.9h11.5v2.9
			h5.8v-2.9h11.5v2.9h2.9v-2.9h11.5v2.9h2.9v20.2H2371.6z"/>
		<polygon class="st2" points="2371.6,141.3 2371.6,161.5 2368.8,161.5 2368.8,144.2 2365.9,144.2 2365.9,141.3 2360.1,141.3 
			2360.1,144.2 2357.3,144.2 2357.3,161.5 2354.4,161.5 2354.4,144.2 2351.5,144.2 2351.5,141.3 2345.8,141.3 2345.8,144.2 
			2342.9,144.2 2342.9,161.5 2337.1,161.5 2337.1,144.2 2334.2,144.2 2334.2,141.3 2328.5,141.3 2328.5,144.2 2325.6,144.2 
			2325.6,161.5 2322.7,161.5 2322.7,141.3 2325.6,141.3 2325.6,138.4 2337.1,138.4 2337.1,141.3 2342.9,141.3 2342.9,138.4 
			2354.4,138.4 2354.4,141.3 2357.3,141.3 2357.3,138.4 2368.8,138.4 2368.8,141.3 		"/>
		<polygon class="st0" points="2377.4,126.9 2377.4,129.8 2317,129.8 2317,126.9 2319.9,126.9 2319.9,124 2325.6,124 2325.6,121.2 
			2368.8,121.2 2368.8,124 2374.5,124 2374.5,126.9 		"/>
	</g>
	<polygon class="st0" points="2125.1,99.7 2125.1,94.3 2119.7,94.3 2119.7,89 2108.9,89 2108.9,83.6 2028.1,83.6 2028.1,89 
		2017.3,89 2017.3,94.3 2011.9,94.3 2011.9,99.7 2017.3,99.7 2017.3,159 2011.9,159 2011.9,164.4 2125.1,164.4 2125.1,159 
		2119.7,159 2119.7,99.7 	"/>
	<g>
		<polygon class="st0" points="2108.9,126.6 2108.9,159 2087.4,159 2087.4,126.6 2092.8,126.6 2092.8,121.2 2103.6,121.2 
			2103.6,126.6 		"/>
		<polygon class="st0" points="2082,126.6 2082,159 2060.4,159 2060.4,126.6 2065.8,126.6 2065.8,121.2 2076.6,121.2 2076.6,126.6 
					"/>
		<polygon class="st0" points="2049.6,126.6 2049.6,159 2028.1,159 2028.1,126.6 2033.5,126.6 2033.5,121.2 2044.2,121.2 
			2044.2,126.6 		"/>
		<path class="st1" d="M2119.7,159V99.7h-102.4V159h-5.4v5.4h113.2V159H2119.7z M2114.3,159h-91.6v-37.8h5.4v-5.4h21.6v5.4h10.8
			v-5.4h21.6v5.4h5.4v-5.4h21.4v5.4h5.4V159z"/>
		<polygon class="st2" points="2114.3,121.2 2114.3,159 2108.9,159 2108.9,126.6 2103.6,126.6 2103.6,121.2 2092.8,121.2 
			2092.8,126.6 2087.4,126.6 2087.4,159 2082,159 2082,126.6 2076.6,126.6 2076.6,121.2 2065.8,121.2 2065.8,126.6 2060.4,126.6 
			2060.4,159 2049.6,159 2049.6,126.6 2044.2,126.6 2044.2,121.2 2033.5,121.2 2033.5,126.6 2028.1,126.6 2028.1,159 2022.7,159 
			2022.7,121.2 2028.1,121.2 2028.1,115.8 2049.6,115.8 2049.6,121.2 2060.4,121.2 2060.4,115.8 2082,115.8 2082,121.2 
			2087.4,121.2 2087.4,115.8 2108.9,115.8 2108.9,121.2 		"/>
		<polygon class="st0" points="2125.1,94.3 2125.1,99.7 2011.9,99.7 2011.9,94.3 2017.3,94.3 2017.3,88.9 2028.1,88.9 2028.1,83.5 
			2108.9,83.5 2108.9,88.9 2119.7,88.9 2119.7,94.3 		"/>
	</g>
	<polygon class="st0" points="2194.4,129.9 2194.4,127.1 2191.5,127.1 2191.5,124.2 2185.8,124.2 2185.8,121.3 2142.6,121.3 
		2142.6,124.2 2136.9,124.2 2136.9,127.1 2134,127.1 2134,129.9 2136.9,129.9 2136.9,161.6 2134,161.6 2134,164.5 2194.4,164.5 
		2194.4,161.6 2191.5,161.6 2191.5,129.9 	"/>
	<g>
		<polygon class="st0" points="2185.8,144.3 2185.8,161.6 2174.3,161.6 2174.3,144.3 2177.1,144.3 2177.1,141.4 2182.9,141.4 
			2182.9,144.3 		"/>
		<polygon class="st0" points="2171.4,144.3 2171.4,161.6 2159.9,161.6 2159.9,144.3 2162.8,144.3 2162.8,141.4 2168.5,141.4 
			2168.5,144.3 		"/>
		<polygon class="st0" points="2154.1,144.3 2154.1,161.6 2142.6,161.6 2142.6,144.3 2145.5,144.3 2145.5,141.4 2151.2,141.4 
			2151.2,144.3 		"/>
		<path class="st1" d="M2191.5,161.6v-31.7h-54.6v31.6h-2.9v2.9h60.4v-2.9L2191.5,161.6L2191.5,161.6z M2188.6,161.6h-48.9v-20.2
			h2.9v-2.9h11.5v2.9h5.8v-2.9h11.5v2.9h2.9v-2.9h11.5v2.9h2.9L2188.6,161.6L2188.6,161.6z"/>
		<polygon class="st2" points="2188.6,141.4 2188.6,161.6 2185.8,161.6 2185.8,144.3 2182.9,144.3 2182.9,141.4 2177.1,141.4 
			2177.1,144.3 2174.3,144.3 2174.3,161.6 2171.4,161.6 2171.4,144.3 2168.5,144.3 2168.5,141.4 2162.8,141.4 2162.8,144.3 
			2159.9,144.3 2159.9,161.6 2154.1,161.6 2154.1,144.3 2151.2,144.3 2151.2,141.4 2145.5,141.4 2145.5,144.3 2142.6,144.3 
			2142.6,161.6 2139.7,161.6 2139.7,141.4 2142.6,141.4 2142.6,138.5 2154.1,138.5 2154.1,141.4 2159.9,141.4 2159.9,138.5 
			2171.4,138.5 2171.4,141.4 2174.3,141.4 2174.3,138.5 2185.8,138.5 2185.8,141.4 		"/>
		<polygon class="st0" points="2194.4,127 2194.4,129.9 2134,129.9 2134,127 2136.9,127 2136.9,124.1 2142.6,124.1 2142.6,121.3 
			2185.8,121.3 2185.8,124.1 2191.5,124.1 2191.5,127 		"/>
	</g>
	<polygon class="st0" points="1942.1,99.7 1942.1,94.3 1936.7,94.3 1936.7,89 1925.9,89 1925.9,83.6 1845.1,83.6 1845.1,89 
		1834.3,89 1834.3,94.3 1828.9,94.3 1828.9,99.7 1834.3,99.7 1834.3,159 1828.9,159 1828.9,164.4 1942.1,164.4 1942.1,159 
		1936.7,159 1936.7,99.7 	"/>
	<g>
		<polygon class="st0" points="1925.9,126.6 1925.9,159 1904.4,159 1904.4,126.6 1909.8,126.6 1909.8,121.2 1920.6,121.2 
			1920.6,126.6 		"/>
		<polygon class="st0" points="1899,126.6 1899,159 1877.4,159 1877.4,126.6 1882.8,126.6 1882.8,121.2 1893.6,121.2 1893.6,126.6 
					"/>
		<polygon class="st0" points="1866.6,126.6 1866.6,159 1845.1,159 1845.1,126.6 1850.5,126.6 1850.5,121.2 1861.2,121.2 
			1861.2,126.6 		"/>
		<path class="st1" d="M1936.7,159V99.7h-102.4V159h-5.4v5.4h113.2V159H1936.7z M1931.3,159h-91.6v-37.8h5.4v-5.4h21.6v5.4h10.8
			v-5.4h21.6v5.4h5.4v-5.4h21.4v5.4h5.4V159z"/>
		<polygon class="st2" points="1931.3,121.2 1931.3,159 1925.9,159 1925.9,126.6 1920.6,126.6 1920.6,121.2 1909.8,121.2 
			1909.8,126.6 1904.4,126.6 1904.4,159 1899,159 1899,126.6 1893.6,126.6 1893.6,121.2 1882.8,121.2 1882.8,126.6 1877.4,126.6 
			1877.4,159 1866.6,159 1866.6,126.6 1861.2,126.6 1861.2,121.2 1850.5,121.2 1850.5,126.6 1845.1,126.6 1845.1,159 1839.7,159 
			1839.7,121.2 1845.1,121.2 1845.1,115.8 1866.6,115.8 1866.6,121.2 1877.4,121.2 1877.4,115.8 1899,115.8 1899,121.2 
			1904.4,121.2 1904.4,115.8 1925.9,115.8 1925.9,121.2 		"/>
		<polygon class="st0" points="1942.1,94.3 1942.1,99.7 1828.9,99.7 1828.9,94.3 1834.3,94.3 1834.3,88.9 1845.1,88.9 1845.1,83.5 
			1925.9,83.5 1925.9,88.9 1936.7,88.9 1936.7,94.3 		"/>
	</g>
	<polygon class="st0" points="2011.4,129.9 2011.4,127.1 2008.5,127.1 2008.5,124.2 2002.8,124.2 2002.8,121.3 1959.6,121.3 
		1959.6,124.2 1953.9,124.2 1953.9,127.1 1951,127.1 1951,129.9 1953.9,129.9 1953.9,161.6 1951,161.6 1951,164.5 2011.4,164.5 
		2011.4,161.6 2008.5,161.6 2008.5,129.9 	"/>
	<g>
		<polygon class="st0" points="2002.8,144.3 2002.8,161.6 1991.3,161.6 1991.3,144.3 1994.1,144.3 1994.1,141.4 1999.9,141.4 
			1999.9,144.3 		"/>
		<polygon class="st0" points="1988.4,144.3 1988.4,161.6 1976.9,161.6 1976.9,144.3 1979.8,144.3 1979.8,141.4 1985.5,141.4 
			1985.5,144.3 		"/>
		<polygon class="st0" points="1971.1,144.3 1971.1,161.6 1959.6,161.6 1959.6,144.3 1962.5,144.3 1962.5,141.4 1968.2,141.4 
			1968.2,144.3 		"/>
		<path class="st1" d="M2008.5,161.6v-31.7h-54.6v31.6h-2.9v2.9h60.4v-2.9L2008.5,161.6L2008.5,161.6z M2005.6,161.6h-48.9v-20.2
			h2.9v-2.9h11.5v2.9h5.8v-2.9h11.5v2.9h2.9v-2.9h11.5v2.9h2.9L2005.6,161.6L2005.6,161.6z"/>
		<polygon class="st2" points="2005.6,141.4 2005.6,161.6 2002.8,161.6 2002.8,144.3 1999.9,144.3 1999.9,141.4 1994.1,141.4 
			1994.1,144.3 1991.3,144.3 1991.3,161.6 1988.4,161.6 1988.4,144.3 1985.5,144.3 1985.5,141.4 1979.8,141.4 1979.8,144.3 
			1976.9,144.3 1976.9,161.6 1971.1,161.6 1971.1,144.3 1968.2,144.3 1968.2,141.4 1962.5,141.4 1962.5,144.3 1959.6,144.3 
			1959.6,161.6 1956.7,161.6 1956.7,141.4 1959.6,141.4 1959.6,138.5 1971.1,138.5 1971.1,141.4 1976.9,141.4 1976.9,138.5 
			1988.4,138.5 1988.4,141.4 1991.3,141.4 1991.3,138.5 2002.8,138.5 2002.8,141.4 		"/>
		<polygon class="st0" points="2011.4,127 2011.4,129.9 1951,129.9 1951,127 1953.9,127 1953.9,124.1 1959.6,124.1 1959.6,121.3 
			2002.8,121.3 2002.8,124.1 2008.5,124.1 2008.5,127 		"/>
	</g>
	<rect x="3157.9" y="153.5" width="21.6" height="5.3"/>
	<rect x="3240.1" y="156.1" width="11.5" height="5.3"/>
	<rect x="3257.4" y="156.1" width="11.5" height="5.3"/>
	<rect x="3271.8" y="156.1" width="11.5" height="5.3"/>
	<rect x="3125.6" y="148.1" width="5.3" height="5.3"/>
	<rect x="3184.9" y="153.5" width="21.5" height="5.3"/>
	<rect x="3125.6" y="153.5" width="21.5" height="5.3"/>
	<rect x="3174.1" y="148.6" width="5.3" height="5.3"/>
	<g>
		<polygon points="2076.1,33.3 2071.4,35.7 2066.6,38.1 2066.6,38.1 2061.8,40.5 2057,43 2059.4,47.8 2064.2,45.3 2069,42.9 
			2069,42.9 2073.8,40.4 2076.2,45.2 2081,42.8 2078.6,38 2083.3,35.6 2080.9,30.8 		"/>
		<rect x="2072.4" y="46.1" transform="matrix(0.8917 -0.4527 0.4527 0.8917 202.676 944.5906)" width="5.3" height="5.3"/>
		<rect x="2070" y="53.3" transform="matrix(0.8917 -0.4527 0.4527 0.8917 199.1598 944.2973)" width="5.3" height="5.3"/>
		<rect x="2066.5" y="55.7" transform="matrix(0.8917 -0.4527 0.4527 0.8917 198.8598 947.8151)" width="26.8" height="5.3"/>
	</g>
	<g>
		<polygon points="1886.7,33.3 1881.9,35.7 1877.1,38.1 1877.1,38.1 1872.4,40.5 1867.5,43 1869.9,47.8 1874.8,45.3 1879.5,42.9 
			1879.6,42.9 1884.3,40.4 1886.8,45.2 1891.5,42.8 1889.1,38 1893.9,35.6 1891.5,30.8 		"/>
		<rect x="1882.9" y="46.1" transform="matrix(0.8917 -0.4527 0.4527 0.8917 182.1545 858.8326)" width="5.3" height="5.3"/>
		<rect x="1880.5" y="53.3" transform="matrix(0.8917 -0.4527 0.4527 0.8917 178.6383 858.5392)" width="5.3" height="5.3"/>
		<rect x="1877" y="55.7" transform="matrix(0.8917 -0.4527 0.4527 0.8917 178.3383 862.0571)" width="26.8" height="5.3"/>
	</g>
	<g>
		<polygon points="1928,4 1925,3 1921.9,2 1921.9,2 1918.8,1 1915.7,0 1914.8,3.1 1917.8,4.1 1920.9,5.1 1920.9,5.1 1924,6.1 
			1923,9.1 1926,10.1 1927,7.1 1930.1,8.1 1931.1,5 		"/>
		<rect x="1919.3" y="8.5" transform="matrix(0.3104 -0.9506 0.9506 0.3104 1314.9926 1833.0435)" width="3.2" height="3.2"/>
		<rect x="1915.3" y="10.6" transform="matrix(0.3104 -0.9506 0.9506 0.3104 1310.24 1830.5938)" width="3.2" height="3.2"/>
		<rect x="1917.3" y="8.2" transform="matrix(0.3104 -0.9506 0.9506 0.3104 1307.78 1835.3447)" width="3.2" height="16.1"/>
	</g>
	<polygon points="3057,151 3057,156.3 3057,161.6 3068.5,161.6 3068.5,156.3 3068.5,151 	"/>
	<polygon points="3080,151 3080,156.3 3074.3,156.3 3074.3,161.6 3085.8,161.6 3085.8,156.3 3085.8,151 	"/>
	<polygon points="3094.4,151 3094.4,156.3 3088.7,156.3 3088.7,161.6 3100.2,161.6 3100.2,156.3 3100.2,151 	"/>
	<polygon points="3012.5,153.6 3012.5,148.8 3001.8,148.8 3001.8,153.6 3001.8,154.1 3001.8,159 3023.3,159 3023.3,153.6 	"/>
	<polygon points="2974.8,148.8 2974.8,153.6 2974.8,154.1 2974.8,159 2996.4,159 2996.4,154.1 2996.4,153.6 2996.4,148.8 	"/>
	<polygon points="2963.9,153.6 2963.9,148.8 2958.6,148.8 2958.6,153.6 2947.8,153.6 2947.8,148.8 2942.4,148.8 2942.4,154.1 
		2942.5,154.1 2942.5,159 2964,159 2964,153.6 	"/>
	<rect x="2792.4" y="153.6" width="21.6" height="5.3"/>
	<rect x="2819.4" y="142.9" width="21.5" height="11.3"/>
	<rect x="2874.6" y="151" width="11.5" height="5.3"/>
	<rect x="2891.9" y="151" width="11.5" height="5.3"/>
	<rect x="2874.6" y="156.3" width="11.5" height="5.3"/>
	<rect x="2891.9" y="156.3" width="11.5" height="5.3"/>
	<rect x="2906.3" y="151" width="11.5" height="5.3"/>
	<rect x="2906.3" y="156.3" width="11.5" height="5.3"/>
	<rect x="2819.4" y="153.6" width="21.5" height="5.3"/>
	<rect x="2760.1" y="153.6" width="21.5" height="5.3"/>
	<rect x="2792.4" y="142.9" width="21.6" height="11.3"/>
	<rect x="2760" y="142.9" width="21.5" height="11.3"/>
	<rect x="2776.2" y="148.8" width="5.3" height="5.3"/>
	<rect x="2609.4" y="153.6" width="21.6" height="5.3"/>
	<rect x="2636.4" y="142.9" width="21.5" height="11.3"/>
	<rect x="2691.6" y="144.4" width="11.5" height="11.9"/>
	<rect x="2708.9" y="151" width="11.5" height="5.3"/>
	<rect x="2714.6" y="144.4" width="5.8" height="6.6"/>
	<rect x="2723.3" y="144.7" width="5.8" height="6.6"/>
	<rect x="2691.6" y="156.3" width="11.5" height="5.3"/>
	<rect x="2708.9" y="156.3" width="11.5" height="5.3"/>
	<rect x="2723.3" y="151.3" width="11.5" height="5.3"/>
	<rect x="2723.3" y="156.7" width="11.5" height="5.3"/>
	<rect x="2636.4" y="153.6" width="21.5" height="5.3"/>
	<rect x="2577.1" y="153.6" width="21.5" height="5.3"/>
	<rect x="2609.4" y="142.9" width="21.6" height="11.3"/>
	<rect x="2577" y="132.6" width="21.5" height="21.5"/>
	<rect x="2609.4" y="132.6" width="10.8" height="21.5"/>
	<rect x="2647.1" y="132.6" width="10.8" height="21.5"/>
	<rect x="2593.2" y="148.8" width="5.3" height="5.3"/>
	<rect x="2426.4" y="153.6" width="21.6" height="5.3"/>
	<rect x="2453.4" y="142.9" width="21.5" height="11.3"/>
	<rect x="2508.6" y="144.4" width="11.5" height="11.9"/>
	<rect x="2525.9" y="151" width="11.5" height="5.3"/>
	<rect x="2525.9" y="144.4" width="11.5" height="6.6"/>
	<rect x="2540.3" y="144.4" width="11.5" height="6.6"/>
	<rect x="2508.6" y="156.3" width="11.5" height="5.3"/>
	<rect x="2525.9" y="156.3" width="11.5" height="5.3"/>
	<rect x="2540.3" y="151" width="11.5" height="5.3"/>
	<rect x="2540.3" y="156.3" width="11.5" height="5.3"/>
	<rect x="2453.4" y="153.6" width="21.5" height="5.3"/>
	<rect x="2394.1" y="153.6" width="21.5" height="5.3"/>
	<rect x="2426.4" y="142.9" width="21.6" height="11.3"/>
	<rect x="2394.1" y="126.4" width="21.5" height="27.8"/>
	<rect x="2426.4" y="132.6" width="21.5" height="21.5"/>
	<rect x="2453.4" y="126.4" width="21.5" height="27.8"/>
	<rect x="2410.3" y="148.8" width="5.3" height="5.3"/>
	<rect x="2243.4" y="153.5" width="21.6" height="5.3"/>
	<rect x="2270.4" y="142.8" width="21.5" height="11.3"/>
	<rect x="2325.6" y="144.3" width="11.5" height="11.9"/>
	<rect x="2328.3" y="141.3" width="5.8" height="11.9"/>
	<rect x="2345.7" y="141.3" width="5.8" height="11.9"/>
	<rect x="2360.1" y="141.3" width="5.8" height="11.9"/>
	<rect x="2342.9" y="150.9" width="11.5" height="5.3"/>
	<rect x="2342.9" y="144.3" width="11.5" height="6.6"/>
	<rect x="2357.3" y="144.3" width="11.5" height="6.6"/>
	<rect x="2325.6" y="156.2" width="11.5" height="5.3"/>
	<rect x="2342.9" y="156.2" width="11.5" height="5.3"/>
	<rect x="2357.3" y="150.9" width="11.5" height="5.3"/>
	<rect x="2357.3" y="156.2" width="11.5" height="5.3"/>
	<rect x="2270.4" y="153.5" width="21.5" height="5.3"/>
	<rect x="2211.1" y="153.5" width="21.5" height="5.3"/>
	<rect x="2243.4" y="142.8" width="21.6" height="11.3"/>
	<rect x="2211" y="126.3" width="21.5" height="27.8"/>
	<rect x="2216.5" y="121.2" width="10.8" height="27.8"/>
	<rect x="2248.8" y="121.2" width="10.8" height="27.8"/>
	<rect x="2275.8" y="121.2" width="10.8" height="27.8"/>
	<rect x="2243.4" y="126.3" width="21.5" height="27.8"/>
	<rect x="2270.4" y="126.3" width="21.5" height="27.8"/>
	<rect x="2227.2" y="148.7" width="5.3" height="5.3"/>
	<rect x="2060.4" y="153.6" width="21.6" height="5.3"/>
	<rect x="2087.4" y="142.9" width="21.5" height="11.3"/>
	<rect x="2142.6" y="144.4" width="11.5" height="11.9"/>
	<rect x="2145.3" y="141.4" width="5.8" height="11.9"/>
	<rect x="2162.8" y="141.4" width="5.8" height="11.9"/>
	<rect x="2177.2" y="141.3" width="5.8" height="11.9"/>
	<rect x="2159.9" y="151" width="11.5" height="5.3"/>
	<rect x="2159.9" y="144.4" width="11.5" height="6.6"/>
	<rect x="2174.3" y="144.4" width="11.5" height="6.6"/>
	<rect x="2142.6" y="156.3" width="11.5" height="5.3"/>
	<rect x="2159.9" y="156.3" width="11.5" height="5.3"/>
	<rect x="2174.3" y="151" width="11.5" height="5.3"/>
	<rect x="2174.3" y="156.3" width="11.5" height="5.3"/>
	<rect x="2087.4" y="153.6" width="21.5" height="5.3"/>
	<rect x="2028.1" y="153.6" width="21.5" height="5.3"/>
	<rect x="2060.4" y="142.9" width="21.6" height="11.3"/>
	<rect x="2028.1" y="126.4" width="21.5" height="27.8"/>
	<rect x="2033.5" y="121.3" width="10.8" height="27.8"/>
	<rect x="2065.8" y="121.3" width="10.8" height="27.8"/>
	<rect x="2092.8" y="121.3" width="10.8" height="27.8"/>
	<rect x="2060.4" y="126.4" width="21.5" height="27.8"/>
	<rect x="2087.4" y="126.4" width="21.5" height="27.8"/>
	<rect x="2044.2" y="148.8" width="5.3" height="5.3"/>
	<rect x="1877.4" y="153.6" width="21.6" height="5.3"/>
	<rect x="1904.4" y="142.9" width="21.5" height="11.3"/>
	<rect x="1959.6" y="144.4" width="11.5" height="11.9"/>
	<rect x="1962.3" y="141.4" width="5.8" height="11.9"/>
	<rect x="1979.8" y="141.4" width="5.8" height="11.9"/>
	<rect x="1993.1" y="141.4" width="5.8" height="11.9"/>
	<rect x="1976.9" y="151" width="11.5" height="5.3"/>
	<rect x="1976.9" y="144.4" width="11.5" height="6.6"/>
	<rect x="1991.3" y="144.4" width="11.5" height="6.6"/>
	<rect x="1959.6" y="156.3" width="11.5" height="5.3"/>
	<rect x="1976.9" y="156.3" width="11.5" height="5.3"/>
	<rect x="1991.3" y="151" width="11.5" height="5.3"/>
	<rect x="1991.3" y="156.3" width="11.5" height="5.3"/>
	<rect x="1904.4" y="153.6" width="21.5" height="5.3"/>
	<rect x="1845.1" y="153.6" width="21.5" height="5.3"/>
	<rect x="1877.4" y="142.9" width="21.6" height="11.3"/>
	<rect x="1845.1" y="126.4" width="21.5" height="27.8"/>
	<rect x="1850.5" y="121.3" width="10.8" height="27.8"/>
	<rect x="1882.9" y="121.3" width="10.8" height="27.8"/>
	<rect x="1909.8" y="121.3" width="10.8" height="27.8"/>
	<rect x="1877.4" y="126.4" width="21.5" height="27.8"/>
	<rect x="1904.4" y="126.4" width="21.5" height="27.8"/>
	<rect x="1861.3" y="148.8" width="5.3" height="5.3"/>
	<rect x="182.8" y="-240.6" width="183" height="162.4"/>
	<rect x="366" y="-240.6" width="183" height="162.4"/>
	<rect x="548.2" y="-240.6" width="183" height="162.4"/>
	<rect x="731.2" y="-240.6" width="183" height="162.4"/>
	<rect x="913.5" y="-240.6" width="183" height="162.4"/>
	<rect x="1096.2" y="-240.6" width="183" height="162.4"/>
	<rect x="1279.2" y="-240.6" width="183" height="162.4"/>
	<rect x="1462.6" y="-240.6" width="183" height="162.4"/>
	<rect x="1645.9" y="-240.6" width="183" height="162.4"/>
	<rect x="2010.2" y="-240.6" width="183" height="162.4"/>
	<rect x="2193.2" y="-240.6" width="183" height="162.4"/>
	<rect x="2376.4" y="-240.6" width="183" height="162.4"/>
	<rect x="2559.4" y="-240.6" width="183" height="162.4"/>
	<rect x="2741.7" y="-240.6" width="183" height="162.4"/>
	<rect x="2924.7" y="-240.6" width="183" height="162.4"/>
	<rect x="3107.7" y="-240.6" width="183" height="162.4"/>
	<rect x="3290.7" y="-240.6" width="183" height="162.4"/>
</g>
</svg>
