<?xml version="1.0" encoding="utf-8"?>
<!-- Generator: Adobe Illustrator 24.1.1, SVG Export Plug-In . SVG Version: 6.00 Build 0)  -->
<svg version="1.1" id="Слой_1" xmlns="http://www.w3.org/2000/svg" xmlns:xlink="http://www.w3.org/1999/xlink" x="0px" y="0px"
	 viewBox="0 0 183 81" style="enable-background:new 0 0 183 81;" xml:space="preserve">
<style type="text/css">
	.st0{fill:#E6A47B;}
	.st1{fill:#F7C186;}
	.st2{fill:#F4D9AE;}
</style>
<polygon class="st0" points="113.2,16.2 113.2,10.8 107.8,10.8 107.8,5.5 97,5.5 97,0.1 16.2,0.1 16.2,5.5 5.4,5.5 5.4,10.8 0,10.8 
	0,16.2 5.4,16.2 5.4,75.5 0,75.5 0,80.9 113.2,80.9 113.2,75.5 107.8,75.5 107.8,16.2 "/>
<g>
	<polygon class="st0" points="97,43.1 97,75.5 75.5,75.5 75.5,43.1 80.9,43.1 80.9,37.7 91.7,37.7 91.7,43.1 	"/>
	<polygon class="st0" points="70.1,43.1 70.1,75.5 48.5,75.5 48.5,43.1 53.9,43.1 53.9,37.7 64.7,37.7 64.7,43.1 	"/>
	<polygon class="st0" points="37.7,43.1 37.7,75.5 16.2,75.5 16.2,43.1 21.6,43.1 21.6,37.7 32.3,37.7 32.3,43.1 	"/>
	<path class="st1" d="M107.8,75.5V16.2H5.4v59.3H0v5.4h113.2v-5.4H107.8z M102.4,75.5H10.8V37.7h5.4v-5.4h21.6v5.4h10.8v-5.4h21.6
		v5.4h5.4v-5.4H97v5.4h5.4V75.5z"/>
	<polygon class="st2" points="102.4,37.7 102.4,75.5 97,75.5 97,43.1 91.7,43.1 91.7,37.7 80.9,37.7 80.9,43.1 75.5,43.1 75.5,75.5 
		70.1,75.5 70.1,43.1 64.7,43.1 64.7,37.7 53.9,37.7 53.9,43.1 48.5,43.1 48.5,75.5 37.7,75.5 37.7,43.1 32.3,43.1 32.3,37.7 
		21.6,37.7 21.6,43.1 16.2,43.1 16.2,75.5 10.8,75.5 10.8,37.7 16.2,37.7 16.2,32.3 37.7,32.3 37.7,37.7 48.5,37.7 48.5,32.3 
		70.1,32.3 70.1,37.7 75.5,37.7 75.5,32.3 97,32.3 97,37.7 	"/>
	<polygon class="st0" points="113.2,10.8 113.2,16.2 0,16.2 0,10.8 5.4,10.8 5.4,5.4 16.2,5.4 16.2,0 97,0 97,5.4 107.8,5.4 
		107.8,10.8 	"/>
</g>
<polygon class="st0" points="182.5,46.4 182.5,43.6 179.6,43.6 179.6,40.7 173.9,40.7 173.9,37.8 130.7,37.8 130.7,40.7 125,40.7 
	125,43.6 122.1,43.6 122.1,46.4 125,46.4 125,78.1 122.1,78.1 122.1,81 182.5,81 182.5,78.1 179.6,78.1 179.6,46.4 "/>
<g>
	<polygon class="st0" points="173.9,60.8 173.9,78.1 162.4,78.1 162.4,60.8 165.2,60.8 165.2,57.9 171,57.9 171,60.8 	"/>
	<polygon class="st0" points="159.5,60.8 159.5,78.1 148,78.1 148,60.8 150.9,60.8 150.9,57.9 156.6,57.9 156.6,60.8 	"/>
	<polygon class="st0" points="142.2,60.8 142.2,78.1 130.7,78.1 130.7,60.8 133.6,60.8 133.6,57.9 139.3,57.9 139.3,60.8 	"/>
	<path class="st1" d="M179.6,78.1V46.4H125v31.6h-2.9v2.9h60.4v-2.9H179.6z M176.7,78.1h-48.9V57.9h2.9V55h11.5v2.9h5.8V55h11.5v2.9
		h2.9V55h11.5v2.9h2.9V78.1z"/>
	<polygon class="st2" points="176.7,57.9 176.7,78.1 173.9,78.1 173.9,60.8 171,60.8 171,57.9 165.2,57.9 165.2,60.8 162.4,60.8 
		162.4,78.1 159.5,78.1 159.5,60.8 156.6,60.8 156.6,57.9 150.9,57.9 150.9,60.8 148,60.8 148,78.1 142.2,78.1 142.2,60.8 
		139.3,60.8 139.3,57.9 133.6,57.9 133.6,60.8 130.7,60.8 130.7,78.1 127.8,78.1 127.8,57.9 130.7,57.9 130.7,55 142.2,55 
		142.2,57.9 148,57.9 148,55 159.5,55 159.5,57.9 162.4,57.9 162.4,55 173.9,55 173.9,57.9 	"/>
	<polygon class="st0" points="182.5,43.5 182.5,46.4 122.1,46.4 122.1,43.5 125,43.5 125,40.6 130.7,40.6 130.7,37.8 173.9,37.8 
		173.9,40.6 179.6,40.6 179.6,43.5 	"/>
</g>
</svg>
