<svg width="218" height="137" viewBox="0 0 218 137" fill="none" xmlns="http://www.w3.org/2000/svg">
<path d="M162.011 1.32004C179.862 4.78106 190.603 38.5189 212.091 105.988C216.268 119.113 218.159 125.958 214.726 131.108C206.681 143.166 180.692 129.05 128.405 127.619C108.499 127.075 110.581 129.071 78.3259 129.015C15.6608 128.903 8.26089 121.353 5.18365 116.455C-2.6182 104.034 1.13776 82.7516 11.1141 70.4008C27.0802 50.6326 55.3223 58.2733 58.5577 45.9783C61.9974 32.9158 32.2068 16.3503 35.4949 9.69347C38.1965 4.22283 58.4062 15.1781 92.1636 13.8802C103.155 13.4545 112.578 11.8496 121.157 10.3913C153.326 4.91364 153.3 -0.368598 162.011 1.32004Z" stroke="black" stroke-miterlimit="10"/>
</svg>
