<svg width="218" height="137" viewBox="0 0 218 137" fill="none" xmlns="http://www.w3.org/2000/svg">
<mask id="mask0" mask-type="alpha" maskUnits="userSpaceOnUse" x="0" y="0" width="218" height="137">
<path d="M162.011 1.32004C179.862 4.78106 190.603 38.5189 212.091 105.988C216.268 119.113 218.159 125.958 214.726 131.108C206.681 143.166 180.692 129.05 128.405 127.619C108.499 127.075 110.581 129.071 78.3259 129.015C15.6608 128.903 8.26089 121.353 5.18365 116.455C-2.6182 104.034 1.13776 82.7516 11.1141 70.4008C27.0802 50.6326 55.3223 58.2733 58.5577 45.9783C61.9974 32.9158 32.2068 16.3503 35.4949 9.69347C38.1965 4.22283 58.4062 15.1781 92.1636 13.8802C103.155 13.4545 112.578 11.8496 121.157 10.3913C153.326 4.91364 153.3 -0.368598 162.011 1.32004Z" fill="black" stroke="black" stroke-miterlimit="10"/>
</mask>
<g mask="url(#mask0)">
<path d="M-104 102.271L54.1503 291.35M-11.9536 25.2815L146.197 214.36M-57.9768 63.7765L100.174 252.855M34.0696 -13.2135L192.22 175.865M121.514 -86.3541L279.664 102.725M-80.9884 83.024L77.1619 272.103M11.058 6.03396L169.208 195.113M98.502 -67.1066L256.652 121.972M-34.9652 44.529L123.185 233.608M57.0812 -32.4611L215.232 156.618M144.525 -105.602L302.676 83.477M-94.7954 94.5725L63.355 283.651M-2.74898 17.5825L155.401 206.661M84.6951 -55.5581L242.845 133.521M-48.7722 56.0775L109.378 245.156M43.2742 -20.9125L201.425 168.166M130.718 -94.0531L288.869 95.0255M-71.7838 75.325L86.3666 264.404M20.2626 -1.66504L178.413 187.414M107.707 -74.8056L265.857 114.273M-25.7606 36.83L132.39 225.909M66.2858 -40.1601L224.436 148.919M153.73 -113.301L311.88 75.778M-99.3977 98.422L58.7527 287.501M-7.3513 21.432L150.799 210.511M80.0928 -51.7086L238.243 137.37M-53.3745 59.927L104.776 249.006M38.6719 -17.063L196.822 172.016M126.116 -90.2036L284.266 98.875M-76.3861 79.1745L81.7642 268.253M15.6603 2.18446L173.811 191.263M103.104 -70.9561L261.255 118.123M-30.3629 40.6795L127.787 229.758M61.6835 -36.3106L219.834 152.768M149.128 -109.451L307.278 79.6275M-90.193 90.723L67.9573 279.802M1.85334 13.733L160.004 202.812M89.2974 -59.4076L247.448 129.671M-44.1699 52.228L113.98 241.307M47.8765 -24.762L206.027 164.317M135.321 -97.9026L293.471 91.176M-67.1814 71.4755L90.9689 260.554M24.8649 -5.51454L183.015 183.564M112.309 -78.6551L270.459 110.424M-21.1583 32.9805L136.992 222.059M70.8881 -44.0096L229.038 145.069M158.332 -117.15L316.483 71.9285M-85.5907 86.8735L72.5596 275.952M6.45566 9.88346L164.606 198.962M93.8997 -63.2571L252.05 125.822M-39.5675 48.3785L118.583 237.457M52.4789 -28.6116L210.629 160.467M139.923 -101.752L298.073 87.3265M-62.5791 67.626L95.5712 256.705M29.4673 -9.36405L187.618 179.715M116.911 -82.5046L275.062 106.574M-16.5559 29.131L141.594 218.21M75.4904 -47.8591L233.641 141.22M162.935 -121L321.085 68.079" stroke="black"/>
</g>
</svg>
