<?xml version="1.0" encoding="utf-8"?>
<!-- Generator: Adobe Illustrator 24.0.1, SVG Export Plug-In . SVG Version: 6.00 Build 0)  -->
<svg version="1.1" id="Слой_1" xmlns="http://www.w3.org/2000/svg" xmlns:xlink="http://www.w3.org/1999/xlink" x="0px" y="0px"
	 viewBox="0 0 218 137" style="enable-background:new 0 0 218 137;" xml:space="preserve">
<style type="text/css">
	.st0{fill:none;stroke:#FFFFFF;stroke-miterlimit:10;}
</style>
<path class="st0" d="M162,1.3c17.9,3.5,28.6,37.2,50.1,104.7c4.2,13.1,6.1,20,2.6,25.1c-8,12.1-34-2.1-86.3-3.5
	c-19.9-0.5-17.8,1.5-50.1,1.4c-62.7-0.1-70.1-7.7-73.1-12.6c-7.8-12.4-4-33.7,5.9-46.1c16-19.8,44.2-12.1,47.4-24.4
	C62,32.9,32.2,16.4,35.5,9.7c2.7-5.5,22.9,5.5,56.7,4.2c11-0.4,20.4-2,29-3.5C153.3,4.9,153.3-0.4,162,1.3z"/>
</svg>
