<?xml version="1.0" encoding="utf-8"?>
<!-- Generator: Adobe Illustrator 24.1.1, SVG Export Plug-In . SVG Version: 6.00 Build 0)  -->
<svg version="1.1" id="Слой_1" xmlns="http://www.w3.org/2000/svg" xmlns:xlink="http://www.w3.org/1999/xlink" x="0px" y="0px"
	 viewBox="0 0 1339 91" style="enable-background:new 0 0 1339 91;" xml:space="preserve">
<style type="text/css">
	.st0{fill:#FFCD00;}
	.st1{fill:#939393;}
	.st2{fill:#D8D8D8;}
</style>
<path class="st0" d="M648.7,20.1l-2.9,1.2l1.2,2.9l2.9-1.2L648.7,20.1z"/>
<path class="st0" d="M652.7,21.8l-2.8,1.2l1.2,2.9l2.9-1.2L652.7,21.8z"/>
<path class="st0" d="M648.8,35.2l-0.8,3l3,0.8l0.8-3L648.8,35.2z"/>
<path class="st0" d="M652.6,33l-0.8,3l3,0.8l0.8-3L652.6,33z"/>
<path class="st0" d="M659.1,8.6l-1.7,2.5l2.5,1.8l1.7-2.5L659.1,8.6z"/>
<path class="st0" d="M659.9,12.9l-1.8,2.6l2.5,1.8l1.8-2.6L659.9,12.9z"/>
<path class="st1" d="M678.5,21.5L678.5,21.5L678.5,21.5z"/>
<path class="st1" d="M678.5,21.5L678.5,21.5L678.5,21.5z"/>
<path class="st1" d="M716,57.5L716,57.5L716,57.5z"/>
<path class="st1" d="M678.5,21.5L678.5,21.5L678.5,21.5z"/>
<path class="st1" d="M699.1,36.2L699.1,36.2L699.1,36.2z"/>
<path class="st1" d="M699.1,36.2L699.1,36.2L699.1,36.2z"/>
<path class="st1" d="M699.1,36.2L699.1,36.2L699.1,36.2z"/>
<path class="st1" d="M699.1,36.2L699.1,36.2L699.1,36.2z"/>
<path class="st1" d="M683.3,11.2L683.3,11.2L683.3,11.2z"/>
<path class="st1" d="M683.3,11.2L683.3,11.2L683.3,11.2z"/>
<polygon class="st2" points="701.2,84.8 701.2,81.7 698.1,81.7 698.1,78.6 695,78.6 695,72.4 692,72.4 692,69.3 688.9,69.3 
	688.9,66.2 682.7,66.2 682.7,69.3 679.6,69.3 679.6,66.2 676.6,66.2 676.6,63.1 679.6,63.1 679.6,53.8 676.6,53.8 676.6,50.7 
	673.5,50.7 673.5,44.5 670.4,44.5 670.4,38.3 661.1,38.3 661.1,41.4 658.1,41.4 658.1,44.5 655,44.5 655,47.6 651.9,47.6 
	651.9,50.7 648.8,50.7 648.8,53.8 645.7,53.8 645.7,60 639.6,60 639.6,63.1 636.5,63.1 636.5,66.2 633.4,66.2 633.4,72.4 
	630.3,72.4 630.3,75.5 627.3,75.5 627.3,78.6 627.2,78.6 624.3,78.6 621.1,78.6 621.1,84.8 618,84.8 618,91 624.3,91 627.2,91 
	627.3,91 635.2,91 704.3,91 704.3,84.8 "/>
<polygon class="st1" points="721,26.1 719.3,26.1 717.8,26.1 717.3,26.1 715.7,26 714.2,26 709.6,26 708.6,25.9 706.7,25.8 
	704.9,25.9 703.2,25.9 701.4,25.9 700.5,25.9 698.8,25.9 697.8,25.9 696.9,25.9 691.3,25.8 690.6,25.8 689.9,25.8 678.5,25.7 
	678.1,25.6 676.3,25.6 676.3,25.6 676.2,25.6 676.2,25.6 674.3,25.6 672.6,25.6 670.9,25.5 669.1,25.6 669.1,23.8 669.1,22 
	669,20.3 670.8,20.2 670.8,18.5 670.8,16.7 669,16.7 667.2,16.7 665.5,16.8 663.7,16.8 661.9,16.7 660.1,16.7 658.3,16.8 
	658.3,18.5 658.4,20.3 660.1,20.3 660.1,21.9 660.2,23.7 660.1,25.5 660.1,27.3 660.1,30.9 660.1,32.7 660.1,34.4 660.1,36.2 
	660.2,38 658.4,38 658.2,41.6 660,41.6 661.8,41.5 663.6,41.6 665.4,41.6 667.1,41.6 670.7,41.6 670.7,39.8 668.9,39.8 670.6,39.8 
	670.6,38 668.9,38 668.8,36.2 668.8,34.5 668.8,32.7 677.9,32.8 678,32.8 681.6,32.9 683.1,32.9 721,33.3 "/>
<path class="st0" d="M747.7,18.4l-2.9,1.2l1.2,2.9l2.9-1.2L747.7,18.4z"/>
<path class="st0" d="M751.7,20.1l-2.9,1.2l1.2,2.9l2.9-1.2L751.7,20.1z"/>
<path class="st0" d="M755.7,21.8l-2.8,1.2l1.2,2.9l2.9-1.2L755.7,21.8z"/>
<path class="st0" d="M748,37.3l-0.8,3l3,0.8l0.8-3L748,37.3z"/>
<path class="st0" d="M751.8,35.2l-0.8,3l3,0.8l0.8-3L751.8,35.2z"/>
<path class="st0" d="M755.6,33l-0.8,3l3,0.8l0.8-3L755.6,33z"/>
<path class="st0" d="M761.3,4.3l-1.7,2.5l2.5,1.8l1.7-2.5L761.3,4.3z"/>
<path class="st0" d="M762.1,8.6l-1.7,2.5l2.5,1.8l1.7-2.5L762.1,8.6z"/>
<path class="st0" d="M762.9,12.9l-1.8,2.6l2.5,1.8l1.8-2.6L762.9,12.9z"/>
<path class="st1" d="M781.5,21.5L781.5,21.5L781.5,21.5z"/>
<path class="st1" d="M781.5,21.5L781.5,21.5L781.5,21.5z"/>
<path class="st1" d="M819,57.5L819,57.5L819,57.5z"/>
<path class="st1" d="M781.5,21.5L781.5,21.5L781.5,21.5z"/>
<path class="st1" d="M802.1,36.2L802.1,36.2L802.1,36.2z"/>
<path class="st1" d="M802.1,36.2L802.1,36.2L802.1,36.2z"/>
<path class="st1" d="M802.1,36.2L802.1,36.2L802.1,36.2z"/>
<path class="st1" d="M802.1,36.2L802.1,36.2L802.1,36.2z"/>
<path class="st1" d="M786.3,11.2L786.3,11.2L786.3,11.2z"/>
<path class="st1" d="M786.3,11.2L786.3,11.2L786.3,11.2z"/>
<polygon class="st2" points="804.2,84.8 804.2,81.7 801.1,81.7 801.1,78.6 798,78.6 798,72.4 795,72.4 795,69.3 791.9,69.3 
	791.9,66.2 785.7,66.2 785.7,69.3 782.6,69.3 782.6,66.2 779.6,66.2 779.6,63.1 782.6,63.1 782.6,53.8 779.6,53.8 779.6,50.7 
	776.5,50.7 776.5,44.5 773.4,44.5 773.4,38.3 764.1,38.3 764.1,41.4 761.1,41.4 761.1,44.5 758,44.5 758,47.6 754.9,47.6 
	754.9,50.7 751.8,50.7 751.8,53.8 748.7,53.8 748.7,60 742.6,60 742.6,63.1 739.5,63.1 739.5,66.2 736.4,66.2 736.4,72.4 
	733.3,72.4 733.3,75.5 730.3,75.5 730.3,78.6 730.2,78.6 727.3,78.6 724.1,78.6 724.1,84.8 721,84.8 721,91 727.3,91 730.2,91 
	730.3,91 738.2,91 807.3,91 807.3,84.8 "/>
<polygon class="st1" points="824,42.9 822.4,42.3 821,41.7 820.6,41.5 819.1,40.9 817.8,40.4 813.4,38.6 812.5,38.1 810.8,37.4 
	809.2,36.7 807.5,36.1 805.9,35.5 805,35.1 803.4,34.5 802.6,34.1 801.8,33.8 796.6,31.6 795.9,31.3 795.3,31.1 784.7,26.7 
	784.3,26.5 782.7,25.9 782.7,25.9 782.6,25.8 782.6,25.8 780.9,25.1 779.2,24.5 777.7,23.8 776,23.1 776.7,21.5 777.3,19.8 
	777.9,18.2 779.6,18.8 780.2,17.2 780.9,15.5 779.2,14.9 777.6,14.3 775.9,13.6 774.3,13 772.6,12.2 770.9,11.6 769.3,11 
	768.6,12.6 768,14.3 769.7,14.9 769.1,16.4 768.4,18.1 767.7,19.7 767.1,21.4 765.7,24.7 765,26.4 764.4,28 763.8,29.7 763.1,31.3 
	761.5,30.7 760,34 761.6,34.6 763.3,35.2 764.9,36 766.6,36.6 768.2,37.3 771.6,38.6 772.2,37 770.5,36.3 772.2,36.9 772.8,35.2 
	771.2,34.6 771.8,33 772.5,31.3 773.1,29.7 781.5,33.1 781.6,33.2 784.9,34.6 786.3,35.1 821.3,49.6 "/>
<path class="st0" d="M846.7,16.7l-2.9,1.2l1.2,2.9l2.9-1.2L846.7,16.7z"/>
<path class="st0" d="M850.7,18.4l-2.9,1.2l1.2,2.9l2.9-1.2L850.7,18.4z"/>
<path class="st0" d="M854.7,20.1l-2.9,1.2l1.2,2.9l2.9-1.2L854.7,20.1z"/>
<path class="st0" d="M858.7,21.8l-2.8,1.2l1.2,2.9l2.9-1.2L858.7,21.8z"/>
<path class="st0" d="M847.2,39.5l-0.8,3l3,0.8l0.8-3L847.2,39.5z"/>
<path class="st0" d="M851,37.3l-0.8,3l3,0.8l0.8-3L851,37.3z"/>
<path class="st0" d="M854.8,35.2l-0.8,3l3,0.8l0.8-3L854.8,35.2z"/>
<path class="st0" d="M858.6,33l-0.8,3l3,0.8l0.8-3L858.6,33z"/>
<path class="st0" d="M863.5,0l-1.7,2.6l2.5,1.8l1.7-2.6L863.5,0z"/>
<path class="st0" d="M864.3,4.3l-1.7,2.5l2.5,1.8l1.7-2.5L864.3,4.3z"/>
<path class="st0" d="M865.1,8.6l-1.7,2.5l2.5,1.8l1.7-2.5L865.1,8.6z"/>
<path class="st0" d="M865.9,12.9l-1.8,2.6l2.5,1.8l1.8-2.6L865.9,12.9z"/>
<path class="st1" d="M884.5,21.5L884.5,21.5L884.5,21.5z"/>
<path class="st1" d="M884.5,21.5L884.5,21.5L884.5,21.5z"/>
<path class="st1" d="M922,57.5L922,57.5L922,57.5z"/>
<path class="st1" d="M884.5,21.5L884.5,21.5L884.5,21.5z"/>
<path class="st1" d="M905.1,36.2L905.1,36.2L905.1,36.2z"/>
<path class="st1" d="M905.1,36.2L905.1,36.2L905.1,36.2z"/>
<path class="st1" d="M905.1,36.2L905.1,36.2L905.1,36.2z"/>
<path class="st1" d="M905.1,36.2L905.1,36.2L905.1,36.2z"/>
<path class="st1" d="M889.3,11.2L889.3,11.2L889.3,11.2z"/>
<path class="st1" d="M889.3,11.2L889.3,11.2L889.3,11.2z"/>
<polygon class="st2" points="907.2,84.8 907.2,81.7 904.1,81.7 904.1,78.6 901,78.6 901,72.4 898,72.4 898,69.3 894.9,69.3 
	894.9,66.2 888.7,66.2 888.7,69.3 885.6,69.3 885.6,66.2 882.6,66.2 882.6,63.1 885.6,63.1 885.6,53.8 882.6,53.8 882.6,50.7 
	879.5,50.7 879.5,44.5 876.4,44.5 876.4,38.3 867.1,38.3 867.1,41.4 864.1,41.4 864.1,44.5 861,44.5 861,47.6 857.9,47.6 
	857.9,50.7 854.8,50.7 854.8,53.8 851.7,53.8 851.7,60 845.6,60 845.6,63.1 842.5,63.1 842.5,66.2 839.4,66.2 839.4,72.4 
	836.3,72.4 836.3,75.5 833.3,75.5 833.3,78.6 833.2,78.6 830.3,78.6 827.1,78.6 827.1,84.8 824,84.8 824,91 830.3,91 833.2,91 
	833.3,91 841.2,91 910.3,91 910.3,84.8 "/>
<path class="st0" d="M549.7,21.8l-2.8,1.2l1.2,2.9l2.9-1.2L549.7,21.8z"/>
<path class="st2" d="M544.2,42.6l-2.8,1.2l1.2,2.9l2.9-1.2L544.2,42.6z"/>
<path class="st2" d="M539.2,53.4l-2.8,1.2l1.2,2.9l2.9-1.2L539.2,53.4z"/>
<path class="st2" d="M529.1,52.9l-2.8,1.2l1.2,2.9l2.9-1.2L529.1,52.9z"/>
<path class="st2" d="M532.7,35.4l-2.8,1.2l1.2,2.9l2.9-1.2L532.7,35.4z"/>
<path class="st2" d="M644.5,44.2l-2.8,1.2l1.2,2.9l2.9-1.2L644.5,44.2z"/>
<path class="st2" d="M643.6,53.4l-2.8,1.2l1.2,2.9l2.9-1.2L643.6,53.4z"/>
<path class="st2" d="M633.8,54.9l-2.8,1.2l1.2,2.9l2.9-1.2L633.8,54.9z"/>
<path class="st2" d="M634.4,43.7l-2.8,1.2l1.2,2.9l2.9-1.2L634.4,43.7z"/>
<path class="st2" d="M623.8,51.3l-2.8,1.2l1.2,2.9l2.9-1.2L623.8,51.3z"/>
<path class="st2" d="M627.9,33.4l-2.8,1.2l1.2,2.9l2.9-1.2L627.9,33.4z"/>
<path class="st2" d="M738.3,52.4l-2.8,1.2l1.2,2.9l2.9-1.2L738.3,52.4z"/>
<path class="st2" d="M738.9,41.2l-2.8,1.2l1.2,2.9l2.9-1.2L738.9,41.2z"/>
<path class="st2" d="M728.3,48.8l-2.8,1.2l1.2,2.9l2.9-1.2L728.3,48.8z"/>
<path class="st2" d="M732.4,30.9l-2.8,1.2l1.2,2.9l2.9-1.2L732.4,30.9z"/>
<path class="st2" d="M842.5,48.4l-2.8,1.2l1.2,2.9l2.9-1.2L842.5,48.4z"/>
<path class="st2" d="M836,38.1l-2.8,1.2l1.2,2.9l2.9-1.2L836,38.1z"/>
<path class="st2" d="M637.9,26.3l-2.8,1.2l1.2,2.9l2.9-1.2L637.9,26.3z"/>
<path class="st2" d="M641.3,37.5l-2.8,1.2l1.2,2.9l2.9-1.2L641.3,37.5z"/>
<path class="st0" d="M549.6,33l-0.8,3l3,0.8l0.8-3L549.6,33z"/>
<path class="st0" d="M556.9,12.9l-1.8,2.6l2.5,1.8l1.8-2.6L556.9,12.9z"/>
<path class="st1" d="M575.5,21.5L575.5,21.5L575.5,21.5z"/>
<path class="st1" d="M575.5,21.5L575.5,21.5L575.5,21.5z"/>
<path class="st1" d="M613,57.5L613,57.5L613,57.5z"/>
<path class="st1" d="M575.5,21.5L575.5,21.5L575.5,21.5z"/>
<path class="st1" d="M596.1,36.2L596.1,36.2L596.1,36.2z"/>
<path class="st1" d="M596.1,36.2L596.1,36.2L596.1,36.2z"/>
<path class="st1" d="M596.1,36.2L596.1,36.2L596.1,36.2z"/>
<path class="st1" d="M596.1,36.2L596.1,36.2L596.1,36.2z"/>
<path class="st1" d="M580.3,11.2L580.3,11.2L580.3,11.2z"/>
<path class="st1" d="M580.3,11.2L580.3,11.2L580.3,11.2z"/>
<polygon class="st2" points="598.2,84.8 598.2,81.7 595.1,81.7 595.1,78.6 592,78.6 592,72.4 589,72.4 589,69.3 585.9,69.3 
	585.9,66.2 579.7,66.2 579.7,69.3 576.6,69.3 576.6,66.2 573.6,66.2 573.6,63.1 576.6,63.1 576.6,53.8 573.6,53.8 573.6,50.7 
	570.5,50.7 570.5,44.5 567.4,44.5 567.4,38.3 558.1,38.3 558.1,41.4 555.1,41.4 555.1,44.5 552,44.5 552,47.6 548.9,47.6 
	548.9,50.7 545.8,50.7 545.8,53.8 542.7,53.8 542.7,60 536.6,60 536.6,63.1 533.5,63.1 533.5,66.2 530.4,66.2 530.4,72.4 
	527.3,72.4 527.3,75.5 524.3,75.5 524.3,78.6 524.2,78.6 521.3,78.6 518.1,78.6 518.1,84.8 515,84.8 515,91 521.3,91 524.2,91 
	524.3,91 532.2,91 601.3,91 601.3,84.8 "/>
<polygon class="st1" points="618,42.9 616.4,42.3 615,41.7 614.6,41.5 613.1,40.9 611.8,40.4 607.4,38.6 606.5,38.1 604.8,37.4 
	603.2,36.7 601.5,36.1 599.9,35.5 599,35.1 597.4,34.5 596.6,34.1 595.8,33.8 590.6,31.6 589.9,31.3 589.3,31.1 578.7,26.7 
	578.3,26.5 576.7,25.9 576.7,25.9 576.6,25.8 576.6,25.8 574.9,25.1 573.2,24.5 571.7,23.8 570,23.1 570.7,21.5 571.3,19.8 
	571.9,18.2 573.6,18.8 574.2,17.2 574.9,15.5 573.2,14.9 571.6,14.3 569.9,13.6 568.3,13 566.6,12.2 564.9,11.6 563.3,11 
	562.6,12.6 562,14.3 563.7,14.9 563.1,16.4 562.4,18.1 561.7,19.7 561.1,21.4 559.7,24.7 559,26.4 558.4,28 557.8,29.7 557.1,31.3 
	555.5,30.7 554,34 555.6,34.6 557.3,35.2 558.9,36 560.6,36.6 562.2,37.3 565.6,38.6 566.2,37 564.5,36.3 566.2,36.9 566.8,35.2 
	565.2,34.6 565.8,33 566.5,31.3 567.1,29.7 575.5,33.1 575.6,33.2 578.9,34.6 580.3,35.1 615.3,49.6 "/>
<polygon class="st1" points="927,46.6 925.5,45.7 924.2,45 923.7,44.8 922.4,44 921.1,43.3 916.9,41.1 916.1,40.5 914.5,39.6 
	913,38.8 911.4,38 909.8,37.2 909,36.7 907.5,35.9 906.6,35.5 905.9,35.1 901,32.4 900.3,32 899.7,31.7 889.7,26.2 889.3,26 
	887.8,25.2 887.8,25.2 887.6,25.1 887.6,25.1 886,24.2 884.5,23.4 883,22.5 881.4,21.7 882.2,20.2 883.1,18.6 883.9,17 885.4,17.8 
	886.3,16.3 887.1,14.7 885.5,13.9 883.9,13.1 882.4,12.2 880.8,11.4 879.2,10.5 877.6,9.7 876,8.9 875.2,10.5 874.4,12 876,12.8 
	875.2,14.3 874.4,15.9 873.5,17.5 872.7,19 871,22.2 870.2,23.8 869.3,25.3 868.5,26.9 867.7,28.5 866.2,27.7 864.3,30.8 
	865.9,31.6 867.4,32.4 869,33.3 870.6,34.1 872.2,34.9 875.4,36.7 876.2,35.1 874.6,34.2 876.1,35 877,33.4 875.4,32.6 876.2,31 
	877,29.5 877.8,27.9 885.8,32.3 885.9,32.3 889,34.1 890.3,34.7 923.6,52.9 "/>
<path class="st0" d="M434.7,16.7l-2.9,1.2l1.2,2.9l2.9-1.2L434.7,16.7z"/>
<path class="st0" d="M438.7,18.4l-2.9,1.2l1.2,2.9l2.9-1.2L438.7,18.4z"/>
<path class="st0" d="M442.7,20.1l-2.9,1.2l1.2,2.9l2.9-1.2L442.7,20.1z"/>
<path class="st0" d="M446.7,21.8l-2.8,1.2l1.2,2.9l2.9-1.2L446.7,21.8z"/>
<path class="st0" d="M435.2,39.5l-0.8,3l3,0.8l0.8-3L435.2,39.5z"/>
<path class="st0" d="M439,37.3l-0.8,3l3,0.8l0.8-3L439,37.3z"/>
<path class="st0" d="M442.8,35.2l-0.8,3l3,0.8l0.8-3L442.8,35.2z"/>
<path class="st0" d="M446.6,33l-0.8,3l3,0.8l0.8-3L446.6,33z"/>
<path class="st0" d="M451.5,0l-1.7,2.6l2.5,1.8l1.7-2.6L451.5,0z"/>
<path class="st0" d="M452.3,4.3l-1.7,2.5l2.5,1.8l1.7-2.5L452.3,4.3z"/>
<path class="st0" d="M453.1,8.6l-1.7,2.5l2.5,1.8l1.7-2.5L453.1,8.6z"/>
<path class="st0" d="M453.9,12.9l-1.8,2.6l2.5,1.8l1.8-2.6L453.9,12.9z"/>
<path class="st1" d="M472.5,21.5L472.5,21.5L472.5,21.5z"/>
<path class="st1" d="M472.5,21.5L472.5,21.5L472.5,21.5z"/>
<path class="st1" d="M510,57.5L510,57.5L510,57.5z"/>
<path class="st1" d="M472.5,21.5L472.5,21.5L472.5,21.5z"/>
<path class="st1" d="M493.1,36.2L493.1,36.2L493.1,36.2z"/>
<path class="st1" d="M493.1,36.2L493.1,36.2L493.1,36.2z"/>
<path class="st1" d="M493.1,36.2L493.1,36.2L493.1,36.2z"/>
<path class="st1" d="M493.1,36.2L493.1,36.2L493.1,36.2z"/>
<path class="st1" d="M477.3,11.2L477.3,11.2L477.3,11.2z"/>
<path class="st1" d="M477.3,11.2L477.3,11.2L477.3,11.2z"/>
<polygon class="st2" points="495.2,84.8 495.2,81.7 492.1,81.7 492.1,78.6 489,78.6 489,72.4 486,72.4 486,69.3 482.9,69.3 
	482.9,66.2 476.7,66.2 476.7,69.3 473.6,69.3 473.6,66.2 470.6,66.2 470.6,63.1 473.6,63.1 473.6,53.8 470.6,53.8 470.6,50.7 
	467.5,50.7 467.5,44.5 464.4,44.5 464.4,38.3 455.1,38.3 455.1,41.4 452.1,41.4 452.1,44.5 449,44.5 449,47.6 445.9,47.6 
	445.9,50.7 442.8,50.7 442.8,53.8 439.7,53.8 439.7,60 433.6,60 433.6,63.1 430.5,63.1 430.5,66.2 427.4,66.2 427.4,72.4 
	424.3,72.4 424.3,75.5 421.3,75.5 421.3,78.6 421.2,78.6 418.3,78.6 415.1,78.6 415.1,84.8 412,84.8 412,91 418.3,91 421.2,91 
	421.3,91 429.2,91 498.3,91 498.3,84.8 "/>
<polygon class="st1" points="515,46.6 513.5,45.7 512.2,45 511.7,44.8 510.4,44 509.1,43.3 504.9,41.1 504.1,40.5 502.5,39.6 
	501,38.8 499.4,38 497.8,37.2 497,36.7 495.5,35.9 494.6,35.5 493.9,35.1 489,32.4 488.3,32 487.7,31.7 477.7,26.2 477.3,26 
	475.8,25.2 475.8,25.2 475.6,25.1 475.6,25.1 474,24.2 472.5,23.4 471,22.5 469.4,21.7 470.2,20.2 471.1,18.6 471.9,17 473.4,17.8 
	474.3,16.3 475.1,14.7 473.5,13.9 471.9,13.1 470.4,12.2 468.8,11.4 467.2,10.5 465.6,9.7 464,8.9 463.2,10.5 462.4,12 464,12.8 
	463.2,14.3 462.4,15.9 461.5,17.5 460.7,19 459,22.2 458.2,23.8 457.3,25.3 456.5,26.9 455.7,28.5 454.2,27.7 452.3,30.8 
	453.9,31.6 455.4,32.4 457,33.3 458.6,34.1 460.2,34.9 463.4,36.7 464.2,35.1 462.6,34.2 464.1,35 465,33.4 463.4,32.6 464.2,31 
	465,29.5 465.8,27.9 473.8,32.3 473.9,32.3 477,34.1 478.3,34.7 511.6,52.9 "/>
<path class="st0" d="M961.7,21.8l-2.8,1.2l1.2,2.9l2.9-1.2L961.7,21.8z"/>
<path class="st0" d="M961.6,33l-0.8,3l3,0.8l0.8-3L961.6,33z"/>
<path class="st0" d="M968.9,12.9l-1.8,2.6l2.5,1.8l1.8-2.6L968.9,12.9z"/>
<path class="st1" d="M987.5,21.5L987.5,21.5L987.5,21.5z"/>
<path class="st1" d="M987.5,21.5L987.5,21.5L987.5,21.5z"/>
<path class="st1" d="M1025,57.5L1025,57.5L1025,57.5z"/>
<path class="st1" d="M987.5,21.5L987.5,21.5L987.5,21.5z"/>
<path class="st1" d="M1008.1,36.2L1008.1,36.2L1008.1,36.2z"/>
<path class="st1" d="M1008.1,36.2L1008.1,36.2L1008.1,36.2z"/>
<path class="st1" d="M1008.1,36.2L1008.1,36.2L1008.1,36.2z"/>
<path class="st1" d="M1008.1,36.2L1008.1,36.2L1008.1,36.2z"/>
<path class="st1" d="M992.3,11.2L992.3,11.2L992.3,11.2z"/>
<path class="st1" d="M992.3,11.2L992.3,11.2L992.3,11.2z"/>
<polygon class="st2" points="1010.2,84.8 1010.2,81.7 1007.1,81.7 1007.1,78.6 1004,78.6 1004,72.4 1001,72.4 1001,69.3 997.9,69.3 
	997.9,66.2 991.7,66.2 991.7,69.3 988.6,69.3 988.6,66.2 985.6,66.2 985.6,63.1 988.6,63.1 988.6,53.8 985.6,53.8 985.6,50.7 
	982.5,50.7 982.5,44.5 979.4,44.5 979.4,38.3 970.1,38.3 970.1,41.4 967.1,41.4 967.1,44.5 964,44.5 964,47.6 960.9,47.6 
	960.9,50.7 957.8,50.7 957.8,53.8 954.7,53.8 954.7,60 948.6,60 948.6,63.1 945.5,63.1 945.5,66.2 942.4,66.2 942.4,72.4 
	939.3,72.4 939.3,75.5 936.3,75.5 936.3,78.6 936.2,78.6 933.3,78.6 930.1,78.6 930.1,84.8 927,84.8 927,91 933.3,91 936.2,91 
	936.3,91 944.2,91 1013.3,91 1013.3,84.8 "/>
<polygon class="st1" points="1029.8,47.8 1028.3,46.9 1027,46.2 1026.6,45.9 1025.2,45.1 1023.9,44.4 1019.9,42 1019.1,41.4 
	1017.5,40.4 1016,39.5 1014.5,38.7 1012.9,37.8 1012.1,37.3 1010.6,36.4 1009.8,35.9 1009.1,35.5 1004.3,32.6 1003.6,32.2 
	1003,31.9 993.2,26.1 992.9,25.8 991.4,24.9 991.3,24.9 991.2,24.9 991.2,24.9 989.7,23.9 988.1,23 986.7,22.1 985.2,21.3 986,19.7 
	986.9,18.2 987.8,16.6 989.3,17.5 990.2,16 991.1,14.4 989.5,13.6 988,12.7 986.4,11.8 984.9,10.9 983.3,10 981.8,9.1 980.3,8.2 
	979.4,9.8 978.5,11.3 980.1,12.2 979.3,13.6 978.4,15.1 977.4,16.7 976.5,18.2 974.7,21.3 973.8,22.9 972.9,24.4 972.1,25.9 
	971.2,27.5 969.7,26.6 967.7,29.6 969.2,30.5 970.8,31.4 972.3,32.4 973.9,33.2 975.4,34.1 978.5,35.9 979.4,34.4 977.8,33.4 
	979.4,34.3 980.2,32.8 978.7,31.9 979.6,30.4 980.4,28.8 981.3,27.3 989.2,32 989.2,32 992.3,33.9 993.6,34.6 1026.2,54 "/>
<path class="st0" d="M1060.7,20.1l-2.9,1.2l1.2,2.9l2.9-1.2L1060.7,20.1z"/>
<path class="st0" d="M1064.7,21.8l-2.8,1.2l1.2,2.9l2.9-1.2L1064.7,21.8z"/>
<path class="st0" d="M1060.8,35.2l-0.8,3l3,0.8l0.8-3L1060.8,35.2z"/>
<path class="st0" d="M1064.6,33l-0.8,3l3,0.8l0.8-3L1064.6,33z"/>
<path class="st0" d="M1071.1,8.6l-1.7,2.5l2.5,1.8l1.7-2.5L1071.1,8.6z"/>
<path class="st0" d="M1071.9,12.9l-1.8,2.6l2.5,1.8l1.8-2.6L1071.9,12.9z"/>
<path class="st1" d="M1090.5,21.5L1090.5,21.5L1090.5,21.5z"/>
<path class="st1" d="M1090.5,21.5L1090.5,21.5L1090.5,21.5z"/>
<path class="st1" d="M1128,57.5L1128,57.5L1128,57.5z"/>
<path class="st1" d="M1090.5,21.5L1090.5,21.5L1090.5,21.5z"/>
<path class="st1" d="M1111.1,36.2L1111.1,36.2L1111.1,36.2z"/>
<path class="st1" d="M1111.1,36.2L1111.1,36.2L1111.1,36.2z"/>
<path class="st1" d="M1111.1,36.2L1111.1,36.2L1111.1,36.2z"/>
<path class="st1" d="M1111.1,36.2L1111.1,36.2L1111.1,36.2z"/>
<path class="st1" d="M1095.3,11.2L1095.3,11.2L1095.3,11.2z"/>
<path class="st1" d="M1095.3,11.2L1095.3,11.2L1095.3,11.2z"/>
<polygon class="st2" points="1113.2,84.8 1113.2,81.7 1110.1,81.7 1110.1,78.6 1107,78.6 1107,72.4 1104,72.4 1104,69.3 
	1100.9,69.3 1100.9,66.2 1094.7,66.2 1094.7,69.3 1091.6,69.3 1091.6,66.2 1088.6,66.2 1088.6,63.1 1091.6,63.1 1091.6,53.8 
	1088.6,53.8 1088.6,50.7 1085.5,50.7 1085.5,44.5 1082.4,44.5 1082.4,38.3 1073.1,38.3 1073.1,41.4 1070.1,41.4 1070.1,44.5 
	1067,44.5 1067,47.6 1063.9,47.6 1063.9,50.7 1060.8,50.7 1060.8,53.8 1057.7,53.8 1057.7,60 1051.6,60 1051.6,63.1 1048.5,63.1 
	1048.5,66.2 1045.4,66.2 1045.4,72.4 1042.3,72.4 1042.3,75.5 1039.3,75.5 1039.3,78.6 1039.2,78.6 1036.3,78.6 1033.1,78.6 
	1033.1,84.8 1030,84.8 1030,91 1036.3,91 1039.2,91 1039.3,91 1047.2,91 1116.3,91 1116.3,84.8 "/>
<path class="st0" d="M335.7,18.4l-2.9,1.2l1.2,2.9l2.9-1.2L335.7,18.4z"/>
<path class="st0" d="M339.7,20.1l-2.9,1.2l1.2,2.9l2.9-1.2L339.7,20.1z"/>
<path class="st0" d="M343.7,21.8l-2.8,1.2l1.2,2.9l2.9-1.2L343.7,21.8z"/>
<path class="st0" d="M336,37.3l-0.8,3l3,0.8l0.8-3L336,37.3z"/>
<path class="st0" d="M339.8,35.2l-0.8,3l3,0.8l0.8-3L339.8,35.2z"/>
<path class="st0" d="M343.6,33l-0.8,3l3,0.8l0.8-3L343.6,33z"/>
<path class="st0" d="M349.3,4.3l-1.7,2.5l2.5,1.8l1.7-2.5L349.3,4.3z"/>
<path class="st0" d="M350.1,8.6l-1.7,2.5l2.5,1.8l1.7-2.5L350.1,8.6z"/>
<path class="st0" d="M350.9,12.9l-1.8,2.6l2.5,1.8l1.8-2.6L350.9,12.9z"/>
<path class="st1" d="M369.5,21.5L369.5,21.5L369.5,21.5z"/>
<path class="st1" d="M369.5,21.5L369.5,21.5L369.5,21.5z"/>
<path class="st1" d="M407,57.5L407,57.5L407,57.5z"/>
<path class="st1" d="M369.5,21.5L369.5,21.5L369.5,21.5z"/>
<path class="st1" d="M390.1,36.2L390.1,36.2L390.1,36.2z"/>
<path class="st1" d="M390.1,36.2L390.1,36.2L390.1,36.2z"/>
<path class="st1" d="M390.1,36.2L390.1,36.2L390.1,36.2z"/>
<path class="st1" d="M390.1,36.2L390.1,36.2L390.1,36.2z"/>
<path class="st1" d="M374.3,11.2L374.3,11.2L374.3,11.2z"/>
<path class="st1" d="M374.3,11.2L374.3,11.2L374.3,11.2z"/>
<polygon class="st1" points="411.8,47.8 410.3,46.9 409,46.2 408.6,45.9 407.2,45.1 405.9,44.4 401.9,42 401.1,41.4 399.5,40.4 
	398,39.5 396.5,38.7 394.9,37.8 394.1,37.3 392.6,36.4 391.8,35.9 391.1,35.5 386.3,32.6 385.6,32.2 385,31.9 375.2,26.1 
	374.9,25.8 373.4,24.9 373.3,24.9 373.2,24.9 373.2,24.9 371.7,23.9 370.1,23 368.7,22.1 367.2,21.3 368,19.7 368.9,18.2 
	369.8,16.6 371.3,17.5 372.2,16 373.1,14.4 371.5,13.6 370,12.7 368.4,11.8 366.9,10.9 365.3,10 363.8,9.1 362.3,8.2 361.4,9.8 
	360.5,11.3 362.1,12.2 361.3,13.6 360.4,15.1 359.4,16.7 358.5,18.2 356.7,21.3 355.8,22.9 354.9,24.4 354.1,25.9 353.2,27.5 
	351.7,26.6 349.7,29.6 351.2,30.5 352.8,31.4 354.3,32.4 355.9,33.2 357.4,34.1 360.5,35.9 361.4,34.4 359.8,33.4 361.4,34.3 
	362.2,32.8 360.7,31.9 361.6,30.4 362.4,28.8 363.3,27.3 371.2,32 371.2,32 374.3,33.9 375.6,34.6 408.2,54 "/>
<polygon class="st1" points="1133.1,51 1131.7,50 1130.5,49.1 1130.1,48.8 1128.8,47.8 1127.6,47 1123.9,44.2 1123.1,43.5 
	1121.7,42.4 1120.2,41.4 1118.8,40.4 1117.3,39.3 1116.6,38.8 1115.2,37.8 1114.4,37.2 1113.7,36.7 1109.2,33.3 1108.6,32.9 
	1108.1,32.5 1098.9,25.7 1098.6,25.4 1097.2,24.4 1097.2,24.4 1097,24.3 1097,24.3 1095.6,23.2 1094.1,22.2 1092.8,21.1 
	1091.4,20.1 1092.4,18.7 1093.4,17.2 1094.4,15.8 1095.9,16.8 1096.9,15.3 1097.9,13.9 1096.5,12.9 1095,11.9 1093.6,10.8 
	1092.1,9.8 1090.7,8.7 1089.2,7.7 1087.8,6.6 1086.8,8.1 1085.8,9.5 1087.2,10.6 1086.3,11.9 1085.2,13.3 1084.1,14.8 1083.1,16.2 
	1080.9,19.1 1079.9,20.6 1078.9,22 1077.9,23.5 1076.9,24.9 1075.4,23.9 1073.2,26.7 1074.6,27.7 1076,28.7 1077.5,29.9 
	1078.9,30.9 1080.4,31.9 1083.3,34 1084.3,32.6 1082.8,31.5 1084.3,32.5 1085.3,31.1 1083.9,30 1084.9,28.6 1085.9,27.2 
	1086.9,25.7 1094.3,31.2 1094.3,31.2 1097.2,33.4 1098.4,34.2 1128.9,56.8 "/>
<path class="st0" d="M1159.7,18.4l-2.9,1.2l1.2,2.9l2.9-1.2L1159.7,18.4z"/>
<path class="st0" d="M1163.7,20.1l-2.9,1.2l1.2,2.9l2.9-1.2L1163.7,20.1z"/>
<path class="st0" d="M1167.7,21.8l-2.8,1.2l1.2,2.9l2.9-1.2L1167.7,21.8z"/>
<path class="st0" d="M1160,37.3l-0.8,3l3,0.8l0.8-3L1160,37.3z"/>
<path class="st0" d="M1163.8,35.2l-0.8,3l3,0.8l0.8-3L1163.8,35.2z"/>
<path class="st0" d="M1167.6,33l-0.8,3l3,0.8l0.8-3L1167.6,33z"/>
<path class="st0" d="M1173.3,4.3l-1.7,2.5l2.5,1.8l1.7-2.5L1173.3,4.3z"/>
<path class="st0" d="M1174.1,8.6l-1.7,2.5l2.5,1.8l1.7-2.5L1174.1,8.6z"/>
<path class="st0" d="M1174.9,12.9l-1.8,2.6l2.5,1.8l1.8-2.6L1174.9,12.9z"/>
<path class="st1" d="M1193.5,21.5L1193.5,21.5L1193.5,21.5z"/>
<path class="st1" d="M1193.5,21.5L1193.5,21.5L1193.5,21.5z"/>
<path class="st1" d="M1231,57.5L1231,57.5L1231,57.5z"/>
<path class="st1" d="M1193.5,21.5L1193.5,21.5L1193.5,21.5z"/>
<path class="st1" d="M1214.1,36.2L1214.1,36.2L1214.1,36.2z"/>
<path class="st1" d="M1214.1,36.2L1214.1,36.2L1214.1,36.2z"/>
<path class="st1" d="M1214.1,36.2L1214.1,36.2L1214.1,36.2z"/>
<path class="st1" d="M1214.1,36.2L1214.1,36.2L1214.1,36.2z"/>
<path class="st1" d="M1198.3,11.2L1198.3,11.2L1198.3,11.2z"/>
<path class="st1" d="M1198.3,11.2L1198.3,11.2L1198.3,11.2z"/>
<polygon class="st2" points="1216.2,84.8 1216.2,81.7 1213.1,81.7 1213.1,78.6 1210,78.6 1210,72.4 1207,72.4 1207,69.3 
	1203.9,69.3 1203.9,66.2 1197.7,66.2 1197.7,69.3 1194.6,69.3 1194.6,66.2 1191.6,66.2 1191.6,63.1 1194.6,63.1 1194.6,53.8 
	1191.6,53.8 1191.6,50.7 1188.5,50.7 1188.5,44.5 1185.4,44.5 1185.4,38.3 1176.1,38.3 1176.1,41.4 1173.1,41.4 1173.1,44.5 
	1170,44.5 1170,47.6 1166.9,47.6 1166.9,50.7 1163.8,50.7 1163.8,53.8 1160.7,53.8 1160.7,60 1154.6,60 1154.6,63.1 1151.5,63.1 
	1151.5,66.2 1148.4,66.2 1148.4,72.4 1145.3,72.4 1145.3,75.5 1142.3,75.5 1142.3,78.6 1142.2,78.6 1139.3,78.6 1136.1,78.6 
	1136.1,84.8 1133,84.8 1133,91 1139.3,91 1142.2,91 1142.3,91 1150.2,91 1219.3,91 1219.3,84.8 "/>
<path class="st0" d="M236.7,20.1l-2.9,1.2l1.2,2.9l2.9-1.2L236.7,20.1z"/>
<path class="st0" d="M240.7,21.8l-2.8,1.2l1.2,2.9l2.9-1.2L240.7,21.8z"/>
<path class="st0" d="M236.8,35.2l-0.8,3l3,0.8l0.8-3L236.8,35.2z"/>
<path class="st0" d="M240.6,33l-0.8,3l3,0.8l0.8-3L240.6,33z"/>
<path class="st0" d="M247.1,8.6l-1.7,2.5l2.5,1.8l1.7-2.5L247.1,8.6z"/>
<path class="st0" d="M247.9,12.9l-1.8,2.6l2.5,1.8l1.8-2.6L247.9,12.9z"/>
<path class="st1" d="M266.5,21.5L266.5,21.5L266.5,21.5z"/>
<path class="st1" d="M266.5,21.5L266.5,21.5L266.5,21.5z"/>
<path class="st1" d="M304,57.5L304,57.5L304,57.5z"/>
<path class="st1" d="M266.5,21.5L266.5,21.5L266.5,21.5z"/>
<path class="st1" d="M287.1,36.2L287.1,36.2L287.1,36.2z"/>
<path class="st1" d="M287.1,36.2L287.1,36.2L287.1,36.2z"/>
<path class="st1" d="M287.1,36.2L287.1,36.2L287.1,36.2z"/>
<path class="st1" d="M287.1,36.2L287.1,36.2L287.1,36.2z"/>
<path class="st1" d="M271.3,11.2L271.3,11.2L271.3,11.2z"/>
<path class="st1" d="M271.3,11.2L271.3,11.2L271.3,11.2z"/>
<polygon class="st2" points="289.2,84.8 289.2,81.7 286.1,81.7 286.1,78.6 283,78.6 283,72.4 280,72.4 280,69.3 276.9,69.3 
	276.9,66.2 270.7,66.2 270.7,69.3 267.6,69.3 267.6,66.2 264.6,66.2 264.6,63.1 267.6,63.1 267.6,53.8 264.6,53.8 264.6,50.7 
	261.5,50.7 261.5,44.5 258.4,44.5 258.4,38.3 249.1,38.3 249.1,41.4 246.1,41.4 246.1,44.5 243,44.5 243,47.6 239.9,47.6 
	239.9,50.7 236.8,50.7 236.8,53.8 233.7,53.8 233.7,60 227.6,60 227.6,63.1 224.5,63.1 224.5,66.2 221.4,66.2 221.4,72.4 
	218.3,72.4 218.3,75.5 215.3,75.5 215.3,78.6 215.2,78.6 212.3,78.6 209.1,78.6 209.1,84.8 206,84.8 206,91 212.3,91 215.2,91 
	215.3,91 223.2,91 292.3,91 292.3,84.8 "/>
<polygon class="st2" points="392.2,84.8 392.2,81.7 389.1,81.7 389.1,78.6 386,78.6 386,72.4 383,72.4 383,69.3 379.9,69.3 
	379.9,66.2 373.7,66.2 373.7,69.3 370.6,69.3 370.6,66.2 367.6,66.2 367.6,63.1 370.6,63.1 370.6,53.8 367.6,53.8 367.6,50.7 
	364.5,50.7 364.5,44.5 361.4,44.5 361.4,38.3 352.1,38.3 352.1,41.4 349.1,41.4 349.1,44.5 346,44.5 346,47.6 342.9,47.6 
	342.9,50.7 339.8,50.7 339.8,53.8 336.7,53.8 336.7,60 330.6,60 330.6,63.1 327.5,63.1 327.5,66.2 324.4,66.2 324.4,72.4 
	321.3,72.4 321.3,75.5 318.3,75.5 318.3,78.6 318.2,78.6 315.3,78.6 312.1,78.6 312.1,84.8 309,84.8 309,91 315.3,91 318.2,91 
	318.3,91 326.2,91 395.3,91 395.3,84.8 "/>
<polygon class="st1" points="309.1,51 307.7,50 306.5,49.1 306.1,48.8 304.8,47.8 303.6,47 299.9,44.2 299.1,43.5 297.7,42.4 
	296.2,41.4 294.8,40.4 293.3,39.3 292.6,38.8 291.2,37.8 290.4,37.2 289.7,36.7 285.2,33.3 284.6,32.9 284.1,32.5 274.9,25.7 
	274.6,25.4 273.2,24.4 273.2,24.4 273,24.3 273,24.3 271.6,23.2 270.1,22.2 268.8,21.1 267.4,20.1 268.4,18.7 269.4,17.2 
	270.4,15.8 271.9,16.8 272.9,15.3 273.9,13.9 272.5,12.9 271,11.9 269.6,10.8 268.1,9.8 266.7,8.7 265.2,7.7 263.8,6.6 262.8,8.1 
	261.8,9.5 263.2,10.6 262.3,11.9 261.2,13.3 260.1,14.8 259.1,16.2 256.9,19.1 255.9,20.6 254.9,22 253.9,23.5 252.9,24.9 
	251.4,23.9 249.1,26.7 250.6,27.7 252,28.7 253.5,29.9 254.9,30.9 256.4,31.9 259.3,34 260.3,32.6 258.8,31.5 260.3,32.5 
	261.3,31.1 259.9,30 260.9,28.6 261.9,27.2 262.9,25.7 270.3,31.2 270.3,31.2 273.2,33.4 274.4,34.2 304.9,56.8 "/>
<polygon class="st1" points="1235.8,53 1234.5,51.8 1233.3,50.9 1233,50.6 1231.8,49.5 1230.6,48.6 1227.1,45.6 1226.4,44.8 
	1225,43.6 1223.6,42.5 1222.2,41.4 1220.9,40.3 1220.1,39.7 1218.8,38.6 1218.1,38 1217.4,37.4 1213.2,33.8 1212.6,33.3 
	1212.1,32.9 1203.4,25.5 1203.1,25.2 1201.7,24.1 1201.7,24.1 1201.6,24 1201.6,24 1200.2,22.8 1198.8,21.7 1197.6,20.5 
	1196.2,19.4 1197.3,18 1198.4,16.7 1199.5,15.3 1200.9,16.4 1202,15 1203.1,13.7 1201.8,12.5 1200.4,11.4 1199,10.3 1197.6,9.2 
	1196.3,8 1194.9,6.9 1193.5,5.8 1192.4,7.1 1191.3,8.5 1192.7,9.6 1191.6,10.9 1190.5,12.3 1189.3,13.6 1188.2,15 1185.9,17.8 
	1184.7,19.1 1183.6,20.5 1182.5,21.9 1181.4,23.3 1180,22.2 1177.6,24.8 1179,25.9 1180.3,27 1181.7,28.3 1183.1,29.4 1184.5,30.5 
	1187.2,32.8 1188.3,31.4 1187,30.2 1188.3,31.3 1189.4,30 1188.1,28.9 1189.2,27.5 1190.3,26.1 1191.4,24.7 1198.4,30.6 
	1198.4,30.7 1201.2,33 1202.3,33.9 1231.2,58.5 "/>
<path class="st0" d="M137.7,21.8l-2.8,1.2l1.2,2.9l2.9-1.2L137.7,21.8z"/>
<path class="st0" d="M133,38.1"/>
<path class="st0" d="M137.6,33l-0.8,3l3,0.8l0.8-3L137.6,33z"/>
<path class="st0" d="M144.9,12.9l-1.8,2.6l2.5,1.8l1.8-2.6L144.9,12.9z"/>
<path class="st1" d="M163.5,21.5L163.5,21.5L163.5,21.5z"/>
<path class="st1" d="M163.5,21.5L163.5,21.5L163.5,21.5z"/>
<path class="st1" d="M201,57.5L201,57.5L201,57.5z"/>
<path class="st1" d="M163.5,21.5L163.5,21.5L163.5,21.5z"/>
<path class="st1" d="M184.1,36.2L184.1,36.2L184.1,36.2z"/>
<path class="st1" d="M184.1,36.2L184.1,36.2L184.1,36.2z"/>
<path class="st1" d="M184.1,36.2L184.1,36.2L184.1,36.2z"/>
<path class="st1" d="M184.1,36.2L184.1,36.2L184.1,36.2z"/>
<path class="st1" d="M168.3,11.2L168.3,11.2L168.3,11.2z"/>
<path class="st1" d="M168.3,11.2L168.3,11.2L168.3,11.2z"/>
<polygon class="st2" points="186.2,84.8 186.2,81.7 183.1,81.7 183.1,78.6 180,78.6 180,72.4 177,72.4 177,69.3 173.9,69.3 
	173.9,66.2 167.7,66.2 167.7,69.3 164.6,69.3 164.6,66.2 161.6,66.2 161.6,63.1 164.6,63.1 164.6,53.8 161.6,53.8 161.6,50.7 
	158.5,50.7 158.5,44.5 155.4,44.5 155.4,38.3 146.1,38.3 146.1,41.4 143.1,41.4 143.1,44.5 140,44.5 140,47.6 136.9,47.6 
	136.9,50.7 133.8,50.7 133.8,53.8 130.7,53.8 130.7,60 124.6,60 124.6,63.1 121.5,63.1 121.5,66.2 118.4,66.2 118.4,72.4 
	115.3,72.4 115.3,75.5 112.3,75.5 112.3,78.6 112.2,78.6 109.3,78.6 106.1,78.6 106.1,84.8 103,84.8 103,91 109.3,91 112.2,91 
	112.3,91 120.2,91 189.3,91 189.3,84.8 "/>
<polygon class="st1" points="205.8,53 204.5,51.8 203.3,50.9 203,50.6 201.8,49.5 200.6,48.6 197.1,45.6 196.4,44.8 195,43.6 
	193.6,42.5 192.2,41.4 190.9,40.3 190.1,39.7 188.8,38.6 188.1,38 187.4,37.4 183.2,33.8 182.6,33.3 182.1,32.9 173.4,25.5 
	173.1,25.2 171.7,24.1 171.7,24.1 171.6,24 171.6,24 170.2,22.8 168.8,21.7 167.6,20.5 166.2,19.4 167.3,18 168.4,16.7 169.5,15.3 
	170.9,16.4 172,15 173.1,13.7 171.8,12.5 170.4,11.4 169,10.3 167.6,9.2 166.3,8 164.9,6.9 163.5,5.8 162.4,7.1 161.3,8.5 
	162.7,9.6 161.6,10.9 160.5,12.3 159.3,13.6 158.2,15 155.9,17.8 154.7,19.1 153.6,20.5 152.5,21.9 151.4,23.3 150,22.2 147.6,24.8 
	149,25.9 150.3,27 151.7,28.3 153.1,29.4 154.5,30.5 157.2,32.8 158.3,31.4 157,30.2 158.3,31.3 159.4,30 158.1,28.9 159.2,27.5 
	160.3,26.1 161.4,24.7 168.4,30.6 168.4,30.7 171.2,33 172.3,33.9 201.2,58.5 "/>
<path class="st0" d="M1258.7,16.7l-2.9,1.2l1.2,2.9l2.9-1.2L1258.7,16.7z"/>
<path class="st0" d="M1262.7,18.4l-2.9,1.2l1.2,2.9l2.9-1.2L1262.7,18.4z"/>
<path class="st0" d="M1266.7,20.1l-2.9,1.2l1.2,2.9l2.9-1.2L1266.7,20.1z"/>
<path class="st0" d="M1270.7,21.8l-2.8,1.2l1.2,2.9l2.9-1.2L1270.7,21.8z"/>
<path class="st0" d="M1259.2,39.5l-0.8,3l3,0.8l0.8-3L1259.2,39.5z"/>
<path class="st0" d="M1263,37.3l-0.8,3l3,0.8l0.8-3L1263,37.3z"/>
<path class="st0" d="M1266.8,35.2l-0.8,3l3,0.8l0.8-3L1266.8,35.2z"/>
<path class="st0" d="M1270.6,33l-0.8,3l3,0.8l0.8-3L1270.6,33z"/>
<path class="st0" d="M1275.5,0l-1.7,2.6l2.5,1.8l1.7-2.6L1275.5,0z"/>
<path class="st0" d="M1276.3,4.3l-1.7,2.5l2.5,1.8l1.7-2.5L1276.3,4.3z"/>
<path class="st0" d="M1277.1,8.6l-1.7,2.5l2.5,1.8l1.7-2.5L1277.1,8.6z"/>
<path class="st0" d="M1277.9,12.9l-1.8,2.6l2.5,1.8l1.8-2.6L1277.9,12.9z"/>
<path class="st1" d="M1296.5,21.5L1296.5,21.5L1296.5,21.5z"/>
<path class="st1" d="M1296.5,21.5L1296.5,21.5L1296.5,21.5z"/>
<path class="st1" d="M1334,57.5L1334,57.5L1334,57.5z"/>
<path class="st1" d="M1296.5,21.5L1296.5,21.5L1296.5,21.5z"/>
<path class="st1" d="M1317.1,36.2L1317.1,36.2L1317.1,36.2z"/>
<path class="st1" d="M1317.1,36.2L1317.1,36.2L1317.1,36.2z"/>
<path class="st1" d="M1317.1,36.2L1317.1,36.2L1317.1,36.2z"/>
<path class="st1" d="M1317.1,36.2L1317.1,36.2L1317.1,36.2z"/>
<path class="st1" d="M1301.3,11.2L1301.3,11.2L1301.3,11.2z"/>
<path class="st1" d="M1301.3,11.2L1301.3,11.2L1301.3,11.2z"/>
<polygon class="st2" points="1319.2,84.8 1319.2,81.7 1316.1,81.7 1316.1,78.6 1313,78.6 1313,72.4 1310,72.4 1310,69.3 
	1306.9,69.3 1306.9,66.2 1300.7,66.2 1300.7,69.3 1297.6,69.3 1297.6,66.2 1294.6,66.2 1294.6,63.1 1297.6,63.1 1297.6,53.8 
	1294.6,53.8 1294.6,50.7 1291.5,50.7 1291.5,44.5 1288.4,44.5 1288.4,38.3 1279.1,38.3 1279.1,41.4 1276.1,41.4 1276.1,44.5 
	1273,44.5 1273,47.6 1269.9,47.6 1269.9,50.7 1266.8,50.7 1266.8,53.8 1263.7,53.8 1263.7,60 1257.6,60 1257.6,63.1 1254.5,63.1 
	1254.5,66.2 1251.4,66.2 1251.4,72.4 1248.3,72.4 1248.3,75.5 1245.3,75.5 1245.3,78.6 1245.2,78.6 1242.3,78.6 1239.1,78.6 
	1239.1,84.8 1236,84.8 1236,91 1242.3,91 1245.2,91 1245.3,91 1253.2,91 1322.3,91 1322.3,84.8 "/>
<polygon class="st1" points="1338.9,54.8 1337.7,53.6 1336.6,52.6 1336.2,52.2 1335.1,51.1 1334,50.1 1330.7,46.9 1330,46.1 
	1328.7,44.8 1327.4,43.6 1326.1,42.4 1324.8,41.2 1324.1,40.6 1322.9,39.4 1322.2,38.7 1321.6,38.1 1317.5,34.2 1317,33.7 
	1316.5,33.2 1308.3,25.3 1308,25 1306.7,23.8 1306.7,23.8 1306.6,23.7 1306.6,23.7 1305.3,22.4 1304,21.2 1302.8,20 1301.5,18.8 
	1302.7,17.5 1303.9,16.2 1305.1,14.9 1306.4,16.1 1307.6,14.8 1308.8,13.5 1307.5,12.3 1306.2,11.1 1304.9,9.9 1303.6,8.7 
	1302.3,7.4 1301,6.2 1299.7,5 1298.5,6.3 1297.3,7.6 1298.6,8.8 1297.5,10 1296.3,11.3 1295,12.6 1293.8,13.9 1291.3,16.5 
	1290.1,17.8 1288.9,19.1 1287.7,20.4 1286.5,21.7 1285.2,20.5 1282.6,23 1283.9,24.2 1285.2,25.4 1286.5,26.7 1287.8,27.9 
	1289.1,29.1 1291.7,31.6 1292.9,30.3 1291.6,29 1292.9,30.2 1294.1,28.9 1292.8,27.7 1294,26.4 1295.2,25.1 1296.4,23.8 1303,30.1 
	1303,30.2 1305.6,32.7 1306.7,33.7 1334,60 "/>
<path class="st0" d="M22.7,16.7l-2.9,1.2l1.2,2.9l2.9-1.2L22.7,16.7z"/>
<path class="st0" d="M26.7,18.4l-2.9,1.2l1.2,2.9l2.9-1.2L26.7,18.4z"/>
<path class="st0" d="M30.7,20.1l-2.9,1.2l1.2,2.9l2.9-1.2L30.7,20.1z"/>
<path class="st0" d="M34.7,21.8L31.9,23l1.2,2.9l2.9-1.2L34.7,21.8z"/>
<path class="st0" d="M23.2,39.5l-0.8,3l3,0.8l0.8-3L23.2,39.5z"/>
<path class="st0" d="M27,37.3l-0.8,3l3,0.8l0.8-3L27,37.3z"/>
<path class="st0" d="M30.8,35.2l-0.8,3l3,0.8l0.8-3L30.8,35.2z"/>
<path class="st0" d="M34.6,33l-0.8,3l3,0.8l0.8-3L34.6,33z"/>
<path class="st0" d="M39.5,0l-1.7,2.6l2.5,1.8L42,1.8L39.5,0z"/>
<path class="st0" d="M40.3,4.3l-1.7,2.5l2.5,1.8l1.7-2.5L40.3,4.3z"/>
<path class="st0" d="M41.1,8.6l-1.7,2.5l2.5,1.8l1.7-2.5L41.1,8.6z"/>
<path class="st0" d="M41.9,12.9l-1.8,2.6l2.5,1.8l1.8-2.6L41.9,12.9z"/>
<path class="st1" d="M60.5,21.5L60.5,21.5L60.5,21.5z"/>
<path class="st1" d="M60.5,21.5L60.5,21.5L60.5,21.5z"/>
<path class="st1" d="M98,57.5L98,57.5L98,57.5z"/>
<path class="st1" d="M60.5,21.5L60.5,21.5L60.5,21.5z"/>
<path class="st1" d="M81.1,36.2L81.1,36.2L81.1,36.2z"/>
<path class="st1" d="M81.1,36.2L81.1,36.2L81.1,36.2z"/>
<path class="st1" d="M81.1,36.2L81.1,36.2L81.1,36.2z"/>
<path class="st1" d="M81.1,36.2L81.1,36.2L81.1,36.2z"/>
<path class="st1" d="M65.3,11.2L65.3,11.2L65.3,11.2z"/>
<path class="st1" d="M65.3,11.2L65.3,11.2L65.3,11.2z"/>
<polygon class="st2" points="83.2,84.8 83.2,81.7 80.1,81.7 80.1,78.6 77,78.6 77,72.4 74,72.4 74,69.3 70.9,69.3 70.9,66.2 
	64.7,66.2 64.7,69.3 61.6,69.3 61.6,66.2 58.6,66.2 58.6,63.1 61.6,63.1 61.6,53.8 58.6,53.8 58.6,50.7 55.5,50.7 55.5,44.5 
	52.4,44.5 52.4,38.3 43.1,38.3 43.1,41.4 40.1,41.4 40.1,44.5 37,44.5 37,47.6 33.9,47.6 33.9,50.7 30.8,50.7 30.8,53.8 27.7,53.8 
	27.7,60 21.6,60 21.6,63.1 18.5,63.1 18.5,66.2 15.4,66.2 15.4,72.4 12.3,72.4 12.3,75.5 9.3,75.5 9.3,78.6 9.2,78.6 6.3,78.6 
	3.1,78.6 3.1,84.8 0,84.8 0,91 6.3,91 9.2,91 9.3,91 17.2,91 86.3,91 86.3,84.8 "/>
<polygon class="st1" points="102.9,54.8 101.7,53.6 100.6,52.6 100.2,52.2 99.1,51.1 98,50.1 94.7,46.9 94,46.1 92.7,44.8 
	91.4,43.6 90.1,42.4 88.8,41.2 88.1,40.6 86.9,39.4 86.2,38.7 85.6,38.1 81.5,34.2 81,33.7 80.5,33.2 72.3,25.3 72,25 70.7,23.8 
	70.7,23.8 70.6,23.7 70.6,23.7 69.3,22.4 68,21.2 66.8,20 65.5,18.8 66.7,17.5 67.9,16.2 69.1,14.9 70.4,16.1 71.6,14.8 72.8,13.5 
	71.5,12.3 70.2,11.1 68.9,9.9 67.6,8.7 66.3,7.4 65,6.2 63.7,5 62.5,6.3 61.3,7.6 62.6,8.8 61.5,10 60.3,11.3 59,12.6 57.8,13.9 
	55.3,16.5 54.1,17.8 52.9,19.1 51.7,20.4 50.5,21.7 49.2,20.5 46.6,23 47.9,24.2 49.2,25.4 50.5,26.7 51.8,27.9 53.1,29.1 
	55.7,31.6 56.9,30.3 55.6,29 56.9,30.2 58.1,28.9 56.8,27.7 58,26.4 59.2,25.1 60.4,23.8 67,30.1 67,30.2 69.6,32.7 70.7,33.7 
	98,60 "/>
</svg>
