<?xml version="1.0" encoding="utf-8"?>
<!-- Generator: Adobe Illustrator 24.1.1, SVG Export Plug-In . SVG Version: 6.00 Build 0)  -->
<svg version="1.1" id="Слой_1" xmlns="http://www.w3.org/2000/svg" xmlns:xlink="http://www.w3.org/1999/xlink" x="0px" y="0px"
	 viewBox="0 0 103 91" style="enable-background:new 0 0 103 91;" xml:space="preserve">
<style type="text/css">
	.st0{fill:#FFCD00;}
	.st1{fill:#D8D8D8;}
</style>
<g>
	<path class="st0" d="M22.7,16.7l-2.9,1.2l1.2,2.9l2.9-1.2L22.7,16.7z"/>
	<path class="st0" d="M26.7,18.4l-2.9,1.2l1.2,2.9l2.9-1.2L26.7,18.4z"/>
	<path class="st0" d="M30.7,20.1l-2.9,1.2l1.2,2.9l2.9-1.2L30.7,20.1z"/>
	<path class="st0" d="M34.7,21.8L31.9,23l1.2,2.9l2.9-1.2L34.7,21.8z"/>
	<path class="st0" d="M23.2,39.5l-0.8,3l3,0.8l0.8-3L23.2,39.5z"/>
	<path class="st0" d="M27,37.3l-0.8,3l3,0.8l0.8-3L27,37.3z"/>
	<path class="st0" d="M30.8,35.2l-0.8,3l3,0.8l0.8-3L30.8,35.2z"/>
	<path class="st0" d="M34.6,33l-0.8,3l3,0.8l0.8-3L34.6,33z"/>
	<path class="st0" d="M39.5,0l-1.7,2.6l2.5,1.8L42,1.8L39.5,0z"/>
	<path class="st0" d="M40.3,4.3l-1.7,2.5l2.5,1.8l1.7-2.5L40.3,4.3z"/>
	<path class="st0" d="M41.1,8.6l-1.7,2.5l2.5,1.8l1.7-2.5L41.1,8.6z"/>
	<path class="st0" d="M41.9,12.9l-1.8,2.6l2.5,1.8l1.8-2.6L41.9,12.9z"/>
	<polygon points="60.5,21.5 60.5,21.5 60.5,21.5 	"/>
	<polygon points="60.5,21.5 60.5,21.5 60.5,21.5 	"/>
	<polygon points="98,57.5 98,57.5 98,57.5 	"/>
	<polygon points="60.5,21.5 60.5,21.5 60.5,21.5 	"/>
	<rect x="81.1" y="36.2" width="0" height="0"/>
	<rect x="81.1" y="36.2" width="0" height="0"/>
	<rect x="81.1" y="36.2" width="0" height="0"/>
	<rect x="81.1" y="36.2" width="0" height="0"/>
	<polygon points="65.3,11.2 65.3,11.2 65.3,11.2 	"/>
	<polygon points="65.3,11.2 65.3,11.2 65.3,11.2 	"/>
	<path d="M101.7,53.6l-1.3-1.2l-1.3-1.3l-1.3-1.2l-1.2,1.3l1.2-1.3l-1.3-1.2l-1.3-1.2L94,46.1v0l-1.3-1.3l-1.3-1.2l-1.3-1.2
		l-1.3-1.2l-1.2,1.3l1.2-1.3l-1.3-1.2l-1.3-1.3l-1.3-1.2l-1.2,1.3l1.2-1.3l-1.3-1.2L82.3,35L81,33.7v0l-1.3-1.2l0,0l-1.3-1.2
		L77.1,30l-1.3-1.2l-1.3-1.2v0l-1.3-1.2L72,25l-1.3-1.2L70,24.4l0.6-0.7l-1.3-1.3l-1.3-1.2L66.8,20l-1.3-1.2l1.2-1.3l1.2-1.3
		l1.2-1.3l1.3,1.2l1.2-1.3l1.2-1.3l-1.3-1.2h0l-1.3-1.2l-1.3-1.2l-1.3-1.2l-1.3-1.3l-1.3-1.2l-1.3-1.2l-1.2,1.3l-1.2,1.3l1.3,1.2
		L61.5,10l-1.2,1.3L59,12.6l-1.2,1.3l-2.5,2.6l-1.2,1.3v0l-1.2,1.3l-1.2,1.3l1.3,1.2v0l-1.3-1.2l-1.2,1.3l-1.3-1.2L46.6,23l1.3,1.2
		l1.3,1.2l1.3,1.3l1.3,1.2l1.3,1.2l2.6,2.5l1.2-1.3l-1.3-1.3l1.3,1.2l1.2-1.3l-1.3-1.2l1.2-1.3l1.2-1.3l1.2-1.3l1.3,1.2l1.3,1.2
		l1.3,1.2l1.3,1.2l1.3,1.2l1.2-1.3L67,30.2l2.6,2.5l1.3,1.2l1.3,1.2l1.3,1.3l1.3,1.2l1.3,1.2h0l2.6,2.5l1.3,1.3l1.3,1.2l1.3,1.2
		l1.3,1.2l1.3,1.3l1.3,1.2l1.3,1.2l2.6,2.5l1.3,1.3v0l1.3,1.3l1.3,1.2l1.3,1.2l1.3,1.2L98,60l1.2-1.3l1.2-1.3l2.5-2.6L101.7,53.6z
		 M60.5,21.5L60.5,21.5L60.5,21.5L60.5,21.5z M65.3,11.2L65.3,11.2L65.3,11.2L65.3,11.2z M81.1,36.3L81.1,36.3L81.1,36.3L81.1,36.3
		L81.1,36.3z"/>
</g>
<polygon class="st1" points="83.2,84.8 83.2,81.7 80.1,81.7 80.1,78.6 77,78.6 77,72.4 74,72.4 74,69.3 70.9,69.3 70.9,66.2 
	64.7,66.2 64.7,69.3 61.6,69.3 61.6,66.2 58.6,66.2 58.6,63.1 61.6,63.1 61.6,53.8 58.6,53.8 58.6,50.7 55.5,50.7 55.5,44.5 
	52.4,44.5 52.4,38.3 43.1,38.3 43.1,41.4 40.1,41.4 40.1,44.5 37,44.5 37,47.6 33.9,47.6 33.9,50.7 30.8,50.7 30.8,53.8 27.7,53.8 
	27.7,60 21.6,60 21.6,63.1 18.5,63.1 18.5,66.2 15.4,66.2 15.4,72.4 12.3,72.4 12.3,75.5 9.3,75.5 9.3,78.6 9.2,78.6 6.3,78.6 
	3.1,78.6 3.1,84.8 0,84.8 0,91 6.3,91 9.2,91 9.3,91 17.2,91 86.3,91 86.3,84.8 "/>
</svg>
