<?xml version="1.0" encoding="utf-8"?>
<!-- Generator: Adobe Illustrator 24.1.1, SVG Export Plug-In . SVG Version: 6.00 Build 0)  -->
<svg version="1.1" id="Слой_1" xmlns="http://www.w3.org/2000/svg" xmlns:xlink="http://www.w3.org/1999/xlink" x="0px" y="0px"
	 viewBox="0 0 103 91" style="enable-background:new 0 0 103 91;" xml:space="preserve">
<style type="text/css">
	.st0{fill:#FFCD00;}
	.st1{fill:#D8D8D8;}
	.st2{fill:#8768E1;}
</style>
<path class="st0" d="M30.7,20.1l-2.9,1.2l1.2,2.9l2.9-1.2L30.7,20.1z"/>
<path class="st0" d="M34.7,21.8L31.9,23l1.2,2.9l2.9-1.2L34.7,21.8z"/>
<path class="st0" d="M30.8,35.2l-0.8,3l3,0.8l0.8-3L30.8,35.2z"/>
<path class="st0" d="M34.6,33l-0.8,3l3,0.8l0.8-3L34.6,33z"/>
<path class="st0" d="M41.1,8.6l-1.7,2.5l2.5,1.8l1.7-2.5L41.1,8.6z"/>
<path class="st0" d="M41.9,12.9l-1.8,2.6l2.5,1.8l1.8-2.6L41.9,12.9z"/>
<path d="M60.5,21.5L60.5,21.5L60.5,21.5z"/>
<path d="M60.5,21.5L60.5,21.5L60.5,21.5z"/>
<path d="M60.5,21.5L60.5,21.5L60.5,21.5z"/>
<path d="M81.1,36.2L81.1,36.2L81.1,36.2z"/>
<path d="M81.1,36.2L81.1,36.2L81.1,36.2z"/>
<path d="M81.1,36.2L81.1,36.2L81.1,36.2z"/>
<path d="M81.1,36.2L81.1,36.2L81.1,36.2z"/>
<path d="M65.3,11.2L65.3,11.2L65.3,11.2z"/>
<path d="M65.3,11.2L65.3,11.2L65.3,11.2z"/>
<polygon class="st1" points="83.2,84.8 83.2,81.7 80.1,81.7 80.1,78.6 77,78.6 77,72.4 74,72.4 74,69.3 70.9,69.3 70.9,66.2 
	64.7,66.2 64.7,69.3 61.6,69.3 61.6,66.2 58.6,66.2 58.6,63.1 61.6,63.1 61.6,53.8 58.6,53.8 58.6,50.7 55.5,50.7 55.5,44.5 
	52.4,44.5 52.4,38.3 43.1,38.3 43.1,41.4 40.1,41.4 40.1,44.5 37,44.5 37,47.6 33.9,47.6 33.9,50.7 30.8,50.7 30.8,53.8 27.7,53.8 
	27.7,60 21.6,60 21.6,63.1 18.5,63.1 18.5,66.2 15.4,66.2 15.4,72.4 12.3,72.4 12.3,75.5 9.3,75.5 9.3,78.6 9.2,78.6 6.3,78.6 
	3.1,78.6 3.1,84.8 0,84.8 0,91 6.3,91 9.2,91 9.3,91 17.2,91 86.3,91 86.3,84.8 "/>
<polygon class="st2" points="103,26.1 101.3,26.1 99.8,26.1 99.3,26.1 97.7,26 96.2,26 91.6,26 90.6,25.9 88.7,25.8 86.9,25.9 
	85.2,25.9 83.4,25.9 82.5,25.9 80.8,25.9 79.8,25.9 78.9,25.9 73.3,25.8 72.6,25.8 71.9,25.8 60.5,25.7 60.1,25.6 58.3,25.6 
	58.3,25.6 58.2,25.6 58.2,25.6 56.3,25.6 54.6,25.6 52.9,25.5 51.1,25.6 51.1,23.8 51.1,22 51,20.3 52.8,20.2 52.8,18.5 52.8,16.7 
	51,16.7 49.2,16.7 47.5,16.8 45.7,16.8 43.9,16.7 42.1,16.7 40.3,16.8 40.3,18.5 40.4,20.3 42.1,20.3 42.1,21.9 42.2,23.7 
	42.1,25.5 42.1,27.3 42.1,30.9 42.1,32.7 42.1,34.4 42.1,36.2 42.2,38 40.4,38 40.2,41.6 42,41.6 43.8,41.5 45.6,41.6 47.4,41.6 
	49.1,41.6 52.7,41.6 52.7,39.8 50.9,39.8 52.6,39.8 52.6,38 50.9,38 50.8,36.2 50.8,34.5 50.8,32.7 59.9,32.8 60,32.8 63.6,32.9 
	65.1,32.9 103,33.3 "/>
<path class="st1" d="M26.5,44.2l-2.8,1.2l1.2,2.9l2.9-1.2L26.5,44.2z"/>
<path class="st1" d="M25.6,53.4l-2.8,1.2l1.2,2.9l2.9-1.2L25.6,53.4z"/>
<path class="st1" d="M15.8,54.9L13,56.1l1.2,2.9l2.9-1.2L15.8,54.9z"/>
<path class="st1" d="M16.4,43.7l-2.8,1.2l1.2,2.9l2.9-1.2L16.4,43.7z"/>
<path class="st1" d="M5.8,51.3L3,52.5l1.2,2.9l2.9-1.2L5.8,51.3z"/>
<path class="st1" d="M9.9,33.4l-2.8,1.2l1.2,2.9l2.9-1.2L9.9,33.4z"/>
<path class="st1" d="M19.9,26.3l-2.8,1.2l1.2,2.9l2.9-1.2L19.9,26.3z"/>
<path class="st1" d="M23.3,37.5l-2.8,1.2l1.2,2.9l2.9-1.2L23.3,37.5z"/>
</svg>
