<svg width="275" height="235" viewBox="0 0 275 235" fill="none" xmlns="http://www.w3.org/2000/svg">
<mask id="mask0" mask-type="alpha" maskUnits="userSpaceOnUse" x="0" y="0" width="275" height="235">
<path d="M24.2171 1.88753C20.527 6.82087 -19.3548 48.4017 14.5938 92.1738C54.117 143.133 133.766 147.369 142.826 179.823C150.43 207.043 151.122 233.608 156.005 233.552C159.682 233.511 160.275 218.452 169.843 195.174C177.262 177.115 181.512 166.767 189.611 159.587C214.736 137.3 253.68 166.042 268.684 147.725C278.008 136.344 272.617 113.449 264.73 99.5775C253.884 80.507 237.114 76.3692 182.363 59.106C120.086 39.4703 88.9513 29.6594 69.6839 20.7277C42.4961 8.12573 27.2284 -2.1387 24.2171 1.88753Z" fill="black" stroke="black" stroke-miterlimit="10"/>
</mask>
<g mask="url(#mask0)">
<path d="M-90 79.2715L111.457 320.126M2.04638 2.28146L203.504 243.136M-43.9768 40.7765L157.48 281.631M48.0696 -36.2135L249.527 204.641M135.514 -109.354L336.971 131.501M-66.9884 60.024L134.469 300.879M25.058 -16.966L226.515 223.889M112.502 -90.1066L313.959 150.748M-20.9652 21.529L180.492 262.384M71.0812 -55.4611L272.538 185.394M158.525 -128.602L359.982 112.253M-80.7954 71.5725L120.662 312.427M11.251 -5.41754L212.708 235.437M98.6951 -78.5581L300.152 162.297M-34.7722 33.0775L166.685 273.932M57.2742 -43.9125L258.731 196.942M144.718 -117.053L346.175 123.802M-57.7838 52.325L143.673 293.18M34.2626 -24.665L235.72 216.19M121.707 -97.8056L323.164 143.049M-11.7606 13.83L189.697 254.685M80.2858 -63.1601L281.743 177.695M167.73 -136.301L369.187 104.554M-85.3977 75.422L116.06 316.277M6.6487 -1.56804L208.106 239.287M94.0928 -74.7086L295.55 166.146M-39.3745 36.927L162.083 277.782M52.6719 -40.063L254.129 200.792M140.116 -113.204L341.573 127.651M-62.3861 56.1745L139.071 297.029M29.6603 -20.8155L231.118 220.039M117.104 -93.9561L318.562 146.899M-16.3629 17.6795L185.094 258.534M75.6835 -59.3106L277.141 181.544M163.128 -132.451L364.585 108.404M-76.193 67.723L125.264 308.578M15.8533 -9.26704L217.311 231.588M103.297 -82.4076L304.755 158.447M-30.1699 29.228L171.287 270.083M61.8765 -47.762L263.334 193.093M149.321 -120.903L350.778 119.952M-53.1814 48.4755L148.276 289.33M38.8649 -28.5145L240.322 212.34M126.309 -101.655L327.766 139.2M-7.15826 9.98047L194.299 250.835M84.8881 -67.0096L286.345 173.845M172.332 -140.15L373.789 100.705M-71.5907 63.8735L129.866 304.728M20.4557 -13.1165L221.913 227.738M107.9 -86.2571L309.357 154.598M-25.5675 25.3785L175.89 266.233M66.4789 -51.6116L267.936 189.243M153.923 -124.752L355.38 116.103M-48.5791 44.626L152.878 285.481M43.4673 -32.364L244.924 208.491M130.911 -105.505L332.369 135.35M-2.55594 6.13097L198.901 246.986M89.4904 -70.8591L290.948 169.996M176.935 -144L378.392 96.8551" stroke="black"/>
</g>
</svg>
