<?xml version="1.0" encoding="utf-8"?>
<!-- Generator: Adobe Illustrator 24.0.1, SVG Export Plug-In . SVG Version: 6.00 Build 0)  -->
<svg version="1.1" id="Слой_1" xmlns="http://www.w3.org/2000/svg" xmlns:xlink="http://www.w3.org/1999/xlink" x="0px" y="0px"
	 viewBox="0 0 275 235" style="enable-background:new 0 0 275 235;" xml:space="preserve">
<style type="text/css">
	.st0{fill:none;stroke:#FFFFFF;stroke-miterlimit:10;}
</style>
<path class="st0" d="M24.2,1.9c-3.7,4.9-43.6,46.5-9.6,90.3c39.5,51,119.2,55.2,128.2,87.6c7.6,27.2,8.3,53.8,13.2,53.7
	c3.7,0,4.3-15.1,13.8-38.4c7.4-18.1,11.7-28.4,19.8-35.6c25.1-22.3,64.1,6.5,79.1-11.9c9.3-11.4,3.9-34.3-4-48.1
	c-10.8-19.1-27.6-23.2-82.4-40.5C120.1,39.5,89,29.7,69.7,20.7C42.5,8.1,27.2-2.1,24.2,1.9z"/>
</svg>
