<svg width="275" height="235" viewBox="0 0 275 235" fill="none" xmlns="http://www.w3.org/2000/svg">
<path d="M24.2171 1.88753C20.527 6.82087 -19.3548 48.4017 14.5938 92.1738C54.117 143.133 133.766 147.369 142.826 179.823C150.43 207.043 151.122 233.608 156.005 233.552C159.682 233.511 160.275 218.452 169.843 195.174C177.262 177.115 181.512 166.767 189.611 159.587C214.736 137.3 253.68 166.042 268.684 147.725C278.008 136.344 272.617 113.449 264.73 99.5775C253.884 80.507 237.114 76.3692 182.363 59.106C120.086 39.4703 88.9513 29.6594 69.6839 20.7277C42.4961 8.12573 27.2284 -2.1387 24.2171 1.88753Z" stroke="black" stroke-miterlimit="10"/>
</svg>
