<?xml version="1.0" encoding="utf-8"?>
<!-- Generator: Adobe Illustrator 24.1.1, SVG Export Plug-In . SVG Version: 6.00 Build 0)  -->
<svg version="1.1" xmlns="http://www.w3.org/2000/svg" xmlns:xlink="http://www.w3.org/1999/xlink" x="0px" y="0px"
	 viewBox="0 0 208.1 283.8" style="enable-background:new 0 0 208.1 283.8;" xml:space="preserve">
<style type="text/css">
	.st0{fill:#312783;}
	.st1{fill:#FFFFFF;}
</style>
<g id="Слой_2">
	<rect class="st0" width="208.1" height="283.8"/>
</g>
<g id="Слой_1">
	<g>
		
			<image style="overflow:visible;" width="1109" height="1404" xlink:href="E5937A22.png"  transform="matrix(0.24 0 0 0.24 -29.0908 -26.6065)">
		</image>
	</g>
	<polygon class="st1" points="174,19.2 80.7,19.2 65.2,19.2 65.2,19.2 65.2,34.7 65.2,50.3 49.7,50.3 49.7,65.8 49.7,81.4 
		34.1,81.4 34.1,112.5 18.6,112.5 18.6,128 18.6,143.5 65.2,143.5 65.2,159.1 49.7,159.1 49.7,202.1 34.1,202.1 34.1,221.3 
		34.1,221.3 26.1,236.8 18.6,252.3 42.7,236.8 49.7,236.8 65.2,236.8 65.2,221.3 80.7,221.3 80.7,205.7 96.3,205.7 96.3,190.2 
		111.8,190.2 111.8,174.6 127.4,174.6 127.4,159.1 142.9,159.1 142.9,143.5 158.5,143.5 158.5,128 174,128 174,112.5 174,96.9 
		158.5,96.9 142.9,96.9 142.9,81.4 158.5,81.4 158.5,65.8 174,65.8 174,50.3 189.5,50.3 189.5,19.2 	"/>
</g>
</svg>
