<svg width="72" height="72" viewBox="0 0 72 72" fill="none" xmlns="http://www.w3.org/2000/svg">
<path d="M43.2431 54.7422H40.3613V57.624H43.2431V54.7422Z" fill="#FAF1CD"/>
<path d="M43.2431 14.3789H40.3613V17.2636H43.2431V14.3789Z" fill="#FAF1CD"/>
<path d="M40.3613 54.7422H37.4766V57.624H40.3613V54.7422Z" fill="#FAF1CD"/>
<path d="M40.3613 51.8594H37.4766V54.7411H40.3613V51.8594Z" fill="#FAF1CD"/>
<path d="M40.3613 17.2637H37.4766V20.1454H40.3613V17.2637Z" fill="#FAF1CD"/>
<path d="M40.3613 14.3789H37.4766V17.2636H40.3613V14.3789Z" fill="#FAF1CD"/>
<path d="M37.4775 54.7422H34.5957V57.624H37.4775V54.7422Z" fill="#FAF1CD"/>
<path d="M37.4775 51.8594H34.5957V54.7411H37.4775V51.8594Z" fill="#FAF1CD"/>
<path d="M37.4775 48.9746H34.5957V51.8593H37.4775V48.9746Z" fill="#FAF1CD"/>
<path d="M37.4775 20.1445H34.5957V23.0292H37.4775V20.1445Z" fill="#FAF1CD"/>
<path d="M37.4775 17.2637H34.5957V20.1454H37.4775V17.2637Z" fill="#FAF1CD"/>
<path d="M37.4775 14.3789H34.5957V17.2636H37.4775V14.3789Z" fill="#FAF1CD"/>
<path d="M34.5947 54.7422H31.7129V57.624H34.5947V54.7422Z" fill="#FAF1CD"/>
<path d="M34.5947 51.8594H31.7129V54.7411H34.5947V51.8594Z" fill="#FAF1CD"/>
<path d="M34.5947 48.9746H31.7129V51.8593H34.5947V48.9746Z" fill="#FAF1CD"/>
<path d="M34.5947 46.0938H31.7129V48.9755H34.5947V46.0938Z" fill="#FAF1CD"/>
<path d="M34.5947 23.0293H31.7129V25.9111H34.5947V23.0293Z" fill="#FAF1CD"/>
<path d="M34.5947 20.1445H31.7129V23.0292H34.5947V20.1445Z" fill="#FAF1CD"/>
<path d="M34.5947 17.2637H31.7129V20.1454H34.5947V17.2637Z" fill="#FAF1CD"/>
<path d="M34.5947 14.3789H31.7129V17.2636H34.5947V14.3789Z" fill="#FAF1CD"/>
<path d="M31.7128 54.7422H28.8281V57.624H31.7128V54.7422Z" fill="#FAF1CD"/>
<path d="M31.7128 51.8594H28.8281V54.7411H31.7128V51.8594Z" fill="#FAF1CD"/>
<path d="M31.7128 48.9746H28.8281V51.8593H31.7128V48.9746Z" fill="#FAF1CD"/>
<path d="M31.7128 46.0938H28.8281V48.9755H31.7128V46.0938Z" fill="#FAF1CD"/>
<path d="M31.7128 43.209H28.8281V46.0937H31.7128V43.209Z" fill="#FAF1CD"/>
<path d="M31.7128 40.3262H28.8281V43.2079H31.7128V40.3262Z" fill="#FAF1CD"/>
<path d="M31.7128 37.4453H28.8281V40.3271H31.7128V37.4453Z" fill="#FAF1CD"/>
<path d="M31.7128 34.5605H28.8281V37.4452H31.7128V34.5605Z" fill="#FAF1CD"/>
<path d="M31.7128 31.6777H28.8281V34.5595H31.7128V31.6777Z" fill="#FAF1CD"/>
<path d="M31.7128 28.793H28.8281V31.6777H31.7128V28.793Z" fill="#FAF1CD"/>
<path d="M31.7128 25.9121H28.8281V28.7939H31.7128V25.9121Z" fill="#FAF1CD"/>
<path d="M31.7128 23.0293H28.8281V25.9111H31.7128V23.0293Z" fill="#FAF1CD"/>
<path d="M31.7128 20.1445H28.8281V23.0292H31.7128V20.1445Z" fill="#FAF1CD"/>
<path d="M31.7128 17.2637H28.8281V20.1454H31.7128V17.2637Z" fill="#FAF1CD"/>
<path d="M31.7128 14.3789H28.8281V17.2636H31.7128V14.3789Z" fill="#FAF1CD"/>
<path d="M28.829 51.8594H25.9473V54.7411H28.829V51.8594Z" fill="#FAF1CD"/>
<path d="M28.829 48.9746H25.9473V51.8593H28.829V48.9746Z" fill="#FAF1CD"/>
<path d="M28.829 46.0938H25.9473V48.9755H28.829V46.0938Z" fill="#FAF1CD"/>
<path d="M28.829 43.209H25.9473V46.0937H28.829V43.209Z" fill="#FAF1CD"/>
<path d="M28.829 40.3262H25.9473V43.2079H28.829V40.3262Z" fill="#FAF1CD"/>
<path d="M28.829 37.4453H25.9473V40.3271H28.829V37.4453Z" fill="#FAF1CD"/>
<path d="M28.829 34.5605H25.9473V37.4452H28.829V34.5605Z" fill="#FAF1CD"/>
<path d="M28.829 31.6777H25.9473V34.5595H28.829V31.6777Z" fill="#FAF1CD"/>
<path d="M28.829 28.793H25.9473V31.6777H28.829V28.793Z" fill="#FAF1CD"/>
<path d="M28.829 25.9121H25.9473V28.7939H28.829V25.9121Z" fill="#FAF1CD"/>
<path d="M28.829 23.0293H25.9473V25.9111H28.829V23.0293Z" fill="#FAF1CD"/>
<path d="M28.829 20.1445H25.9473V23.0292H28.829V20.1445Z" fill="#FAF1CD"/>
<path d="M28.829 17.2637H25.9473V20.1454H28.829V17.2637Z" fill="#FAF1CD"/>
<path d="M25.9472 51.8594H23.0625V54.7411H25.9472V51.8594Z" fill="#FAF1CD"/>
<path d="M25.9472 48.9746H23.0625V51.8593H25.9472V48.9746Z" fill="#FAF1CD"/>
<path d="M25.9472 46.0938H23.0625V48.9755H25.9472V46.0938Z" fill="#FAF1CD"/>
<path d="M25.9472 43.209H23.0625V46.0937H25.9472V43.209Z" fill="#FAF1CD"/>
<path d="M25.9472 40.3262H23.0625V43.2079H25.9472V40.3262Z" fill="#FAF1CD"/>
<path d="M25.9472 37.4453H23.0625V40.3271H25.9472V37.4453Z" fill="#FAF1CD"/>
<path d="M25.9472 34.5605H23.0625V37.4452H25.9472V34.5605Z" fill="#FAF1CD"/>
<path d="M25.9472 31.6777H23.0625V34.5595H25.9472V31.6777Z" fill="#FAF1CD"/>
<path d="M25.9472 28.793H23.0625V31.6777H25.9472V28.793Z" fill="#FAF1CD"/>
<path d="M25.9472 25.9121H23.0625V28.7939H25.9472V25.9121Z" fill="#FAF1CD"/>
<path d="M25.9472 23.0293H23.0625V25.9111H25.9472V23.0293Z" fill="#FAF1CD"/>
<path d="M25.9472 20.1445H23.0625V23.0292H25.9472V20.1445Z" fill="#FAF1CD"/>
<path d="M25.9472 17.2637H23.0625V20.1454H25.9472V17.2637Z" fill="#FAF1CD"/>
<path d="M23.0615 48.9746H20.1797V51.8593H23.0615V48.9746Z" fill="#FAF1CD"/>
<path d="M23.0615 46.0938H20.1797V48.9755H23.0615V46.0938Z" fill="#FAF1CD"/>
<path d="M23.0615 43.209H20.1797V46.0937H23.0615V43.209Z" fill="#FAF1CD"/>
<path d="M23.0615 40.3262H20.1797V43.2079H23.0615V40.3262Z" fill="#FAF1CD"/>
<path d="M23.0615 37.4453H20.1797V40.3271H23.0615V37.4453Z" fill="#FAF1CD"/>
<path d="M23.0615 34.5605H20.1797V37.4452H23.0615V34.5605Z" fill="#FAF1CD"/>
<path d="M23.0615 31.6777H20.1797V34.5595H23.0615V31.6777Z" fill="#FAF1CD"/>
<path d="M23.0615 28.793H20.1797V31.6777H23.0615V28.793Z" fill="#FAF1CD"/>
<path d="M23.0615 25.9121H20.1797V28.7939H23.0615V25.9121Z" fill="#FAF1CD"/>
<path d="M23.0615 23.0293H20.1797V25.9111H23.0615V23.0293Z" fill="#FAF1CD"/>
<path d="M23.0615 20.1445H20.1797V23.0292H23.0615V20.1445Z" fill="#FAF1CD"/>
<path d="M20.1806 46.0938H17.2988V48.9755H20.1806V46.0938Z" fill="#FAF1CD"/>
<path d="M20.1806 43.209H17.2988V46.0937H20.1806V43.209Z" fill="#FAF1CD"/>
<path d="M20.1806 40.3262H17.2988V43.2079H20.1806V40.3262Z" fill="#FAF1CD"/>
<path d="M20.1806 37.4453H17.2988V40.3271H20.1806V37.4453Z" fill="#FAF1CD"/>
<path d="M20.1806 34.5605H17.2988V37.4452H20.1806V34.5605Z" fill="#FAF1CD"/>
<path d="M20.1806 31.6777H17.2988V34.5595H20.1806V31.6777Z" fill="#FAF1CD"/>
<path d="M20.1806 28.793H17.2988V31.6777H20.1806V28.793Z" fill="#FAF1CD"/>
<path d="M20.1806 25.9121H17.2988V28.7939H20.1806V25.9121Z" fill="#FAF1CD"/>
<path d="M20.1806 23.0293H17.2988V25.9111H20.1806V23.0293Z" fill="#FAF1CD"/>
<path d="M17.2988 40.3262H14.4141V43.2079H17.2988V40.3262Z" fill="#FAF1CD"/>
<path d="M17.2988 37.4453H14.4141V40.3271H17.2988V37.4453Z" fill="#FAF1CD"/>
<path d="M17.2988 34.5605H14.4141V37.4452H17.2988V34.5605Z" fill="#FAF1CD"/>
<path d="M17.2988 31.6777H14.4141V34.5595H17.2988V31.6777Z" fill="#FAF1CD"/>
<path d="M17.2988 28.793H14.4141V31.6777H17.2988V28.793Z" fill="#FAF1CD"/>
<path d="M43.2431 54.7422H40.3613V57.624H43.2431V54.7422Z" fill="#FAF1CD"/>
<path d="M43.2431 14.3789H40.3613V17.2636H43.2431V14.3789Z" fill="#FAF1CD"/>
<path d="M40.3613 54.7422H37.4766V57.624H40.3613V54.7422Z" fill="#FAF1CD"/>
<path d="M40.3613 51.8594H37.4766V54.7411H40.3613V51.8594Z" fill="#FAF1CD"/>
<path d="M40.3613 17.2637H37.4766V20.1454H40.3613V17.2637Z" fill="#FAF1CD"/>
<path d="M40.3613 14.3789H37.4766V17.2636H40.3613V14.3789Z" fill="#FAF1CD"/>
<path d="M37.4775 54.7422H34.5957V57.624H37.4775V54.7422Z" fill="#FAF1CD"/>
<path d="M37.4775 51.8594H34.5957V54.7411H37.4775V51.8594Z" fill="#FAF1CD"/>
<path d="M37.4775 48.9746H34.5957V51.8593H37.4775V48.9746Z" fill="#FAF1CD"/>
<path d="M37.4775 20.1445H34.5957V23.0292H37.4775V20.1445Z" fill="#FAF1CD"/>
<path d="M37.4775 17.2637H34.5957V20.1454H37.4775V17.2637Z" fill="#FAF1CD"/>
<path d="M37.4775 14.3789H34.5957V17.2636H37.4775V14.3789Z" fill="#FAF1CD"/>
<path d="M34.5947 54.7422H31.7129V57.624H34.5947V54.7422Z" fill="#FAF1CD"/>
<path d="M34.5947 51.8594H31.7129V54.7411H34.5947V51.8594Z" fill="#FAF1CD"/>
<path d="M34.5947 48.9746H31.7129V51.8593H34.5947V48.9746Z" fill="#FAF1CD"/>
<path d="M34.5947 46.0938H31.7129V48.9755H34.5947V46.0938Z" fill="#FAF1CD"/>
<path d="M34.5947 23.0293H31.7129V25.9111H34.5947V23.0293Z" fill="#FAF1CD"/>
<path d="M34.5947 20.1445H31.7129V23.0292H34.5947V20.1445Z" fill="#FAF1CD"/>
<path d="M34.5947 17.2637H31.7129V20.1454H34.5947V17.2637Z" fill="#FAF1CD"/>
<path d="M34.5947 14.3789H31.7129V17.2636H34.5947V14.3789Z" fill="#FAF1CD"/>
<path d="M31.7128 54.7422H28.8281V57.624H31.7128V54.7422Z" fill="#FAF1CD"/>
<path d="M31.7128 51.8594H28.8281V54.7411H31.7128V51.8594Z" fill="#FAF1CD"/>
<path d="M31.7128 48.9746H28.8281V51.8593H31.7128V48.9746Z" fill="#FAF1CD"/>
<path d="M31.7128 46.0938H28.8281V48.9755H31.7128V46.0938Z" fill="#FAF1CD"/>
<path d="M31.7128 43.209H28.8281V46.0937H31.7128V43.209Z" fill="#FAF1CD"/>
<path d="M31.7128 40.3262H28.8281V43.2079H31.7128V40.3262Z" fill="#FAF1CD"/>
<path d="M31.7128 37.4453H28.8281V40.3271H31.7128V37.4453Z" fill="#FAF1CD"/>
<path d="M31.7128 34.5605H28.8281V37.4452H31.7128V34.5605Z" fill="#FAF1CD"/>
<path d="M31.7128 31.6777H28.8281V34.5595H31.7128V31.6777Z" fill="#FAF1CD"/>
<path d="M31.7128 28.793H28.8281V31.6777H31.7128V28.793Z" fill="#FAF1CD"/>
<path d="M31.7128 25.9121H28.8281V28.7939H31.7128V25.9121Z" fill="#FAF1CD"/>
<path d="M31.7128 23.0293H28.8281V25.9111H31.7128V23.0293Z" fill="#FAF1CD"/>
<path d="M31.7128 20.1445H28.8281V23.0292H31.7128V20.1445Z" fill="#FAF1CD"/>
<path d="M31.7128 17.2637H28.8281V20.1454H31.7128V17.2637Z" fill="#FAF1CD"/>
<path d="M31.7128 14.3789H28.8281V17.2636H31.7128V14.3789Z" fill="#FAF1CD"/>
<path d="M28.829 51.8594H25.9473V54.7411H28.829V51.8594Z" fill="#FAF1CD"/>
<path d="M28.829 48.9746H25.9473V51.8593H28.829V48.9746Z" fill="#FAF1CD"/>
<path d="M28.829 46.0938H25.9473V48.9755H28.829V46.0938Z" fill="#FAF1CD"/>
<path d="M28.829 43.209H25.9473V46.0937H28.829V43.209Z" fill="#FAF1CD"/>
<path d="M28.829 40.3262H25.9473V43.2079H28.829V40.3262Z" fill="#FAF1CD"/>
<path d="M28.829 37.4453H25.9473V40.3271H28.829V37.4453Z" fill="#FAF1CD"/>
<path d="M28.829 34.5605H25.9473V37.4452H28.829V34.5605Z" fill="#FAF1CD"/>
<path d="M28.829 31.6777H25.9473V34.5595H28.829V31.6777Z" fill="#FAF1CD"/>
<path d="M28.829 28.793H25.9473V31.6777H28.829V28.793Z" fill="#FAF1CD"/>
<path d="M28.829 25.9121H25.9473V28.7939H28.829V25.9121Z" fill="#FAF1CD"/>
<path d="M28.829 23.0293H25.9473V25.9111H28.829V23.0293Z" fill="#FAF1CD"/>
<path d="M28.829 20.1445H25.9473V23.0292H28.829V20.1445Z" fill="#FAF1CD"/>
<path d="M28.829 17.2637H25.9473V20.1454H28.829V17.2637Z" fill="#FAF1CD"/>
<path d="M25.9472 51.8594H23.0625V54.7411H25.9472V51.8594Z" fill="#FAF1CD"/>
<path d="M25.9472 48.9746H23.0625V51.8593H25.9472V48.9746Z" fill="#FAF1CD"/>
<path d="M25.9472 46.0938H23.0625V48.9755H25.9472V46.0938Z" fill="#FAF1CD"/>
<path d="M25.9472 43.209H23.0625V46.0937H25.9472V43.209Z" fill="#FAF1CD"/>
<path d="M25.9472 40.3262H23.0625V43.2079H25.9472V40.3262Z" fill="#FAF1CD"/>
<path d="M25.9472 37.4453H23.0625V40.3271H25.9472V37.4453Z" fill="#FAF1CD"/>
<path d="M25.9472 34.5605H23.0625V37.4452H25.9472V34.5605Z" fill="#FAF1CD"/>
<path d="M25.9472 31.6777H23.0625V34.5595H25.9472V31.6777Z" fill="#FAF1CD"/>
<path d="M25.9472 28.793H23.0625V31.6777H25.9472V28.793Z" fill="#FAF1CD"/>
<path d="M25.9472 25.9121H23.0625V28.7939H25.9472V25.9121Z" fill="#FAF1CD"/>
<path d="M25.9472 23.0293H23.0625V25.9111H25.9472V23.0293Z" fill="#FAF1CD"/>
<path d="M25.9472 20.1445H23.0625V23.0292H25.9472V20.1445Z" fill="#FAF1CD"/>
<path d="M25.9472 17.2637H23.0625V20.1454H25.9472V17.2637Z" fill="#FAF1CD"/>
<path d="M23.0615 48.9746H20.1797V51.8593H23.0615V48.9746Z" fill="#FAF1CD"/>
<path d="M23.0615 46.0938H20.1797V48.9755H23.0615V46.0938Z" fill="#FAF1CD"/>
<path d="M23.0615 43.209H20.1797V46.0937H23.0615V43.209Z" fill="#FAF1CD"/>
<path d="M23.0615 40.3262H20.1797V43.2079H23.0615V40.3262Z" fill="#FAF1CD"/>
<path d="M23.0615 37.4453H20.1797V40.3271H23.0615V37.4453Z" fill="#FAF1CD"/>
<path d="M23.0615 34.5605H20.1797V37.4452H23.0615V34.5605Z" fill="#FAF1CD"/>
<path d="M23.0615 31.6777H20.1797V34.5595H23.0615V31.6777Z" fill="#FAF1CD"/>
<path d="M23.0615 28.793H20.1797V31.6777H23.0615V28.793Z" fill="#FAF1CD"/>
<path d="M23.0615 25.9121H20.1797V28.7939H23.0615V25.9121Z" fill="#FAF1CD"/>
<path d="M23.0615 23.0293H20.1797V25.9111H23.0615V23.0293Z" fill="#FAF1CD"/>
<path d="M23.0615 20.1445H20.1797V23.0292H23.0615V20.1445Z" fill="#FAF1CD"/>
<path d="M20.1806 46.0938H17.2988V48.9755H20.1806V46.0938Z" fill="#FAF1CD"/>
<path d="M20.1806 43.209H17.2988V46.0937H20.1806V43.209Z" fill="#FAF1CD"/>
<path d="M20.1806 40.3262H17.2988V43.2079H20.1806V40.3262Z" fill="#FAF1CD"/>
<path d="M20.1806 37.4453H17.2988V40.3271H20.1806V37.4453Z" fill="#FAF1CD"/>
<path d="M20.1806 34.5605H17.2988V37.4452H20.1806V34.5605Z" fill="#FAF1CD"/>
<path d="M20.1806 31.6777H17.2988V34.5595H20.1806V31.6777Z" fill="#FAF1CD"/>
<path d="M20.1806 28.793H17.2988V31.6777H20.1806V28.793Z" fill="#FAF1CD"/>
<path d="M20.1806 25.9121H17.2988V28.7939H20.1806V25.9121Z" fill="#FAF1CD"/>
<path d="M20.1806 23.0293H17.2988V25.9111H20.1806V23.0293Z" fill="#FAF1CD"/>
<path d="M17.2988 40.3262H14.4141V43.2079H17.2988V40.3262Z" fill="#FAF1CD"/>
<path d="M17.2988 37.4453H14.4141V40.3271H17.2988V37.4453Z" fill="#FAF1CD"/>
<path d="M17.2988 34.5605H14.4141V37.4452H17.2988V34.5605Z" fill="#FAF1CD"/>
<path d="M17.2988 31.6777H14.4141V34.5595H17.2988V31.6777Z" fill="#FAF1CD"/>
<path d="M17.2988 28.793H14.4141V31.6777H17.2988V28.793Z" fill="#FAF1CD"/>
</svg>
