<?xml version="1.0" encoding="utf-8"?>
<!-- Generator: Adobe Illustrator 24.1.1, SVG Export Plug-In . SVG Version: 6.00 Build 0)  -->
<svg version="1.1" id="Слой_1" xmlns="http://www.w3.org/2000/svg" xmlns:xlink="http://www.w3.org/1999/xlink" x="0px" y="0px"
	 viewBox="0 0 506.4 72" style="enable-background:new 0 0 506.4 72;" xml:space="preserve">
<style type="text/css">
	.st0{fill:#FAF1CD;}
	.st1{fill:#FED737;}
	.st2{fill:#FFCD00;}
	.st3{fill:#FBEBAA;}
	.st4{fill:#FCE68F;}
	.st5{fill:#FDDE5F;}
</style>
<path class="st0" d="M477.6,54.7h-2.9v2.9h2.9V54.7z"/>
<path class="st0" d="M477.6,14.4h-2.9v2.9h2.9V14.4z"/>
<path class="st0" d="M474.8,54.7h-2.9v2.9h2.9V54.7z"/>
<path class="st0" d="M474.8,51.9h-2.9v2.9h2.9V51.9z"/>
<path class="st0" d="M474.8,17.3h-2.9v2.9h2.9V17.3z"/>
<path class="st0" d="M474.8,14.4h-2.9v2.9h2.9V14.4z"/>
<path class="st0" d="M471.9,54.7H469v2.9h2.9V54.7z"/>
<path class="st0" d="M471.9,51.9H469v2.9h2.9V51.9z"/>
<path class="st0" d="M471.9,49H469v2.9h2.9V49z"/>
<path class="st0" d="M471.9,20.1H469V23h2.9V20.1z"/>
<path class="st0" d="M471.9,17.3H469v2.9h2.9V17.3z"/>
<path class="st0" d="M471.9,14.4H469v2.9h2.9V14.4z"/>
<path class="st0" d="M469,54.7h-2.9v2.9h2.9V54.7z"/>
<path class="st0" d="M469,51.9h-2.9v2.9h2.9V51.9z"/>
<path class="st0" d="M469,49h-2.9v2.9h2.9V49z"/>
<path class="st0" d="M469,46.1h-2.9V49h2.9V46.1z"/>
<path class="st0" d="M469,23h-2.9v2.9h2.9V23z"/>
<path class="st0" d="M469,20.1h-2.9V23h2.9V20.1z"/>
<path class="st0" d="M469,17.3h-2.9v2.9h2.9V17.3z"/>
<path class="st0" d="M469,14.4h-2.9v2.9h2.9V14.4z"/>
<path class="st0" d="M466.1,54.7h-2.9v2.9h2.9V54.7z"/>
<path class="st0" d="M466.1,51.9h-2.9v2.9h2.9V51.9z"/>
<path class="st0" d="M466.1,49h-2.9v2.9h2.9V49z"/>
<path class="st0" d="M466.1,46.1h-2.9V49h2.9V46.1z"/>
<path class="st0" d="M466.1,43.2h-2.9v2.9h2.9V43.2z"/>
<path class="st0" d="M466.1,40.3h-2.9v2.9h2.9V40.3z"/>
<path class="st0" d="M466.1,37.4h-2.9v2.9h2.9V37.4z"/>
<path class="st0" d="M466.1,34.6h-2.9v2.9h2.9V34.6z"/>
<path class="st0" d="M466.1,31.7h-2.9v2.9h2.9V31.7z"/>
<path class="st0" d="M466.1,28.8h-2.9v2.9h2.9V28.8z"/>
<path class="st0" d="M466.1,25.9h-2.9v2.9h2.9V25.9z"/>
<path class="st0" d="M466.1,23h-2.9v2.9h2.9V23z"/>
<path class="st0" d="M466.1,20.1h-2.9V23h2.9V20.1z"/>
<path class="st0" d="M466.1,17.3h-2.9v2.9h2.9V17.3z"/>
<path class="st0" d="M466.1,14.4h-2.9v2.9h2.9V14.4z"/>
<path class="st0" d="M463.2,51.9h-2.9v2.9h2.9V51.9z"/>
<path class="st0" d="M463.2,49h-2.9v2.9h2.9V49z"/>
<path class="st0" d="M463.2,46.1h-2.9V49h2.9V46.1z"/>
<path class="st0" d="M463.2,43.2h-2.9v2.9h2.9V43.2z"/>
<path class="st0" d="M463.2,40.3h-2.9v2.9h2.9V40.3z"/>
<path class="st0" d="M463.2,37.4h-2.9v2.9h2.9V37.4z"/>
<path class="st0" d="M463.2,34.6h-2.9v2.9h2.9V34.6z"/>
<path class="st0" d="M463.2,31.7h-2.9v2.9h2.9V31.7z"/>
<path class="st0" d="M463.2,28.8h-2.9v2.9h2.9V28.8z"/>
<path class="st0" d="M463.2,25.9h-2.9v2.9h2.9V25.9z"/>
<path class="st0" d="M463.2,23h-2.9v2.9h2.9V23z"/>
<path class="st0" d="M463.2,20.1h-2.9V23h2.9V20.1z"/>
<path class="st0" d="M463.2,17.3h-2.9v2.9h2.9V17.3z"/>
<path class="st0" d="M460.3,51.9h-2.9v2.9h2.9V51.9z"/>
<path class="st0" d="M460.3,49h-2.9v2.9h2.9V49z"/>
<path class="st0" d="M460.3,46.1h-2.9V49h2.9V46.1z"/>
<path class="st0" d="M460.3,43.2h-2.9v2.9h2.9V43.2z"/>
<path class="st0" d="M460.3,40.3h-2.9v2.9h2.9V40.3z"/>
<path class="st0" d="M460.3,37.4h-2.9v2.9h2.9V37.4z"/>
<path class="st0" d="M460.3,34.6h-2.9v2.9h2.9V34.6z"/>
<path class="st0" d="M460.3,31.7h-2.9v2.9h2.9V31.7z"/>
<path class="st0" d="M460.3,28.8h-2.9v2.9h2.9V28.8z"/>
<path class="st0" d="M460.3,25.9h-2.9v2.9h2.9V25.9z"/>
<path class="st0" d="M460.3,23h-2.9v2.9h2.9V23z"/>
<path class="st0" d="M460.3,20.1h-2.9V23h2.9V20.1z"/>
<path class="st0" d="M460.3,17.3h-2.9v2.9h2.9V17.3z"/>
<path class="st0" d="M457.5,49h-2.9v2.9h2.9V49z"/>
<path class="st0" d="M457.5,46.1h-2.9V49h2.9V46.1z"/>
<path class="st0" d="M457.5,43.2h-2.9v2.9h2.9V43.2z"/>
<path class="st0" d="M457.5,40.3h-2.9v2.9h2.9V40.3z"/>
<path class="st0" d="M457.5,37.4h-2.9v2.9h2.9V37.4z"/>
<path class="st0" d="M457.5,34.6h-2.9v2.9h2.9V34.6z"/>
<path class="st0" d="M457.5,31.7h-2.9v2.9h2.9V31.7z"/>
<path class="st0" d="M457.5,28.8h-2.9v2.9h2.9V28.8z"/>
<path class="st0" d="M457.5,25.9h-2.9v2.9h2.9V25.9z"/>
<path class="st0" d="M457.5,23h-2.9v2.9h2.9V23z"/>
<path class="st0" d="M457.5,20.1h-2.9V23h2.9V20.1z"/>
<path class="st0" d="M454.6,46.1h-2.9V49h2.9V46.1z"/>
<path class="st0" d="M454.6,43.2h-2.9v2.9h2.9V43.2z"/>
<path class="st0" d="M454.6,40.3h-2.9v2.9h2.9V40.3z"/>
<path class="st0" d="M454.6,37.4h-2.9v2.9h2.9V37.4z"/>
<path class="st0" d="M454.6,34.6h-2.9v2.9h2.9V34.6z"/>
<path class="st0" d="M454.6,31.7h-2.9v2.9h2.9V31.7z"/>
<path class="st0" d="M454.6,28.8h-2.9v2.9h2.9V28.8z"/>
<path class="st0" d="M454.6,25.9h-2.9v2.9h2.9V25.9z"/>
<path class="st0" d="M454.6,23h-2.9v2.9h2.9V23z"/>
<path class="st0" d="M451.7,40.3h-2.9v2.9h2.9V40.3z"/>
<path class="st0" d="M451.7,37.4h-2.9v2.9h2.9V37.4z"/>
<path class="st0" d="M451.7,34.6h-2.9v2.9h2.9V34.6z"/>
<path class="st0" d="M451.7,31.7h-2.9v2.9h2.9V31.7z"/>
<path class="st0" d="M451.7,28.8h-2.9v2.9h2.9V28.8z"/>
<path class="st0" d="M477.6,54.7h-2.9v2.9h2.9V54.7z"/>
<path class="st0" d="M477.6,14.4h-2.9v2.9h2.9V14.4z"/>
<path class="st0" d="M474.8,54.7h-2.9v2.9h2.9V54.7z"/>
<path class="st0" d="M474.8,51.9h-2.9v2.9h2.9V51.9z"/>
<path class="st0" d="M474.8,17.3h-2.9v2.9h2.9V17.3z"/>
<path class="st0" d="M474.8,14.4h-2.9v2.9h2.9V14.4z"/>
<path class="st0" d="M471.9,54.7H469v2.9h2.9V54.7z"/>
<path class="st0" d="M471.9,51.9H469v2.9h2.9V51.9z"/>
<path class="st0" d="M471.9,49H469v2.9h2.9V49z"/>
<path class="st0" d="M471.9,20.1H469V23h2.9V20.1z"/>
<path class="st0" d="M471.9,17.3H469v2.9h2.9V17.3z"/>
<path class="st0" d="M471.9,14.4H469v2.9h2.9V14.4z"/>
<path class="st0" d="M469,54.7h-2.9v2.9h2.9V54.7z"/>
<path class="st0" d="M469,51.9h-2.9v2.9h2.9V51.9z"/>
<path class="st0" d="M469,49h-2.9v2.9h2.9V49z"/>
<path class="st0" d="M469,46.1h-2.9V49h2.9V46.1z"/>
<path class="st0" d="M469,23h-2.9v2.9h2.9V23z"/>
<path class="st0" d="M469,20.1h-2.9V23h2.9V20.1z"/>
<path class="st0" d="M469,17.3h-2.9v2.9h2.9V17.3z"/>
<path class="st0" d="M469,14.4h-2.9v2.9h2.9V14.4z"/>
<path class="st0" d="M466.1,54.7h-2.9v2.9h2.9V54.7z"/>
<path class="st0" d="M466.1,51.9h-2.9v2.9h2.9V51.9z"/>
<path class="st0" d="M466.1,49h-2.9v2.9h2.9V49z"/>
<path class="st0" d="M466.1,46.1h-2.9V49h2.9V46.1z"/>
<path class="st0" d="M466.1,43.2h-2.9v2.9h2.9V43.2z"/>
<path class="st0" d="M466.1,40.3h-2.9v2.9h2.9V40.3z"/>
<path class="st0" d="M466.1,37.4h-2.9v2.9h2.9V37.4z"/>
<path class="st0" d="M466.1,34.6h-2.9v2.9h2.9V34.6z"/>
<path class="st0" d="M466.1,31.7h-2.9v2.9h2.9V31.7z"/>
<path class="st0" d="M466.1,28.8h-2.9v2.9h2.9V28.8z"/>
<path class="st0" d="M466.1,25.9h-2.9v2.9h2.9V25.9z"/>
<path class="st0" d="M466.1,23h-2.9v2.9h2.9V23z"/>
<path class="st0" d="M466.1,20.1h-2.9V23h2.9V20.1z"/>
<path class="st0" d="M466.1,17.3h-2.9v2.9h2.9V17.3z"/>
<path class="st0" d="M466.1,14.4h-2.9v2.9h2.9V14.4z"/>
<path class="st0" d="M463.2,51.9h-2.9v2.9h2.9V51.9z"/>
<path class="st0" d="M463.2,49h-2.9v2.9h2.9V49z"/>
<path class="st0" d="M463.2,46.1h-2.9V49h2.9V46.1z"/>
<path class="st0" d="M463.2,43.2h-2.9v2.9h2.9V43.2z"/>
<path class="st0" d="M463.2,40.3h-2.9v2.9h2.9V40.3z"/>
<path class="st0" d="M463.2,37.4h-2.9v2.9h2.9V37.4z"/>
<path class="st0" d="M463.2,34.6h-2.9v2.9h2.9V34.6z"/>
<path class="st0" d="M463.2,31.7h-2.9v2.9h2.9V31.7z"/>
<path class="st0" d="M463.2,28.8h-2.9v2.9h2.9V28.8z"/>
<path class="st0" d="M463.2,25.9h-2.9v2.9h2.9V25.9z"/>
<path class="st0" d="M463.2,23h-2.9v2.9h2.9V23z"/>
<path class="st0" d="M463.2,20.1h-2.9V23h2.9V20.1z"/>
<path class="st0" d="M463.2,17.3h-2.9v2.9h2.9V17.3z"/>
<path class="st0" d="M460.3,51.9h-2.9v2.9h2.9V51.9z"/>
<path class="st0" d="M460.3,49h-2.9v2.9h2.9V49z"/>
<path class="st0" d="M460.3,46.1h-2.9V49h2.9V46.1z"/>
<path class="st0" d="M460.3,43.2h-2.9v2.9h2.9V43.2z"/>
<path class="st0" d="M460.3,40.3h-2.9v2.9h2.9V40.3z"/>
<path class="st0" d="M460.3,37.4h-2.9v2.9h2.9V37.4z"/>
<path class="st0" d="M460.3,34.6h-2.9v2.9h2.9V34.6z"/>
<path class="st0" d="M460.3,31.7h-2.9v2.9h2.9V31.7z"/>
<path class="st0" d="M460.3,28.8h-2.9v2.9h2.9V28.8z"/>
<path class="st0" d="M460.3,25.9h-2.9v2.9h2.9V25.9z"/>
<path class="st0" d="M460.3,23h-2.9v2.9h2.9V23z"/>
<path class="st0" d="M460.3,20.1h-2.9V23h2.9V20.1z"/>
<path class="st0" d="M460.3,17.3h-2.9v2.9h2.9V17.3z"/>
<path class="st0" d="M457.5,49h-2.9v2.9h2.9V49z"/>
<path class="st0" d="M457.5,46.1h-2.9V49h2.9V46.1z"/>
<path class="st0" d="M457.5,43.2h-2.9v2.9h2.9V43.2z"/>
<path class="st0" d="M457.5,40.3h-2.9v2.9h2.9V40.3z"/>
<path class="st0" d="M457.5,37.4h-2.9v2.9h2.9V37.4z"/>
<path class="st0" d="M457.5,34.6h-2.9v2.9h2.9V34.6z"/>
<path class="st0" d="M457.5,31.7h-2.9v2.9h2.9V31.7z"/>
<path class="st0" d="M457.5,28.8h-2.9v2.9h2.9V28.8z"/>
<path class="st0" d="M457.5,25.9h-2.9v2.9h2.9V25.9z"/>
<path class="st0" d="M457.5,23h-2.9v2.9h2.9V23z"/>
<path class="st0" d="M457.5,20.1h-2.9V23h2.9V20.1z"/>
<path class="st0" d="M454.6,46.1h-2.9V49h2.9V46.1z"/>
<path class="st0" d="M454.6,43.2h-2.9v2.9h2.9V43.2z"/>
<path class="st0" d="M454.6,40.3h-2.9v2.9h2.9V40.3z"/>
<path class="st0" d="M454.6,37.4h-2.9v2.9h2.9V37.4z"/>
<path class="st0" d="M454.6,34.6h-2.9v2.9h2.9V34.6z"/>
<path class="st0" d="M454.6,31.7h-2.9v2.9h2.9V31.7z"/>
<path class="st0" d="M454.6,28.8h-2.9v2.9h2.9V28.8z"/>
<path class="st0" d="M454.6,25.9h-2.9v2.9h2.9V25.9z"/>
<path class="st0" d="M454.6,23h-2.9v2.9h2.9V23z"/>
<path class="st0" d="M451.7,40.3h-2.9v2.9h2.9V40.3z"/>
<path class="st0" d="M451.7,37.4h-2.9v2.9h2.9V37.4z"/>
<path class="st0" d="M451.7,34.6h-2.9v2.9h2.9V34.6z"/>
<path class="st0" d="M451.7,31.7h-2.9v2.9h2.9V31.7z"/>
<path class="st0" d="M451.7,28.8h-2.9v2.9h2.9V28.8z"/>
<path class="st1" d="M211.3,34.6h-1.4l0,0h-1.4l0,0h-1.4l0,0l0,0l0,0h-1.4l0,0l0,0v2.8h5.7l0,0l0,0v-2.8H211.3z"/>
<path class="st1" d="M205.6,57.7h-2.8v2.8h2.8V57.7z"/>
<path class="st1" d="M205.6,11.4h-2.8v2.8h2.8V11.4z"/>
<path class="st1" d="M202.6,54.9h-2.8v2.8h2.8V54.9z"/>
<path class="st1" d="M202.6,14.3h-2.8v2.8h2.8V14.3z"/>
<path class="st1" d="M162,54.9h-2.8v2.8h2.8V54.9z"/>
<path class="st1" d="M162,14.3h-2.8v2.8h2.8V14.3z"/>
<path class="st1" d="M159.2,57.7h-2.8v2.8h2.8V57.7z"/>
<path class="st1" d="M159.2,11.4h-2.8v2.8h2.8V11.4z"/>
<polygon class="st1" points="156.3,34.6 156.3,34.6 155.6,34.6 155.6,34.6 155.6,34.6 155.6,34.6 154.9,34.6 154.9,34.6 154.9,34.6 
	154.9,34.6 154.2,34.6 154.2,34.6 154.1,34.6 154.1,34.6 153.4,34.6 153.4,34.6 153.4,34.6 153.4,34.6 152.7,34.6 152.7,34.6 
	152.7,34.6 152.7,34.6 152,34.6 152,34.6 152,34.6 152,34.6 151.3,34.6 151.3,34.6 151.3,34.6 151.3,34.6 150.6,34.6 150.6,37.4 
	150.6,37.4 150.6,37.5 153.4,37.5 153.4,37.4 153.5,37.4 153.5,37.5 156.3,37.5 "/>
<path class="st1" d="M199.7,28.8L199.7,28.8V26v-0.1v-2.8l0,0v-0.1h-2.8v-2.8h-2.8H194V20v-2.8h-2.8h-0.1h-2.8l0,0v-2.9h-14.5v2.9
	l0,0H171h-0.1h-2.8V20v0.1H168h-2.8v2.8h-2.9v0.1l0,0v5.7l0,0l0,0h-2.9v14.5h2.9l0,0l0,0V46l0,0v0.1l0,0v2.8l0,0v0.1h2.9v2.8h2.9V52
	v2.8l0,0h2.8l0,0h0.1l0,0h2.8l0,0l0,0v2.9h14.5v-2.9l0,0l0,0h2.8l0,0h0.1l0,0h2.8l0,0V52v-0.1h2.9v-2.8h2.8v-0.1l0,0v-2.8l0,0V46
	l0,0v-2.8l0,0l0,0h2.9l0,0v-2.8v-0.1v-2.8v-0.1v-2.8v-0.1v-2.8v-0.1v-2.8l0,0H199.7L199.7,28.8z"/>
<path class="st1" d="M182.3,10.1L182.3,10.1V8.9l0,0V7.6l0,0V6.4h-2.8v1.3l0,0v1.3l0,0v1.3l0,0v1.3h2.8V10.1z"/>
<polygon class="st1" points="179.5,60.6 179.5,60.6 179.5,61.3 179.5,61.3 179.5,62 179.5,62.2 179.5,62.9 179.5,62.9 179.5,63.6 
	179.5,63.6 179.5,63.6 179.5,63.6 179.5,64.3 179.5,64.3 179.5,64.9 179.5,64.9 179.5,65.6 179.5,65.8 179.5,66.5 179.5,66.5 
	182.3,66.5 182.3,66.5 182.3,65.8 182.3,65.6 182.3,64.9 182.3,64.9 182.3,64.3 182.3,64.3 182.3,63.6 182.3,63.6 182.3,63.6 
	182.3,63.6 182.3,62.9 182.3,62.9 182.3,62.2 182.3,62 182.3,61.3 182.3,61.3 182.3,60.6 182.3,60.6 "/>
<path class="st2" d="M136.1,60.6h-2.8v2.8h2.8V60.6z"/>
<path class="st2" d="M136.1,8.4h-2.8v2.8h2.8V8.4z"/>
<path class="st2" d="M133.2,57.7h-2.8v2.8h2.8V57.7z"/>
<path class="st2" d="M133.2,11.4h-2.8v2.8h2.8V11.4z"/>
<path class="st2" d="M130.3,54.9h-2.8v2.8h2.8V54.9z"/>
<polygon class="st2" points="138.9,34.6 136.1,34.6 133.2,34.6 133.2,37.4 136.1,37.4 138.9,37.4 141.7,37.4 141.7,34.6 "/>
<polygon class="st2" points="81,34.6 78.2,34.6 75.3,34.6 75.3,37.4 78.2,37.4 81,37.4 83.8,37.4 83.8,34.6 "/>
<polygon class="st2" points="109.9,66.2 109.9,63.4 109.9,60.6 107.2,60.6 107.2,63.4 107.2,66.2 107.2,69.1 109.9,69.1 "/>
<polygon class="st2" points="109.9,8.6 109.9,5.8 109.9,2.9 107.2,2.9 107.2,5.8 107.2,8.6 107.2,11.4 109.9,11.4 "/>
<path class="st2" d="M130.3,14.3h-2.8v2.8h2.8V14.3z"/>
<path class="st2" d="M89.6,54.9h-2.8v2.8h2.8V54.9z"/>
<path class="st2" d="M89.6,14.3h-2.8v2.8h2.8V14.3z"/>
<path class="st2" d="M86.8,57.7h-2.8v2.8h2.8V57.7z"/>
<path class="st2" d="M86.8,11.4h-2.8v2.8h2.8V11.4z"/>
<path class="st2" d="M83.9,60.6h-2.8v2.8h2.8V60.6z"/>
<path class="st2" d="M83.9,8.4h-2.8v2.8h2.8V8.4z"/>
<path class="st2" d="M127.3,28.8L127.3,28.8V26v-0.1v-2.8l0,0v-0.1h-2.8v-2.8h-2.8h-0.1V20v-2.8h-2.8h-0.1h-2.8l0,0v-2.9h-14.6v2.9
	l0,0h-2.8h-0.1h-2.8V20v0.1h-0.1h-2.8v2.8h-2.9v0.1l0,0v5.7l0,0l0,0h-2.9v14.5h2.9l0,0l0,0V46l0,0v0.1l0,0v2.8l0,0v0.1h2.9v2.8h2.9
	V52v2.8l0,0h2.8l0,0h0.1l0,0h2.8l0,0l0,0v2.9h14.5v-2.9l0,0l0,0h2.8l0,0h0.1l0,0h2.8l0,0V52v-0.1h2.9v-2.8h2.8v-0.1l0,0v-2.8l0,0V46
	l0,0v-2.8l0,0l0,0h2.9l0,0v-2.8v-0.1v-2.8v-0.1v-2.8v-0.1v-2.8v-0.1v-2.8l0,0H127.3L127.3,28.8z"/>
<path class="st2" d="M72.4,34.6h-2.8h-0.1h-2.8h-0.1h-2.8l0,0h-0.1l0,0h-2.8l0,0l0,0v2.8h11.6l0,0l0,0V34.6z"/>
<path class="st2" d="M66.5,63.6h-2.8v2.8h2.8V63.6z"/>
<path class="st2" d="M66.5,5.7h-2.8v2.8h2.8V5.7z"/>
<path class="st2" d="M63.7,60.6H61v2.8h2.8V60.6z"/>
<path class="st2" d="M63.7,8.4H61v2.8h2.8V8.4z"/>
<path class="st2" d="M60.8,57.7H58v2.8h2.8V57.7z"/>
<path class="st2" d="M60.8,11.4H58v2.8h2.8V11.4z"/>
<path class="st2" d="M57.9,54.9h-2.8v2.8h2.8V54.9z"/>
<path class="st2" d="M57.9,14.3h-2.8v2.8h2.8V14.3z"/>
<path class="st2" d="M17.3,54.9h-2.8v2.8h2.8V54.9z"/>
<path class="st2" d="M17.3,14.3h-2.8v2.8h2.8V14.3z"/>
<path class="st2" d="M14.5,57.7h-2.8v2.8h2.8V57.7z"/>
<path class="st2" d="M14.5,11.4h-2.8v2.8h2.8V11.4z"/>
<path class="st2" d="M11.6,60.6H8.8v2.8h2.8V60.6z"/>
<path class="st2" d="M11.6,34.6H8.8l0,0H8.6l0,0H5.8l0,0H5.7l0,0H2.9l0,0H2.8l0,0H0v2.8l0,0v0.1h11.6V34.6L11.6,34.6L11.6,34.6z"/>
<path class="st2" d="M11.6,8.4H8.8v2.8h2.8V8.4z"/>
<path class="st2" d="M8.6,63.6H5.8v2.8h2.8V63.6z"/>
<path class="st2" d="M8.6,5.7H5.8v2.8h2.8V5.7z"/>
<path class="st2" d="M55,28.8L55,28.8V26v-0.1v-2.8l0,0v-0.1h-2.8v-2.8h-2.8h-0.1V20v-2.8h-2.8h-0.1h-2.8l0,0v-2.9H28.9v2.9l0,0
	h-2.8H26h-2.8V20v0.1h-0.1h-2.8v2.8h-2.9v0.1l0,0v5.7l0,0l0,0h-2.9v14.5h2.9l0,0l0,0V46l0,0v0.1l0,0v2.8l0,0v0.1h2.9v2.8h2.9V52v2.8
	l0,0H26l0,0h0.1l0,0h2.8l0,0l0,0v2.9h14.5v-2.9l0,0l0,0h2.8l0,0h0.1l0,0h2.8l0,0V52v-0.1h2.9v-2.8h2.8v-0.1l0,0v-2.8l0,0V46l0,0
	v-2.8l0,0l0,0h2.9l0,0v-2.8v-0.1v-2.8v-0.1v-2.8v-0.1v-2.8v-0.1v-2.8l0,0H55L55,28.8z"/>
<path class="st2" d="M37.6,8.4L37.6,8.4V5.7V5.5V2.7V2.6v-2.8h-2.8v2.8v0.1v2.8v0.1v2.8v0.1v2.8h2.8V8.4z"/>
<path class="st2" d="M34.8,60.6v2.8v0.1v2.8v0.1v2.8v0.1v2.8l0,0h2.8l0,0v-2.8v-0.1v-2.8v-0.1v-2.8v-0.1v-2.8l0,0L34.8,60.6
	L34.8,60.6z"/>
<g>
	<polygon class="st3" points="402.4,17.2 402.4,54.8 405.3,54.8 405.3,57.7 390.8,57.7 390.8,55.1 390.1,55.1 390.1,54.8 
		385.1,54.8 385.1,51.9 382.2,51.9 382.2,48.9 379.2,48.9 379.2,43.2 376.3,43.2 376.3,28.8 379.2,28.8 379.2,25.8 390.1,25.8 
		390.1,25.8 379.2,25.8 379.2,22.9 382.2,22.9 382.2,20.1 385.1,20.1 385.1,17.2 390.8,17.2 390.8,14.3 405.3,14.3 405.3,17.2 	"/>
</g>
<g>
	<polygon class="st4" points="341.5,28.8 341.5,43.2 338.6,43.2 338.6,48.9 335.7,48.9 335.7,51.9 332.8,51.9 332.8,57.7 
		318.4,57.7 318.4,55.1 317.6,55.1 317.6,54.8 312.6,54.8 312.6,51.9 309.7,51.9 309.7,48.9 306.7,48.9 306.7,43.2 304,43.2 
		304,28.8 306.7,28.8 306.7,25.8 306.9,25.8 306.9,25.8 306.7,25.8 306.7,22.9 309.7,22.9 309.7,20.1 312.6,20.1 312.6,17.2 
		318.4,17.2 318.4,14.3 321.2,14.3 321.2,14.3 327.1,14.3 327.1,14.3 332.8,14.3 332.8,20 335.7,20 335.7,22.9 338.6,22.9 
		338.6,28.8 	"/>
</g>
<g>
	<polygon class="st5" points="280,34.6 280,34.6 279.3,34.6 279.3,34.6 278.6,34.6 278.6,34.6 278.6,34.6 278.6,34.6 277.9,34.6 
		277.9,34.6 277.9,34.6 277.9,37.5 280.7,37.5 280.7,37.4 280.9,37.4 280.9,34.6 	"/>
	<rect x="272.2" y="54.9" class="st5" width="2.8" height="2.8"/>
	<rect x="272.2" y="14.3" class="st5" width="2.8" height="2.8"/>
	<rect x="231.6" y="54.9" class="st5" width="2.8" height="2.8"/>
	<rect x="231.6" y="14.3" class="st5" width="2.8" height="2.8"/>
	<polygon class="st5" points="228.7,34.6 228,34.6 228,34.6 228,34.6 228,34.6 227.3,34.6 227.3,34.6 227.3,34.6 227.3,34.6 
		226.6,34.6 226.6,34.6 226.4,34.6 226.4,34.6 225.7,34.6 225.7,37.4 225.9,37.4 225.9,37.5 228.7,37.5 228.7,34.6 	"/>
	<polygon class="st5" points="254.7,10.7 254.7,10.7 254.7,9.8 254.7,9.8 254.7,9.1 254.7,9.1 254.7,8.4 251.9,8.4 251.9,9.1 
		251.9,9.1 251.9,9.8 251.9,9.8 251.9,10.7 251.9,10.7 251.9,11.4 254.7,11.4 	"/>
	<polygon class="st5" points="251.9,60.6 251.9,61.3 251.9,61.3 251.9,62 251.9,62.2 251.9,62.9 251.9,62.9 251.9,63.6 251.9,63.6 
		254.7,63.6 254.7,63.6 254.7,62.9 254.7,62.9 254.7,62.2 254.7,62 254.7,61.3 254.7,61.3 254.7,60.6 254.7,60.6 	"/>
	<polygon class="st5" points="272.1,28.8 272.1,43.2 269.3,43.2 269.3,48.9 266.4,48.9 266.4,51.9 263.5,51.9 263.5,54.8 
		260.5,54.8 260.5,57.7 246.1,57.7 246.1,55.1 245.4,55.1 245.4,54.8 240.4,54.8 240.4,51.9 237.4,51.9 237.4,48.9 234.5,48.9 
		234.5,43.2 231.6,43.2 231.6,28.8 234.5,28.8 234.5,25.8 234.5,25.8 234.5,25.8 234.5,25.8 234.5,22.9 237.4,22.9 237.4,20.1 
		240.4,20.1 240.4,17.2 246.1,17.2 246.1,14.3 251.9,14.3 251.9,14.3 257.7,14.3 257.7,14.3 260.5,14.3 260.5,17.2 263.5,17.2 
		263.5,20 266.4,20 266.4,22.9 269.3,22.9 269.3,28.8 	"/>
</g>
<polygon class="st0" points="466.1,25.8 466.1,25.8 469,25.8 469,22.9 471.8,22.9 471.8,20.1 474.7,20.1 474.7,17.2 477.6,17.2 
	477.6,14.3 463.2,14.3 463.2,17.2 457.5,17.2 457.5,20.1 454.5,20.1 454.5,22.9 451.6,22.9 451.6,24.6 451.6,25.8 451.6,25.8 
	451.6,28.8 448.7,28.8 448.7,43.2 451.6,43.2 451.6,48.9 454.5,48.9 454.5,51.9 457.5,51.9 457.5,54.8 463.2,54.8 463.2,57.7 
	477.6,57.7 477.6,54.8 474.7,54.8 474.7,51.9 471.8,51.9 471.8,48.9 469,48.9 469,46.2 466.1,46.2 466.1,29.3 "/>
</svg>
