<svg width="1680" height="1019" viewBox="0 0 1680 1019" fill="none" xmlns="http://www.w3.org/2000/svg">
<path d="M-27.994 377.238C-10.5998 365.4 -8.65749 371.62 42.0723 353.297C90.258 335.89 108.957 322.892 117.595 330.829C125.203 337.824 121.364 357.716 113.745 369.772C105.869 382.241 95.6905 383.573 88.3002 399.573C84.0961 408.683 86.2354 410.756 82.1402 416.023C73.595 427.018 58.3026 425.643 45.1136 428.67C29.4497 432.264 31.6185 438.979 -2.517 465.625C-39.1878 494.249 -48.7079 493.33 -53.2964 492.01C-66.3865 488.253 -71.9667 471.935 -72.8335 469.396C-83.2685 438.861 -59.0338 398.361 -27.994 377.238Z" stroke="black" stroke-miterlimit="10"/>
<path d="M-28.3842 390.879C-23.3301 386.554 -18.0865 382.069 -9.70137 378.603C6.76446 371.803 14.7882 377.438 30.4406 370.01C42.0775 364.49 45.5853 357.605 49.0094 359.356C53.7616 361.783 52.4864 377.865 45.6959 390.651C38.0584 405.029 29.7607 403.37 22.0316 418.34C16.03 429.964 19.7634 433.417 13.0789 442.715C9.18419 448.133 7.16009 448.012 -8.71682 459.665C-26.2381 472.528 -26.6649 474.797 -33.9134 477.462C-37.2059 478.671 -54.4697 485.019 -62.3643 478.18C-76.4006 466.023 -57.0857 415.442 -28.3842 390.879Z" stroke="black" stroke-miterlimit="10"/>
<path d="M839.983 55.0901C831.324 38.1512 810.139 32.4646 794.516 28.2668C782.813 25.1218 765.167 20.3875 744.436 27.5962C721.94 35.4219 710.099 52.3541 706.877 57.1018C696.4 72.5453 694.917 88.1699 692.38 118.795C689.118 158.145 687.491 177.82 697.652 192.559C705.058 203.302 715.68 209.364 722.691 228.1C725.011 234.296 725.459 237.938 729.281 241.512C731.758 243.825 739.923 250.109 766.84 243.524C776.263 241.217 786.272 237.757 810.33 225.418C841.182 209.592 844.701 205.039 857.774 203.959C863.223 203.51 877.424 202.336 891.38 209.994C904.631 217.264 905.89 226.042 916.42 228.1C928.524 230.467 939.667 221.381 945.413 216.7C961.702 203.423 967.191 185.579 972.429 167.748C977.385 150.876 982.281 134.212 978.36 112.76C976.251 101.226 972.238 79.2377 954.638 67.1605C936.781 54.9023 912.993 58.3625 898.628 60.4547C875.546 63.8143 870.953 65.1488 870.953 65.1488C860.726 68.1262 855.039 71.2645 849.208 68.5017C843.778 65.9267 842.658 60.3206 839.983 55.0901Z" stroke="black" stroke-miterlimit="10"/>
<path d="M857.774 221.37C852.977 218.118 847.02 226.439 827.463 234.781C809.981 242.232 801.349 241.293 789.903 251.546C784.493 256.388 781.91 260.639 781.337 261.605C775.782 270.946 776.494 278.765 775.407 289.099C772.876 313.112 764.527 313.494 766.181 327.322C767.868 341.377 778.49 357.612 789.903 357.498C800.967 357.391 809.81 341.94 812.966 332.016C816.742 320.126 812.735 315.01 817.579 296.475C819.714 288.301 820.781 284.217 824.168 279.71C831.034 270.57 837.465 272.629 847.231 262.946C855.804 254.443 858.446 245.31 859.092 242.828C859.533 241.152 863.652 225.36 857.774 221.37Z" stroke="black" stroke-miterlimit="10"/>
<path d="M861.727 254.227C857.385 254.16 858.057 267.679 845.254 277.697C839.192 282.445 835.765 281.975 830.757 287.756C824.833 294.603 823.324 302.536 822.85 305.191C820.643 317.59 826.316 320.5 823.509 330.003C820.544 340.048 812.88 341.295 813.625 347.438C814.442 354.157 824.642 361.091 832.734 359.508C841.254 357.838 841.149 347.961 854.479 340.732C858.485 338.559 863.724 335.723 868.976 337.379C877.937 340.209 879.749 353.882 881.496 353.473C884.586 352.749 877.041 310.401 876.224 305.862C869.127 266.358 865.826 254.287 861.727 254.227Z" stroke="black" stroke-miterlimit="10"/>
<path d="M833.393 384.902C802.711 376.685 795.777 357.049 780.469 360.376C763.729 364.008 754.676 391.258 753.654 394.333C748.832 408.853 751.838 415.048 752.948 456.593C754.098 499.64 751.246 507.003 757.185 522.62C762.673 537.05 774.355 555.094 784.706 552.802C793.947 550.761 793.302 534.479 807.284 524.499C819.283 515.94 832.256 519.015 835.512 519.779C853.926 524.14 856.099 540.089 868.676 539.585C885.887 538.902 897.582 508.433 899.022 504.684C905.889 486.793 905.243 469.854 904.665 454.687C904.174 441.804 903.79 431.788 899.022 420.73C891.745 403.863 879.571 396.905 876.444 395.259C871.279 392.544 870.223 393.533 848.923 388.66C842.278 387.159 835.969 385.594 833.393 384.902Z" stroke="black" stroke-miterlimit="10"/>
<path d="M826.347 547.066C825.81 547.139 824.168 547.48 821.812 550.681C817.512 556.521 818.955 560.84 816.711 567.413C813.428 577.033 805.854 580.931 807.184 582.898C807.785 583.787 809.433 583.154 816.385 581.995C827.065 580.209 829.24 580.688 830.406 581.051C831.754 581.473 832.61 582.021 838.518 588.227C846.871 597 851.048 601.384 852.889 604.152C855.394 607.918 855.994 609.687 857.403 609.616C860.704 609.441 863.42 599.451 864.837 594.239C866.597 587.768 866.229 585.869 868.565 582.012C870.664 578.55 872.032 578.321 873.448 575.002C874.072 573.543 876.236 568.492 874.058 563.993C871.726 559.165 865.922 558.111 864.921 557.927C857.616 556.597 855.293 561.918 848.219 560.911C843.362 560.221 839.553 557.017 835.92 553.954C831.26 550.029 829.438 546.637 826.347 547.066Z" stroke="black" stroke-miterlimit="10"/>
<path d="M752.253 643.428C756.837 641.254 756.029 642.312 762.139 639.693C768.89 636.801 772.263 635.361 775.641 632.715C782.94 627.007 785.879 619.36 786.82 616.825C787.452 615.12 788.064 609.394 789.258 598.024C790.245 588.627 790.372 586.551 788.997 584.087C786.201 579.084 780.034 577.617 777.961 577.126C769.816 575.192 767.1 579.399 762.416 576.651C758.566 574.391 759.013 570.731 752.907 566.61C750.671 565.099 749.296 564.175 747.988 564.668C745.645 565.558 745.654 570.214 744.913 583.308C744.377 592.729 744.114 597.434 743.647 600.325C742.071 610.107 740.285 610.604 740.469 616.858C740.677 623.915 742.995 624.434 742.182 630.47C741.577 634.956 739.918 637.524 741.244 641.329C741.537 642.173 742.495 644.913 744.814 645.702C746.857 646.4 748.656 645.137 752.253 643.428Z" stroke="black" stroke-miterlimit="10"/>
<path d="M750.646 640.593C753.894 641.375 756.544 639.045 763.334 634.102C774.518 625.96 774.075 627.374 776.911 624.369C782.333 618.621 784.73 612.599 785.645 609.939C788.671 601.156 787.521 594.373 787.09 592.273C786.495 589.376 785.9 586.479 784.054 585.955C781.115 585.119 775.902 590.524 773.662 596.496C770.765 604.216 774.819 607.595 771.581 614C769.129 618.858 764.454 621.562 761.545 623.245C755.191 626.925 751.03 626.32 747.865 630.872C747.179 631.856 745.567 634.249 746.262 636.707C746.845 638.776 748.857 640.16 750.646 640.593Z" stroke="black" stroke-miterlimit="10"/>
<path d="M751.454 622.766C755.873 623.672 759.66 620.284 762.333 617.897C763.679 616.692 766.345 614.254 767.833 610.276C769.371 606.165 767.96 604.926 768.593 600.066C769.787 590.929 775.782 587.54 773.861 583.369C773.028 581.563 771.051 580.347 769.298 580.131C765.601 579.672 763.986 583.764 760.865 583.541C756.312 583.218 755.298 574.208 752.452 574.471C750.109 574.688 748.099 581.038 747.794 586.467C747.361 594.271 750.733 595.195 749.329 600.727C748.13 605.465 745.125 606.853 744.671 612.723C744.46 615.402 744.952 616.887 745.336 617.747C746.426 620.18 748.751 622.212 751.454 622.766Z" stroke="black" stroke-miterlimit="10"/>
<path d="M828.419 556.033C826.407 556.305 825.099 558.522 824.713 559.182C822.318 563.252 824.938 565.989 823.275 570.656C821.703 575.07 817.866 576.799 818.391 577.666C819.124 578.865 825.372 573.755 831.343 575.723C833.189 576.334 834.948 578.198 838.387 581.899C844.294 588.265 844.884 590.562 847.371 590.717C851.454 590.972 855.098 585.123 855.416 584.597C858.472 579.574 856.43 576.183 859.776 572.548C862.293 569.812 865.054 569.988 865.14 568.468C865.25 566.508 860.779 564.033 856.243 563.867C850.281 563.649 848.982 567.594 844.36 566.81C841.115 566.26 838.429 563.742 834.154 559.744C831.789 557.527 830.39 555.763 828.419 556.033Z" stroke="black" stroke-miterlimit="10"/>
<path d="M830.428 302.846C828.827 304.797 828.056 307.211 827.792 311.563C827.133 322.393 830.863 324.123 829.11 329.669C827.561 334.557 824.405 334.028 821.862 341.069C820.867 343.811 819.832 346.829 821.203 349.786C822.376 352.321 825.051 354.239 827.792 354.48C832.319 354.876 835.989 350.604 838.994 347.104C842.44 343.087 841.794 341.974 844.924 339.057C848.549 335.677 852.548 334.249 854.15 333.692C860.489 331.493 863.935 332.854 864.693 331.01C865.925 328.006 857.813 321.897 857.444 321.622C852.772 318.148 851.639 319.369 848.219 316.257C844.233 312.623 841.735 307.278 840.971 305.528C839.409 301.94 839.33 300.157 837.676 299.493C835.357 298.567 832.161 300.74 830.428 302.846Z" stroke="black" stroke-miterlimit="10"/>
<path d="M848.549 230.088C844.971 233.193 842.296 232.616 835.37 234.782C828.227 237.015 824.656 238.135 822.191 240.817C817.552 245.867 820.952 250.501 816.92 263.617C814.581 271.215 811.701 275.326 812.966 276.358C813.559 276.841 814.785 276.439 822.85 270.994C829.578 266.447 830.711 265.381 835.37 262.276C842.757 257.354 843.31 257.756 846.572 254.9C849.109 252.673 852.641 249.508 855.138 244.17C858.677 236.606 857.385 230.564 857.115 229.418C856.786 227.989 856.1 225.052 854.479 224.723C852.72 224.368 851.6 227.446 848.549 230.088Z" stroke="black" stroke-miterlimit="10"/>
<path d="M961.227 885.246C961.379 881.591 961.913 873.276 957.933 871.163C954.882 869.547 951.798 872.961 942.118 877.869C928.998 884.528 925.473 882.925 915.101 889.94C912.525 891.683 910.528 893.339 906.535 896.645C893.383 907.542 894.463 909.42 888.744 912.739C878.207 918.862 873.055 913.356 864.363 920.116C861.115 922.644 859.125 926.05 855.138 932.857C850.446 940.877 846.328 947.911 844.595 957.668C843.382 964.482 841.208 976.693 846.572 984.492C857.214 999.969 885.403 980.368 931.575 990.527C954.473 995.563 967.843 1004.85 975.065 997.903C978.88 994.235 978.287 988.629 975.724 970.409C963.382 882.751 960.746 897.055 961.227 885.246Z" stroke="black" stroke-miterlimit="10"/>
<path d="M861.728 979.798C856.634 976.995 850.98 970.974 850.526 963.705C850.203 958.521 852.806 957.307 862.387 940.905C868.805 929.907 868.745 928.546 871.612 926.823C879.157 922.276 884.586 928.68 894.675 925.481C898.457 924.281 899.208 922.9 912.466 910.058C928.274 894.749 930.567 893.461 933.552 893.293C944.958 892.656 954.124 909.112 954.638 910.058C962.315 924.201 954.618 930.598 961.227 950.963C965.524 964.214 971.415 969.612 968.476 975.104C966.183 979.389 960.377 980.241 950.684 981.14C905.046 985.371 903.063 978.591 878.86 981.81C874.985 982.327 868.264 983.399 861.728 979.798Z" stroke="black" stroke-miterlimit="10"/>
<path d="M912.657 672.297C890.429 657.896 871.231 665.823 862.619 669.605C852.17 674.181 842.959 678.461 833.649 693.831C829.85 700.116 821.146 714.476 817.848 738.244C815.616 754.3 817.637 761.796 825.749 824.378C831.437 868.28 831.641 873.838 835.625 883.595C836.54 885.843 848.496 914.24 865.252 911.858C873.015 910.755 878.934 903.46 883.029 898.4C890.772 888.844 891.002 882.909 898.172 871.483C902.346 864.821 903.933 864.188 925.825 844.566C942.877 829.277 945.498 826.464 947.552 818.995C948.928 813.988 948.665 811.956 948.869 775.927C949.053 743.533 949.31 738.217 947.552 728.823C945.149 715.97 941.304 707.962 938.334 701.906C936.603 698.366 928.656 682.66 912.657 672.297Z" stroke="black" stroke-miterlimit="10"/>
<path d="M1159.31 228.311C1158.37 224.173 1157.51 222.557 1151.11 209.045C1141.03 187.721 1140.28 185.649 1136.7 182.463C1134.89 180.861 1126.36 173.283 1116.01 174.55C1114.39 174.752 1111.89 175.268 1098.9 184.623C1088.79 191.905 1083.65 195.64 1079.68 200.321C1075.71 204.995 1071.41 210.058 1069.5 218.044C1068.9 220.566 1065.86 233.32 1072.54 241.065C1076.8 246.008 1080.3 243.433 1087.94 249.153C1093.15 253.055 1092.39 254.906 1100.58 264.321C1107.59 272.382 1111.1 276.419 1116.16 277.78C1120.3 278.9 1124.76 277.733 1133.69 275.399C1141.84 273.274 1145.91 272.207 1149.35 269.498C1156.51 263.859 1158.51 255.416 1159.66 250.514C1162.01 240.616 1160.26 232.502 1159.31 228.311Z" stroke="black" stroke-miterlimit="10"/>
<path d="M1165.31 234.203C1164.38 214.166 1155.66 199.829 1151.67 193.431C1146.83 185.673 1142.47 178.86 1133.78 173.595C1130.23 171.443 1122.1 166.528 1111.91 167.332C1105.03 167.882 1102.72 170.605 1080.82 186.296C1065.46 197.301 1063.37 198.28 1060.75 202.92C1060.15 203.986 1052.65 217.78 1058.49 230.957C1061.2 237.059 1065.76 240.768 1068.92 243.336C1074.9 248.184 1077.27 247.507 1083.81 251.624C1087.62 254.018 1088.33 255.205 1102.37 270.005C1113.3 281.532 1115.16 283.236 1118.66 283.799C1121.01 284.181 1121.72 283.665 1135.75 278.568C1148.37 273.988 1150.51 273.412 1153.64 270.622C1157.91 266.8 1159.89 262.535 1161.37 259.249C1162.22 257.331 1165.99 248.627 1165.31 234.203Z" stroke="black" stroke-miterlimit="10"/>
<path d="M1284.72 33.9283C1303.39 52.7192 1324.82 59.6379 1334.49 62.6409C1346.22 66.2769 1356.62 69.383 1370.01 67.462C1375.48 66.6744 1387.99 64.8785 1397.51 55.8106C1403.94 49.6868 1403.85 45.1455 1411.97 12.0534C1417.66 -11.161 1418.91 -13.8181 1417.43 -20.4718C1417.09 -22.0028 1412.43 -41.5591 1394.91 -49.6776C1386.79 -53.4387 1378.93 -53.343 1373.48 -53.2768C1363.18 -53.1517 1361.4 -50.5682 1351.2 -49.2728C1345.25 -48.522 1343.49 -49.0961 1316.3 -52.1359C1295.12 -54.5059 1291.74 -54.6532 1287.73 -52.3641C1285.05 -50.8331 1284.78 -49.7512 1275.19 -33.3745C1266.57 -18.6538 1264.93 -16.3574 1264.25 -11.0948C1263.33 -3.889 1265.12 1.88148 1266.54 6.28296C1267.37 8.84435 1271.29 20.3927 1284.72 33.9283Z" stroke="black" stroke-miterlimit="10"/>
<path d="M935.529 902.68C931.114 904.739 929.071 903.726 925.645 904.692C922.185 905.671 921.757 907.415 912.466 917.433C905.87 924.541 905.666 924.112 905.218 925.48C903.182 931.69 909.171 934.942 915.102 949.621C919.161 959.666 918.66 963.851 923.668 967.727C925.737 969.329 929.526 971.482 934.211 971.75C941.071 972.139 943.403 968.122 948.049 969.739C952.622 971.328 952.602 975.995 956.615 976.444C959.844 976.806 963.692 974.211 964.522 971.08C965.465 967.505 961.913 965.366 958.592 959.009C954.757 951.653 954.322 944.578 953.979 938.892C953.393 929.202 955.712 928.169 953.979 920.786C952.681 915.267 950.421 911.747 948.049 908.045C943.443 900.87 940.8 900.675 940.142 900.669C938.553 900.642 938.007 901.52 935.529 902.68Z" stroke="black" stroke-miterlimit="10"/>
<path d="M899.287 931.517C895.531 929.331 893.521 932.403 886.767 931.517C881.14 930.78 879.525 928.252 876.224 929.506C874.412 930.196 873.456 931.537 871.611 934.2C867.519 940.107 868.468 942.341 865.022 947.611C862.38 951.648 861.365 951.038 858.433 955.658C856.258 959.092 854.4 962.015 854.479 965.046C854.657 971.967 864.864 976.782 866.999 977.787C876.87 982.441 881.785 979.383 907.853 979.129C916.946 979.041 925.19 979.323 925.644 977.117C926.079 975.018 918.838 973.69 915.101 966.388C913.863 963.96 914.897 964.57 912.466 955.658C910.462 948.309 908.986 945.09 907.853 942.917C907.227 941.717 906.146 939.779 904.558 937.553C902.153 934.173 900.954 932.483 899.287 931.517Z" stroke="black" stroke-miterlimit="10"/>
<path d="M932.234 925.482C931.701 925.71 929.632 926.615 928.281 928.835C925.902 932.745 928.716 935.809 930.258 947.611C930.758 951.454 930.725 953.164 932.234 954.988C934.303 957.496 938.33 959.078 940.801 957.67C944.412 955.611 943.594 947.799 943.436 946.27C943.067 942.75 942.033 941.523 942.777 938.894C943.575 936.084 945.235 935.802 945.413 933.529C945.69 929.989 941.934 927.172 941.46 926.823C941.242 926.662 936.821 923.544 932.234 925.482Z" stroke="black" stroke-miterlimit="10"/>
<path d="M872.936 949.231C872.593 949.064 871.249 948.42 869.569 948.708C866.623 949.218 866.366 951.987 861.299 957.935C859.645 959.873 858.802 960.604 858.578 962.167C858.261 964.313 859.256 967.028 861.029 967.659C863.612 968.577 867.058 964.742 867.73 963.991C869.279 962.261 869.424 961.201 871.032 960.423C872.745 959.598 873.615 960.309 874.794 959.397C876.639 957.982 876.363 954.857 876.323 954.468C876.303 954.287 875.888 950.693 872.936 949.231Z" stroke="black" stroke-miterlimit="10"/>
<path d="M906.045 611.254C902.959 613.403 899.561 610.548 894.596 611.548C885.901 613.297 884.318 624.461 884.236 625.113C884.072 626.418 883.753 628.95 885.077 629.742C886.497 630.589 888.464 628.633 893.698 626.809C896.115 625.966 898.871 625.007 902.452 624.882C907.475 624.708 908.482 626.369 912.736 625.983C913.833 625.881 918.228 625.48 921.05 622.445C924.684 618.535 923.142 613.021 922.35 610.201C921.565 607.403 920.653 604.138 918.03 603.129C914.917 601.928 911.053 604.544 909.238 606.462C907.074 608.742 907.856 609.993 906.045 611.254Z" stroke="black" stroke-miterlimit="10"/>
<path d="M915.227 645.829C911.515 645.227 911.057 640.813 906.794 638.08C899.329 633.291 890.428 640.214 889.916 640.626C888.891 641.449 886.901 643.048 887.302 644.538C887.733 646.133 890.508 646.095 895.537 648.424C897.861 649.498 900.508 650.726 903.169 653.125C906.9 656.493 906.469 658.387 909.794 661.067C910.654 661.756 914.091 664.524 918.23 664.305C923.56 664.021 926.286 658.986 927.677 656.409C929.059 653.852 930.674 650.871 929.49 648.322C928.088 645.295 923.491 644.488 920.853 644.604C917.713 644.739 917.405 646.181 915.227 645.829Z" stroke="black" stroke-miterlimit="10"/>
<path d="M1366.12 562.407C1331.94 565.765 1312.11 568.031 1292.23 585.323C1283.08 593.277 1271.57 606.454 1263.64 627.074C1258.16 641.301 1251.63 658.285 1256.06 680.659C1258.73 694.189 1265.58 705.106 1279.27 726.939C1297.05 755.296 1313.13 772.339 1321.9 780.966C1335.53 794.361 1342.34 801.058 1349.14 802.136C1356.17 803.258 1363.68 800.514 1390.95 761.112C1411.75 731.068 1412.6 725.107 1424.38 716.293C1439.04 705.31 1443.97 709.857 1453.09 699.21C1470.24 679.202 1467.79 645.687 1467.36 640.665C1466.87 634.867 1463.01 594.396 1438.77 571.754C1422.81 556.83 1403.92 558.693 1366.12 562.407Z" stroke="black" stroke-miterlimit="10"/>
<path d="M1412.82 843.267C1403.32 843.509 1399.08 848.289 1392.48 855.72C1384.77 864.395 1380.92 868.728 1382.08 877.616C1382.41 880.124 1385.28 887.381 1391.03 901.894C1394.54 910.748 1396.34 914.757 1399.33 919.74C1403.59 926.846 1407.67 933.644 1413.32 936.71C1421.48 941.141 1427.36 934.741 1427.69 934.371C1434.19 926.996 1424.97 915.793 1430.25 907.215C1434.51 900.279 1441.88 905.433 1446.46 897.311C1449.77 891.444 1448.62 883.961 1447.89 879.118C1446.71 871.422 1444.8 858.971 1435.65 850.669C1427.09 842.908 1417.06 843.16 1412.82 843.267Z" stroke="black" stroke-miterlimit="10"/>
<path d="M1727.82 556.605C1718.32 556.847 1714.08 561.626 1707.48 569.058C1699.77 577.732 1695.92 582.066 1697.08 590.954C1697.41 593.462 1700.28 600.719 1706.03 615.231C1709.54 624.086 1711.34 628.095 1714.33 633.078C1718.59 640.184 1722.67 646.982 1728.32 650.047C1736.48 654.479 1742.36 648.079 1742.69 647.709C1749.19 640.334 1739.97 629.131 1745.25 620.553C1749.51 613.617 1756.88 618.771 1761.46 610.648C1764.77 604.782 1763.62 597.299 1762.89 592.456C1761.71 584.76 1759.8 572.309 1750.65 564.007C1742.09 556.246 1732.06 556.498 1727.82 556.605Z" stroke="black" stroke-miterlimit="10"/>
<path d="M1409.36 809.016C1414.76 818.109 1421.16 818.571 1431.12 819.288C1442.73 820.12 1448.54 820.545 1455.49 812.55C1457.45 810.294 1462.06 801.884 1471.29 785.063C1476.93 774.803 1479.36 769.948 1481.97 763.178C1485.7 753.533 1489.27 744.3 1488.8 736.415C1488.1 725.014 1479.43 724.209 1478.93 724.17C1469.08 723.513 1464.57 741.162 1454.37 742.628C1446.11 743.81 1446.48 732.636 1437.04 734.426C1430.23 735.719 1424.47 742.612 1420.74 747.072C1414.82 754.16 1405.24 765.633 1403.17 780.984C1401.24 795.344 1406.94 804.948 1409.36 809.016Z" stroke="black" stroke-miterlimit="10"/>
<path d="M293.062 836.293C279.382 839.955 272.2 834.878 266.704 840.987C259.258 849.262 265.472 866.295 266.045 867.811C272.028 883.65 283.039 882.872 286.472 895.975C287.691 900.622 286.591 901.809 281.201 928.163C276.621 950.547 276.265 955.301 279.224 958.339C283.724 962.966 293.483 961.135 299.651 958.339C311.308 953.055 315.064 942.098 324.032 923.469C326.015 919.345 336.914 896.706 349.071 877.869C367.06 850 377.063 847.11 378.065 831.599C378.974 817.497 371.93 800.793 360.932 797.399C353.17 795.005 344.993 800.498 328.644 811.482C306.55 826.328 306.109 832.799 293.062 836.293Z" stroke="black" stroke-miterlimit="10"/>
<path d="M320.737 836.964C315.439 841.383 309.918 842.704 300.31 845.011C286.202 848.391 280.496 846.781 277.906 851.046C276.193 853.869 276.793 857.692 280.542 866.47C289.728 887.968 296.277 888.82 298.992 899.328C303.862 918.185 287.507 933.863 293.721 939.563C296.587 942.192 302.485 941.058 306.241 938.892C316.5 932.964 311.677 918.768 320.737 895.975C323.525 888.968 328.269 877.024 339.188 866.47C350.726 855.318 358.178 856.324 364.886 845.011C366.375 842.503 374.335 829.078 368.181 818.858C364.609 812.93 357.526 810.134 351.707 810.141C342.996 810.147 336.901 816.431 332.598 820.87C325.31 828.387 327.122 831.639 320.737 836.964Z" stroke="black" stroke-miterlimit="10"/>
<path d="M325.818 967.474C324.955 963.913 326.016 962.136 340.315 935.957C352.545 913.566 365.282 891.457 377.216 868.899C396.529 832.379 400.983 817.472 411.48 817.264C420.936 817.076 428.428 828.959 429.931 831.346C437.765 843.779 432.059 851.417 437.179 875.605C439.867 888.319 441.963 897.633 449.699 905.781C456.743 913.197 466.475 917.556 470.126 919.192C481.624 924.342 484.761 922.391 489.894 927.239C497.11 934.059 497.966 944.607 498.46 950.71C499.251 960.5 497.129 968.279 496.484 970.157C485.815 1001.21 334.543 1003.29 325.818 967.474Z" stroke="black" stroke-miterlimit="10"/>
<path d="M338.644 972.139C337.629 970.597 336.555 967.559 340.621 956.716C347.415 938.617 356.528 930.764 366.32 916.481C373.865 905.47 377.812 896.471 383.452 883.622C395.616 855.9 396.183 841.469 403.22 840.705C408.676 840.115 415.628 848.001 417.058 856.128C418.633 865.101 412.874 870.942 395.313 897.034C379.663 920.29 378.194 924.635 378.839 929.892C380.144 940.501 388.855 945.195 386.747 954.704C385.468 960.484 381.1 963.945 377.522 966.774C364.639 976.974 343.692 979.804 338.644 972.139Z" stroke="black" stroke-miterlimit="10"/>
<path d="M418.717 892.68C407.166 893.002 396.728 906.648 393.677 918.162C392.471 922.722 393.321 923.526 394.336 942.303C395.588 965.465 394.501 968.261 397.631 971.808C401.103 975.738 404.787 974.96 429.26 975.832C453.179 976.684 457.97 977.716 465.502 973.82C468.875 972.077 478.766 966.953 479.998 958.397C481.303 949.33 471.768 944.167 452.982 924.868C430.011 901.263 428.153 892.411 418.717 892.68Z" stroke="black" stroke-miterlimit="10"/>
<path d="M700.254 635.231C694.659 631.078 685.232 635.241 683.65 635.937C670.064 641.934 673.604 655.053 659.267 668.434C652.912 674.365 644.205 678.863 626.791 687.865C618.426 692.188 613.985 694.007 613.098 698.247C612.806 699.654 612.016 705.595 630.623 720.192C653.833 738.402 662.626 735.083 671.081 748.382C671.202 751.34 676.887 773.981 681.686 773.718C686.999 773.424 685.005 745.409 693.767 698.943C700.611 662.663 708.991 641.713 700.254 635.231Z" stroke="black" stroke-miterlimit="10"/>
<path d="M519.244 871.674C517.023 874.437 519.908 878.448 520.39 879.121C524.545 884.902 532.177 882.549 540.749 888.242C544.547 890.766 547.599 894.433 553.705 901.767C556.638 905.289 557.912 907.187 560.468 907.343C561.316 907.393 564.877 907.407 572.727 898.175C582.52 886.658 580.165 882.885 587.689 878.305C589.439 878.08 602.63 874.211 602.264 872.062C601.857 869.683 585.314 872.198 557.348 870.926C535.512 869.931 522.709 867.361 519.244 871.674Z" stroke="black" stroke-miterlimit="10"/>
<path d="M499.311 924.482C494.488 916.696 492.155 904.793 496.675 894.305C498.573 889.913 500.754 884.85 505.241 883.576C513.129 881.336 519.62 893.219 540.824 909.729C552.567 918.869 558.569 923.436 565.205 923.14C573.468 922.778 580.71 915.295 594.857 900.341C609.222 885.165 608.978 882.222 617.261 876.87C619.785 875.241 640.001 862.506 652.185 870.835C653.707 871.875 657.76 875.06 660.092 884.247C664.698 902.393 658.801 929.035 641.642 944.599C620.918 963.396 589.823 956.012 527.645 941.246C519.145 939.228 506.335 935.828 499.311 924.482Z" stroke="black" stroke-miterlimit="10"/>
<path d="M671.294 989.187C665.199 978.202 673.172 973.676 682.496 909.387C685.817 886.5 688.426 862.447 688.426 862.447C693.856 812.414 692.723 795.569 698.969 794.047C707.931 791.868 723.297 823.372 727.963 832.941C744.074 865.974 741.702 882.256 754.979 887.929C766.023 892.65 781.686 887.379 789.903 878.54C799.82 867.872 797.389 853.588 803.741 852.388C809.348 851.328 815.707 861.602 819.555 867.811C830.283 885.132 825.986 893.179 836.029 903.352C842.256 909.656 847.013 909.709 848.549 915.423C850.301 921.947 845.438 926.903 841.3 934.869C830.098 956.429 840.332 969.015 830.757 982.481C824.253 991.627 813.434 994.397 801.764 996.563C751.684 1005.84 687.174 1017.8 671.294 989.187Z" stroke="black" stroke-miterlimit="10"/>
<path d="M677.884 979.798C672.869 967.54 684.947 961.35 691.721 922.128C694.344 906.946 694.831 894.581 695.675 873.176C697.131 836.186 694.713 819.925 698.97 818.859C703.648 817.685 712.254 835.925 719.397 851.046C733.439 880.793 734.935 895.701 747.731 900.67C754.696 903.372 762.063 901.991 765.522 901.34C781.179 898.403 784.882 887.774 791.88 889.27C802.206 891.476 811.991 918.42 803.741 937.552C798.127 950.574 787.155 953.015 783.314 969.069C780.928 979.02 784.223 981.944 781.996 987.175C772.474 1009.53 689.791 1008.91 677.884 979.798Z" stroke="black" stroke-miterlimit="10"/>
<path d="M549.019 586.274C538.88 607.036 525.96 630.276 509.399 654.699C493.626 677.96 480.605 693.359 484.792 698.392C489.284 703.792 511.155 694.336 521.91 688.5C539.665 678.866 539.127 672.58 552.356 669.538C563.057 667.077 571.594 669.307 578.213 662.531C579.51 661.199 581.583 658.66 583.218 653.05C589.936 629.992 571.774 615.173 579.464 599.464C583.768 590.668 591.484 591.187 591.976 583.801C592.572 574.876 582.012 563.533 571.123 564.015C563.712 564.345 558.503 570.049 556.109 572.671C551.417 577.811 549.699 583.355 549.019 586.274Z" stroke="black" stroke-miterlimit="10"/>
<path d="M410.116 696.285C395.285 699.585 396.986 697.97 388.423 700.296C384.655 701.316 374.482 704.301 350.173 718.63C325.842 732.97 326.482 735.612 315.92 738.683C301.899 742.756 300.398 738.213 283.951 742.693C274.035 745.398 258.598 749.603 251.981 762.746C248.642 769.387 248.882 775.655 249.127 780.507C250.412 805.963 271.089 828.537 278.242 825.77C282.689 824.051 278.436 813.898 285.664 807.435C292.103 801.683 299.388 806.244 313.066 802.852C321.555 800.744 326.813 796.991 337.043 789.674C356.402 775.832 356.082 768.229 366.729 766.184C377.844 764.052 391.134 769.851 395.844 778.788C399.229 785.211 396.923 790.878 398.698 791.393C402.792 792.585 405.726 759.79 429.526 734.099C436.217 726.874 445.1 719.627 446.653 707.171C446.995 704.427 448.08 695.712 443.227 691.702C438.249 687.588 430.93 691.65 410.116 696.285Z" stroke="black" stroke-miterlimit="10"/>
<path d="M449.89 568.732C446.74 579.642 454.746 584.826 457.797 600.249C461.48 618.865 454.7 636.005 451.866 643.167C444.895 660.796 436.065 666 438.688 675.354C440.467 681.705 447.056 688.297 453.843 688.766C469.776 689.873 477.005 656.592 511.171 598.238C530.801 564.709 540.593 554.898 556.638 525.144C571.938 496.765 570.35 492.125 581.677 478.874C585.176 474.783 589.664 470.15 588.267 466.804C586.112 461.627 570.337 460.581 559.932 467.474C554.167 471.29 555.57 473.885 546.754 481.556C539.38 487.967 536.56 487.759 532.257 492.956C529.18 496.671 527.75 500.259 525.009 509.721C517.378 536.075 519.651 538.831 515.125 543.25C510.729 547.542 502.75 548.346 486.79 549.956C472.992 551.351 468.465 549.902 461.75 553.979C460.149 554.952 452.453 559.867 449.89 568.732Z" stroke="black" stroke-miterlimit="10"/>
<path d="M223.172 549.096C205.4 555.67 182.145 574.077 176.364 578.619C164.07 588.275 163.787 587.874 162.99 589.641C157.605 601.553 175.721 608.186 180.479 631.367C182.454 641.003 181.004 648.042 187.166 650.655C191.44 652.47 195.303 650.427 207.226 652.624C212.715 653.635 213.512 654.367 215.456 653.804C221.86 651.95 218.702 642.401 226.258 638.846C230.934 636.65 235.033 638.941 238.089 636.484C241.319 633.89 239.719 628.946 238.603 625.856C233.634 612.11 227.39 605.194 221.629 593.971C215.698 582.414 212.797 576.509 215.971 570.353C216.228 569.853 216.125 570.125 224.201 558.15C228.115 552.348 230.136 549.289 228.83 548.309C227.739 547.49 224.813 548.49 223.172 549.096Z" stroke="black" stroke-miterlimit="10"/>
<path d="M370.629 397.421C363.276 403.254 352.105 411.987 338.169 422.374C320.415 435.604 307.716 444.403 309.103 446.518C310.421 448.526 322 440.799 341.236 440.196C354.208 439.786 365.459 442.78 371.155 444.296C383.56 447.596 388.703 451.076 401.226 451.837C406.834 452.178 415.312 452.616 417.491 448.84C419.426 445.484 415.43 440.447 412.378 436.61C410.442 434.17 404.545 427.222 387.869 416.8C380.92 412.456 376.801 410.45 376.363 406.523C376.153 404.656 377.228 402.113 379.38 397.104C381.891 391.271 383.419 389.156 382.825 388.705C382.253 388.271 379.742 389.456 370.629 397.421Z" stroke="black" stroke-miterlimit="10"/>
<path d="M680.849 173.422C687.912 174.978 683.293 191.018 695.345 204.939C702.066 212.698 707.977 212.879 711.819 221.704C713.69 225.996 714.487 230.991 713.796 237.798C711.568 259.746 696.176 277.637 694.686 279.374C682.542 293.57 684.282 283.706 629.451 398.737C623.198 411.854 612.978 426.902 597.163 451.713C592.07 459.707 578.759 458.701 577.395 456.407C576.057 454.161 584.538 449.608 587.279 438.972C589.862 428.94 585.698 419.827 584.643 417.514C580.729 408.944 575.84 407.435 572.782 402.761C561.969 386.231 587.306 350.261 591.892 343.75C611.014 316.605 621.702 316.645 650.537 280.044C663.841 263.152 668.869 253.878 669.647 242.492C670.259 233.573 668.487 220.155 667.011 208.963C665.528 197.71 664.098 191.253 667.67 184.151C670.246 179.035 676.032 172.356 680.849 173.422Z" stroke="black" stroke-miterlimit="10"/>
<path d="M444.939 355.255C473.298 327.306 486.765 322.759 529.852 287.1C548.096 272.003 547.097 271.648 561.07 260.754C580.195 245.852 586.07 243.389 612.893 222.954C629.501 210.297 637.805 203.974 639.74 201.763C644.56 196.259 649.368 189.34 653.476 190.308C655.88 190.875 656.985 193.888 657.847 196.608C661.805 209.111 664.921 218.956 661.593 233.263C660.831 236.528 658.627 244.798 651.603 255.6C641.875 270.554 633.777 273.652 611.019 293.4C591.296 310.519 581.431 319.076 577.304 328.91C569.974 346.384 575.243 359.992 567.314 363.274C561.701 365.593 557.331 359.494 540.466 352.965C533.48 350.261 518.046 344.442 498.634 344.946C493.059 345.089 478.742 345.605 463.67 352.965C454.717 357.34 447.867 362.964 446.812 363.846C439.894 369.597 436.123 374.711 426.208 381.601C422.899 383.898 418.753 386.784 418.091 386.183C416.662 384.883 432.19 367.821 444.939 355.255Z" stroke="black" stroke-miterlimit="10"/>
<path d="M680.19 181.469C678.411 180.383 675.353 181.724 673.6 183.481C670.062 187.022 670.965 193.077 671.624 198.234C673.548 213.248 675.004 224.601 674.259 235.116C673.403 247.233 670.207 249.969 672.941 255.904C676.025 262.589 684.354 268.397 692.051 266.633C699.773 264.863 703.015 256.36 705.229 250.539C706.257 247.843 710.349 237.107 705.888 226.398C704.307 222.603 701.539 219.619 696.004 213.657C686.397 203.31 683.359 203.605 681.508 198.234C678.766 190.274 683.28 183.36 680.19 181.469Z" stroke="black" stroke-miterlimit="10"/>
<path d="M682.496 214.665C680.216 216.275 682.186 220.244 681.837 228.077C681.303 240.027 676.196 242.193 677.883 249.535C679.366 255.98 685.125 262.263 689.744 261.606C693.263 261.103 695.18 256.711 698.31 249.535C701.341 242.588 703.147 238.457 702.264 232.771C700.979 224.482 695.068 219.775 693.698 218.689C693.052 218.172 685.758 212.372 682.496 214.665Z" stroke="black" stroke-miterlimit="10"/>
<path d="M612.824 235.382C608.608 239.117 604.588 241.072 601.701 242.473C593.697 246.362 588.811 246.375 583.819 251.727C582.607 253.026 579.896 255.934 580.652 258.036C581.376 260.048 584.881 260.251 591.072 260.533C609.408 261.371 609.72 260.999 612.404 261.763C621.879 264.462 624.571 270.982 627.542 269.273C629.821 267.961 629.766 261.266 629.651 247.877C629.596 241.324 629.325 239.347 630.565 236.149C632.338 231.58 634.733 230.886 636.689 225.671C637.803 222.693 639.369 216.684 637.251 215.054C635.015 213.332 629.673 217.262 627.677 218.732C620.072 224.324 619.987 229.037 612.824 235.382Z" stroke="black" stroke-miterlimit="10"/>
<path d="M656.499 113.542C651.157 115.323 646.691 115.544 643.486 115.7C634.599 116.136 630.099 114.232 623.408 117.196C621.783 117.915 618.148 119.526 618.019 121.756C617.895 123.891 621.04 125.453 626.624 128.141C643.16 136.106 643.593 135.886 645.763 137.642C653.419 143.843 653.337 150.896 656.74 150.489C659.351 150.178 661.927 143.998 667.075 131.637C669.595 125.588 670.122 123.664 672.517 121.209C675.941 117.701 678.415 118.002 682.261 113.973C684.454 111.671 688.252 106.758 686.944 104.428C685.563 101.967 679.107 103.486 676.694 104.055C667.506 106.214 665.578 110.516 656.499 113.542Z" stroke="black" stroke-miterlimit="10"/>
<path d="M631.056 221.334C629.719 220.66 626.187 224.487 623.946 228.292C620.075 234.869 621.753 238.551 618.175 241.344C615.625 243.331 614.014 242.054 611.064 244.617C610.763 244.883 606.673 248.502 607.475 251.522C608.151 254.069 611.599 253.528 616.768 256.836C622.109 260.252 623.427 264.029 624.725 263.421C626.254 262.702 624.527 257.381 624.371 246.114C624.276 239.536 624.263 236.196 625.707 233.791C627.734 230.416 630.875 229.137 631.549 224.937C631.606 224.58 632.03 221.822 631.056 221.334Z" stroke="black" stroke-miterlimit="10"/>
<path d="M743.003 256.527C738.125 257 731.167 258.324 724.15 262.362C705.591 273.044 700.165 294.905 697.637 303.785C688.57 335.616 665.31 361.672 649.326 390.715C610.682 460.93 591.358 496.04 582.75 504.483C582.544 504.681 567.449 519.482 570.377 523.736C572.204 526.39 578.82 521.711 587.463 524.902C594.268 527.417 598.875 533.525 603.371 539.488C608.19 545.876 607.948 547.837 611.03 549.406C616.91 552.399 623.603 548.222 631.062 545.322C633.159 544.505 653.88 536.705 671.714 541.822C674.937 542.743 674 542.924 706.475 560.491C711.241 563.07 713.663 564.353 715.312 563.992C725.735 561.716 722.895 530.451 729.452 481.146C733.983 447.109 736.9 450.259 741.825 411.718C745.985 379.192 744.052 375.808 748.895 349.292C749.926 343.638 754.091 321.492 757.143 302.034C760.826 278.54 758.569 286.539 760.089 279.281C761.592 272.105 762.852 268.832 761.268 265.279C758.434 258.908 748.907 257.117 743.003 256.527Z" stroke="black" stroke-miterlimit="10"/>
<path d="M743.778 264.287C741.359 264.173 732.589 264.039 722.033 270.323C719.034 272.106 710.877 277.095 704.9 287.087C697.797 298.963 702.33 303.597 696.334 319.275C689.817 336.308 680.592 340.968 683.155 346.098C686.022 351.832 701.151 353.227 710.831 346.769C721.565 339.607 719.107 327.121 729.94 322.628C737.168 319.63 742.117 323.594 746.413 319.275C749.543 316.13 747.777 313.166 749.708 302.51C751.672 291.674 754.307 290.239 754.98 280.381C755.638 270.738 753.398 267.996 752.344 266.97C751.527 266.172 749.517 264.556 743.778 264.287Z" stroke="black" stroke-miterlimit="10"/>
<path d="M704.241 317.263C699.787 323.929 702.264 327.168 696.993 336.71C694.047 342.041 691.543 344.154 692.38 345.428C693.626 347.325 701.276 345.817 706.877 341.404C712.715 336.804 710.804 333.418 718.079 325.31C722.408 320.489 725.242 319.288 725.327 315.922C725.413 312.522 722.659 308.854 719.397 307.875C713.736 306.172 707.226 312.804 704.241 317.263Z" stroke="black" stroke-miterlimit="10"/>
<path d="M648.549 414.973C646.083 421.249 646.687 423.835 642.701 427.757C630.483 439.781 634.738 451.665 624.182 472.504C613.499 493.593 598.801 501.839 601.277 507.371C602.042 509.08 603.523 508.47 612.486 511.439C620.897 514.229 625.142 515.687 627.106 518.994C630.566 524.822 626.809 531.168 629.543 533.522C632.954 536.457 638.861 526.653 650.986 524.224C657.691 522.882 663.096 524.433 670.479 526.548C673.472 527.408 681.216 529.861 690.46 535.846C701.928 543.273 704.662 548.986 707.03 547.469C710.982 544.941 709.048 525.427 700.695 509.696C693.126 495.447 688.126 499.055 682.176 485.87C674.315 468.459 675.635 445.772 675.84 442.285C676.103 437.805 676.566 435.016 676.327 429.501C675.782 416.884 672.658 415.559 672.429 405.093C672.214 395.278 674.841 391.146 671.941 386.497C670.587 384.324 668.164 382.261 665.606 382.43C660.879 382.738 657.955 390.49 656.834 393.471C653.159 403.222 651.619 407.168 648.549 414.973Z" stroke="black" stroke-miterlimit="10"/>
<path d="M1494.02 591.863C1504.58 601.15 1509.87 603.479 1515.04 611.543C1530.89 636.257 1556.1 645.598 1589.77 678.621C1623.85 712.041 1631.03 734.829 1643.05 738.72C1646.76 739.921 1646.46 737.871 1657.38 732.907C1667.62 728.251 1672.89 725.959 1680.36 727.837C1693.53 731.149 1703.46 741.707 1709.56 741.81C1717.17 741.935 1701.87 725.531 1704.31 711.616C1705.67 703.922 1711.79 700.662 1720.15 696.203C1723.54 694.399 1732.75 689.983 1749.6 688.127C1770.5 685.827 1783.02 689.68 1781.5 685.798C1778.98 679.324 1740.54 659.319 1705.58 649.469C1673.92 640.548 1677.9 649.198 1649.21 639.97C1611.33 627.79 1568.73 601.234 1562.18 597.151C1553.77 591.904 1548.71 588.362 1538.03 582.424C1513.59 568.839 1509.23 570.245 1489.08 558.769C1470.19 548.006 1463.83 540.966 1453.25 538.453C1448.3 537.277 1442.94 537.211 1441.77 539.763C1439.59 544.474 1452.71 555.833 1457.75 560.197C1474.25 574.482 1480.89 580.311 1494.02 591.863Z" stroke="black" stroke-miterlimit="10"/>
<path d="M744.43 541.399C741.293 539.75 737.57 542.07 737.577 545.664C737.682 599.438 729.03 641.027 720.385 670.325C707.371 714.443 703.582 744.425 705.229 773.595C706.376 793.88 730.506 795.483 736.858 820.536C740.067 833.203 738.908 843.423 747.401 857.418C750.854 863.111 758.248 875.289 767.17 874.853C772.356 874.598 774.84 870.239 791.55 843.335C803.787 823.64 805.507 821.065 805.388 815.841C805.105 802.926 794.219 801.773 790.891 787.006C787.439 771.69 795.458 756.582 802.093 744.089C810.133 728.947 814.798 728.84 817.249 717.937C820.386 703.975 813.572 700.454 816.59 687.09C818.91 676.823 826.599 662.707 838.994 658.255C848.094 654.982 854.321 658.865 866.67 652.89C871.084 650.751 873.582 649.544 875.895 646.855C886.036 635.066 872.943 617.792 881.166 607.291C888.415 598.037 903.478 605.198 908.183 596.561C911.332 590.781 905.395 586.06 901.593 569.738C896.882 549.507 901.336 536.732 896.322 534.868C892.928 533.607 890.497 539.307 879.848 545.597C873.667 549.245 863.612 555.193 852.832 553.644C842.546 552.169 842.223 545.396 828.451 541.574C822.718 539.984 815.318 537.932 808.024 540.903C797.468 545.201 799.405 555.025 788.256 561.691C780.619 566.258 768.356 568.437 761.239 563.032C755.052 558.331 756.739 550.921 748.719 544.256C747.296 543.076 745.84 542.137 744.43 541.399Z" stroke="black" stroke-miterlimit="10"/>
<path d="M-50.9026 586.308C-42.5539 578.448 -30.6205 571.447 -25.8629 574.908C-20.0906 579.112 -30.2581 594.824 -22.5682 606.425C-16.8618 615.042 -3.76212 617.691 5.76614 616.484C22.3912 614.378 23.5443 601.107 43.9846 595.025C55.3118 591.652 56.5111 595.267 72.319 592.343C95.5071 588.058 108.244 577.449 109.22 578.931C110.92 581.52 66.8366 605.701 21.5807 651.354C9.05425 663.994 -4.34198 675.649 -31.1345 698.965C-50.3623 715.696 -59.0669 722.597 -66.0583 719.753C-76.3641 715.562 -76.1466 692.97 -75.9423 672.142C-75.6854 645.862 -75.3295 609.302 -50.9026 586.308Z" stroke="black" stroke-miterlimit="10"/>
<path d="M-22.7371 463.702C-24.3176 468.736 -30.7607 487.079 -20.3149 497.231C-15.5068 501.904 -7.52565 504.442 -0.331693 503.936C8.60626 503.307 14.4014 498.123 22.0737 491.041C33.6034 480.399 33.2462 475.37 42.0569 467.312C51.3946 458.775 61.9069 455.19 68.7012 452.869C100.626 441.964 147.52 446.818 160.14 467.312C166.692 477.949 160.309 486.801 165.59 489.493C176.532 495.069 210.261 460.313 244.917 429.141C299.15 380.364 331.111 351.616 379.955 325.459C405.182 311.949 431.088 294.101 482.899 258.4C489.487 253.861 504.396 243.446 501.671 238.283C497.759 230.881 459.295 237.53 455.044 238.283C431.058 242.533 424.59 248.042 413.26 244.473C403.069 241.259 393.768 232.217 393.883 223.324C394.04 210.789 412.818 203.98 410.838 200.111C407.096 192.802 358.761 206.817 358.761 206.817C188.037 256.327 60.2235 303.278 -39.087 336.291C-82.7171 350.796 -8.49454 418.417 -22.7371 463.702Z" stroke="black" stroke-miterlimit="10"/>
<path d="M-17.9155 412.292C-19.9797 415.974 -5.37453 418.101 -10.263 423.557C-15.5599 429.465 -4.5224 436.673 -2.94766 451.748C-1.00557 470.298 -15.5799 479.696 -7.80605 489.59C-7.41767 490.085 -2.37983 496.301 5.11264 496.324C18.1388 496.367 21.5181 477.644 45.3105 457.032C54.517 449.057 66.3817 438.779 85.1711 434.666C96.9304 432.092 107.497 433.469 128.629 436.222C159.225 440.206 165.056 446.56 166.77 448.707C171.654 454.835 169.727 460.232 172.817 461.013C179.164 462.617 195.79 441.978 208.738 417.495C245.295 348.379 217.958 314.007 254.48 285.495C262.633 279.13 287.248 262.691 301.445 253.427C320.612 240.926 330.379 235.25 329.075 232.952C326.547 228.49 284.649 240.988 278.098 242.959C208.571 263.883 197.079 279.891 128.515 307.882C31.2182 347.603 -17.4305 367.464 -21.4296 368.267C-24.2269 368.828 -34.1589 370.745 -36.0213 375.826C-40.8331 388.94 -13.408 404.249 -17.9155 412.292Z" stroke="black" stroke-miterlimit="10"/>
<path d="M503.923 -20.7101C502.237 -6.79548 530.406 -3.59009 551.367 38.3012C558.273 52.1017 560.671 62.6567 573.112 81.889C591.358 110.094 601.974 111.77 604.741 112.065C615.278 113.178 616.918 105.185 635.711 98.6535C659.341 90.4389 670.734 98.2177 677.883 89.2654C685.593 79.6023 674.239 68.1622 679.86 52.3834C686.661 33.2852 711.733 26.338 726.645 22.2072C734.605 20.001 768.158 11.2097 803.741 26.2307C824.774 35.1092 834.019 47.0389 839.983 42.9952C847.086 38.1872 842.954 15.1996 834.711 0.0779923C821.223 -24.6732 790.674 -39.4394 720.056 -46.8627C626.717 -56.6734 507.363 -49.0421 503.923 -20.7101Z" stroke="black" stroke-miterlimit="10"/>
<path d="M534.893 50.3717C553.238 68.0147 561.356 81.6476 572.453 100.665C578.495 111.026 579.115 113.48 578.383 116.089C575.359 126.912 553.871 123.774 518.42 134.865C490.474 143.609 479.048 153.306 474.271 148.277C469.349 143.093 474.792 125.772 485.473 116.089C495.331 107.15 503.185 110.59 507.218 103.348C512.351 94.1339 501.419 85.3358 498.652 61.7716C498.21 58.0298 495.351 33.6608 503.923 29.5837C510.183 26.6063 519.718 35.7798 534.893 50.3717Z" stroke="black" stroke-miterlimit="10"/>
<path d="M876.883 231.43C864.851 237.981 886.695 289.16 899.946 366.217C904.723 393.985 909.599 432.195 912.466 431.934C914.95 431.706 908.123 403.407 923.668 385.663C934.138 373.707 952.351 369.308 967.158 371.581C993.542 375.632 1005.86 400.356 1012.62 396.393C1020.33 391.88 1008.49 357.378 1006.69 352.134C991.611 308.191 977.385 309.499 963.204 268.982C957.438 252.506 954.954 238.477 945.413 236.124C935.997 233.797 930.409 245.492 916.419 243.5C908.453 242.367 906.983 238.109 893.357 234.112C884.085 231.396 879.446 230.035 876.883 231.43Z" stroke="black" stroke-miterlimit="10"/>
<path d="M884.131 255.57C876.224 276.398 893.561 298.252 902.582 342.075C905.547 356.479 906.693 368.804 909.83 368.898C913.046 368.992 914.225 356.097 924.327 336.04C930.541 323.708 934.092 316.881 941.459 313.911C952.187 309.579 961.208 317.364 964.522 313.24C967.876 309.062 958.17 301.646 952.661 281.723C949.175 269.116 950.269 261.974 943.436 254.899C941.413 252.807 937.743 249.005 932.234 248.194C920.768 246.51 915.194 259.801 905.876 257.582C898.463 255.818 896.73 246.155 891.38 246.852C887.235 247.396 884.863 253.639 884.131 255.57Z" stroke="black" stroke-miterlimit="10"/>
<path d="M915.703 456.516C927.646 482.179 925.411 517.01 932.395 517.021C934.704 517.024 934.404 513.209 939.966 509.04C947.642 503.285 955.091 505.4 956.215 501.778C957.104 498.92 952.626 497.076 949.48 490.262C947.265 485.461 944.977 476.594 948.303 472.404C952.2 467.499 961.385 472.023 977.839 473.529C987.91 474.452 1012.6 476.711 1017.5 467.185C1020.92 460.547 1010.67 456.044 998.674 427.756C994.202 417.215 990.72 406.281 983.066 404.908C981.053 404.546 980.518 405.164 974.513 405.644C972.684 405.79 964.176 406.467 958.351 405.568C945.172 403.531 943.239 393.029 935.486 394.341C929.297 395.39 923.714 403.233 923.551 410.027C923.379 417.373 929.593 421.375 927.392 425.457C925.859 428.301 922.358 427.25 917.526 431.803C917.373 431.945 914.709 434.487 913.331 437.295C909.843 444.405 914.39 453.697 915.703 456.516Z" stroke="black" stroke-miterlimit="10"/>
<path d="M1008.4 404.151C1005.45 405.073 1004.46 409.681 1004.3 410.432C1002.94 416.757 1006.42 422.607 1010.15 428.376C1019.49 442.803 1024.16 450.017 1028.59 453.498C1042.06 464.076 1061.41 467.835 1064.59 462.769C1067.16 458.672 1056.82 452.523 1054.93 436.451C1054.65 434.028 1054.38 429.88 1052.01 425.086C1050.99 423.029 1048.89 418.902 1044.69 416.413C1040.98 414.212 1039.65 415.672 1033.28 414.32C1023.58 412.262 1015.13 406.843 1015.13 406.843C1012.39 405.088 1010.5 403.494 1008.4 404.151Z" stroke="black" stroke-miterlimit="10"/>
<path d="M1195.59 852.003C1169.56 850.039 1156.54 849.055 1148.1 851.244C1130.19 855.886 1115.4 869.069 1114.09 882.016C1112.66 896.22 1128.46 900.145 1128.75 921.146C1128.84 928.052 1127.18 930.731 1130.51 934.822C1138.26 944.346 1160.49 946.014 1173.31 946.979C1202.69 949.186 1207.63 942.887 1230.18 946.599C1248.49 949.612 1249.36 954.444 1264.77 954.957C1277.34 955.375 1296.9 952.833 1305.23 943.56C1311.78 936.266 1308.62 927.885 1304.64 917.347C1302.47 911.58 1299.84 907.724 1294.67 900.251C1283.69 884.352 1278.19 876.401 1267.7 869.859C1255.27 862.105 1241.91 858.815 1234.28 856.942C1222.69 854.089 1213.49 853.356 1195.59 852.003Z" stroke="black" stroke-miterlimit="10"/>
<path d="M1280.81 980.469C1282.55 972.845 1299.99 976.432 1313.76 960.352C1316.18 957.529 1321.63 951.171 1323.64 941.575C1325.21 934.152 1323.61 930.015 1324.96 929.505C1328.76 928.057 1336.87 962.625 1364.5 991.869C1375.44 1003.45 1383.05 1007.44 1381.63 1011.99C1379.08 1020.11 1350.91 1019.44 1328.92 1013.33C1303.84 1006.36 1278.64 990.059 1280.81 980.469Z" stroke="black" stroke-miterlimit="10"/>
<path d="M987.585 985.832C976.462 972.481 985.944 964.105 975.724 908.045C968.621 869.064 961.735 860.494 963.863 834.951C964.706 824.873 967.935 786.126 988.903 779.293C1001.4 775.223 1016.37 783.719 1024.49 791.364C1040.3 806.264 1039.18 826.542 1046.89 826.904C1055.12 827.293 1057.8 804.219 1070.61 802.763C1077.04 802.033 1084.11 806.968 1087.08 812.822C1092.71 823.887 1080.58 832.101 1081.81 849.704C1082.93 865.684 1093.39 865.543 1098.29 885.916C1102.23 902.338 1096.08 905.081 1099.6 924.139C1101.48 934.251 1104.6 951.116 1116.74 959.68C1123.89 964.729 1130.09 964.012 1162.2 961.691C1204.7 958.62 1209.85 958.707 1216.9 960.35C1237.71 965.205 1260.29 980.179 1258.41 988.515C1255.67 1000.64 1203.68 987.75 1106.19 992.538C1033.84 996.092 1004.42 1006.04 987.585 985.832Z" stroke="black" stroke-miterlimit="10"/>
<path d="M1000.76 979.798C996.085 974.46 994.747 968.552 992.856 959.681C988.323 938.43 993.067 928.391 992.856 910.728C992.58 887.855 984.442 890.463 978.36 854.399C974.762 833.081 971.586 812.649 982.972 802.094C984.165 800.987 991.314 794.61 999.446 796.059C1012.4 798.365 1011.91 817.698 1032.39 832.941C1037.7 836.89 1045.18 842.295 1052.82 840.317C1062.94 837.702 1066.16 824.022 1068.63 824.894C1071.35 825.846 1072.79 844.079 1062.7 855.74C1049.95 870.486 1030.29 861.42 1021.85 874.517C1017.16 881.799 1022.44 885.836 1021.85 910.728C1021.31 933.649 1016.72 935.245 1019.21 944.928C1025.52 969.357 1058.45 973.428 1056.77 981.81C1055.03 990.568 1016.74 998.004 1000.76 979.798Z" stroke="black" stroke-miterlimit="10"/>
<path d="M938.856 648.361C928.754 653.65 941.221 669.122 945.424 686.001C950.033 704.504 947.233 724.282 954.38 724.131C959.866 724.013 959.144 713.469 972.291 706.533C982.835 700.97 999.69 699.107 1011.1 705.066C1025.73 712.702 1024.77 729.718 1033.19 729.997C1039.35 730.197 1040.34 721.139 1049.91 719.242C1060.05 717.233 1065.75 726.062 1076.18 724.62C1084.63 723.451 1086.41 716.896 1093.49 711.421C1109.61 698.956 1138.44 703.512 1169.92 708.488C1201.65 713.503 1218.37 725.822 1222.46 721.686C1224.15 719.98 1222.32 717.028 1211.11 700.667C1181.01 656.72 1187.59 668.345 1182.45 660.093C1175.13 648.317 1172.4 641.771 1168.12 642.006C1162.71 642.299 1164.06 652.961 1155.59 659.115C1143.47 667.914 1124.29 658.025 1085.73 653.738C1069.14 651.895 1077.74 654.286 1026.62 652.272C986.734 650.703 966.792 649.915 962.141 649.339C946.898 647.447 943.239 646.068 938.856 648.361Z" stroke="black" stroke-miterlimit="10"/>
<path d="M1488.54 161.938C1479.38 162.662 1435.07 166.156 1422.14 198.445C1417.04 211.152 1416.21 229.841 1425.94 242.696C1433.14 252.198 1443.47 255.008 1462.01 260.051C1475.83 263.813 1482.74 265.691 1488.15 262.378C1499.46 255.437 1491.32 237.459 1503.74 225.871C1513.19 217.06 1521.96 223.665 1533.49 214.418C1543.31 206.539 1550.35 190.981 1546.35 179.776C1538.72 158.444 1494.05 161.502 1488.54 161.938Z" stroke="black" stroke-miterlimit="10"/>
<path d="M1488.85 161.052C1478.16 161.897 1426.41 165.981 1411.31 203.688C1405.37 218.528 1404.38 240.355 1415.76 255.37C1424.16 266.468 1436.22 269.747 1457.88 275.635C1474.02 280.027 1482.09 282.227 1488.4 278.351C1501.61 270.243 1492.1 249.247 1506.61 235.715C1517.65 225.422 1527.9 233.14 1541.36 222.344C1552.82 213.143 1561.05 194.97 1556.37 181.887C1547.46 156.975 1495.3 160.55 1488.85 161.052Z" stroke="black" stroke-miterlimit="10"/>
<path d="M1495.11 149.612C1482.69 150.591 1422.61 155.332 1405.07 199.114C1398.16 216.348 1397.02 241.689 1410.23 259.125C1419.99 272.006 1433.99 275.815 1459.14 282.662C1477.89 287.765 1487.26 290.313 1494.59 285.814C1509.93 276.399 1498.89 252.016 1515.74 236.305C1528.55 224.355 1540.45 233.314 1556.08 220.774C1569.4 210.092 1578.96 188.988 1573.52 173.8C1563.16 144.878 1502.59 149.022 1495.11 149.612Z" stroke="black" stroke-miterlimit="10"/>
<path d="M1060.73 413.155C1039.81 360.702 1015.7 325.724 996.151 302.509C983.783 287.823 956.654 258.136 963.863 235.45C965.201 231.246 967.257 228.731 975.724 208.627C982.511 192.52 983.13 189.516 986.267 188.51C992.566 186.484 998.958 195.732 1025.14 224.05C1042.08 242.364 1048.45 248.272 1056.77 254.227C1067.33 261.777 1069.88 261.429 1081.15 268.309C1104.57 282.606 1106.07 291.766 1133.21 314.579C1156.56 334.207 1169.01 338.827 1167.48 344.085C1164.94 352.775 1130.81 340.531 1100.26 360.849C1091.81 366.475 1084.01 371.666 1079.84 381.637C1074.97 393.265 1077.81 404.799 1069.95 410.472C1066.78 412.759 1063.17 413.155 1060.73 413.155Z" stroke="black" stroke-miterlimit="10"/>
<path d="M1046.89 208.628C1031.83 215.502 1017.09 190.087 1014.6 187.84C1011.29 184.85 991.518 179.445 989.561 161.017C987.868 145.104 996.19 137.929 991.538 122.794C988.138 111.736 981.502 108.43 982.972 106.029C986.451 100.349 1021.55 122.009 1075.22 139.558C1097.28 146.774 1125.85 154.398 1125.3 156.994C1124.82 159.3 1102.61 151.676 1083.79 163.699C1078.68 166.965 1075.61 170.539 1069.95 177.111C1053.87 195.814 1055.69 204.612 1046.89 208.628Z" stroke="black" stroke-miterlimit="10"/>
<path d="M1300.86 831.968C1297.27 833.278 1282.31 793.748 1246.22 733.062C1225.11 697.56 1222.57 698.205 1200.93 660.531C1177.67 620.022 1166.04 599.77 1160.57 584.233C1153.36 563.778 1150.96 546.055 1137.43 534.78C1135.81 533.433 1131.72 530.244 1132.02 526.302C1132.69 517.306 1155.63 512.474 1157.12 512.173C1162.93 510.995 1170.89 510.18 1182.23 511.702C1208.4 515.215 1212.79 525.855 1226.53 523.005C1241.16 519.972 1249.6 505.127 1250.65 503.224C1257.69 490.446 1253.55 480.226 1258.53 478.262C1263.9 476.143 1270.96 487.145 1287.08 501.811C1308.83 521.606 1294.92 508.48 1311.32 526.302C1318.64 534.257 1335.17 552.234 1330.02 560.684C1325.8 567.612 1311.38 560.924 1283.26 563.98C1269.57 565.469 1268.85 579.137 1250.16 593.652C1244.32 598.188 1225.43 614.276 1223.08 637.924C1221.69 652.035 1227.08 659.787 1244.74 692.087C1263.67 726.69 1276.05 749.471 1286.09 775.451C1296.24 801.689 1303.88 830.866 1300.86 831.968Z" stroke="black" stroke-miterlimit="10"/>
<path d="M1189.26 523.977C1186.86 525.609 1194.39 534.741 1193.29 545.299C1192.03 557.396 1181 556.561 1179.12 567.96C1178.71 570.432 1178.8 573.091 1192.15 601.823C1199.18 616.951 1200.7 619.544 1203.02 619.904C1207.85 620.661 1209.78 610.655 1219.13 593.977C1226.46 580.886 1231.12 572.575 1239.51 566.228C1255.76 553.924 1273.74 558.281 1273.67 553.299C1273.6 548.35 1255.81 539.503 1238.61 537.139C1222.46 534.923 1214.82 539.522 1202.63 532.445C1195.54 528.33 1191.12 522.707 1189.26 523.977Z" stroke="black" stroke-miterlimit="10"/>
<path d="M1074.39 451.791C1075.18 454.58 1082.01 451.02 1088.77 455.87C1096.52 461.429 1094.69 471.221 1101.91 477.093C1103.47 478.365 1105.22 479.255 1125.52 477.51C1136.2 476.591 1138.07 476.146 1138.58 474.162C1139.63 470.012 1133.33 464.605 1123.54 449.976C1115.85 438.495 1110.97 431.205 1107.8 421.222C1101.66 401.876 1106.6 387.017 1103.34 385.263C1100.1 383.522 1092.26 396.568 1088.72 411.447C1085.39 425.41 1087.51 434.071 1081.47 442.642C1077.96 447.627 1073.78 449.623 1074.39 451.791Z" stroke="black" stroke-miterlimit="10"/>
<path d="M1444.24 951.45C1441.13 927.316 1469.23 885.955 1496.21 880.507C1521.91 875.313 1534.64 905.136 1559.08 892.554C1561.88 891.108 1564.24 889.421 1593.45 851.059C1623.5 811.598 1625.83 807.061 1633.69 802.871C1649.2 794.599 1670.49 796.044 1685.66 813.579C1707.76 839.119 1715.71 897.453 1705.78 932.71C1675.24 1041.21 1452.19 1013.28 1444.24 951.45Z" stroke="black" stroke-miterlimit="10"/>
<path d="M436.874 831.202C437.75 827.867 447.978 827.302 455.404 830.816C462.479 834.163 463.718 839.655 470.981 841.933C471.813 842.194 472.546 842.357 482.856 842.319C493.462 842.28 494.385 842.101 496.731 842.817C501.359 844.228 506.819 847.682 509.556 852.096C513.542 858.526 511.541 866.657 506.485 869.301C490.926 877.437 434.631 839.748 436.874 831.202Z" stroke="black" stroke-miterlimit="10"/>
<path d="M1521.13 655.411C1517.77 655.252 1510.35 655.005 1505.81 660.075C1501.11 665.332 1501.07 674.554 1504.01 681.066C1508.26 690.46 1516.33 688.897 1524.73 699.257C1531.88 708.069 1533.31 718.158 1533.74 721.181C1536.57 741.164 1524.31 753.296 1528.78 758.031C1532.58 762.047 1542.32 754.285 1561.66 748.235C1590.11 739.335 1604.53 745.026 1607.6 737.507C1609.55 732.74 1605.11 727.142 1578.77 699.257C1548.56 667.259 1536.97 656.166 1521.13 655.411Z" stroke="black" stroke-miterlimit="10"/>
<path d="M1159.41 180.877C1156.28 185.615 1169.63 194.752 1174.58 219.436C1176.33 228.165 1178.4 239.236 1173.41 251.569C1171.94 255.226 1165.47 269.797 1151.25 275.523C1144.62 278.187 1141.02 277.042 1140.16 279.028C1137.27 285.7 1174.18 306.908 1197.33 321.677C1203.72 325.755 1264.18 364.747 1315.76 418.076C1352.9 456.483 1377.35 529.502 1397.65 524.782C1401.97 523.783 1410.7 497.84 1426.69 479.875C1467.14 434.457 1465.03 427.285 1474.17 421.945C1503.32 404.897 1511.98 411.678 1529.86 394.122C1543.18 381.047 1543.54 356.422 1536.28 339.788C1528.51 322.004 1512.16 313.621 1503.61 309.408C1446.38 281.231 1402.91 274.857 1352.51 256.827C1340.79 252.632 1307.75 237.67 1241.67 207.751C1209.36 193.116 1164.83 172.68 1159.41 180.877Z" stroke="black" stroke-miterlimit="10"/>
<path d="M1688.2 285.256C1682.2 280.257 1665.72 275.073 1632.77 264.705C1619.82 260.63 1612.07 258.58 1609.01 261.108C1604.2 265.075 1618.15 274.359 1618.25 290.394C1618.34 306.389 1604.55 312.811 1609.67 321.736C1612.91 327.388 1620.53 328.451 1634.74 332.526C1676.68 344.554 1682.97 356.124 1692.82 352.564C1709.45 346.547 1712.86 305.777 1688.2 285.256Z" stroke="black" stroke-miterlimit="10"/>
<path d="M1356.59 95.3012C1347.3 108.163 1366.97 125.377 1360.54 153.642C1357.59 166.638 1352.49 167.154 1350 183.147C1347.7 197.954 1350.83 205.585 1345.39 210.641C1337.62 217.863 1322.37 210.521 1321.01 213.994C1319.58 217.622 1335.63 227.252 1338.14 228.747C1358.9 241.092 1382.14 254.913 1390.2 247.523C1398.08 240.281 1380.66 222.497 1386.9 194.547C1387.49 191.919 1392.42 171.198 1409.96 157.665C1431.95 140.713 1450.69 152.844 1467.29 135.536C1474.87 127.637 1481.43 114.198 1477.84 102.678C1472.81 86.5836 1450.37 81.8627 1440.94 79.8778C1426.56 76.8535 1410.7 80.3204 1378.99 87.2542C1360.75 91.2442 1358.4 92.7932 1356.59 95.3012Z" stroke="black" stroke-miterlimit="10"/>
<path d="M362.909 171.747C347.279 182.47 338.153 203.345 343.141 209.3C347.582 214.597 360.399 204.713 394.538 194.547C434.364 182.684 451.655 185.783 457.796 172.418C462.172 162.896 459.029 149.082 451.866 144.924C443.115 139.848 434.384 152.662 407.717 161.018C383.428 168.629 376.45 162.46 362.909 171.747Z" stroke="black" stroke-miterlimit="10"/>
<path d="M868.317 2.75967C863.237 10.1897 862.242 18.5653 861.728 22.8771C861.095 28.1747 858.967 46.0927 867.658 52.3827C873.931 56.9159 880.112 51.2696 899.946 48.3592C910.825 46.7633 924.393 44.7716 938.823 49.0298C949.083 52.0608 957.083 58.2034 973.088 70.4884C988.145 82.0493 987.328 83.4307 995.492 89.2647C1018.36 105.607 1030.12 98.559 1067.98 114.076C1087.28 121.989 1099.17 129.949 1100.92 127.488C1104.24 122.834 1060.65 95.7493 1066 72.5002C1067.51 65.9553 1076.23 59.6384 1093.67 47.0181C1116.28 30.6626 1124.39 29.3348 1129.92 18.183C1133.42 11.1017 1137.72 -3.63098 1131.23 -12.6637C1124.17 -22.5079 1107.84 -20.6503 1033.05 -9.31081C988.257 -2.51781 986.419 -2.01488 979.019 -2.60499C948.009 -5.06603 939.416 -17.1097 909.171 -14.6755C898.061 -13.7836 878.346 -11.9127 868.317 2.75967Z" stroke="black" stroke-miterlimit="10"/>
<path d="M1134.99 7.89886C1125.96 22.0658 1123.12 38.6908 1106.08 48.759C1096.06 54.6773 1087.38 54.6454 1084.1 62.8047C1080.42 71.9599 1086.79 83.3177 1091.04 90.896C1096.43 100.511 1102.09 106.136 1125.16 126.01C1140.27 139.022 1147.92 145.598 1152.92 148.994C1159.46 153.431 1187.85 172.706 1193.98 165.593C1198.98 159.79 1182.22 144.442 1186.46 122.18C1188.35 112.258 1194.68 99.566 1204.96 93.4498C1209.85 90.5449 1212.63 90.9024 1225.78 84.5116C1236.28 79.4105 1237.67 77.6484 1238.51 76.2119C1241.95 70.2616 1238.43 65.2754 1236.77 48.759C1235.5 36.086 1234.63 27.4606 1238.51 18.7523C1241.85 11.2443 1245.35 11.2379 1247.18 4.70666C1249.76 -4.54433 1245.75 -15.2701 1241.98 -20.1925C1226.26 -40.6864 1160.18 -31.6397 1134.99 7.89886Z" stroke="black" stroke-miterlimit="10"/>
<path d="M1693.31 161.018C1674.77 150.685 1643.38 149.605 1619.51 163.03C1613.32 166.51 1598.38 174.913 1589.86 191.865C1582.65 206.189 1586.38 213.994 1577.34 223.383C1570.36 230.625 1560.93 233.468 1547.68 237.465C1533.23 241.824 1529.12 240.281 1523.96 245.512C1518.11 251.44 1522.35 254.477 1514.74 268.312C1510.93 275.225 1506.95 279.792 1504.85 289.1C1504.04 292.734 1503.63 294.545 1504.19 296.476C1506.98 305.938 1528.33 307.105 1536.48 307.876C1541.61 308.359 1567.21 319.162 1618.19 340.734C1685.36 369.16 1686.75 370.743 1691.99 368.899C1737.08 353.013 1752.49 194.024 1693.31 161.018Z" stroke="black" stroke-miterlimit="10"/>
</svg>
