<?xml version="1.0" encoding="utf-8"?>
<!-- Generator: Adobe Illustrator 24.1.1, SVG Export Plug-In . SVG Version: 6.00 Build 0)  -->
<svg version="1.1" id="Слой_1" xmlns="http://www.w3.org/2000/svg" xmlns:xlink="http://www.w3.org/1999/xlink" x="0px" y="0px"
	 viewBox="0 0 1680 1050" style="enable-background:new 0 0 1680 1050;" xml:space="preserve">
<style type="text/css">
	.st0{fill:none;stroke:#000000;stroke-miterlimit:10;}
</style>
<path class="st0" d="M826.5,63.7c-22.5-16.4-49.7-12-52.4-11.6c-23.3,4.1-42.4,20.4-52.4,39.3c-9.9,18.8-8.1,37.9-4.4,76.3
	c4.2,43.8,6.4,65.8,21.1,75.5c16.2,10.7,38.6,2.1,66.2-8.5c42.5-16.3,54-36.3,77.1-30.8c18.4,4.3,20.2,19,34.2,17.7
	c25.8-2.4,39.6-54.7,41.5-61.6c5.2-19.5,9.7-36.8,1.5-52.4c-11.7-22-43.1-29.4-64.8-27.7c-20.2,1.6-29.3,10.9-44.4,4.6
	C838.6,79.8,838.9,72.7,826.5,63.7z"/>
<path class="st0" d="M-50.2,441.4c19.6-16.7,22.5-8.9,81-37c55.7-26.6,76.7-45,87.6-35.6c9.6,8.3,6.7,34.1-1.3,50.2
	c-8.3,16.7-20.2,19.3-27.7,40.5c-4.2,12.1-1.5,14.5-5.9,21.6c-9.2,14.9-27.5,14.5-42.8,19.5c-18.3,6-15.1,14.4-53.4,51.6
	c-41.1,40-52.4,39.7-58,38.4c-15.8-3.6-23.8-24-25-27.2C-110.6,525.3-85.2,471.3-50.2,441.4z"/>
<path class="st0" d="M-49.2,459.2c5.6-6,11.5-12.2,21.1-17.4c18.9-10.2,28.9-3.7,46.8-14.7c13.3-8.1,16.9-17.3,21.1-15.4
	c5.8,2.7,5.7,23.4-1.3,40.5c-7.8,19.1-17.8,17.8-25.7,37.7c-6.1,15.5-1.4,19.6-8.6,32.1c-4.2,7.3-6.6,7.3-24.4,23.7
	c-19.7,18.1-20,21-28.3,25.1c-3.8,1.8-23.7,11.6-33.6,3.5C-99.8,560-81.1,493.3-49.2,459.2z"/>
<path class="st0" d="M840,63.6c-8.7-17.6-29.8-23.5-45.5-27.9c-11.7-3.3-29.3-8.2-50.1-0.7c-22.5,8.1-34.3,25.8-37.6,30.7
	c-10.5,16.1-12,32.3-14.5,64.2c-3.3,40.9-4.9,61.4,5.3,76.8c7.4,11.2,18,17.5,25,37c2.3,6.4,2.8,10.2,6.6,14
	c2.5,2.4,10.6,8.9,37.6,2.1c9.4-2.4,19.4-6,43.5-18.8c30.9-16.5,34.4-21.2,47.4-22.3c5.5-0.5,19.6-1.7,33.6,6.3
	c13.3,7.6,14.5,16.7,25,18.8c12.1,2.5,23.2-7,29-11.9c16.3-13.8,21.8-32.4,27-50.9c5-17.6,9.9-34.9,5.9-57.2
	c-2.1-12-6.1-34.9-23.7-47.4c-17.9-12.8-41.6-9.2-56-7C875.5,72.6,871,74,871,74c-10.2,3.1-15.9,6.4-21.7,3.5
	C843.8,74.8,842.7,69,840,63.6z"/>
<path class="st0" d="M857.8,232.4c-4.8-3.4-10.8,5.3-30.3,14c-17.5,7.8-26.1,6.8-37.6,17.4c-5.4,5-8,9.5-8.6,10.5
	c-5.6,9.7-4.8,17.9-5.9,28.6c-2.5,25-10.9,25.4-9.2,39.8c1.7,14.6,12.3,31.5,23.7,31.4c11.1-0.1,19.9-16.2,23.1-26.5
	c3.8-12.4-0.2-17.7,4.6-37c2.1-8.5,3.2-12.8,6.6-17.4c6.9-9.5,13.3-7.4,23.1-17.4c8.6-8.8,11.2-18.4,11.9-20.9
	C859.5,253,863.7,236.6,857.8,232.4z"/>
<path class="st0" d="M861.7,266.6c-4.3-0.1-3.7,14-16.5,24.4c-6.1,4.9-9.5,4.5-14.5,10.5c-5.9,7.1-7.4,15.4-7.9,18.1
	c-2.2,12.9,3.5,15.9,0.7,25.8c-3,10.5-10.6,11.8-9.9,18.1c0.8,7,11,14.2,19.1,12.6c8.5-1.7,8.4-12,21.7-19.5c4-2.3,9.2-5.2,14.5-3.5
	c9,2.9,10.8,17.2,12.5,16.7c3.1-0.8-4.5-44.8-5.3-49.5C869.1,279.2,865.8,266.7,861.7,266.6z"/>
<path class="st0" d="M834.8,446.8c-30.1-6.4-36.9-21.6-51.9-19c-16.4,2.8-25.3,24-26.3,26.4c-4.7,11.3-1.8,16.1-0.7,48.3
	c1.1,33.4-1.7,39.1,4.2,51.2c5.4,11.2,16.8,25.2,27,23.4c9.1-1.6,8.4-14.2,22.1-22c11.8-6.6,24.5-4.3,27.7-3.7
	c18,3.4,20.2,15.8,32.5,15.4c16.9-0.5,28.3-24.2,29.7-27.1c6.7-13.9,6.1-27,5.5-38.8c-0.5-10-0.9-17.8-5.5-26.4
	c-7.1-13.1-19.1-18.5-22.1-19.8c-5.1-2.1-6.1-1.3-27-5.1C843.5,448.5,837.4,447.3,834.8,446.8z"/>
<path class="st0" d="M764.9,367.1c-2.8,0.7-3,9.8-3.3,16c-1.5,30.1-8.1,46.4-4,48.1c1.6,0.7,2.7-1.6,9.2-5.6
	c5.2-3.2,10.7-6.5,15.8-7c7.7-0.7,10.1,5.6,26.4,15.4c8.8,5.2,16.4,9.8,19.8,7c1.4-1.2,1.4-3.2-0.7-22.3
	c-1.2-11.7-1.4-13.3-1.3-16.7c0.4-9.5,2.5-10.6,1.3-15.4c-1.9-7.6-9.6-14.3-16.5-14c-3.9,0.2-4,2.5-11.2,5.6
	c-4.9,2.1-10.9,4.6-17.1,2.8c-4-1.2-7-3.9-10.5-7C767.8,369.6,766.5,366.7,764.9,367.1z"/>
<path class="st0" d="M862.7,360.5c-3.9,1.4-6.7,3.5-13.2,9.8c-6.9,6.7-10.4,10-11.9,12.6c-4,6.7-4.8,13.2-5.3,16.7
	c-0.4,3.6-0.2,4.9,1.3,20.2c1.5,15.2,1.6,17.5,4,20.2c3.3,3.9,8.1,4.7,12.5,5.6c9.1,1.7,10.3-1.9,17.8,0c6.9,1.8,13.6,6.8,15.8,8.4
	c4.1,3,5.3,4.7,6.6,4.2c2.3-1,1.4-8.8-0.7-24.4c-3.5-27.3-4-30-4.6-33.5c-2.9-15.9-2-5.4-7.2-27.9c-1.2-5-2.4-10.7-6.6-12.6
	C868.4,358.5,865.4,359.5,862.7,360.5z"/>
<path class="st0" d="M768.5,379.3c-0.5,0.2-2,1-3.3,4.9c-2.4,7,0.2,10.9,0,18.1c-0.3,10.5-6.5,16.6-4.6,18.1
	c0.8,0.7,2.2-0.4,8.6-3.5c9.7-4.8,12-4.9,13.2-4.9c1.4,0,2.4,0.3,9.9,4.9c10.6,6.4,15.9,9.6,18.5,11.9c3.5,3.1,4.6,4.7,5.9,4.2
	c3.1-1.1,2.8-11.8,2.6-17.4c-0.2-7-1.1-8.8,0-13.3c1-4,2.2-4.7,2.6-8.4c0.2-1.6,0.8-7.3-2.6-11.2c-3.6-4.2-9.5-3.6-10.5-3.5
	c-7.4,0.7-8.1,6.7-15.2,7.7c-4.9,0.7-9.5-1.5-13.8-3.5C774.1,380.9,771.3,378,768.5,379.3z"/>
<path class="st0" d="M861.4,367.4c-3.9,3.4-3.4,2.1-8.6,6.3c-5.8,4.6-8.6,6.9-11.2,10.5c-5.5,7.6-6.4,16-6.6,18.8
	c-0.2,1.9,0.8,7.8,2.6,19.5c1.5,9.7,2,11.8,4,14c4,4.3,10.4,4.2,12.5,4.2c8.4-0.1,9.9-5.1,15.2-3.5c4.3,1.3,4.9,5.1,11.9,7.7
	c2.6,0.9,4.1,1.5,5.3,0.7c2-1.5,0.8-6.2-2-19.5c-2-9.6-3-14.4-3.3-17.4c-1.1-10.2,0.5-11.2-1.3-17.4c-2.1-7-4.5-7-5.3-13.3
	c-0.6-4.7,0.3-7.7-2-11.2c-0.5-0.8-2.2-3.3-4.6-3.5C865.8,363.1,864.4,364.8,861.4,367.4z"/>
<path class="st0" d="M863.7,369.9c-3.3,0-5.3,3.1-10.5,9.8c-8.7,11-8.6,9.5-10.5,13.3c-3.7,7.2-4.4,13.8-4.6,16.7
	c-0.6,9.6,2.3,16.1,3.3,18.1c1.3,2.8,2.7,5.5,4.6,5.6c3.1,0.1,6.7-6.7,7.2-13.3c0.8-8.5-4.1-10.9-2.6-18.1c1.1-5.5,4.9-9.4,7.2-11.9
	c5.2-5.3,9.4-5.8,11.2-11.2c0.4-1.2,1.3-4,0-6.3C867.9,370.7,865.5,369.9,863.7,369.9z"/>
<path class="st0" d="M867.7,388c-4.5,0.2-7.3,4.6-9.2,7.7c-1,1.6-2.9,4.7-3.3,9.1c-0.4,4.5,1.3,5.4,2,10.5
	c1.3,9.5-3.6,14.4-0.7,18.1c1.3,1.6,3.5,2.3,5.3,2.1c3.7-0.5,4.2-5,7.2-5.6c4.5-0.8,7.9,8,10.5,7c2.2-0.8,2.5-7.7,1.3-13.3
	c-1.7-8-5.2-8-5.3-14c-0.1-5.1,2.4-7.2,1.3-13.3c-0.5-2.7-1.4-4.1-2-4.9C873.2,389.3,870.4,387.9,867.7,388z"/>
<path class="st0" d="M773.1,387.7c-1.9,0.8-2.5,3.4-2.6,4.2c-1.1,4.7,2.2,6.7,2,11.9c-0.2,4.9-3.4,7.7-2.6,8.4
	c1.1,1,5.6-5.9,11.9-5.6c2,0.1,4.2,1.5,8.6,4.2c7.5,4.7,8.8,6.8,11.2,6.3c4-0.9,5.8-7.8,5.9-8.4c1.5-5.9-1.5-8.7,0.7-13.3
	c1.6-3.4,4.3-4,4-5.6c-0.5-2-5.5-3.2-9.9-2.1c-5.8,1.5-5.9,5.8-10.5,6.3c-3.3,0.4-6.6-1.4-11.9-4.2
	C776.8,388.2,774.9,386.9,773.1,387.7z"/>
<path class="st0" d="M830.4,317.2c-1.6,2-2.4,4.5-2.6,9.1c-0.7,11.3,3.1,13.1,1.3,18.8c-1.5,5.1-4.7,4.5-7.2,11.9
	c-1,2.9-2,6-0.7,9.1c1.2,2.6,3.8,4.6,6.6,4.9c4.5,0.4,8.2-4,11.2-7.7c3.4-4.2,2.8-5.3,5.9-8.4c3.6-3.5,7.6-5,9.2-5.6
	c6.3-2.3,9.8-0.9,10.5-2.8c1.2-3.1-6.9-9.5-7.2-9.8c-4.7-3.6-5.8-2.3-9.2-5.6c-4-3.8-6.5-9.3-7.2-11.2c-1.6-3.7-1.6-5.6-3.3-6.3
	C835.4,312.7,832.2,315,830.4,317.2z"/>
<path class="st0" d="M848.5,241.5c-3.6,3.2-6.3,2.6-13.2,4.9c-7.1,2.3-10.7,3.5-13.2,6.3c-4.6,5.3-1.2,10.1-5.3,23.7
	c-2.3,7.9-5.2,12.2-4,13.3c0.6,0.5,1.8,0.1,9.9-5.6c6.7-4.7,7.9-5.8,12.5-9.1c7.4-5.1,7.9-4.7,11.2-7.7c2.5-2.3,6.1-5.6,8.6-11.2
	c3.5-7.9,2.2-14.2,2-15.4c-0.3-1.5-1-4.5-2.6-4.9C852.7,235.5,851.6,238.7,848.5,241.5z"/>
<path class="st0" d="M894.7,641.3c-14.5,12.7-4.5,30.4-16.5,65.6c-5.5,16-10.6,21.3-8.6,32.1c1.3,7,6.2,13.1,15.8,25.1
	c14.7,18.3,17.8,17.4,25,29.3c6.6,10.9,5.5,14.2,12.5,23c4.5,5.7,15.8,18,21.1,15.4c4.8-2.5,2.2-18.2-3.3-49.5
	c-5.9-33.5-15.4-66.5-18.5-100.5c-2.1-24.1-1.4-42.3-10.5-46.1C904.7,632.8,895.8,640.3,894.7,641.3z"/>
<path class="st0" d="M961.2,923.2c0.2-3.8,0.7-12.5-3.3-14.7c-3.1-1.7-6.1,1.9-15.8,7c-13.1,6.9-16.6,5.3-27,12.6
	c-2.6,1.8-4.6,3.5-8.6,7c-13.2,11.3-12.1,13.3-17.8,16.7c-10.5,6.4-15.7,0.6-24.4,7.7c-3.2,2.6-5.2,6.2-9.2,13.3
	c-4.7,8.3-8.8,15.7-10.5,25.8c-1.2,7.1-3.4,19.8,2,27.9c10.6,16.1,38.8-4.3,85,6.3c22.9,5.2,36.3,14.9,43.5,7.7
	c3.8-3.8,3.2-9.6,0.7-28.6C963.4,920.6,960.7,935.5,961.2,923.2z"/>
<path class="st0" d="M861.7,1021.6c-5.1-2.9-10.7-9.2-11.2-16.7c-0.3-5.4,2.3-6.7,11.9-23.7c6.4-11.4,6.4-12.9,9.2-14.7
	c7.5-4.7,13,1.9,23.1-1.4c3.8-1.2,4.5-2.7,17.8-16c15.8-15.9,18.1-17.3,21.1-17.4c11.4-0.7,20.6,16.5,21.1,17.4
	c7.7,14.7,0,21.4,6.6,42.6c4.3,13.8,10.2,19.4,7.2,25.1c-2.3,4.5-8.1,5.3-17.8,6.3c-45.6,4.4-47.6-2.7-71.8,0.7
	C875,1024.2,868.3,1025.4,861.7,1021.6z"/>
<path class="st0" d="M917.1,826.2c-22.2-7.5-41.5-3.4-50.1-1.4c-10.5,2.4-19.7,4.6-29,12.6c-3.8,3.3-12.5,10.7-15.8,23
	c-2.2,8.3-0.2,12.2,7.9,44.7c5.7,22.8,5.9,25.6,9.9,30.7c0.9,1.2,12.9,15.9,29.7,14.7c7.8-0.6,13.7-4.4,17.8-7c7.7-5,8-8,15.2-14
	c4.2-3.5,5.8-3.8,27.7-14c17.1-7.9,19.7-9.4,21.7-13.3c1.4-2.6,1.1-3.6,1.3-22.3c0.2-16.8,0.4-19.6-1.3-24.4
	c-2.4-6.7-6.3-10.8-9.2-14C941,839.7,933.1,831.6,917.1,826.2z"/>
<path class="st0" d="M1159.3,239.6c-0.9-4.3-1.8-6-8.2-20c-10.1-22.2-10.8-24.3-14.4-27.7c-1.8-1.7-10.3-9.6-20.7-8.2
	c-1.6,0.2-4.1,0.7-17.1,10.5c-10.1,7.6-15.3,11.5-19.2,16.3c-4,4.9-8.3,10.1-10.2,18.4c-0.6,2.6-3.6,15.9,3,24
	c4.3,5.1,7.8,2.5,15.4,8.4c5.2,4.1,4.5,6,12.6,15.8c7,8.4,10.5,12.6,15.6,14c4.1,1.2,8.6,0,17.5-2.5c8.2-2.2,12.2-3.3,15.7-6.1
	c7.2-5.9,9.2-14.7,10.3-19.8C1162,252.4,1160.3,244,1159.3,239.6z"/>
<path class="st0" d="M1165.3,245.8c-0.9-20.8-9.7-35.8-13.6-42.4c-4.8-8.1-9.2-15.2-17.9-20.6c-3.6-2.2-11.7-7.4-21.9-6.5
	c-6.9,0.6-9.2,3.4-31.1,19.7c-15.4,11.4-17.4,12.5-20.1,17.3c-0.6,1.1-8.1,15.5-2.3,29.2c2.7,6.3,7.3,10.2,10.4,12.9
	c6,5,8.3,4.3,14.9,8.6c3.8,2.5,4.5,3.7,18.6,19.1c10.9,12,12.8,13.8,16.3,14.4c2.3,0.4,3.1-0.1,17.1-5.4c12.6-4.8,14.8-5.4,17.9-8.3
	c4.3-4,6.3-8.4,7.7-11.8C1162.2,269.8,1166,260.8,1165.3,245.8z"/>
<path class="st0" d="M1239.8,185.8c13.5,15.2,29.3,20.5,36.4,22.8c8.6,2.8,16.3,5.2,26.3,3.3c4.1-0.7,13.4-2.5,20.6-10.1
	c4.9-5.2,4.9-8.9,11.5-36.4c4.6-19.3,5.6-21.5,4.6-27c-0.2-1.3-3.3-17.3-16.2-23.7c-6-3-11.8-2.7-15.8-2.6c-7.7,0.3-9,2.5-16.6,3.7
	c-4.4,0.7-5.7,0.3-25.8-1.7c-15.7-1.6-18.2-1.6-21.2,0.3c-2,1.3-2.2,2.2-9.6,15.9c-6.7,12.3-7.9,14.2-8.5,18.6
	c-0.8,6,0.4,10.7,1.4,14.3C1227.4,165.4,1230.1,174.8,1239.8,185.8z"/>
<path class="st0" d="M1234.8,188.3c16.3,17.8,35.1,24.4,43.6,27.2c10.3,3.4,19.4,6.4,31.1,4.6c4.8-0.7,15.8-2.4,24.1-11
	c5.6-5.8,5.6-10.1,12.7-41.5c5-22,6.1-24.5,4.8-30.8c-0.3-1.5-4.4-20-19.7-27.7c-7.1-3.6-14-3.5-18.8-3.4c-9,0.1-10.6,2.6-19.5,3.8
	c-5.2,0.7-6.8,0.2-30.6-2.7c-18.6-2.2-21.5-2.4-25-0.2c-2.4,1.5-2.6,2.5-11,18c-7.6,14-9,16.1-9.6,21.1c-0.8,6.8,0.8,12.3,2,16.5
	C1219.7,164.5,1223.1,175.5,1234.8,188.3z"/>
<path class="st0" d="M935.5,941.4c-4.4,2.1-6.5,1.1-9.9,2.1c-3.5,1-3.9,2.8-13.2,13.3c-6.6,7.4-6.8,7-7.2,8.4c-2,6.5,4,9.8,9.9,25.1
	c4.1,10.4,3.6,14.8,8.6,18.8c2.1,1.7,5.9,3.9,10.5,4.2c6.9,0.4,9.2-3.8,13.8-2.1c4.6,1.7,4.6,6.5,8.6,7c3.2,0.4,7.1-2.3,7.9-5.6
	c0.9-3.7-2.6-5.9-5.9-12.6c-3.8-7.7-4.3-15-4.6-20.9c-0.6-10.1,1.7-11.2,0-18.8c-1.3-5.7-3.6-9.4-5.9-13.3c-4.6-7.5-7.2-7.7-7.9-7.7
	C938.6,939.2,938,940.2,935.5,941.4z"/>
<path class="st0" d="M899.3,971.4c-3.8-2.3-5.8,0.9-12.5,0c-5.6-0.8-7.2-3.4-10.5-2.1c-1.8,0.7-2.8,2.1-4.6,4.9
	c-4.1,6.1-3.1,8.5-6.6,14c-2.6,4.2-3.7,3.6-6.6,8.4c-2.2,3.6-4,6.6-4,9.8c0.2,7.2,10.4,12.2,12.5,13.3c9.9,4.8,14.8,1.7,40.9,1.4
	c9.1-0.1,17.3,0.2,17.8-2.1c0.4-2.2-6.8-3.6-10.5-11.2c-1.2-2.5-0.2-1.9-2.6-11.2c-2-7.6-3.5-11-4.6-13.3c-0.6-1.2-1.7-3.3-3.3-5.6
	C902.2,974.1,901,972.4,899.3,971.4z"/>
<path class="st0" d="M932.2,965.1c-0.5,0.2-2.6,1.2-4,3.5c-2.4,4.1,0.4,7.3,2,19.5c0.5,4,0.5,5.8,2,7.7c2.1,2.6,6.1,4.3,8.6,2.8
	c3.6-2.1,2.8-10.3,2.6-11.9c-0.4-3.7-1.4-4.9-0.7-7.7c0.8-2.9,2.5-3.2,2.6-5.6c0.3-3.7-3.5-6.6-4-7
	C941.2,966.3,936.8,963.1,932.2,965.1z"/>
<path class="st0" d="M872.9,989.8c-0.3-0.2-1.7-0.8-3.4-0.5c-2.9,0.5-3.2,3.4-8.3,9.6c-1.7,2-2.5,2.8-2.7,4.4
	c-0.3,2.2,0.7,5.1,2.5,5.7c2.6,1,6-3,6.7-3.8c1.5-1.8,1.7-2.9,3.3-3.7c1.7-0.9,2.6-0.1,3.8-1.1c1.8-1.5,1.6-4.7,1.5-5.1
	C876.3,995.1,875.9,991.3,872.9,989.8z"/>
<path class="st0" d="M871.6,697.8c4.2,7.4-13.5,18.3-13.8,35.6c-0.2,10.9,6.6,19.4,14.5,29.3c9.7,12.1,15.7,12.7,25.7,26.5
	c1.2,1.7,12.2,16.8,9.2,20.2c-3,3.5-14.9-11.6-32.9-11.2c-13.9,0.3-25.8,9.8-38.2,19.5c-13.5,10.7-17.3,17.7-21.7,16
	c-6.2-2.3-8.3-19.4-4.6-33.5c5.2-20.1,18.1-19.8,21.7-37.7c3.3-16.1-6.2-21.1-1.3-39.1c3.6-13,11.2-19.9,13.2-21.6
	c3-2.6,11.8-10.1,21.7-7.7C867.9,695.1,870.4,695.7,871.6,697.8z"/>
<path class="st0" d="M832.7,784.4c-2.5,5.1-7.9,3.1-13.2,7.7c-9.2,8.1-5.5,25.5-5.3,26.5c0.5,2,1.4,6,3.3,6.3
	c2.1,0.3,3.4-3.8,8.6-9.8c2.4-2.8,5.1-5.9,9.2-8.4c5.8-3.4,7.8-1.6,12.5-4.9c1.2-0.8,6.1-4.2,7.9-10.5c2.3-8.1-2.3-15.2-4.6-18.8
	c-2.3-3.6-5-7.8-8.6-7.7c-4.2,0.2-7.4,6.5-8.6,10.5C832.7,780,834.2,781.4,832.7,784.4z"/>
<path class="st0" d="M610.2,836.9c-44.8-37.8-45.1-49.2-62.7-51.1c-15.2-1.7-16.4,6.7-66.3,31.3c-38.4,18.9-50.1,20-54,32.8
	c-3.9,12.8,5.9,18.3,14.4,55.7c6.7,29.4,1.9,31.7,7.9,40.4c14.9,21.5,41.7,4.7,76.3,26.7c23.4,14.9,23.4,30.3,38.2,30.5
	c18.8,0.2,21.7-24.7,54.7-41.9c21.8-11.4,30.6-5.8,39.6-17.5c12.3-16,8.5-42.9,0.7-60.2C651.4,865.9,642.2,863.9,610.2,836.9z"/>
<path class="st0" d="M684.8,638.7c-11.3-6.1-32.5-17.5-59.5-11.8c-10.2,2.2-31,6.6-40.6,25.2c-5.2,9.9-4.9,20.1-4.5,40.3
	c0.3,11.7,0.6,24.8,6,40.3c5,14.3,9.4,27.2,18.8,30.3c13.2,4.4,29.6-12.9,44.4-28.6c14.4-15.2,16.7-23.2,29.4-28.6
	c9.9-4.2,14.4-1.7,21.8-7.6c8.2-6.4,15.3-19.1,13.5-31.1C712.2,653.4,699.2,646.5,684.8,638.7z"/>
<path class="st0" d="M375.1,560.2c-33.9-9.1-53.6-14.2-79.1-5.4c-11.7,4-27.6,12-42.8,28.1c-10.5,11.1-23.1,24.3-27.2,46.4
	c-2.5,13.4,0,25.8,4.9,50.7c6.4,32.4,15.4,53.7,20.6,64.8c8,17.2,12,25.7,18.1,29.1c6.3,3.5,14.5,3.7,55.2-22.7
	c31-20.1,34.1-25.3,48.6-29.1c18.1-4.8,21.1,1.1,33.8-5.4c23.8-12.2,33.9-43.8,35.4-48.6c1.7-5.5,13.1-44-1.6-73.4
	C431.3,575.4,412.5,570.3,375.1,560.2z"/>
<path class="st0" d="M1419.5,699c-26.4-7.1-41.8-11-61.7-4.2c-9.1,3.1-21.5,9.4-33.4,21.9c-8.2,8.7-18,19-21.2,36.2
	c-1.9,10.4,0,20.1,3.9,39.6c5,25.2,12,41.9,16.1,50.5c6.3,13.4,9.4,20.1,14.1,22.7c4.9,2.8,11.3,2.9,43.1-17.7
	c24.2-15.7,26.6-19.7,37.9-22.7c14.1-3.8,16.5,0.9,26.3-4.2c18.6-9.5,26.5-34.2,27.6-37.9c1.3-4.3,10.2-34.3-1.3-57.3
	C1463.3,710.8,1448.7,706.9,1419.5,699z"/>
<path class="st0" d="M534.1,410.6c-11.2-5.2-49.4-23-83.5-4.5c-10.2,5.5-16.9,12.6-26.4,22.7c-15.2,16.1-26.4,28-25.7,41.6
	c0.6,12.6,10.9,13.4,35.7,40.1c23.2,24.9,26.5,37.4,45.7,45.3c8.5,3.5,18,7.4,26.4,3c14.4-7.6,6.2-29.6,23.6-51.4
	c9.2-11.6,13.9-8.4,30-25.7c11.8-12.7,18.3-19.7,18.6-28.7C579,431.5,543.9,415.2,534.1,410.6z"/>
<path class="st0" d="M1604.9,489.5c-11.2-5.2-49.4-23-83.5-4.5c-10.2,5.5-16.9,12.6-26.4,22.7c-15.2,16.1-26.4,28-25.7,41.6
	c0.6,12.6,10.9,13.4,35.7,40.1c23.2,24.9,26.6,37.4,45.7,45.3c8.5,3.5,18,7.4,26.4,3c14.4-7.6,6.2-29.6,23.5-51.4
	c9.2-11.6,14-8.4,30-25.7c11.8-12.7,18.3-19.7,18.6-28.7C1649.8,510.4,1614.7,494.1,1604.9,489.5z"/>
<path class="st0" d="M1629.2,489.1c-15.5-7-68.2-30.7-115.3-6.1c-14.1,7.4-23.3,16.8-36.5,30.3c-20.9,21.5-36.4,37.4-35.5,55.6
	c0.9,16.9,15,17.9,49.3,53.6c32.1,33.4,36.7,50.1,63.1,60.6c11.7,4.7,24.9,10,36.5,4c19.8-10.1,8.6-39.6,32.5-68.7
	c12.7-15.5,19.3-11.3,41.4-34.4c16.3-17,25.3-26.4,25.6-38.4C1691.2,517,1642.8,495.2,1629.2,489.1z"/>
<path class="st0" d="M596.4,178.4c-43.5-10-43.8-15.2-58-12.9c-13.8,2.1-23.5,9-42.8,22.6c-19.7,13.9-30.1,21.3-30.5,33.2
	c-0.4,12.1,9.9,25.2,21.4,28.3c11.2,3,15-5.8,37.4-10.5c15.7-3.3,29.3-2.3,35.1-1.6c21.6,2.4,24.6,9.6,35.9,6.5
	c10.7-3,17-11.8,26-24.3c8.6-12,14.6-20.3,12.2-27.5C630.5,184.7,620.8,184.1,596.4,178.4z"/>
<path class="st0" d="M145.3,575.1c-12.6-6.4-23.9-5.5-41.5-4.1c-20.5,1.7-30.8,2.5-40,10.6c-2.6,2.3-7.6,10.2-17.7,26.1
	c-6.1,9.7-8.6,14.2-10.8,20.4c-3,8.8-6,17.2-2.3,23.6c5.3,9.3,20.7,8.2,21.5,8.1c17.4-1.5,18.9-17,36.1-20.4
	c13.9-2.7,17.3,6.7,33.1,3.3c11.4-2.5,18.9-9.4,23.8-13.8c7.8-7.1,20.3-18.6,18.4-31.8C164.3,584.7,150.9,577.9,145.3,575.1z"/>
<path class="st0" d="M1605.5,899.5c-12.7-6.4-23.9-5.5-41.5-4.1c-20.5,1.7-30.8,2.5-40,10.6c-2.6,2.3-7.6,10.2-17.7,26.1
	c-6.1,9.7-8.6,14.2-10.8,20.4c-3.1,8.8-6,17.2-2.3,23.6c5.3,9.3,20.7,8.2,21.5,8.1c17.4-1.5,18.9-17,36.1-20.4
	c13.9-2.7,17.3,6.7,33,3.3c11.4-2.5,19-9.4,23.8-13.8c7.8-7.1,20.3-18.6,18.4-31.7C1624.5,909.2,1611.1,902.4,1605.5,899.5z"/>
<path class="st0" d="M1612.3,896.6c-15.7-8-29.7-6.8-51.5-5.1c-25.4,2.1-38.2,3.1-49.6,13.1c-3.2,2.8-9.5,12.7-21.9,32.3
	c-7.6,12-10.7,17.6-13.4,25.3c-3.8,10.9-7.4,21.3-2.8,29.3c6.5,11.6,25.6,10.2,26.7,10.1c21.6-1.8,23.5-21.2,44.8-25.3
	c17.3-3.3,21.4,8.3,41,4c14.1-3.1,23.5-11.6,29.6-17.2c9.6-8.8,25.2-23.1,22.9-39.4C1635.9,908.6,1619.3,900.1,1612.3,896.6z"/>
<path class="st0" d="M-26.3,843.6c7.8-3.7,20.3-4.1,39.9-15.6c16.2-9.6,16-14.2,32.2-24.5c13.2-8.3,38.5-24.3,56.7-14.8
	c4.1,2.1,9.3,8.8,19.6,22.2c12.8,16.6,14.4,22.5,21.7,24.5c2.7,0.7,4.4,0.4,24.5-5.9c18.7-5.9,20.5-6.7,23.8-5.9
	c8.7,2,12.1,11,21,27.4c0,0,11.5,21.3,28.7,45.9c18.8,27,24.8,26.4,28.7,40.8c4,14.9,0.8,27.9-3.5,45.2c0,0-6.7,27.3-20.3,48.9
	c-30.5,48.7-204.8,109.3-277.1,13.3C-81.4,977.5-61,859.9-26.3,843.6z"/>
<path class="st0" d="M293.1,872.3c-13.7,3.8-20.9-1.5-26.4,4.9c-7.4,8.6-1.2,26.3-0.7,27.9c6,16.5,17,15.7,20.4,29.3
	c1.2,4.8,0.1,6.1-5.3,33.5c-4.6,23.3-4.9,28.2-2,31.4c4.5,4.8,14.3,2.9,20.4,0c11.7-5.5,15.4-16.9,24.4-36.3
	c2-4.3,12.9-27.8,25-47.4c18-29,28-32,29-48.1c0.9-14.7-6.1-32.1-17.1-35.6c-7.8-2.5-15.9,3.2-32.3,14.7
	C306.6,861.9,306.1,868.7,293.1,872.3z"/>
<path class="st0" d="M320.7,873c-5.3,4.6-10.8,6-20.4,8.4c-14.1,3.5-19.8,1.8-22.4,6.3c-1.7,2.9-1.1,6.9,2.6,16
	c9.2,22.4,15.7,23.3,18.5,34.2c4.9,19.6-11.5,35.9-5.3,41.9c2.9,2.7,8.8,1.6,12.5-0.7c10.3-6.2,5.4-20.9,14.5-44.7
	c2.8-7.3,7.5-19.7,18.4-30.7c11.5-11.6,19-10.6,25.7-22.3c1.5-2.6,9.4-16.6,3.3-27.2c-3.6-6.2-10.7-9.1-16.5-9.1
	c-8.7,0-14.8,6.5-19.1,11.2C325.3,864.1,327.1,867.4,320.7,873z"/>
<path class="st0" d="M313.8,1023.4c-0.9-3.7,0.2-5.6,14.5-32.8c12.2-23.3,25-46.3,36.9-69.8c19.3-38,23.8-53.5,34.3-53.7
	c9.5-0.2,16.9,12.2,18.5,14.7c7.8,12.9,2.1,20.9,7.2,46.1c2.7,13.2,4.8,22.9,12.5,31.4c7,7.7,16.8,12.3,20.4,14
	c11.5,5.4,14.6,3.3,19.8,8.4c7.2,7.1,8.1,18.1,8.6,24.4c0.8,10.2-1.3,18.3-2,20.2C473.8,1058.5,322.5,1060.6,313.8,1023.4z"/>
<path class="st0" d="M328.6,1023c-1-1.6-2.1-4.8,2-16c6.8-18.8,15.9-27,25.7-41.9c7.5-11.5,11.5-20.8,17.1-34.2
	c12.2-28.8,12.7-43.9,19.8-44.7c5.5-0.6,12.4,7.6,13.8,16c1.6,9.3-4.2,15.4-21.7,42.6c-15.6,24.2-17.1,28.7-16.5,34.2
	c1.3,11,10,15.9,7.9,25.8c-1.3,6-5.6,9.6-9.2,12.6C354.6,1028,333.7,1031,328.6,1023z"/>
<path class="st0" d="M407.7,941.4c-11.6,0.3-22,14.5-25,26.5c-1.2,4.7-0.4,5.6,0.7,25.1c1.3,24.1,0.2,27,3.3,30.7
	c3.5,4.1,7.2,3.3,31.6,4.2c23.9,0.9,28.7,2,36.2-2.1c3.4-1.8,13.3-7.2,14.5-16.1c1.3-9.4-8.2-14.8-27-34.9
	C419,950.3,417.2,941.1,407.7,941.4z"/>
<path class="st0" d="M699.3,710.8c-7.3-5.6-19.7,0-21.7,1c-17.8,8.1-13.1,25.9-31.9,44c-8.3,8-19.7,14.1-42.5,26.3
	c-10.9,5.9-16.8,8.3-17.9,14.1c-0.4,1.9-1.4,10,22.9,29.7c30.4,24.7,41.9,20.2,52.9,38.2c0.2,4,7.6,34.7,13.9,34.3
	c7-0.4,4.3-38.3,15.8-101.3C699.7,747.9,710.7,719.6,699.3,710.8z"/>
<path class="st0" d="M499.3,1024.4c-4.8-8.1-7.2-20.5-2.6-31.4c1.9-4.6,4.1-9.8,8.6-11.2c7.9-2.3,14.4,10,35.6,27.2
	c11.7,9.5,17.7,14.3,24.4,14c8.3-0.4,15.5-8.2,29.7-23.7c14.4-15.8,14.1-18.9,22.4-24.4c2.5-1.7,22.7-14.9,34.9-6.3
	c1.5,1.1,5.6,4.4,7.9,14c4.6,18.9-1.3,46.6-18.5,62.8c-20.7,19.6-51.8,11.9-114-3.5C519.1,1039.8,506.3,1036.2,499.3,1024.4z"/>
<path class="st0" d="M671.3,1031.4c-6.1-11.4,1.9-16.1,11.2-83c3.3-23.8,5.9-48.8,5.9-48.8c5.4-52.1,4.3-69.6,10.5-71.2
	c9-2.3,24.3,30.5,29,40.5c16.1,34.4,13.7,51.3,27,57.2c11,4.9,26.7-0.6,34.9-9.8c9.9-11.1,7.5-26,13.8-27.2c5.6-1.1,12,9.6,15.8,16
	c10.7,18,6.4,26.4,16.5,37c6.2,6.6,11,6.6,12.5,12.6c1.8,6.8-3.1,11.9-7.2,20.2c-11.2,22.4-1,35.5-10.5,49.5
	c-6.5,9.5-17.3,12.4-29,14.7C751.7,1048.7,687.2,1061.2,671.3,1031.4z"/>
<path class="st0" d="M677.9,1021.6c-5-12.8,7.1-19.2,13.8-60c2.6-15.8,3.1-28.7,4-50.9c1.5-38.5-1-55.4,3.3-56.5
	c4.7-1.2,13.3,17.8,20.4,33.5c14,31,15.5,46.5,28.3,51.6c7,2.8,14.3,1.4,17.8,0.7c15.7-3.1,19.4-14.1,26.4-12.6
	c10.3,2.3,20.1,30.3,11.9,50.2c-5.6,13.6-16.6,16.1-20.4,32.8c-2.4,10.3,0.9,13.4-1.3,18.8C772.5,1052.6,689.8,1051.9,677.9,1021.6z
	"/>
<path class="st0" d="M514.5,637.1c-16,35.1-36.4,74.5-62.6,115.8c-24.9,39.4-45.5,65.4-38.9,74c7.1,9.1,41.7-6.9,58.6-16.7
	c28.1-16.3,27.2-26.9,48.1-32.1c16.9-4.2,30.4-0.4,40.9-11.9c2-2.3,5.3-6.6,7.9-16c10.6-39-18.1-64.1-5.9-90.7
	c6.8-14.9,19-14,19.8-26.5c0.9-15.1-15.7-34.3-32.9-33.5c-11.7,0.6-19.9,10.2-23.7,14.7C518.3,622.8,515.5,632.2,514.5,637.1z"/>
<path class="st0" d="M404.4,727.8c-17.1,4-15.2,2.1-25,4.9c-4.3,1.2-16.1,4.9-44.1,22.3c-28.1,17.5-27.3,20.7-39.5,24.4
	c-16.2,5-17.9-0.6-36.9,4.9c-11.4,3.3-29.3,8.4-36.9,24.4c-3.9,8.1-3.6,15.7-3.3,21.6c1.5,31,25.3,58.5,33.6,55.1
	c5.1-2.1,0.2-14.5,8.6-22.3c7.4-7,15.8-1.5,31.6-5.6c9.8-2.6,15.9-7.1,27.7-16c22.3-16.9,22-26.1,34.3-28.6
	c12.8-2.6,28.2,4.5,33.6,15.4c3.9,7.8,1.2,14.7,3.3,15.4c4.7,1.5,8.1-38.5,35.6-69.8c7.7-8.8,18-17.6,19.8-32.8
	c0.4-3.3,1.6-14-4-18.8C436.9,717.3,428.4,722.2,404.4,727.8z"/>
<path class="st0" d="M449.9,593.9c-3.2,11.4,4.9,16.7,7.9,32.8c3.7,19.4-3.1,37.2-5.9,44.7c-7,18.3-15.8,23.8-13.2,33.5
	c1.8,6.6,8.4,13.5,15.2,14c15.9,1.2,23.2-33.5,57.3-94.2c19.6-34.9,29.4-45.1,45.5-76.1c15.3-29.5,13.7-34.4,25-48.1
	c3.5-4.3,8-9.1,6.6-12.6c-2.2-5.4-17.9-6.5-28.3,0.7c-5.8,4-4.4,6.7-13.2,14.7c-7.4,6.7-10.2,6.5-14.5,11.9
	c-3.1,3.9-4.5,7.6-7.2,17.4c-7.6,27.4-5.4,30.3-9.9,34.9c-4.4,4.5-12.4,5.3-28.3,7c-13.8,1.5-18.3-0.1-25,4.2
	C460.1,579.5,452.5,584.6,449.9,593.9z"/>
<path class="st0" d="M210.3,598.4c-59.8,50.8-98.7,87-123.9,111.6c-53.6,52.2-61,67.2-83.7,75.3c-5,1.8-21.6,7.2-24.8,19.9
	c-1.7,7,0.6,16.4,6,19.2c6.7,3.5,14.9-5.1,39.5-23.5c22-16.4,33.2-24.7,44.9-27.7c7.6-2,26.4-6.9,42.2,2.8
	c21.9,13.5,20.4,44.3,36.2,46.2c6.8,0.8,6.8-4.9,19.4-7.8c18.6-4.3,28.6,6.1,36.8-0.7c5.6-4.6,2-10.3,7.4-19.2
	c9.3-15.6,26.8-9.1,33.5-19.9c6.6-10.7-5.8-24.8-24.8-74.6c-14-36.8-13.2-44.8-12.1-49.8c3.8-17.5,17.2-28.5,12.7-41.2
	C217.8,603.6,213.5,600.3,210.3,598.4z"/>
<path class="st0" d="M204.8,618.3c-22.8,11.7-52.6,44.3-60,52.3c-15.7,17.1-16.1,16.4-17.1,19.5c-6.9,21.1,16.3,32.9,22.4,74
	c2.5,17.1,0.7,29.6,8.6,34.2c5.5,3.2,10.4-0.4,25.7,3.5c7,1.8,8.1,3.1,10.5,2.1c8.2-3.3,4.2-20.2,13.8-26.5c6-3.9,11.2,0.2,15.2-4.2
	c4.1-4.6,2.1-13.4,0.7-18.8c-6.4-24.4-14.4-36.6-21.7-56.5c-7.6-20.5-11.3-31-7.2-41.9c0.3-0.9,0.2-0.4,10.5-21.6
	c5-10.3,7.6-15.7,5.9-17.4C210.6,615.4,206.9,617.2,204.8,618.3z"/>
<path class="st0" d="M373.6,453.7c-12.7,11.8-32,29.5-56.1,50.5c-30.7,26.8-52.7,44.6-50.3,48.9c2.3,4.1,22.3-11.6,55.6-12.8
	c22.4-0.8,41.9,5.2,51.7,8.3c21.5,6.7,30.4,13.7,52,15.3c9.7,0.7,24.4,1.6,28.1-6.1c3.3-6.8-3.6-17-8.8-24.8
	c-3.3-4.9-13.5-19-42.4-40.1c-12-8.8-19.1-12.9-19.9-20.8c-0.4-3.8,1.5-8.9,5.2-19.1c4.3-11.8,7-16.1,6-17
	C393.7,435.1,389.4,437.5,373.6,453.7z"/>
<path class="st0" d="M680.8,182.5c7.1,1.6,2.4,18.3,14.5,32.8c6.7,8.1,12.6,8.3,16.5,17.4c1.9,4.5,2.7,9.7,2,16.7
	c-2.2,22.8-17.6,41.5-19.1,43.3c-12.1,14.8-10.4,4.5-65.2,124.2c-6.3,13.6-16.5,29.3-32.3,55.1c-5.1,8.3-18.4,7.3-19.8,4.9
	c-1.3-2.3,7.1-7.1,9.9-18.1c2.6-10.4-1.6-19.9-2.6-22.3c-3.9-8.9-8.8-10.5-11.9-15.4c-10.8-17.2,14.5-54.6,19.1-61.4
	c19.1-28.2,29.8-28.2,58.6-66.3c13.3-17.6,18.3-27.2,19.1-39.1c0.6-9.3-1.2-23.2-2.6-34.9c-1.5-11.7-2.9-18.4,0.7-25.8
	C670.2,188.4,676,181.4,680.8,182.5z"/>
<path class="st0" d="M432.4,400.9c29.9-34.1,44.1-39.6,89.6-83c19.3-18.4,18.2-18.8,32.9-32.1c20.2-18.2,26.4-21.2,54.7-46.1
	c17.5-15.4,26.3-23.1,28.3-25.8c5.1-6.7,10.2-15.1,14.5-14c2.5,0.7,3.7,4.4,4.6,7.7c4.2,15.2,7.5,27.2,4,44.7
	c-0.8,4-3.1,14.1-10.5,27.2c-10.3,18.2-18.8,22-42.8,46.1c-20.8,20.9-31.2,31.3-35.6,43.3c-7.7,21.3-2.2,37.9-10.5,41.9
	c-5.9,2.8-10.5-4.6-28.3-12.6c-7.4-3.3-23.7-10.4-44.1-9.8c-5.9,0.2-21,0.8-36.9,9.8c-9.4,5.3-16.7,12.2-17.8,13.3
	c-7.3,7-11.3,13.2-21.7,21.6c-3.5,2.8-7.9,6.3-8.6,5.6C402.6,437,419,416.2,432.4,400.9z"/>
<path class="st0" d="M680.2,190.9c-1.8-1.1-4.8,0.3-6.6,2.1c-3.5,3.7-2.6,10-2,15.4c1.9,15.6,3.4,27.4,2.6,38.4
	c-0.9,12.6-4.1,15.5-1.3,21.6c3.1,7,11.4,13,19.1,11.2c7.7-1.8,11-10.7,13.2-16.7c1-2.8,5.1-14,0.7-25.1c-1.6-3.9-4.3-7.1-9.9-13.3
	c-9.6-10.8-12.6-10.5-14.5-16C678.8,200.1,683.3,192.9,680.2,190.9z"/>
<path class="st0" d="M682.5,225.4c-2.3,1.7-0.3,5.8-0.7,14c-0.5,12.4-5.6,14.7-4,22.3c1.5,6.7,7.2,13.2,11.9,12.6
	c3.5-0.5,5.4-5.1,8.6-12.6c3-7.2,4.8-11.5,4-17.4c-1.3-8.6-7.2-13.5-8.6-14.7C693.1,229.1,685.8,223.1,682.5,225.4z"/>
<path class="st0" d="M542.1,354.5c-6.2,4-11.8,5.8-15.8,7c-11.2,3.4-17.6,2.4-25,8.4c-1.8,1.5-5.9,4.7-5.3,7.7
	c0.6,2.8,5.1,3.9,13.2,5.6c23.8,5.1,24.3,4.7,27.7,6.3c11.9,5.6,14.3,14.9,18.5,13.3c3.2-1.2,4.3-10.1,6.6-27.9
	c1.1-8.7,1.1-11.4,3.3-15.4c3.1-5.7,6.4-6.1,9.9-12.6c2-3.7,5.1-11.3,2.6-14c-2.6-2.8-10.3,1.3-13.2,2.8
	C553.6,341.4,552.6,347.7,542.1,354.5z"/>
<path class="st0" d="M568.5,339.9c-1.6-1.2-6.9,3.1-10.5,7.7c-6.2,7.9-4.7,13.1-9.9,16c-3.7,2.1-5.6,0-9.9,2.8
	c-0.4,0.3-6.4,4.2-5.9,8.4c0.4,3.5,5,3.6,11.2,9.1c6.4,5.7,7.4,11,9.2,10.5c2.1-0.6,0.8-8.1,2.6-23c1.1-8.7,1.6-13.2,4-16
	c3.3-4,7.6-5,9.2-10.5C568.6,344.3,569.7,340.7,568.5,339.9z"/>
<path class="st0" d="M740.8,269c-5.5,0.6-13.2,2.1-21.1,7c-20.8,12.8-26.8,38.9-29.7,49.5c-10.1,38.1-36.2,69.2-54,104
	c-43.2,84-64.8,126-74.5,136.1c-0.2,0.2-17.1,17.9-13.8,23c2,3.2,9.4-2.4,19.1,1.4c7.6,3,12.8,10.3,17.8,17.4
	c5.4,7.6,5.1,10,8.6,11.9c6.6,3.6,14.1-1.4,22.4-4.9c2.3-1,25.5-10.3,45.5-4.2c3.6,1.1,2.6,1.3,38.9,22.3c5.3,3.1,8,4.6,9.9,4.2
	c11.7-2.7,8.5-40.1,15.8-99.1c5.1-40.7,8.3-36.9,13.8-83c4.7-38.9,2.5-42.9,7.9-74.7c1.2-6.8,5.8-33.3,9.2-56.5
	c4.1-28.1,1.6-18.5,3.3-27.2c1.7-8.6,3.1-12.5,1.3-16.7C758.1,271.9,747.4,269.8,740.8,269z"/>
<path class="st0" d="M743.8,277.1c-2.4-0.1-11.2-0.3-21.7,6.3c-3,1.9-11.2,7-17.1,17.4c-7.1,12.4-2.6,17.2-8.6,33.5
	c-6.5,17.7-15.7,22.6-13.2,27.9c2.9,6,18,7.4,27.7,0.7c10.7-7.5,8.3-20.4,19.1-25.1c7.2-3.1,12.2,1,16.5-3.5
	c3.1-3.3,1.4-6.4,3.3-17.4c2-11.3,4.6-12.8,5.3-23c0.7-10-1.6-12.9-2.6-14C751.5,279,749.5,277.4,743.8,277.1z"/>
<path class="st0" d="M704.2,332.2c-4.5,6.9-2,10.3-7.2,20.2c-2.9,5.5-5.4,7.7-4.6,9.1c1.2,2,8.9,0.4,14.5-4.2
	c5.8-4.8,3.9-8.3,11.2-16.7c4.3-5,7.2-6.3,7.2-9.8c0.1-3.5-2.7-7.4-5.9-8.4C713.7,320.7,707.2,327.6,704.2,332.2z"/>
<path class="st0" d="M625.2,465.5c-3.3,7.5-2.5,10.6-7.9,15.4c-16.5,14.4-10.8,28.7-25,53.7c-14.4,25.3-34.3,35.2-31,41.9
	c1,2.1,3,1.3,15.2,4.9c11.4,3.3,17.1,5.1,19.8,9.1c4.7,7-0.4,14.6,3.3,17.4c4.6,3.5,12.6-8.2,29-11.2c9.1-1.6,16.4,0.3,26.4,2.8
	c4,1,14.5,4,27,11.2c15.5,8.9,19.2,15.8,22.4,14c5.3-3,2.7-26.5-8.6-45.4c-10.2-17.1-17-12.8-25-28.6c-10.6-20.9-8.8-48.1-8.6-52.3
	c0.4-5.4,1-8.7,0.7-15.4c-0.7-15.1-5-16.7-5.3-29.3c-0.3-11.8,3.3-16.7-0.7-22.3c-1.8-2.6-5.1-5.1-8.6-4.9
	c-6.4,0.4-10.3,9.7-11.9,13.3C631.4,451.4,629.3,456.1,625.2,465.5z"/>
<path class="st0" d="M744.4,565.4c-3.1-1.7-6.9,0.7-6.9,4.4c0.1,56-8.5,99.2-17.2,129.7c-13,45.9-16.8,77.1-15.2,107.5
	c1.1,21.1,25.3,22.8,31.6,48.8c3.2,13.2,2,23.8,10.5,38.4c3.5,5.9,10.8,18.6,19.8,18.1c5.2-0.3,7.7-4.8,24.4-32.8
	c12.2-20.5,14-23.2,13.8-28.6c-0.3-13.4-11.2-14.6-14.5-30c-3.5-15.9,4.6-31.7,11.2-44.7c8-15.8,12.7-15.9,15.2-27.2
	c3.1-14.5-3.7-18.2-0.7-32.1c2.3-10.7,10-25.4,22.4-30c9.1-3.4,15.3,0.6,27.7-5.6c4.4-2.2,6.9-3.5,9.2-6.3
	c10.1-12.3-3-30.2,5.3-41.2c7.2-9.6,22.3-2.2,27-11.2c3.1-6-2.8-10.9-6.6-27.9c-4.7-21.1-0.3-34.3-5.3-36.3
	c-3.4-1.3-5.8,4.6-16.5,11.2c-6.2,3.8-16.2,10-27,8.4c-10.3-1.5-10.6-8.6-24.4-12.6c-5.7-1.7-13.1-3.8-20.4-0.7
	c-10.6,4.5-8.6,14.7-19.8,21.6c-7.6,4.8-19.9,7-27,1.4c-6.2-4.9-4.5-12.6-12.5-19.5C747.3,567.2,745.8,566.2,744.4,565.4z"/>
<path class="st0" d="M600.5,137.9c-28,12.7-43.8,13.9-43.5,18.8c0.4,7.1,32.9,12.1,36.2,12.6c18.5,2.7,28.4,0.5,36.2,9.1
	c3.8,4.1,5.1,8.6,9.9,9.8c4.9,1.2,9.5-2.2,15.2-6.3c3.5-2.6,9.5-7,14.5-15.4c3.3-5.6,4.2-9.6,7.2-22.3c7-29.5,8.1-32.4,5.9-34.9
	c-2-2.3-6.6-4.1-29.7,4.2C628.6,122.1,620.7,128.7,600.5,137.9z"/>
<path class="st0" d="M-9.4,649c8.3-8.2,20.3-15.5,25-11.9c5.8,4.4-4.4,20.7,3.3,32.8c5.7,9,18.8,11.7,28.3,10.5
	c16.6-2.2,17.8-16,38.2-22.3c11.3-3.5,12.5,0.3,28.3-2.8c23.2-4.5,35.9-15.5,36.9-14c1.7,2.7-42.4,27.9-87.6,75.4
	c-12.5,13.2-25.9,25.3-52.7,49.5c-19.2,17.4-27.9,24.6-34.9,21.6c-10.3-4.4-10.1-27.9-9.9-49.5C-34.2,711-33.8,672.9-9.4,649z"/>
<path class="st0" d="M-19.6,567.7c-1.7,6.8-8.7,31.6,2.6,45.4c5.2,6.3,13.9,9.8,21.7,9.1c9.7-0.9,16-7.9,24.4-17.4
	c12.5-14.4,12.2-21.2,21.7-32.1c10.2-11.5,21.6-16.4,29-19.5c34.7-14.8,85.8-8.2,99.5,19.5c7.1,14.4,0.2,26.4,5.9,30
	c11.9,7.5,48.6-39.5,86.3-81.6c59-66,93.8-104.9,146.9-140.3c27.5-18.3,55.6-42.4,112-90.7c7.2-6.1,23.4-20.2,20.4-27.2
	c-4.3-10-46.1-1-50.7,0c-26.1,5.7-33.1,13.2-45.5,8.4c-11.1-4.3-21.2-16.6-21.1-28.6c0.2-17,20.6-26.2,18.5-31.4
	c-4.1-9.9-56.7,9.1-56.7,9.1c-185.8,67-324.9,130.5-432.9,175.1C-84.9,415-4.1,506.4-19.6,567.7z"/>
<path class="st0" d="M-25.5,474.2c-2.8,5.4,14.1,10.4,7.9,18.1c-6.8,8.4,5.5,20.7,5.9,44c0.5,28.6-17.4,41.2-9.2,57.2
	c0.4,0.8,5.7,10.9,14.5,11.9c15.2,1.7,21-26.5,50.7-55.1c11.5-11.1,26.4-25.3,48.8-29.3c14-2.5,26.3,0.9,50.7,7.7
	c35.5,9.8,41.7,20.2,43.5,23.7c5.1,10,2.4,18,5.9,19.5c7.3,3.2,28.7-26.3,46.1-62.1c49.3-101.1,20.5-157,65.9-196.1
	c10.1-8.7,40.5-30.8,58-43.3c23.6-16.8,35.6-24.2,34.3-27.9c-2.5-7.1-52.8,6.9-60.6,9.1c-83.4,23.5-98.3,46.5-181.2,80.9
	C38,381.4-20.8,405.8-25.5,406.5c-3.3,0.5-15.1,2.2-17.8,9.8C-50.2,435.7-19.5,462.5-25.5,474.2z"/>
<path class="st0" d="M503.9-19.5C502.2-5,530.4-1.7,551.4,41.9c6.9,14.4,9.3,25.3,21.7,45.4c18.2,29.3,28.9,31.1,31.6,31.4
	c10.5,1.2,12.2-7.2,31-14c23.6-8.5,35-0.5,42.2-9.8c7.7-10.1-3.6-22,2-38.4c6.8-19.9,31.9-27.1,46.8-31.4c8-2.3,41.5-11.4,77.1,4.2
	c21,9.2,30.3,21.7,36.2,17.4c7.1-5,3-28.9-5.3-44.7c-13.5-25.8-44-41.1-114.7-48.8C626.7-56.9,507.4-49,503.9-19.5z"/>
<path class="st0" d="M534.9,54.5c18.3,18.4,26.5,32.5,37.6,52.3c6,10.8,6.7,13.3,5.9,16c-3,11.3-24.5,8-60,19.5
	c-27.9,9.1-39.4,19.2-44.1,14c-4.9-5.4,0.5-23.4,11.2-33.5c9.9-9.3,17.7-5.7,21.7-13.3c5.1-9.6-5.8-18.7-8.6-43.3
	c-0.4-3.9-3.3-29.3,5.3-33.5C510.2,29.8,519.7,39.3,534.9,54.5z"/>
<path class="st0" d="M876.9,242.9c-12,6.8,9.8,60.1,23.1,140.3c4.8,28.9,9.7,68.7,12.5,68.4c2.5-0.2-4.3-29.7,11.2-48.1
	c10.5-12.4,28.7-17,43.5-14.7c26.4,4.2,38.7,29.9,45.5,25.8c7.7-4.7-4.1-40.6-5.9-46.1c-15.1-45.7-29.3-44.4-43.5-86.5
	c-5.8-17.1-8.3-31.7-17.8-34.2c-9.4-2.4-15,9.7-29,7.7c-8-1.2-9.4-5.6-23.1-9.8C884.1,242.8,879.4,241.4,876.9,242.9z"/>
<path class="st0" d="M884.1,268c-7.9,21.7,9.4,44.4,18.5,90c3,15,4.1,27.8,7.2,27.9c3.2,0.1,4.4-13.3,14.5-34.2
	c6.2-12.8,9.8-19.9,17.1-23c10.7-4.5,19.7,3.6,23.1-0.7c3.4-4.3-6.4-12.1-11.9-32.8c-3.5-13.1-2.4-20.6-9.2-27.9
	c-2-2.2-5.7-6.1-11.2-7c-11.5-1.8-17,12.1-26.4,9.8c-7.4-1.8-9.1-11.9-14.5-11.2C887.2,259.5,884.9,266,884.1,268z"/>
<path class="st0" d="M1115.3,557.8c20.6,4,32.9,42.8,57.7,120.5c4.8,15.1,7,23,3,28.9c-9.3,13.9-39.2-2.4-99.4-4
	c-22.9-0.6-20.5,1.7-57.7,1.6c-72.2-0.1-80.7-8.8-84.2-14.5c-9-14.3-4.7-38.8,6.8-53c18.4-22.8,50.9-14,54.6-28.1
	c4-15-21-41.6-17.2-49.2c3.1-6.3,17,13.8,55.9,12.3c12.7-0.5,23.5-2.3,33.4-4C1105.3,562,1105.3,555.9,1115.3,557.8z"/>
<path class="st0" d="M916.6,515c17.9,50.8,8.3,116.8,21.1,117.9c4.2,0.4,4.3-6.9,15.2-14c15-9.7,28.3-4.5,31-11.2
	c2.1-5.3-5.8-9.5-10.5-23c-3.3-9.5-6.1-26.8,0.7-34.2c7.9-8.7,24.1,1.4,54,7c18.3,3.4,63.3,11.8,73.8-5.6
	c7.3-12.1-10.8-22.3-28.3-78.2c-6.6-20.8-11.2-42.2-25-46.1c-3.6-1-4.7,0.1-15.8,0c-3.4,0-19.1-0.1-29.7-2.8
	c-23.9-6-25.8-26.3-40.2-25.1c-11.5,1-23,15-24.4,27.9c-1.5,14,9.3,22.6,4.6,30c-3.3,5.2-9.5,2.6-19.1,10.5
	c-0.3,0.2-5.6,4.6-8.6,9.8C907.7,491,914.6,509.4,916.6,515z"/>
<path class="st0" d="M956.4,413.8c-6.6,2.1-8.9,12.9-9.2,14.7c-3.1,14.8,4.8,28.4,13.2,41.9c21,33.7,31.5,50.5,41.5,58.6
	c30.3,24.7,73.9,33.5,81.1,21.6c5.8-9.6-17.5-23.9-21.8-61.4c-0.6-5.7-1.2-15.3-6.6-26.5c-2.3-4.8-7-14.4-16.5-20.2
	c-8.4-5.1-11.4-1.7-25.7-4.9c-21.8-4.8-40.9-17.4-40.9-17.4C965.4,416,961.1,412.3,956.4,413.8z"/>
<path class="st0" d="M1186.6,815.8c-29.3-3.6-43.9-5.4-53.4-1.4c-20.1,8.5-36.8,32.7-38.2,56.5c-1.6,26.1,16.2,33.3,16.5,71.9
	c0.1,12.7-1.8,17.6,2,25.1c8.7,17.5,33.7,20.6,48.1,22.3c33,4.1,38.6-7.5,63.9-0.7c20.6,5.5,21.6,14.4,38.9,15.4
	c14.1,0.8,36.1-3.9,45.5-20.9c7.4-13.4,3.8-28.8-0.7-48.1c-2.5-10.6-5.4-17.7-11.2-31.4c-12.3-29.2-18.5-43.8-30.3-55.8
	c-14-14.2-29-20.3-37.6-23.7C1217,819.6,1206.7,818.3,1186.6,815.8z"/>
<path class="st0" d="M1280.8,1022.3c1.7-7.9,19.2-4.2,32.9-20.9c2.4-2.9,7.9-9.6,9.9-19.5c1.6-7.7,0-12,1.3-12.6
	c3.8-1.5,11.9,34.5,39.5,64.9c10.9,12,18.6,16.2,17.1,20.9c-2.6,8.5-30.7,7.8-52.7,1.4C1303.8,1049.3,1278.6,1032.3,1280.8,1022.3z"
	/>
<path class="st0" d="M987.6,1027.9c-11.1-13.9-1.6-22.6-11.9-80.9c-7.1-40.6-14-49.5-11.9-76.1c0.8-10.5,4.1-50.8,25-57.9
	c12.5-4.2,27.5,4.6,35.6,12.6c15.8,15.5,14.7,36.6,22.4,37c8.2,0.4,10.9-23.6,23.7-25.1c6.4-0.8,13.5,4.4,16.5,10.5
	c5.6,11.5-6.5,20.1-5.3,38.4c1.1,16.6,11.6,16.5,16.5,37.7c3.9,17.1-2.2,19.9,1.3,39.8c1.9,10.5,5,28.1,17.1,37
	c7.2,5.3,13.3,4.5,45.5,2.1c42.5-3.2,47.7-3.1,54.7-1.4c20.8,5.1,43.4,20.6,41.5,29.3c-2.7,12.6-54.7-0.8-152.2,4.2
	C1033.8,1038.6,1004.4,1048.9,987.6,1027.9z"/>
<path class="st0" d="M1000.8,1021.6c-4.7-5.5-6-11.7-7.9-20.9c-4.5-22.1,0.2-32.6,0-50.9c-0.3-23.8-8.4-21.1-14.5-58.6
	c-3.6-22.2-6.8-43.4,4.6-54.4c1.2-1.2,8.3-7.8,16.5-6.3c13,2.4,12.5,22.5,32.9,38.4c5.3,4.1,12.8,9.7,20.4,7.7
	c10.1-2.7,13.3-17,15.8-16c2.7,1,4.2,20-5.9,32.1c-12.8,15.3-32.4,5.9-40.8,19.5c-4.7,7.6,0.6,11.8,0,37.7
	c-0.5,23.9-5.1,25.5-2.6,35.6c6.3,25.4,39.2,29.7,37.6,38.4C1055,1032.8,1016.7,1040.6,1000.8,1021.6z"/>
<path class="st0" d="M939.5,717.4c-11.1,7.5,2.6,29.6,7.2,53.7c5.1,26.4,2,54.6,9.9,54.4c6.1-0.2,5.3-15.2,19.8-25.1
	c11.6-7.9,30.2-10.6,42.8-2.1c16.1,10.9,15.1,35.2,24.4,35.6c6.8,0.3,7.9-12.6,18.5-15.4c11.2-2.9,17.5,9.7,29,7.7
	c9.3-1.7,11.3-11,19.1-18.8c17.8-17.8,49.6-11.3,84.3-4.2c35,7.2,53.5,24.7,58,18.8c1.9-2.4-0.2-6.6-12.5-30
	c-33.2-62.7-26-46.1-31.6-57.9c-8.1-16.8-11.1-26.2-15.8-25.8c-6,0.4-4.5,15.6-13.8,24.4c-13.4,12.6-34.5-1.6-77.1-7.7
	c-18.3-2.6-8.8,0.8-65.2-2.1c-44-2.2-66-3.4-71.2-4.2C948.4,716.1,944.3,714.1,939.5,717.4z"/>
<path class="st0" d="M1218.3,427.2c-9.4-5.6-54.5-32.6-87.7-9c-13.1,9.3-25.8,27.6-24.6,47.3c0.9,14.5,9.1,24.5,23.9,42.4
	c11,13.3,16.5,20,23.8,20.4c15.4,0.8,19-23,38.5-26.1c14.8-2.4,19.1,10.3,36.2,9c14.6-1.2,31.4-12,34.6-26.1
	C1269.2,458.3,1223.9,430.6,1218.3,427.2z"/>
<path class="st0" d="M1229.8,421c-10.8-6.5-63.3-37.9-101.9-10.4c-15.2,10.8-30,32-28.6,54.9c1,16.9,10.6,28.4,27.7,49.2
	c12.8,15.5,19.1,23.2,27.7,23.7c17.9,0.9,22.1-26.7,44.7-30.3c17.2-2.8,22.2,12,42,10.4c16.9-1.4,36.4-13.9,40.2-30.3
	C1288.8,457.1,1236.3,424.9,1229.8,421z"/>
<path class="st0" d="M1249.1,418.4c-12.1-10.7-70.6-62.3-123.5-34.9c-20.8,10.8-43.3,35.1-46.1,64.9c-2,22.1,7.4,39,24.5,69.4
	c12.7,22.7,19,34,29.5,36.4c21.9,5,32.5-29.8,61-29.7c21.7,0.1,25,20.2,49.7,22.3c21.1,1.8,47.6-10.4,55.5-30.7
	C1314.8,477.5,1256.3,424.8,1249.1,418.4z"/>
<path class="st0" d="M1488.5,170.6c-9.2,0.8-53.5,4.4-66.4,38c-5.1,13.2-5.9,32.7,3.8,46c7.2,9.9,17.5,12.8,36.1,18.1
	c13.8,3.9,20.7,5.9,26.1,2.4c11.3-7.2,3.2-25.9,15.6-38c9.4-9.2,18.2-2.3,29.8-11.9c9.8-8.2,16.9-24.4,12.9-36
	C1538.7,166.9,1494.1,170.1,1488.5,170.6z"/>
<path class="st0" d="M1488.8,169.7c-10.7,0.9-62.4,5.1-77.5,44.4c-5.9,15.4-6.9,38.2,4.4,53.8c8.4,11.5,20.5,15,42.1,21.1
	c16.1,4.6,24.2,6.9,30.5,2.8c13.2-8.4,3.7-30.3,18.2-44.4c11-10.7,21.3-2.7,34.8-13.9c11.5-9.6,19.7-28.5,15-42.1
	C1547.5,165.4,1495.3,169.1,1488.8,169.7z"/>
<path class="st0" d="M1495.1,157.7c-12.4,1-72.5,6-90,51.5c-6.9,17.9-8,44.3,5.2,62.4c9.8,13.4,23.8,17.4,48.9,24.5
	c18.8,5.3,28.1,8,35.4,3.3c15.3-9.8,4.3-35.2,21.2-51.5c12.8-12.4,24.7-3.1,40.3-16.2c13.3-11.1,22.9-33.1,17.4-48.9
	C1563.2,152.8,1502.6,157.1,1495.1,157.7z"/>
<path class="st0" d="M1060.7,432c-20.9-54.6-45-91-64.6-115.1c-12.4-15.3-39.5-46.2-32.3-69.8c1.3-4.4,3.4-7,11.9-27.9
	c6.8-16.8,7.4-19.9,10.5-20.9c6.3-2.1,12.7,7.5,38.9,37c16.9,19.1,23.3,25.2,31.6,31.4c10.6,7.9,13.1,7.5,24.4,14.7
	c23.4,14.9,24.9,24.4,52.1,48.1c23.4,20.4,35.8,25.2,34.3,30.7c-2.5,9-36.7-3.7-67.2,17.4c-8.4,5.9-16.3,11.3-20.4,21.6
	c-4.9,12.1-2,24.1-9.9,30C1066.8,431.6,1063.2,432,1060.7,432z"/>
<path class="st0" d="M1046.9,219.2c-15.1,7.2-29.8-19.3-32.3-21.6c-3.3-3.1-23.1-8.7-25-27.9c-1.7-16.6,6.6-24,2-39.8
	c-3.4-11.5-10-14.9-8.6-17.4c3.5-5.9,38.6,16.6,92.2,34.9c22.1,7.5,50.6,15.4,50.1,18.1c-0.5,2.4-22.7-5.5-41.5,7
	c-5.1,3.4-8.2,7.1-13.8,14C1053.9,205.8,1055.7,215,1046.9,219.2z"/>
<path class="st0" d="M1373.1,1023.7c-4.8,1.9-24.8-56.6-73.1-146.5c-28.3-52.6-31.7-51.6-60.6-107.5c-31.1-60-46.7-90-54-113
	c-9.6-30.3-12.9-56.6-31-73.3c-2.2-2-7.7-6.7-7.3-12.6c0.9-13.3,31.6-20.5,33.6-20.9c7.8-1.7,18.4-3,33.6-0.7
	c35,5.2,40.9,21,59.3,16.7c19.6-4.5,30.9-26.5,32.3-29.3c9.4-18.9,3.9-34.1,10.6-37c7.2-3.1,16.6,13.2,38.2,34.9
	c29.1,29.3,38.7,26.6,60.6,53c9.8,11.8,31.9,38.4,25,50.9c-5.7,10.3-25,0.4-62.6,4.9c-18.3,2.2-47.5,5.7-72.5,27.2
	c-7.8,6.7-33.1,30.6-36.2,65.6c-1.9,20.9,5.4,32.4,29,80.2c25.3,51.3,41.9,85,55.4,123.5C1366.9,978.8,1377.1,1022.1,1373.1,1023.7z
	"/>
<path class="st0" d="M1328.3,531.8c-4.6,0.4-1.8,17.3-11.9,30c-11.5,14.5-25.8,5.7-37.6,18.8c-2.6,2.9-4.6,6.3-9.9,52.3
	c-2.8,24.2-2.8,28.6,0,30.7c5.9,4.4,16.7-7,42.8-21.6c20.5-11.5,33.6-18.8,50.1-20.9c32-4.2,52.7,14.1,56.7,7.7
	c3.9-6.4-12.9-30.2-34.3-45.4c-20-14.2-34.1-13.8-44.8-31.4C1333.2,541.8,1331.8,531.5,1328.3,531.8z"/>
<path class="st0" d="M1419.8,845.8c-17,7.5-19.6,15.2-34.9,24.4c-16.4,9.8-21.6,5.9-25.7,13.3c-3.8,6.8-1.5,14.2,5.3,38.4
	c6.3,22.7,9.5,34,10.5,38.4c7.8,33.5,3.4,43.4,13.8,57.2c2.5,3.3,10.7,14.1,23.1,15.4c18.4,1.9,34.3-18.1,40.9-33.5
	c5.7-13.2,1.4-15.9,5.3-34.2c6.7-31.3,25.4-52.9,38.9-68.4c11.3-13,17-19.5,24.4-23.7c35.2-20.1,79.7,1.4,95.5,9.1
	c10.3,5,20.1,9.7,31,19.5c17.7,16,21.3,30.2,30.3,30c9.8-0.3,18.7-17.4,21.8-30.7c8.4-36.2-15.2-89.7-54-108.2
	c-25.5-12.1-71.7,2.6-164.1,32.1c-20.3,6.5-24.2,8.7-50.1,16.7C1426.6,843.2,1423.9,844,1419.8,845.8z"/>
<path class="st0" d="M1501.6,1032.8c-2.4-12.6,19.6-34.1,40.8-37c20.2-2.7,30.2,12.8,49.4,6.3c2.2-0.8,4.1-1.6,27-21.6
	c23.6-20.6,25.5-22.9,31.6-25.1c12.2-4.3,28.9-3.6,40.8,5.6c17.4,13.3,23.6,43.7,15.8,62.1C1683.1,1079.6,1507.8,1065,1501.6,1032.8
	z"/>
<path class="st0" d="M1476.5,646.9c-4.9-0.2-15.8-0.6-22.4,7c-6.9,7.9-6.9,21.7-2.6,31.4c6.2,14.1,18,11.7,30.3,27.2
	c10.5,13.2,12.5,28.3,13.2,32.8c4.2,29.9-13.8,48-7.3,55.1c5.6,6,19.8-5.6,48.1-14.7c41.6-13.3,62.7-4.8,67.2-16
	c2.9-7.1-3.6-15.5-42.2-57.2C1516.7,664.6,1499.7,648,1476.5,646.9z"/>
<path class="st0" d="M1162.2,189.9c-3.5,5.7,11.5,16.6,17.1,46.1c2,10.4,4.3,23.6-1.3,38.4c-1.7,4.4-9,21.8-25,28.6
	c-7.5,3.2-11.5,1.8-12.5,4.2c-3.3,8,38.4,33.3,64.6,50.9c7.2,4.9,75.5,51.4,133.8,115.1c41.9,45.9,60.8,81,83.7,75.4
	c4.9-1.2,7.6-3.7,25.7-25.1c45.7-54.2,43.7-57.1,54-63.5c32.9-20.4,58.2,5.6,78.4-15.4c15-15.6,15.4-45,7.3-64.9
	c-8.8-21.2-27.2-31.3-36.9-36.3c-64.6-33.7-113.8-41.3-170.7-62.8c-13.2-5-50.6-22.9-125.2-58.6
	C1218.6,204.5,1168.3,180.1,1162.2,189.9z"/>
<path class="st0" d="M1685.4,402c-6-6.8-22.5-13.8-55.3-27.9c-12.9-5.5-20.7-8.3-23.7-4.9c-4.8,5.4,9.1,18,9.2,39.8
	c0.1,21.7-13.7,30.4-8.6,42.6c3.2,7.7,10.8,9.1,25,14.7c41.9,16.3,48.2,32,58,27.2C1706.6,485.2,1710,429.8,1685.4,402z"/>
<path class="st0" d="M1356.6,101.2c-9.3,13.4,10.4,31.3,4,60.7c-3,13.5-8.1,14.1-10.5,30.7c-2.3,15.4,0.8,23.3-4.6,28.6
	c-7.8,7.5-23-0.1-24.4,3.5c-1.4,3.8,14.6,13.8,17.1,15.4c20.8,12.8,44,27.2,52.1,19.5c7.9-7.5-9.5-26-3.3-55.1
	c0.6-2.7,5.5-24.3,23.1-38.4c22-17.6,40.7-5,57.3-23c7.6-8.2,14.1-22.2,10.5-34.2c-5-16.7-27.5-21.7-36.9-23.7
	c-14.4-3.1-30.2,0.5-61.9,7.7C1360.8,97,1358.4,98.6,1356.6,101.2z"/>
<path class="st0" d="M362.9,180.8c-15.6,11.2-24.8,32.9-19.8,39.1c4.4,5.5,17.3-4.8,51.4-15.4c39.8-12.3,57.1-9.1,63.3-23
	c4.4-9.9,1.2-24.3-5.9-28.6c-8.8-5.3-17.5,8.1-44.1,16.7C383.4,177.5,376.5,171.1,362.9,180.8z"/>
<path class="st0" d="M868.3,4.9c-5.1,7.7-6.1,16.4-6.6,20.9c-0.6,5.5-2.8,24.2,5.9,30.7c6.3,4.7,12.5-1.2,32.3-4.2
	c10.9-1.7,24.4-3.7,38.9,0.7c10.3,3.2,18.3,9.5,34.3,22.3c15.1,12,14.2,13.5,22.4,19.5c22.9,17,34.6,9.7,72.5,25.8
	c19.3,8.2,31.2,16.5,33,14c3.3-4.8-40.3-33-34.9-57.2c1.5-6.8,10.2-13.4,27.7-26.5c22.6-17,30.7-18.4,36.3-30
	c3.5-7.4,7.8-22.7,1.3-32.1c-7.1-10.2-23.4-8.3-98.2,3.5c-44.8,7.1-46.6,7.6-54,7c-31-2.6-39.6-15.1-69.8-12.6
	C898.1-12.3,878.3-10.3,868.3,4.9z"/>
<path class="st0" d="M1142.4,12.6c-10.3,15.5-13.5,33.7-32.9,44.7c-11.4,6.5-21.3,6.4-25,15.4c-4.2,10,3.1,22.4,7.9,30.7
	c6.1,10.5,12.6,16.7,38.9,38.4c17.2,14.2,25.9,21.4,31.6,25.1c7.5,4.8,39.8,25.9,46.8,18.1c5.7-6.3-13.4-23.1-8.6-47.4
	c2.2-10.8,9.4-24.7,21.1-31.4c5.6-3.2,8.7-2.8,23.7-9.8c12-5.6,13.5-7.5,14.5-9.1c3.9-6.5-0.1-12-2-30c-1.5-13.9-2.4-23.3,2-32.8
	c3.8-8.2,7.8-8.2,9.9-15.4c2.9-10.1-1.6-21.8-5.9-27.2C1246.4-40.5,1171.1-30.6,1142.4,12.6z"/>
<path class="st0" d="M1693.3,169.6c-18.5-10.8-49.9-11.9-73.8,2.1c-6.2,3.6-21.1,12.4-29.7,30c-7.2,14.9-3.5,23-12.5,32.8
	c-7,7.5-16.4,10.5-29.7,14.7c-14.5,4.5-18.6,2.9-23.7,8.4c-5.8,6.2-1.6,9.3-9.2,23.7c-3.8,7.2-7.8,11.9-9.9,21.6
	c-0.8,3.8-1.2,5.7-0.7,7.7c2.8,9.8,24.1,11.1,32.3,11.9c5.1,0.5,30.7,11.7,81.7,34.2c67.2,29.6,68.6,31.2,73.8,29.3
	C1737.1,369.4,1752.5,204,1693.3,169.6z"/>
<path class="st0" d="M-26.9,369c26.2,8.1,43.3-8.9,126-47c15.3-7.1,35.8-16.5,62-27c75.1-30.2,108-33.5,108-45
	c0-11.8-34.7-25.5-67-26c-35.3-0.5-42.2,15.1-95,25c-10.6,2-4.8,0.3-68,7c-58.3,6.2-70.7,8.4-83,19c-1.6,1.4-27.5,24.4-22,53
	C-62.2,347.6-45,363.4-26.9,369z"/>
</svg>
