<svg width="1366" height="768" viewBox="0 0 1366 768" fill="none" xmlns="http://www.w3.org/2000/svg">
<path d="M673.397 54.0304C655.38 42.2221 633.676 45.3737 631.505 45.7149C612.845 48.6808 597.615 60.3886 589.613 73.9784C581.674 87.4678 583.154 101.263 586.12 128.849C589.513 160.38 591.209 176.142 602.994 183.163C615.959 190.886 633.876 184.694 655.939 177.066C689.923 165.318 699.085 150.985 717.613 154.895C732.332 158.001 733.801 168.585 744.959 167.641C765.605 165.895 776.658 128.292 778.122 123.304C782.252 109.252 785.903 96.817 779.286 85.616C769.936 69.7981 744.822 64.4385 727.506 65.6629C711.333 66.8071 704.105 73.5368 692.015 68.9901C683.054 65.6278 683.312 60.5342 673.397 54.0304Z" stroke="black" stroke-miterlimit="10"/>
<path d="M-27.5153 325.683C-11.8216 313.649 -9.56687 319.254 37.2825 299.085C81.7823 279.925 98.635 266.737 107.348 273.492C115.024 279.444 112.711 298.022 106.295 309.624C99.6623 321.623 90.1059 323.51 84.1687 338.731C80.7919 347.397 82.9571 349.169 79.4274 354.288C72.0626 364.972 57.4805 364.696 45.1847 368.339C30.5815 372.665 33.0838 378.712 2.51292 405.475C-30.3285 434.225 -39.4108 433.994 -43.8465 433.076C-56.5005 430.461 -62.875 415.788 -63.8654 413.504C-75.7871 386.044 -55.5207 347.156 -27.5153 325.683Z" stroke="black" stroke-miterlimit="10"/>
<path d="M-26.7251 338.482C-22.2314 334.161 -17.5691 329.68 -9.86711 325.936C5.25765 318.589 13.223 323.271 27.5365 315.398C38.1781 309.546 41.0387 302.962 44.3945 304.357C49.0515 306.289 48.9145 321.219 43.3409 333.464C37.0718 347.234 29.1117 346.241 22.7952 360.563C17.8906 371.684 21.652 374.629 15.9467 383.647C12.6225 388.902 10.6996 388.922 -3.54537 400.71C-19.2654 413.723 -19.5183 415.845 -26.1983 418.776C-29.2327 420.106 -45.1424 427.086 -53.0657 421.285C-67.1526 410.972 -52.2439 363.022 -26.7251 338.482Z" stroke="black" stroke-miterlimit="10"/>
<path d="M671.769 58.2042C655.459 47.5101 635.804 50.3656 633.839 50.6767C616.939 53.3615 603.152 63.9603 595.908 76.2704C588.717 88.4851 590.061 100.976 592.747 125.952C595.819 154.502 597.352 168.774 608.025 175.132C619.762 182.123 635.988 176.517 655.965 169.612C686.736 158.978 695.033 145.996 711.807 149.539C725.135 152.354 726.463 161.934 736.567 161.081C755.264 159.5 765.268 125.455 766.595 120.934C770.336 108.207 773.644 96.9511 767.649 86.809C759.183 72.4865 736.446 67.6338 720.763 68.7428C706.117 69.7766 699.574 75.8739 688.627 71.7538C680.514 68.7027 680.746 64.0908 671.769 58.2042Z" stroke="black" stroke-miterlimit="10"/>
<path d="M684.149 53.9391C677.227 41.2627 660.29 37.0071 647.799 33.8656C638.443 31.512 624.335 27.9691 607.762 33.3638C589.776 39.2202 580.31 51.8916 577.733 55.4446C569.357 67.0019 568.172 78.6947 566.144 101.614C563.536 131.061 562.235 145.785 570.358 156.816C576.279 164.855 584.772 169.392 590.377 183.413C592.231 188.05 592.59 190.775 595.645 193.45C597.626 195.181 604.153 199.883 625.673 194.955C633.207 193.229 641.209 190.639 660.443 181.406C685.108 169.562 687.921 166.155 698.373 165.347C702.73 165.011 714.083 164.132 725.241 169.863C735.835 175.303 736.841 181.872 745.26 183.413C754.937 185.185 763.846 178.385 768.439 174.882C781.462 164.945 785.85 151.592 790.039 138.248C794 125.621 797.914 113.151 794.78 97.0971C793.094 88.4655 789.886 72.0103 775.815 62.9722C761.538 53.7986 742.52 56.3881 731.036 57.9538C712.582 60.468 708.91 61.4667 708.91 61.4667C700.734 63.6948 696.187 66.0434 691.525 63.9758C687.184 62.0488 686.288 57.8534 684.149 53.9391Z" stroke="black" stroke-miterlimit="10"/>
<path d="M698.373 175.384C694.538 172.95 689.776 179.178 674.14 185.42C660.164 190.996 653.263 190.293 644.112 197.966C639.787 201.59 637.722 204.771 637.263 205.494C632.822 212.484 633.391 218.336 632.522 226.069C630.499 244.04 623.824 244.326 625.147 254.674C626.495 265.192 634.987 277.342 644.112 277.256C652.957 277.176 660.027 265.614 662.55 258.187C665.569 249.289 662.366 245.46 666.238 231.589C667.945 225.472 668.798 222.416 671.506 219.043C676.995 212.203 682.137 213.744 689.944 206.497C696.798 200.134 698.911 193.299 699.427 191.442C699.78 190.188 703.073 178.37 698.373 175.384Z" stroke="black" stroke-miterlimit="10"/>
<path d="M701.534 199.973C698.062 199.923 698.6 210.04 688.364 217.537C683.517 221.09 680.778 220.739 676.774 225.065C672.038 230.188 670.832 236.125 670.452 238.112C668.687 247.391 673.223 249.569 670.979 256.68C668.608 264.198 662.482 265.131 663.077 269.728C663.73 274.757 671.885 279.946 678.354 278.761C685.166 277.512 685.082 270.12 695.739 264.71C698.942 263.084 703.13 260.961 707.329 262.201C714.494 264.318 715.942 274.551 717.338 274.245C719.809 273.703 713.777 242.012 713.124 238.614C707.45 209.051 704.811 200.018 701.534 199.973Z" stroke="black" stroke-miterlimit="10"/>
<path d="M676.483 329.806C650.98 325.25 645.217 314.364 632.494 316.208C618.58 318.222 611.056 333.33 610.206 335.034C606.198 343.084 608.697 346.519 609.619 369.552C610.575 393.417 608.205 397.499 613.141 406.157C617.702 414.157 627.412 424.161 636.016 422.89C643.696 421.759 643.16 412.732 654.782 407.199C664.754 402.454 675.538 404.159 678.243 404.582C693.549 407 695.355 415.842 705.808 415.563C720.114 415.184 729.835 398.292 731.031 396.213C736.739 386.294 736.202 376.904 735.721 368.495C735.313 361.352 734.994 355.8 731.031 349.669C724.983 340.318 714.864 336.46 712.265 335.548C707.972 334.043 707.094 334.591 689.39 331.889C683.867 331.057 678.624 330.19 676.483 329.806Z" stroke="black" stroke-miterlimit="10"/>
<path d="M624.093 272.238C621.849 272.71 621.701 279.279 621.459 283.78C620.3 305.419 614.979 317.117 618.298 318.407C619.547 318.894 620.421 317.288 625.674 314.392C629.825 312.104 634.208 309.69 638.317 309.374C644.475 308.902 646.372 313.434 659.389 320.414C666.407 324.178 672.539 327.47 675.194 325.433C676.321 324.57 676.279 323.159 674.667 309.374C673.682 300.943 673.508 299.844 673.613 297.33C673.908 290.465 675.599 289.702 674.667 286.289C673.181 280.829 667.012 275.987 661.497 276.253C658.378 276.403 658.336 278.049 652.541 280.267C648.606 281.773 643.827 283.6 638.844 282.275C635.63 281.422 633.212 279.49 630.415 277.256C626.422 274.065 625.431 271.957 624.093 272.238Z" stroke="black" stroke-miterlimit="10"/>
<path d="M702.324 267.471C699.216 268.46 696.993 269.97 691.788 274.497C686.273 279.294 683.512 281.693 682.306 283.53C679.124 288.367 678.439 293.024 678.091 295.574C677.738 298.163 677.933 299.097 679.145 310.127C680.346 321.052 680.446 322.748 682.306 324.68C684.977 327.455 688.754 328.093 692.315 328.695C699.617 329.93 700.512 327.305 706.539 328.695C712.028 329.965 717.449 333.563 719.182 334.717C722.47 336.905 723.444 338.12 724.45 337.728C726.3 337.005 725.536 331.38 723.924 320.164C721.105 300.517 720.758 298.62 720.236 296.076C717.897 284.639 718.64 292.206 714.441 276.002C713.514 272.429 712.513 268.334 709.173 266.969C706.871 266.026 704.447 266.793 702.324 267.471Z" stroke="black" stroke-miterlimit="10"/>
<path d="M626.99 281.021C626.595 281.181 625.415 281.758 624.356 284.533C622.423 289.597 624.541 292.407 624.356 297.581C624.088 305.154 619.188 309.485 620.669 310.629C621.338 311.146 622.455 310.358 627.517 308.12C635.293 304.677 637.074 304.582 638.054 304.607C639.186 304.637 639.971 304.858 645.956 308.12C654.416 312.732 658.647 315.035 660.706 316.651C663.509 318.849 664.384 319.998 665.448 319.662C667.94 318.869 667.687 311.146 667.555 307.116C667.392 302.113 666.665 300.823 667.555 297.581C668.356 294.671 669.351 294.229 669.662 291.559C669.799 290.385 670.279 286.32 667.555 283.53C664.636 280.534 659.937 280.95 659.126 281.021C653.21 281.543 652.673 285.833 647.009 286.541C643.121 287.028 639.45 285.497 635.946 284.032C631.453 282.155 629.261 280.087 626.99 281.021Z" stroke="black" stroke-miterlimit="10"/>
<path d="M701.271 272.491C698.189 274.905 698.589 273.992 694.422 277.008C689.818 280.34 687.516 282.001 685.466 284.535C681.036 290.005 680.388 296.077 680.198 298.085C680.072 299.435 680.815 303.69 682.306 312.136C683.538 319.117 683.881 320.642 685.466 322.173C688.691 325.279 693.769 325.209 695.476 325.184C702.182 325.089 703.389 321.546 707.593 322.675C711.049 323.603 711.481 326.333 717.075 328.195C719.125 328.877 720.384 329.294 721.29 328.697C722.912 327.623 721.917 324.256 719.709 314.645C718.124 307.73 717.328 304.277 717.075 302.099C716.217 294.732 717.491 294.045 716.022 289.554C714.362 284.485 712.46 284.535 711.807 280.019C711.322 276.661 712.06 274.498 710.227 271.989C709.821 271.432 708.499 269.626 706.539 269.48C704.811 269.35 703.689 270.594 701.271 272.491Z" stroke="black" stroke-miterlimit="10"/>
<path d="M703.115 274.244C700.439 274.275 698.885 276.447 694.686 281.27C687.769 289.214 687.811 288.11 686.257 290.805C683.286 295.959 682.711 300.756 682.569 302.849C682.095 309.759 684.424 314.457 685.203 315.897C686.278 317.884 687.353 319.871 688.891 319.912C691.341 319.977 694.222 315.109 694.686 310.377C695.286 304.259 691.435 302.558 692.579 297.329C693.443 293.364 696.482 290.549 698.374 288.798C702.504 284.969 705.849 284.642 707.329 280.768C707.651 279.93 708.388 277.903 707.329 276.252C706.439 274.862 704.59 274.229 703.115 274.244Z" stroke="black" stroke-miterlimit="10"/>
<path d="M706.276 287.293C702.667 287.449 700.459 290.595 698.9 292.813C698.115 293.932 696.572 296.186 696.266 299.337C695.95 302.594 697.304 303.231 697.846 306.865C698.863 313.695 694.949 317.248 697.32 319.912C698.347 321.067 700.133 321.584 701.534 321.418C704.49 321.072 704.869 317.815 707.329 317.403C710.917 316.801 713.614 323.134 715.758 322.422C717.523 321.835 717.729 316.871 716.812 312.887C715.49 307.161 712.687 307.111 712.597 302.85C712.518 299.202 714.547 297.646 713.651 293.315C713.245 291.338 712.55 290.354 712.07 289.802C710.711 288.242 708.483 287.198 706.276 287.293Z" stroke="black" stroke-miterlimit="10"/>
<path d="M630.678 287.041C629.198 287.644 628.713 289.5 628.571 290.052C627.686 293.46 630.336 294.895 630.151 298.584C629.978 302.071 627.438 304.089 628.044 304.606C628.887 305.318 632.485 300.385 637.527 300.591C639.086 300.656 640.872 301.64 644.375 303.602C650.397 306.979 651.387 308.51 653.331 308.118C656.524 307.476 657.951 302.538 658.072 302.096C659.242 297.871 656.882 295.849 658.599 292.562C659.89 290.087 662.05 289.656 661.76 288.547C661.386 287.117 657.377 286.243 653.858 287.041C649.232 288.09 649.159 291.187 645.429 291.558C642.811 291.819 640.161 290.554 635.946 288.547C633.613 287.433 632.127 286.449 630.678 287.041Z" stroke="black" stroke-miterlimit="10"/>
<path d="M676.511 236.357C675.231 237.817 674.614 239.624 674.403 242.881C673.877 250.985 676.858 252.28 675.457 256.43C674.219 260.089 671.696 259.692 669.662 264.962C668.867 267.014 668.04 269.272 669.135 271.486C670.073 273.382 672.212 274.818 674.403 274.998C678.023 275.294 680.957 272.098 683.359 269.478C686.114 266.472 685.598 265.639 688.101 263.456C690.998 260.927 694.196 259.858 695.476 259.441C700.544 257.795 703.299 258.814 703.905 257.434C704.89 255.186 698.405 250.614 698.11 250.408C694.375 247.809 693.469 248.722 690.735 246.394C687.547 243.674 685.551 239.674 684.94 238.364C683.691 235.679 683.628 234.345 682.306 233.848C680.451 233.155 677.896 234.781 676.511 236.357Z" stroke="black" stroke-miterlimit="10"/>
<path d="M690.998 181.907C688.137 184.23 685.999 183.799 680.462 185.42C674.751 187.091 671.896 187.929 669.926 189.936C666.217 193.715 668.935 197.183 665.711 206.999C663.841 212.685 661.539 215.761 662.55 216.534C663.024 216.895 664.004 216.594 670.452 212.519C675.831 209.116 676.737 208.319 680.462 205.995C686.367 202.312 686.81 202.613 689.418 200.475C691.446 198.809 694.27 196.44 696.266 192.445C699.095 186.785 698.063 182.263 697.847 181.405C697.583 180.336 697.035 178.138 695.739 177.892C694.333 177.626 693.437 179.93 690.998 181.907Z" stroke="black" stroke-miterlimit="10"/>
<path d="M727.875 469.462C716.259 478.57 724.287 491.347 714.705 516.634C710.343 528.152 706.244 531.925 707.856 539.719C708.894 544.742 712.776 549.158 720.499 557.785C732.29 570.953 734.76 570.306 740.518 578.862C745.802 586.711 744.954 589.09 750.528 595.423C754.131 599.518 763.166 608.39 767.386 606.463C771.253 604.697 769.14 593.385 764.752 570.833C760.058 546.704 752.408 522.998 750.001 498.568C748.294 481.27 748.874 468.182 741.572 465.447C735.882 463.319 728.791 468.739 727.875 469.462Z" stroke="black" stroke-miterlimit="10"/>
<path d="M781.083 672.201C781.204 669.466 781.631 663.244 778.449 661.663C776.01 660.453 773.544 663.008 765.805 666.681C755.316 671.664 752.498 670.465 744.206 675.714C742.146 677.019 740.55 678.259 737.357 680.733C726.842 688.888 727.706 690.293 723.133 692.777C714.71 697.359 710.59 693.238 703.641 698.297C701.044 700.189 699.453 702.738 696.266 707.832C692.515 713.834 689.223 719.098 687.837 726.4C686.868 731.499 685.129 740.637 689.418 746.473C697.926 758.056 720.463 743.387 757.376 750.99C775.683 754.759 786.372 761.709 792.146 756.51C795.196 753.765 794.722 749.57 792.673 735.935C782.805 670.335 780.698 681.039 781.083 672.201Z" stroke="black" stroke-miterlimit="10"/>
<path d="M701.534 742.963C697.462 740.866 692.942 736.359 692.578 730.919C692.32 727.04 694.401 726.132 702.061 713.857C707.192 705.627 707.145 704.608 709.436 703.318C715.468 699.916 719.809 704.708 727.875 702.315C730.899 701.416 731.499 700.382 742.099 690.772C754.737 679.315 756.57 678.352 758.957 678.226C768.076 677.75 775.404 690.065 775.815 690.772C781.952 701.356 775.799 706.144 781.083 721.384C784.518 731.301 789.227 735.34 786.878 739.45C785.044 742.657 780.403 743.295 772.654 743.967C736.167 747.134 734.581 742.06 715.231 744.469C712.134 744.855 706.76 745.658 701.534 742.963Z" stroke="black" stroke-miterlimit="10"/>
<path d="M745.786 602.445C728.001 597.076 712.639 600.031 705.749 601.442C697.388 603.148 690.018 604.744 682.569 610.475C679.529 612.818 672.565 618.173 669.926 627.035C668.14 633.022 669.757 635.817 676.247 659.153C680.799 675.523 680.962 677.595 684.149 681.234C684.882 682.072 694.449 692.661 707.856 691.772C714.067 691.361 718.803 688.641 722.08 686.754C728.275 683.191 728.46 680.978 734.197 676.717C737.537 674.233 738.806 673.997 756.323 666.68C769.967 660.98 772.064 659.931 773.707 657.146C774.809 655.279 774.598 654.521 774.761 641.087C774.909 629.008 775.114 627.025 773.707 623.522C771.785 618.73 768.708 615.744 766.332 613.486C764.947 612.166 758.588 606.309 745.786 602.445Z" stroke="black" stroke-miterlimit="10"/>
<path d="M939.448 180.579C938.694 177.483 938.01 176.273 932.894 166.161C924.829 150.203 924.233 148.652 921.368 146.268C919.924 145.069 913.107 139.398 904.831 140.347C903.535 140.497 901.538 140.884 891.15 147.884C883.068 153.334 878.959 156.129 875.783 159.632C872.611 163.13 869.176 166.919 867.649 172.896C867.169 174.783 864.735 184.328 870.072 190.124C873.48 193.822 876.283 191.895 882.389 196.176C886.551 199.097 885.945 200.482 892.493 207.528C898.098 213.56 900.901 216.581 904.947 217.599C908.26 218.438 911.827 217.564 918.965 215.818C925.482 214.227 928.738 213.429 931.488 211.402C937.209 207.181 938.805 200.863 939.727 197.195C941.608 189.788 940.206 183.715 939.448 180.579Z" stroke="black" stroke-miterlimit="10"/>
<path d="M944.247 184.988C943.499 169.993 936.529 159.264 933.342 154.476C929.47 148.67 925.983 143.571 919.034 139.632C916.194 138.021 909.699 134.343 901.554 134.945C896.049 135.356 894.205 137.394 876.699 149.137C864.419 157.372 862.744 158.105 860.653 161.577C860.173 162.375 854.173 172.698 858.84 182.559C861.006 187.126 864.656 189.901 867.185 191.823C871.963 195.451 873.86 194.945 879.086 198.026C882.131 199.817 882.7 200.706 893.921 211.781C902.661 220.408 904.152 221.682 906.949 222.104C908.824 222.39 909.393 222.004 920.614 218.19C930.703 214.762 932.415 214.33 934.912 212.243C938.331 209.382 939.911 206.191 941.097 203.732C941.776 202.296 944.784 195.783 944.247 184.988Z" stroke="black" stroke-miterlimit="10"/>
<path d="M1003.83 147.593C1014.64 158.518 1027.26 162.347 1032.96 164.003C1039.86 166.015 1046 167.722 1053.96 166.407C1057.22 165.87 1064.67 164.64 1070.43 159.13C1074.33 155.407 1074.34 152.717 1079.62 132.949C1083.33 119.084 1084.09 117.493 1083.31 113.558C1083.14 112.655 1080.64 101.093 1070.36 96.5009C1065.6 94.3731 1060.93 94.5287 1057.7 94.6391C1051.58 94.8448 1050.49 96.4056 1044.43 97.3038C1040.89 97.8308 1039.85 97.5096 1023.76 96.0543C1011.23 94.9201 1009.23 94.875 1006.82 96.2901C1005.2 97.2336 1005.04 97.881 999.119 107.732C993.799 116.589 992.792 117.975 992.324 121.111C991.676 125.402 992.661 128.809 993.44 131.404C993.883 132.919 996.048 139.729 1003.83 147.593Z" stroke="black" stroke-miterlimit="10"/>
<path d="M999.841 145.107C1012.91 157.919 1027.92 162.636 1034.68 164.684C1042.9 167.163 1050.18 169.281 1059.56 167.971C1063.39 167.434 1072.15 166.209 1078.81 160.027C1083.31 155.851 1083.25 152.755 1088.94 130.192C1092.92 114.364 1093.79 112.553 1092.76 108.016C1092.52 106.972 1089.26 93.6386 1076.99 88.1033C1071.31 85.5389 1065.8 85.6042 1061.98 85.6494C1054.77 85.7347 1053.53 87.4961 1046.39 88.3793C1042.22 88.8912 1040.99 88.4998 1021.95 86.4272C1007.12 84.8113 1004.76 84.7109 1001.95 86.2716C1000.07 87.3155 999.878 88.0532 993.167 99.219C987.129 109.256 985.981 110.822 985.507 114.41C984.864 119.323 986.113 123.257 987.108 126.258C987.688 128.004 990.432 135.878 999.841 145.107Z" stroke="black" stroke-miterlimit="10"/>
<path d="M760.537 685.25C757.008 686.791 755.374 686.033 752.635 686.756C749.869 687.488 749.527 688.793 742.099 696.291C736.825 701.61 736.662 701.289 736.304 702.313C734.676 706.96 739.465 709.394 744.206 720.379C747.451 727.896 747.051 731.028 751.055 733.928C752.709 735.128 755.738 736.739 759.484 736.939C764.968 737.23 766.833 734.224 770.547 735.434C774.203 736.623 774.187 740.116 777.395 740.452C779.977 740.723 783.053 738.781 783.717 736.438C784.47 733.763 781.631 732.162 778.976 727.404C775.91 721.899 775.562 716.605 775.288 712.349C774.819 705.098 776.673 704.325 775.288 698.8C774.25 694.67 772.443 692.035 770.547 689.265C766.864 683.895 764.752 683.75 764.225 683.745C762.955 683.725 762.518 684.382 760.537 685.25Z" stroke="black" stroke-miterlimit="10"/>
<path d="M731.562 706.829C728.56 705.193 726.953 707.491 721.553 706.829C717.054 706.277 715.763 704.385 713.124 705.323C711.675 705.84 710.911 706.844 709.436 708.836C706.165 713.258 706.923 714.929 704.168 718.873C702.056 721.894 701.244 721.437 698.9 724.895C697.162 727.465 695.676 729.653 695.739 731.921C695.881 737.1 704.042 740.703 705.749 741.456C713.64 744.939 717.57 742.65 738.411 742.46C745.681 742.394 752.271 742.605 752.635 740.954C752.983 739.383 747.193 738.39 744.206 732.925C743.216 731.108 744.043 731.565 742.099 724.895C740.497 719.395 739.317 716.986 738.411 715.36C737.911 714.462 737.047 713.012 735.777 711.346C733.854 708.816 732.895 707.552 731.562 706.829Z" stroke="black" stroke-miterlimit="10"/>
<path d="M757.903 702.311C757.476 702.482 755.822 703.159 754.742 704.82C752.84 707.746 755.09 710.04 756.323 718.872C756.723 721.747 756.697 723.027 757.903 724.392C759.557 726.269 762.776 727.453 764.752 726.399C767.639 724.859 766.985 719.012 766.859 717.868C766.564 715.234 765.737 714.315 766.332 712.348C766.97 710.245 768.297 710.035 768.439 708.333C768.661 705.684 765.658 703.576 765.278 703.315C765.105 703.195 761.57 700.861 757.903 702.311Z" stroke="black" stroke-miterlimit="10"/>
<path d="M710.496 720.087C710.222 719.961 709.147 719.48 707.804 719.695C705.449 720.077 705.243 722.149 701.192 726.601C699.87 728.051 699.195 728.598 699.016 729.767C698.763 731.373 699.559 733.406 700.976 733.877C703.041 734.565 705.796 731.694 706.334 731.132C707.572 729.838 707.688 729.045 708.973 728.463C710.343 727.845 711.038 728.377 711.981 727.695C713.456 726.636 713.235 724.297 713.203 724.006C713.188 723.871 712.856 721.181 710.496 720.087Z" stroke="black" stroke-miterlimit="10"/>
<path d="M709.436 510.108C712.829 515.407 698.647 523.281 698.373 535.701C698.199 543.545 703.657 549.682 709.963 556.778C717.707 565.49 722.528 565.907 730.509 575.848C731.468 577.043 740.223 587.943 737.884 590.402C735.503 592.906 725.936 582.051 711.544 582.372C700.454 582.618 690.898 589.398 680.989 596.424C670.157 604.107 667.175 609.165 663.604 607.966C658.636 606.295 656.997 594.045 659.916 583.878C664.057 569.455 674.398 569.62 677.301 556.778C679.919 545.206 672.307 541.613 676.247 528.676C679.103 519.306 685.171 514.358 686.783 513.119C689.17 511.282 696.224 505.842 704.168 507.598C706.476 508.105 708.435 508.542 709.436 510.108Z" stroke="black" stroke-miterlimit="10"/>
<path d="M678.355 572.338C676.342 576.017 672.038 574.541 667.818 577.859C660.427 583.665 663.419 596.201 663.604 596.928C663.973 598.384 664.689 601.209 666.238 601.445C667.897 601.696 668.946 598.73 673.086 594.419C674.999 592.427 677.18 590.159 680.462 588.397C685.066 585.928 686.668 587.228 690.471 584.884C691.451 584.277 695.381 581.853 696.793 577.357C698.61 571.566 694.97 566.432 693.105 563.807C691.256 561.203 689.102 558.162 686.257 558.287C682.88 558.432 680.33 562.959 679.408 565.815C678.307 569.212 679.535 570.18 678.355 572.338Z" stroke="black" stroke-miterlimit="10"/>
<path d="M493.992 620.702C461.24 600.396 460.998 594.277 448.189 593.239C437.075 592.338 436.228 596.863 399.754 610.045C371.678 620.193 363.102 620.792 360.269 627.67C357.426 634.572 364.607 637.527 370.798 657.591C375.679 673.404 372.162 674.618 376.59 679.315C387.477 690.857 407.104 681.815 432.395 693.661C449.468 701.658 449.479 709.974 460.298 710.056C474.018 710.163 476.139 696.805 500.309 687.513C516.261 681.377 522.695 684.369 529.265 678.085C538.257 669.486 535.456 655.054 529.791 645.705C524.095 636.306 517.435 635.236 493.992 620.702Z" stroke="black" stroke-miterlimit="10"/>
<path d="M500.424 610.101C464.606 582.932 464.342 574.742 450.334 573.357C438.181 572.152 437.254 578.204 397.363 595.844C366.661 609.424 357.278 610.226 354.181 619.425C351.072 628.664 358.922 632.618 365.697 659.462C371.033 680.624 367.188 682.245 372.029 688.528C383.935 703.97 405.403 691.875 433.06 707.723C451.73 718.422 451.741 729.548 463.573 729.664C478.577 729.804 480.9 711.934 507.33 699.498C524.778 691.288 531.811 695.293 538.997 686.882C548.827 675.375 545.766 656.064 539.571 643.553C533.349 630.982 526.064 629.547 500.424 610.101Z" stroke="black" stroke-miterlimit="10"/>
<path d="M560.112 467.577C551.056 463.186 534.129 454.976 512.572 459.116C504.38 460.687 487.817 463.868 480.078 477.252C475.948 484.388 476.122 491.685 476.47 506.268C476.67 514.649 476.976 524.119 481.285 535.285C485.257 545.572 488.824 554.821 496.331 557.044C506.909 560.181 519.963 547.775 531.838 536.494C543.354 525.549 545.166 519.788 555.307 515.944C563.246 512.933 566.813 514.694 572.76 510.504C579.293 505.902 584.977 496.749 583.592 488.137C581.98 478.181 571.617 473.152 560.112 467.577Z" stroke="black" stroke-miterlimit="10"/>
<path d="M312.473 411.128C285.39 404.559 269.591 400.951 249.272 407.244C239.926 410.139 227.225 415.87 215.039 427.433C206.631 435.407 196.59 444.932 193.314 460.82C191.333 470.425 193.308 479.388 197.265 497.313C202.401 520.584 209.592 535.955 213.722 543.899C220.139 556.234 223.347 562.407 228.204 564.861C233.235 567.405 239.784 567.53 272.314 548.556C297.122 534.088 299.545 530.379 311.156 527.594C325.617 524.121 328.019 528.387 338.15 523.71C357.184 514.923 365.286 492.19 366.461 488.772C367.815 484.823 376.897 457.136 365.144 435.974C357.394 422.023 342.422 418.39 312.473 411.128Z" stroke="black" stroke-miterlimit="10"/>
<path d="M1147.45 510.921C1126.32 505.792 1113.99 502.982 1098.14 507.89C1090.85 510.148 1080.94 514.62 1071.43 523.638C1064.87 529.86 1057.04 537.287 1054.48 549.688C1052.93 557.185 1054.48 564.176 1057.56 578.157C1061.57 596.314 1067.18 608.307 1070.4 614.505C1075.41 624.13 1077.91 628.943 1081.7 630.86C1085.63 632.847 1090.74 632.943 1116.11 618.138C1135.47 606.852 1137.36 603.957 1146.42 601.784C1157.7 599.074 1159.57 602.401 1167.47 598.753C1182.32 591.897 1188.65 574.163 1189.56 571.493C1190.61 568.411 1197.7 546.812 1188.53 530.302C1182.49 519.422 1170.81 516.592 1147.45 510.921Z" stroke="black" stroke-miterlimit="10"/>
<path d="M439.603 303.551C430.632 299.797 400.119 287.036 372.846 300.289C364.659 304.269 359.349 309.332 351.731 316.594C339.604 328.161 330.632 336.718 331.191 346.488C331.707 355.557 339.883 356.124 359.723 375.299C378.288 393.239 380.943 402.227 396.242 407.913C403.016 410.427 410.65 413.263 417.356 410.086C428.841 404.646 422.308 388.813 436.184 373.126C443.555 364.795 447.332 367.069 460.149 354.643C469.59 345.495 474.768 340.471 474.984 333.988C475.49 318.561 447.463 306.838 439.603 303.551Z" stroke="black" stroke-miterlimit="10"/>
<path d="M1303.67 368.258C1294.7 364.504 1264.19 351.743 1236.92 364.996C1228.73 368.976 1223.42 374.039 1215.8 381.301C1203.67 392.868 1194.7 401.425 1195.26 411.195C1195.78 420.264 1203.95 420.831 1223.79 440.006C1242.36 457.946 1245.01 466.934 1260.31 472.62C1267.09 475.134 1274.72 477.97 1281.43 474.793C1292.91 469.353 1286.38 453.52 1300.25 437.833C1307.62 429.502 1311.4 431.776 1324.22 419.35C1333.66 410.202 1338.84 405.178 1339.05 398.695C1339.56 383.268 1311.53 371.545 1303.67 368.258Z" stroke="black" stroke-miterlimit="10"/>
<path d="M1323.14 359.97C1310.75 354.952 1268.61 337.884 1230.95 355.609C1219.64 360.929 1212.31 367.703 1201.79 377.419C1185.05 392.891 1172.66 404.333 1173.42 417.4C1174.13 429.525 1185.42 430.287 1212.82 455.926C1238.46 479.919 1242.13 491.943 1263.26 499.541C1272.61 502.908 1283.15 506.697 1292.41 502.447C1308.27 495.17 1299.25 473.992 1318.41 453.016C1328.59 441.875 1333.81 444.916 1351.51 428.3C1364.54 416.065 1371.7 409.346 1371.99 400.674C1372.7 380.049 1333.99 364.366 1323.14 359.97Z" stroke="black" stroke-miterlimit="10"/>
<path d="M489.371 136.563C454.591 129.342 454.349 125.663 442.975 127.259C431.938 128.805 424.221 133.718 408.79 143.544C393.06 153.56 384.689 158.885 384.373 167.386C384.046 176.123 392.327 185.522 401.468 187.74C410.402 189.908 413.484 183.59 431.38 180.183C443.929 177.794 454.791 178.542 459.464 179.018C476.696 180.78 479.093 185.934 488.154 183.67C496.673 181.543 501.741 175.199 508.911 166.227C515.796 157.61 520.596 151.603 518.678 146.454C516.676 141.095 508.879 140.613 489.371 136.563Z" stroke="black" stroke-miterlimit="10"/>
<path d="M128.737 421.808C118.627 417.176 109.593 417.844 95.5478 418.883C79.1587 420.097 70.9615 420.699 63.5861 426.495C61.5052 428.131 57.4857 433.832 49.4518 445.234C44.5472 452.189 42.5505 455.446 40.8489 459.873C38.4151 466.181 36.0918 472.218 39.0051 476.855C43.2196 483.559 55.5154 482.761 56.216 482.711C70.0975 481.652 71.3355 470.451 85.1064 468.073C96.2432 466.151 98.9247 472.875 111.537 470.416C120.645 468.64 126.682 463.676 130.591 460.465C136.802 455.361 146.843 447.101 145.342 437.631C143.93 428.774 133.257 423.881 128.737 421.808Z" stroke="black" stroke-miterlimit="10"/>
<path d="M1292.62 657.145C1283.96 653.171 1276.21 653.748 1264.17 654.636C1250.12 655.675 1243.1 656.192 1236.77 661.16C1234.99 662.56 1231.54 667.448 1224.66 677.219C1220.45 683.18 1218.74 685.971 1217.28 689.764C1215.2 695.169 1213.21 700.343 1215.7 704.318C1219.32 710.064 1229.85 709.381 1230.45 709.336C1242.35 708.428 1243.41 698.828 1255.21 696.79C1264.76 695.139 1267.06 700.905 1277.87 698.798C1285.67 697.272 1290.85 693.021 1294.2 690.266C1299.52 685.89 1308.13 678.814 1306.84 670.695C1305.64 663.117 1296.49 658.922 1292.62 657.145Z" stroke="black" stroke-miterlimit="10"/>
<path d="M1296.15 655.166C1286.04 650.534 1277.01 651.201 1262.96 652.24C1246.57 653.454 1238.38 654.057 1231 659.853C1228.92 661.489 1224.9 667.19 1216.87 678.591C1211.96 685.547 1209.97 688.804 1208.26 693.23C1205.83 699.538 1203.51 705.575 1206.42 710.212C1210.63 716.917 1222.93 716.119 1223.63 716.069C1237.51 715.01 1238.75 703.809 1252.52 701.43C1263.66 699.508 1266.34 706.233 1278.95 703.774C1288.06 701.997 1294.1 697.034 1298.01 693.822C1304.22 688.719 1314.26 680.458 1312.76 670.989C1311.35 662.131 1300.67 657.238 1296.15 655.166Z" stroke="black" stroke-miterlimit="10"/>
<path d="M1301.6 653.03C1289.06 647.279 1277.86 648.107 1260.42 649.396C1240.08 650.902 1229.92 651.65 1220.77 658.841C1218.18 660.868 1213.2 667.944 1203.22 682.091C1197.14 690.723 1194.66 694.762 1192.54 700.253C1189.53 708.076 1186.64 715.569 1190.26 721.32C1195.48 729.635 1210.74 728.652 1211.61 728.586C1228.84 727.272 1230.37 713.376 1247.45 710.425C1261.27 708.036 1264.6 716.387 1280.25 713.33C1291.55 711.122 1299.04 704.965 1303.89 700.98C1311.6 694.647 1324.06 684.4 1322.19 672.646C1320.45 661.676 1307.22 655.604 1301.6 653.03Z" stroke="black" stroke-miterlimit="10"/>
<path d="M-2.28642 621.514C3.60861 619.02 13.028 618.769 27.7419 610.975C39.9586 604.507 39.7742 601.345 51.9752 594.415C61.8898 588.784 80.9288 577.974 94.647 584.378C97.7552 585.828 101.638 590.365 109.398 599.433C119.038 610.699 120.25 614.679 125.729 615.994C127.752 616.48 129.043 616.285 144.167 611.979C158.254 607.969 159.582 607.437 162.079 607.964C168.606 609.339 171.193 615.417 177.883 626.532C177.883 626.532 186.56 640.945 199.483 657.646C213.633 675.928 218.184 675.512 221.082 685.247C224.085 695.339 221.672 704.111 218.448 715.859C218.448 715.859 213.375 734.337 203.17 748.981C180.201 781.946 48.9724 823.022 -5.44729 758.014C-43.7518 712.256 -28.4005 632.564 -2.28642 621.514Z" stroke="black" stroke-miterlimit="10"/>
<path d="M-8.42915 614.902C-2.16536 612.253 7.82826 611.987 23.4588 603.711C36.4341 596.841 36.234 593.484 49.1935 586.127C59.7245 580.15 79.9383 568.668 94.5046 575.468C97.8077 577.009 101.927 581.826 110.167 591.457C120.403 603.42 121.693 607.646 127.509 609.041C129.659 609.558 131.028 609.352 147.091 604.78C162.052 600.52 163.464 599.958 166.109 600.52C173.042 601.98 175.786 608.434 182.893 620.237C182.893 620.237 192.107 635.543 205.831 653.278C220.855 672.689 225.691 672.247 228.768 682.585C231.955 693.299 229.395 702.618 225.971 715.089C225.971 715.089 220.581 734.711 209.75 750.258C185.359 785.266 46.0116 828.881 -11.7744 759.848C-52.4548 711.26 -36.1605 626.635 -8.42915 614.902Z" stroke="black" stroke-miterlimit="10"/>
<path d="M246.896 635.566C235.959 638.306 230.217 634.507 225.823 639.079C219.87 645.271 224.838 658.018 225.296 659.152C230.08 671.006 238.883 670.423 241.628 680.229C242.602 683.707 241.722 684.595 237.413 704.318C233.752 721.069 233.467 724.627 235.833 726.9C239.431 730.363 247.233 728.993 252.164 726.9C261.483 722.946 264.486 714.746 271.656 700.805C273.242 697.718 281.955 680.776 291.675 666.68C306.057 645.823 314.054 643.66 314.854 632.053C315.581 621.499 309.95 608.999 301.157 606.459C294.951 604.668 288.414 608.778 275.344 616.998C257.68 628.109 257.327 632.951 246.896 635.566Z" stroke="black" stroke-miterlimit="10"/>
<path d="M269.022 636.068C264.786 639.375 260.372 640.363 252.691 642.09C241.412 644.619 236.849 643.415 234.779 646.606C233.409 648.719 233.889 651.579 236.886 658.148C244.23 674.237 249.467 674.875 251.637 682.739C255.53 696.85 242.455 708.583 247.423 712.849C249.714 714.816 254.429 713.968 257.432 712.347C265.634 707.911 261.778 697.287 269.022 680.229C271.25 674.985 275.043 666.047 283.773 658.148C292.997 649.803 298.955 650.556 304.318 642.09C305.509 640.213 311.873 630.166 306.952 622.518C304.097 618.082 298.434 615.989 293.782 615.994C286.818 615.999 281.945 620.701 278.504 624.024C272.678 629.649 274.127 632.083 269.022 636.068Z" stroke="black" stroke-miterlimit="10"/>
<path d="M263.49 744.216C262.8 741.551 263.648 740.221 275.08 720.63C284.858 703.873 295.041 687.328 304.581 670.446C320.022 643.116 323.584 631.96 331.976 631.804C339.535 631.664 345.525 640.556 346.726 642.343C352.99 651.647 348.428 657.363 352.521 675.464C354.671 684.979 356.346 691.95 362.531 698.047C368.162 703.597 375.943 706.859 378.862 708.084C388.055 711.938 390.562 710.477 394.666 714.106C400.435 719.209 401.12 727.103 401.515 731.67C402.147 738.997 400.451 744.818 399.934 746.223C391.405 769.463 270.465 771.019 263.49 744.216Z" stroke="black" stroke-miterlimit="10"/>
<path d="M275.343 743.963C274.532 742.809 273.673 740.536 276.924 732.421C282.355 718.877 289.641 713 297.469 702.311C303.501 694.071 306.657 687.336 311.167 677.721C320.892 656.975 321.345 646.175 326.971 645.603C331.333 645.162 336.891 651.063 338.034 657.146C339.293 663.86 334.689 668.231 320.649 687.758C308.137 705.161 306.963 708.413 307.479 712.348C308.522 720.287 315.486 723.8 313.801 730.916C312.779 735.242 309.286 737.831 306.425 739.949C296.126 747.582 279.379 749.699 275.343 743.963Z" stroke="black" stroke-miterlimit="10"/>
<path d="M338.561 685.249C329.326 685.489 320.981 695.702 318.542 704.318C317.578 707.731 318.257 708.333 319.069 722.384C320.07 739.718 319.2 741.811 321.703 744.465C324.479 747.406 327.424 746.824 346.99 747.476C366.113 748.114 369.943 748.886 375.964 745.971C378.662 744.666 386.569 740.832 387.554 734.429C388.597 727.644 380.974 723.78 365.955 709.337C347.59 691.672 346.105 685.048 338.561 685.249Z" stroke="black" stroke-miterlimit="10"/>
<path d="M571.654 519.412C565.801 515.367 555.939 519.422 554.285 520.099C540.072 525.941 543.775 538.717 528.777 551.75C522.128 557.526 513.02 561.907 494.803 570.674C486.052 574.885 481.406 576.656 480.479 580.786C480.173 582.156 479.346 587.943 498.812 602.16C523.093 619.895 532.291 616.663 541.136 629.615C541.262 632.496 547.21 654.546 552.23 654.29C557.788 654.004 555.702 626.72 564.869 581.464C572.028 546.13 580.794 525.725 571.654 519.412Z" stroke="black" stroke-miterlimit="10"/>
<path d="M411.788 744.968C407.932 739.142 406.067 730.234 409.681 722.386C411.198 719.099 412.942 715.31 416.529 714.356C422.835 712.68 428.024 721.573 444.977 733.928C454.365 740.768 459.164 744.186 464.469 743.965C471.075 743.694 476.865 738.093 488.176 726.902C499.66 715.546 499.465 713.343 506.087 709.338C508.105 708.119 524.268 698.589 534.008 704.821C535.225 705.599 538.465 707.983 540.33 714.858C544.013 728.438 539.298 748.376 525.579 760.023C509.011 774.09 484.151 768.565 434.441 757.514C427.645 756.004 417.404 753.459 411.788 744.968Z" stroke="black" stroke-miterlimit="10"/>
<path d="M549.285 749.986C544.412 741.766 550.787 738.379 558.241 690.268C560.896 673.14 562.983 655.139 562.983 655.139C567.324 617.697 566.417 605.091 571.412 603.952C578.576 602.321 590.861 625.897 594.591 633.058C607.472 657.779 605.575 669.963 616.191 674.209C625.02 677.742 637.542 673.797 644.112 667.183C652.04 659.199 650.096 648.51 655.175 647.612C659.658 646.819 664.742 654.507 667.818 659.154C676.395 672.116 672.96 678.138 680.988 685.751C685.967 690.468 689.77 690.509 690.998 694.784C692.399 699.667 688.511 703.376 685.203 709.337C676.247 725.472 684.429 734.891 676.774 744.968C671.574 751.813 662.924 753.886 653.594 755.506C613.557 762.452 561.982 771.4 549.285 749.986Z" stroke="black" stroke-miterlimit="10"/>
<path d="M554.554 742.96C550.545 733.786 560.201 729.154 565.617 699.802C567.714 688.44 568.103 679.186 568.778 663.168C569.942 635.486 568.009 623.317 571.412 622.519C575.152 621.641 582.032 635.291 587.743 646.607C598.969 668.868 600.165 680.024 610.396 683.743C615.964 685.765 621.854 684.732 624.62 684.245C637.137 682.047 640.097 674.093 645.692 675.212C653.947 676.863 661.771 697.027 655.175 711.344C650.686 721.09 641.915 722.916 638.844 734.93C636.937 742.378 639.571 744.566 637.79 748.48C630.178 765.206 564.073 764.744 554.554 742.96Z" stroke="black" stroke-miterlimit="10"/>
<path d="M423.904 466.447C411.098 491.725 394.777 520.018 373.857 549.752C353.933 578.071 337.486 596.82 342.775 602.947C348.449 609.521 376.075 598.009 389.662 590.903C412.088 579.175 411.408 571.522 428.119 567.818C441.637 564.822 452.421 567.537 460.781 559.287C462.42 557.666 465.038 554.575 467.103 547.745C475.59 519.672 452.647 501.631 462.362 482.506C467.798 471.797 477.544 472.429 478.166 463.436C478.919 452.572 465.581 438.761 451.826 439.348C442.464 439.75 435.884 446.695 432.86 449.887C426.934 456.145 424.763 462.894 423.904 466.447Z" stroke="black" stroke-miterlimit="10"/>
<path d="M335.927 531.687C322.24 534.577 323.81 533.162 315.908 535.2C312.431 536.093 303.043 538.707 280.612 551.258C258.159 563.819 258.749 566.133 249.003 568.823C236.064 572.391 234.679 568.411 219.501 572.336C210.351 574.704 196.106 578.388 190 589.9C186.918 595.716 187.139 601.206 187.366 605.457C188.551 627.753 207.632 647.526 214.233 645.102C218.337 643.596 214.412 634.704 221.082 629.043C227.024 624.005 233.746 627.999 246.369 625.029C254.203 623.182 259.055 619.895 268.495 613.486C286.359 601.362 286.064 594.702 295.889 592.911C306.146 591.044 318.41 596.123 322.757 603.951C325.881 609.577 323.752 614.54 325.391 614.992C329.168 616.036 331.876 587.31 353.839 564.808C360.013 558.48 368.21 552.132 369.643 541.222C369.959 538.818 370.96 531.185 366.482 527.672C361.888 524.069 355.134 527.627 335.927 531.687Z" stroke="black" stroke-miterlimit="10"/>
<path d="M372.277 435.336C369.759 443.501 376.159 447.38 378.599 458.923C381.543 472.854 376.123 485.681 373.857 491.04C368.284 504.233 361.224 508.128 363.321 515.128C364.743 519.881 370.012 524.814 375.438 525.165C388.176 525.993 393.955 501.087 421.27 457.417C436.964 432.325 444.793 424.983 457.62 402.717C469.853 381.479 468.583 378.007 477.639 368.09C480.437 365.029 484.024 361.561 482.907 359.057C481.185 355.183 468.573 354.4 460.254 359.559C455.645 362.415 456.767 364.357 449.718 370.098C443.823 374.895 441.568 374.74 438.128 378.629C435.668 381.409 434.525 384.094 432.333 391.175C426.233 410.897 428.05 412.959 424.431 416.267C420.917 419.478 414.538 420.081 401.778 421.285C390.747 422.329 387.128 421.245 381.759 424.296C380.479 425.024 374.326 428.702 372.277 435.336Z" stroke="black" stroke-miterlimit="10"/>
<path d="M180.764 438.561C132.936 475.119 101.854 501.162 81.7249 518.812C38.8757 556.388 32.9226 567.107 14.8065 572.995C10.8342 574.288 -2.48524 578.194 -5.00138 587.308C-6.39328 592.358 -4.49815 599.105 -0.183247 601.109C5.21306 603.614 11.7389 597.464 31.4023 584.241C48.9617 572.433 57.9287 566.488 67.2705 564.306C73.3789 562.879 88.3793 559.373 100.997 566.35C118.541 576.047 117.326 598.18 129.906 599.576C135.345 600.179 135.383 596.023 145.431 593.953C160.325 590.881 168.296 598.339 174.875 593.442C179.356 590.109 176.492 586.035 180.764 579.64C188.238 568.456 202.21 573.097 207.532 565.328C212.805 557.625 202.874 547.509 187.724 511.656C176.535 485.173 177.21 479.469 178.088 475.875C181.155 463.311 191.846 455.393 188.259 446.228C186.733 442.333 183.307 439.941 180.764 438.561Z" stroke="black" stroke-miterlimit="10"/>
<path d="M176.303 452.9C158.101 461.28 134.284 484.746 128.363 490.537C115.772 502.847 115.482 502.336 114.666 504.589C109.15 519.774 127.704 528.23 132.577 557.783C134.6 570.068 133.115 579.041 139.426 582.373C143.804 584.687 147.76 582.082 159.972 584.883C165.593 586.172 166.409 587.106 168.401 586.388C174.959 584.025 171.725 571.85 179.464 567.318C184.252 564.518 188.451 567.439 191.58 564.307C194.889 561 193.25 554.697 192.107 550.758C187.018 533.234 180.623 524.416 174.722 510.109C168.648 495.375 165.677 487.848 168.927 479.999C169.191 479.361 169.085 479.708 177.356 464.442C181.365 457.045 183.436 453.145 182.098 451.896C180.981 450.852 177.983 452.127 176.303 452.9Z" stroke="black" stroke-miterlimit="10"/>
<path d="M311.298 334.511C301.131 343.007 285.685 355.728 266.414 370.859C241.865 390.129 224.306 402.946 226.224 406.028C228.046 408.953 244.056 397.697 270.655 396.819C288.593 396.222 304.15 400.583 312.025 402.791C329.178 407.598 336.29 412.667 353.607 413.776C361.361 414.273 373.083 414.91 376.096 409.41C378.772 404.522 373.246 397.185 369.026 391.595C366.35 388.042 358.195 377.92 335.137 362.739C325.528 356.411 319.833 353.49 319.227 347.769C318.937 345.049 320.423 341.346 323.399 334.049C326.871 325.553 328.983 322.472 328.162 321.814C327.371 321.182 323.9 322.908 311.298 334.511Z" stroke="black" stroke-miterlimit="10"/>
<path d="M556.924 139.501C562.572 140.665 558.879 152.669 568.514 163.087C573.888 168.893 578.613 169.029 581.684 175.633C583.181 178.845 583.818 182.584 583.265 187.677C581.484 204.102 569.178 217.491 567.987 218.791C558.278 229.415 559.669 222.033 515.833 308.118C510.834 317.934 502.663 329.195 490.019 347.763C485.947 353.745 475.305 352.992 474.215 351.276C473.145 349.595 479.925 346.187 482.117 338.228C484.182 330.721 480.853 323.901 480.01 322.169C476.88 315.756 472.972 314.627 470.527 311.129C461.882 298.759 482.138 271.84 485.805 266.967C501.093 246.653 509.638 246.683 532.691 219.293C543.327 206.652 547.347 199.711 547.968 191.19C548.458 184.516 547.041 174.474 545.861 166.098C544.676 157.677 543.533 152.845 546.388 147.53C548.448 143.701 553.073 138.703 556.924 139.501Z" stroke="black" stroke-miterlimit="10"/>
<path d="M358.316 296.576C382.244 272.086 393.608 268.102 429.963 236.857C445.356 223.629 444.513 223.318 456.304 213.773C472.44 200.715 477.397 198.557 500.029 180.652C514.042 169.561 521.049 164.021 522.682 162.084C526.749 157.261 530.805 151.199 534.272 152.047C536.3 152.544 537.232 155.183 537.959 157.567C541.299 168.522 543.928 177.149 541.12 189.685C540.478 192.545 538.618 199.792 532.691 209.256C524.484 222.359 517.651 225.074 498.448 242.377C481.806 257.377 473.483 264.875 470.001 273.491C463.816 288.802 468.262 300.726 461.572 303.602C456.836 305.634 453.148 300.289 438.919 294.569C433.024 292.2 420.001 287.101 403.622 287.543C398.918 287.668 386.838 288.12 374.121 294.569C366.566 298.403 360.787 303.331 359.897 304.103C354.06 309.142 350.878 313.623 342.512 319.66C339.72 321.673 336.222 324.202 335.664 323.675C334.457 322.536 347.559 307.586 358.316 296.576Z" stroke="black" stroke-miterlimit="10"/>
<path d="M556.398 145.523C554.975 144.71 552.531 145.714 551.13 147.029C548.301 149.678 549.022 154.21 549.549 158.069C551.088 169.305 552.252 177.801 551.656 185.67C550.972 194.738 548.417 196.786 550.603 201.227C553.068 206.23 559.727 210.576 565.88 209.256C572.055 207.932 574.647 201.568 576.417 197.212C577.238 195.195 580.51 187.161 576.943 179.146C575.679 176.306 573.466 174.073 569.041 169.611C561.36 161.868 558.932 162.089 557.451 158.069C555.26 152.112 558.869 146.938 556.398 145.523Z" stroke="black" stroke-miterlimit="10"/>
<path d="M558.241 170.365C556.419 171.569 557.994 174.54 557.715 180.401C557.288 189.344 553.205 190.965 554.554 196.46C555.739 201.283 560.343 205.985 564.036 205.493C566.849 205.117 568.383 201.83 570.885 196.46C573.308 191.261 574.752 188.17 574.046 183.914C573.018 177.712 568.293 174.189 567.197 173.376C566.681 172.989 560.849 168.648 558.241 170.365Z" stroke="black" stroke-miterlimit="10"/>
<path d="M446.03 263.206C441.089 266.107 436.606 267.341 433.387 268.224C424.463 270.678 419.353 269.926 413.368 274.246C411.914 275.295 408.664 277.644 409.154 279.767C409.622 281.799 413.257 282.542 419.69 283.781C438.739 287.455 439.119 287.149 441.816 288.298C451.335 292.358 453.216 298.997 456.567 297.833C459.137 296.939 460.038 290.546 461.835 277.759C462.715 271.501 462.715 269.574 464.469 266.719C466.976 262.639 469.579 262.353 472.371 257.686C473.962 255.021 476.459 249.536 474.478 247.649C472.387 245.657 466.239 248.567 463.942 249.656C455.192 253.797 454.428 258.278 446.03 263.206Z" stroke="black" stroke-miterlimit="10"/>
<path d="M467.103 252.667C465.802 251.814 461.561 254.91 458.674 258.187C453.685 263.853 454.912 267.627 450.772 269.729C447.822 271.225 446.32 269.754 442.87 271.737C442.517 271.942 437.723 274.753 438.128 277.759C438.471 280.293 442.153 280.318 447.084 284.283C452.178 288.377 453.016 292.186 454.459 291.81C456.161 291.363 455.118 286.019 456.567 275.249C457.41 268.961 457.873 265.775 459.728 263.707C462.33 260.807 465.796 260.079 467.103 256.18C467.214 255.848 468.051 253.284 467.103 252.667Z" stroke="black" stroke-miterlimit="10"/>
<path d="M604.864 201.729C600.502 202.135 594.281 203.274 588.006 206.747C571.412 215.936 566.56 234.739 564.3 242.377C556.192 269.758 535.394 292.17 521.101 317.151C486.548 377.547 469.268 407.748 461.572 415.009C461.387 415.18 447.89 427.911 450.509 431.57C452.142 433.853 458.058 429.828 465.786 432.573C471.871 434.736 475.99 439.991 480.01 445.119C484.319 450.614 484.103 452.301 486.859 453.651C492.116 456.225 498.101 452.632 504.77 450.138C506.646 449.435 525.174 442.726 541.12 447.127C544.002 447.92 543.164 448.075 572.202 463.186C576.464 465.404 578.629 466.508 580.104 466.197C589.423 464.239 586.884 437.346 592.748 394.936C596.799 365.659 599.407 368.368 603.811 335.217C607.53 307.24 605.802 304.329 610.132 281.521C611.054 276.658 614.779 257.608 617.508 240.872C620.8 220.663 618.783 227.543 620.142 221.3C621.485 215.128 622.613 212.312 621.195 209.256C618.661 203.776 610.143 202.235 604.864 201.729Z" stroke="black" stroke-miterlimit="10"/>
<path d="M607.235 207.5C605.302 207.415 598.29 207.314 589.85 212.017C587.453 213.352 580.931 217.085 576.153 224.563C570.474 233.45 574.099 236.918 569.305 248.651C564.094 261.397 556.719 264.885 558.768 268.724C561.06 273.015 573.156 274.059 580.894 269.226C589.476 263.866 587.511 254.522 596.172 251.16C601.951 248.917 605.907 251.883 609.342 248.651C611.845 246.297 610.433 244.079 611.976 236.105C613.546 227.995 615.653 226.921 616.191 219.544C616.718 212.328 614.926 210.275 614.083 209.507C613.43 208.91 611.823 207.701 607.235 207.5Z" stroke="black" stroke-miterlimit="10"/>
<path d="M575.626 247.144C572.065 252.133 574.046 254.557 569.831 261.698C567.476 265.687 565.475 267.268 566.144 268.222C567.139 269.642 573.256 268.513 577.733 265.211C582.401 261.768 580.873 259.234 586.689 253.167C590.15 249.558 592.416 248.66 592.484 246.141C592.553 243.596 590.351 240.851 587.743 240.119C583.218 238.844 578.013 243.807 575.626 247.144Z" stroke="black" stroke-miterlimit="10"/>
<path d="M512.409 342.996C509.743 348.416 510.396 350.649 506.087 354.036C492.88 364.419 497.479 374.682 486.068 392.678C474.52 410.889 458.632 418.011 461.308 422.788C462.135 424.263 463.737 423.736 473.425 426.301C482.517 428.71 487.106 429.969 489.229 432.825C492.969 437.858 488.908 443.338 491.863 445.371C495.551 447.905 501.936 439.439 515.043 437.341C522.292 436.182 528.134 437.522 536.115 439.349C539.35 440.091 547.721 442.209 557.714 447.378C570.11 453.791 573.066 458.725 575.626 457.415C579.899 455.232 577.807 438.38 568.778 424.795C560.596 412.49 555.191 415.607 548.759 404.22C540.261 389.185 541.689 369.593 541.91 366.582C542.195 362.713 542.695 360.304 542.437 355.542C541.847 344.647 538.47 343.503 538.222 334.465C537.991 325.989 540.83 322.421 537.696 318.406C536.231 316.529 533.613 314.748 530.847 314.893C525.737 315.159 522.576 321.854 521.364 324.428C517.392 332.849 515.728 336.256 512.409 342.996Z" stroke="black" stroke-miterlimit="10"/>
<path d="M607.757 414.879C605.249 413.645 602.272 415.381 602.278 418.071C602.362 458.313 595.445 489.437 588.533 511.362C578.129 544.378 575.099 566.815 576.416 588.645C577.333 603.826 596.625 605.025 601.703 623.774C604.269 633.254 603.342 640.902 610.132 651.375C612.893 655.635 618.804 664.749 625.937 664.423C630.083 664.232 632.069 660.97 645.429 640.836C655.212 626.097 656.587 624.17 656.492 620.261C656.265 610.596 647.562 609.732 644.902 598.682C642.142 587.22 648.553 575.914 653.858 566.564C660.285 555.233 664.015 555.153 665.974 546.993C668.482 536.545 663.035 533.91 665.448 523.908C667.302 516.225 673.45 505.661 683.359 502.329C690.635 499.88 695.613 502.786 705.485 498.315C709.015 496.714 711.012 495.81 712.861 493.798C720.968 484.976 710.501 472.048 717.075 464.19C722.87 457.264 734.913 462.624 738.674 456.16C741.193 451.834 736.446 448.302 733.406 436.087C729.64 420.946 733.201 411.386 729.192 409.991C726.479 409.048 724.535 413.313 716.022 418.021C711.08 420.751 703.041 425.202 694.422 424.043C686.199 422.939 685.941 417.87 674.93 415.01C670.347 413.82 664.431 412.285 658.599 414.508C650.16 417.725 651.708 425.077 642.795 430.065C636.689 433.482 626.885 435.113 621.195 431.068C616.249 427.551 617.597 422.005 611.186 417.017C610.048 416.134 608.884 415.431 607.757 414.879Z" stroke="black" stroke-miterlimit="10"/>
<path d="M492.653 107.384C470.253 116.487 457.673 117.36 457.884 120.934C458.184 126.037 484.193 129.61 486.858 129.967C501.646 131.939 509.601 130.333 515.833 136.491C518.852 139.471 519.874 142.703 523.735 143.516C527.681 144.344 531.321 141.966 535.852 139C538.676 137.153 543.475 133.946 547.442 127.959C550.113 123.93 550.824 121.029 553.237 111.9C558.831 90.718 559.68 88.6002 557.978 86.8086C556.408 85.1576 552.71 83.8277 534.271 89.8197C515.148 96.0324 508.832 100.81 492.653 107.384Z" stroke="black" stroke-miterlimit="10"/>
<path d="M5.089 474.982C11.7637 469.1 21.3043 463.861 25.1078 466.451C29.7227 469.597 21.594 481.355 27.7419 490.037C32.3041 496.486 42.7771 498.468 50.3948 497.565C63.6863 495.989 64.6082 486.058 80.9499 481.506C90.0058 478.982 90.9646 481.687 103.603 479.499C122.141 476.292 132.325 468.353 133.104 469.462C134.463 471.399 99.2197 489.495 63.0383 523.66C53.0236 533.12 42.3135 541.842 20.8933 559.291C5.52098 571.811 -1.4382 576.975 -7.02768 574.848C-15.267 571.711 -15.0932 554.804 -14.9299 539.217C-14.7244 519.55 -14.4399 492.19 5.089 474.982Z" stroke="black" stroke-miterlimit="10"/>
<path d="M-3.07664 416.516C-4.45162 421.414 -10.0569 439.259 -0.969395 449.136C3.21349 453.682 10.1569 456.151 16.4154 455.659C24.1911 455.047 29.2327 450.004 35.9074 443.114C45.9379 432.761 45.6271 427.868 53.2922 420.029C61.4157 411.724 70.5611 408.236 76.4719 405.978C104.245 395.369 145.042 400.091 156.021 420.029C161.721 430.377 156.168 438.988 160.762 441.608C170.281 447.033 199.625 413.219 229.774 382.893C276.955 335.439 304.761 307.472 347.253 282.024C369.2 268.881 391.737 251.517 436.811 216.785C442.543 212.369 455.513 202.237 453.142 197.213C449.739 190.012 416.276 196.481 412.578 197.213C391.711 201.349 386.085 206.708 376.228 203.235C367.362 200.109 359.27 191.312 359.37 182.66C359.507 170.466 375.843 163.841 374.121 160.078C370.865 152.966 328.815 166.601 328.815 166.601C180.291 214.768 69.0966 260.445 -17.3006 292.562C-55.2574 306.674 9.31397 372.46 -3.07664 416.516Z" stroke="black" stroke-miterlimit="10"/>
<path d="M-7.81788 349.27C-10.0252 353.135 3.48751 356.753 -1.49613 362.318C-6.89595 368.345 2.89748 377.233 3.24517 393.934C3.67716 414.484 -10.6679 423.532 -4.13019 435.084C-3.80357 435.662 0.447803 442.933 7.45967 443.616C19.6501 444.805 24.2123 424.531 48.0242 403.971C57.2381 396.016 69.1125 385.764 87.0083 382.893C98.2083 381.097 107.996 383.536 127.573 388.414C155.915 395.475 160.899 402.967 162.342 405.476C166.457 412.637 164.249 418.398 167.084 419.528C172.905 421.846 190.011 400.628 203.96 374.864C243.345 302.133 220.323 261.971 256.642 233.848C264.749 227.57 289.02 211.667 303.001 202.734C321.877 190.68 331.444 185.3 330.395 182.661C328.362 177.537 288.208 187.594 281.929 189.184C215.282 206.076 203.328 222.657 137.055 247.397C43.0089 282.506 -4.01429 300.06 -7.81788 300.592C-10.4783 300.964 -19.9187 302.198 -22.0418 307.618C-27.5259 321.604 -2.99755 340.829 -7.81788 349.27Z" stroke="black" stroke-miterlimit="10"/>
<path d="M415.475 -5.77985C414.127 4.63327 436.648 7.03205 453.406 38.3818C458.927 48.7096 460.844 56.6085 470.791 71.0012C485.378 92.1085 493.865 93.363 496.078 93.5839C504.501 94.4169 505.813 88.435 520.838 83.5471C539.729 77.3996 548.838 83.2209 554.554 76.5214C560.717 69.2899 551.64 60.7286 556.134 48.9204C561.571 34.6281 581.616 29.429 593.538 26.3377C599.902 24.6867 626.727 18.1076 655.175 29.3487C671.991 35.9931 679.382 44.9207 684.149 41.8947C689.828 38.2965 686.525 21.0935 679.935 9.77709C669.151 -8.7457 644.728 -19.7962 588.27 -25.3515C513.647 -32.6934 418.225 -26.9825 415.475 -5.77985Z" stroke="black" stroke-miterlimit="10"/>
<path d="M440.236 47.4137C454.902 60.617 461.392 70.8194 470.264 85.0515C475.095 92.8049 475.59 94.6416 475.005 96.5937C472.587 104.693 455.408 102.345 427.065 110.645C404.723 117.189 395.588 124.446 391.769 120.682C387.834 116.803 392.185 103.84 400.725 96.5937C408.606 89.9042 414.885 92.4787 418.109 87.0588C422.213 80.1636 413.474 73.5795 411.261 55.9449C410.908 53.1447 408.622 34.9079 415.475 31.8568C420.48 29.6286 428.103 36.4937 440.236 47.4137Z" stroke="black" stroke-miterlimit="10"/>
<path d="M713.651 182.911C704.031 187.814 721.495 226.114 732.089 283.78C735.909 304.561 739.807 333.156 742.099 332.96C744.085 332.79 738.627 311.612 751.055 298.334C759.426 289.386 773.987 286.094 785.824 287.795C806.918 290.826 816.764 309.329 822.174 306.363C828.338 302.986 818.871 277.166 817.433 273.242C805.374 240.356 794 241.335 782.663 211.014C778.054 198.684 776.068 188.185 768.439 186.424C760.911 184.683 756.444 193.435 745.26 191.944C738.891 191.096 737.716 187.909 726.821 184.919C719.409 182.886 715.7 181.867 713.651 182.911Z" stroke="black" stroke-miterlimit="10"/>
<path d="M719.446 200.977C713.124 216.564 726.984 232.918 734.196 265.713C736.567 276.493 737.484 285.717 739.991 285.787C742.562 285.857 743.505 276.207 751.581 261.197C756.549 251.968 759.389 246.859 765.278 244.636C773.855 241.394 781.067 247.221 783.717 244.134C786.398 241.008 778.638 235.458 774.234 220.548C771.447 211.114 772.322 205.769 766.859 200.475C765.241 198.909 762.307 196.064 757.903 195.456C748.736 194.197 744.28 204.143 736.83 202.482C730.904 201.162 729.518 193.931 725.241 194.453C721.927 194.859 720.03 199.531 719.446 200.977Z" stroke="black" stroke-miterlimit="10"/>
<path d="M905.703 409.265C921.521 412.136 931.046 440.136 950.085 496.139C953.788 507.027 955.466 512.711 952.423 516.986C945.293 526.994 922.257 515.281 875.917 514.089C858.272 513.636 860.123 515.296 831.534 515.246C775.993 515.15 769.436 508.883 766.707 504.819C759.794 494.509 763.121 476.846 771.961 466.596C786.112 450.189 811.14 456.532 814.011 446.327C817.059 435.483 790.656 421.738 793.572 416.21C795.966 411.669 813.879 420.762 843.797 419.686C853.535 419.334 861.893 418.001 869.496 416.789C898.004 412.247 897.979 407.866 905.703 409.265Z" stroke="black" stroke-miterlimit="10"/>
<path d="M747.601 378.008C761.126 414.626 753.859 462.15 763.559 462.99C766.766 463.266 766.806 457.996 775.029 452.933C786.38 445.943 796.474 449.724 798.469 444.887C800.044 441.07 794.045 438.013 790.489 428.293C787.986 421.444 785.866 409.009 790.988 403.654C796.987 397.383 809.206 404.674 831.882 408.682C845.761 411.136 879.792 417.15 887.737 404.659C893.277 395.955 879.583 388.568 866.292 348.34C861.34 333.35 857.809 317.938 847.342 315.152C844.589 314.418 843.771 315.203 835.373 315.152C832.814 315.137 820.915 315.062 812.931 313.141C794.868 308.791 793.437 294.153 782.51 295.038C773.788 295.747 765.095 305.85 764.058 315.152C762.941 325.209 771.095 331.435 767.549 336.775C765.08 340.496 760.343 338.64 753.086 344.318C752.857 344.494 748.852 347.666 746.603 351.357C740.908 360.7 746.114 373.986 747.601 378.008Z" stroke="black" stroke-miterlimit="10"/>
<path d="M780.137 306.253C775.354 307.794 773.748 315.5 773.487 316.755C771.283 327.332 776.926 337.113 782.987 346.76C798.14 370.884 805.721 382.946 812.913 388.767C834.777 406.455 866.179 412.741 871.338 404.269C875.509 397.418 858.731 387.136 855.663 360.262C855.202 356.211 854.765 349.275 850.913 341.259C849.26 337.818 845.849 330.917 839.038 326.757C833.015 323.076 830.853 325.516 820.513 323.256C804.771 319.815 791.062 310.754 791.062 310.754C786.621 307.819 783.548 305.153 780.137 306.253Z" stroke="black" stroke-miterlimit="10"/>
<path d="M961.252 594.918C937.862 592.323 926.167 591.024 918.581 593.914C902.487 600.047 889.2 617.46 888.026 634.563C886.74 653.327 900.933 658.511 901.196 686.252C901.28 695.375 899.784 698.913 902.776 704.318C909.741 716.899 929.712 719.102 941.234 720.377C967.637 723.293 972.073 714.972 992.334 719.875C1008.79 723.855 1009.57 730.238 1023.42 730.916C1034.71 731.468 1052.29 728.11 1059.77 715.86C1065.65 706.225 1062.81 695.155 1059.24 681.234C1057.28 673.616 1054.92 668.522 1050.28 658.651C1040.41 637.649 1035.47 627.146 1026.05 618.504C1014.88 608.262 1002.87 603.916 996.022 601.442C985.602 597.673 977.341 596.704 961.252 594.918Z" stroke="black" stroke-miterlimit="10"/>
<path d="M1036.59 743.462C1037.97 737.756 1051.92 740.441 1062.93 728.406C1064.86 726.294 1069.22 721.536 1070.83 714.355C1072.08 708.8 1070.8 705.703 1071.88 705.322C1074.92 704.238 1081.4 730.108 1103.49 751.993C1112.24 760.66 1118.33 763.645 1117.19 767.048C1115.15 773.13 1092.63 772.628 1075.04 768.052C1055 762.837 1034.85 750.638 1036.59 743.462Z" stroke="black" stroke-miterlimit="10"/>
<path d="M802.155 747.476C793.262 737.485 800.843 731.217 792.672 689.263C786.993 660.091 781.488 653.678 783.19 634.563C783.864 627.02 786.445 598.024 803.209 592.91C813.197 589.864 825.171 596.223 831.656 601.944C844.3 613.094 843.404 628.27 849.568 628.541C856.148 628.832 858.292 611.564 868.533 610.475C873.675 609.928 879.328 613.621 881.704 618.002C886.197 626.283 876.504 632.43 877.489 645.603C878.385 657.562 886.745 657.457 890.659 672.703C893.815 684.993 888.895 687.045 891.713 701.307C893.209 708.875 895.706 721.496 905.41 727.905C911.126 731.683 916.083 731.146 941.76 729.41C975.734 727.112 979.854 727.177 985.486 728.406C1002.13 732.04 1020.18 743.246 1018.67 749.484C1016.49 758.557 974.923 748.911 896.981 752.495C839.132 755.154 815.615 762.602 802.155 747.476Z" stroke="black" stroke-miterlimit="10"/>
<path d="M812.692 742.959C808.951 738.965 807.882 734.544 806.37 727.904C802.745 712.001 806.538 704.489 806.37 691.27C806.149 674.153 799.642 676.105 794.78 649.116C791.904 633.163 789.364 617.872 798.468 609.973C799.421 609.145 805.137 604.372 811.638 605.456C821.995 607.183 821.6 621.65 837.978 633.057C842.225 636.013 848.199 640.058 854.31 638.577C862.401 636.62 864.972 626.383 866.953 627.035C869.123 627.748 870.277 641.393 862.212 650.12C852.018 661.155 836.298 654.37 829.549 664.171C825.799 669.621 830.018 672.642 829.549 691.27C829.117 708.423 825.446 709.617 827.442 716.864C832.484 735.146 858.809 738.192 857.47 744.465C856.074 751.019 825.461 756.584 812.692 742.959Z" stroke="black" stroke-miterlimit="10"/>
<path d="M763.698 524.159C754.784 529.589 765.784 545.472 769.493 562.8C773.56 581.795 771.089 602.099 777.395 601.944C782.236 601.823 781.599 590.999 793.199 583.878C802.503 578.167 817.375 576.255 827.442 582.372C840.349 590.211 839.501 607.68 846.934 607.966C852.366 608.172 853.24 598.873 861.685 596.925C870.63 594.863 875.661 603.926 884.865 602.446C892.324 601.246 893.894 594.517 900.142 588.896C914.366 576.099 939.801 580.776 967.574 585.885C995.579 591.034 1010.32 603.68 1013.93 599.435C1015.42 597.683 1013.81 594.652 1003.92 577.856C977.368 532.74 983.168 544.674 978.637 536.203C972.173 524.114 969.766 517.394 965.994 517.635C961.215 517.936 962.411 528.881 954.931 535.199C944.236 544.233 927.32 534.08 893.294 529.679C878.659 527.787 886.24 530.241 841.139 528.174C805.943 526.563 788.347 525.755 784.243 525.163C770.794 523.221 767.565 521.805 763.698 524.159Z" stroke="black" stroke-miterlimit="10"/>
<path d="M986.608 315.487C979.138 311.467 943.014 292.031 916.468 309.038C906.021 315.733 895.806 328.876 896.781 343.033C897.497 353.496 904.061 360.652 915.852 373.509C924.644 383.094 929.038 387.887 934.922 388.163C947.239 388.735 950.126 371.652 965.683 369.409C977.515 367.703 980.939 376.852 994.6 375.858C1006.24 375.01 1019.67 367.216 1022.29 357.104C1027.29 337.839 991.107 317.906 986.608 315.487Z" stroke="black" stroke-miterlimit="10"/>
<path d="M995.774 311.035C987.103 306.367 945.153 283.8 914.329 303.547C902.197 311.321 890.338 326.581 891.466 343.017C892.298 355.166 899.921 363.477 913.613 378.406C923.822 389.537 928.922 395.102 935.76 395.418C950.063 396.086 953.413 376.248 971.483 373.639C985.222 371.656 989.195 382.275 1005.06 381.126C1018.57 380.143 1034.16 371.094 1037.21 359.346C1043.01 336.99 1001 313.845 995.774 311.035Z" stroke="black" stroke-miterlimit="10"/>
<path d="M1011.21 309.113C1001.54 301.44 954.762 264.319 912.443 284.011C895.786 291.765 877.826 309.244 875.619 330.707C873.986 346.57 881.562 358.755 895.174 380.65C905.321 396.97 910.394 405.13 918.755 406.836C936.239 410.404 944.716 385.397 967.558 385.453C984.933 385.493 987.503 399.976 1007.31 401.491C1024.19 402.781 1045.38 394.034 1051.71 379.431C1063.76 351.614 1017.03 313.735 1011.21 309.113Z" stroke="black" stroke-miterlimit="10"/>
<path d="M1202.66 130.905C1195.34 131.447 1159.91 134.061 1149.57 158.225C1145.5 167.734 1144.83 181.721 1152.62 191.341C1158.37 198.452 1166.62 200.555 1181.45 204.328C1192.5 207.144 1198.03 208.549 1202.35 206.07C1211.39 200.876 1204.88 187.421 1214.81 178.75C1222.37 172.156 1229.38 177.099 1238.6 170.178C1246.45 164.282 1252.08 152.639 1248.88 144.253C1242.78 128.29 1207.07 130.578 1202.66 130.905Z" stroke="black" stroke-miterlimit="10"/>
<path d="M1202.91 130.243C1194.36 130.875 1152.99 133.932 1140.92 162.15C1136.16 173.256 1135.38 189.59 1144.47 200.826C1151.19 209.132 1160.83 211.586 1178.15 215.992C1191.05 219.279 1197.51 220.925 1202.55 218.024C1213.11 211.957 1205.51 196.245 1217.11 186.118C1225.93 178.414 1234.13 184.191 1244.89 176.111C1254.05 169.226 1260.63 155.626 1256.89 145.835C1249.77 127.192 1208.06 129.867 1202.91 130.243Z" stroke="black" stroke-miterlimit="10"/>
<path d="M1207.92 121.682C1197.99 122.414 1149.95 125.962 1135.93 158.727C1130.41 171.624 1129.49 190.589 1140.06 203.637C1147.86 213.277 1159.05 216.127 1179.16 221.251C1194.15 225.07 1201.64 226.977 1207.5 223.61C1219.76 216.564 1210.93 198.317 1224.41 186.559C1234.65 177.616 1244.17 184.321 1256.66 174.937C1267.3 166.942 1274.95 151.149 1270.6 139.783C1262.32 118.139 1213.9 121.24 1207.92 121.682Z" stroke="black" stroke-miterlimit="10"/>
<path d="M860.631 318.907C843.905 279.654 824.634 253.478 809.004 236.104C799.116 225.114 777.427 202.898 783.19 185.921C784.26 182.774 785.903 180.892 792.673 165.847C798.099 153.793 798.594 151.545 801.102 150.792C806.138 149.276 811.248 156.197 832.184 177.389C845.723 191.094 850.817 195.516 857.471 199.972C865.91 205.623 867.949 205.362 876.963 210.511C895.686 221.21 896.881 228.065 918.581 245.137C937.246 259.826 947.202 263.284 945.975 267.218C943.947 273.722 916.663 264.558 892.24 279.764C885.481 283.975 879.244 287.859 875.909 295.321C872.021 304.023 874.292 312.654 868.007 316.9C865.473 318.611 862.586 318.907 860.631 318.907Z" stroke="black" stroke-miterlimit="10"/>
<path d="M849.568 165.847C837.531 170.991 825.741 151.972 823.755 150.29C821.11 148.052 805.3 144.007 803.736 130.217C802.382 118.308 809.035 112.939 805.316 101.612C802.598 93.337 797.293 90.8629 798.468 89.0664C801.249 84.8158 829.312 101.025 872.221 114.158C889.854 119.558 912.696 125.264 912.259 127.206C911.874 128.932 894.116 123.226 879.07 132.224C874.982 134.668 872.527 137.343 868.007 142.261C855.147 156.257 856.601 162.841 849.568 165.847Z" stroke="black" stroke-miterlimit="10"/>
<path d="M1110.34 744.465C1106.5 745.86 1090.48 703.741 1051.86 639.08C1029.27 601.251 1026.55 601.939 1003.4 561.797C978.5 518.634 966.052 497.055 960.199 480.499C952.492 458.704 949.921 439.82 935.439 427.806C933.705 426.371 929.328 422.974 929.644 418.773C930.371 409.188 954.915 404.039 956.511 403.718C962.727 402.463 971.251 401.595 983.378 403.216C1011.39 406.96 1016.08 418.296 1030.79 415.26C1046.45 412.028 1055.48 396.211 1056.61 394.183C1064.14 380.568 1059.7 369.678 1065.03 367.586C1070.78 365.327 1078.34 377.05 1095.59 392.678C1118.86 413.77 1126.51 411.828 1144.06 430.817C1151.89 439.293 1169.59 458.448 1164.07 467.451C1159.55 474.833 1144.12 467.707 1114.03 470.964C1099.38 472.55 1076.08 475.069 1056.08 490.536C1049.83 495.368 1029.61 512.511 1027.1 537.708C1025.61 552.744 1031.38 561.004 1050.28 595.42C1070.54 632.29 1083.78 656.564 1094.54 684.245C1105.39 712.202 1113.57 743.291 1110.34 744.465Z" stroke="black" stroke-miterlimit="10"/>
<path d="M1074.52 390.673C1070.87 390.949 1073.07 403.138 1065.03 412.252C1055.82 422.69 1044.44 416.316 1035.01 425.801C1032.96 427.859 1031.33 430.338 1027.1 463.439C1024.88 480.868 1024.84 484.014 1027.1 485.52C1031.84 488.671 1040.42 480.486 1061.35 469.963C1077.77 461.703 1088.2 456.458 1101.38 454.908C1126.93 451.897 1143.53 465.025 1146.69 460.428C1149.83 455.861 1136.35 438.718 1119.3 427.809C1103.29 417.571 1092.05 417.902 1083.47 405.226C1078.48 397.854 1077.36 390.457 1074.52 390.673Z" stroke="black" stroke-miterlimit="10"/>
<path d="M1147.74 616.496C1134.12 621.876 1132.04 627.456 1119.82 634.061C1106.76 641.126 1102.56 638.301 1099.28 643.595C1096.23 648.518 1098.08 653.828 1103.49 671.196C1108.57 687.496 1111.11 695.641 1111.92 698.797C1118.13 722.866 1114.61 730.017 1122.98 739.948C1124.98 742.317 1131.51 750.055 1141.42 750.989C1156.1 752.374 1168.82 737.956 1174.08 726.9C1178.61 717.396 1175.19 715.494 1178.3 702.31C1183.62 679.788 1198.58 664.301 1209.38 653.13C1218.41 643.786 1222.93 639.114 1228.87 636.068C1257.04 621.635 1292.58 637.082 1305.26 642.592C1313.53 646.185 1321.35 649.582 1330.02 656.643C1344.18 668.17 1347.04 678.398 1354.25 678.222C1362.1 678.026 1369.17 665.691 1371.64 656.141C1378.37 630.116 1359.49 591.66 1328.44 578.357C1308.08 569.635 1271.14 580.234 1197.26 601.441C1181 606.108 1177.88 607.669 1157.23 613.485C1153.16 614.629 1150.99 615.212 1147.74 616.496Z" stroke="black" stroke-miterlimit="10"/>
<path d="M1213.07 750.989C1211.12 741.941 1228.78 726.434 1245.73 724.392C1261.88 722.445 1269.88 733.626 1285.24 728.908C1287 728.366 1288.48 727.734 1306.84 713.351C1325.73 698.557 1327.19 696.856 1332.13 695.285C1341.87 692.184 1355.26 692.726 1364.79 699.3C1378.68 708.875 1383.67 730.745 1377.43 743.963C1358.24 784.642 1218.07 774.169 1213.07 750.989Z" stroke="black" stroke-miterlimit="10"/>
<path d="M1193.05 473.474C1189.12 473.303 1180.45 473.037 1175.14 478.492C1169.63 484.148 1169.59 494.069 1173.03 501.075C1178 511.182 1187.44 509.501 1197.26 520.647C1205.62 530.126 1207.3 540.981 1207.8 544.233C1211.12 565.732 1196.77 578.784 1202.01 583.878C1206.45 588.199 1217.84 579.848 1240.46 573.34C1273.74 563.764 1290.6 569.887 1294.2 561.797C1296.48 556.668 1291.28 550.646 1260.48 520.647C1225.14 486.221 1211.58 474.287 1193.05 473.474Z" stroke="black" stroke-miterlimit="10"/>
<path d="M941.76 144.774C938.931 148.844 950.985 156.693 955.457 177.895C957.038 185.393 958.908 194.903 954.404 205.496C953.071 208.638 947.229 221.154 934.385 226.072C928.4 228.36 925.155 227.376 924.376 229.083C921.763 234.814 955.099 253.03 976.003 265.717C981.772 269.22 1036.37 302.712 1082.95 348.52C1116.49 381.511 1131.52 406.773 1149.85 402.718C1153.74 401.86 1155.95 400.084 1170.4 384.652C1206.92 345.639 1205.35 343.572 1213.6 338.985C1239.92 324.341 1260.14 343.025 1276.29 327.945C1288.31 316.713 1288.64 295.561 1282.08 281.274C1275.07 265.998 1260.3 258.796 1252.58 255.178C1200.9 230.975 1161.64 225.5 1116.13 210.013C1105.55 206.41 1075.71 193.558 1016.04 167.859C986.861 155.288 946.654 137.733 941.76 144.774Z" stroke="black" stroke-miterlimit="10"/>
<path d="M1360.05 297.329C1355.26 292.446 1342.1 287.382 1315.8 277.255C1305.46 273.276 1299.28 271.273 1296.83 273.742C1293 277.617 1304.13 286.685 1304.21 302.347C1304.28 317.969 1293.27 324.242 1297.36 332.959C1299.95 338.479 1306.03 339.518 1317.38 343.498C1350.85 355.246 1355.88 366.547 1363.74 363.069C1377.01 357.193 1379.74 317.372 1360.05 297.329Z" stroke="black" stroke-miterlimit="10"/>
<path d="M1097.17 81.0382C1089.74 90.6634 1105.47 103.546 1100.33 124.698C1097.97 134.424 1093.89 134.81 1091.9 146.779C1090.06 157.859 1092.56 163.57 1088.21 167.354C1082 172.759 1069.81 167.264 1068.72 169.863C1067.58 172.578 1080.41 179.785 1082.42 180.904C1099.01 190.143 1117.6 200.485 1124.04 194.955C1130.34 189.535 1116.41 176.227 1121.4 155.31C1121.87 153.343 1125.81 137.836 1139.84 127.709C1157.42 115.023 1172.4 124.101 1185.67 111.148C1191.73 105.237 1196.97 95.1799 1194.1 86.5584C1190.09 74.5143 1172.15 70.9814 1164.6 69.4959C1153.11 67.2326 1140.43 69.8271 1115.08 75.0161C1100.49 78.0021 1098.62 79.1613 1097.17 81.0382Z" stroke="black" stroke-miterlimit="10"/>
<path d="M302.738 138.248C290.242 146.272 282.945 161.895 286.933 166.351C290.484 170.315 300.73 162.918 328.025 155.31C359.865 146.433 373.689 148.751 378.599 138.75C382.097 131.624 379.584 121.286 373.857 118.174C366.861 114.376 359.881 123.966 338.561 130.219C319.143 135.914 313.564 131.298 302.738 138.248Z" stroke="black" stroke-miterlimit="10"/>
<path d="M706.802 11.785C702.741 17.3453 701.945 23.6133 701.534 26.8401C701.028 30.8046 699.327 44.2137 706.275 48.9209C711.291 52.3133 716.232 48.0878 732.089 45.9099C740.787 44.7155 751.634 43.225 763.171 46.4117C771.374 48.68 777.769 53.2768 790.565 62.4705C802.603 71.1222 801.95 72.1559 808.477 76.5219C826.763 88.7517 836.161 83.4774 866.426 95.0899C881.862 101.012 891.366 106.968 892.767 105.127C895.417 101.644 860.568 81.3747 864.846 63.976C866.052 59.0781 873.022 54.3508 886.972 44.9062C905.047 32.6664 911.532 31.6728 915.947 23.3272C918.749 18.0278 922.184 7.00246 917 0.242715C911.353 -7.12425 898.298 -5.73416 838.505 2.7519C802.693 7.83551 801.223 8.21188 795.307 7.77027C770.515 5.92853 763.645 -3.08446 739.465 -1.2628C730.583 -0.595353 714.82 0.804773 706.802 11.785Z" stroke="black" stroke-miterlimit="10"/>
<path d="M925.956 17.3027C917.732 28.4385 915.146 41.5063 899.615 49.4203C890.491 54.0723 882.584 54.0472 879.597 60.4607C876.246 67.657 882.046 76.5847 885.918 82.5415C890.828 90.0992 895.986 94.5204 917 110.143C930.761 120.37 937.73 125.539 942.287 128.209C948.245 131.696 974.107 146.847 979.691 141.256C984.248 136.695 968.981 124.631 972.842 107.132C974.565 99.333 980.328 89.3565 989.7 84.5489C994.147 82.2655 996.686 82.5465 1008.67 77.5231C1018.23 73.5135 1019.5 72.1284 1020.26 70.9993C1023.39 66.3221 1020.19 62.4028 1018.67 49.4203C1017.52 39.4588 1016.73 32.679 1020.26 25.8339C1023.3 19.9323 1026.49 19.9273 1028.16 14.7935C1030.51 7.52191 1026.86 -0.908949 1023.42 -4.77811C1009.1 -20.8871 948.899 -13.776 925.956 17.3027Z" stroke="black" stroke-miterlimit="10"/>
<path d="M1366.37 130.218C1351.55 122.485 1326.45 121.677 1307.37 131.724C1302.42 134.328 1290.48 140.616 1283.66 153.303C1277.9 164.022 1280.88 169.863 1273.65 176.889C1268.07 182.309 1260.53 184.437 1249.95 187.428C1238.39 190.689 1235.1 189.535 1230.98 193.45C1226.3 197.886 1229.69 200.159 1223.6 210.512C1220.56 215.686 1217.38 219.103 1215.7 226.069C1215.05 228.789 1214.72 230.144 1215.18 231.589C1217.4 238.67 1234.47 239.543 1240.99 240.12C1245.09 240.482 1265.55 248.566 1306.31 264.71C1360.02 285.983 1361.13 287.168 1365.32 285.788C1401.36 273.899 1413.69 154.919 1366.37 130.218Z" stroke="black" stroke-miterlimit="10"/>
</svg>
