<svg width="1680" height="1019" viewBox="0 0 1680 1019" fill="none" xmlns="http://www.w3.org/2000/svg">
<path d="M-27.9937 377.238C-10.5994 365.4 -8.65712 371.62 42.0726 353.297C90.2584 335.89 108.957 322.892 117.595 330.829C125.204 337.824 121.365 357.716 113.746 369.772C105.87 382.241 95.6909 383.573 88.3006 399.573C84.0965 408.683 86.2358 410.756 82.1406 416.023C73.5954 427.018 58.3029 425.643 45.114 428.67C29.4501 432.264 31.6189 438.979 -2.51663 465.625C-39.1874 494.249 -48.7076 493.33 -53.2961 492.01C-66.3862 488.253 -71.9664 471.935 -72.8331 469.396C-83.2681 438.861 -59.0334 398.361 -27.9937 377.238Z" stroke="black" stroke-miterlimit="10"/>
<path d="M296.872 277.924C306.293 269.752 307.27 273.936 334.583 261.05C360.527 248.809 370.657 239.84 375.198 245.117C379.198 249.768 376.946 263.247 372.752 271.469C368.415 279.973 362.958 280.974 358.846 291.859C356.507 298.056 357.631 299.436 355.388 303.036C350.709 310.55 342.544 309.773 335.46 311.95C327.047 314.534 328.14 319.05 309.618 337.394C289.721 357.1 284.639 356.574 282.198 355.728C275.235 353.319 272.413 342.349 271.974 340.642C266.697 320.113 280.062 292.506 296.872 277.924Z" stroke="black" stroke-miterlimit="10"/>
<path d="M-28.3841 390.879C-23.3299 386.554 -18.0863 382.069 -9.70125 378.603C6.76458 371.803 14.7884 377.438 30.4408 370.01C42.0776 364.49 45.5854 357.605 49.0095 359.356C53.7617 361.783 52.4865 377.865 45.6961 390.651C38.0586 405.029 29.7609 403.37 22.0317 418.34C16.0302 429.964 19.7635 433.417 13.079 442.715C9.18432 448.133 7.16021 448.012 -8.7167 459.665C-26.238 472.528 -26.6648 474.797 -33.9132 477.462C-37.2058 478.671 -54.4696 485.019 -62.3642 478.18C-76.4005 466.023 -57.0856 415.442 -28.3841 390.879Z" stroke="black" stroke-miterlimit="10"/>
<path d="M839.983 55.0901C831.324 38.1512 810.139 32.4646 794.516 28.2668C782.813 25.1218 765.167 20.3875 744.436 27.5962C721.94 35.4219 710.099 52.3541 706.877 57.1018C696.4 72.5453 694.917 88.1699 692.38 118.795C689.119 158.145 687.491 177.82 697.652 192.559C705.058 203.302 715.68 209.364 722.691 228.1C725.011 234.296 725.459 237.938 729.281 241.512C731.758 243.825 739.923 250.109 766.84 243.524C776.263 241.217 786.273 237.757 810.33 225.418C841.182 209.592 844.701 205.039 857.774 203.959C863.223 203.51 877.424 202.336 891.38 209.994C904.631 217.264 905.89 226.042 916.42 228.1C928.524 230.467 939.667 221.381 945.413 216.7C961.702 203.423 967.191 185.579 972.43 167.748C977.385 150.876 982.281 134.212 978.36 112.76C976.251 101.226 972.238 79.2377 954.638 67.1605C936.781 54.9023 912.993 58.3625 898.628 60.4547C875.546 63.8143 870.953 65.1488 870.953 65.1488C860.726 68.1262 855.039 71.2645 849.208 68.5017C843.778 65.9267 842.658 60.3206 839.983 55.0901Z" stroke="black" stroke-miterlimit="10"/>
<path d="M857.774 221.37C852.977 218.118 847.02 226.44 827.463 234.782C809.981 242.232 801.349 241.293 789.903 251.546C784.493 256.388 781.91 260.639 781.337 261.605C775.782 270.946 776.494 278.765 775.406 289.099C772.876 313.112 764.527 313.495 766.181 327.322C767.868 341.377 778.49 357.612 789.903 357.498C800.967 357.391 809.81 341.941 812.966 332.016C816.742 320.127 812.735 315.01 817.579 296.475C819.714 288.301 820.781 284.217 824.168 279.711C831.034 270.571 837.465 272.629 847.231 262.946C855.804 254.443 858.446 245.31 859.092 242.829C859.533 241.152 863.652 225.36 857.774 221.37Z" stroke="black" stroke-miterlimit="10"/>
<path d="M861.728 254.226C857.385 254.159 858.057 267.678 845.254 277.697C839.192 282.444 835.765 281.975 830.757 287.755C824.834 294.602 823.325 302.535 822.85 305.19C820.643 317.59 826.316 320.5 823.509 330.002C820.544 340.047 812.88 341.295 813.625 347.437C814.442 354.156 824.643 361.09 832.734 359.508C841.254 357.838 841.149 347.96 854.479 340.731C858.486 338.559 863.724 335.722 868.976 337.378C877.938 340.208 879.75 353.881 881.496 353.472C884.586 352.748 877.041 310.401 876.224 305.861C869.128 266.357 865.826 254.287 861.728 254.226Z" stroke="black" stroke-miterlimit="10"/>
<path d="M833.393 384.902C802.711 376.685 795.777 357.049 780.469 360.376C763.729 364.008 754.676 391.258 753.654 394.333C748.832 408.853 751.838 415.048 752.948 456.593C754.098 499.64 751.246 507.003 757.185 522.62C762.673 537.05 774.356 555.094 784.706 552.802C793.947 550.761 793.302 534.479 807.284 524.499C819.283 515.94 832.257 519.015 835.512 519.779C853.927 524.14 856.099 540.089 868.676 539.585C885.887 538.902 897.583 508.433 899.022 504.684C905.889 486.793 905.243 469.854 904.665 454.687C904.174 441.804 903.79 431.788 899.022 420.73C891.745 403.863 879.571 396.905 876.444 395.259C871.279 392.544 870.223 393.533 848.923 388.66C842.278 387.159 835.969 385.594 833.393 384.902Z" stroke="black" stroke-miterlimit="10"/>
<path d="M826.347 547.066C825.81 547.138 824.168 547.48 821.812 550.681C817.512 556.52 818.955 560.84 816.711 567.412C813.428 577.032 805.854 580.93 807.184 582.898C807.785 583.787 809.433 583.154 816.385 581.995C827.065 580.208 829.24 580.688 830.406 581.051C831.754 581.472 832.61 582.021 838.518 588.226C846.871 597 851.048 601.383 852.889 604.152C855.394 607.917 855.994 609.687 857.403 609.615C860.704 609.44 863.42 599.451 864.837 594.239C866.597 587.768 866.229 585.868 868.565 582.012C870.664 578.55 872.031 578.32 873.448 575.002C874.072 573.542 876.236 568.492 874.058 563.993C871.726 559.165 865.922 558.111 864.921 557.927C857.616 556.597 855.293 561.917 848.219 560.911C843.362 560.221 839.552 557.017 835.92 553.954C831.26 550.028 829.438 546.636 826.347 547.066Z" stroke="black" stroke-miterlimit="10"/>
<path d="M752.253 643.428C756.837 641.255 756.029 642.312 762.139 639.694C768.89 636.801 772.263 635.361 775.641 632.716C782.94 627.008 785.879 619.361 786.82 616.826C787.452 615.12 788.064 609.394 789.258 598.025C790.245 588.628 790.372 586.552 788.997 584.088C786.2 579.085 780.034 577.618 777.961 577.127C769.816 575.193 767.1 579.4 762.416 576.651C758.566 574.392 759.013 570.732 752.907 566.61C750.671 565.1 749.296 564.175 747.988 564.669C745.645 565.559 745.654 570.215 744.913 583.308C744.377 592.729 744.114 597.434 743.647 600.326C742.071 610.107 740.285 610.605 740.469 616.858C740.677 623.916 742.995 624.435 742.182 630.47C741.577 634.957 739.918 637.525 741.244 641.329C741.537 642.173 742.495 644.913 744.814 645.703C746.857 646.401 748.656 645.137 752.253 643.428Z" stroke="black" stroke-miterlimit="10"/>
<path d="M750.646 640.594C753.894 641.376 756.544 639.045 763.333 634.103C774.518 625.961 774.075 627.374 776.911 624.369C782.333 618.622 784.73 612.6 785.645 609.94C788.67 601.157 787.521 594.374 787.089 592.274C786.495 589.377 785.9 586.479 784.054 585.955C781.115 585.12 775.902 590.525 773.662 596.497C770.765 604.216 774.819 607.596 771.581 614.001C769.129 618.858 764.454 621.563 761.545 623.246C755.191 626.926 751.03 626.321 747.865 630.872C747.179 631.856 745.567 634.25 746.262 636.708C746.845 638.777 748.857 640.161 750.646 640.594Z" stroke="black" stroke-miterlimit="10"/>
<path d="M751.454 622.766C755.873 623.672 759.66 620.284 762.333 617.896C763.679 616.691 766.345 614.254 767.833 610.276C769.371 606.165 767.96 604.926 768.593 600.065C769.787 590.929 775.782 587.539 773.86 583.369C773.028 581.562 771.051 580.347 769.298 580.131C765.601 579.672 763.986 583.763 760.865 583.54C756.312 583.218 755.298 574.208 752.452 574.471C750.109 574.688 748.099 581.037 747.794 586.466C747.361 594.27 750.733 595.195 749.329 600.727C748.13 605.465 745.125 606.853 744.671 612.723C744.46 615.402 744.952 616.886 745.336 617.746C746.426 620.18 748.751 622.212 751.454 622.766Z" stroke="black" stroke-miterlimit="10"/>
<path d="M828.42 556.033C826.407 556.305 825.1 558.523 824.713 559.183C822.319 563.253 824.938 565.989 823.275 570.657C821.703 575.07 817.866 576.799 818.391 577.667C819.124 578.866 825.372 573.756 831.343 575.723C833.189 576.334 834.949 578.199 838.387 581.899C844.294 588.265 844.885 590.563 847.371 590.718C851.454 590.973 855.099 585.123 855.417 584.598C858.472 579.574 856.43 576.183 859.777 572.549C862.293 569.812 865.054 569.989 865.14 568.469C865.25 566.508 860.779 564.033 856.243 563.867C850.281 563.649 848.982 567.595 844.36 566.81C841.115 566.26 838.429 563.743 834.155 559.745C831.789 557.527 830.39 555.764 828.42 556.033Z" stroke="black" stroke-miterlimit="10"/>
<path d="M830.428 302.846C828.827 304.797 828.056 307.211 827.792 311.563C827.133 322.393 830.863 324.123 829.11 329.669C827.562 334.558 824.405 334.028 821.862 341.069C820.867 343.812 819.832 346.829 821.203 349.786C822.376 352.321 825.051 354.239 827.792 354.481C832.319 354.876 835.989 350.605 838.994 347.104C842.44 343.087 841.795 341.974 844.925 339.057C848.549 335.677 852.549 334.249 854.15 333.693C860.489 331.493 863.935 332.854 864.693 331.01C865.925 328.006 857.813 321.897 857.444 321.622C852.773 318.148 851.639 319.369 848.219 316.257C844.233 312.623 841.735 307.278 840.971 305.528C839.409 301.94 839.33 300.157 837.676 299.493C835.357 298.567 832.161 300.74 830.428 302.846Z" stroke="black" stroke-miterlimit="10"/>
<path d="M848.549 230.088C844.971 233.193 842.295 232.616 835.37 234.782C828.227 237.015 824.656 238.135 822.191 240.818C817.552 245.867 820.952 250.501 816.92 263.617C814.58 271.215 811.701 275.326 812.966 276.358C813.559 276.841 814.785 276.439 822.85 270.994C829.578 266.447 830.711 265.381 835.37 262.276C842.757 257.354 843.31 257.756 846.572 254.9C849.109 252.673 852.641 249.508 855.138 244.17C858.677 236.606 857.385 230.564 857.115 229.418C856.786 227.989 856.1 225.052 854.479 224.724C852.72 224.368 851.6 227.446 848.549 230.088Z" stroke="black" stroke-miterlimit="10"/>
<path d="M961.227 885.246C961.379 881.591 961.913 873.276 957.933 871.163C954.882 869.547 951.798 872.961 942.118 877.869C928.999 884.528 925.473 882.925 915.102 889.94C912.525 891.683 910.529 893.34 906.535 896.646C893.383 907.542 894.464 909.42 888.744 912.739C878.208 918.862 873.055 913.356 864.363 920.116C861.115 922.644 859.125 926.051 855.138 932.857C850.446 940.877 846.328 947.912 844.595 957.668C843.383 964.482 841.208 976.693 846.572 984.492C857.214 999.969 885.403 980.368 931.575 990.527C954.473 995.563 967.843 1004.85 975.065 997.903C978.88 994.235 978.287 988.629 975.724 970.41C963.382 882.751 960.746 897.055 961.227 885.246Z" stroke="black" stroke-miterlimit="10"/>
<path d="M861.728 979.799C856.634 976.996 850.98 970.974 850.526 963.705C850.203 958.522 852.805 957.308 862.386 940.905C868.805 929.908 868.745 928.547 871.612 926.823C879.156 922.277 884.586 928.681 894.674 925.482C898.457 924.282 899.208 922.9 912.466 910.059C928.274 894.749 930.567 893.462 933.552 893.294C944.958 892.657 954.124 909.113 954.638 910.059C962.315 924.201 954.618 930.599 961.227 950.964C965.524 964.215 971.415 969.613 968.476 975.105C966.183 979.39 960.377 980.242 950.684 981.14C905.046 985.372 903.063 978.592 878.86 981.811C874.985 982.327 868.264 983.4 861.728 979.799Z" stroke="black" stroke-miterlimit="10"/>
<path d="M916.657 812.944C894.429 807.834 875.231 810.647 866.619 811.989C856.17 813.613 846.959 815.131 837.649 820.585C833.85 822.815 825.146 827.911 821.848 836.345C819.616 842.042 821.637 844.702 829.749 866.908C835.437 882.486 835.641 884.459 839.625 887.921C840.54 888.718 852.496 898.795 869.252 897.95C877.015 897.558 882.934 894.97 887.029 893.174C894.772 889.783 895.002 887.677 902.172 883.623C906.346 881.259 907.933 881.035 929.825 874.072C946.877 868.647 949.498 867.649 951.552 864.998C952.928 863.222 952.665 862.5 952.869 849.716C953.053 838.221 953.31 836.335 951.552 833.002C949.149 828.441 945.304 825.599 942.334 823.45C940.603 822.194 932.656 816.621 916.657 812.944Z" stroke="black" stroke-miterlimit="10"/>
<path d="M1159.31 228.31C1158.37 224.173 1157.51 222.557 1151.11 209.044C1141.03 187.72 1140.28 185.648 1136.7 182.462C1134.89 180.86 1126.36 173.282 1116.01 174.55C1114.39 174.751 1111.89 175.267 1098.9 184.622C1088.79 191.904 1083.65 195.639 1079.68 200.32C1075.71 204.994 1071.42 210.057 1069.5 218.044C1068.9 220.565 1065.86 233.319 1072.54 241.065C1076.8 246.007 1080.3 243.432 1087.94 249.152C1093.15 253.055 1092.39 254.905 1100.58 264.32C1107.59 272.381 1111.1 276.418 1116.16 277.779C1120.3 278.899 1124.76 277.732 1133.69 275.398C1141.84 273.273 1145.91 272.206 1149.35 269.497C1156.51 263.858 1158.51 255.415 1159.66 250.513C1162.01 240.615 1160.26 232.501 1159.31 228.31Z" stroke="black" stroke-miterlimit="10"/>
<path d="M1165.31 234.203C1164.38 214.166 1155.66 199.829 1151.67 193.432C1146.83 185.673 1142.47 178.86 1133.78 173.596C1130.23 171.444 1122.1 166.528 1111.91 167.333C1105.03 167.883 1102.72 170.605 1080.82 186.297C1065.46 197.301 1063.37 198.28 1060.75 202.921C1060.15 203.987 1052.65 217.781 1058.49 230.958C1061.2 237.06 1065.76 240.768 1068.92 243.337C1074.9 248.185 1077.27 247.508 1083.81 251.625C1087.62 254.019 1088.33 255.206 1102.37 270.006C1113.3 281.533 1115.16 283.236 1118.66 283.8C1121.01 284.182 1121.72 283.666 1135.75 278.569C1148.37 273.989 1150.51 273.412 1153.64 270.623C1157.91 266.8 1159.89 262.536 1161.37 259.25C1162.22 257.332 1165.99 248.628 1165.31 234.203Z" stroke="black" stroke-miterlimit="10"/>
<path d="M1284.72 33.9283C1303.39 52.7192 1324.82 59.6379 1334.49 62.6409C1346.22 66.2769 1356.62 69.383 1370.01 67.462C1375.48 66.6744 1387.99 64.8785 1397.51 55.8106C1403.94 49.6868 1403.85 45.1455 1411.97 12.0534C1417.66 -11.161 1418.91 -13.8181 1417.43 -20.4718C1417.09 -22.0028 1412.43 -41.5591 1394.91 -49.6776C1386.79 -53.4387 1378.93 -53.343 1373.48 -53.2768C1363.18 -53.1517 1361.4 -50.5682 1351.2 -49.2728C1345.25 -48.522 1343.49 -49.0961 1316.3 -52.1359C1295.12 -54.5059 1291.74 -54.6532 1287.73 -52.3641C1285.05 -50.8331 1284.78 -49.7512 1275.19 -33.3745C1266.57 -18.6538 1264.93 -16.3574 1264.25 -11.0948C1263.33 -3.889 1265.12 1.88148 1266.54 6.28296C1267.37 8.84435 1271.29 20.3927 1284.72 33.9283Z" stroke="black" stroke-miterlimit="10"/>
<path d="M935.529 902.68C931.114 904.739 929.071 903.726 925.645 904.692C922.185 905.671 921.757 907.414 912.466 917.433C905.87 924.541 905.666 924.112 905.218 925.48C903.182 931.689 909.171 934.942 915.102 949.621C919.161 959.666 918.66 963.85 923.668 967.726C925.737 969.329 929.526 971.482 934.211 971.75C941.071 972.139 943.403 968.122 948.049 969.738C952.622 971.327 952.602 975.995 956.615 976.444C959.844 976.806 963.692 974.211 964.522 971.079C965.465 967.505 961.913 965.366 958.592 959.009C954.757 951.653 954.322 944.578 953.979 938.891C953.393 929.201 955.712 928.169 953.979 920.786C952.681 915.267 950.421 911.746 948.049 908.045C943.443 900.869 940.8 900.675 940.141 900.668C938.553 900.641 938.007 901.52 935.529 902.68Z" stroke="black" stroke-miterlimit="10"/>
<path d="M899.287 931.517C895.531 929.331 893.521 932.402 886.767 931.517C881.14 930.78 879.525 928.252 876.224 929.506C874.412 930.196 873.457 931.537 871.612 934.2C867.52 940.107 868.468 942.34 865.022 947.611C862.38 951.648 861.365 951.038 858.433 955.658C856.258 959.092 854.4 962.015 854.479 965.046C854.657 971.967 864.864 976.782 866.999 977.787C876.87 982.441 881.786 979.383 907.853 979.129C916.947 979.041 925.19 979.323 925.645 977.117C926.08 975.018 918.838 973.69 915.102 966.388C913.863 963.96 914.897 964.57 912.466 955.658C910.463 948.309 908.987 945.09 907.853 942.917C907.227 941.717 906.147 939.779 904.559 937.553C902.153 934.173 900.954 932.483 899.287 931.517Z" stroke="black" stroke-miterlimit="10"/>
<path d="M932.234 925.481C931.701 925.709 929.632 926.615 928.281 928.834C925.902 932.744 928.716 935.808 930.258 947.611C930.758 951.453 930.725 953.163 932.234 954.987C934.304 957.495 938.33 959.078 940.801 957.669C944.412 955.611 943.595 947.798 943.436 946.269C943.067 942.749 942.033 941.522 942.777 938.893C943.575 936.083 945.235 935.802 945.413 933.528C945.69 929.988 941.934 927.171 941.46 926.823C941.242 926.662 936.821 923.543 932.234 925.481Z" stroke="black" stroke-miterlimit="10"/>
<path d="M872.936 949.232C872.594 949.064 871.249 948.421 869.569 948.709C866.624 949.219 866.367 951.988 861.299 957.936C859.645 959.874 858.802 960.605 858.578 962.168C858.262 964.313 859.257 967.029 861.029 967.66C863.612 968.578 867.058 964.743 867.731 963.992C869.279 962.261 869.424 961.202 871.032 960.424C872.745 959.599 873.615 960.31 874.794 959.398C876.639 957.983 876.363 954.858 876.323 954.469C876.303 954.288 875.888 950.694 872.936 949.232Z" stroke="black" stroke-miterlimit="10"/>
<path d="M906.046 611.254C902.959 613.403 899.561 610.548 894.596 611.548C885.901 613.297 884.319 624.461 884.236 625.113C884.072 626.418 883.753 628.95 885.077 629.742C886.497 630.589 888.464 628.633 893.698 626.809C896.116 625.966 898.871 625.007 902.452 624.882C907.475 624.708 908.482 626.369 912.736 625.983C913.833 625.881 918.228 625.48 921.05 622.445C924.684 618.535 923.142 613.021 922.35 610.201C921.566 607.403 920.654 604.138 918.03 603.129C914.917 601.928 911.053 604.544 909.238 606.462C907.074 608.742 907.856 609.993 906.046 611.254Z" stroke="black" stroke-miterlimit="10"/>
<path d="M1214.05 477.254C1210.96 479.403 1207.56 476.548 1202.6 477.548C1193.9 479.297 1192.32 490.461 1192.24 491.113C1192.07 492.418 1191.75 494.95 1193.08 495.742C1194.5 496.589 1196.46 494.633 1201.7 492.809C1204.12 491.966 1206.87 491.007 1210.45 490.882C1215.48 490.708 1216.48 492.369 1220.74 491.983C1221.83 491.881 1226.23 491.48 1229.05 488.445C1232.68 484.535 1231.14 479.021 1230.35 476.201C1229.57 473.403 1228.65 470.138 1226.03 469.129C1222.92 467.928 1219.05 470.544 1217.24 472.462C1215.07 474.742 1215.86 475.993 1214.05 477.254Z" stroke="black" stroke-miterlimit="10"/>
<path d="M955.046 403.254C951.959 405.403 948.561 402.548 943.596 403.548C934.901 405.297 933.319 416.461 933.236 417.113C933.072 418.418 932.753 420.95 934.077 421.742C935.497 422.589 937.464 420.633 942.698 418.809C945.116 417.966 947.871 417.007 951.452 416.882C956.475 416.708 957.482 418.369 961.736 417.983C962.833 417.881 967.228 417.48 970.05 414.445C973.684 410.535 972.142 405.021 971.35 402.201C970.566 399.403 969.654 396.138 967.03 395.129C963.917 393.928 960.053 396.544 958.238 398.462C956.074 400.742 956.856 401.993 955.046 403.254Z" stroke="black" stroke-miterlimit="10"/>
<path d="M915.227 645.829C911.515 645.227 911.057 640.813 906.794 638.08C899.329 633.291 890.429 640.214 889.916 640.626C888.891 641.449 886.901 643.048 887.302 644.538C887.733 646.133 890.508 646.095 895.537 648.424C897.861 649.498 900.508 650.726 903.169 653.125C906.9 656.493 906.469 658.387 909.794 661.067C910.654 661.756 914.092 664.524 918.23 664.305C923.561 664.021 926.286 658.986 927.677 656.409C929.059 653.852 930.674 650.871 929.49 648.322C928.088 645.295 923.491 644.488 920.853 644.604C917.713 644.739 917.405 646.181 915.227 645.829Z" stroke="black" stroke-miterlimit="10"/>
<path d="M1366.12 562.407C1331.94 565.765 1312.11 568.031 1292.23 585.323C1283.08 593.277 1271.57 606.454 1263.64 627.074C1258.16 641.301 1251.63 658.285 1256.06 680.659C1258.73 694.189 1265.58 705.106 1279.27 726.939C1297.05 755.296 1313.13 772.339 1321.9 780.966C1335.53 794.361 1342.34 801.058 1349.14 802.136C1356.17 803.258 1363.68 800.514 1390.95 761.112C1411.75 731.068 1412.6 725.107 1424.38 716.293C1439.04 705.31 1443.97 709.857 1453.09 699.21C1470.24 679.202 1467.79 645.687 1467.36 640.665C1466.87 634.867 1463.01 594.396 1438.77 571.754C1422.81 556.83 1403.92 558.693 1366.12 562.407Z" stroke="black" stroke-miterlimit="10"/>
<path d="M1513.99 775.183C1504.5 775.425 1500.25 780.205 1493.65 787.636C1485.95 796.311 1482.1 800.644 1483.26 809.532C1483.59 812.04 1486.46 819.297 1492.21 833.81C1495.72 842.664 1497.52 846.673 1500.51 851.656C1504.77 858.762 1508.85 865.56 1514.49 868.626C1522.66 873.057 1528.54 866.657 1528.87 866.287C1535.36 858.912 1526.15 847.709 1531.43 839.131C1535.69 832.195 1543.05 837.349 1547.64 829.227C1550.95 823.36 1549.8 815.877 1549.06 811.034C1547.89 803.338 1545.98 790.887 1536.83 782.585C1528.27 774.824 1518.24 775.076 1513.99 775.183Z" stroke="black" stroke-miterlimit="10"/>
<path d="M1727.82 556.605C1718.32 556.847 1714.08 561.626 1707.48 569.058C1699.77 577.732 1695.92 582.066 1697.08 590.954C1697.41 593.462 1700.28 600.719 1706.03 615.231C1709.54 624.086 1711.34 628.095 1714.33 633.078C1718.59 640.184 1722.67 646.982 1728.32 650.047C1736.48 654.479 1742.36 648.079 1742.69 647.709C1749.19 640.334 1739.97 629.131 1745.25 620.553C1749.51 613.617 1756.88 618.771 1761.46 610.648C1764.77 604.782 1763.62 597.299 1762.89 592.456C1761.71 584.76 1759.8 572.309 1750.65 564.007C1742.09 556.246 1732.06 556.498 1727.82 556.605Z" stroke="black" stroke-miterlimit="10"/>
<path d="M1409.36 809.016C1414.76 818.109 1421.16 818.571 1431.12 819.288C1442.73 820.12 1448.54 820.545 1455.49 812.55C1457.45 810.294 1462.06 801.884 1471.29 785.063C1476.93 774.803 1479.36 769.948 1481.97 763.178C1485.7 753.533 1489.27 744.3 1488.8 736.415C1488.1 725.014 1479.43 724.209 1478.93 724.17C1469.08 723.513 1464.57 741.162 1454.37 742.628C1446.11 743.81 1446.48 732.636 1437.04 734.426C1430.23 735.719 1424.47 742.612 1420.74 747.072C1414.82 754.16 1405.24 765.633 1403.17 780.984C1401.24 795.344 1406.94 804.948 1409.36 809.016Z" stroke="black" stroke-miterlimit="10"/>
<path d="M292.99 604.447C279.311 608.109 272.128 603.033 266.633 609.142C259.187 617.417 265.4 634.449 265.974 635.965C271.957 651.804 282.968 651.026 286.401 664.129C287.62 668.776 286.519 669.963 281.129 696.317C276.55 718.701 276.194 723.456 279.153 726.493C283.653 731.12 293.412 729.29 299.58 726.493C311.236 721.209 314.992 710.252 323.96 691.623C325.944 687.499 336.843 664.86 349 646.024C366.989 618.154 376.992 615.264 377.993 599.753C378.903 585.651 371.859 568.947 360.861 565.554C353.099 563.16 344.921 568.652 328.573 579.636C306.479 594.483 306.037 600.954 292.99 604.447Z" stroke="black" stroke-miterlimit="10"/>
<path d="M320.666 605.118C315.368 609.537 309.846 610.858 300.239 613.165C286.131 616.545 280.424 614.935 277.835 619.2C276.121 622.023 276.721 625.846 280.47 634.624C289.656 656.122 296.206 656.974 298.921 667.482C303.79 686.339 287.435 702.017 293.649 707.717C296.516 710.346 302.413 709.212 306.169 707.046C316.429 701.118 311.605 686.922 320.666 664.129C323.453 657.122 328.197 645.179 339.116 634.624C350.654 623.472 358.107 624.478 364.815 613.165C366.304 610.657 374.264 597.232 368.109 587.012C364.538 581.084 357.454 578.288 351.636 578.295C342.925 578.301 336.83 584.585 332.527 589.024C325.239 596.541 327.051 599.794 320.666 605.118Z" stroke="black" stroke-miterlimit="10"/>
<path d="M325.818 967.474C324.955 963.913 326.016 962.136 340.315 935.957C352.545 913.566 365.282 891.457 377.216 868.899C396.529 832.379 400.984 817.472 411.48 817.264C420.936 817.076 428.428 828.959 429.931 831.346C437.766 843.779 432.059 851.417 437.179 875.605C439.868 888.319 441.963 897.633 449.699 905.781C456.743 913.197 466.476 917.556 470.126 919.192C481.625 924.342 484.761 922.391 489.894 927.239C497.11 934.059 497.966 944.607 498.461 950.71C499.251 960.5 497.129 968.279 496.484 970.157C485.815 1001.21 334.543 1003.29 325.818 967.474Z" stroke="black" stroke-miterlimit="10"/>
<path d="M338.644 972.139C337.63 970.597 336.555 967.559 340.621 956.716C347.415 938.617 356.528 930.764 366.32 916.481C373.865 905.47 377.812 896.471 383.452 883.622C395.616 855.9 396.183 841.469 403.22 840.705C408.676 840.115 415.628 848.001 417.058 856.128C418.633 865.101 412.874 870.942 395.313 897.034C379.663 920.29 378.194 924.635 378.84 929.892C380.144 940.501 388.855 945.195 386.747 954.704C385.469 960.484 381.1 963.945 377.522 966.774C364.639 976.974 343.692 979.804 338.644 972.139Z" stroke="black" stroke-miterlimit="10"/>
<path d="M357.852 678.612C360.497 684.414 372.306 685.793 381.066 684.019C384.534 683.316 384.924 682.649 397.955 676.7C414.03 669.362 416.23 669.108 418.077 666.485C420.122 663.576 418.803 661.922 414.296 649.181C409.892 636.729 409.618 633.986 405.294 631.269C403.358 630.052 397.675 626.487 391.381 628.333C384.714 630.29 383.067 636.649 373.386 651.817C361.543 670.366 355.689 673.875 357.852 678.612Z" stroke="black" stroke-miterlimit="10"/>
<path d="M434.853 526.612C437.497 532.414 449.306 533.793 458.066 532.019C461.534 531.316 461.924 530.649 474.955 524.7C491.03 517.362 493.23 517.108 495.077 514.485C497.122 511.576 495.803 509.922 491.296 497.181C486.892 484.729 486.618 481.986 482.294 479.269C480.358 478.052 474.675 474.487 468.381 476.333C461.714 478.29 460.067 484.649 450.386 499.817C438.543 518.366 432.689 521.875 434.853 526.612Z" stroke="black" stroke-miterlimit="10"/>
<path d="M709.93 637.886C707.489 633.395 702.059 636.967 701.149 637.563C693.325 642.708 693.632 656.019 684.544 668.486C680.516 674.012 675.424 677.962 665.241 685.868C660.35 689.664 657.809 691.205 656.844 695.382C656.525 696.768 655.411 702.648 663.436 718.367C673.447 737.977 678.444 735.209 681.305 749.005C681.02 751.964 681.328 774.911 683.873 774.946C686.691 774.981 688.95 746.9 699.019 701.069C706.882 665.286 713.742 644.896 709.93 637.886Z" stroke="black" stroke-miterlimit="10"/>
<path d="M613.244 591.675C611.023 594.437 613.908 598.448 614.39 599.121C618.545 604.902 626.177 602.549 634.749 608.243C638.547 610.767 641.599 614.434 647.705 621.767C650.638 625.29 651.912 627.188 654.468 627.343C655.316 627.394 658.877 627.408 666.727 618.175C676.52 606.659 674.165 602.885 681.689 598.306C683.439 598.081 696.63 594.211 696.264 592.062C695.857 589.684 679.314 592.198 651.348 590.926C629.512 589.932 616.709 587.361 613.244 591.675Z" stroke="black" stroke-miterlimit="10"/>
<path d="M499.311 924.482C494.488 916.696 492.155 904.793 496.675 894.305C498.573 889.913 500.754 884.85 505.242 883.576C513.129 881.336 519.62 893.219 540.824 909.729C552.567 918.869 558.57 923.436 565.205 923.14C573.468 922.778 580.71 915.295 594.857 900.341C609.222 885.165 608.978 882.222 617.261 876.87C619.785 875.241 640.001 862.506 652.185 870.835C653.707 871.875 657.76 875.06 660.092 884.247C664.698 902.393 658.801 929.035 641.642 944.599C620.918 963.396 589.823 956.012 527.646 941.246C519.145 939.228 506.335 935.828 499.311 924.482Z" stroke="black" stroke-miterlimit="10"/>
<path d="M463.06 791.448C458.237 783.663 455.904 771.76 460.424 761.272C462.322 756.88 464.503 751.817 468.991 750.543C476.878 748.303 483.369 760.186 504.573 776.696C516.316 785.836 522.318 790.402 528.954 790.107C537.217 789.745 544.459 782.261 558.606 767.308C572.971 752.132 572.727 749.188 581.01 743.837C583.534 742.208 603.75 729.473 615.934 737.802C617.456 738.841 621.509 742.027 623.841 751.214C628.447 769.359 622.55 796.002 605.391 811.566C584.667 830.362 553.572 822.979 491.394 808.213C482.894 806.195 470.084 802.795 463.06 791.448Z" stroke="black" stroke-miterlimit="10"/>
<path d="M671.294 989.186C665.199 978.202 673.172 973.675 682.496 909.387C685.817 886.5 688.426 862.446 688.426 862.446C693.856 812.414 692.723 795.569 698.97 794.046C707.931 791.867 723.298 823.371 727.963 832.94C744.074 865.973 741.702 882.255 754.979 887.928C766.023 892.649 781.686 887.378 789.903 878.54C799.82 867.871 797.389 853.587 803.741 852.387C809.348 851.328 815.707 861.601 819.555 867.81C830.283 885.132 825.987 893.179 836.029 903.351C842.256 909.655 847.013 909.708 848.549 915.422C850.302 921.947 845.439 926.902 841.3 934.869C830.098 956.428 840.332 969.015 830.757 982.48C824.254 991.627 813.434 994.396 801.764 996.562C751.685 1005.84 687.174 1017.8 671.294 989.186Z" stroke="black" stroke-miterlimit="10"/>
<path d="M677.883 979.798C672.869 967.54 684.947 961.351 691.721 922.128C694.344 906.946 694.831 894.581 695.675 873.176C697.131 836.187 694.713 819.925 698.97 818.859C703.648 817.685 712.254 835.925 719.397 851.047C733.439 880.794 734.934 895.701 747.731 900.67C754.696 903.372 762.063 901.991 765.522 901.34C781.179 898.403 784.882 887.774 791.88 889.27C802.206 891.476 811.991 918.42 803.741 937.552C798.127 950.574 787.155 953.015 783.314 969.069C780.928 979.021 784.223 981.944 781.996 987.175C772.474 1009.53 689.791 1008.91 677.883 979.798Z" stroke="black" stroke-miterlimit="10"/>
<path d="M410.116 696.285C395.284 699.585 396.986 697.97 388.422 700.296C384.655 701.316 374.481 704.301 350.173 718.63C325.842 732.97 326.482 735.612 315.92 738.683C301.899 742.756 300.398 738.213 283.951 742.693C274.035 745.398 258.598 749.603 251.981 762.746C248.642 769.387 248.881 775.655 249.127 780.507C250.411 805.963 271.089 828.537 278.242 825.77C282.689 824.051 278.436 813.898 285.663 807.435C292.103 801.683 299.388 806.244 313.066 802.852C321.555 800.744 326.813 796.991 337.043 789.674C356.402 775.832 356.082 768.229 366.729 766.184C377.844 764.052 391.134 769.851 395.844 778.788C399.229 785.211 396.923 790.878 398.698 791.393C402.792 792.585 405.726 759.79 429.526 734.099C436.217 726.874 445.1 719.627 446.653 707.171C446.995 704.427 448.08 695.712 443.227 691.702C438.249 687.588 430.93 691.65 410.116 696.285Z" stroke="black" stroke-miterlimit="10"/>
<path d="M449.89 568.733C446.74 579.643 454.746 584.827 457.797 600.25C461.481 618.866 454.7 636.006 451.867 643.167C444.895 660.797 436.065 666.001 438.688 675.355C440.467 681.706 447.056 688.298 453.844 688.767C469.777 689.873 477.005 656.593 511.171 598.238C530.801 564.709 540.593 554.899 556.638 525.145C571.939 496.766 570.351 492.126 581.678 478.875C585.177 474.784 589.664 470.151 588.267 466.804C586.112 461.628 570.337 460.581 559.933 467.475C554.167 471.291 555.571 473.886 546.754 481.557C539.38 487.968 536.56 487.76 532.257 492.957C529.18 496.672 527.75 500.26 525.009 509.722C517.378 536.076 519.652 538.832 515.125 543.251C510.73 547.542 502.75 548.347 486.791 549.957C472.992 551.351 468.465 549.903 461.751 553.98C460.15 554.952 452.453 559.868 449.89 568.733Z" stroke="black" stroke-miterlimit="10"/>
<path d="M222.172 475.096C204.4 481.67 181.145 500.077 175.364 504.619C163.07 514.275 162.787 513.874 161.99 515.641C156.605 527.553 174.721 534.186 179.479 557.367C181.454 567.003 180.004 574.042 186.166 576.655C190.44 578.47 194.303 576.427 206.226 578.624C211.715 579.635 212.512 580.367 214.456 579.804C220.86 577.95 217.702 568.401 225.258 564.846C229.934 562.65 234.033 564.941 237.089 562.484C240.319 559.89 238.719 554.946 237.603 551.856C232.634 538.11 226.39 531.194 220.629 519.971C214.698 508.414 211.797 502.509 214.971 496.353C215.228 495.853 215.125 496.125 223.201 484.15C227.115 478.348 229.136 475.289 227.83 474.309C226.739 473.49 223.813 474.49 222.172 475.096Z" stroke="black" stroke-miterlimit="10"/>
<path d="M680.849 173.423C687.913 174.978 683.293 191.019 695.345 204.94C702.067 212.699 707.977 212.88 711.819 221.705C713.69 225.996 714.488 230.992 713.796 237.799C711.569 259.747 696.176 277.638 694.686 279.375C682.542 293.571 684.282 283.707 629.451 398.738C623.198 411.855 612.978 426.903 597.163 451.714C592.07 459.708 578.759 458.702 577.395 456.408C576.058 454.162 584.538 449.609 587.279 438.973C589.862 428.941 585.698 419.828 584.644 417.515C580.729 408.944 575.84 407.436 572.783 402.762C561.969 386.232 587.306 350.262 591.892 343.75C611.014 316.605 621.702 316.646 650.538 280.045C663.842 263.153 668.869 253.879 669.647 242.493C670.26 233.574 668.487 220.156 667.011 208.964C665.528 197.711 664.099 191.253 667.67 184.152C670.246 179.035 676.032 172.356 680.849 173.423Z" stroke="black" stroke-miterlimit="10"/>
<path d="M498.797 284.724C508.057 278.166 512.454 277.099 526.523 268.732C532.481 265.19 532.154 265.107 536.717 262.551C542.962 259.054 544.88 258.476 553.639 253.681C559.062 250.711 561.773 249.228 562.405 248.709C563.979 247.418 565.549 245.794 566.89 246.021C567.675 246.154 568.036 246.861 568.317 247.5C569.61 250.433 570.627 252.743 569.541 256.1C569.292 256.866 568.572 258.807 566.279 261.341C563.102 264.85 560.458 265.577 553.027 270.211C546.587 274.227 543.365 276.235 542.018 278.543C539.624 282.643 541.345 285.836 538.756 286.606C536.923 287.15 535.496 285.719 529.989 284.187C527.708 283.552 522.668 282.187 516.33 282.305C514.509 282.339 509.834 282.46 504.913 284.187C501.989 285.213 499.753 286.533 499.408 286.74C497.149 288.089 495.918 289.289 492.68 290.906C491.6 291.445 490.246 292.122 490.03 291.981C489.563 291.676 494.633 287.673 498.797 284.724Z" stroke="black" stroke-miterlimit="10"/>
<path d="M680.19 181.469C678.411 180.383 675.353 181.724 673.6 183.481C670.062 187.022 670.965 193.077 671.623 198.234C673.548 213.248 675.004 224.601 674.259 235.116C673.403 247.233 670.207 249.969 672.941 255.904C676.025 262.59 684.354 268.397 692.051 266.633C699.773 264.863 703.015 256.36 705.229 250.539C706.257 247.843 710.349 237.107 705.888 226.398C704.307 222.603 701.539 219.619 696.004 213.657C686.397 203.31 683.359 203.605 681.508 198.234C678.766 190.274 683.28 183.36 680.19 181.469Z" stroke="black" stroke-miterlimit="10"/>
<path d="M682.496 214.664C680.216 216.274 682.186 220.243 681.837 228.076C681.303 240.026 676.196 242.192 677.883 249.534C679.366 255.979 685.125 262.262 689.744 261.605C693.263 261.102 695.181 256.71 698.31 249.534C701.342 242.587 703.147 238.456 702.264 232.77C700.979 224.482 695.069 219.774 693.698 218.688C693.052 218.171 685.758 212.371 682.496 214.664Z" stroke="black" stroke-miterlimit="10"/>
<path d="M612.824 235.382C608.608 239.117 604.588 241.072 601.701 242.473C593.697 246.362 588.811 246.375 583.82 251.727C582.607 253.026 579.896 255.934 580.652 258.036C581.376 260.048 584.881 260.251 591.072 260.533C609.408 261.371 609.72 260.999 612.404 261.763C621.879 264.462 624.571 270.982 627.542 269.273C629.821 267.961 629.766 261.266 629.651 247.877C629.596 241.324 629.325 239.347 630.565 236.149C632.338 231.58 634.733 230.886 636.689 225.671C637.803 222.693 639.369 216.684 637.251 215.054C635.015 213.332 629.673 217.262 627.677 218.732C620.073 224.324 619.987 229.037 612.824 235.382Z" stroke="black" stroke-miterlimit="10"/>
<path d="M656.499 113.542C651.157 115.323 646.692 115.544 643.486 115.7C634.599 116.136 630.099 114.232 623.408 117.196C621.783 117.915 618.148 119.526 618.019 121.756C617.896 123.891 621.04 125.453 626.624 128.141C643.161 136.106 643.593 135.886 645.763 137.642C653.419 143.843 653.337 150.896 656.74 150.489C659.351 150.178 661.928 143.998 667.075 131.637C669.595 125.588 670.122 123.664 672.517 121.209C675.941 117.701 678.415 118.002 682.262 113.973C684.455 111.671 688.253 106.758 686.944 104.428C685.563 101.967 679.107 103.486 676.694 104.055C667.506 106.214 665.578 110.516 656.499 113.542Z" stroke="black" stroke-miterlimit="10"/>
<path d="M585.499 291.542C580.157 293.323 575.691 293.544 572.486 293.7C563.598 294.136 559.099 292.232 552.408 295.196C550.782 295.915 547.148 297.526 547.019 299.756C546.895 301.891 550.039 303.453 555.624 306.141C572.16 314.106 572.593 313.886 574.763 315.642C582.419 321.843 582.336 328.896 585.74 328.489C588.351 328.178 590.927 321.998 596.075 309.637C598.595 303.588 599.122 301.664 601.517 299.209C604.941 295.701 607.415 296.002 611.261 291.973C613.454 289.671 617.252 284.758 615.944 282.428C614.563 279.967 608.106 281.486 605.694 282.055C596.506 284.214 594.578 288.516 585.499 291.542Z" stroke="black" stroke-miterlimit="10"/>
<path d="M631.056 221.335C629.719 220.66 626.187 224.488 623.946 228.292C620.075 234.87 621.753 238.551 618.175 241.344C615.625 243.332 614.014 242.055 611.064 244.618C610.763 244.883 606.673 248.502 607.475 251.523C608.151 254.069 611.599 253.529 616.768 256.836C622.109 260.252 623.427 264.03 624.725 263.422C626.254 262.702 624.527 257.382 624.371 246.114C624.276 239.536 624.262 236.197 625.707 233.791C627.734 230.417 630.875 229.137 631.549 224.938C631.606 224.581 632.03 221.822 631.056 221.335Z" stroke="black" stroke-miterlimit="10"/>
<path d="M743.004 256.527C738.125 257 731.167 258.324 724.15 262.361C705.591 273.044 700.165 294.905 697.638 303.785C688.57 335.616 665.31 361.672 649.326 390.715C610.682 460.93 591.358 496.04 582.75 504.482C582.544 504.681 567.449 519.482 570.377 523.735C572.204 526.39 578.82 521.711 587.463 524.902C594.268 527.417 598.875 533.525 603.371 539.488C608.19 545.876 607.949 547.837 611.03 549.406C616.91 552.399 623.603 548.222 631.062 545.322C633.159 544.505 653.88 536.705 671.714 541.822C674.937 542.743 674 542.924 706.475 560.491C711.242 563.07 713.663 564.353 715.313 563.992C725.735 561.716 722.895 530.451 729.453 481.145C733.983 447.108 736.9 450.259 741.825 411.718C745.985 379.192 744.052 375.808 748.895 349.292C749.926 343.638 754.092 321.491 757.144 302.034C760.826 278.54 758.569 286.539 760.089 279.281C761.592 272.105 762.853 268.832 761.268 265.279C758.434 258.908 748.907 257.116 743.004 256.527Z" stroke="black" stroke-miterlimit="10"/>
<path d="M743.777 264.288C741.359 264.174 732.589 264.04 722.032 270.323C719.034 272.107 710.877 277.096 704.9 287.088C697.797 298.964 702.33 303.598 696.334 319.276C689.817 336.309 680.592 340.969 683.155 346.099C686.021 351.832 701.151 353.227 710.831 346.77C721.565 339.608 719.107 327.122 729.94 322.629C737.168 319.631 742.117 323.594 746.413 319.276C749.543 316.131 747.777 313.167 749.708 302.511C751.672 291.675 754.307 290.24 754.979 280.382C755.638 270.739 753.398 267.996 752.344 266.97C751.527 266.172 749.517 264.556 743.777 264.288Z" stroke="black" stroke-miterlimit="10"/>
<path d="M704.241 317.263C699.787 323.929 702.264 327.168 696.993 336.71C694.047 342.041 691.543 344.154 692.38 345.428C693.626 347.326 701.276 345.817 706.877 341.404C712.715 336.804 710.804 333.418 718.079 325.31C722.408 320.489 725.241 319.289 725.327 315.922C725.413 312.522 722.658 308.854 719.397 307.875C713.736 306.172 707.226 312.804 704.241 317.263Z" stroke="black" stroke-miterlimit="10"/>
<path d="M648.549 414.973C646.083 421.249 646.687 423.835 642.701 427.757C630.483 439.781 634.738 451.665 624.182 472.504C613.499 493.593 598.801 501.839 601.277 507.371C602.042 509.08 603.524 508.47 612.486 511.439C620.897 514.229 625.142 515.687 627.106 518.994C630.566 524.823 626.809 531.168 629.543 533.522C632.954 536.457 638.861 526.653 650.986 524.224C657.692 522.882 663.096 524.433 670.48 526.549C673.472 527.409 681.216 529.861 690.461 535.847C701.928 543.273 704.662 548.986 707.03 547.469C710.983 544.941 709.048 525.427 700.695 509.696C693.126 495.447 688.126 499.056 682.176 485.87C674.315 468.459 675.636 445.772 675.84 442.286C676.103 437.805 676.566 435.016 676.328 429.501C675.782 416.885 672.658 415.56 672.429 405.094C672.214 395.278 674.841 391.147 671.942 386.498C670.587 384.324 668.165 382.261 665.606 382.43C660.879 382.738 657.955 390.49 656.834 393.471C653.159 403.222 651.619 407.168 648.549 414.973Z" stroke="black" stroke-miterlimit="10"/>
<path d="M1494.02 591.863C1504.58 601.15 1509.87 603.479 1515.04 611.543C1530.89 636.257 1556.1 645.598 1589.77 678.621C1623.85 712.041 1631.03 734.829 1643.05 738.72C1646.76 739.921 1646.46 737.871 1657.38 732.907C1667.62 728.251 1672.89 725.959 1680.36 727.837C1693.53 731.149 1703.46 741.707 1709.56 741.81C1717.17 741.935 1701.87 725.531 1704.31 711.616C1705.67 703.922 1711.79 700.662 1720.15 696.203C1723.54 694.399 1732.75 689.983 1749.6 688.127C1770.5 685.827 1783.02 689.68 1781.5 685.798C1778.98 679.324 1740.54 659.319 1705.58 649.469C1673.92 640.548 1677.9 649.198 1649.21 639.97C1611.33 627.79 1568.73 601.234 1562.18 597.151C1553.77 591.904 1548.71 588.362 1538.03 582.424C1513.59 568.839 1509.23 570.245 1489.08 558.769C1470.19 548.006 1463.83 540.966 1453.25 538.453C1448.3 537.277 1442.94 537.211 1441.77 539.763C1439.59 544.474 1452.71 555.833 1457.75 560.197C1474.25 574.482 1480.89 580.311 1494.02 591.863Z" stroke="black" stroke-miterlimit="10"/>
<path d="M744.43 541.4C741.293 539.75 737.57 542.07 737.577 545.665C737.682 599.439 729.03 641.028 720.385 670.326C707.371 714.443 703.582 744.425 705.23 773.595C706.376 793.881 730.506 795.483 736.859 820.536C740.068 833.203 738.908 843.423 747.402 857.418C750.855 863.111 758.248 875.289 767.17 874.853C772.356 874.598 774.84 870.24 791.551 843.336C803.787 823.641 805.507 821.066 805.388 815.842C805.105 802.927 794.219 801.773 790.892 787.007C787.439 771.691 795.458 756.583 802.094 744.09C810.133 728.948 814.798 728.841 817.249 717.937C820.386 703.976 813.572 700.455 816.59 687.09C818.91 676.824 826.6 662.708 838.994 658.255C848.094 654.983 854.321 658.866 866.67 652.891C871.085 650.752 873.582 649.544 875.895 646.855C886.036 635.067 872.943 617.792 881.166 607.291C888.415 598.037 903.478 605.199 908.183 596.562C911.333 590.781 905.396 586.061 901.594 569.739C896.882 549.507 901.337 536.733 896.322 534.868C892.928 533.608 890.497 539.308 879.849 545.598C873.668 549.246 863.612 555.194 852.832 553.645C842.546 552.169 842.223 545.396 828.451 541.574C822.718 539.985 815.319 537.933 808.024 540.904C797.468 545.202 799.405 555.026 788.256 561.692C780.619 566.258 768.356 568.438 761.239 563.033C755.052 558.332 756.739 550.922 748.72 544.256C747.296 543.076 745.84 542.137 744.43 541.4Z" stroke="black" stroke-miterlimit="10"/>
<path d="M-22.9007 449.809C-24.4727 454.58 -30.8809 471.964 -20.4916 481.585C-15.7095 486.014 -7.77146 488.419 -0.616386 487.94C8.27325 487.343 14.0371 482.43 21.6679 475.718C33.1353 465.633 32.78 460.867 41.5431 453.231C50.8303 445.14 61.2858 441.742 68.0434 439.543C99.7955 429.208 146.436 433.808 158.988 453.231C165.504 463.311 159.156 471.7 164.408 474.252C175.291 479.536 208.838 446.597 243.307 417.055C297.247 370.828 329.035 343.584 377.615 318.794C402.706 305.991 428.471 289.076 480.002 255.242C486.555 250.94 501.383 241.07 498.673 236.177C494.782 229.161 456.525 235.463 452.297 236.177C428.441 240.205 422.009 245.426 410.74 242.043C400.604 238.997 391.353 230.428 391.467 222C391.624 210.12 410.3 203.667 408.331 200.001C404.609 193.074 356.535 206.356 356.535 206.356C186.735 253.277 59.6115 297.773 -39.1622 329.06C-82.5564 342.807 -8.73511 406.892 -22.9007 449.809Z" stroke="black" stroke-miterlimit="10"/>
<path d="M503.923 -20.7101C502.236 -6.79548 530.406 -3.59009 551.367 38.3012C558.273 52.1017 560.671 62.6567 573.112 81.889C591.358 110.094 601.974 111.77 604.741 112.065C615.278 113.178 616.918 105.185 635.711 98.6535C659.341 90.4389 670.734 98.2177 677.883 89.2654C685.593 79.6023 674.239 68.1622 679.86 52.3834C686.66 33.2852 711.733 26.338 726.645 22.2072C734.605 20.001 768.158 11.2097 803.741 26.2307C824.774 35.1092 834.019 47.0389 839.982 42.9952C847.086 38.1872 842.954 15.1996 834.711 0.0779923C821.222 -24.6732 790.674 -39.4394 720.055 -46.8627C626.717 -56.6734 507.363 -49.0421 503.923 -20.7101Z" stroke="black" stroke-miterlimit="10"/>
<path d="M534.894 50.3723C553.239 68.0153 561.357 81.6482 572.453 100.666C578.496 111.026 579.115 113.481 578.384 116.089C575.359 126.912 553.871 123.774 518.42 134.866C490.475 143.61 479.049 153.307 474.271 148.277C469.349 143.094 474.792 125.772 485.473 116.089C495.331 107.15 503.185 110.591 507.218 103.348C512.351 94.1344 501.42 85.3364 498.652 61.7721C498.21 58.0303 495.351 33.6614 503.923 29.5842C510.183 26.6068 519.718 35.7804 534.894 50.3723Z" stroke="black" stroke-miterlimit="10"/>
<path d="M876.883 231.429C864.851 237.981 886.695 289.16 899.946 366.216C904.723 393.985 909.6 432.195 912.466 431.933C914.95 431.705 908.124 403.407 923.668 385.663C934.139 373.707 952.352 369.308 967.158 371.581C993.542 375.631 1005.86 400.355 1012.62 396.392C1020.33 391.879 1008.49 357.378 1006.69 352.134C991.611 308.191 977.385 309.498 963.204 268.982C957.439 252.506 954.954 238.477 945.413 236.123C935.997 233.796 930.409 245.491 916.42 243.5C908.453 242.366 906.984 238.108 893.357 234.111C884.086 231.396 879.447 230.034 876.883 231.429Z" stroke="black" stroke-miterlimit="10"/>
<path d="M884.131 255.569C876.224 276.397 893.561 298.252 902.582 342.074C905.547 356.478 906.693 368.804 909.83 368.898C913.046 368.991 914.225 356.096 924.327 336.039C930.54 323.707 934.092 316.881 941.459 313.91C952.187 309.578 961.207 317.363 964.522 313.239C967.876 309.062 958.17 301.645 952.661 281.722C949.175 269.115 950.269 261.973 943.436 254.899C941.413 252.806 937.743 249.004 932.234 248.193C920.768 246.51 915.194 259.801 905.876 257.581C898.463 255.817 896.73 246.154 891.38 246.852C887.235 247.395 884.863 253.638 884.131 255.569Z" stroke="black" stroke-miterlimit="10"/>
<path d="M937.185 567.594C934.671 567.34 932.278 570.679 931.888 571.223C928.603 575.806 929.069 581.63 929.755 587.476C931.467 602.093 932.325 609.403 934.351 613.66C940.512 626.598 953.481 636.074 957.66 633.103C961.039 630.701 955.602 622.341 959.994 608.907C960.657 606.883 961.953 603.489 961.923 598.875C961.911 596.895 961.843 592.904 959.632 589.517C957.678 586.521 956.167 587.237 951.937 584.026C945.498 579.138 941.198 571.992 941.198 571.992C939.805 569.678 938.978 567.774 937.185 567.594Z" stroke="black" stroke-miterlimit="10"/>
<path d="M1172.38 760.66C1149.29 759.033 1137.74 758.217 1130.25 760.03C1114.36 763.877 1101.24 774.8 1100.08 785.527C1098.81 797.297 1112.83 800.548 1113.09 817.949C1113.17 823.672 1111.69 825.891 1114.65 829.281C1121.52 837.173 1141.24 838.555 1152.62 839.354C1178.69 841.183 1183.07 835.964 1203.07 839.039C1219.32 841.535 1220.09 845.539 1233.76 845.964C1244.91 846.311 1262.27 844.205 1269.65 836.521C1275.46 830.477 1272.66 823.533 1269.13 814.801C1267.2 810.023 1264.87 806.828 1260.29 800.637C1250.54 787.463 1245.67 780.875 1236.36 775.454C1225.34 769.03 1213.48 766.304 1206.71 764.752C1196.42 762.388 1188.27 761.781 1172.38 760.66Z" stroke="black" stroke-miterlimit="10"/>
<path d="M1280.81 980.469C1282.55 972.845 1299.99 976.432 1313.76 960.352C1316.18 957.529 1321.63 951.171 1323.64 941.575C1325.21 934.152 1323.61 930.015 1324.96 929.505C1328.76 928.057 1336.87 962.625 1364.5 991.869C1375.44 1003.45 1383.05 1007.44 1381.63 1011.99C1379.08 1020.11 1350.91 1019.44 1328.92 1013.33C1303.84 1006.36 1278.64 990.059 1280.81 980.469Z" stroke="black" stroke-miterlimit="10"/>
<path d="M984.111 931.361C972.99 918.732 982.47 910.81 972.252 857.782C965.149 820.911 958.265 812.805 960.393 788.644C961.236 779.111 964.464 742.461 985.428 735.998C997.92 732.148 1012.89 740.184 1021.01 747.415C1036.82 761.509 1035.7 780.69 1043.41 781.033C1051.63 781.401 1054.32 759.575 1067.12 758.198C1073.55 757.507 1080.62 762.175 1083.59 767.713C1089.21 778.178 1077.09 785.949 1078.32 802.599C1079.44 817.714 1089.9 817.581 1094.79 836.851C1098.74 852.385 1092.59 854.979 1096.11 873.006C1097.98 882.571 1101.11 898.523 1113.24 906.623C1120.39 911.399 1126.59 910.721 1158.7 908.526C1201.19 905.621 1206.34 905.703 1213.38 907.257C1234.2 911.85 1256.77 926.014 1254.89 933.898C1252.16 945.366 1200.17 933.175 1102.7 937.704C1030.35 941.065 1000.94 950.478 984.111 931.361Z" stroke="black" stroke-miterlimit="10"/>
<path d="M997.293 924.56C992.615 919.222 991.277 913.315 989.386 904.443C984.853 883.192 989.597 873.153 989.386 855.49C989.109 832.617 980.971 835.225 974.889 799.161C971.292 777.844 968.116 757.411 979.502 746.856C980.695 745.75 987.844 739.372 995.975 740.821C1008.93 743.128 1008.44 762.461 1028.92 777.703C1034.23 781.653 1041.71 787.057 1049.35 785.079C1059.47 782.464 1062.69 768.784 1065.16 769.656C1067.88 770.608 1069.32 788.841 1059.23 800.503C1046.48 815.249 1026.82 806.182 1018.38 819.279C1013.69 826.561 1018.97 830.598 1018.38 855.49C1017.84 878.411 1013.25 880.007 1015.74 889.69C1022.05 914.119 1054.98 918.19 1053.3 926.572C1051.56 935.33 1013.27 942.767 997.293 924.56Z" stroke="black" stroke-miterlimit="10"/>
<path d="M1488.54 161.938C1479.38 162.662 1435.07 166.156 1422.14 198.444C1417.04 211.152 1416.21 229.841 1425.94 242.696C1433.14 252.198 1443.47 255.008 1462.01 260.051C1475.83 263.813 1482.74 265.69 1488.15 262.378C1499.46 255.437 1491.32 237.459 1503.74 225.871C1513.19 217.06 1521.96 223.665 1533.49 214.418C1543.31 206.538 1550.35 190.981 1546.35 179.775C1538.72 158.444 1494.05 161.502 1488.54 161.938Z" stroke="black" stroke-miterlimit="10"/>
<path d="M1488.85 161.052C1478.16 161.897 1426.41 165.98 1411.31 203.687C1405.37 218.527 1404.38 240.355 1415.76 255.369C1424.17 266.467 1436.22 269.746 1457.88 275.634C1474.02 280.026 1482.09 282.226 1488.41 278.35C1501.61 270.242 1492.1 249.247 1506.61 235.714C1517.65 225.421 1527.9 233.139 1541.36 222.343C1552.82 213.142 1561.05 194.97 1556.37 181.887C1547.46 156.974 1495.3 160.549 1488.85 161.052Z" stroke="black" stroke-miterlimit="10"/>
<path d="M1495.11 149.611C1482.69 150.59 1422.61 155.331 1405.07 199.114C1398.16 216.348 1397.02 241.689 1410.24 259.124C1419.99 272.006 1433.99 275.815 1459.14 282.662C1477.89 287.765 1487.27 290.313 1494.59 285.813C1509.93 276.398 1498.89 252.016 1515.74 236.304C1528.55 224.354 1540.45 233.313 1556.08 220.774C1569.4 210.091 1578.96 188.988 1573.52 173.799C1563.16 144.877 1502.59 149.021 1495.11 149.611Z" stroke="black" stroke-miterlimit="10"/>
<path d="M1060.73 413.155C1039.81 360.702 1015.7 325.725 996.151 302.509C983.783 287.823 956.654 258.137 963.863 235.451C965.201 231.246 967.257 228.732 975.724 208.628C982.511 192.52 983.13 189.516 986.267 188.51C992.566 186.485 998.958 195.732 1025.14 224.051C1042.08 242.365 1048.45 248.272 1056.77 254.227C1067.33 261.778 1069.88 261.429 1081.15 268.309C1104.57 282.606 1106.07 291.766 1133.21 314.579C1156.56 334.207 1169.01 338.828 1167.48 344.085C1164.94 352.776 1130.81 340.531 1100.26 360.85C1091.81 366.476 1084.01 371.666 1079.84 381.638C1074.97 393.266 1077.81 404.8 1069.95 410.473C1066.78 412.759 1063.17 413.155 1060.73 413.155Z" stroke="black" stroke-miterlimit="10"/>
<path d="M1046.89 208.628C1031.83 215.502 1017.09 190.087 1014.6 187.84C1011.29 184.85 991.519 179.445 989.562 161.017C987.868 145.104 996.19 137.929 991.538 122.794C988.138 111.736 981.503 108.43 982.972 106.029C986.451 100.35 1021.55 122.009 1075.22 139.558C1097.28 146.774 1125.85 154.398 1125.3 156.994C1124.82 159.3 1102.61 151.676 1083.79 163.699C1078.68 166.965 1075.61 170.539 1069.95 177.111C1053.87 195.814 1055.69 204.612 1046.89 208.628Z" stroke="black" stroke-miterlimit="10"/>
<path d="M1300.86 831.968C1297.27 833.278 1282.31 793.748 1246.22 733.062C1225.11 697.56 1222.57 698.205 1200.93 660.531C1177.67 620.022 1166.04 599.77 1160.57 584.233C1153.36 563.778 1150.96 546.055 1137.43 534.78C1135.81 533.433 1131.72 530.244 1132.02 526.302C1132.69 517.306 1155.63 512.474 1157.12 512.173C1162.93 510.995 1170.89 510.18 1182.23 511.702C1208.4 515.215 1212.79 525.855 1226.53 523.005C1241.16 519.972 1249.6 505.127 1250.65 503.224C1257.69 490.446 1253.55 480.226 1258.53 478.262C1263.9 476.143 1270.96 487.145 1287.08 501.811C1308.83 521.606 1294.92 508.48 1311.32 526.302C1318.64 534.257 1335.17 552.234 1330.02 560.684C1325.8 567.612 1311.38 560.924 1283.26 563.98C1269.57 565.469 1268.85 579.137 1250.16 593.652C1244.32 598.188 1225.43 614.276 1223.08 637.924C1221.69 652.035 1227.08 659.787 1244.74 692.087C1263.67 726.69 1276.05 749.471 1286.09 775.451C1296.24 801.689 1303.88 830.866 1300.86 831.968Z" stroke="black" stroke-miterlimit="10"/>
<path d="M1189.26 523.977C1186.86 525.609 1194.39 534.741 1193.29 545.299C1192.03 557.396 1181 556.561 1179.12 567.96C1178.71 570.432 1178.8 573.091 1192.15 601.823C1199.18 616.951 1200.7 619.544 1203.02 619.904C1207.85 620.661 1209.78 610.655 1219.13 593.977C1226.46 580.886 1231.12 572.575 1239.51 566.228C1255.76 553.924 1273.74 558.281 1273.67 553.299C1273.6 548.35 1255.81 539.503 1238.61 537.139C1222.46 534.923 1214.82 539.522 1202.63 532.445C1195.54 528.33 1191.12 522.707 1189.26 523.977Z" stroke="black" stroke-miterlimit="10"/>
<path d="M1120 482.503C1121.8 484.377 1125.07 479.181 1132.05 480.51C1140.04 482.036 1143.13 490.259 1150.89 492.215C1152.57 492.638 1154.21 492.702 1167.86 484.09C1175.04 479.555 1176.17 478.543 1175.64 476.829C1174.54 473.243 1167.63 471.319 1154.12 463.516C1143.51 457.393 1136.78 453.503 1130.06 446.92C1117.03 434.162 1113.89 420.912 1110.79 420.722C1107.71 420.534 1107.97 433.424 1112.12 446.192C1116.01 458.175 1121.38 464.113 1120.93 472.898C1120.67 478.007 1118.59 481.046 1120 482.503Z" stroke="black" stroke-miterlimit="10"/>
<path d="M1305.13 436.693C1303.19 434.948 1300.3 440.358 1293.24 439.515C1285.16 438.546 1281.51 430.556 1273.64 429.142C1271.93 428.836 1270.29 428.886 1257.27 438.421C1250.41 443.443 1249.36 444.531 1250 446.204C1251.36 449.704 1258.38 451.146 1272.4 457.996C1283.4 463.371 1290.39 466.784 1297.55 472.887C1311.42 484.713 1315.48 497.714 1318.59 497.689C1321.67 497.663 1320.51 484.823 1315.5 472.372C1310.79 460.687 1305.01 455.135 1304.86 446.34C1304.76 441.225 1306.63 438.049 1305.13 436.693Z" stroke="black" stroke-miterlimit="10"/>
<path d="M1444.24 951.45C1441.13 927.316 1469.23 885.955 1496.21 880.507C1521.91 875.313 1534.64 905.136 1559.08 892.554C1561.88 891.108 1564.24 889.421 1593.45 851.059C1623.5 811.598 1625.83 807.061 1633.69 802.871C1649.2 794.599 1670.49 796.044 1685.66 813.579C1707.76 839.119 1715.71 897.453 1705.78 932.71C1675.24 1041.21 1452.19 1013.28 1444.24 951.45Z" stroke="black" stroke-miterlimit="10"/>
<path d="M436.874 831.202C437.75 827.867 447.979 827.302 455.404 830.816C462.479 834.163 463.718 839.655 470.981 841.933C471.813 842.194 472.546 842.357 482.856 842.319C493.462 842.28 494.385 842.101 496.732 842.817C501.36 844.228 506.819 847.682 509.556 852.096C513.542 858.526 511.541 866.657 506.485 869.301C490.926 877.437 434.631 839.748 436.874 831.202Z" stroke="black" stroke-miterlimit="10"/>
<path d="M1696.28 810.911C1698.84 808.739 1704.43 803.862 1704.3 797.057C1704.15 790.003 1697.89 783.23 1691.3 780.475C1681.78 776.503 1676.95 783.147 1663.74 781.297C1652.5 779.726 1644.58 773.323 1642.2 771.403C1626.5 758.722 1627.2 741.482 1620.7 741.072C1615.18 740.723 1613.35 753.043 1603.33 770.656C1588.59 796.566 1574.16 802.235 1577.04 809.829C1578.87 814.646 1585.93 815.712 1624.21 818.151C1668.13 820.951 1684.17 821.163 1696.28 810.911Z" stroke="black" stroke-miterlimit="10"/>
<path d="M1159.41 180.877C1156.28 185.615 1169.63 194.752 1174.58 219.436C1176.33 228.165 1178.4 239.236 1173.41 251.569C1171.94 255.226 1165.47 269.797 1151.25 275.523C1144.62 278.187 1141.02 277.042 1140.16 279.028C1137.27 285.7 1174.18 306.908 1197.33 321.677C1203.72 325.755 1264.18 364.747 1315.76 418.076C1352.9 456.483 1377.35 529.502 1397.65 524.782C1401.97 523.783 1410.7 497.84 1426.69 479.875C1467.14 434.457 1465.03 427.285 1474.17 421.945C1503.32 404.897 1511.98 411.678 1529.86 394.122C1543.18 381.047 1543.54 356.422 1536.28 339.788C1528.51 322.004 1512.16 313.621 1503.61 309.408C1446.38 281.231 1402.91 274.857 1352.51 256.827C1340.79 252.632 1307.75 237.67 1241.67 207.751C1209.36 193.116 1164.83 172.68 1159.41 180.877Z" stroke="black" stroke-miterlimit="10"/>
<path d="M1688.2 285.256C1682.2 280.257 1665.72 275.073 1632.77 264.705C1619.82 260.63 1612.07 258.58 1609.01 261.108C1604.2 265.075 1618.15 274.359 1618.25 290.394C1618.34 306.389 1604.55 312.811 1609.67 321.736C1612.91 327.388 1620.53 328.451 1634.74 332.526C1676.68 344.554 1682.97 356.124 1692.82 352.564C1709.45 346.547 1712.86 305.777 1688.2 285.256Z" stroke="black" stroke-miterlimit="10"/>
<path d="M1356.59 95.3009C1347.3 108.163 1366.97 125.376 1360.54 153.642C1357.59 166.637 1352.49 167.154 1350 183.147C1347.7 197.954 1350.83 205.585 1345.39 210.641C1337.62 217.863 1322.37 210.52 1321.01 213.994C1319.58 217.622 1335.63 227.251 1338.14 228.747C1358.9 241.092 1382.14 254.913 1390.2 247.523C1398.08 240.281 1380.66 222.497 1386.9 194.547C1387.49 191.918 1392.42 171.197 1409.96 157.665C1431.95 140.713 1450.69 152.844 1467.29 135.536C1474.87 127.636 1481.43 114.198 1477.84 102.677C1472.81 86.5833 1450.37 81.8624 1440.94 79.8775C1426.56 76.8532 1410.7 80.3201 1378.99 87.2539C1360.75 91.2439 1358.4 92.7929 1356.59 95.3009Z" stroke="black" stroke-miterlimit="10"/>
<path d="M356.136 162.978C340.506 173.7 331.379 194.576 336.367 200.53C340.809 205.828 353.625 195.944 387.765 185.778C427.591 173.915 444.882 177.013 451.023 163.648C455.398 154.126 452.255 140.312 445.093 136.154C436.342 131.078 427.611 143.893 400.944 152.248C376.655 159.86 369.677 153.69 356.136 162.978Z" stroke="black" stroke-miterlimit="10"/>
<path d="M868.317 2.7593C863.236 10.1893 862.241 18.5649 861.727 22.8768C861.095 28.1744 858.967 46.0923 867.658 52.3824C873.931 56.9155 880.112 51.2692 899.946 48.3589C910.825 46.7629 924.393 44.7713 938.823 49.0295C949.083 52.0605 957.083 58.203 973.088 70.4881C988.145 82.0489 987.328 83.4303 995.492 89.2644C1018.36 105.606 1030.12 98.5586 1067.98 114.076C1087.28 121.989 1099.17 129.949 1100.92 127.488C1104.24 122.834 1060.65 95.7489 1066 72.4998C1067.51 65.9549 1076.23 59.6381 1093.67 47.0177C1116.28 30.6622 1124.39 29.3345 1129.92 18.1827C1133.42 11.1013 1137.72 -3.63135 1131.23 -12.6641C1124.17 -22.5082 1107.84 -20.6507 1033.05 -9.31118C988.257 -2.51818 986.419 -2.01525 979.019 -2.60536C948.009 -5.06639 939.416 -17.11 909.171 -14.6758C898.061 -13.784 878.346 -11.913 868.317 2.7593Z" stroke="black" stroke-miterlimit="10"/>
<path d="M1134.99 7.89922C1125.96 22.0662 1123.12 38.6912 1106.08 48.7594C1096.06 54.6777 1087.38 54.6458 1084.1 62.805C1080.42 71.9602 1086.79 83.3181 1091.04 90.8964C1096.43 100.511 1102.09 106.136 1125.16 126.011C1140.27 139.022 1147.92 145.598 1152.92 148.994C1159.46 153.432 1187.85 172.706 1193.98 165.594C1198.98 159.79 1182.22 144.442 1186.46 122.18C1188.35 112.259 1194.68 99.5664 1204.96 93.4501C1209.85 90.5452 1212.63 90.9027 1225.78 84.512C1236.28 79.4108 1237.67 77.6487 1238.51 76.2123C1241.95 70.262 1238.43 65.2758 1236.77 48.7594C1235.5 36.0863 1234.63 27.461 1238.51 18.7527C1241.85 11.2446 1245.35 11.2383 1247.18 4.70703C1249.76 -4.54396 1245.75 -15.2697 1241.98 -20.1921C1226.26 -40.686 1160.18 -31.6393 1134.99 7.89922Z" stroke="black" stroke-miterlimit="10"/>
<path d="M1693.31 161.018C1674.77 150.685 1643.38 149.605 1619.51 163.03C1613.32 166.51 1598.38 174.913 1589.86 191.865C1582.65 206.189 1586.38 213.994 1577.34 223.382C1570.36 230.625 1560.93 233.468 1547.68 237.465C1533.23 241.823 1529.12 240.281 1523.96 245.512C1518.11 251.44 1522.35 254.477 1514.74 268.311C1510.93 275.225 1506.95 279.792 1504.85 289.099C1504.04 292.734 1503.63 294.545 1504.19 296.476C1506.98 305.938 1528.33 307.105 1536.48 307.876C1541.61 308.359 1567.21 319.162 1618.19 340.734C1685.36 369.16 1686.75 370.743 1691.99 368.899C1737.08 353.013 1752.5 194.024 1693.31 161.018Z" stroke="black" stroke-miterlimit="10"/>
</svg>
