<svg width="1680" height="1050" viewBox="0 0 1680 1050" fill="none" xmlns="http://www.w3.org/2000/svg">
<path d="M826.533 52.6787C803.997 36.2598 776.849 40.6418 774.134 41.1163C750.794 45.2403 731.744 61.5196 721.735 80.4156C711.805 99.1721 713.657 118.354 717.366 156.712C721.61 200.553 723.732 222.471 738.472 232.233C754.689 242.972 777.099 234.361 804.696 223.755C847.204 207.42 858.663 187.491 881.838 192.927C900.248 197.246 902.087 211.962 916.043 210.65C941.867 208.222 955.692 155.937 957.523 149.001C962.69 129.463 967.256 112.172 958.98 96.5973C947.283 74.6031 915.872 67.1507 894.213 68.8533C873.983 70.4443 864.942 79.8016 849.82 73.4796C838.611 68.8045 838.934 61.722 826.533 52.6787Z" stroke="black" stroke-miterlimit="10"/>
<path d="M-50.1728 441.403C-30.543 424.67 -27.7227 432.465 30.8768 404.421C86.5374 377.779 107.617 359.441 118.516 368.834C128.116 377.109 125.224 402.941 117.198 419.074C108.902 435.758 96.9486 438.382 89.5224 459.546C85.2986 471.596 88.0068 474.06 83.5919 481.177C74.38 496.033 56.1405 495.649 40.7609 500.715C22.4951 506.73 25.625 515.138 -12.6132 552.351C-53.6915 592.327 -65.0516 592.006 -70.5999 590.729C-86.4276 587.094 -94.4008 566.691 -95.6396 563.516C-110.551 525.333 -85.202 471.261 -50.1728 441.403Z" stroke="black" stroke-miterlimit="10"/>
<path d="M-49.1843 459.197C-43.5635 453.189 -37.7319 446.958 -28.0982 441.752C-9.18007 431.537 0.783088 438.047 18.6865 427.099C31.997 418.963 35.5751 409.808 39.7725 411.747C45.5976 414.434 45.4262 435.193 38.4547 452.219C30.6133 471.366 20.6567 469.985 12.756 489.899C6.62129 505.362 11.3261 509.458 4.1898 521.998C0.0318967 529.303 -2.37323 529.331 -20.1909 545.722C-39.8537 563.816 -40.17 566.768 -48.5253 570.843C-52.3208 572.692 -72.2208 582.398 -82.1313 574.332C-99.7513 559.992 -81.1033 493.319 -49.1843 459.197Z" stroke="black" stroke-miterlimit="10"/>
<path d="M839.982 63.5524C831.324 45.9264 810.139 40.0091 794.515 35.641C782.812 32.3684 765.166 27.442 744.436 34.9432C721.94 43.0864 710.098 60.7055 706.876 65.6458C696.399 81.7158 694.916 97.9742 692.38 129.842C689.118 170.788 687.49 191.261 697.651 206.598C705.058 217.777 715.68 224.085 722.691 243.581C725.01 250.029 725.458 253.818 729.28 257.537C731.758 259.944 739.922 266.482 766.84 259.63C776.263 257.23 786.272 253.629 810.33 240.79C841.181 224.322 844.7 219.584 857.773 218.461C863.223 217.993 877.423 216.772 891.379 224.741C904.631 232.305 905.889 241.439 916.419 243.581C928.524 246.044 939.666 236.589 945.412 231.719C961.701 217.903 967.19 199.335 972.429 180.78C977.384 163.224 982.28 145.884 978.359 123.562C976.251 111.56 972.238 88.6797 954.637 76.1126C936.78 63.3571 912.992 66.9576 898.628 69.1347C875.545 72.6306 870.952 74.0192 870.952 74.0192C860.725 77.1174 855.039 80.383 849.207 77.5081C843.777 74.8286 842.657 68.9952 839.982 63.5524Z" stroke="black" stroke-miterlimit="10"/>
<path d="M857.773 232.417C852.976 229.032 847.019 237.692 827.462 246.372C809.98 254.125 801.348 253.148 789.903 263.817C784.493 268.855 781.91 273.279 781.336 274.284C775.781 284.004 776.493 292.14 775.406 302.893C772.876 327.881 764.527 328.278 766.181 342.667C767.868 357.292 778.49 374.186 789.903 374.067C800.966 373.956 809.809 357.879 812.965 347.551C816.741 335.18 812.735 329.855 817.578 310.569C819.713 302.063 820.78 297.813 824.167 293.124C831.034 283.613 837.465 285.755 847.23 275.679C855.803 266.831 858.445 257.328 859.091 254.746C859.533 253.001 863.651 236.569 857.773 232.417Z" stroke="black" stroke-miterlimit="10"/>
<path d="M861.727 266.606C857.384 266.536 858.057 280.603 845.253 291.028C839.191 295.969 835.765 295.48 830.757 301.495C824.833 308.619 823.324 316.874 822.849 319.637C820.642 332.539 826.315 335.568 823.508 345.456C820.543 355.908 812.88 357.206 813.624 363.598C814.441 370.59 824.642 377.805 832.734 376.158C841.254 374.421 841.148 364.142 854.479 356.62C858.485 354.359 863.723 351.408 868.975 353.131C877.937 356.076 879.749 370.304 881.495 369.878C884.585 369.124 877.041 325.059 876.224 320.335C869.127 279.229 865.825 266.669 861.727 266.606Z" stroke="black" stroke-miterlimit="10"/>
<path d="M830.603 426.322C798.725 418.956 791.521 401.355 775.617 404.337C758.225 407.593 748.819 432.019 747.757 434.775C742.747 447.791 745.871 453.343 747.024 490.583C748.219 529.17 745.256 535.77 751.426 549.768C757.128 562.703 769.265 578.877 780.019 576.822C789.62 574.993 788.95 560.398 803.477 551.453C815.943 543.781 829.422 546.537 832.804 547.222C851.937 551.13 854.194 565.427 867.26 564.976C885.142 564.363 897.293 537.051 898.789 533.691C905.923 517.654 905.252 502.47 904.651 488.875C904.141 477.327 903.743 468.349 898.789 458.436C891.228 443.318 878.581 437.08 875.331 435.605C869.965 433.172 868.868 434.058 846.738 429.69C839.834 428.344 833.279 426.942 830.603 426.322Z" stroke="black" stroke-miterlimit="10"/>
<path d="M763.654 371.019C760.827 371.369 760.641 376.249 760.335 379.593C758.876 395.669 752.173 404.359 756.354 405.317C757.927 405.679 759.028 404.486 765.644 402.335C770.874 400.635 776.395 398.842 781.571 398.607C789.329 398.256 791.718 401.623 808.115 406.809C816.955 409.605 824.679 412.05 828.024 410.537C829.444 409.896 829.391 408.848 827.36 398.607C826.119 392.344 825.9 391.527 826.033 389.659C826.405 384.559 828.535 383.993 827.36 381.457C825.489 377.401 817.718 373.804 810.77 374.001C806.841 374.113 806.788 375.336 799.488 376.984C794.531 378.102 788.512 379.459 782.235 378.475C778.187 377.841 775.141 376.406 771.617 374.747C766.587 372.376 765.339 370.81 763.654 371.019Z" stroke="black" stroke-miterlimit="10"/>
<path d="M861.748 367.7C857.83 368.435 855.027 369.559 848.465 372.925C841.512 376.492 838.032 378.276 836.511 379.642C832.5 383.24 831.637 386.703 831.198 388.598C830.754 390.524 830.999 391.218 832.527 399.421C834.041 407.545 834.167 408.806 836.511 410.243C839.878 412.307 844.64 412.781 849.13 413.229C858.334 414.147 859.463 412.195 867.061 413.229C873.981 414.173 880.815 416.848 882.999 417.707C887.144 419.334 888.372 420.237 889.641 419.946C891.972 419.409 891.009 415.225 888.977 406.884C885.424 392.274 884.985 390.864 884.328 388.972C881.379 380.467 882.315 386.094 877.022 374.044C875.854 371.387 874.592 368.342 870.381 367.327C867.479 366.625 864.424 367.196 861.748 367.7Z" stroke="black" stroke-miterlimit="10"/>
<path d="M826.346 571.325C825.809 571.401 824.167 571.756 821.811 575.086C817.511 581.163 818.955 585.658 816.711 592.497C813.428 602.507 805.854 606.563 807.183 608.611C807.784 609.536 809.433 608.877 816.385 607.671C827.064 605.812 829.239 606.311 830.405 606.689C831.753 607.127 832.609 607.698 838.517 614.155C846.87 623.285 851.047 627.846 852.888 630.727C855.393 634.645 855.993 636.486 857.402 636.412C860.703 636.23 863.419 625.835 864.836 620.412C866.596 613.678 866.228 611.702 868.564 607.689C870.663 604.086 872.031 603.847 873.448 600.394C874.071 598.875 876.236 593.62 874.057 588.939C871.725 583.915 865.922 582.818 864.92 582.626C857.615 581.242 855.293 586.779 848.218 585.731C843.361 585.014 839.552 581.68 835.919 578.493C831.259 574.408 829.437 570.878 826.346 571.325Z" stroke="black" stroke-miterlimit="10"/>
<path d="M752.253 671.597C756.836 669.335 756.028 670.435 762.138 667.711C768.889 664.701 772.263 663.203 775.64 660.45C782.94 654.51 785.878 646.553 786.82 643.915C787.452 642.14 788.063 636.182 789.258 624.351C790.244 614.573 790.371 612.413 788.997 609.849C786.2 604.643 780.033 603.117 777.96 602.605C769.815 600.593 767.099 604.971 762.416 602.111C758.566 599.76 759.012 595.951 752.906 591.662C750.67 590.091 749.295 589.129 747.988 589.642C745.644 590.568 745.653 595.413 744.913 609.038C744.376 618.841 744.113 623.737 743.646 626.746C742.07 636.924 740.285 637.441 740.468 643.949C740.676 651.293 742.994 651.833 742.182 658.113C741.576 662.782 739.917 665.454 741.244 669.413C741.536 670.291 742.495 673.142 744.813 673.963C746.856 674.69 748.655 673.375 752.253 671.597Z" stroke="black" stroke-miterlimit="10"/>
<path d="M750.646 668.647C753.893 669.461 756.544 667.036 763.333 661.893C774.517 653.421 774.074 654.891 776.91 651.764C782.333 645.784 784.729 639.517 785.644 636.749C788.67 627.61 787.521 620.552 787.089 618.367C786.494 615.352 785.9 612.337 784.054 611.792C781.114 610.923 775.902 616.547 773.662 622.761C770.764 630.794 774.818 634.31 771.58 640.976C769.128 646.03 764.453 648.844 761.544 650.595C755.19 654.425 751.029 653.795 747.864 658.531C747.178 659.555 745.566 662.046 746.261 664.603C746.845 666.756 748.856 668.197 750.646 668.647Z" stroke="black" stroke-miterlimit="10"/>
<path d="M751.453 650.096C755.873 651.039 759.659 647.513 762.332 645.029C763.678 643.775 766.345 641.238 767.833 637.099C769.371 632.821 767.959 631.532 768.592 626.474C769.787 616.967 775.781 613.44 773.86 609.101C773.027 607.221 771.051 605.956 769.297 605.731C765.6 605.254 763.985 609.511 760.864 609.279C756.312 608.943 755.297 599.568 752.451 599.841C750.108 600.067 748.099 606.674 747.793 612.324C747.36 620.444 750.732 621.406 749.328 627.163C748.129 632.093 745.124 633.537 744.671 639.646C744.46 642.433 744.952 643.978 745.335 644.873C746.425 647.405 748.75 649.52 751.453 650.096Z" stroke="black" stroke-miterlimit="10"/>
<path d="M828.419 580.656C826.406 580.939 825.099 583.247 824.712 583.933C822.318 588.169 824.937 591.016 823.274 595.873C821.702 600.466 817.865 602.265 818.39 603.167C819.124 604.415 825.371 599.098 831.342 601.145C833.189 601.781 834.948 603.721 838.386 607.571C844.293 614.196 844.884 616.586 847.37 616.748C851.454 617.013 855.098 610.926 855.416 610.379C858.472 605.152 856.429 601.624 859.776 597.842C862.292 594.994 865.054 595.178 865.139 593.596C865.25 591.556 860.779 588.981 856.243 588.808C850.28 588.581 848.981 592.687 844.359 591.871C841.114 591.298 838.428 588.679 834.154 584.518C831.788 582.211 830.389 580.376 828.419 580.656Z" stroke="black" stroke-miterlimit="10"/>
<path d="M830.427 317.198C828.826 319.228 828.055 321.74 827.792 326.269C827.133 337.538 830.862 339.338 829.109 345.109C827.561 350.196 824.405 349.645 821.861 356.971C820.866 359.825 819.832 362.965 821.202 366.043C822.375 368.68 825.05 370.676 827.792 370.927C832.318 371.339 835.989 366.894 838.993 363.251C842.44 359.072 841.794 357.913 844.924 354.878C848.548 351.361 852.548 349.875 854.149 349.296C860.488 347.007 863.934 348.423 864.692 346.505C865.924 343.379 857.813 337.022 857.444 336.736C852.772 333.121 851.639 334.391 848.219 331.153C844.232 327.371 841.735 321.81 840.97 319.989C839.409 316.256 839.33 314.399 837.676 313.709C835.356 312.746 832.16 315.007 830.427 317.198Z" stroke="black" stroke-miterlimit="10"/>
<path d="M848.548 241.489C844.97 244.719 842.295 244.119 835.369 246.373C828.226 248.697 824.655 249.862 822.191 252.653C817.552 257.907 820.952 262.729 816.919 276.378C814.58 284.284 811.7 288.561 812.965 289.636C813.558 290.138 814.784 289.719 822.849 284.053C829.577 279.322 830.711 278.213 835.369 274.982C842.756 269.861 843.31 270.279 846.571 267.307C849.108 264.99 852.64 261.696 855.137 256.142C858.676 248.271 857.384 241.984 857.114 240.791C856.785 239.304 856.1 236.248 854.479 235.906C852.719 235.536 851.599 238.739 848.548 241.489Z" stroke="black" stroke-miterlimit="10"/>
<path d="M894.077 653.069C882.632 661.292 890.542 672.827 881.101 695.657C876.803 706.055 872.765 709.462 874.353 716.498C875.376 721.033 879.201 725.02 886.81 732.809C898.427 744.697 900.861 744.113 906.534 751.837C911.74 758.923 910.904 761.071 916.396 766.789C919.946 770.486 928.848 778.496 933.005 776.756C936.815 775.161 934.734 764.949 930.41 744.588C925.785 722.805 918.249 701.402 915.877 679.347C914.195 663.729 914.766 651.913 907.572 649.444C901.966 647.523 894.98 652.416 894.077 653.069Z" stroke="black" stroke-miterlimit="10"/>
<path d="M961.227 923.224C961.378 919.421 961.912 910.768 957.932 908.57C954.881 906.889 951.797 910.44 942.117 915.548C928.998 922.477 925.473 920.81 915.101 928.108C912.524 929.923 910.528 931.646 906.535 935.086C893.382 946.425 894.463 948.379 888.743 951.833C878.207 958.204 873.054 952.475 864.363 959.509C861.114 962.139 859.124 965.684 855.137 972.767C850.446 981.112 846.327 988.432 844.594 998.585C843.382 1005.67 841.207 1018.38 846.571 1026.5C857.213 1042.6 885.402 1022.2 931.574 1032.78C954.473 1038.02 967.842 1047.68 975.064 1040.45C978.88 1036.64 978.287 1030.8 975.723 1011.84C963.381 920.628 960.746 935.512 961.227 923.224Z" stroke="black" stroke-miterlimit="10"/>
<path d="M861.727 1021.61C856.633 1018.7 850.98 1012.43 850.525 1004.87C850.202 999.472 852.805 998.209 862.386 981.142C868.804 969.698 868.745 968.281 871.611 966.488C879.156 961.757 884.586 968.421 894.674 965.093C898.456 963.844 899.207 962.406 912.465 949.043C928.273 933.113 930.566 931.773 933.551 931.599C944.958 930.936 954.123 948.06 954.637 949.043C962.314 963.76 954.618 970.417 961.227 991.608C965.523 1005.4 971.414 1011.01 968.475 1016.73C966.182 1021.19 960.377 1022.07 950.684 1023.01C905.046 1027.41 903.062 1020.36 878.859 1023.71C874.985 1024.24 868.264 1025.36 861.727 1021.61Z" stroke="black" stroke-miterlimit="10"/>
<path d="M915.556 777.989C892.655 767.595 872.874 773.316 864.001 776.046C853.236 779.349 843.746 782.438 834.154 793.531C830.24 798.067 821.272 808.432 817.873 825.587C815.574 837.176 817.656 842.587 826.014 887.757C831.875 919.444 832.085 923.456 836.189 930.498C837.132 932.121 849.451 952.617 866.715 950.898C874.712 950.101 880.811 944.836 885.03 941.184C893.007 934.287 893.245 930.003 900.632 921.756C904.933 916.947 906.568 916.491 929.123 902.328C946.692 891.293 949.392 889.262 951.508 883.871C952.926 880.257 952.655 878.791 952.865 852.786C953.055 829.405 953.319 825.568 951.508 818.787C949.032 809.51 945.071 803.731 942.011 799.359C940.227 796.805 932.04 785.468 915.556 777.989Z" stroke="black" stroke-miterlimit="10"/>
<path d="M1159.31 239.638C1158.37 235.333 1157.51 233.651 1151.11 219.591C1141.03 197.401 1140.28 195.245 1136.7 191.931C1134.89 190.263 1126.36 182.378 1116.01 183.697C1114.39 183.906 1111.89 184.443 1098.9 194.178C1088.79 201.755 1083.65 205.642 1079.68 210.513C1075.71 215.376 1071.41 220.645 1069.5 228.955C1068.9 231.579 1065.86 244.851 1072.53 252.91C1076.8 258.053 1080.3 255.373 1087.94 261.325C1093.15 265.387 1092.39 267.312 1100.58 277.109C1107.59 285.497 1111.1 289.697 1116.16 291.114C1120.3 292.279 1124.76 291.065 1133.69 288.637C1141.84 286.425 1145.91 285.315 1149.35 282.496C1156.51 276.628 1158.51 267.843 1159.66 262.742C1162.01 252.443 1160.26 243.999 1159.31 239.638Z" stroke="black" stroke-miterlimit="10"/>
<path d="M1165.31 245.771C1164.38 224.921 1155.66 210.002 1151.67 203.345C1146.83 195.272 1142.47 188.182 1133.78 182.705C1130.23 180.465 1122.1 175.35 1111.91 176.187C1105.03 176.76 1102.72 179.593 1080.82 195.921C1065.46 207.371 1063.37 208.39 1060.75 213.219C1060.15 214.328 1052.65 228.682 1058.49 242.393C1061.19 248.743 1065.76 252.602 1068.92 255.274C1074.9 260.319 1077.27 259.615 1083.81 263.899C1087.62 266.39 1088.33 267.625 1102.37 283.025C1113.3 295.02 1115.16 296.793 1118.66 297.379C1121.01 297.777 1121.72 297.239 1135.75 291.936C1148.37 287.17 1150.51 286.57 1153.64 283.667C1157.91 279.69 1159.89 275.252 1161.37 271.833C1162.22 269.837 1165.99 260.78 1165.31 245.771Z" stroke="black" stroke-miterlimit="10"/>
<path d="M1216.72 185.495C1235.39 205.049 1256.82 212.248 1266.49 215.373C1278.22 219.156 1288.62 222.388 1302.01 220.389C1307.48 219.57 1319.99 217.701 1329.51 208.265C1335.94 201.893 1335.85 197.168 1343.97 162.733C1349.66 138.577 1350.91 135.812 1349.43 128.888C1349.09 127.295 1344.43 106.946 1326.91 98.4978C1318.79 94.5841 1310.93 94.6836 1305.48 94.7526C1295.18 94.8828 1293.4 97.571 1283.2 98.919C1277.25 99.7002 1275.49 99.1028 1248.3 95.9397C1227.12 93.4735 1223.74 93.3203 1219.73 95.7023C1217.05 97.2953 1216.78 98.4212 1207.19 115.462C1198.57 130.78 1196.93 133.17 1196.25 138.646C1195.33 146.144 1197.12 152.148 1198.54 156.728C1199.37 159.394 1203.29 171.411 1216.72 185.495Z" stroke="black" stroke-miterlimit="10"/>
<path d="M935.528 941.365C931.113 943.508 929.071 942.454 925.644 943.459C922.185 944.478 921.756 946.292 912.465 956.717C905.869 964.113 905.665 963.667 905.217 965.09C903.181 971.552 909.171 974.936 915.101 990.21C919.16 1000.66 918.659 1005.02 923.667 1009.05C925.736 1010.72 929.525 1012.96 934.21 1013.24C941.07 1013.64 943.402 1009.46 948.048 1011.14C952.621 1012.8 952.601 1017.65 956.614 1018.12C959.843 1018.5 963.691 1015.8 964.522 1012.54C965.464 1008.82 961.912 1006.59 958.591 999.979C954.756 992.325 954.321 984.963 953.978 979.046C953.392 968.963 955.711 967.888 953.978 960.206C952.68 954.463 950.42 950.8 948.048 946.948C943.442 939.481 940.8 939.279 940.141 939.272C938.553 939.244 938.006 940.158 935.528 941.365Z" stroke="black" stroke-miterlimit="10"/>
<path d="M899.286 971.373C895.53 969.098 893.521 972.294 886.766 971.373C881.139 970.605 879.525 967.974 876.223 969.279C874.411 969.998 873.456 971.394 871.611 974.164C867.519 980.311 868.468 982.635 865.021 988.12C862.379 992.32 861.364 991.685 858.432 996.493C856.258 1000.07 854.399 1003.11 854.478 1006.26C854.656 1013.46 864.863 1018.47 866.998 1019.52C876.869 1024.36 881.785 1021.18 907.853 1020.92C916.946 1020.82 925.189 1021.12 925.644 1018.82C926.079 1016.64 918.837 1015.26 915.101 1007.66C913.862 1005.13 914.897 1005.77 912.465 996.493C910.462 988.845 908.986 985.496 907.853 983.235C907.227 981.986 906.146 979.969 904.558 977.653C902.153 974.136 900.953 972.377 899.286 971.373Z" stroke="black" stroke-miterlimit="10"/>
<path d="M932.233 965.092C931.7 965.329 929.631 966.271 928.28 968.581C925.901 972.649 928.715 975.838 930.257 988.119C930.757 992.117 930.724 993.896 932.233 995.794C934.302 998.404 938.329 1000.05 940.8 998.586C944.411 996.443 943.594 988.314 943.435 986.723C943.066 983.06 942.032 981.783 942.776 979.048C943.574 976.124 945.234 975.831 945.412 973.465C945.689 969.781 941.933 966.85 941.459 966.487C941.241 966.32 936.82 963.075 932.233 965.092Z" stroke="black" stroke-miterlimit="10"/>
<path d="M872.936 989.806C872.593 989.632 871.249 988.962 869.568 989.262C866.623 989.792 866.366 992.674 861.299 998.863C859.645 1000.88 858.801 1001.64 858.577 1003.27C858.261 1005.5 859.256 1008.33 861.029 1008.98C863.612 1009.94 867.058 1005.95 867.73 1005.16C869.278 1003.36 869.423 1002.26 871.031 1001.45C872.745 1000.59 873.614 1001.33 874.794 1000.38C876.639 998.912 876.362 995.661 876.323 995.256C876.303 995.067 875.888 991.327 872.936 989.806Z" stroke="black" stroke-miterlimit="10"/>
<path d="M875.449 689.574C878.807 694.354 864.769 701.456 864.498 712.659C864.326 719.734 869.728 725.27 875.97 731.671C883.636 739.529 888.407 739.905 896.308 748.872C897.257 749.949 905.924 759.781 903.608 761.999C901.251 764.257 891.781 754.466 877.535 754.756C866.558 754.978 857.098 761.093 847.289 767.43C836.568 774.361 833.616 778.923 830.081 777.841C825.163 776.334 823.541 765.285 826.43 756.114C830.529 743.105 840.766 743.254 843.639 731.671C846.231 721.233 838.695 717.992 842.596 706.322C845.422 697.871 851.43 693.408 853.026 692.29C855.388 690.633 862.37 685.726 870.234 687.311C872.518 687.768 874.458 688.162 875.449 689.574Z" stroke="black" stroke-miterlimit="10"/>
<path d="M844.307 745.696C842.32 749.018 838.071 747.686 833.905 750.682C826.607 755.926 829.561 767.25 829.743 767.907C830.108 769.222 830.815 771.774 832.344 771.987C833.983 772.213 835.018 769.534 839.106 765.641C840.994 763.841 843.147 761.792 846.388 760.201C850.934 757.971 852.515 759.145 856.27 757.028C857.238 756.479 861.118 754.29 862.512 750.229C864.306 744.998 860.712 740.36 858.871 737.99C857.045 735.637 854.918 732.89 852.109 733.003C848.775 733.135 846.258 737.224 845.347 739.803C844.26 742.872 845.472 743.746 844.307 745.696Z" stroke="black" stroke-miterlimit="10"/>
<path d="M614.972 813.958C565.497 767.592 565.133 753.615 545.784 751.252C528.996 749.196 527.716 759.525 472.616 789.628C430.206 812.802 417.246 814.172 412.967 829.871C408.674 845.637 419.517 852.386 428.875 898.195C436.246 934.31 430.934 937.076 437.621 947.798C454.067 974.15 483.72 953.511 521.923 980.556C547.712 998.815 547.727 1017.8 564.071 1018C584.795 1018.24 588.004 987.742 624.512 966.52C648.613 952.509 658.328 959.343 668.253 944.989C681.832 925.352 677.604 892.397 669.046 871.047C660.452 849.594 650.389 847.144 614.972 813.958Z" stroke="black" stroke-miterlimit="10"/>
<path d="M1422.75 643.331C1390.74 633.841 1372.07 628.641 1348.05 637.722C1337.01 641.901 1322 650.174 1307.59 666.861C1297.66 678.375 1285.79 692.118 1281.92 715.063C1279.58 728.936 1281.91 741.871 1286.59 767.742C1292.66 801.338 1301.16 823.531 1306.04 834.998C1313.62 852.809 1317.41 861.714 1323.16 865.261C1329.1 868.938 1336.84 869.114 1375.28 841.721C1404.6 820.838 1407.47 815.48 1421.19 811.459C1438.27 806.445 1441.11 812.601 1453.08 805.85C1475.58 793.166 1485.15 760.35 1486.54 755.41C1488.13 749.709 1498.87 709.743 1484.98 679.192C1475.83 659.061 1458.14 653.824 1422.75 643.331Z" stroke="black" stroke-miterlimit="10"/>
<path d="M595.605 159.885C550.691 147.279 550.378 140.857 535.69 143.643C521.438 146.341 511.471 154.918 491.545 172.071C471.23 189.558 460.42 198.853 460.012 213.694C459.59 228.946 470.285 245.355 482.088 249.227C493.626 253.012 497.606 241.982 520.716 236.033C536.921 231.863 550.949 233.169 556.984 234.001C579.237 237.076 582.332 246.073 594.034 242.122C605.034 238.407 611.579 227.334 620.838 211.67C629.73 196.628 635.927 186.141 633.451 177.153C630.866 167.796 620.797 166.955 595.605 159.885Z" stroke="black" stroke-miterlimit="10"/>
<path d="M1412.82 879.543C1403.32 879.794 1399.08 884.768 1392.48 892.501C1384.77 901.528 1380.92 906.037 1382.08 915.285C1382.41 917.895 1385.28 925.447 1391.03 940.548C1394.54 949.762 1396.34 953.933 1399.33 959.118C1403.59 966.513 1407.67 973.586 1413.32 976.776C1421.48 981.387 1427.36 974.727 1427.69 974.343C1434.19 966.668 1424.97 955.011 1430.25 946.085C1434.51 938.868 1441.88 944.231 1446.46 935.779C1449.77 929.674 1448.62 921.888 1447.89 916.848C1446.71 908.84 1444.8 895.884 1435.65 887.246C1427.09 879.169 1417.06 879.432 1412.82 879.543Z" stroke="black" stroke-miterlimit="10"/>
<path d="M293.062 872.286C279.383 876.096 272.2 870.814 266.705 877.171C259.259 885.781 265.472 903.505 266.046 905.082C272.029 921.564 283.04 920.754 286.473 934.389C287.692 939.225 286.591 940.46 281.201 967.883C276.622 991.175 276.266 996.122 279.224 999.283C283.725 1004.1 293.484 1002.19 299.652 999.283C311.308 993.784 315.064 982.383 324.032 962.998C326.016 958.707 336.915 935.15 349.072 915.549C367.061 886.549 377.064 883.541 378.065 867.402C378.975 852.727 371.931 835.345 360.933 831.814C353.171 829.323 344.993 835.038 328.645 846.468C306.551 861.917 306.109 868.651 293.062 872.286Z" stroke="black" stroke-miterlimit="10"/>
<path d="M320.738 872.984C315.44 877.582 309.918 878.957 300.311 881.357C286.203 884.874 280.496 883.199 277.907 887.637C276.193 890.575 276.793 894.552 280.542 903.686C289.728 926.057 296.278 926.943 298.993 937.878C303.862 957.5 287.507 973.814 293.721 979.745C296.588 982.48 302.485 981.301 306.241 979.047C316.501 972.879 311.677 958.107 320.738 934.389C323.525 927.097 328.269 914.669 339.188 903.686C350.726 892.082 358.179 893.129 364.887 881.357C366.376 878.747 374.336 864.778 368.181 854.143C364.61 847.975 357.526 845.065 351.708 845.072C342.997 845.079 336.901 851.618 332.599 856.237C325.311 864.059 327.123 867.443 320.738 872.984Z" stroke="black" stroke-miterlimit="10"/>
<path d="M313.819 1023.36C312.955 1019.65 314.016 1017.8 328.315 990.561C340.545 967.262 353.282 944.256 365.216 920.783C384.529 882.781 388.984 867.269 399.481 867.053C408.937 866.858 416.429 879.222 417.931 881.707C425.766 894.644 420.059 902.591 425.179 927.76C427.868 940.99 429.963 950.683 437.699 959.161C444.743 966.878 454.476 971.414 458.126 973.116C469.625 978.475 472.761 976.445 477.895 981.49C485.11 988.586 485.967 999.563 486.461 1005.91C487.251 1016.1 485.13 1024.19 484.484 1026.15C473.816 1058.46 322.543 1060.63 313.819 1023.36Z" stroke="black" stroke-miterlimit="10"/>
<path d="M328.645 1023.01C327.63 1021.4 326.556 1018.24 330.622 1006.96C337.415 988.125 346.529 979.954 356.32 965.091C363.865 953.634 367.812 944.269 373.453 930.9C385.617 902.053 386.184 887.037 393.221 886.241C398.677 885.627 405.629 893.833 407.059 902.29C408.634 911.627 402.874 917.705 385.314 944.855C369.664 969.055 368.194 973.576 368.84 979.047C370.145 990.086 378.856 994.97 376.748 1004.86C375.469 1010.88 371.1 1014.48 367.522 1017.43C354.64 1028.04 333.692 1030.98 328.645 1023.01Z" stroke="black" stroke-miterlimit="10"/>
<path d="M407.718 941.366C396.166 941.7 385.729 955.9 382.678 967.881C381.472 972.626 382.322 973.464 383.337 993.002C384.589 1017.1 383.502 1020.01 386.632 1023.7C390.104 1027.79 393.788 1026.98 418.261 1027.89C442.18 1028.78 446.971 1029.85 454.502 1025.8C457.876 1023.98 467.767 1018.65 468.999 1009.75C470.304 1000.31 460.769 994.941 441.982 974.859C419.012 950.297 417.154 941.086 407.718 941.366Z" stroke="black" stroke-miterlimit="10"/>
<path d="M700.253 709.892C694.658 705.571 685.231 709.903 683.65 710.627C670.063 716.868 673.603 730.519 659.266 744.443C652.911 750.614 644.204 755.295 626.79 764.662C618.426 769.16 613.984 771.053 613.098 775.465C612.806 776.929 612.015 783.111 630.623 798.301C653.833 817.249 662.625 813.796 671.081 827.634C671.201 830.712 676.887 854.271 681.686 853.998C686.999 853.692 685.005 824.541 693.767 776.189C700.611 738.438 708.99 716.637 700.253 709.892Z" stroke="black" stroke-miterlimit="10"/>
<path d="M499.31 1024.4C494.487 1016.3 492.154 1003.92 496.674 993.004C498.572 988.434 500.753 983.165 505.241 981.84C513.128 979.509 519.619 991.874 540.823 1009.05C552.566 1018.56 558.569 1023.32 565.204 1023.01C573.467 1022.63 580.709 1014.84 594.856 999.284C609.221 983.493 608.978 980.43 617.26 974.862C619.784 973.166 640 959.915 652.184 968.582C653.706 969.663 657.759 972.978 660.091 982.537C664.697 1001.42 658.8 1029.14 641.641 1045.34C620.918 1064.9 589.822 1057.21 527.645 1041.85C519.144 1039.75 506.335 1036.21 499.31 1024.4Z" stroke="black" stroke-miterlimit="10"/>
<path d="M671.293 1031.38C665.198 1019.95 673.171 1015.24 682.495 948.344C685.816 924.529 688.426 899.499 688.426 899.499C693.855 847.437 692.722 829.909 698.969 828.325C707.93 826.057 723.297 858.839 727.962 868.797C744.073 903.169 741.701 920.112 754.979 926.015C766.023 930.927 781.685 925.443 789.902 916.246C799.82 905.144 797.388 890.281 803.74 889.032C809.348 887.93 815.707 898.62 819.555 905.081C830.282 923.105 825.986 931.479 836.028 942.064C842.255 948.623 847.013 948.679 848.548 954.624C850.301 961.414 845.438 966.57 841.3 974.86C830.098 997.294 840.331 1010.39 830.757 1024.4C824.253 1033.92 813.433 1036.8 801.763 1039.06C751.684 1048.71 687.174 1061.16 671.293 1031.38Z" stroke="black" stroke-miterlimit="10"/>
<path d="M677.883 1021.61C672.868 1008.86 684.947 1002.42 691.721 961.603C694.343 945.805 694.831 932.938 695.674 910.665C697.13 872.175 694.712 855.253 698.969 854.144C703.647 852.923 712.253 871.903 719.396 887.638C733.438 918.591 734.934 934.103 747.73 939.274C754.695 942.086 762.062 940.648 765.522 939.972C781.178 936.915 784.881 925.855 791.879 927.411C802.205 929.707 811.99 957.744 803.74 977.652C798.126 991.203 787.155 993.743 783.313 1010.45C780.928 1020.8 784.222 1023.85 781.995 1029.29C772.474 1052.55 689.79 1051.9 677.883 1021.61Z" stroke="black" stroke-miterlimit="10"/>
<path d="M524.692 630.118C511.174 659.124 493.947 691.592 471.865 725.712C450.834 758.208 433.474 779.723 439.057 786.754C445.046 794.298 474.206 781.088 488.547 772.933C512.219 759.475 511.502 750.693 529.141 746.443C543.41 743.005 554.792 746.121 563.617 736.653C565.347 734.793 568.11 731.246 570.29 723.408C579.249 691.194 555.032 670.492 565.286 648.546C571.024 636.256 581.312 636.982 581.968 626.662C582.763 614.195 568.683 598.347 554.164 599.021C544.283 599.481 537.337 607.452 534.145 611.114C527.89 618.295 525.599 626.041 524.692 630.118Z" stroke="black" stroke-miterlimit="10"/>
<path d="M404.423 727.844C387.304 731.863 389.267 729.896 379.383 732.729C375.034 733.971 363.292 737.606 335.234 755.058C307.15 772.523 307.888 775.74 295.698 779.48C279.514 784.442 277.781 778.908 258.797 784.365C247.352 787.658 229.534 792.78 221.897 808.787C218.042 816.875 218.319 824.508 218.602 830.419C220.085 861.421 243.951 888.914 252.208 885.544C257.341 883.45 252.432 871.086 260.774 863.215C268.207 856.209 276.615 861.763 292.403 857.632C302.202 855.064 308.27 850.494 320.079 841.583C342.423 824.725 342.054 815.465 354.344 812.974C367.173 810.378 382.513 817.44 387.949 828.325C391.857 836.147 389.195 843.049 391.244 843.677C395.969 845.128 399.356 805.187 426.827 773.898C434.55 765.099 444.803 756.272 446.595 741.102C446.99 737.76 448.242 727.146 442.641 722.262C436.895 717.252 428.448 722.199 404.423 727.844Z" stroke="black" stroke-miterlimit="10"/>
<path d="M449.89 593.871C446.74 605.224 454.746 610.618 457.797 626.667C461.48 646.037 454.7 663.873 451.866 671.325C444.895 689.67 436.065 695.085 438.688 704.819C440.467 711.427 447.056 718.286 453.843 718.775C469.776 719.926 477.005 685.295 511.171 624.574C530.801 589.684 540.593 579.476 556.638 548.515C571.938 518.985 570.35 514.156 581.678 500.368C585.177 496.111 589.664 491.29 588.267 487.808C586.112 482.421 570.337 481.332 559.933 488.505C554.167 492.476 555.57 495.176 546.754 503.159C539.38 509.83 536.56 509.613 532.257 515.021C529.18 518.887 527.75 522.62 525.009 532.466C517.378 559.889 519.652 562.757 515.125 567.355C510.73 571.821 502.75 572.658 486.79 574.333C472.992 575.784 468.465 574.277 461.751 578.52C460.149 579.532 452.453 584.646 449.89 593.871Z" stroke="black" stroke-miterlimit="10"/>
<path d="M207.877 617.562C188.739 626.926 163.695 653.147 157.469 659.618C144.23 673.373 143.925 672.801 143.066 675.319C137.267 692.287 156.776 701.736 161.9 734.759C164.027 748.486 162.465 758.512 169.102 762.235C173.705 764.82 177.865 761.91 190.705 765.039C196.616 766.48 197.474 767.523 199.568 766.721C206.465 764.08 203.064 750.476 211.201 745.413C216.236 742.284 220.651 745.547 223.942 742.048C227.42 738.353 225.698 731.31 224.496 726.908C219.145 707.327 212.42 697.474 206.216 681.487C199.829 665.024 196.704 656.612 200.122 647.842C200.399 647.13 200.288 647.517 208.985 630.459C213.201 622.194 215.378 617.836 213.971 616.44C212.796 615.274 209.644 616.698 207.877 617.562Z" stroke="black" stroke-miterlimit="10"/>
<path d="M370.63 455.151C363.276 461.22 352.106 470.308 338.169 481.116C320.415 494.882 307.717 504.038 309.104 506.239C310.422 508.329 322 500.288 341.236 499.661C354.209 499.234 365.46 502.35 371.155 503.927C383.56 507.361 388.704 510.982 401.227 511.774C406.835 512.129 415.312 512.585 417.491 508.656C419.427 505.164 415.43 499.923 412.378 495.929C410.443 493.391 404.545 486.16 387.869 475.316C380.92 470.795 376.802 468.709 376.363 464.622C376.154 462.679 377.228 460.033 379.381 454.821C381.892 448.752 383.419 446.55 382.825 446.081C382.254 445.629 379.743 446.862 370.63 455.151Z" stroke="black" stroke-miterlimit="10"/>
<path d="M680.848 182.524C687.912 184.143 683.293 200.834 695.345 215.32C702.066 223.393 707.976 223.582 711.818 232.765C713.69 237.231 714.487 242.429 713.795 249.512C711.568 272.35 696.175 290.967 694.686 292.774C682.541 307.546 684.281 297.282 629.451 416.98C623.197 430.629 612.977 446.287 597.163 472.105C592.069 480.423 578.758 479.376 577.394 476.99C576.057 474.652 584.537 469.914 587.279 458.847C589.862 448.408 585.697 438.926 584.643 436.518C580.729 427.6 575.839 426.03 572.782 421.167C561.969 403.966 587.305 366.537 591.891 359.762C611.014 331.515 621.702 331.557 650.537 293.472C663.841 275.895 668.868 266.244 669.646 254.396C670.259 245.116 668.486 231.153 667.01 219.507C665.528 207.798 664.098 201.078 667.669 193.689C670.246 188.365 676.031 181.415 680.848 182.524Z" stroke="black" stroke-miterlimit="10"/>
<path d="M444.94 371.734C473.298 342.651 486.766 337.919 529.853 300.814C548.097 285.104 547.098 284.734 561.071 273.399C580.195 257.892 586.07 255.329 612.893 234.065C629.501 220.894 637.805 214.315 639.741 212.014C644.561 206.287 649.368 199.088 653.477 200.095C655.88 200.685 656.985 203.82 657.847 206.651C661.806 219.661 664.921 229.905 661.593 244.793C660.832 248.19 658.628 256.795 651.603 268.035C641.876 283.596 633.778 286.82 611.02 307.369C591.296 325.183 581.431 334.087 577.304 344.319C569.974 362.502 575.244 376.663 567.315 380.077C561.702 382.491 557.331 376.144 540.467 369.35C533.48 366.537 518.046 360.482 498.635 361.006C493.059 361.155 478.743 361.692 463.67 369.35C454.717 373.903 447.868 379.756 446.813 380.673C439.895 386.657 436.124 391.979 426.209 399.148C422.9 401.538 418.754 404.542 418.092 403.916C416.662 402.563 432.19 384.809 444.94 371.734Z" stroke="black" stroke-miterlimit="10"/>
<path d="M680.189 190.897C678.41 189.767 675.352 191.162 673.6 192.99C670.061 196.675 670.964 202.976 671.623 208.342C673.547 223.965 675.003 235.779 674.259 246.72C673.402 259.329 670.206 262.176 672.941 268.351C676.025 275.308 684.354 281.351 692.05 279.516C699.773 277.674 703.015 268.826 705.229 262.769C706.257 259.964 710.349 248.792 705.888 237.649C704.306 233.699 701.539 230.594 696.004 224.391C686.396 213.624 683.359 213.931 681.507 208.342C678.766 200.059 683.279 192.865 680.189 190.897Z" stroke="black" stroke-miterlimit="10"/>
<path d="M682.495 225.439C680.215 227.113 682.186 231.244 681.836 239.394C681.303 251.829 676.196 254.083 677.883 261.724C679.365 268.429 685.125 274.968 689.744 274.284C693.262 273.76 695.18 269.19 698.31 261.724C701.341 254.495 703.147 250.196 702.264 244.279C700.979 235.654 695.068 230.756 693.697 229.625C693.052 229.088 685.757 223.052 682.495 225.439Z" stroke="black" stroke-miterlimit="10"/>
<path d="M612.823 246.997C608.608 250.883 604.587 252.918 601.7 254.375C593.697 258.422 588.811 258.436 583.819 264.005C582.606 265.357 579.895 268.383 580.652 270.57C581.376 272.664 584.88 272.875 591.071 273.168C609.407 274.04 609.719 273.653 612.404 274.448C621.879 277.257 624.57 284.041 627.541 282.263C629.821 280.898 629.766 273.931 629.651 259.999C629.595 253.18 629.325 251.123 630.565 247.796C632.338 243.041 634.732 242.319 636.689 236.892C637.803 233.794 639.369 227.541 637.251 225.844C635.015 224.053 629.672 228.142 627.676 229.672C620.072 235.49 619.987 240.395 612.823 246.997Z" stroke="black" stroke-miterlimit="10"/>
<path d="M631.055 232.38C629.718 231.678 626.186 235.661 623.946 239.62C620.074 246.464 621.752 250.295 618.174 253.201C615.624 255.269 614.013 253.94 611.064 256.608C610.762 256.884 606.672 260.65 607.474 263.793C608.15 266.442 611.598 265.88 616.768 269.322C622.108 272.876 623.426 276.807 624.724 276.174C626.253 275.426 624.527 269.889 624.37 258.165C624.276 251.32 624.262 247.845 625.706 245.342C627.733 241.83 630.874 240.499 631.549 236.129C631.606 235.758 632.029 232.887 631.055 232.38Z" stroke="black" stroke-miterlimit="10"/>
<path d="M743.003 269C738.125 269.492 731.166 270.87 724.149 275.071C705.591 286.187 700.164 308.935 697.637 318.174C688.57 351.297 665.309 378.41 649.325 408.631C610.682 481.695 591.357 518.229 582.749 527.014C582.543 527.22 567.449 542.622 570.377 547.048C572.203 549.81 578.82 544.942 587.463 548.262C594.268 550.879 598.875 557.235 603.37 563.44C608.19 570.087 607.948 572.127 611.029 573.76C616.909 576.875 623.602 572.528 631.061 569.511C633.158 568.661 653.879 560.544 671.714 565.868C674.936 566.827 674 567.015 706.474 585.295C711.241 587.978 713.662 589.314 715.312 588.937C725.734 586.57 722.895 554.036 729.452 502.73C733.983 467.313 736.899 470.591 741.825 430.486C745.984 396.641 744.052 393.12 748.895 365.528C749.926 359.645 754.091 336.6 757.143 316.353C760.825 291.906 758.569 300.229 760.089 292.677C761.591 285.209 762.852 281.804 761.267 278.106C758.433 271.477 748.906 269.613 743.003 269Z" stroke="black" stroke-miterlimit="10"/>
<path d="M743.777 277.076C741.359 276.957 732.588 276.817 722.032 283.356C719.034 285.212 710.876 290.403 704.899 300.8C697.796 313.158 702.33 317.98 696.333 334.294C689.816 352.018 680.591 356.867 683.154 362.206C686.021 368.172 701.15 369.623 710.83 362.903C721.564 355.451 719.106 342.458 729.939 337.783C737.168 334.664 742.116 338.788 746.413 334.294C749.543 331.021 747.777 327.937 749.707 316.849C751.671 305.573 754.307 304.08 754.979 293.823C755.638 283.788 753.397 280.934 752.343 279.867C751.526 279.036 749.516 277.355 743.777 277.076Z" stroke="black" stroke-miterlimit="10"/>
<path d="M704.24 332.2C699.786 339.136 702.264 342.506 696.992 352.436C694.047 357.983 691.543 360.181 692.379 361.507C693.625 363.482 701.275 361.912 706.876 357.32C712.714 352.534 710.803 349.01 718.078 340.574C722.407 335.556 725.241 334.307 725.326 330.805C725.412 327.267 722.658 323.45 719.396 322.431C713.736 320.659 707.225 327.56 704.24 332.2Z" stroke="black" stroke-miterlimit="10"/>
<path d="M648.548 433.873C646.082 440.404 646.687 443.095 642.7 447.177C630.483 459.688 634.737 472.054 624.181 493.738C613.499 515.683 598.8 524.264 601.276 530.02C602.041 531.798 603.523 531.163 612.485 534.253C620.897 537.156 625.141 538.674 627.105 542.114C630.565 548.179 626.808 554.783 629.542 557.232C632.953 560.286 638.86 550.084 650.985 547.557C657.691 546.16 663.096 547.774 670.479 549.975C673.471 550.87 681.215 553.422 690.46 559.651C701.927 567.379 704.661 573.323 707.03 571.745C710.982 569.114 709.047 548.808 700.694 532.439C693.126 517.612 688.126 521.367 682.175 507.646C674.314 489.53 675.635 465.922 675.84 462.294C676.103 457.632 676.566 454.729 676.327 448.991C675.781 435.863 672.657 434.484 672.428 423.593C672.214 413.38 674.841 409.081 671.941 404.243C670.586 401.981 668.164 399.835 665.605 400.01C660.878 400.331 657.954 408.397 656.833 411.499C653.159 421.646 651.619 425.752 648.548 433.873Z" stroke="black" stroke-miterlimit="10"/>
<path d="M1494.02 617.94C1504.58 627.604 1509.87 630.028 1515.04 638.418C1530.89 664.135 1556.1 673.855 1589.77 708.218C1623.85 742.994 1631.03 766.706 1643.05 770.755C1646.76 772.005 1646.46 769.871 1657.38 764.706C1667.62 759.862 1672.89 757.476 1680.36 759.43C1693.53 762.877 1703.46 773.863 1709.56 773.97C1717.17 774.101 1701.87 757.031 1704.31 742.552C1705.67 734.545 1711.79 731.153 1720.15 726.513C1723.54 724.636 1732.75 720.041 1749.6 718.11C1770.5 715.716 1783.02 719.726 1781.5 715.687C1778.98 708.95 1740.54 688.133 1705.58 677.883C1673.92 668.601 1677.9 677.601 1649.21 667.999C1611.33 655.324 1568.73 627.692 1562.18 623.443C1553.77 617.984 1548.71 614.297 1538.02 608.118C1513.59 593.982 1509.23 595.446 1489.08 583.504C1470.19 572.305 1463.83 564.978 1453.25 562.363C1448.3 561.14 1442.94 561.071 1441.77 563.727C1439.59 568.629 1452.71 580.448 1457.75 584.99C1474.25 599.854 1480.89 605.92 1494.02 617.94Z" stroke="black" stroke-miterlimit="10"/>
<path d="M744.429 565.429C741.293 563.713 737.57 566.127 737.576 569.867C737.682 625.822 729.03 669.099 720.384 699.585C707.37 745.493 703.581 776.691 705.229 807.044C706.375 828.152 730.506 829.82 736.858 855.889C740.067 869.07 738.907 879.705 747.401 894.268C750.854 900.192 758.247 912.864 767.169 912.41C772.355 912.145 774.839 907.609 791.55 879.614C803.786 859.12 805.506 856.441 805.388 851.005C805.104 837.565 794.219 836.365 790.891 821C787.438 805.063 795.457 789.342 802.093 776.342C810.132 760.586 814.797 760.474 817.249 749.128C820.385 734.6 813.572 730.937 816.59 717.03C818.909 706.347 826.599 691.658 838.994 687.025C848.093 683.62 854.32 687.66 866.669 681.443C871.084 679.217 873.581 677.961 875.894 675.163C886.035 662.896 872.942 644.921 881.166 633.994C888.414 624.364 903.477 631.816 908.182 622.829C911.332 616.814 905.395 611.902 901.593 594.918C896.881 573.865 901.336 560.573 896.321 558.633C892.928 557.321 890.496 563.252 879.848 569.797C873.667 573.593 863.611 579.783 852.831 578.171C842.545 576.636 842.222 569.588 828.45 565.611C822.718 563.957 815.318 561.822 808.023 564.913C797.467 569.386 799.404 579.608 788.255 586.544C780.618 591.296 768.355 593.564 761.239 587.94C755.051 583.048 756.738 575.338 748.719 568.402C747.295 567.174 745.839 566.197 744.429 565.429Z" stroke="black" stroke-miterlimit="10"/>
<path d="M-9.39104 648.996C-1.04228 640.818 10.8911 633.533 15.6487 637.134C21.421 641.509 11.2535 657.858 18.9433 669.93C24.6498 678.896 37.7495 681.653 47.2777 680.397C63.9028 678.206 65.0559 664.396 85.4962 658.068C96.8234 654.558 98.0227 658.319 113.831 655.276C137.019 650.818 149.756 639.779 150.731 641.321C152.431 644.014 108.348 669.176 63.0923 716.681C50.5658 729.835 37.1696 741.962 10.3771 766.224C-8.85072 783.634 -17.5553 790.814 -24.5467 787.856C-34.8525 783.494 -34.635 759.986 -34.4307 738.313C-34.1738 710.967 -33.8179 672.923 -9.39104 648.996Z" stroke="black" stroke-miterlimit="10"/>
<path d="M-19.6047 567.702C-21.3245 574.512 -28.3356 599.326 -16.9689 613.058C-11.737 619.38 -3.05214 622.813 4.77606 622.129C14.502 621.278 20.8081 614.265 29.1568 604.685C41.703 590.289 41.3142 583.486 50.9018 572.586C61.0627 561.038 72.5019 556.188 79.8952 553.048C114.634 538.297 165.663 544.863 179.395 572.586C186.525 586.975 179.58 598.949 185.325 602.591C197.233 610.134 233.935 563.117 271.647 520.95C330.661 454.968 365.44 416.08 418.59 380.695C446.041 362.42 474.231 338.277 530.61 289.983C537.779 283.843 554.002 269.754 551.037 262.77C546.78 252.756 504.924 261.751 500.299 262.77C474.198 268.519 467.161 275.972 454.832 271.143C443.742 266.796 433.62 254.564 433.746 242.534C433.917 225.578 454.351 216.367 452.196 211.133C448.124 201.246 395.527 220.205 395.527 220.205C209.752 287.178 70.67 350.691 -37.3961 395.349C-84.8727 414.971 -4.10645 506.443 -19.6047 567.702Z" stroke="black" stroke-miterlimit="10"/>
<path d="M-25.5351 474.201C-28.2961 479.574 -11.3943 484.605 -17.6279 492.343C-24.382 500.724 -12.1323 513.081 -11.6974 536.304C-11.1571 564.878 -29.1 577.459 -20.9226 593.522C-20.514 594.325 -15.1964 604.436 -6.42589 605.385C8.82197 607.038 14.5284 578.848 44.3124 550.259C55.8373 539.2 70.6898 524.944 93.074 520.952C107.083 518.454 119.326 521.846 143.812 528.628C179.263 538.446 185.497 548.864 187.302 552.353C192.449 562.31 189.688 570.321 193.233 571.891C200.514 575.115 221.91 545.612 239.359 509.788C288.621 408.658 259.825 352.814 305.252 313.71C315.394 304.981 345.751 282.868 363.239 270.447C386.849 253.687 398.815 246.206 397.504 242.536C394.96 235.412 344.736 249.395 336.882 251.607C253.519 275.095 238.568 298.149 155.673 332.55C38.0393 381.367 -20.7776 405.776 -25.5351 406.516C-28.8628 407.032 -40.671 408.749 -43.3265 416.285C-50.1861 435.732 -19.5058 462.464 -25.5351 474.201Z" stroke="black" stroke-miterlimit="10"/>
<path d="M503.923 -19.484C502.236 -5.00499 530.406 -1.66956 551.366 41.9211C558.272 56.2815 560.671 67.2647 573.111 87.2772C591.357 116.626 601.973 118.371 604.74 118.678C615.277 119.836 616.918 111.518 635.711 104.722C659.34 96.1739 670.733 104.268 677.883 94.9528C685.592 84.8977 674.239 72.9935 679.86 56.5746C686.66 36.7017 711.732 29.4726 726.644 25.1742C734.604 22.8785 768.157 13.7306 803.74 29.361C824.774 38.5996 834.018 51.0133 839.982 46.8056C847.085 41.8025 842.954 17.8824 834.71 2.14732C821.222 -23.608 790.673 -38.9732 720.055 -46.6977C626.716 -56.9063 507.362 -48.9655 503.923 -19.484Z" stroke="black" stroke-miterlimit="10"/>
<path d="M534.893 54.4819C553.238 72.8406 561.356 87.0266 572.452 106.816C578.495 117.597 579.114 120.15 578.383 122.865C575.358 134.127 553.87 130.862 518.419 142.403C490.474 151.502 479.048 161.592 474.27 156.359C469.348 150.965 474.791 132.941 485.472 122.865C495.33 113.563 503.185 117.143 507.217 109.607C512.351 100.019 501.419 90.8644 498.651 66.3442C498.21 62.4506 495.35 37.0931 503.923 32.8505C510.183 29.7524 519.718 39.2981 534.893 54.4819Z" stroke="black" stroke-miterlimit="10"/>
<path d="M876.883 242.884C864.85 249.701 886.694 302.956 899.946 383.139C904.723 412.034 909.599 451.794 912.465 451.522C914.95 451.284 908.123 421.838 923.667 403.374C934.138 390.933 952.351 386.356 967.157 388.721C993.541 392.936 1005.86 418.663 1012.62 414.539C1020.33 409.843 1008.49 373.942 1006.69 368.485C991.611 322.759 977.384 324.12 963.204 281.96C957.438 264.815 954.954 250.218 945.412 247.768C935.996 245.347 930.408 257.516 916.419 255.444C908.452 254.265 906.983 249.834 893.356 245.675C884.085 242.849 879.446 241.432 876.883 242.884Z" stroke="black" stroke-miterlimit="10"/>
<path d="M884.131 268.003C876.223 289.676 893.56 312.417 902.581 358.017C905.546 373.006 906.693 385.831 909.829 385.929C913.045 386.027 914.225 372.608 924.326 351.737C930.54 338.905 934.092 331.802 941.458 328.71C952.186 324.203 961.207 332.304 964.521 328.013C967.875 323.665 958.169 315.948 952.66 295.217C949.175 282.098 950.268 274.667 943.435 267.305C941.412 265.128 937.742 261.172 932.233 260.327C920.768 258.576 915.193 272.406 905.876 270.096C898.463 268.261 896.73 258.206 891.379 258.932C887.234 259.497 884.862 265.994 884.131 268.003Z" stroke="black" stroke-miterlimit="10"/>
<path d="M915.601 487.455C929.126 526.034 921.859 576.104 931.559 576.989C934.766 577.28 934.806 571.728 943.029 566.393C954.38 559.029 964.474 563.013 966.469 557.917C968.044 553.896 962.045 550.675 958.489 540.434C955.986 533.218 953.866 520.116 958.988 514.474C964.987 507.868 977.206 515.55 999.882 519.772C1013.76 522.357 1047.79 528.694 1055.74 515.534C1061.28 506.363 1047.58 498.581 1034.29 456.198C1029.34 440.405 1025.81 424.167 1015.34 421.232C1012.59 420.458 1011.77 421.285 1003.37 421.232C1000.81 421.216 988.915 421.137 980.931 419.113C962.868 414.53 961.437 399.108 950.51 400.041C941.788 400.788 933.095 411.431 932.058 421.232C930.941 431.828 939.095 438.386 935.549 444.013C933.08 447.933 928.343 445.978 921.086 451.96C920.857 452.145 916.852 455.488 914.603 459.377C908.908 469.22 914.114 483.217 915.601 487.455Z" stroke="black" stroke-miterlimit="10"/>
<path d="M945.498 410.268C940.473 411.899 938.786 420.059 938.512 421.388C936.197 432.587 942.125 442.944 948.492 453.158C964.41 478.701 972.374 491.472 979.928 497.635C1002.9 516.364 1035.89 523.02 1041.3 514.05C1045.69 506.796 1028.06 495.909 1024.84 467.454C1024.35 463.165 1023.89 455.821 1019.85 447.333C1018.11 443.69 1014.53 436.383 1007.37 431.978C1001.05 428.08 998.775 430.664 987.912 428.271C971.376 424.628 956.975 415.034 956.975 415.034C952.309 411.925 949.081 409.103 945.498 410.268Z" stroke="black" stroke-miterlimit="10"/>
<path d="M1195.59 953.82C1169.56 953.016 1156.54 952.613 1148.1 953.509C1130.19 955.41 1115.4 960.809 1114.09 966.111C1112.66 971.928 1128.46 973.535 1128.75 982.136C1128.84 984.964 1127.18 986.061 1130.51 987.737C1138.26 991.637 1160.49 992.32 1173.31 992.715C1202.69 993.619 1207.63 991.04 1230.18 992.56C1248.49 993.793 1249.36 995.772 1264.77 995.982C1277.34 996.154 1296.9 995.113 1305.23 991.315C1311.78 988.328 1308.62 984.896 1304.64 980.58C1302.47 978.218 1299.84 976.639 1294.67 973.579C1283.69 967.068 1278.19 963.812 1267.7 961.133C1255.27 957.957 1241.91 956.61 1234.28 955.843C1222.69 954.675 1213.49 954.374 1195.59 953.82Z" stroke="black" stroke-miterlimit="10"/>
<path d="M1280.81 1022.31C1282.55 1014.38 1299.99 1018.11 1313.76 1001.38C1316.18 998.439 1321.63 991.824 1323.64 981.838C1325.21 974.114 1323.61 969.809 1324.96 969.278C1328.76 967.771 1336.87 1003.74 1364.5 1034.17C1375.44 1046.22 1383.05 1050.37 1381.63 1055.11C1379.08 1063.56 1350.91 1062.87 1328.92 1056.5C1303.84 1049.25 1278.64 1032.29 1280.81 1022.31Z" stroke="black" stroke-miterlimit="10"/>
<path d="M987.584 1027.89C976.461 1014 985.943 1005.28 975.723 946.947C968.62 906.385 961.734 897.467 963.862 870.889C964.706 860.401 967.935 820.083 988.902 812.973C1001.4 808.737 1016.37 817.578 1024.48 825.533C1040.3 841.038 1039.18 862.139 1046.89 862.515C1055.12 862.92 1057.8 838.909 1070.61 837.395C1077.04 836.635 1084.11 841.77 1087.08 847.862C1092.7 859.375 1080.58 867.923 1081.81 886.24C1082.93 902.868 1093.39 902.722 1098.29 923.921C1102.23 941.009 1096.08 943.863 1099.6 963.694C1101.48 974.217 1104.6 991.766 1116.74 1000.68C1123.89 1005.93 1130.09 1005.18 1162.2 1002.77C1204.7 999.574 1209.85 999.665 1216.9 1001.37C1237.71 1006.43 1260.29 1022.01 1258.41 1030.68C1255.67 1043.3 1203.68 1029.89 1106.19 1034.87C1033.84 1038.57 1004.42 1048.92 987.584 1027.89Z" stroke="black" stroke-miterlimit="10"/>
<path d="M1000.76 1021.61C996.085 1016.06 994.747 1009.91 992.856 1000.68C988.322 978.566 993.067 968.12 992.856 949.74C992.579 925.939 984.441 928.653 978.359 891.126C974.761 868.944 971.585 847.682 982.972 836.699C984.165 835.548 991.314 828.912 999.445 830.419C1012.4 832.819 1011.91 852.936 1032.39 868.797C1037.7 872.907 1045.18 878.531 1052.82 876.473C1062.94 873.751 1066.16 859.516 1068.63 860.424C1071.35 861.414 1072.79 880.387 1062.7 892.522C1049.95 907.866 1030.29 898.432 1021.85 912.06C1017.16 919.638 1022.44 923.838 1021.85 949.74C1021.31 973.59 1016.72 975.251 1019.21 985.327C1025.52 1010.75 1058.45 1014.98 1056.77 1023.71C1055.03 1032.82 1016.74 1040.56 1000.76 1021.61Z" stroke="black" stroke-miterlimit="10"/>
<path d="M938.855 680.879C928.753 687.43 941.22 706.594 945.423 727.502C950.032 750.42 947.232 774.918 954.379 774.73C959.865 774.585 959.143 761.524 972.29 752.932C982.834 746.042 999.689 743.735 1011.1 751.116C1025.73 760.574 1024.76 781.651 1033.19 781.996C1039.34 782.244 1040.34 771.024 1049.91 768.675C1060.04 766.187 1065.75 777.122 1076.18 775.336C1084.63 773.888 1086.41 765.769 1093.49 758.987C1109.61 743.547 1138.44 749.19 1169.91 755.354C1201.65 761.567 1218.36 776.825 1222.45 771.703C1224.14 769.589 1222.32 765.932 1211.11 745.666C1181.01 691.233 1187.59 705.631 1182.45 695.411C1175.13 680.824 1172.4 672.717 1168.12 673.008C1162.71 673.371 1164.06 686.577 1155.58 694.2C1143.46 705.099 1124.29 692.849 1085.73 687.539C1069.14 685.257 1077.74 688.217 1026.62 685.723C986.733 683.779 966.791 682.804 962.14 682.09C946.898 679.747 943.238 678.039 938.855 680.879Z" stroke="black" stroke-miterlimit="10"/>
<path d="M1232.87 407.906C1221.91 397.962 1168.92 349.856 1120.97 375.375C1102.1 385.423 1081.75 408.075 1079.25 435.89C1077.4 456.448 1085.98 472.238 1101.4 500.613C1112.9 521.762 1118.65 532.337 1128.12 534.548C1147.93 539.172 1157.53 506.765 1183.42 506.837C1203.1 506.889 1206.01 525.658 1228.46 527.622C1247.57 529.294 1271.59 517.958 1278.76 499.033C1292.41 462.984 1239.47 413.895 1232.87 407.906Z" stroke="black" stroke-miterlimit="10"/>
<path d="M1488.54 170.573C1479.38 171.327 1435.07 174.962 1422.14 208.561C1417.04 221.784 1416.2 241.231 1425.94 254.608C1433.14 264.495 1443.46 267.419 1462.01 272.666C1475.83 276.581 1482.74 278.535 1488.15 275.088C1499.46 267.866 1491.32 249.158 1503.74 237.1C1513.19 227.931 1521.96 234.805 1533.49 225.182C1543.31 216.983 1550.35 200.794 1546.35 189.134C1538.71 166.938 1494.05 170.12 1488.54 170.573Z" stroke="black" stroke-miterlimit="10"/>
<path d="M1488.85 169.651C1478.16 170.53 1426.41 174.78 1411.31 214.016C1405.37 229.458 1404.38 252.171 1415.76 267.795C1424.16 279.343 1436.22 282.755 1457.88 288.882C1474.02 293.452 1482.09 295.741 1488.4 291.708C1501.61 283.272 1492.1 261.424 1506.61 247.343C1517.65 236.632 1527.9 244.663 1541.36 233.429C1552.82 223.855 1561.05 204.945 1556.37 191.331C1547.46 165.409 1495.3 169.128 1488.85 169.651Z" stroke="black" stroke-miterlimit="10"/>
<path d="M1495.11 157.747C1482.69 158.766 1422.61 163.699 1405.07 209.257C1398.16 227.191 1397.02 253.56 1410.23 271.702C1419.99 285.107 1433.99 289.07 1459.14 296.195C1477.89 301.505 1487.26 304.156 1494.59 299.474C1509.93 289.677 1498.89 264.306 1515.74 247.957C1528.55 235.522 1540.45 244.844 1556.08 231.796C1569.39 220.68 1578.96 198.721 1573.52 182.916C1563.16 152.821 1502.59 157.133 1495.11 157.747Z" stroke="black" stroke-miterlimit="10"/>
<path d="M1060.73 431.982C1039.81 377.401 1015.7 341.005 996.151 316.847C983.782 301.566 956.654 270.675 963.862 247.069C965.2 242.694 967.256 240.077 975.723 219.157C982.51 202.396 983.13 199.27 986.266 198.224C992.566 196.116 998.958 205.739 1025.14 235.206C1042.08 254.263 1048.45 260.41 1056.77 266.607C1067.33 274.464 1069.88 274.101 1081.15 281.26C1104.57 296.137 1106.07 305.669 1133.21 329.407C1156.56 349.832 1169.01 354.639 1167.47 360.11C1164.94 369.153 1130.81 356.412 1100.26 377.555C1091.81 383.409 1084.01 388.81 1079.84 399.186C1074.97 411.286 1077.81 423.287 1069.95 429.191C1066.78 431.57 1063.17 431.982 1060.73 431.982Z" stroke="black" stroke-miterlimit="10"/>
<path d="M1046.89 219.158C1031.83 226.31 1017.08 199.864 1014.6 197.527C1011.29 194.415 991.518 188.79 989.561 169.615C987.868 153.057 996.19 145.591 991.538 129.842C988.138 118.335 981.502 114.895 982.972 112.397C986.451 106.487 1021.55 129.025 1075.22 147.286C1097.28 154.794 1125.85 162.728 1125.3 165.429C1124.82 167.829 1102.61 159.895 1083.79 172.406C1078.68 175.805 1075.61 179.524 1069.95 186.362C1053.87 205.823 1055.69 214.978 1046.89 219.158Z" stroke="black" stroke-miterlimit="10"/>
<path d="M1327.33 945.96C1323.5 947.613 1307.52 897.699 1268.98 821.07C1246.43 776.241 1243.72 777.056 1220.62 729.485C1195.77 678.333 1183.35 652.761 1177.51 633.141C1169.82 607.313 1167.25 584.934 1152.8 570.696C1151.07 568.995 1146.7 564.969 1147.02 559.991C1147.74 548.632 1172.23 542.531 1173.83 542.15C1180.03 540.663 1188.54 539.634 1200.64 541.555C1228.59 545.992 1233.27 559.427 1247.95 555.829C1263.58 551.999 1272.59 533.253 1273.71 530.851C1281.23 514.716 1276.8 501.811 1282.12 499.331C1287.86 496.655 1295.4 510.547 1312.61 529.066C1335.84 554.062 1343.47 551.761 1360.98 574.265C1368.8 584.309 1386.46 607.009 1380.96 617.679C1376.45 626.427 1361.04 617.982 1331.01 621.842C1316.4 623.721 1293.14 626.706 1273.19 645.035C1266.95 650.762 1246.77 671.078 1244.27 700.938C1242.78 718.756 1248.54 728.545 1267.4 769.33C1287.62 813.024 1300.83 841.79 1311.56 874.595C1322.4 907.726 1330.56 944.569 1327.33 945.96Z" stroke="black" stroke-miterlimit="10"/>
<path d="M1218.38 580.931C1215.73 582.77 1223.41 592.187 1221.77 603.486C1219.9 616.43 1208.09 616.004 1205.58 628.23C1205.04 630.882 1205.02 633.712 1218.09 663.774C1224.97 679.602 1226.49 682.301 1228.95 682.588C1234.11 683.192 1236.61 672.448 1247.36 654.281C1255.8 640.022 1261.16 630.968 1270.43 623.853C1288.4 610.059 1307.49 613.948 1307.64 608.642C1307.78 603.37 1289.09 594.687 1270.73 592.889C1253.51 591.204 1245.12 596.425 1232.35 589.394C1224.93 585.306 1220.43 579.498 1218.38 580.931Z" stroke="black" stroke-miterlimit="10"/>
<path d="M1410.18 843.874C1395.08 851.353 1393.29 857.776 1379.94 866.457C1365.67 875.745 1360.54 873.073 1357.33 879.312C1354.34 885.114 1357.04 890.801 1365.12 909.48C1372.7 927.008 1376.49 935.767 1377.76 939.181C1387.47 965.207 1384.18 973.533 1394.88 983.629C1397.43 986.037 1405.76 993.903 1417.27 993.843C1434.3 993.756 1447.39 976.347 1452.27 963.495C1456.46 952.445 1452.31 950.713 1454.49 935.737C1458.21 910.151 1473.76 891.308 1484.99 877.715C1494.38 866.346 1499.08 860.66 1505.59 856.622C1536.45 837.487 1578.98 850.7 1594.16 855.413C1604.05 858.486 1613.41 861.392 1624.14 868.269C1641.66 879.496 1646.03 890.531 1654.32 889.538C1663.32 888.453 1670.13 873.981 1671.96 863.108C1676.92 833.479 1651.1 792.886 1613.96 781.556C1589.62 774.127 1548.26 789.977 1465.54 821.687C1447.33 828.666 1443.91 830.743 1420.77 839.484C1416.21 841.203 1413.78 842.089 1410.18 843.874Z" stroke="black" stroke-miterlimit="10"/>
<path d="M1501.56 1032.77C1499.12 1020.19 1521.21 998.632 1542.41 995.792C1562.61 993.085 1572.62 1008.63 1591.83 1002.07C1594.03 1001.32 1595.88 1000.44 1618.85 980.441C1642.47 959.87 1644.3 957.505 1650.48 955.321C1662.67 951.008 1679.4 951.762 1691.33 960.903C1708.7 974.217 1714.95 1004.63 1707.15 1023.01C1683.13 1079.57 1507.81 1065.01 1501.56 1032.77Z" stroke="black" stroke-miterlimit="10"/>
<path d="M1521.12 684.065C1517.77 683.9 1510.35 683.643 1505.81 688.919C1501.11 694.389 1501.07 703.985 1504.01 710.761C1508.26 720.537 1516.33 718.911 1524.73 729.691C1531.88 738.86 1533.31 749.359 1533.74 752.504C1536.57 773.298 1524.3 785.922 1528.78 790.849C1532.58 795.028 1542.32 786.951 1561.66 780.656C1590.11 771.395 1604.53 777.316 1607.6 769.492C1609.55 764.532 1605.11 758.707 1578.77 729.691C1548.56 696.394 1536.97 684.852 1521.12 684.065Z" stroke="black" stroke-miterlimit="10"/>
<path d="M1161.06 190.09C1157.66 195.365 1172.14 205.539 1177.51 233.022C1179.41 242.741 1181.66 255.068 1176.25 268.8C1174.65 272.872 1167.63 289.095 1152.2 295.47C1145.01 298.436 1141.11 297.161 1140.17 299.373C1137.04 306.802 1177.08 330.415 1202.19 346.859C1209.12 351.4 1274.71 394.814 1330.66 454.191C1370.95 496.955 1397.48 578.256 1419.5 573C1424.18 571.888 1433.65 543.003 1451 523C1494.88 472.43 1492.59 464.446 1502.5 458.5C1534.12 439.518 1543.52 447.069 1562.92 427.521C1577.36 412.963 1577.76 385.544 1569.88 367.025C1561.45 347.224 1543.72 337.889 1534.44 333.199C1472.36 301.825 1425.2 294.729 1370.53 274.654C1357.81 269.984 1321.97 253.324 1250.29 220.012C1215.24 203.717 1166.94 180.963 1161.06 190.09Z" stroke="black" stroke-miterlimit="10"/>
<path d="M1685.2 394.281C1679.2 389.079 1662.72 383.684 1629.77 372.895C1616.82 368.656 1609.07 366.523 1606.01 369.153C1601.2 373.28 1615.15 382.941 1615.25 399.627C1615.34 416.271 1601.55 422.954 1606.67 432.24C1609.91 438.121 1617.53 439.228 1631.74 443.468C1673.68 455.984 1679.97 468.024 1689.82 464.319C1706.45 458.058 1709.86 415.635 1685.2 394.281Z" stroke="black" stroke-miterlimit="10"/>
<path d="M1356.59 101.233C1347.3 114.617 1366.97 132.529 1360.54 161.941C1357.59 175.464 1352.49 176.001 1350 192.643C1347.7 208.05 1350.82 215.991 1345.39 221.252C1337.62 228.767 1322.37 221.127 1321.01 224.741C1319.58 228.516 1335.63 238.536 1338.14 240.093C1358.9 252.939 1382.14 267.32 1390.2 259.631C1398.08 252.094 1380.66 233.589 1386.9 204.505C1387.49 201.77 1392.42 180.209 1409.96 166.127C1431.95 148.487 1450.69 161.11 1467.29 143.1C1474.87 134.88 1481.43 120.897 1477.84 108.909C1472.81 92.162 1450.37 87.2496 1440.93 85.1841C1426.56 82.0371 1410.7 85.6446 1378.99 92.8598C1360.75 97.0116 1358.4 98.6235 1356.59 101.233Z" stroke="black" stroke-miterlimit="10"/>
<path d="M362.91 180.781C347.28 191.938 338.153 213.66 343.142 219.857C347.583 225.369 360.399 215.084 394.539 204.505C434.365 192.162 451.656 195.385 457.797 181.478C462.172 171.57 459.029 157.196 451.867 152.869C443.116 147.587 434.385 160.922 407.718 169.616C383.429 177.536 376.451 171.116 362.91 180.781Z" stroke="black" stroke-miterlimit="10"/>
<path d="M868.316 4.93743C863.236 12.6689 862.241 21.3842 861.727 25.871C861.094 31.3835 858.966 50.0283 867.657 56.5736C873.93 61.2906 880.111 55.4152 899.945 52.3869C910.824 50.7261 924.392 48.6537 938.823 53.0846C949.082 56.2386 957.082 62.6303 973.088 75.4138C988.144 87.4436 987.327 88.881 995.492 94.9518C1018.36 111.957 1030.12 104.623 1067.97 120.77C1087.28 129.004 1099.17 137.286 1100.92 134.726C1104.24 129.883 1060.65 101.699 1066 77.5071C1067.51 70.6967 1076.22 64.1236 1093.67 50.9913C1116.28 33.9723 1124.39 32.5907 1129.92 20.9865C1133.42 13.6179 1137.72 -1.71247 1131.23 -11.1116C1124.17 -21.3551 1107.84 -19.4223 1033.05 -7.62271C988.256 -0.554146 986.418 -0.0308072 979.018 -0.644859C948.008 -3.20573 939.416 -15.738 909.17 -13.205C898.061 -12.2769 878.345 -10.3301 868.316 4.93743Z" stroke="black" stroke-miterlimit="10"/>
<path d="M1134.99 10.2858C1125.96 25.0275 1123.12 42.3269 1106.08 52.8036C1096.06 58.962 1087.38 58.9288 1084.1 67.419C1080.42 76.9457 1086.79 88.7643 1091.04 96.65C1096.43 106.655 1102.09 112.508 1125.16 133.189C1140.26 146.728 1147.92 153.571 1152.92 157.105C1159.46 161.722 1187.85 181.778 1193.98 174.378C1198.98 168.339 1182.22 152.368 1186.46 129.203C1188.35 118.879 1194.68 105.672 1204.96 99.3073C1209.84 96.2846 1212.63 96.6566 1225.78 90.0066C1236.28 84.6985 1237.67 82.8649 1238.5 81.3702C1241.95 75.1785 1238.43 69.99 1236.77 52.8036C1235.5 39.6164 1234.63 30.6412 1238.5 21.5796C1241.85 13.767 1245.35 13.7603 1247.18 6.96414C1249.76 -2.66213 1245.75 -13.823 1241.97 -18.9451C1226.26 -40.2704 1160.18 -30.8567 1134.99 10.2858Z" stroke="black" stroke-miterlimit="10"/>
<path d="M1693.31 169.617C1674.77 158.864 1643.38 157.74 1619.51 171.71C1613.32 175.331 1598.38 184.075 1589.86 201.715C1582.65 216.619 1586.38 224.742 1577.34 234.511C1570.36 242.047 1560.93 245.005 1547.68 249.164C1533.23 253.7 1529.12 252.095 1523.96 257.538C1518.11 263.706 1522.35 266.867 1514.74 281.262C1510.93 288.456 1506.95 293.208 1504.85 302.894C1504.03 306.676 1503.63 308.56 1504.19 310.569C1506.98 320.415 1528.33 321.629 1536.48 322.432C1541.61 322.934 1567.21 334.175 1618.19 356.623C1685.36 386.202 1686.75 387.849 1691.99 385.93C1737.08 369.4 1752.49 203.962 1693.31 169.617Z" stroke="black" stroke-miterlimit="10"/>
</svg>
