<svg width="1680" height="1019" viewBox="0 0 1680 1019" fill="none" xmlns="http://www.w3.org/2000/svg">
<path d="M826.533 48.6389C803.997 32.8601 776.849 37.0714 774.134 37.5273C750.794 41.4905 731.744 57.1352 721.735 75.2945C711.805 93.3198 713.656 111.754 717.366 148.616C721.61 190.749 723.732 211.812 738.472 221.193C754.689 231.513 777.099 223.238 804.696 213.045C847.204 197.347 858.663 178.195 881.838 183.419C900.248 187.57 902.087 201.713 916.043 200.452C941.867 198.118 955.692 147.872 957.523 141.206C962.689 122.43 967.256 105.813 958.98 90.8453C947.283 69.7086 915.872 62.5468 894.212 64.183C873.983 65.7119 864.942 74.7044 849.82 68.6289C838.611 64.136 838.934 57.3296 826.533 48.6389Z" stroke="black" stroke-miterlimit="10"/>
<path d="M-50.1728 422.209C-30.543 406.129 -27.7227 413.619 30.8768 386.669C86.5374 361.066 107.617 343.443 118.516 352.469C128.116 360.422 125.224 385.247 117.198 400.751C108.902 416.784 96.9486 419.306 89.5224 439.645C85.2986 451.225 88.0068 453.593 83.5919 460.433C74.38 474.709 56.1405 474.34 40.7609 479.209C22.4951 484.989 25.625 493.07 -12.6132 528.832C-53.6915 567.25 -65.0516 566.941 -70.5999 565.714C-86.4276 562.22 -94.4008 542.612 -95.6396 539.561C-110.551 502.867 -85.202 450.904 -50.1728 422.209Z" stroke="black" stroke-miterlimit="10"/>
<path d="M-49.1842 439.309C-43.5634 433.536 -37.7318 427.547 -28.0981 422.545C-9.17995 412.728 0.78321 418.984 18.6866 408.463C31.9972 400.644 35.5752 391.846 39.7727 393.71C45.5977 396.292 45.4264 416.241 38.4548 432.604C30.6134 451.004 20.6568 449.677 12.7561 468.815C6.62141 483.675 11.3262 487.611 4.18993 499.662C0.0320187 506.683 -2.3731 506.71 -20.1908 522.462C-39.8536 539.85 -40.1699 542.686 -48.5252 546.603C-52.3207 548.38 -72.2207 557.707 -82.1311 549.955C-99.7512 536.175 -81.1032 472.101 -49.1842 439.309Z" stroke="black" stroke-miterlimit="10"/>
<path d="M839.982 59.0901C831.324 42.1512 810.139 36.4646 794.515 32.2668C782.813 29.1218 765.166 24.3875 744.436 31.5962C721.94 39.4219 710.099 56.3541 706.876 61.1018C696.399 76.5453 694.917 92.1699 692.38 122.795C689.118 162.145 687.49 181.82 697.651 196.559C705.058 207.302 715.68 213.364 722.691 232.1C725.01 238.296 725.458 241.938 729.28 245.512C731.758 247.825 739.922 254.109 766.84 247.524C776.263 245.217 786.272 241.757 810.33 229.418C841.181 213.592 844.7 209.039 857.773 207.959C863.223 207.51 877.423 206.336 891.379 213.994C904.631 221.264 905.889 230.042 916.419 232.1C928.524 234.467 939.666 225.381 945.412 220.7C961.701 207.423 967.19 189.579 972.429 171.748C977.384 154.876 982.28 138.212 978.359 116.76C976.251 105.226 972.238 83.2377 954.638 71.1605C936.78 58.9023 912.993 62.3625 898.628 64.4547C875.545 67.8143 870.952 69.1488 870.952 69.1488C860.726 72.1262 855.039 75.2645 849.207 72.5017C843.778 69.9267 842.657 64.3206 839.982 59.0901Z" stroke="black" stroke-miterlimit="10"/>
<path d="M857.773 221.37C852.976 218.118 847.019 226.439 827.462 234.781C809.98 242.232 801.348 241.293 789.902 251.546C784.493 256.388 781.91 260.639 781.336 261.605C775.781 270.946 776.493 278.765 775.406 289.099C772.875 313.112 764.527 313.494 766.181 327.322C767.868 341.377 778.49 357.612 789.902 357.498C800.966 357.391 809.809 341.94 812.965 332.016C816.741 320.126 812.735 315.01 817.578 296.475C819.713 288.301 820.78 284.217 824.167 279.71C831.033 270.57 837.465 272.629 847.23 262.946C855.803 254.443 858.445 245.31 859.091 242.828C859.533 241.152 863.651 225.36 857.773 221.37Z" stroke="black" stroke-miterlimit="10"/>
<path d="M861.727 254.227C857.385 254.16 858.057 267.679 845.253 277.697C839.191 282.445 835.765 281.975 830.757 287.756C824.833 294.603 823.324 302.536 822.85 305.191C820.642 317.59 826.316 320.5 823.508 330.003C820.543 340.048 812.88 341.295 813.624 347.438C814.441 354.157 824.642 361.091 832.734 359.508C841.254 357.838 841.148 347.961 854.479 340.732C858.485 338.559 863.724 335.723 868.975 337.379C877.937 340.209 879.749 353.882 881.495 353.473C884.586 352.749 877.041 310.401 876.224 305.862C869.127 266.358 865.826 254.287 861.727 254.227Z" stroke="black" stroke-miterlimit="10"/>
<path d="M830.603 407.715C798.725 400.636 791.521 383.722 775.617 386.587C758.225 389.716 748.819 413.191 747.757 415.839C742.747 428.347 745.871 433.683 747.024 469.472C748.219 506.554 745.256 512.896 751.426 526.349C757.128 538.779 769.265 554.323 780.019 552.348C789.62 550.59 788.95 536.564 803.477 527.968C815.943 520.595 829.422 523.243 832.804 523.902C851.937 527.658 854.194 541.397 867.26 540.963C885.142 540.375 897.293 514.128 898.789 510.898C905.923 495.486 905.252 480.895 904.651 467.83C904.141 456.732 903.743 448.104 898.789 438.578C891.228 424.049 878.581 418.054 875.331 416.637C869.965 414.298 868.868 415.15 846.738 410.952C839.834 409.659 833.279 408.311 830.603 407.715Z" stroke="black" stroke-miterlimit="10"/>
<path d="M763.654 354.569C760.827 354.905 760.641 359.595 760.335 362.809C758.876 378.258 752.173 386.61 756.354 387.53C757.927 387.878 759.028 386.731 765.644 384.664C770.874 383.03 776.395 381.307 781.571 381.081C789.329 380.745 791.718 383.98 808.115 388.963C816.955 391.65 824.679 394.001 828.024 392.546C829.444 391.93 829.391 390.923 827.36 381.081C826.119 375.062 825.9 374.278 826.033 372.483C826.405 367.581 828.535 367.037 827.36 364.6C825.489 360.702 817.718 357.245 810.77 357.435C806.841 357.542 806.788 358.718 799.488 360.301C794.531 361.376 788.512 362.68 782.235 361.734C778.187 361.125 775.141 359.746 771.617 358.151C766.587 355.873 765.339 354.368 763.654 354.569Z" stroke="black" stroke-miterlimit="10"/>
<path d="M861.748 351.38C857.83 352.086 855.027 353.166 848.465 356.401C841.512 359.829 838.032 361.544 836.511 362.856C832.5 366.313 831.637 369.642 831.198 371.463C830.754 373.314 830.999 373.981 832.527 381.864C834.041 389.671 834.167 390.884 836.511 392.264C839.878 394.248 844.64 394.703 849.13 395.133C858.334 396.016 859.463 394.14 867.061 395.133C873.981 396.041 880.815 398.612 882.999 399.437C887.144 401.001 888.372 401.869 889.641 401.589C891.972 401.072 891.009 397.052 888.977 389.037C885.424 374.996 884.985 373.64 884.328 371.822C881.379 363.649 882.315 369.057 877.022 357.477C875.854 354.923 874.592 351.997 870.381 351.021C867.479 350.347 864.424 350.896 861.748 351.38Z" stroke="black" stroke-miterlimit="10"/>
<path d="M826.346 547.066C825.809 547.139 824.167 547.48 821.811 550.681C817.511 556.521 818.955 560.84 816.711 567.413C813.428 577.033 805.854 580.931 807.183 582.898C807.784 583.787 809.433 583.154 816.385 581.995C827.064 580.209 829.239 580.688 830.405 581.051C831.753 581.473 832.609 582.021 838.517 588.227C846.87 597 851.047 601.384 852.888 604.152C855.393 607.918 855.993 609.687 857.402 609.616C860.703 609.441 863.419 599.451 864.836 594.239C866.596 587.768 866.228 585.869 868.564 582.012C870.663 578.55 872.031 578.321 873.448 575.002C874.071 573.543 876.236 568.492 874.057 563.993C871.725 559.165 865.922 558.111 864.92 557.927C857.615 556.597 855.293 561.918 848.218 560.911C843.361 560.221 839.552 557.017 835.919 553.954C831.259 550.029 829.437 546.637 826.346 547.066Z" stroke="black" stroke-miterlimit="10"/>
<path d="M752.253 643.428C756.836 641.254 756.028 642.312 762.138 639.693C768.889 636.801 772.263 635.361 775.64 632.715C782.94 627.007 785.878 619.36 786.82 616.825C787.452 615.12 788.064 609.394 789.258 598.024C790.244 588.627 790.371 586.551 788.997 584.087C786.2 579.084 780.033 577.617 777.96 577.126C769.816 575.192 767.099 579.399 762.416 576.651C758.566 574.391 759.012 570.731 752.907 566.61C750.67 565.099 749.295 564.175 747.988 564.668C745.644 565.558 745.653 570.214 744.913 583.308C744.376 592.729 744.113 597.434 743.646 600.325C742.07 610.107 740.285 610.604 740.468 616.858C740.677 623.915 742.994 624.434 742.182 630.47C741.576 634.956 739.917 637.524 741.244 641.329C741.537 642.173 742.495 644.913 744.813 645.702C746.856 646.4 748.655 645.137 752.253 643.428Z" stroke="black" stroke-miterlimit="10"/>
<path d="M750.646 640.593C753.893 641.375 756.544 639.045 763.333 634.102C774.517 625.96 774.075 627.374 776.91 624.369C782.333 618.621 784.73 612.599 785.644 609.939C788.67 601.156 787.521 594.373 787.089 592.273C786.494 589.376 785.9 586.479 784.054 585.955C781.114 585.119 775.902 590.524 773.662 596.496C770.765 604.216 774.818 607.595 771.58 614C769.128 618.858 764.453 621.562 761.544 623.245C755.19 626.925 751.029 626.32 747.864 630.872C747.178 631.856 745.566 634.249 746.261 636.707C746.845 638.776 748.856 640.16 750.646 640.593Z" stroke="black" stroke-miterlimit="10"/>
<path d="M751.453 622.766C755.873 623.672 759.659 620.284 762.332 617.897C763.678 616.692 766.345 614.254 767.833 610.276C769.371 606.165 767.959 604.926 768.592 600.066C769.787 590.929 775.781 587.54 773.86 583.369C773.027 581.563 771.051 580.347 769.297 580.131C765.6 579.672 763.985 583.764 760.864 583.541C756.312 583.218 755.297 574.208 752.451 574.471C750.108 574.688 748.099 581.038 747.793 586.467C747.36 594.271 750.732 595.195 749.328 600.727C748.129 605.465 745.124 606.853 744.671 612.723C744.46 615.402 744.952 616.887 745.335 617.747C746.425 620.18 748.75 622.212 751.453 622.766Z" stroke="black" stroke-miterlimit="10"/>
<path d="M828.419 556.033C826.407 556.305 825.099 558.522 824.712 559.182C822.318 563.252 824.938 565.989 823.274 570.656C821.702 575.07 817.865 576.799 818.391 577.666C819.124 578.865 825.371 573.755 831.342 575.723C833.189 576.334 834.948 578.198 838.386 581.899C844.294 588.265 844.884 590.562 847.37 590.717C851.454 590.972 855.098 585.123 855.416 584.597C858.472 579.574 856.429 576.183 859.776 572.548C862.292 569.812 865.054 569.988 865.139 568.468C865.25 566.508 860.779 564.033 856.243 563.867C850.281 563.649 848.982 567.594 844.359 566.81C841.114 566.26 838.428 563.742 834.154 559.744C831.788 557.527 830.389 555.763 828.419 556.033Z" stroke="black" stroke-miterlimit="10"/>
<path d="M830.427 302.846C828.826 304.797 828.055 307.211 827.792 311.563C827.133 322.393 830.862 324.123 829.109 329.669C827.561 334.557 824.405 334.028 821.861 341.069C820.866 343.811 819.832 346.829 821.202 349.786C822.375 352.321 825.05 354.239 827.792 354.48C832.318 354.876 835.989 350.604 838.993 347.104C842.44 343.087 841.794 341.974 844.924 339.057C848.548 335.677 852.548 334.249 854.149 333.692C860.488 331.493 863.934 332.854 864.692 331.01C865.924 328.006 857.813 321.897 857.444 321.622C852.772 318.148 851.639 319.369 848.219 316.257C844.232 312.623 841.735 307.278 840.97 305.528C839.409 301.94 839.33 300.157 837.676 299.493C835.356 298.567 832.16 300.74 830.427 302.846Z" stroke="black" stroke-miterlimit="10"/>
<path d="M848.548 230.088C844.97 233.193 842.295 232.616 835.369 234.782C828.226 237.015 824.655 238.135 822.191 240.817C817.552 245.867 820.952 250.501 816.919 263.617C814.58 271.215 811.7 275.326 812.965 276.358C813.558 276.841 814.784 276.439 822.85 270.994C829.577 266.447 830.711 265.381 835.369 262.276C842.756 257.354 843.31 257.756 846.571 254.9C849.108 252.673 852.64 249.508 855.138 244.17C858.676 236.606 857.385 230.564 857.114 229.418C856.785 227.989 856.1 225.052 854.479 224.723C852.719 224.368 851.599 227.446 848.548 230.088Z" stroke="black" stroke-miterlimit="10"/>
<path d="M894.077 625.623C882.632 633.526 890.542 644.611 881.101 666.551C876.803 676.543 872.765 679.818 874.353 686.58C875.376 690.938 879.201 694.769 886.81 702.254C898.427 713.679 900.861 713.117 906.534 720.541C911.74 727.351 910.904 729.415 916.396 734.909C919.946 738.462 928.848 746.16 933.005 744.488C936.815 742.956 934.734 733.142 930.41 713.575C925.785 692.64 918.249 672.072 915.877 650.876C914.195 635.868 914.766 624.513 907.572 622.14C901.966 620.294 894.98 624.996 894.077 625.623Z" stroke="black" stroke-miterlimit="10"/>
<path d="M961.227 885.246C961.378 881.591 961.912 873.276 957.932 871.163C954.881 869.547 951.797 872.961 942.117 877.869C928.998 884.528 925.473 882.925 915.101 889.94C912.525 891.683 910.528 893.339 906.535 896.645C893.382 907.542 894.463 909.42 888.743 912.739C878.207 918.862 873.054 913.356 864.363 920.116C861.114 922.644 859.124 926.05 855.137 932.857C850.446 940.877 846.327 947.911 844.594 957.668C843.382 964.482 841.207 976.693 846.571 984.492C857.213 999.969 885.403 980.368 931.574 990.527C954.473 995.563 967.842 1004.85 975.064 997.903C978.88 994.235 978.287 988.629 975.723 970.409C963.381 882.751 960.746 897.055 961.227 885.246Z" stroke="black" stroke-miterlimit="10"/>
<path d="M861.727 979.798C856.633 976.995 850.98 970.974 850.525 963.705C850.202 958.521 852.805 957.307 862.386 940.905C868.804 929.907 868.745 928.546 871.611 926.823C879.156 922.276 884.585 928.68 894.674 925.481C898.456 924.281 899.207 922.9 912.465 910.058C928.273 894.749 930.566 893.461 933.551 893.293C944.957 892.656 954.123 909.112 954.637 910.058C962.314 924.201 954.618 930.598 961.227 950.963C965.523 964.214 971.414 969.612 968.475 975.104C966.182 979.389 960.377 980.241 950.684 981.14C905.046 985.371 903.062 978.591 878.859 981.81C874.985 982.327 868.264 983.399 861.727 979.798Z" stroke="black" stroke-miterlimit="10"/>
<path d="M915.556 745.673C892.655 735.684 872.874 741.183 864.001 743.806C853.236 746.98 843.746 749.949 834.154 760.61C830.24 764.969 821.272 774.93 817.873 791.416C815.574 802.553 817.656 807.753 826.014 851.162C831.875 881.614 832.085 885.469 836.189 892.237C837.132 893.796 849.451 913.494 866.715 911.841C874.712 911.076 880.811 906.016 885.03 902.506C893.007 895.878 893.245 891.761 900.632 883.835C904.933 879.214 906.568 878.776 929.123 865.165C946.692 854.56 949.392 852.609 951.508 847.428C952.926 843.955 952.655 842.545 952.865 817.555C953.055 795.085 953.319 791.397 951.508 784.881C949.032 775.966 945.071 770.412 942.011 766.211C940.227 763.756 932.04 752.861 915.556 745.673Z" stroke="black" stroke-miterlimit="10"/>
<path d="M1159.31 228.311C1158.37 224.173 1157.51 222.557 1151.11 209.045C1141.03 187.721 1140.28 185.649 1136.7 182.463C1134.89 180.861 1126.36 173.283 1116.01 174.55C1114.39 174.752 1111.89 175.268 1098.9 184.623C1088.79 191.905 1083.65 195.64 1079.68 200.321C1075.71 204.995 1071.41 210.058 1069.5 218.044C1068.9 220.566 1065.86 233.32 1072.53 241.065C1076.8 246.008 1080.3 243.433 1087.94 249.153C1093.15 253.055 1092.39 254.906 1100.58 264.321C1107.59 272.382 1111.1 276.419 1116.16 277.78C1120.3 278.9 1124.76 277.733 1133.69 275.399C1141.84 273.274 1145.91 272.207 1149.35 269.498C1156.51 263.859 1158.51 255.416 1159.66 250.514C1162.01 240.616 1160.26 232.502 1159.31 228.311Z" stroke="black" stroke-miterlimit="10"/>
<path d="M1165.31 234.203C1164.38 214.166 1155.66 199.829 1151.67 193.431C1146.83 185.673 1142.47 178.86 1133.78 173.595C1130.23 171.443 1122.1 166.528 1111.91 167.332C1105.03 167.882 1102.72 170.605 1080.82 186.296C1065.46 197.301 1063.37 198.28 1060.75 202.92C1060.15 203.986 1052.65 217.78 1058.49 230.957C1061.19 237.059 1065.76 240.768 1068.92 243.336C1074.9 248.184 1077.27 247.507 1083.81 251.624C1087.62 254.018 1088.33 255.205 1102.37 270.005C1113.3 281.532 1115.16 283.236 1118.66 283.799C1121.01 284.181 1121.72 283.665 1135.75 278.568C1148.37 273.988 1150.51 273.412 1153.64 270.622C1157.91 266.8 1159.89 262.535 1161.37 259.249C1162.22 257.331 1165.99 248.627 1165.31 234.203Z" stroke="black" stroke-miterlimit="10"/>
<path d="M1216.72 176.278C1235.39 195.069 1256.82 201.988 1266.49 204.991C1278.22 208.627 1288.62 211.733 1302.01 209.812C1307.48 209.024 1319.99 207.228 1329.51 198.16C1335.94 192.036 1335.85 187.495 1343.97 154.403C1349.66 131.189 1350.91 128.532 1349.43 121.878C1349.09 120.347 1344.43 100.79 1326.91 92.672C1318.79 88.9109 1310.93 89.0066 1305.48 89.0728C1295.18 89.198 1293.4 91.7814 1283.2 93.0768C1277.25 93.8276 1275.49 93.2535 1248.3 90.2137C1227.12 87.8437 1223.74 87.6965 1219.73 89.9855C1217.05 91.5165 1216.78 92.5984 1207.19 108.975C1198.57 123.696 1196.93 125.992 1196.25 131.255C1195.33 138.461 1197.12 144.231 1198.54 148.633C1199.37 151.194 1203.29 162.742 1216.72 176.278Z" stroke="black" stroke-miterlimit="10"/>
<path d="M935.528 902.68C931.113 904.739 929.071 903.726 925.644 904.692C922.185 905.671 921.756 907.415 912.465 917.433C905.869 924.541 905.665 924.112 905.217 925.48C903.181 931.69 909.171 934.942 915.101 949.621C919.16 959.666 918.659 963.851 923.667 967.727C925.736 969.329 929.525 971.482 934.21 971.75C941.07 972.139 943.403 968.122 948.048 969.739C952.621 971.328 952.601 975.995 956.614 976.444C959.843 976.806 963.691 974.211 964.522 971.08C965.464 967.505 961.912 965.366 958.591 959.009C954.756 951.653 954.321 944.578 953.979 938.892C953.392 929.202 955.712 928.169 953.979 920.786C952.68 915.267 950.42 911.747 948.048 908.045C943.442 900.87 940.8 900.675 940.141 900.669C938.553 900.642 938.006 901.52 935.528 902.68Z" stroke="black" stroke-miterlimit="10"/>
<path d="M899.286 931.517C895.53 929.331 893.521 932.403 886.767 931.517C881.139 930.78 879.525 928.252 876.224 929.506C874.411 930.196 873.456 931.537 871.611 934.2C867.519 940.107 868.468 942.341 865.022 947.611C862.379 951.648 861.364 951.038 858.432 955.658C856.258 959.092 854.399 962.015 854.479 965.046C854.656 971.967 864.863 976.782 866.998 977.787C876.869 982.441 881.785 979.383 907.853 979.129C916.946 979.041 925.189 979.323 925.644 977.117C926.079 975.018 918.837 973.69 915.101 966.388C913.862 963.96 914.897 964.57 912.465 955.658C910.462 948.309 908.986 945.09 907.853 942.917C907.227 941.717 906.146 939.779 904.558 937.553C902.153 934.173 900.954 932.483 899.286 931.517Z" stroke="black" stroke-miterlimit="10"/>
<path d="M932.233 925.482C931.7 925.71 929.631 926.615 928.28 928.835C925.901 932.745 928.715 935.809 930.257 947.611C930.757 951.454 930.724 953.164 932.233 954.988C934.302 957.496 938.329 959.078 940.8 957.67C944.411 955.611 943.594 947.799 943.435 946.27C943.066 942.75 942.032 941.523 942.776 938.894C943.574 936.084 945.234 935.802 945.412 933.529C945.689 929.989 941.933 927.172 941.459 926.823C941.241 926.662 936.82 923.544 932.233 925.482Z" stroke="black" stroke-miterlimit="10"/>
<path d="M872.936 949.231C872.593 949.064 871.249 948.42 869.568 948.708C866.623 949.218 866.366 951.987 861.299 957.935C859.645 959.873 858.801 960.604 858.577 962.167C858.261 964.313 859.256 967.028 861.028 967.659C863.612 968.577 867.058 964.742 867.73 963.991C869.278 962.261 869.423 961.201 871.031 960.423C872.744 959.598 873.614 960.309 874.794 959.397C876.639 957.982 876.362 954.857 876.323 954.468C876.303 954.287 875.888 950.693 872.936 949.231Z" stroke="black" stroke-miterlimit="10"/>
<path d="M875.449 660.704C878.807 665.298 864.769 672.123 864.498 682.889C864.326 689.689 869.728 695.009 875.97 701.16C883.636 708.711 888.407 709.073 896.308 717.69C897.257 718.725 905.924 728.174 903.608 730.305C901.251 732.476 891.781 723.067 877.535 723.345C866.558 723.558 857.098 729.435 847.289 735.525C836.568 742.185 833.616 746.57 830.081 745.53C825.163 744.082 823.541 733.463 826.43 724.65C830.529 712.148 840.766 712.292 843.639 701.16C846.231 691.128 838.695 688.014 842.596 676.799C845.422 668.678 851.43 664.389 853.026 663.314C855.388 661.722 862.37 657.007 870.234 658.529C872.518 658.968 874.458 659.347 875.449 660.704Z" stroke="black" stroke-miterlimit="10"/>
<path d="M844.307 714.638C842.32 717.831 838.071 716.551 833.905 719.43C826.607 724.47 829.561 735.352 829.743 735.984C830.108 737.247 830.815 739.699 832.344 739.904C833.983 740.122 835.018 737.547 839.106 733.806C840.994 732.076 843.147 730.107 846.388 728.578C850.934 726.435 852.515 727.563 856.27 725.529C857.238 725.002 861.118 722.898 862.512 718.994C864.306 713.967 860.712 709.511 858.871 707.233C857.045 704.972 854.918 702.332 852.109 702.441C848.775 702.567 846.258 706.496 845.347 708.975C844.26 711.924 845.472 712.765 844.307 714.638Z" stroke="black" stroke-miterlimit="10"/>
<path d="M1420.45 600.11C1387.38 590.823 1368.09 585.734 1343.28 594.621C1331.87 598.711 1316.36 606.807 1301.48 623.137C1291.21 634.406 1278.95 647.855 1274.95 670.31C1272.53 683.886 1274.94 696.545 1279.78 721.863C1286.04 754.741 1294.83 776.459 1299.87 787.682C1307.7 805.112 1311.62 813.827 1317.55 817.298C1323.7 820.897 1331.69 821.069 1371.41 794.261C1401.7 773.824 1404.66 768.581 1418.84 764.646C1436.49 759.739 1439.42 765.764 1451.79 759.157C1475.03 746.744 1484.93 714.629 1486.35 709.794C1488 704.215 1499.1 665.103 1484.75 635.205C1475.3 615.504 1457.02 610.379 1420.45 600.11Z" stroke="black" stroke-miterlimit="10"/>
<path d="M595.605 151.667C550.691 139.551 550.378 133.38 535.69 136.057C521.438 138.651 511.471 146.893 491.545 163.378C471.23 180.182 460.42 189.115 460.012 203.377C459.59 218.035 470.285 233.804 482.088 237.525C493.626 241.162 497.606 230.562 520.716 224.846C536.921 220.838 550.949 222.093 556.984 222.893C579.237 225.848 582.332 234.494 594.034 230.697C605.034 227.127 611.579 216.486 620.838 201.432C629.73 186.976 635.927 176.899 633.451 168.261C630.866 159.269 620.797 158.461 595.605 151.667Z" stroke="black" stroke-miterlimit="10"/>
<path d="M1412.82 843.267C1403.32 843.509 1399.08 848.289 1392.48 855.72C1384.77 864.395 1380.92 868.728 1382.08 877.616C1382.41 880.124 1385.28 887.381 1391.03 901.894C1394.54 910.748 1396.34 914.757 1399.33 919.74C1403.59 926.846 1407.67 933.644 1413.32 936.71C1421.48 941.141 1427.36 934.741 1427.69 934.371C1434.19 926.996 1424.97 915.793 1430.25 907.215C1434.51 900.279 1441.88 905.433 1446.46 897.311C1449.77 891.444 1448.62 883.961 1447.89 879.118C1446.71 871.422 1444.8 858.971 1435.65 850.669C1427.09 842.908 1417.06 843.16 1412.82 843.267Z" stroke="black" stroke-miterlimit="10"/>
<path d="M293.062 836.293C279.383 839.955 272.2 834.878 266.705 840.987C259.259 849.262 265.472 866.295 266.046 867.811C272.029 883.65 283.04 882.872 286.473 895.975C287.692 900.622 286.591 901.809 281.201 928.163C276.622 950.547 276.266 955.301 279.225 958.339C283.725 962.966 293.484 961.135 299.652 958.339C311.308 953.055 315.064 942.098 324.032 923.469C326.016 919.345 336.915 896.706 349.072 877.869C367.061 850 377.064 847.11 378.065 831.599C378.975 817.497 371.931 800.793 360.933 797.399C353.171 795.005 344.993 800.498 328.645 811.482C306.551 826.328 306.109 832.799 293.062 836.293Z" stroke="black" stroke-miterlimit="10"/>
<path d="M320.738 836.964C315.44 841.383 309.918 842.704 300.311 845.011C286.203 848.391 280.496 846.781 277.907 851.046C276.193 853.869 276.793 857.692 280.542 866.47C289.728 887.968 296.278 888.82 298.993 899.328C303.862 918.185 287.507 933.863 293.721 939.563C296.588 942.192 302.485 941.058 306.241 938.892C316.501 932.964 311.677 918.768 320.738 895.975C323.525 888.968 328.269 877.024 339.188 866.47C350.726 855.318 358.179 856.324 364.887 845.011C366.376 842.503 374.336 829.078 368.181 818.858C364.61 812.93 357.526 810.134 351.708 810.141C342.997 810.147 336.902 816.431 332.599 820.87C325.311 828.387 327.123 831.639 320.738 836.964Z" stroke="black" stroke-miterlimit="10"/>
<path d="M313.819 981.474C312.956 977.913 314.016 976.136 328.315 949.957C340.545 927.566 353.283 905.457 365.216 882.899C384.53 846.379 388.984 831.472 399.481 831.264C408.937 831.076 416.429 842.959 417.931 845.346C425.766 857.779 420.06 865.417 425.18 889.605C427.868 902.319 429.963 911.633 437.699 919.781C444.743 927.197 454.476 931.556 458.126 933.192C469.625 938.342 472.762 936.391 477.895 941.239C485.11 948.059 485.967 958.607 486.461 964.71C487.252 974.5 485.13 982.279 484.484 984.157C473.816 1015.21 322.543 1017.29 313.819 981.474Z" stroke="black" stroke-miterlimit="10"/>
<path d="M328.645 981.139C327.63 979.597 326.556 976.559 330.622 965.716C337.415 947.617 346.529 939.764 356.32 925.481C363.865 914.47 367.812 905.471 373.453 892.622C385.617 864.9 386.184 850.469 393.221 849.705C398.677 849.115 405.629 857.001 407.059 865.128C408.634 874.101 402.874 879.942 385.314 906.034C369.664 929.29 368.194 933.635 368.84 938.892C370.145 949.501 378.856 954.195 376.748 963.704C375.469 969.484 371.1 972.945 367.522 975.774C354.64 985.974 333.692 988.804 328.645 981.139Z" stroke="black" stroke-miterlimit="10"/>
<path d="M407.718 902.68C396.166 903.002 385.729 916.648 382.678 928.162C381.472 932.722 382.322 933.526 383.337 952.303C384.589 975.465 383.502 978.261 386.632 981.808C390.104 985.738 393.788 984.96 418.261 985.832C442.18 986.684 446.971 987.716 454.502 983.82C457.876 982.077 467.767 976.953 468.999 968.397C470.304 959.33 460.769 954.167 441.982 934.868C419.012 911.263 417.154 902.411 407.718 902.68Z" stroke="black" stroke-miterlimit="10"/>
<path d="M700.253 680.231C694.658 676.078 685.231 680.241 683.65 680.937C670.063 686.934 673.603 700.053 659.266 713.434C652.911 719.365 644.204 723.863 626.79 732.865C618.426 737.188 613.984 739.007 613.098 743.247C612.806 744.654 612.015 750.595 630.623 765.192C653.833 783.402 662.625 780.083 671.081 793.382C671.201 796.34 676.887 818.981 681.686 818.718C686.999 818.424 685.005 790.409 693.767 743.943C700.611 707.663 708.99 686.713 700.253 680.231Z" stroke="black" stroke-miterlimit="10"/>
<path d="M526.244 930.674C524.023 933.437 526.908 937.448 527.39 938.121C531.545 943.902 539.177 941.549 547.749 947.242C551.547 949.766 554.599 953.433 560.705 960.767C563.638 964.289 564.912 966.187 567.468 966.343C568.316 966.393 571.877 966.407 579.727 957.175C589.52 945.658 587.165 941.885 594.689 937.305C596.439 937.08 609.63 933.211 609.264 931.062C608.857 928.683 592.314 931.198 564.348 929.926C542.512 928.931 529.709 926.361 526.244 930.674Z" stroke="black" stroke-miterlimit="10"/>
<path d="M499.31 982.482C494.487 974.696 492.154 962.793 496.675 952.305C498.572 947.913 500.753 942.85 505.241 941.576C513.128 939.336 519.619 951.219 540.823 967.729C552.566 976.869 558.569 981.436 565.204 981.14C573.467 980.778 580.709 973.295 594.857 958.341C609.221 943.165 608.978 940.222 617.26 934.87C619.784 933.241 640 920.506 652.184 928.835C653.706 929.875 657.759 933.06 660.092 942.247C664.698 960.393 658.8 987.035 641.641 1002.6C620.918 1021.4 589.822 1014.01 527.645 999.246C519.144 997.228 506.335 993.828 499.31 982.482Z" stroke="black" stroke-miterlimit="10"/>
<path d="M671.293 989.187C665.198 978.202 673.171 973.676 682.495 909.387C685.816 886.5 688.426 862.447 688.426 862.447C693.855 812.414 692.722 795.569 698.969 794.047C707.93 791.868 723.297 823.372 727.962 832.941C744.073 865.974 741.701 882.256 754.979 887.929C766.023 892.65 781.685 887.379 789.902 878.54C799.82 867.872 797.388 853.588 803.74 852.388C809.348 851.328 815.707 861.602 819.555 867.811C830.282 885.132 825.986 893.179 836.028 903.352C842.255 909.656 847.013 909.709 848.548 915.423C850.301 921.947 845.438 926.903 841.3 934.869C830.098 956.429 840.331 969.015 830.757 982.481C824.253 991.627 813.433 994.397 801.763 996.563C751.684 1005.84 687.174 1017.8 671.293 989.187Z" stroke="black" stroke-miterlimit="10"/>
<path d="M677.883 979.798C672.868 967.54 684.947 961.35 691.721 922.128C694.343 906.946 694.831 894.581 695.674 873.176C697.13 836.186 694.712 819.925 698.969 818.859C703.647 817.685 712.253 835.925 719.396 851.046C733.438 880.793 734.934 895.701 747.73 900.67C754.695 903.372 762.062 901.991 765.522 901.34C781.178 898.403 784.881 887.774 791.879 889.27C802.205 891.476 811.99 918.42 803.74 937.552C798.126 950.574 787.155 953.015 783.313 969.069C780.928 979.02 784.222 981.944 781.995 987.175C772.474 1009.53 689.79 1008.91 677.883 979.798Z" stroke="black" stroke-miterlimit="10"/>
<path d="M524.692 603.567C511.174 631.442 493.947 662.644 471.865 695.434C450.834 726.663 433.474 747.339 439.057 754.096C445.046 761.346 474.206 748.651 488.547 740.814C512.219 727.881 511.502 719.441 529.141 715.357C543.41 712.053 554.792 715.047 563.617 705.949C565.347 704.162 568.11 700.752 570.29 693.22C579.249 662.262 555.032 642.367 565.286 621.276C571.024 609.466 581.312 610.163 581.968 600.246C582.763 588.265 568.683 573.035 554.164 573.682C544.283 574.125 537.337 581.784 534.145 585.304C527.89 592.205 525.599 599.648 524.692 603.567Z" stroke="black" stroke-miterlimit="10"/>
<path d="M410.117 696.285C395.285 699.585 396.986 697.97 388.423 700.296C384.655 701.316 374.482 704.301 350.174 718.63C325.843 732.97 326.482 735.612 315.921 738.683C301.9 742.756 300.399 738.213 283.951 742.693C274.035 745.398 258.598 749.603 251.982 762.746C248.642 769.387 248.882 775.655 249.128 780.507C250.412 805.963 271.089 828.537 278.243 825.77C282.69 824.051 278.437 813.898 285.664 807.435C292.104 801.683 299.388 806.244 313.066 802.852C321.555 800.744 326.813 796.991 337.044 789.674C356.402 775.832 356.082 768.229 366.729 766.184C377.845 764.052 391.135 769.851 395.844 778.788C399.23 785.211 396.923 790.878 398.699 791.393C402.792 792.585 405.726 759.79 429.527 734.099C436.217 726.874 445.1 719.627 446.653 707.171C446.996 704.427 448.08 695.712 443.228 691.702C438.25 687.588 430.931 691.65 410.117 696.285Z" stroke="black" stroke-miterlimit="10"/>
<path d="M449.89 568.732C446.74 579.642 454.746 584.826 457.797 600.249C461.48 618.865 454.7 636.005 451.866 643.167C444.895 660.796 436.065 666 438.688 675.354C440.467 681.705 447.056 688.297 453.843 688.766C469.776 689.873 477.005 656.592 511.171 598.238C530.801 564.709 540.593 554.898 556.638 525.144C571.938 496.765 570.35 492.125 581.677 478.874C585.176 474.783 589.664 470.15 588.267 466.804C586.112 461.627 570.337 460.581 559.932 467.474C554.167 471.29 555.57 473.885 546.754 481.556C539.38 487.967 536.56 487.759 532.257 492.956C529.18 496.671 527.75 500.259 525.009 509.721C517.378 536.075 519.651 538.831 515.125 543.25C510.729 547.542 502.75 548.346 486.79 549.956C472.992 551.351 468.465 549.902 461.75 553.979C460.149 554.952 452.453 559.867 449.89 568.732Z" stroke="black" stroke-miterlimit="10"/>
<path d="M207.877 591.501C188.739 600.5 163.695 625.699 157.469 631.918C144.23 645.136 143.925 644.587 143.066 647.006C137.267 663.313 156.776 672.394 161.9 704.129C164.027 717.321 162.465 726.956 169.102 730.534C173.705 733.019 177.865 730.222 190.705 733.229C196.616 734.614 197.474 735.616 199.568 734.845C206.465 732.307 203.064 719.234 211.201 714.368C216.236 711.361 220.651 714.497 223.942 711.134C227.42 707.583 225.698 700.815 224.496 696.584C219.145 677.766 212.42 668.298 206.216 652.934C199.829 637.112 196.704 629.029 200.122 620.601C200.399 619.916 200.288 620.288 208.985 603.895C213.201 595.952 215.378 591.765 213.971 590.423C212.796 589.302 209.644 590.671 207.877 591.501Z" stroke="black" stroke-miterlimit="10"/>
<path d="M370.63 435.421C363.276 441.254 352.106 449.987 338.169 460.374C320.415 473.604 307.717 482.403 309.104 484.518C310.422 486.526 322 478.799 341.236 478.196C354.209 477.786 365.46 480.78 371.155 482.296C383.56 485.596 388.704 489.076 401.227 489.837C406.835 490.178 415.312 490.616 417.491 486.84C419.427 483.484 415.43 478.447 412.378 474.61C410.443 472.17 404.545 465.222 387.869 454.8C380.92 450.456 376.802 448.45 376.363 444.523C376.154 442.656 377.228 440.113 379.381 435.104C381.892 429.271 383.419 427.156 382.825 426.705C382.254 426.271 379.743 427.456 370.63 435.421Z" stroke="black" stroke-miterlimit="10"/>
<path d="M680.848 173.422C687.912 174.978 683.293 191.018 695.345 204.939C702.066 212.698 707.977 212.879 711.818 221.704C713.69 225.996 714.487 230.991 713.795 237.798C711.568 259.746 696.175 277.637 694.686 279.374C682.542 293.57 684.281 283.706 629.451 398.737C623.197 411.854 612.977 426.902 597.163 451.713C592.069 459.707 578.759 458.701 577.395 456.407C576.057 454.161 584.537 449.608 587.279 438.972C589.862 428.94 585.697 419.827 584.643 417.514C580.729 408.944 575.839 407.435 572.782 402.761C561.969 386.231 587.305 350.261 591.891 343.75C611.014 316.605 621.702 316.645 650.537 280.044C663.841 263.152 668.869 253.878 669.646 242.492C670.259 233.573 668.486 220.155 667.01 208.963C665.528 197.71 664.098 191.253 667.669 184.151C670.246 179.035 676.031 172.356 680.848 173.422Z" stroke="black" stroke-miterlimit="10"/>
<path d="M444.94 355.255C473.298 327.306 486.766 322.759 529.853 287.1C548.097 272.003 547.098 271.648 561.071 260.754C580.195 245.852 586.07 243.389 612.893 222.954C629.501 210.297 637.805 203.974 639.741 201.763C644.561 196.259 649.368 189.34 653.477 190.308C655.88 190.875 656.985 193.888 657.847 196.608C661.806 209.111 664.921 218.956 661.593 233.263C660.832 236.528 658.628 244.798 651.603 255.6C641.876 270.554 633.778 273.652 611.02 293.4C591.296 310.519 581.431 319.076 577.304 328.91C569.974 346.384 575.244 359.992 567.315 363.274C561.702 365.593 557.331 359.494 540.467 352.965C533.48 350.261 518.046 344.442 498.635 344.946C493.059 345.089 478.743 345.605 463.67 352.965C454.717 357.34 447.868 362.964 446.813 363.846C439.895 369.597 436.124 374.711 426.209 381.601C422.9 383.898 418.754 386.784 418.092 386.183C416.662 384.883 432.19 367.821 444.94 355.255Z" stroke="black" stroke-miterlimit="10"/>
<path d="M680.189 181.469C678.41 180.383 675.352 181.724 673.6 183.481C670.061 187.022 670.964 193.077 671.623 198.234C673.547 213.248 675.003 224.601 674.259 235.116C673.402 247.233 670.206 249.969 672.941 255.904C676.025 262.589 684.353 268.397 692.05 266.633C699.773 264.863 703.015 256.36 705.229 250.539C706.257 247.843 710.349 237.107 705.888 226.398C704.306 222.603 701.539 219.619 696.004 213.657C686.396 203.31 683.359 203.605 681.507 198.234C678.766 190.274 683.279 183.36 680.189 181.469Z" stroke="black" stroke-miterlimit="10"/>
<path d="M682.495 214.665C680.215 216.275 682.186 220.244 681.836 228.077C681.303 240.027 676.196 242.193 677.883 249.535C679.365 255.98 685.124 262.263 689.744 261.606C693.262 261.103 695.18 256.711 698.31 249.535C701.341 242.588 703.146 238.457 702.263 232.771C700.979 224.482 695.068 219.775 693.697 218.689C693.051 218.172 685.757 212.372 682.495 214.665Z" stroke="black" stroke-miterlimit="10"/>
<path d="M612.823 235.382C608.608 239.117 604.587 241.072 601.7 242.473C593.697 246.362 588.811 246.375 583.819 251.727C582.606 253.026 579.895 255.934 580.652 258.036C581.376 260.048 584.88 260.251 591.071 260.533C609.407 261.371 609.719 260.999 612.404 261.763C621.879 264.462 624.57 270.982 627.541 269.273C629.821 267.961 629.766 261.266 629.651 247.877C629.595 241.324 629.325 239.347 630.565 236.149C632.338 231.58 634.732 230.886 636.689 225.671C637.803 222.693 639.369 216.684 637.251 215.054C635.015 213.332 629.672 217.262 627.676 218.732C620.072 224.324 619.987 229.037 612.823 235.382Z" stroke="black" stroke-miterlimit="10"/>
<path d="M631.055 221.334C629.718 220.66 626.186 224.487 623.946 228.292C620.074 234.869 621.752 238.551 618.174 241.344C615.624 243.331 614.013 242.054 611.064 244.617C610.762 244.883 606.672 248.502 607.474 251.522C608.15 254.069 611.598 253.528 616.768 256.836C622.108 260.252 623.426 264.029 624.724 263.421C626.253 262.702 624.527 257.381 624.37 246.114C624.276 239.536 624.262 236.196 625.706 233.791C627.733 230.416 630.874 229.137 631.549 224.937C631.606 224.58 632.029 221.822 631.055 221.334Z" stroke="black" stroke-miterlimit="10"/>
<path d="M743.003 256.527C738.125 257 731.166 258.324 724.149 262.362C705.591 273.044 700.164 294.905 697.637 303.785C688.57 335.616 665.309 361.672 649.325 390.715C610.682 460.93 591.357 496.04 582.749 504.483C582.543 504.681 567.449 519.482 570.377 523.736C572.203 526.39 578.82 521.711 587.463 524.902C594.268 527.417 598.875 533.525 603.37 539.488C608.19 545.876 607.948 547.837 611.029 549.406C616.909 552.399 623.602 548.222 631.061 545.322C633.158 544.505 653.879 536.705 671.714 541.822C674.936 542.743 674 542.924 706.474 560.491C711.241 563.07 713.662 564.353 715.312 563.992C725.734 561.716 722.895 530.451 729.452 481.146C733.983 447.109 736.899 450.259 741.825 411.718C745.984 379.192 744.052 375.808 748.895 349.292C749.926 343.638 754.091 321.492 757.143 302.034C760.825 278.54 758.569 286.539 760.089 279.281C761.591 272.105 762.852 268.832 761.267 265.279C758.433 258.908 748.906 257.117 743.003 256.527Z" stroke="black" stroke-miterlimit="10"/>
<path d="M743.777 264.287C741.359 264.173 732.588 264.039 722.032 270.323C719.034 272.106 710.876 277.095 704.899 287.087C697.796 298.963 702.33 303.597 696.333 319.275C689.816 336.308 680.591 340.968 683.154 346.098C686.021 351.832 701.15 353.227 710.83 346.769C721.564 339.607 719.106 327.121 729.939 322.628C737.168 319.63 742.116 323.594 746.413 319.275C749.543 316.13 747.777 313.166 749.707 302.51C751.671 291.674 754.307 290.239 754.979 280.381C755.638 270.738 753.397 267.996 752.343 266.97C751.526 266.172 749.516 264.556 743.777 264.287Z" stroke="black" stroke-miterlimit="10"/>
<path d="M704.24 317.263C699.786 323.929 702.264 327.168 696.992 336.71C694.047 342.041 691.543 344.154 692.38 345.428C693.625 347.325 701.275 345.817 706.876 341.404C712.714 336.804 710.803 333.418 718.078 325.31C722.407 320.489 725.241 319.288 725.326 315.922C725.412 312.522 722.658 308.854 719.396 307.875C713.736 306.172 707.225 312.804 704.24 317.263Z" stroke="black" stroke-miterlimit="10"/>
<path d="M648.548 414.973C646.082 421.249 646.687 423.835 642.7 427.757C630.483 439.781 634.737 451.665 624.181 472.504C613.499 493.593 598.8 501.839 601.276 507.371C602.041 509.08 603.523 508.47 612.485 511.439C620.897 514.229 625.141 515.687 627.105 518.994C630.565 524.822 626.808 531.168 629.542 533.522C632.953 536.457 638.86 526.653 650.985 524.224C657.691 522.882 663.096 524.433 670.479 526.548C673.471 527.408 681.215 529.861 690.46 535.846C701.927 543.273 704.661 548.986 707.03 547.469C710.982 544.941 709.047 525.427 700.694 509.696C693.126 495.447 688.126 499.055 682.175 485.87C674.314 468.459 675.635 445.772 675.84 442.285C676.103 437.805 676.566 435.016 676.327 429.501C675.781 416.884 672.657 415.559 672.428 405.093C672.214 395.278 674.841 391.146 671.941 386.497C670.586 384.324 668.164 382.261 665.605 382.43C660.878 382.738 657.954 390.49 656.833 393.471C653.159 403.222 651.619 407.168 648.548 414.973Z" stroke="black" stroke-miterlimit="10"/>
<path d="M1494.02 591.863C1504.58 601.15 1509.87 603.479 1515.04 611.543C1530.89 636.257 1556.1 645.598 1589.77 678.621C1623.85 712.041 1631.03 734.829 1643.05 738.72C1646.76 739.921 1646.46 737.871 1657.38 732.907C1667.62 728.251 1672.89 725.959 1680.36 727.837C1693.53 731.149 1703.46 741.707 1709.56 741.81C1717.17 741.935 1701.87 725.531 1704.31 711.616C1705.67 703.922 1711.79 700.662 1720.15 696.203C1723.54 694.399 1732.75 689.983 1749.6 688.127C1770.5 685.827 1783.02 689.68 1781.5 685.798C1778.98 679.324 1740.54 659.319 1705.58 649.469C1673.92 640.548 1677.9 649.198 1649.21 639.97C1611.33 627.79 1568.73 601.234 1562.18 597.151C1553.77 591.904 1548.71 588.362 1538.02 582.424C1513.59 568.839 1509.23 570.245 1489.08 558.769C1470.19 548.006 1463.83 540.966 1453.25 538.453C1448.3 537.277 1442.94 537.211 1441.77 539.763C1439.59 544.474 1452.71 555.833 1457.75 560.197C1474.25 574.482 1480.89 580.311 1494.02 591.863Z" stroke="black" stroke-miterlimit="10"/>
<path d="M744.429 541.399C741.293 539.75 737.57 542.07 737.576 545.664C737.682 599.438 729.03 641.027 720.384 670.325C707.37 714.443 703.582 744.425 705.229 773.595C706.375 793.88 730.506 795.483 736.858 820.536C740.067 833.203 738.907 843.423 747.401 857.418C750.854 863.111 758.247 875.289 767.169 874.853C772.355 874.598 774.839 870.239 791.55 843.335C803.786 823.64 805.506 821.065 805.388 815.841C805.104 802.926 794.219 801.773 790.891 787.006C787.438 771.69 795.457 756.582 802.093 744.089C810.132 728.947 814.797 728.84 817.249 717.937C820.385 703.975 813.572 700.454 816.59 687.09C818.909 676.823 826.599 662.707 838.994 658.255C848.094 654.982 854.321 658.865 866.669 652.89C871.084 650.751 873.581 649.544 875.894 646.855C886.035 635.066 872.942 617.792 881.166 607.291C888.414 598.037 903.477 605.198 908.182 596.561C911.332 590.781 905.395 586.06 901.593 569.738C896.881 549.507 901.336 536.732 896.321 534.868C892.928 533.607 890.496 539.307 879.848 545.597C873.667 549.245 863.612 555.193 852.831 553.644C842.545 552.169 842.222 545.396 828.451 541.574C822.718 539.984 815.318 537.932 808.023 540.903C797.467 545.201 799.404 555.025 788.255 561.691C780.618 566.258 768.355 568.437 761.239 563.032C755.051 558.331 756.738 550.921 748.719 544.256C747.296 543.076 745.839 542.137 744.429 541.399Z" stroke="black" stroke-miterlimit="10"/>
<path d="M-9.39117 621.71C-1.0424 613.851 10.891 606.85 15.6485 610.31C21.4208 614.515 11.2534 630.226 18.9432 641.827C24.6496 650.444 37.7494 653.093 47.2776 651.886C63.9027 649.78 65.0558 636.51 85.4961 630.427C96.8233 627.054 98.0226 630.669 113.831 627.745C137.019 623.46 149.756 612.852 150.731 614.334C152.431 616.922 108.348 641.103 63.0922 686.756C50.5657 699.397 37.1695 711.052 10.377 734.368C-8.85084 751.099 -17.5554 757.999 -24.5468 755.156C-34.8526 750.965 -34.6351 728.373 -34.4309 707.544C-34.1739 681.264 -33.8181 644.704 -9.39117 621.71Z" stroke="black" stroke-miterlimit="10"/>
<path d="M-20.0653 515.8C-21.7853 521.822 -28.7972 543.761 -17.4292 555.903C-12.1966 561.493 -3.5108 564.529 4.3183 563.924C14.0454 563.171 20.3521 556.971 28.7019 548.5C41.2495 535.771 40.8607 529.756 50.4494 520.119C60.6114 509.908 72.0519 505.62 79.446 502.843C114.189 489.801 165.223 495.606 178.957 520.119C186.088 532.841 179.142 543.428 184.888 546.649C196.797 553.318 233.504 511.746 271.219 474.463C330.241 416.121 365.024 381.737 418.18 350.45C445.635 334.292 473.827 312.944 530.213 270.244C537.383 264.814 553.608 252.357 550.642 246.182C546.385 237.328 504.524 245.281 499.898 246.182C473.794 251.265 466.756 257.855 454.426 253.585C443.335 249.741 433.212 238.926 433.337 228.289C433.509 213.297 453.945 205.153 451.79 200.525C447.717 191.783 395.114 208.546 395.114 208.546C209.318 267.763 70.2198 323.92 -37.8587 363.407C-85.3407 380.756 -4.56523 461.636 -20.0653 515.8Z" stroke="black" stroke-miterlimit="10"/>
<path d="M-25.1997 433.264C-27.9611 437.961 -11.0567 442.359 -17.2912 449.123C-24.0464 456.449 -11.7949 467.252 -11.3599 487.552C-10.8195 512.53 -28.7651 523.528 -20.5864 537.57C-20.1778 538.271 -14.8594 547.11 -6.08758 547.939C9.16255 549.385 14.8698 524.742 44.6583 499.751C56.1849 490.083 71.0396 477.621 93.4271 474.132C107.438 471.949 119.683 474.913 144.173 480.842C179.629 489.424 185.864 498.531 187.67 501.581C192.817 510.286 190.055 517.288 193.601 518.661C200.883 521.479 222.282 495.689 239.734 464.373C289.003 375.969 260.203 327.153 305.637 292.97C315.78 285.339 346.142 266.009 363.633 255.151C387.246 240.5 399.214 233.961 397.903 230.752C395.359 224.525 345.127 236.748 337.271 238.682C253.896 259.214 238.943 279.367 156.036 309.439C38.3843 352.113 -20.4414 373.45 -25.1997 374.097C-28.5278 374.548 -40.3378 376.048 -42.9937 382.636C-49.8543 399.636 -19.1695 423.004 -25.1997 433.264Z" stroke="black" stroke-miterlimit="10"/>
<path d="M503.923 -20.7101C502.236 -6.79548 530.405 -3.59009 551.366 38.3012C558.272 52.1017 560.671 62.6567 573.111 81.889C591.357 110.094 601.973 111.77 604.74 112.065C615.277 113.178 616.918 105.185 635.711 98.6535C659.34 90.4389 670.733 98.2177 677.883 89.2654C685.592 79.6023 674.239 68.1622 679.86 52.3834C686.66 33.2852 711.732 26.338 726.644 22.2072C734.604 20.001 768.157 11.2097 803.74 26.2307C824.773 35.1092 834.018 47.0389 839.982 42.9952C847.085 38.1872 842.954 15.1996 834.71 0.0779923C821.222 -24.6732 790.673 -39.4394 720.055 -46.8627C626.716 -56.6734 507.362 -49.0421 503.923 -20.7101Z" stroke="black" stroke-miterlimit="10"/>
<path d="M534.893 50.3717C553.238 68.0147 561.356 81.6476 572.453 100.665C578.495 111.026 579.114 113.48 578.383 116.089C575.358 126.912 553.87 123.774 518.419 134.865C490.474 143.609 479.048 153.306 474.271 148.277C469.348 143.093 474.791 125.772 485.473 116.089C495.33 107.15 503.185 110.59 507.218 103.348C512.351 94.1339 501.419 85.3358 498.651 61.7716C498.21 58.0298 495.35 33.6608 503.923 29.5837C510.183 26.6063 519.718 35.7798 534.893 50.3717Z" stroke="black" stroke-miterlimit="10"/>
<path d="M876.883 231.43C864.85 237.981 886.694 289.16 899.946 366.217C904.723 393.985 909.599 432.195 912.465 431.934C914.95 431.706 908.123 403.407 923.667 385.663C934.138 373.707 952.351 369.308 967.157 371.581C993.541 375.632 1005.86 400.356 1012.62 396.393C1020.33 391.88 1008.49 357.378 1006.69 352.134C991.611 308.191 977.384 309.499 963.204 268.982C957.438 252.506 954.954 238.477 945.412 236.124C935.996 233.797 930.408 245.492 916.419 243.5C908.452 242.367 906.983 238.109 893.356 234.112C884.085 231.396 879.446 230.035 876.883 231.43Z" stroke="black" stroke-miterlimit="10"/>
<path d="M884.131 255.57C876.223 276.398 893.56 298.252 902.581 342.075C905.546 356.479 906.693 368.804 909.829 368.898C913.045 368.992 914.224 356.097 924.326 336.04C930.54 323.708 934.091 316.881 941.458 313.911C952.186 309.579 961.207 317.364 964.521 313.24C967.875 309.062 958.169 301.646 952.66 281.723C949.175 269.116 950.268 261.974 943.435 254.899C941.412 252.807 937.742 249.005 932.233 248.194C920.768 246.51 915.193 259.801 905.876 257.582C898.463 255.818 896.73 246.155 891.379 246.852C887.234 247.396 884.862 253.639 884.131 255.57Z" stroke="black" stroke-miterlimit="10"/>
<path d="M915.601 466.466C929.126 503.541 921.859 551.659 931.559 552.509C934.766 552.789 934.806 547.453 943.029 542.326C954.38 535.249 964.474 539.078 966.469 534.18C968.044 530.316 962.045 527.22 958.489 517.379C955.986 510.444 953.866 497.854 958.988 492.431C964.987 486.082 977.206 493.465 999.882 497.523C1013.76 500.007 1047.79 506.096 1055.74 493.45C1061.28 484.637 1047.58 477.157 1034.29 436.427C1029.34 421.25 1025.81 405.645 1015.34 402.824C1012.59 402.081 1011.77 402.875 1003.37 402.824C1000.81 402.809 988.915 402.732 980.931 400.788C962.868 396.384 961.437 381.563 950.51 382.459C941.788 383.177 933.095 393.405 932.058 402.824C930.941 413.007 939.095 419.31 935.549 424.717C933.08 428.484 928.343 426.606 921.086 432.354C920.857 432.532 916.852 435.745 914.603 439.482C908.908 448.941 914.114 462.393 915.601 466.466Z" stroke="black" stroke-miterlimit="10"/>
<path d="M945.498 392.287C940.473 393.854 938.786 401.696 938.512 402.973C936.197 413.735 942.125 423.688 948.492 433.504C964.41 458.051 972.374 470.325 979.928 476.248C1002.9 494.246 1035.89 500.643 1041.3 492.023C1045.69 485.051 1028.06 474.589 1024.84 447.243C1024.35 443.122 1023.89 436.064 1019.85 427.907C1018.11 424.406 1014.53 417.384 1007.37 413.15C1001.05 409.405 998.775 411.888 987.912 409.588C971.376 406.087 956.975 396.867 956.975 396.867C952.309 393.88 949.081 391.168 945.498 392.287Z" stroke="black" stroke-miterlimit="10"/>
<path d="M1195.59 914.65C1169.56 913.877 1156.54 913.49 1148.1 914.351C1130.19 916.178 1115.4 921.366 1114.09 926.461C1112.66 932.052 1128.46 933.596 1128.75 941.861C1128.84 944.579 1127.18 945.634 1130.51 947.244C1138.26 950.992 1160.49 951.648 1173.31 952.028C1202.69 952.897 1207.63 950.418 1230.18 951.879C1248.49 953.064 1249.36 954.966 1264.77 955.168C1277.34 955.332 1296.9 954.332 1305.23 950.683C1311.78 947.812 1308.62 944.514 1304.64 940.366C1302.47 938.097 1299.84 936.579 1294.67 933.638C1283.69 927.381 1278.19 924.252 1267.7 921.677C1255.27 918.625 1241.91 917.331 1234.28 916.593C1222.69 915.471 1213.49 915.182 1195.59 914.65Z" stroke="black" stroke-miterlimit="10"/>
<path d="M1280.81 980.469C1282.55 972.845 1299.99 976.432 1313.76 960.352C1316.18 957.529 1321.63 951.171 1323.64 941.575C1325.21 934.152 1323.61 930.015 1324.96 929.505C1328.76 928.057 1336.87 962.625 1364.5 991.869C1375.44 1003.45 1383.05 1007.44 1381.63 1011.99C1379.08 1020.11 1350.91 1019.44 1328.92 1013.33C1303.84 1006.36 1278.64 990.059 1280.81 980.469Z" stroke="black" stroke-miterlimit="10"/>
<path d="M987.584 985.832C976.461 972.481 985.944 964.105 975.723 908.045C968.62 869.064 961.734 860.494 963.863 834.951C964.706 824.873 967.935 786.126 988.902 779.293C1001.4 775.223 1016.37 783.719 1024.48 791.364C1040.3 806.264 1039.18 826.542 1046.89 826.904C1055.12 827.293 1057.8 804.219 1070.61 802.763C1077.04 802.033 1084.11 806.968 1087.08 812.822C1092.7 823.887 1080.58 832.101 1081.81 849.704C1082.93 865.684 1093.39 865.543 1098.29 885.916C1102.23 902.338 1096.08 905.081 1099.6 924.139C1101.48 934.251 1104.6 951.116 1116.74 959.68C1123.89 964.729 1130.09 964.012 1162.2 961.691C1204.7 958.62 1209.85 958.707 1216.9 960.35C1237.71 965.205 1260.29 980.179 1258.41 988.515C1255.67 1000.64 1203.68 987.75 1106.19 992.538C1033.84 996.092 1004.42 1006.04 987.584 985.832Z" stroke="black" stroke-miterlimit="10"/>
<path d="M1000.76 979.798C996.085 974.46 994.747 968.552 992.856 959.681C988.322 938.43 993.067 928.391 992.856 910.728C992.579 887.855 984.441 890.463 978.359 854.399C974.761 833.081 971.585 812.649 982.972 802.094C984.164 800.987 991.314 794.61 999.445 796.059C1012.4 798.365 1011.91 817.698 1032.39 832.941C1037.7 836.89 1045.18 842.295 1052.82 840.317C1062.94 837.702 1066.16 824.022 1068.63 824.894C1071.35 825.846 1072.79 844.079 1062.7 855.74C1049.95 870.486 1030.29 861.42 1021.85 874.517C1017.16 881.799 1022.44 885.836 1021.85 910.728C1021.31 933.649 1016.72 935.245 1019.21 944.928C1025.52 969.357 1058.45 973.428 1056.77 981.81C1055.03 990.568 1016.74 998.004 1000.76 979.798Z" stroke="black" stroke-miterlimit="10"/>
<path d="M938.855 648.361C928.753 653.65 941.22 669.122 945.423 686.001C950.032 704.504 947.232 724.282 954.379 724.131C959.865 724.013 959.143 713.469 972.29 706.533C982.834 700.97 999.689 699.107 1011.1 705.066C1025.73 712.702 1024.76 729.718 1033.19 729.997C1039.34 730.197 1040.34 721.139 1049.91 719.242C1060.04 717.233 1065.75 726.062 1076.18 724.62C1084.63 723.451 1086.41 716.896 1093.49 711.421C1109.61 698.956 1138.44 703.512 1169.91 708.488C1201.65 713.503 1218.36 725.822 1222.45 721.686C1224.14 719.98 1222.32 717.028 1211.11 700.667C1181.01 656.72 1187.59 668.345 1182.45 660.093C1175.13 648.317 1172.4 641.771 1168.12 642.006C1162.71 642.299 1164.06 652.961 1155.58 659.115C1143.46 667.914 1124.29 658.025 1085.73 653.738C1069.14 651.895 1077.74 654.286 1026.62 652.272C986.733 650.703 966.791 649.915 962.14 649.339C946.898 647.447 943.238 646.068 938.855 648.361Z" stroke="black" stroke-miterlimit="10"/>
<path d="M1232.87 390.018C1221.91 380.462 1168.92 334.231 1120.97 358.756C1102.1 368.412 1081.75 390.18 1079.25 416.912C1077.4 436.668 1085.98 451.842 1101.4 479.111C1112.9 499.436 1118.65 509.598 1128.12 511.723C1147.93 516.167 1157.53 485.023 1183.42 485.092C1203.1 485.142 1206.01 503.18 1228.46 505.067C1247.57 506.673 1271.59 495.78 1278.76 477.592C1292.41 442.949 1239.47 395.774 1232.87 390.018Z" stroke="black" stroke-miterlimit="10"/>
<path d="M1488.54 161.938C1479.38 162.662 1435.07 166.156 1422.14 198.445C1417.04 211.152 1416.2 229.841 1425.94 242.696C1433.14 252.198 1443.46 255.008 1462.01 260.051C1475.83 263.813 1482.74 265.691 1488.15 262.378C1499.46 255.437 1491.32 237.459 1503.74 225.871C1513.19 217.06 1521.96 223.665 1533.49 214.418C1543.31 206.539 1550.35 190.981 1546.35 179.776C1538.71 158.444 1494.05 161.502 1488.54 161.938Z" stroke="black" stroke-miterlimit="10"/>
<path d="M1488.85 161.052C1478.16 161.897 1426.41 165.981 1411.31 203.688C1405.37 218.528 1404.38 240.355 1415.76 255.37C1424.16 266.468 1436.22 269.747 1457.88 275.635C1474.02 280.027 1482.09 282.227 1488.4 278.351C1501.61 270.243 1492.1 249.247 1506.61 235.715C1517.65 225.422 1527.9 233.14 1541.36 222.344C1552.82 213.143 1561.05 194.97 1556.37 181.887C1547.46 156.975 1495.3 160.55 1488.85 161.052Z" stroke="black" stroke-miterlimit="10"/>
<path d="M1495.11 149.612C1482.69 150.591 1422.61 155.332 1405.07 199.114C1398.16 216.348 1397.02 241.689 1410.23 259.125C1419.99 272.006 1433.99 275.815 1459.14 282.662C1477.89 287.765 1487.26 290.313 1494.59 285.814C1509.93 276.399 1498.89 252.016 1515.74 236.305C1528.55 224.355 1540.45 233.314 1556.08 220.774C1569.39 210.092 1578.96 188.988 1573.52 173.8C1563.16 144.878 1502.59 149.022 1495.11 149.612Z" stroke="black" stroke-miterlimit="10"/>
<path d="M1060.73 413.155C1039.81 360.702 1015.7 325.724 996.151 302.509C983.782 287.823 956.654 258.136 963.862 235.45C965.2 231.246 967.256 228.731 975.723 208.627C982.51 192.52 983.13 189.516 986.266 188.51C992.566 186.484 998.958 195.732 1025.14 224.05C1042.08 242.364 1048.45 248.272 1056.77 254.227C1067.33 261.777 1069.88 261.429 1081.15 268.309C1104.57 282.606 1106.07 291.766 1133.21 314.579C1156.56 334.207 1169.01 338.827 1167.47 344.085C1164.94 352.775 1130.81 340.531 1100.26 360.849C1091.81 366.475 1084.01 371.666 1079.84 381.637C1074.97 393.265 1077.81 404.799 1069.95 410.472C1066.78 412.759 1063.17 413.155 1060.73 413.155Z" stroke="black" stroke-miterlimit="10"/>
<path d="M1046.89 208.628C1031.83 215.502 1017.08 190.087 1014.6 187.84C1011.29 184.85 991.518 179.445 989.561 161.017C987.868 145.104 996.19 137.929 991.538 122.794C988.138 111.736 981.502 108.43 982.972 106.029C986.451 100.349 1021.55 122.009 1075.22 139.558C1097.28 146.774 1125.85 154.398 1125.3 156.994C1124.82 159.3 1102.61 151.676 1083.79 163.699C1078.68 166.965 1075.61 170.539 1069.95 177.111C1053.87 195.814 1055.69 204.612 1046.89 208.628Z" stroke="black" stroke-miterlimit="10"/>
<path d="M1327.33 907.096C1323.5 908.684 1307.52 860.716 1268.98 787.075C1246.43 743.993 1243.72 744.776 1220.62 699.06C1195.77 649.902 1183.35 625.327 1177.51 606.472C1169.82 581.651 1167.25 560.144 1152.8 546.462C1151.07 544.827 1146.7 540.958 1147.02 536.174C1147.74 525.258 1172.23 519.394 1173.83 519.028C1180.03 517.6 1188.54 516.611 1200.64 518.457C1228.59 522.72 1233.27 535.631 1247.95 532.174C1263.58 528.493 1272.59 510.478 1273.71 508.169C1281.23 492.664 1276.8 480.262 1282.12 477.878C1287.86 475.307 1295.4 488.657 1312.61 506.455C1335.84 530.476 1320.99 514.548 1338.5 536.174C1346.32 545.827 1363.98 567.643 1358.48 577.896C1353.97 586.303 1338.56 578.187 1308.53 581.896C1293.92 583.702 1293.14 600.288 1273.19 617.903C1266.95 623.406 1246.77 642.93 1244.27 671.626C1242.78 688.749 1248.54 698.157 1267.4 737.352C1287.62 779.342 1300.83 806.987 1311.56 838.512C1322.4 870.352 1330.56 905.758 1327.33 907.096Z" stroke="black" stroke-miterlimit="10"/>
<path d="M1218.38 556.297C1215.73 558.065 1223.41 567.114 1221.77 577.973C1219.9 590.412 1208.09 590.003 1205.58 601.753C1205.04 604.301 1205.02 607.021 1218.09 635.911C1224.97 651.122 1226.49 653.716 1228.95 653.992C1234.11 654.572 1236.61 644.246 1247.36 626.788C1255.8 613.085 1261.16 604.384 1270.43 597.546C1288.4 584.29 1307.49 588.027 1307.64 582.928C1307.78 577.862 1289.09 569.518 1270.73 567.79C1253.51 566.17 1245.12 571.188 1232.35 564.431C1224.93 560.502 1220.43 554.921 1218.38 556.297Z" stroke="black" stroke-miterlimit="10"/>
<path d="M1410.18 808.989C1395.08 816.175 1393.29 822.348 1379.94 830.691C1365.67 839.616 1360.54 837.049 1357.33 843.045C1354.34 848.62 1357.04 854.086 1365.12 872.036C1372.7 888.882 1376.49 897.299 1377.76 900.58C1387.47 925.591 1384.18 933.592 1394.88 943.295C1397.43 945.609 1405.76 953.169 1417.27 953.11C1434.3 953.027 1447.39 936.297 1452.27 923.946C1456.46 913.327 1452.31 911.662 1454.49 897.27C1458.21 872.682 1473.76 854.573 1484.99 841.51C1494.38 830.584 1499.08 825.12 1505.59 821.239C1536.45 802.851 1578.98 815.548 1594.16 820.077C1604.05 823.03 1613.41 825.823 1624.14 832.432C1641.66 843.222 1646.03 853.827 1654.32 852.872C1663.32 851.829 1670.13 837.921 1671.96 827.473C1676.92 798.999 1651.1 759.989 1613.96 749.1C1589.62 741.961 1548.26 757.192 1465.54 787.667C1447.33 794.373 1443.91 796.369 1420.77 804.769C1416.21 806.422 1413.78 807.273 1410.18 808.989Z" stroke="black" stroke-miterlimit="10"/>
<path d="M1501.56 990.525C1499.12 978.435 1521.21 957.714 1542.41 954.984C1562.61 952.383 1572.62 967.323 1591.83 961.02C1594.03 960.295 1595.88 959.45 1618.85 940.232C1642.47 920.463 1644.3 918.19 1650.48 916.091C1662.67 911.946 1679.4 912.671 1691.33 921.455C1708.7 934.25 1714.95 963.474 1707.15 981.137C1683.13 1035.49 1507.81 1021.5 1501.56 990.525Z" stroke="black" stroke-miterlimit="10"/>
<path d="M435.874 893.202C436.75 889.867 446.978 889.302 454.404 892.816C461.479 896.163 462.718 901.655 469.981 903.933C470.813 904.194 471.546 904.357 481.856 904.319C492.462 904.28 493.385 904.101 495.731 904.817C500.359 906.228 505.819 909.682 508.556 914.096C512.542 920.526 510.541 928.657 505.485 931.301C489.926 939.437 433.631 901.748 435.874 893.202Z" stroke="black" stroke-miterlimit="10"/>
<path d="M1521.12 655.411C1517.77 655.252 1510.35 655.005 1505.81 660.075C1501.11 665.332 1501.07 674.554 1504.01 681.066C1508.26 690.46 1516.33 688.897 1524.73 699.257C1531.88 708.069 1533.31 718.158 1533.74 721.181C1536.57 741.164 1524.3 753.296 1528.78 758.031C1532.58 762.047 1542.32 754.285 1561.66 748.235C1590.11 739.335 1604.53 745.026 1607.6 737.507C1609.55 732.74 1605.11 727.142 1578.77 699.257C1548.56 667.259 1536.97 656.166 1521.12 655.411Z" stroke="black" stroke-miterlimit="10"/>
<path d="M1159.41 180.877C1156.28 185.615 1169.63 194.752 1174.58 219.436C1176.33 228.165 1178.4 239.236 1173.41 251.569C1171.94 255.226 1165.47 269.797 1151.24 275.523C1144.62 278.187 1141.02 277.042 1140.16 279.028C1137.27 285.7 1174.18 306.908 1197.33 321.677C1203.72 325.755 1264.18 364.747 1315.76 418.076C1352.9 456.483 1377.35 529.502 1397.65 524.782C1401.97 523.783 1410.7 497.84 1426.69 479.875C1467.14 434.457 1465.03 427.285 1474.17 421.945C1503.32 404.897 1511.98 411.678 1529.86 394.122C1543.18 381.047 1543.54 356.422 1536.28 339.788C1528.51 322.004 1512.16 313.621 1503.61 309.408C1446.38 281.231 1402.9 274.857 1352.51 256.827C1340.79 252.632 1307.75 237.67 1241.67 207.751C1209.36 193.116 1164.83 172.68 1159.41 180.877Z" stroke="black" stroke-miterlimit="10"/>
<path d="M1685.2 376.924C1679.2 371.925 1662.72 366.741 1629.77 356.373C1616.82 352.298 1609.07 350.248 1606.01 352.776C1601.2 356.742 1615.15 366.027 1615.25 382.062C1615.34 398.057 1601.55 404.479 1606.67 413.404C1609.91 419.056 1617.53 420.119 1631.74 424.194C1673.68 436.222 1679.97 447.792 1689.82 444.232C1706.45 438.215 1709.86 397.445 1685.2 376.924Z" stroke="black" stroke-miterlimit="10"/>
<path d="M1356.59 95.3012C1347.3 108.163 1366.97 125.377 1360.54 153.642C1357.59 166.638 1352.49 167.154 1350 183.147C1347.7 197.954 1350.82 205.585 1345.39 210.641C1337.62 217.863 1322.37 210.521 1321.01 213.994C1319.58 217.622 1335.63 227.252 1338.14 228.747C1358.9 241.092 1382.14 254.913 1390.2 247.523C1398.08 240.281 1380.66 222.497 1386.9 194.547C1387.49 191.919 1392.42 171.198 1409.96 157.665C1431.95 140.713 1450.69 152.844 1467.29 135.536C1474.87 127.637 1481.43 114.198 1477.84 102.678C1472.81 86.5836 1450.37 81.8627 1440.93 79.8778C1426.56 76.8535 1410.7 80.3204 1378.99 87.2542C1360.75 91.2442 1358.4 92.7932 1356.59 95.3012Z" stroke="black" stroke-miterlimit="10"/>
<path d="M362.91 171.747C347.28 182.47 338.153 203.345 343.142 209.3C347.583 214.597 360.399 204.713 394.539 194.547C434.365 182.684 451.656 185.783 457.797 172.418C462.172 162.896 459.029 149.082 451.867 144.924C443.116 139.848 434.385 152.662 407.718 161.018C383.429 168.629 376.451 162.46 362.91 171.747Z" stroke="black" stroke-miterlimit="10"/>
<path d="M868.316 2.75967C863.236 10.1897 862.241 18.5653 861.727 22.8771C861.094 28.1747 858.966 46.0927 867.657 52.3827C873.93 56.9159 880.111 51.2696 899.945 48.3592C910.824 46.7633 924.392 44.7716 938.823 49.0298C949.082 52.0608 957.082 58.2034 973.088 70.4884C988.144 82.0493 987.327 83.4307 995.492 89.2647C1018.36 105.607 1030.12 98.559 1067.97 114.076C1087.28 121.989 1099.17 129.949 1100.92 127.488C1104.24 122.834 1060.65 95.7493 1066 72.5002C1067.51 65.9553 1076.22 59.6384 1093.67 47.0181C1116.28 30.6626 1124.39 29.3348 1129.92 18.183C1133.42 11.1017 1137.72 -3.63098 1131.23 -12.6637C1124.17 -22.5079 1107.84 -20.6503 1033.05 -9.31081C988.256 -2.51781 986.418 -2.01488 979.018 -2.60499C948.008 -5.06603 939.416 -17.1097 909.17 -14.6755C898.061 -13.7836 878.345 -11.9127 868.316 2.75967Z" stroke="black" stroke-miterlimit="10"/>
<path d="M1134.99 7.89886C1125.96 22.0658 1123.12 38.6908 1106.08 48.759C1096.06 54.6773 1087.38 54.6454 1084.1 62.8047C1080.42 71.9599 1086.79 83.3177 1091.04 90.896C1096.43 100.511 1102.09 106.136 1125.16 126.01C1140.26 139.022 1147.92 145.598 1152.92 148.994C1159.46 153.431 1187.85 172.706 1193.98 165.593C1198.98 159.79 1182.22 144.442 1186.46 122.18C1188.35 112.258 1194.68 99.566 1204.96 93.4498C1209.84 90.5449 1212.63 90.9024 1225.78 84.5116C1236.28 79.4105 1237.67 77.6484 1238.5 76.2119C1241.95 70.2616 1238.43 65.2754 1236.77 48.759C1235.5 36.086 1234.63 27.4606 1238.5 18.7523C1241.85 11.2443 1245.35 11.2379 1247.18 4.70666C1249.76 -4.54433 1245.75 -15.2701 1241.97 -20.1925C1226.26 -40.6864 1160.18 -31.6397 1134.99 7.89886Z" stroke="black" stroke-miterlimit="10"/>
<path d="M1693.31 161.018C1674.77 150.685 1643.38 149.605 1619.51 163.03C1613.32 166.51 1598.38 174.913 1589.86 191.865C1582.65 206.189 1586.38 213.994 1577.34 223.383C1570.36 230.625 1560.93 233.468 1547.68 237.465C1533.23 241.824 1529.12 240.281 1523.96 245.512C1518.11 251.44 1522.35 254.477 1514.74 268.312C1510.93 275.225 1506.95 279.792 1504.85 289.1C1504.03 292.734 1503.63 294.545 1504.19 296.476C1506.98 305.938 1528.33 307.105 1536.48 307.876C1541.61 308.359 1567.21 319.162 1618.19 340.734C1685.36 369.16 1686.75 370.743 1691.99 368.899C1737.08 353.013 1752.49 194.024 1693.31 161.018Z" stroke="black" stroke-miterlimit="10"/>
</svg>
