<svg width="144" height="138" viewBox="0 0 144 138" fill="none" xmlns="http://www.w3.org/2000/svg">
<path d="M75.8185 17.3187C47.1678 11.241 40.6109 -1.13801 26.3185 1.3182C10.6818 4.00467 4.43478 16.96 3.47932 19.2348C-1.02783 29.9737 1.78584 34.5581 2.82038 65.2886C3.89445 97.1286 1.23234 102.578 6.77402 114.134C11.894 124.81 22.806 138.151 32.4727 136.463C41.0982 134.956 40.4985 122.912 53.5587 115.529C64.7673 109.193 76.8786 111.468 79.9163 112.04C97.108 115.271 99.1442 127.064 110.886 126.694C126.958 126.191 136.974 108.589 138.318 105.818C144.73 92.5814 143.359 74.0388 142.818 62.8184C142.357 53.2866 139.273 46.9964 134.818 38.8184C128.018 26.342 113.812 23.5325 110.886 22.3184C106.063 20.3087 113.212 20.9262 93.3185 17.3187C87.1245 16.1952 78.2236 17.828 75.8185 17.3187Z" stroke="black" stroke-miterlimit="10"/>
</svg>
