<svg width="144" height="138" viewBox="0 0 144 138" fill="none" xmlns="http://www.w3.org/2000/svg">
<mask id="mask0" mask-type="alpha" maskUnits="userSpaceOnUse" x="0" y="0" width="144" height="138">
<path d="M75.8185 17.3187C47.1678 11.241 40.6109 -1.13801 26.3185 1.3182C10.6818 4.00467 4.43478 16.96 3.47932 19.2348C-1.02783 29.9737 1.78584 34.5581 2.82038 65.2886C3.89445 97.1286 1.23234 102.578 6.77402 114.134C11.894 124.81 22.806 138.151 32.4727 136.463C41.0982 134.956 40.4985 122.912 53.5587 115.529C64.7673 109.193 76.8786 111.468 79.9163 112.04C97.108 115.271 99.1442 127.064 110.886 126.694C126.958 126.191 136.974 108.589 138.318 105.818C144.73 92.5814 143.359 74.0388 142.818 62.8184C142.357 53.2866 139.273 46.9964 134.818 38.8184C128.018 26.342 113.812 23.5325 110.886 22.3184C106.063 20.3087 113.212 20.9262 93.3185 17.3187C87.1245 16.1952 78.2236 17.828 75.8185 17.3187Z" fill="black" stroke="black" stroke-miterlimit="10"/>
</mask>
<g mask="url(#mask0)">
<path d="M-177 103.271L-18.8497 292.35M-84.9536 26.2815L73.1967 215.36M-130.977 64.7765L27.1735 253.855M-38.9304 -12.2135L119.22 176.865M48.5136 -85.3541L206.664 103.725M-153.988 84.024L4.16193 273.103M-61.942 7.03396L96.2083 196.113M25.502 -66.1066L183.652 122.972M-107.965 45.529L50.1851 234.608M-15.9188 -31.4611L142.232 157.618M71.5252 -104.602L229.676 84.477M-167.795 95.5725L-9.64503 284.651M-75.749 18.5825L82.4014 207.661M11.6951 -54.5581L169.845 134.521M-121.772 57.0775L36.3782 246.156M-29.7258 -19.9125L128.425 169.166M57.7183 -93.0531L215.869 96.0255M-144.784 76.325L13.3666 265.404M-52.7374 -0.665043L105.413 188.414M34.7067 -73.8056L192.857 115.273M-98.7606 37.83L59.3898 226.909M-6.71419 -39.1601L151.436 149.919M80.7299 -112.301L238.88 76.778M-172.398 99.422L-14.2473 288.501M-80.3513 22.432L77.799 211.511M7.09276 -50.7086L165.243 138.37M-126.374 60.927L31.7758 250.006M-34.3281 -16.063L123.822 173.016M53.116 -89.2036L211.266 99.875M-149.386 80.1745L8.76425 269.253M-57.3397 3.18446L100.811 192.263M30.1044 -69.9561L188.255 119.123M-103.363 41.6795L54.7874 230.758M-11.3165 -35.3106L146.834 153.768M76.1276 -108.451L234.278 80.6275M-163.193 91.723L-5.04271 280.802M-71.1467 14.733L87.0037 203.812M16.2974 -58.4076L174.448 130.671M-117.17 53.228L40.9805 242.307M-25.1235 -23.762L133.027 165.317M62.3206 -96.9026L220.471 92.176M-140.181 72.4755L17.9689 261.554M-48.1351 -4.51454L110.015 184.564M39.309 -77.6551L197.459 111.424M-94.1583 33.9805L63.9921 223.059M-2.11187 -43.0096L156.038 146.069M85.3322 -116.15L243.483 72.9285M-158.591 87.8735L-0.44039 276.952M-66.5443 10.8835L91.606 199.962M20.8997 -62.2571L179.05 126.822M-112.568 49.3785L45.5828 238.457M-20.5211 -27.6116L137.629 161.467M66.9229 -100.752L225.073 88.3265M-135.579 68.626L22.5712 257.705M-43.5327 -8.36405L114.618 180.715M43.9113 -81.5046L202.062 107.574M-89.5559 30.131L68.5944 219.21M2.49045 -46.8591L160.641 142.22M89.9345 -120L248.085 69.079" stroke="black"/>
</g>
</svg>
