<?xml version="1.0" encoding="utf-8"?>
<!-- Generator: Adobe Illustrator 24.1.1, SVG Export Plug-In . SVG Version: 6.00 Build 0)  -->
<svg version="1.1" id="Слой_1" xmlns="http://www.w3.org/2000/svg" xmlns:xlink="http://www.w3.org/1999/xlink" x="0px" y="0px"
	 viewBox="0 0 125 108" style="enable-background:new 0 0 125 108;" xml:space="preserve">
<style type="text/css">
	.st0{fill:#F7C186;}
	.st1{fill:#E6A47B;}
	.st2{fill:#F4D9AE;}
	.st3{fill-rule:evenodd;clip-rule:evenodd;fill:#FFFFFF;}
	.st4{fill-rule:evenodd;clip-rule:evenodd;}
</style>
<polygon class="st0" points="125,97.2 125,108 0,108 0,102.6 5.4,102.6 5.4,43.2 0,43.2 0,37.8 32.6,37.8 32.6,32.4 38,32.4 38,27 
	43.5,27 43.5,21.6 48.9,21.6 48.9,16.2 54.4,16.2 54.4,10.8 59.8,10.8 59.8,5.4 65.2,5.4 65.2,0 70.7,0 70.7,5.4 76.1,5.4 
	76.1,10.8 81.5,10.8 81.5,16.2 87,16.2 87,21.6 92.4,21.6 92.4,27 97.8,27 97.8,32.4 103.3,32.4 103.3,37.8 108.7,37.8 108.7,43.2 
	114.1,43.2 114.1,48.6 119.6,48.6 119.6,59.4 114.1,59.4 114.1,91.8 119.6,91.8 119.6,97.2 "/>
<g>
	<rect y="102.6" class="st1" width="125" height="5.4"/>
	<rect x="97.8" y="91.8" class="st2" width="0" height="5.4"/>
	<rect x="92.4" y="91.8" class="st1" width="5.4" height="5.4"/>
	<rect x="97.8" y="43.2" class="st1" width="5.4" height="5.4"/>
	<rect x="92.4" y="64.8" class="st0" width="5.4" height="27"/>
	<rect x="97.8" y="43.2" class="st0" width="0" height="5.4"/>
	<rect x="92.4" y="37.8" class="st1" width="5.4" height="5.4"/>
	<polygon class="st2" points="92.4,37.8 92.4,37.8 92.4,37.8 	"/>
	<polygon class="st1" points="103.3,59.4 103.3,91.8 97.8,91.8 97.8,64.8 92.4,64.8 92.4,91.8 87,91.8 87,59.4 	"/>
	<polygon class="st0" points="92.4,37.8 92.4,43.2 92.4,43.2 92.4,37.8 87,37.8 87,37.8 	"/>
	<rect x="87" y="32.4" class="st1" width="5.4" height="5.4"/>
	<polygon class="st2" points="87,32.4 87,32.4 87,32.4 	"/>
	<polygon class="st0" points="87,37.8 87,37.8 87,37.8 	"/>
	<polygon class="st0" points="87,32.4 87,37.8 87,37.8 87,32.4 81.5,32.4 81.5,32.4 	"/>
	<rect x="81.5" y="27" class="st1" width="5.4" height="5.4"/>
	<polygon class="st2" points="81.5,27 81.5,27 81.5,27 	"/>
	<polygon class="st0" points="81.5,27 81.5,32.4 81.5,32.4 81.5,27 76.1,27 76.1,27 	"/>
	<rect x="76.1" y="21.6" class="st1" width="5.4" height="5.4"/>
	<polygon class="st2" points="76.1,21.6 76.1,21.6 76.1,21.6 	"/>
	<rect x="65.2" y="91.8" class="st1" width="5.4" height="5.4"/>
	<polygon class="st0" points="76.1,21.6 76.1,27 76.1,27 76.1,21.6 70.7,21.6 70.7,21.6 	"/>
	<rect x="70.7" y="16.2" class="st1" width="5.4" height="5.4"/>
	<polygon class="st2" points="70.7,16.2 70.7,16.2 70.7,16.2 	"/>
	<rect x="65.2" y="64.8" class="st0" width="5.4" height="27"/>
	<polygon class="st0" points="70.7,21.6 70.7,21.6 70.7,21.6 	"/>
	<polygon class="st0" points="70.7,16.2 70.7,21.6 70.7,21.6 70.7,16.2 65.2,16.2 65.2,16.2 	"/>
	<rect x="65.2" y="10.8" class="st1" width="5.4" height="5.4"/>
	<polygon class="st1" points="76.1,59.4 76.1,91.8 70.7,91.8 70.7,64.8 65.2,64.8 65.2,91.8 59.8,91.8 59.8,59.4 	"/>
	<polygon class="st0" points="59.8,21.6 65.2,21.6 65.2,21.6 	"/>
	<rect x="59.8" y="16.2" class="st1" width="5.4" height="5.4"/>
	<polygon class="st0" points="54.3,32.4 54.3,32.4 54.3,32.4 	"/>
	<polygon class="st0" points="59.8,27 59.8,27 54.3,27 	"/>
	<rect x="54.3" y="21.6" class="st1" width="5.4" height="5.4"/>
	<polygon class="st0" points="48.9,32.4 54.3,32.4 54.3,32.4 	"/>
	<rect x="48.9" y="27" class="st1" width="5.4" height="5.4"/>
	<rect x="38" y="91.8" class="st1" width="5.4" height="5.4"/>
	<polygon class="st0" points="43.5,37.8 48.9,37.8 48.9,37.8 	"/>
	<rect x="43.5" y="32.4" class="st1" width="5.4" height="5.4"/>
	<rect x="38" y="64.8" class="st0" width="5.4" height="27"/>
	<polygon class="st0" points="97.8,43.2 97.8,48.6 65.2,48.6 65.2,48.6 43.5,48.6 38,48.6 38,43.2 43.5,43.2 43.5,37.8 48.9,37.8 
		48.9,37.8 48.9,37.8 48.9,32.4 54.4,32.4 54.4,32.4 54.3,32.4 54.3,27 59.8,27 59.8,27 59.8,27 59.8,21.6 65.2,21.6 65.2,21.6 
		65.2,21.6 65.2,16.2 70.7,16.2 70.7,21.6 76.1,21.6 76.1,27 81.5,27 81.5,32.4 87,32.4 87,37.8 92.4,37.8 92.4,43.2 	"/>
	<polygon class="st0" points="43.5,43.2 43.5,43.2 38,43.2 	"/>
	<rect x="38" y="37.8" class="st1" width="5.4" height="5.4"/>
	<polygon class="st1" points="48.9,59.4 48.9,91.8 43.5,91.8 43.5,64.8 38,64.8 38,91.8 32.6,91.8 32.6,59.4 	"/>
	<rect x="32.6" y="43.2" class="st1" width="5.4" height="5.4"/>
	<path class="st2" d="M119.6,97.2v-5.4h-5.4V59.4h5.4V48.6h-5.4v-5.4h-5.4v-5.4h-5.4v-5.4H98V27h-5.4v-5.4H87v-5.4h-5.4v-5.4h-5.4
		V5.4h-5.4V0h-5.4v5.4H60v5.4h-5.4v5.4h-5.4v5.4h-5.4V27H38v5.4h-5.4v5.4H0v5.4h21.7v5.4h-5.4v10.8h5.4v32.4h-5.4v5.4h-5.4v5.4H125
		v-5.4C125,97.2,119.6,97.2,119.6,97.2z M48.9,91.8h-5.4v5.4H38v-5.4h-5.4V59.4h16.3C48.9,59.4,48.9,91.8,48.9,91.8z M76.1,91.8
		h-5.4v5.4h-5.4v-5.4h-5.4V59.4h16.3L76.1,91.8L76.1,91.8z M103.3,91.8h-5.4v5.4h-5.4v-5.4H87V59.4h16.3V91.8z M32.6,48.6v-5.4H38
		v-5.4h5.4v-5.4h5.4V27h5.4v-5.4h5.4v-5.4H65v-5.4h5.4v5.4l0,0l0,0h5.4v5.4l0,0l0,0h5.4V27l0,0l0,0H87v5.4l0,0l0,0h5.4v5.4l0,0l0,0
		h5.4v5.4h5.4v5.4C103.2,48.6,32.6,48.6,32.6,48.6z"/>
	<rect x="10.9" y="91.8" class="st1" width="5.4" height="5.4"/>
	<polygon class="st1" points="16.3,48.6 16.3,59.4 21.7,59.4 21.7,91.8 16.3,91.8 16.3,64.8 10.9,64.8 10.9,48.6 5.4,48.6 5.4,43.2 
		21.7,43.2 21.7,48.6 	"/>
	<polygon class="st0" points="16.3,64.8 16.3,91.8 10.9,91.8 10.9,102.6 5.4,102.6 5.4,48.6 10.9,48.6 10.9,64.8 	"/>
</g>
<path class="st3" d="M71.7,36.9h5.4v5.4h5.4H88v5.4h5.4v5.4h5.4v5.4h5.4v5.4h-5.4l0,5.4h-5.4H88v5.4h-5.4h-5.4v5.4h-5.4h-5.4h-5.4
	h-5.4v-5.4h-5.4h-5.4v-5.4h-5.4h-5.4v-5.4h-5.4v-5.4h5.4v-5.4h5.4v-5.4h5.4v-5.4h5.4h5.4v-5.4h5.4h5.4H71.7z"/>
<path class="st4" d="M63.5,45H69v5.4h5.4v5.4l5.4,0v5.4h-5.4l0,5.4H69V72h-5.4v-5.4h-5.4v-5.4h-5.4v-5.4h5.4v-5.4h5.4V45z"/>
</svg>
