<svg width="144" height="138" viewBox="0 0 144 138" fill="none" xmlns="http://www.w3.org/2000/svg">
<mask id="mask0" mask-type="alpha" maskUnits="userSpaceOnUse" x="0" y="0" width="144" height="138">
<path d="M75.8185 17.3187C47.1678 11.241 40.6109 -1.13801 26.3185 1.3182C10.6818 4.00467 4.43478 16.96 3.47932 19.2348C-1.02783 29.9737 1.78584 34.5581 2.82038 65.2886C3.89445 97.1286 1.23234 102.578 6.77402 114.134C11.894 124.81 22.806 138.151 32.4727 136.463C41.0982 134.956 40.4985 122.912 53.5587 115.529C64.7673 109.193 76.8786 111.468 79.9163 112.04C97.108 115.271 99.1442 127.064 110.886 126.694C126.958 126.191 136.974 108.589 138.318 105.818C144.73 92.5814 143.359 74.0388 142.818 62.8184C142.357 53.2866 139.273 46.9964 134.818 38.8184C128.018 26.342 113.812 23.5325 110.886 22.3184C106.063 20.3087 113.212 20.9262 93.3185 17.3187C87.1245 16.1952 78.2236 17.828 75.8185 17.3187Z" fill="black" stroke="black" stroke-miterlimit="10"/>
</mask>
<g mask="url(#mask0)">
<path d="M89.9345 -120L248.085 69.079M-177 103.271L-18.8497 292.35L-177 103.271ZM-84.9536 26.2815L73.1967 215.36L-84.9536 26.2815ZM-130.977 64.7765L27.1735 253.855L-130.977 64.7765ZM-38.9304 -12.2135L119.22 176.865L-38.9304 -12.2135ZM48.5136 -85.3541L206.664 103.725L48.5136 -85.3541ZM-153.988 84.024L4.16193 273.103L-153.988 84.024ZM-61.942 7.03396L96.2083 196.113L-61.942 7.03396ZM25.502 -66.1066L183.652 122.972L25.502 -66.1066ZM-107.965 45.529L50.1851 234.608L-107.965 45.529ZM-15.9188 -31.4611L142.232 157.618L-15.9188 -31.4611ZM71.5252 -104.602L229.676 84.477L71.5252 -104.602ZM-167.795 95.5725L-9.64503 284.651L-167.795 95.5725ZM-75.749 18.5825L82.4014 207.661L-75.749 18.5825ZM11.6951 -54.5581L169.845 134.521L11.6951 -54.5581ZM-121.772 57.0775L36.3782 246.156L-121.772 57.0775ZM-29.7258 -19.9125L128.425 169.166L-29.7258 -19.9125ZM57.7183 -93.0531L215.869 96.0255L57.7183 -93.0531ZM-144.784 76.325L13.3666 265.404L-144.784 76.325ZM-52.7374 -0.665047L105.413 188.414L-52.7374 -0.665047ZM34.7067 -73.8056L192.857 115.273L34.7067 -73.8056ZM-98.7606 37.83L59.3898 226.909L-98.7606 37.83ZM-6.71419 -39.1601L151.436 149.919L-6.71419 -39.1601ZM80.7299 -112.301L238.88 76.778L80.7299 -112.301ZM-172.398 99.422L-14.2473 288.501L-172.398 99.422ZM-80.3513 22.432L77.799 211.511L-80.3513 22.432ZM7.09276 -50.7086L165.243 138.37L7.09276 -50.7086ZM-126.374 60.927L31.7758 250.006L-126.374 60.927ZM-34.3281 -16.063L123.822 173.016L-34.3281 -16.063ZM53.116 -89.2036L211.266 99.875L53.116 -89.2036ZM-149.386 80.1745L8.76425 269.253L-149.386 80.1745ZM-57.3397 3.18446L100.811 192.263L-57.3397 3.18446ZM30.1044 -69.9561L188.255 119.123L30.1044 -69.9561ZM-103.363 41.6795L54.7874 230.758L-103.363 41.6795ZM-11.3165 -35.3106L146.834 153.768L-11.3165 -35.3106ZM76.1276 -108.451L234.278 80.6275L76.1276 -108.451ZM-163.193 91.723L-5.04271 280.802L-163.193 91.723ZM-71.1467 14.733L87.0037 203.812L-71.1467 14.733ZM16.2974 -58.4076L174.448 130.671L16.2974 -58.4076ZM-117.17 53.228L40.9805 242.307L-117.17 53.228ZM-25.1235 -23.762L133.027 165.317L-25.1235 -23.762ZM62.3206 -96.9026L220.471 92.176L62.3206 -96.9026ZM-140.181 72.4755L17.9689 261.554L-140.181 72.4755ZM-48.1351 -4.51454L110.015 184.564L-48.1351 -4.51454ZM39.309 -77.6551L197.459 111.424L39.309 -77.6551ZM-94.1583 33.9805L63.9921 223.059L-94.1583 33.9805ZM-2.11188 -43.0096L156.038 146.069L-2.11188 -43.0096ZM85.3322 -116.15L243.483 72.9285L85.3322 -116.15ZM-158.591 87.8735L-0.440384 276.952L-158.591 87.8735ZM-66.5443 10.8835L91.606 199.962L-66.5443 10.8835ZM20.8997 -62.2571L179.05 126.822L20.8997 -62.2571ZM-112.568 49.3785L45.5828 238.457L-112.568 49.3785ZM-20.5211 -27.6116L137.629 161.467L-20.5211 -27.6116ZM66.9229 -100.752L225.073 88.3265L66.9229 -100.752ZM-135.579 68.626L22.5712 257.705L-135.579 68.626ZM-43.5327 -8.36405L114.618 180.715L-43.5327 -8.36405ZM43.9113 -81.5046L202.062 107.574L43.9113 -81.5046ZM-89.5559 30.131L68.5944 219.21L-89.5559 30.131ZM2.49045 -46.8591L160.641 142.22L2.49045 -46.8591Z" stroke="white"/>
</g>
</svg>
