<?xml version="1.0" encoding="utf-8"?>
<!-- Generator: Adobe Illustrator 24.1.1, SVG Export Plug-In . SVG Version: 6.00 Build 0)  -->
<svg version="1.1" id="Слой_1" xmlns="http://www.w3.org/2000/svg" xmlns:xlink="http://www.w3.org/1999/xlink" x="0px" y="0px"
	 viewBox="0 0 125 125.1" style="enable-background:new 0 0 125 125.1;" xml:space="preserve">
<style type="text/css">
	.st0{fill:#6D635A;}
	.st1{fill:#E8DAD4;}
	.st2{fill:#C6B8B0;}
	.st3{fill:#FFF5AE;}
</style>
<g>
	<rect x="0" y="119.7" class="st0" width="125" height="5.4"/>
	<path class="st1" d="M119.5,76.2v-5.4h5.4v-5.4h-10.9v-5.4h-5.4v-5.4h-5.4v-5.4h-5.4v-5.4h-5.4v-5.4H87v-5.4h-5.4v-5.4h-5.4v-5.4
		h-5.4v-5.4h-5.4v5.4h-5.4v5.4h-5.4v5.4h-5.4v5.4h-5.4v5.4H38v5.4h-5.4v5.4H0v5.4h21.7v5.4h-5.4v10.9h5.4v32.6h-5.4v5.4H5.5v5.4H125
		v-5.4h-5.4v-5.4h-5.4V76.2H119.5z M48.9,108.8h-5.4v5.4h0v0H38v-5.4h-5.4V76.2h16.3V108.8z M76.1,108.8h-5.4v5.4h-5.4v-5.4h-5.4
		V76.2h16.3V108.8z M103.3,108.8h-5.4v5.4h0v0h-5.4v-5.4H87V76.2h16.3V108.8z M103.3,65.4H32.6v-5.4H38v-5.4h5.4v-5.4h5.4v-5.4h5.4
		v-5.4h5.4v-5.4h5.4v-5.4h5.4v5.4h0v0h5.4v5.4h0v0h5.4v5.4h0v0H87V49h0v0h5.4v5.4h0v0h5.4v5.4h0v0h5.4V65.4z"/>
	<rect x="97.8" y="108.8" class="st1" width="0" height="5.4"/>
	<rect x="92.4" y="108.8" class="st0" width="5.4" height="5.4"/>
	<rect x="97.8" y="59.9" class="st0" width="5.4" height="5.4"/>
	<rect x="97.8" y="59.9" class="st1" width="0" height="0"/>
	<rect x="92.4" y="81.6" class="st2" width="5.4" height="27.2"/>
	<polygon class="st2" points="97.8,59.9 97.8,65.4 97.8,65.4 97.8,59.9 92.4,59.9 92.4,59.9 	"/>
	<rect x="92.4" y="54.5" class="st0" width="5.4" height="5.4"/>
	<rect x="92.4" y="54.5" class="st1" width="0" height="0"/>
	<polygon class="st0" points="103.3,76.2 103.3,108.8 97.8,108.8 97.8,81.6 92.4,81.6 92.4,108.8 87,108.8 87,76.2 	"/>
	<rect x="92.4" y="59.9" class="st2" width="0" height="0"/>
	<polygon class="st2" points="92.4,54.5 92.4,59.9 92.4,59.9 92.4,54.5 87,54.5 87,54.5 	"/>
	<rect x="87" y="49.1" class="st0" width="5.4" height="5.4"/>
	<rect x="87" y="49" class="st1" width="0" height="0"/>
	<polygon class="st2" points="87,49 87,54.5 87,54.5 87,49.1 81.5,49.1 81.5,49 	"/>
	<rect x="81.5" y="43.6" class="st0" width="5.4" height="5.4"/>
	<rect x="81.5" y="43.6" class="st1" width="0" height="0"/>
	<rect x="81.5" y="49" class="st2" width="0" height="0"/>
	<polygon class="st2" points="81.5,43.6 81.5,49 81.5,49 81.5,43.6 76.1,43.6 76.1,43.6 	"/>
	<rect x="76.1" y="38.2" class="st0" width="5.4" height="5.4"/>
	<rect x="76.1" y="38.2" class="st1" width="0" height="0"/>
	<rect x="65.2" y="108.8" class="st0" width="5.4" height="5.4"/>
	<rect x="76.1" y="43.6" class="st2" width="0" height="0"/>
	<polygon class="st2" points="76.1,38.2 76.1,43.6 76.1,43.6 76.1,38.2 70.7,38.2 70.7,38.2 	"/>
	<rect x="70.7" y="32.8" class="st0" width="5.4" height="5.4"/>
	<rect x="70.7" y="32.7" class="st1" width="0" height="0"/>
	<rect x="65.2" y="81.6" class="st2" width="5.4" height="27.2"/>
	<rect x="70.7" y="38.2" class="st2" width="0" height="0"/>
	<polygon class="st2" points="70.7,32.7 70.7,38.2 70.7,38.2 70.7,32.8 65.2,32.8 65.2,32.7 	"/>
	<rect x="65.2" y="27.3" class="st0" width="5.4" height="5.4"/>
	<polygon class="st0" points="76.1,76.2 76.1,108.8 70.7,108.8 70.7,81.6 65.2,81.6 65.2,108.8 59.8,108.8 59.8,76.2 	"/>
	<rect x="59.8" y="38.2" class="st2" width="5.4" height="0"/>
	<rect x="59.8" y="32.8" class="st0" width="5.4" height="5.4"/>
	<rect x="54.3" y="49" class="st2" width="0" height="0"/>
	<rect x="54.3" y="49" class="st2" width="0" height="0"/>
	<polygon class="st2" points="59.8,43.6 59.8,43.6 54.3,43.6 	"/>
	<rect x="54.3" y="38.2" class="st0" width="5.4" height="5.4"/>
	<rect x="48.9" y="49" class="st2" width="5.4" height="0"/>
	<rect x="48.9" y="43.6" class="st0" width="5.4" height="5.4"/>
	<rect x="43.5" y="108.8" class="st1" width="0" height="5.4"/>
	<rect x="38" y="108.8" class="st0" width="5.4" height="5.4"/>
	<rect x="43.5" y="54.5" class="st2" width="5.4" height="0"/>
	<rect x="43.5" y="49.1" class="st0" width="5.4" height="5.4"/>
	<rect x="38" y="81.6" class="st2" width="5.4" height="27.2"/>
	<polygon class="st2" points="97.8,59.9 97.8,65.4 43.5,65.4 43.5,65.3 38,65.4 38,59.9 43.5,59.9 43.5,59.9 43.5,59.9 43.5,54.5 
		48.9,54.5 48.9,49.1 54.4,49.1 54.4,49 54.3,49 54.3,43.6 59.8,43.6 59.8,43.6 59.8,43.6 59.8,38.2 65.2,38.2 65.2,38.2 65.2,38.2 
		65.2,32.8 70.7,32.8 70.7,38.2 76.1,38.2 76.1,43.6 81.5,43.6 81.5,49.1 87,49.1 87,54.5 92.4,54.5 92.4,59.9 	"/>
	<polygon class="st2" points="43.5,59.9 43.5,59.9 38,59.9 	"/>
	<rect x="38" y="54.5" class="st0" width="5.4" height="5.4"/>
	<polygon class="st0" points="48.9,76.2 48.9,108.8 43.5,108.8 43.5,81.6 38,81.6 38,108.8 32.6,108.8 32.6,76.2 	"/>
	<rect x="32.6" y="59.9" class="st0" width="5.4" height="5.4"/>
	<rect x="16.3" y="43.6" class="st0" width="5.4" height="10.9"/>
	<rect x="16.3" y="43.6" class="st0" width="5.4" height="0"/>
	<rect x="16.3" y="38.2" class="st3" width="5.4" height="5.4"/>
	<rect x="65.2" y="5.6" class="st0" width="5.4" height="10.9"/>
	<rect x="65.2" y="0.2" class="st3" width="5.4" height="5.4"/>
	<rect x="108.7" y="49.1" class="st0" width="5.4" height="10.9"/>
	<rect x="108.7" y="43.6" class="st3" width="5.4" height="5.4"/>
	<rect x="10.9" y="108.8" class="st0" width="5.4" height="5.4"/>
	<polygon class="st2" points="16.3,81.6 16.3,108.8 10.9,108.8 10.9,114.3 5.5,114.3 5.5,65.4 10.9,65.4 10.9,81.6 	"/>
	<polygon class="st0" points="16.3,65.4 16.3,76.2 21.8,76.2 21.8,108.8 16.3,108.8 16.3,81.6 10.9,81.6 10.9,65.4 5.5,65.4 
		5.5,59.9 21.8,59.9 21.8,65.4 	"/>
</g>
</svg>
