<?xml version="1.0" encoding="utf-8"?>
<!-- Generator: Adobe Illustrator 24.0.1, SVG Export Plug-In . SVG Version: 6.00 Build 0)  -->
<svg version="1.1" id="Слой_1" xmlns="http://www.w3.org/2000/svg" xmlns:xlink="http://www.w3.org/1999/xlink" x="0px" y="0px"
	 viewBox="0 0 144 138" style="enable-background:new 0 0 144 138;" xml:space="preserve">
<style type="text/css">
	.st0{fill:none;stroke:#FFFFFF;stroke-miterlimit:10;}
</style>
<path class="st0" d="M75.8,17.3c-28.7-6.1-35.2-18.5-49.5-16C10.7,4,4.4,17,3.5,19.2C-1,30,1.8,34.6,2.8,65.3
	c1.1,31.8-1.6,37.3,4,48.8c5.1,10.7,16,24,25.7,22.3c8.6-1.5,8-13.6,21.1-20.9c11.2-6.3,23.3-4.1,26.4-3.5c17.2,3.2,19.2,15,31,14.7
	c16.1-0.5,26.1-18.1,27.4-20.9c6.4-13.2,5-31.8,4.5-43c-0.5-9.5-3.5-15.8-8-24c-6.8-12.5-21-15.3-23.9-16.5c-4.8-2,2.3-1.4-17.6-5
	C87.1,16.2,78.2,17.8,75.8,17.3z"/>
</svg>
