<svg xmlns="http://www.w3.org/2000/svg" viewBox="0 0 137.26 78.44"><defs><style>.cls-1{fill:#fff;}</style></defs><g id="Слой_2" data-name="Слой 2"><g id="Слой_1-2" data-name="Слой 1"><polygon class="cls-1" points="127.45 39.22 127.45 29.42 117.65 29.42 117.65 19.61 107.85 19.61 107.85 9.81 98.04 9.81 88.24 9.81 88.24 0 78.43 0 68.63 0 58.83 0 49.02 0 49.02 9.81 39.22 9.81 29.41 9.81 29.41 19.61 19.61 19.61 19.61 29.42 9.81 29.42 9.81 39.22 0 39.22 0 49.02 9.81 49.02 9.81 58.83 19.61 58.83 29.41 58.83 29.41 68.63 39.22 68.63 49.02 68.63 49.02 78.44 58.83 78.44 68.63 78.44 78.43 78.44 88.24 78.44 88.24 68.63 98.04 68.63 107.85 68.63 107.85 58.83 117.65 58.83 127.45 58.83 127.45 49.02 137.26 49.02 137.26 39.22 127.45 39.22"/></g></g></svg>