<svg width="221" height="165" viewBox="0 0 221 165" fill="none" xmlns="http://www.w3.org/2000/svg">
<path d="M169.062 39.3389C128.096 11.1047 127.793 2.59569 111.772 1.15377C97.8708 -0.100069 96.8106 6.19193 51.1892 24.5208C16.071 38.6322 5.34391 39.4643 1.80114 49.0277C-1.7548 58.6253 7.22724 62.7345 14.9713 90.6324C21.0756 112.62 16.6768 114.307 22.2149 120.839C35.8328 136.888 60.382 124.315 92.0167 140.786C113.372 151.905 113.385 163.469 126.918 163.583C144.078 163.731 146.732 145.157 176.964 132.237C196.917 123.705 204.964 127.866 213.182 119.129C224.429 107.172 220.926 87.1046 213.841 74.1045C206.715 61.0361 198.385 59.5486 169.062 39.3389Z" stroke="black" stroke-miterlimit="10"/>
</svg>
