<?xml version="1.0" encoding="utf-8"?>
<!-- Generator: Adobe Illustrator 24.0.1, SVG Export Plug-In . SVG Version: 6.00 Build 0)  -->
<svg version="1.1" id="Слой_1" xmlns="http://www.w3.org/2000/svg" xmlns:xlink="http://www.w3.org/1999/xlink" x="0px" y="0px"
	 viewBox="0 0 221 165" style="enable-background:new 0 0 221 165;" xml:space="preserve">
<style type="text/css">
	.st0{fill:none;stroke:#FFFFFF;stroke-miterlimit:10;}
</style>
<path class="st0" d="M169.1,39.3c-41-28.2-41.3-36.7-57.3-38.2c-13.9-1.3-15,5-60.6,23.4C16.1,38.6,5.3,39.5,1.8,49
	C-1.8,58.6,7.2,62.7,15,90.6c6.1,22,1.7,23.7,7.2,30.2c13.6,16,38.2,3.5,69.8,19.9c21.4,11.1,21.4,22.7,34.9,22.8
	c17.2,0.1,19.8-18.4,50-31.3c20-8.5,28-4.4,36.2-13.1c11.2-12,7.7-32,0.7-45C206.7,61,198.4,59.5,169.1,39.3z"/>
</svg>
