<?xml version="1.0" encoding="utf-8"?>
<!-- Generator: Adobe Illustrator 24.1.1, SVG Export Plug-In . SVG Version: 6.00 Build 0)  -->
<svg version="1.1" id="Слой_1" xmlns="http://www.w3.org/2000/svg" xmlns:xlink="http://www.w3.org/1999/xlink" x="0px" y="0px"
	 viewBox="0 0 183.9 151.8" style="enable-background:new 0 0 183.9 151.8;" xml:space="preserve">
<style type="text/css">
	.st0{fill:#757575;}
	.st1{fill:#FFFFFF;}
</style>
<g id="Слой_2_1_">
</g>
<rect x="16.9" y="30.7" transform="matrix(0.7123 -0.7018 0.7018 0.7123 -17.2744 22.0813)" class="st0" width="2.8" height="2.8"/>
<rect x="12.9" y="30.6" transform="matrix(0.7123 -0.7018 0.7018 0.7123 -18.3545 19.2271)" class="st0" width="2.8" height="2.8"/>
<path class="st0" d="M16.4,131.6l-2,2l2,2l2-2L16.4,131.6z"/>
<path class="st0" d="M16.4,135.6l-2,2l2,2l2-2L16.4,135.6z"/>
<path class="st0" d="M16.4,139.6l-2,2l2,2l2-2L16.4,139.6z"/>
<path class="st0" d="M16.4,143.6l-2,2l2,2l2-2L16.4,143.6z"/>
<path class="st0" d="M16.4,147.4l-2,2l2,2l2-2L16.4,147.4z"/>
<path class="st0" d="M16.4,127.6l-2,2l2,2l2-2L16.4,127.6z"/>
<path class="st0" d="M16.4,123.7l-2,2l2,2l2-2L16.4,123.7z"/>
<path class="st0" d="M16.4,119.7l-2,2l2,2l2-2L16.4,119.7z"/>
<path class="st0" d="M16.4,115.7l-2,2l2,2l2-2L16.4,115.7z"/>
<path class="st0" d="M16.4,111.7l-2,2l2,2l2-2L16.4,111.7z"/>
<path class="st0" d="M16.4,107.7l-2,2l2,2l2-2L16.4,107.7z"/>
<path class="st0" d="M16.4,103.7l-2,2l2,2l2-2L16.4,103.7z"/>
<path class="st0" d="M16.4,99.8l-2,2l2,2l2-2L16.4,99.8z"/>
<path class="st0" d="M16.4,95.8l-2,2l2,2l2-2L16.4,95.8z"/>
<polygon class="st1" points="16.3,0.2 22.3,6.3 20.3,8.2 26.3,14.3 24.3,16.2 32.2,24.3 30.3,26.3 32.3,28.3 30.3,30.3 28.3,28.3 
	26.3,30.2 24.3,28.2 22.3,30.2 20.3,28.1 16.3,32 12.3,28 10.3,30 8.4,27.9 6.4,29.9 4.4,27.9 2.4,29.8 0.4,27.8 2.4,25.9 0.4,23.8 
	2.4,21.9 6.4,25.9 6.4,25.9 2.4,21.9 8.3,16 6.4,14 12.3,8.1 10.3,6.1 "/>
<path class="st0" d="M16.4,91.8l-2,2l2,2l2-2L16.4,91.8z"/>
<path class="st0" d="M16.4,87.8l-2,2l2,2l2-2L16.4,87.8z"/>
<path class="st0" d="M16.4,83.8l-2,2l2,2l2-2L16.4,83.8z"/>
<path class="st0" d="M16.4,79.8l-2,2l2,2l2-2L16.4,79.8z"/>
<path class="st0" d="M16.4,75.9l-2,2l2,2l2-2L16.4,75.9z"/>
<path class="st0" d="M16.4,71.9l-2,2l2,2l2-2L16.4,71.9z"/>
<path class="st0" d="M16.4,67.9l-2,2l2,2l2-2L16.4,67.9z"/>
<path class="st0" d="M16.4,63.9l-2,2l2,2l2-2L16.4,63.9z"/>
<path class="st0" d="M16.3,59.9l-2,2l2,2l2-2L16.3,59.9z"/>
<path class="st0" d="M16.3,55.9l-2,2l2,2l2-2L16.3,55.9z"/>
<path class="st0" d="M16.3,52l-2,2l2,2l2-2L16.3,52z"/>
<path class="st0" d="M16.3,48l-2,2l2,2l2-2L16.3,48z"/>
<path class="st0" d="M16.3,44l-2,2l2,2l2-2L16.3,44z"/>
<path class="st0" d="M16.3,40l-2,2l2,2l2-2L16.3,40z"/>
<path class="st0" d="M16.3,36l-2,2l2,2l2-2L16.3,36z"/>
<path class="st0" d="M16.3,32l-2,2l2,2l2-2L16.3,32z"/>
<rect x="54.8" y="30.7" transform="matrix(0.7123 -0.7018 0.7018 0.7123 -6.3737 48.6768)" class="st0" width="2.8" height="2.8"/>
<rect x="50.8" y="30.6" transform="matrix(0.7123 -0.7018 0.7018 0.7123 -7.4538 45.8226)" class="st0" width="2.8" height="2.8"/>
<path class="st0" d="M54.3,131.6l-2,2l2,2l2-2L54.3,131.6z"/>
<path class="st0" d="M54.3,135.6l-2,2l2,2l2-2L54.3,135.6z"/>
<path class="st0" d="M54.3,139.6l-2,2l2,2l2-2L54.3,139.6z"/>
<path class="st0" d="M54.3,143.6l-2,2l2,2l2-2L54.3,143.6z"/>
<path class="st0" d="M54.3,147.4l-2,2l2,2l2-2L54.3,147.4z"/>
<path class="st0" d="M54.3,127.6l-2,2l2,2l2-2L54.3,127.6z"/>
<path class="st0" d="M54.3,123.7l-2,2l2,2l2-2L54.3,123.7z"/>
<path class="st0" d="M54.3,119.7l-2,2l2,2l2-2L54.3,119.7z"/>
<path class="st0" d="M54.3,115.7l-2,2l2,2l2-2L54.3,115.7z"/>
<path class="st0" d="M54.3,111.7l-2,2l2,2l2-2L54.3,111.7z"/>
<path class="st0" d="M54.3,107.7l-2,2l2,2l2-2L54.3,107.7z"/>
<path class="st0" d="M54.3,103.7l-2,2l2,2l2-2L54.3,103.7z"/>
<path class="st0" d="M54.3,99.8l-2,2l2,2l2-2L54.3,99.8z"/>
<path class="st0" d="M54.3,95.8l-2,2l2,2l2-2L54.3,95.8z"/>
<polygon class="st1" points="54.2,0.2 60.2,6.3 58.2,8.2 64.2,14.3 62.2,16.2 70.1,24.3 68.2,26.3 70.2,28.3 68.2,30.3 66.2,28.3 
	64.2,30.2 62.2,28.2 60.2,30.2 58.2,28.1 54.2,32 50.2,28 48.2,30 46.3,27.9 44.3,29.9 42.3,27.9 40.3,29.8 38.3,27.8 40.3,25.9 
	38.3,23.8 40.3,21.9 44.3,25.9 44.3,25.9 40.3,21.9 46.2,16 44.3,14 50.2,8.1 48.2,6.1 "/>
<path class="st0" d="M54.3,91.8l-2,2l2,2l2-2L54.3,91.8z"/>
<path class="st0" d="M54.3,87.8l-2,2l2,2l2-2L54.3,87.8z"/>
<path class="st0" d="M54.3,83.8l-2,2l2,2l2-2L54.3,83.8z"/>
<path class="st0" d="M54.3,79.8l-2,2l2,2l2-2L54.3,79.8z"/>
<path class="st0" d="M54.3,75.9l-2,2l2,2l2-2L54.3,75.9z"/>
<path class="st0" d="M54.3,71.9l-2,2l2,2l2-2L54.3,71.9z"/>
<path class="st0" d="M54.3,67.9l-2,2l2,2l2-2L54.3,67.9z"/>
<path class="st0" d="M54.3,63.9l-2,2l2,2l2-2L54.3,63.9z"/>
<path class="st0" d="M54.2,59.9l-2,2l2,2l2-2L54.2,59.9z"/>
<path class="st0" d="M54.2,55.9l-2,2l2,2l2-2L54.2,55.9z"/>
<path class="st0" d="M54.2,52l-2,2l2,2l2-2L54.2,52z"/>
<path class="st0" d="M54.2,48l-2,2l2,2l2-2L54.2,48z"/>
<path class="st0" d="M54.2,44l-2,2l2,2l2-2L54.2,44z"/>
<path class="st0" d="M54.2,40l-2,2l2,2l2-2L54.2,40z"/>
<path class="st0" d="M54.2,36l-2,2l2,2l2-2L54.2,36z"/>
<path class="st0" d="M54.2,32l-2,2l2,2l2-2L54.2,32z"/>
<rect x="92.7" y="30.7" transform="matrix(0.7123 -0.7018 0.7018 0.7123 4.527 75.2722)" class="st0" width="2.8" height="2.8"/>
<rect x="88.7" y="30.6" transform="matrix(0.7123 -0.7018 0.7018 0.7123 3.4469 72.4181)" class="st0" width="2.8" height="2.8"/>
<path class="st0" d="M92.2,131.6l-2,2l2,2l2-2L92.2,131.6z"/>
<path class="st0" d="M92.2,135.6l-2,2l2,2l2-2L92.2,135.6z"/>
<path class="st0" d="M92.2,139.6l-2,2l2,2l2-2L92.2,139.6z"/>
<path class="st0" d="M92.2,143.6l-2,2l2,2l2-2L92.2,143.6z"/>
<path class="st0" d="M92.2,147.4l-2,2l2,2l2-2L92.2,147.4z"/>
<path class="st0" d="M92.2,127.6l-2,2l2,2l2-2L92.2,127.6z"/>
<path class="st0" d="M92.2,123.7l-2,2l2,2l2-2L92.2,123.7z"/>
<path class="st0" d="M92.2,119.7l-2,2l2,2l2-2L92.2,119.7z"/>
<path class="st0" d="M92.2,115.7l-2,2l2,2l2-2L92.2,115.7z"/>
<path class="st0" d="M92.2,111.7l-2,2l2,2l2-2L92.2,111.7z"/>
<path class="st0" d="M92.2,107.7l-2,2l2,2l2-2L92.2,107.7z"/>
<path class="st0" d="M92.2,103.7l-2,2l2,2l2-2L92.2,103.7z"/>
<path class="st0" d="M92.2,99.8l-2,2l2,2l2-2L92.2,99.8z"/>
<path class="st0" d="M92.2,95.8l-2,2l2,2l2-2L92.2,95.8z"/>
<polygon class="st1" points="92.1,0.2 98.1,6.3 96.1,8.2 102.1,14.3 100.1,16.2 108,24.3 106.1,26.3 108.1,28.3 106.1,30.3 
	104.1,28.3 102.1,30.2 100.1,28.2 98.1,30.2 96.1,28.1 92.1,32 88.1,28 86.1,30 84.2,27.9 82.2,29.9 80.2,27.9 78.2,29.8 76.2,27.8 
	78.2,25.9 76.2,23.8 78.2,21.9 82.2,25.9 82.2,25.9 78.2,21.9 84.1,16 82.2,14 88.1,8.1 86.1,6.1 "/>
<path class="st0" d="M92.2,91.8l-2,2l2,2l2-2L92.2,91.8z"/>
<path class="st0" d="M92.2,87.8l-2,2l2,2l2-2L92.2,87.8z"/>
<path class="st0" d="M92.2,83.8l-2,2l2,2l2-2L92.2,83.8z"/>
<path class="st0" d="M92.2,79.8l-2,2l2,2l2-2L92.2,79.8z"/>
<path class="st0" d="M92.2,75.9l-2,2l2,2l2-2L92.2,75.9z"/>
<path class="st0" d="M92.2,71.9l-2,2l2,2l2-2L92.2,71.9z"/>
<path class="st0" d="M92.2,67.9l-2,2l2,2l2-2L92.2,67.9z"/>
<path class="st0" d="M92.2,63.9l-2,2l2,2l2-2L92.2,63.9z"/>
<path class="st0" d="M92.1,59.9l-2,2l2,2l2-2L92.1,59.9z"/>
<path class="st0" d="M92.1,55.9l-2,2l2,2l2-2L92.1,55.9z"/>
<path class="st0" d="M92.1,52l-2,2l2,2l2-2L92.1,52z"/>
<path class="st0" d="M92.1,48l-2,2l2,2l2-2L92.1,48z"/>
<path class="st0" d="M92.1,44l-2,2l2,2l2-2L92.1,44z"/>
<path class="st0" d="M92.1,40l-2,2l2,2l2-2L92.1,40z"/>
<path class="st0" d="M92.1,36l-2,2l2,2l2-2L92.1,36z"/>
<path class="st0" d="M92.1,32l-2,2l2,2l2-2L92.1,32z"/>
<rect x="130.6" y="30.7" transform="matrix(0.7123 -0.7018 0.7018 0.7123 15.4278 101.8677)" class="st0" width="2.8" height="2.8"/>
<rect x="126.6" y="30.6" transform="matrix(0.7123 -0.7018 0.7018 0.7123 14.3476 99.0136)" class="st0" width="2.8" height="2.8"/>
<path class="st0" d="M130.1,131.6l-2,2l2,2l2-2L130.1,131.6z"/>
<path class="st0" d="M130.1,135.6l-2,2l2,2l2-2L130.1,135.6z"/>
<path class="st0" d="M130.1,139.6l-2,2l2,2l2-2L130.1,139.6z"/>
<path class="st0" d="M130.1,143.6l-2,2l2,2l2-2L130.1,143.6z"/>
<path class="st0" d="M130.1,147.4l-2,2l2,2l2-2L130.1,147.4z"/>
<path class="st0" d="M130.1,127.6l-2,2l2,2l2-2L130.1,127.6z"/>
<path class="st0" d="M130.1,123.7l-2,2l2,2l2-2L130.1,123.7z"/>
<path class="st0" d="M130.1,119.7l-2,2l2,2l2-2L130.1,119.7z"/>
<path class="st0" d="M130.1,115.7l-2,2l2,2l2-2L130.1,115.7z"/>
<path class="st0" d="M130.1,111.7l-2,2l2,2l2-2L130.1,111.7z"/>
<path class="st0" d="M130.1,107.7l-2,2l2,2l2-2L130.1,107.7z"/>
<path class="st0" d="M130.1,103.7l-2,2l2,2l2-2L130.1,103.7z"/>
<path class="st0" d="M130.1,99.8l-2,2l2,2l2-2L130.1,99.8z"/>
<path class="st0" d="M130.1,95.8l-2,2l2,2l2-2L130.1,95.8z"/>
<polygon class="st1" points="130,0.2 136,6.3 134,8.2 140,14.3 138,16.2 145.9,24.3 144,26.3 146,28.3 144,30.3 142,28.3 140,30.2 
	138,28.2 136,30.2 134,28.1 130,32 126,28 124,30 122.1,27.9 120.1,29.9 118.1,27.9 116.1,29.8 114.1,27.8 116.1,25.9 114.1,23.8 
	116.1,21.9 120.1,25.9 120.1,25.9 116.1,21.9 122,16 120.1,14 126,8.1 124,6.1 "/>
<path class="st0" d="M130.1,91.8l-2,2l2,2l2-2L130.1,91.8z"/>
<path class="st0" d="M130.1,87.8l-2,2l2,2l2-2L130.1,87.8z"/>
<path class="st0" d="M130.1,83.8l-2,2l2,2l2-2L130.1,83.8z"/>
<path class="st0" d="M130.1,79.8l-2,2l2,2l2-2L130.1,79.8z"/>
<path class="st0" d="M130.1,75.9l-2,2l2,2l2-2L130.1,75.9z"/>
<path class="st0" d="M130.1,71.9l-2,2l2,2l2-2L130.1,71.9z"/>
<path class="st0" d="M130.1,67.9l-2,2l2,2l2-2L130.1,67.9z"/>
<path class="st0" d="M130.1,63.9l-2,2l2,2l2-2L130.1,63.9z"/>
<path class="st0" d="M130,59.9l-2,2l2,2l2-2L130,59.9z"/>
<path class="st0" d="M130,55.9l-2,2l2,2l2-2L130,55.9z"/>
<path class="st0" d="M130,52l-2,2l2,2l2-2L130,52z"/>
<path class="st0" d="M130,48l-2,2l2,2l2-2L130,48z"/>
<path class="st0" d="M130,44l-2,2l2,2l2-2L130,44z"/>
<path class="st0" d="M130,40l-2,2l2,2l2-2L130,40z"/>
<path class="st0" d="M130,36l-2,2l2,2l2-2L130,36z"/>
<path class="st0" d="M130,32l-2,2l2,2l2-2L130,32z"/>
<rect x="168.5" y="30.7" transform="matrix(0.7123 -0.7018 0.7018 0.7123 26.3285 128.4632)" class="st0" width="2.8" height="2.8"/>
<rect x="164.5" y="30.6" transform="matrix(0.7123 -0.7018 0.7018 0.7123 25.2484 125.6091)" class="st0" width="2.8" height="2.8"/>
<path class="st0" d="M168,131.6l-2,2l2,2l2-2L168,131.6z"/>
<path class="st0" d="M168,135.6l-2,2l2,2l2-2L168,135.6z"/>
<path class="st0" d="M168,139.6l-2,2l2,2l2-2L168,139.6z"/>
<path class="st0" d="M168,143.6l-2,2l2,2l2-2L168,143.6z"/>
<path class="st0" d="M168,147.4l-2,2l2,2l2-2L168,147.4z"/>
<path class="st0" d="M168,127.6l-2,2l2,2l2-2L168,127.6z"/>
<path class="st0" d="M168,123.7l-2,2l2,2l2-2L168,123.7z"/>
<path class="st0" d="M168,119.7l-2,2l2,2l2-2L168,119.7z"/>
<path class="st0" d="M168,115.7l-2,2l2,2l2-2L168,115.7z"/>
<path class="st0" d="M168,111.7l-2,2l2,2l2-2L168,111.7z"/>
<path class="st0" d="M168,107.7l-2,2l2,2l2-2L168,107.7z"/>
<path class="st0" d="M168,103.7l-2,2l2,2l2-2L168,103.7z"/>
<path class="st0" d="M168,99.8l-2,2l2,2l2-2L168,99.8z"/>
<path class="st0" d="M168,95.8l-2,2l2,2l2-2L168,95.8z"/>
<polygon class="st1" points="167.9,0.2 173.9,6.3 171.9,8.2 177.9,14.3 175.9,16.2 183.8,24.3 181.9,26.3 183.9,28.3 181.9,30.3 
	179.9,28.3 177.9,30.2 175.9,28.2 173.9,30.2 171.9,28.1 167.9,32 163.9,28 161.9,30 160,27.9 158,29.9 156,27.9 154,29.8 152,27.8 
	154,25.9 152,23.8 154,21.9 158,25.9 158,25.9 154,21.9 159.9,16 158,14 163.9,8.1 161.9,6.1 "/>
<path class="st0" d="M168,91.8l-2,2l2,2l2-2L168,91.8z"/>
<path class="st0" d="M168,87.8l-2,2l2,2l2-2L168,87.8z"/>
<path class="st0" d="M168,83.8l-2,2l2,2l2-2L168,83.8z"/>
<path class="st0" d="M168,79.8l-2,2l2,2l2-2L168,79.8z"/>
<path class="st0" d="M168,75.9l-2,2l2,2l2-2L168,75.9z"/>
<path class="st0" d="M168,71.9l-2,2l2,2l2-2L168,71.9z"/>
<path class="st0" d="M168,67.9l-2,2l2,2l2-2L168,67.9z"/>
<path class="st0" d="M168,63.9l-2,2l2,2l2-2L168,63.9z"/>
<path class="st0" d="M167.9,59.9l-2,2l2,2l2-2L167.9,59.9z"/>
<path class="st0" d="M167.9,55.9l-2,2l2,2l2-2L167.9,55.9z"/>
<path class="st0" d="M167.9,52l-2,2l2,2l2-2L167.9,52z"/>
<path class="st0" d="M167.9,48l-2,2l2,2l2-2L167.9,48z"/>
<path class="st0" d="M167.9,44l-2,2l2,2l2-2L167.9,44z"/>
<path class="st0" d="M167.9,40l-2,2l2,2l2-2L167.9,40z"/>
<path class="st0" d="M167.9,36l-2,2l2,2l2-2L167.9,36z"/>
<path class="st0" d="M167.9,32l-2,2l2,2l2-2L167.9,32z"/>
</svg>
