<?xml version="1.0" encoding="utf-8"?>
<!-- Generator: Adobe Illustrator 24.1.1, SVG Export Plug-In . SVG Version: 6.00 Build 0)  -->
<svg version="1.1" id="Слой_1" xmlns="http://www.w3.org/2000/svg" xmlns:xlink="http://www.w3.org/1999/xlink" x="0px" y="0px"
	 viewBox="0 0 32.3 151.8" style="enable-background:new 0 0 32.3 151.8;" xml:space="preserve">
<style type="text/css">
	.st0{fill:#FFFFFF;}
</style>
<g id="Слой_2_1_">
</g>
<rect x="16.9" y="30.7" transform="matrix(0.7123 -0.7018 0.7018 0.7123 -17.2744 22.0813)" class="st0" width="2.8" height="2.8"/>
<rect x="12.9" y="30.6" transform="matrix(0.7123 -0.7018 0.7018 0.7123 -18.3545 19.2271)" class="st0" width="2.8" height="2.8"/>
<path class="st0" d="M16.4,131.6l-2,2l2,2l2-2L16.4,131.6z"/>
<path class="st0" d="M16.4,135.6l-2,2l2,2l2-2L16.4,135.6z"/>
<path class="st0" d="M16.4,139.6l-2,2l2,2l2-2L16.4,139.6z"/>
<path class="st0" d="M16.4,143.6l-2,2l2,2l2-2L16.4,143.6z"/>
<path class="st0" d="M16.4,147.4l-2,2l2,2l2-2L16.4,147.4z"/>
<path class="st0" d="M16.4,127.6l-2,2l2,2l2-2L16.4,127.6z"/>
<path class="st0" d="M16.4,123.7l-2,2l2,2l2-2L16.4,123.7z"/>
<path class="st0" d="M16.4,119.7l-2,2l2,2l2-2L16.4,119.7z"/>
<path class="st0" d="M16.4,115.7l-2,2l2,2l2-2L16.4,115.7z"/>
<path class="st0" d="M16.4,111.7l-2,2l2,2l2-2L16.4,111.7z"/>
<path class="st0" d="M16.4,107.7l-2,2l2,2l2-2L16.4,107.7z"/>
<path class="st0" d="M16.4,103.7l-2,2l2,2l2-2L16.4,103.7z"/>
<path class="st0" d="M16.4,99.8l-2,2l2,2l2-2L16.4,99.8z"/>
<path class="st0" d="M16.4,95.8l-2,2l2,2l2-2L16.4,95.8z"/>
<polygon class="st0" points="16.3,0.2 22.3,6.3 20.3,8.2 26.3,14.3 24.3,16.2 32.2,24.3 30.3,26.3 32.3,28.3 30.3,30.3 28.3,28.3 
	26.3,30.2 24.3,28.2 22.3,30.2 20.3,28.1 16.3,32 12.3,28 10.3,30 8.4,27.9 6.4,29.9 4.4,27.9 2.4,29.8 0.4,27.8 2.4,25.9 0.4,23.8 
	2.4,21.9 6.4,25.9 6.4,25.9 2.4,21.9 8.3,16 6.4,14 12.3,8.1 10.3,6.1 "/>
<path class="st0" d="M16.4,91.8l-2,2l2,2l2-2L16.4,91.8z"/>
<path class="st0" d="M16.4,87.8l-2,2l2,2l2-2L16.4,87.8z"/>
<path class="st0" d="M16.4,83.8l-2,2l2,2l2-2L16.4,83.8z"/>
<path class="st0" d="M16.4,79.8l-2,2l2,2l2-2L16.4,79.8z"/>
<path class="st0" d="M16.4,75.9l-2,2l2,2l2-2L16.4,75.9z"/>
<path class="st0" d="M16.4,71.9l-2,2l2,2l2-2L16.4,71.9z"/>
<path class="st0" d="M16.4,67.9l-2,2l2,2l2-2L16.4,67.9z"/>
<path class="st0" d="M16.4,63.9l-2,2l2,2l2-2L16.4,63.9z"/>
<path class="st0" d="M16.3,59.9l-2,2l2,2l2-2L16.3,59.9z"/>
<path class="st0" d="M16.3,55.9l-2,2l2,2l2-2L16.3,55.9z"/>
<path class="st0" d="M16.3,52l-2,2l2,2l2-2L16.3,52z"/>
<path class="st0" d="M16.3,48l-2,2l2,2l2-2L16.3,48z"/>
<path class="st0" d="M16.3,44l-2,2l2,2l2-2L16.3,44z"/>
<path class="st0" d="M16.3,40l-2,2l2,2l2-2L16.3,40z"/>
<path class="st0" d="M16.3,36l-2,2l2,2l2-2L16.3,36z"/>
<path class="st0" d="M16.3,32l-2,2l2,2l2-2L16.3,32z"/>
</svg>
