<svg width="221" height="165" viewBox="0 0 221 165" fill="none" xmlns="http://www.w3.org/2000/svg">
<mask id="mask0" mask-type="alpha" maskUnits="userSpaceOnUse" x="0" y="0" width="221" height="165">
<path d="M169.062 39.3389C128.096 11.1047 127.793 2.59569 111.772 1.15377C97.8708 -0.100069 96.8106 6.19193 51.1892 24.5208C16.071 38.6322 5.34391 39.4643 1.80114 49.0277C-1.7548 58.6253 7.22724 62.7345 14.9713 90.6324C21.0756 112.62 16.6768 114.307 22.2149 120.839C35.8328 136.888 60.382 124.315 92.0167 140.786C113.372 151.905 113.385 163.469 126.918 163.583C144.078 163.731 146.732 145.157 176.964 132.237C196.917 123.705 204.964 127.866 213.182 119.129C224.429 107.172 220.926 87.1046 213.841 74.1045C206.715 61.0361 198.385 59.5486 169.062 39.3389Z" fill="black" stroke="black" stroke-miterlimit="10"/>
</mask>
<g mask="url(#mask0)">
<path d="M-74 82.2715L84.1503 271.35M18.0464 5.28146L176.197 194.36M-27.9768 43.7765L130.174 232.855M64.0696 -33.2135L222.22 155.865M151.514 -106.354L309.664 82.7245M-50.9884 63.024L107.162 252.103M41.058 -13.966L199.208 175.113M128.502 -87.1066L286.652 101.972M-4.96521 24.529L153.185 213.608M87.0812 -52.4611L245.232 136.618M174.525 -125.602L332.676 63.477M-64.7954 74.5725L93.355 263.651M27.251 -2.41754L185.401 186.661M114.695 -75.5581L272.845 113.521M-18.7722 36.0775L139.378 225.156M73.2742 -40.9125L231.425 148.166M160.718 -114.053L318.869 75.0255M-41.7838 55.325L116.367 244.404M50.2626 -21.665L208.413 167.414M137.707 -94.8056L295.857 94.273M4.23943 16.83L162.39 205.909M96.2858 -60.1601L254.436 128.919M183.73 -133.301L341.88 55.778M-69.3977 78.422L88.7527 267.501M22.6487 1.43196L180.799 190.511M110.093 -71.7086L268.243 117.37M-23.3745 39.927L134.776 229.006M68.6719 -37.063L226.822 152.016M156.116 -110.204L314.266 78.875M-46.3861 59.1745L111.764 248.253M45.6603 -17.8155L203.811 171.263M133.104 -90.9561L291.255 98.1225M-0.362894 20.6795L157.787 209.758M91.6835 -56.3106L249.834 132.768M179.128 -129.451L337.278 59.6275M-60.193 70.723L97.9573 259.802M31.8533 -6.26704L190.004 182.812M119.297 -79.4076L277.448 109.671M-14.1699 32.228L143.98 221.307M77.8765 -44.762L236.027 144.317M165.321 -117.903L323.471 71.176M-37.1814 51.4755L120.969 240.554M54.8649 -25.5145L213.015 163.564M142.309 -98.6551L300.459 90.4235M8.84174 12.9805L166.992 202.059M100.888 -64.0096L259.038 125.069M188.332 -137.15L346.483 51.9285M-55.5907 66.8735L102.56 255.952M36.4557 -10.1165L194.606 178.962M123.9 -83.2571L282.05 105.822M-9.56753 28.3785L148.583 217.457M82.4789 -48.6116L240.629 140.467M169.923 -121.752L328.073 67.3265M-32.5791 47.626L125.571 236.705M59.4673 -29.364L217.618 159.715M146.911 -102.505L305.062 86.574M13.4441 9.13097L171.594 198.21M105.49 -67.8591L263.641 121.22M192.935 -141L351.085 48.079" stroke="black"/>
</g>
</svg>
