<svg width="52" height="52" viewBox="0 0 52 52" fill="none" xmlns="http://www.w3.org/2000/svg">
<path d="M51.9999 24.9863H49.9696H49.9165H47.8862H47.8331H45.8049V25.0373H45.7518V24.9863H43.7215V25.0373H43.696V27.0676H51.9723V27.0145H51.9999V24.9863Z" fill="#FFCD00"/>
<path d="M47.8334 45.8066H45.8052V47.8348H47.8334V45.8066Z" fill="#FFCD00"/>
<path d="M47.8334 4.16406H45.8052V6.19224H47.8334V4.16406Z" fill="#FFCD00"/>
<path d="M45.752 43.7227H43.7217V45.753H45.752V43.7227Z" fill="#FFCD00"/>
<path d="M45.752 6.24609H43.7217V8.2764H45.752V6.24609Z" fill="#FFCD00"/>
<path d="M43.6684 41.6426H41.6423V43.6708H43.6684V41.6426Z" fill="#FFCD00"/>
<path d="M43.6684 8.32812H41.6423V10.3563H43.6684V8.32812Z" fill="#FFCD00"/>
<path d="M41.5894 39.5605H39.5591V41.5887H41.5894V39.5605Z" fill="#FFCD00"/>
<path d="M41.5894 10.4102H39.5591V12.4383H41.5894V10.4102Z" fill="#FFCD00"/>
<path d="M12.4367 39.5605H10.4106V41.5887H12.4367V39.5605Z" fill="#FFCD00"/>
<path d="M12.4367 10.4102H10.4106V12.4383H12.4367V10.4102Z" fill="#FFCD00"/>
<path d="M10.3577 41.6426H8.32739V43.6708H10.3577V41.6426Z" fill="#FFCD00"/>
<path d="M10.3577 8.32812H8.32739V10.3563H10.3577V8.32812Z" fill="#FFCD00"/>
<path d="M8.27191 43.7227H6.24585V45.753H8.27191V43.7227Z" fill="#FFCD00"/>
<path d="M8.272 24.9863H6.24595V25.0373H6.19285V24.9863H4.16255V25.0373H4.10946V24.9863H2.07915V25.0373H2.02606V24.9863H0V27.0145H0.025485V27.0676H8.30174V25.0373H8.272V24.9863Z" fill="#FFCD00"/>
<path d="M8.27191 6.24609H6.24585V8.2764H8.27191V6.24609Z" fill="#FFCD00"/>
<path d="M6.1929 45.8066H4.1626V47.8348H6.1929V45.8066Z" fill="#FFCD00"/>
<path d="M6.1929 4.16406H4.1626V6.19224H6.1929V4.16406Z" fill="#FFCD00"/>
<path d="M39.4655 20.7673H39.5058V18.7391V18.686V16.6557H39.4655V16.5495H37.4224V14.5744H35.3943H35.3412V14.5213V12.491H33.3109H33.2578H31.2317H31.1829V10.3906H20.7765V12.491H20.768H18.7377H18.6846H16.6564V14.5213V14.5744H16.6033H14.573V16.5495H12.4939V16.6557H12.4896V20.7673H12.4939V20.797H10.3701V31.2034H12.4939V31.231H12.4896V33.2592H12.4939V33.3122H12.4896V35.3426H12.4939V35.4509H14.573V37.4238H16.6564V37.4769V39.5051V39.5072H18.6846V39.5051H18.7377V39.5072H20.768V39.5051H20.7765V41.6097H31.1829V39.5051H31.2317V39.5072H33.2578V39.5051H33.3109V39.5072H35.3412V39.5051V37.4769V37.4238H37.4224V35.4509H39.4655V35.3426H39.5058V33.3122H39.4655V33.2592H39.5058V31.231H39.4655V31.2034H41.5892V31.1779V29.1497V29.0966V27.0663V27.0132V24.985V24.9319V22.9016V22.8485V20.8204V20.797H39.4655V20.7673Z" fill="#FFCD00"/>
<path d="M27.0139 6.24595V6.19285V4.16467V4.11158V2.0834V2.0303V0H24.9836V2.0303V2.0834V4.11158V4.16467V6.19285V6.24595V8.27625H27.0139V6.24595Z" fill="#FFCD00"/>
<path d="M24.9836 43.7228V45.7531V45.8062V47.8343V47.8874V49.9177V49.9708V51.9714V51.999H27.0139V51.9714V49.9708V49.9177V47.8874V47.8343V45.8062V45.7531V43.7228V43.6973H24.9836V43.7228Z" fill="#FFCD00"/>
</svg>
