<?xml version="1.0" encoding="utf-8"?>
<!-- Generator: Adobe Illustrator 24.1.1, SVG Export Plug-In . SVG Version: 6.00 Build 0)  -->
<svg version="1.1" id="Слой_1" xmlns="http://www.w3.org/2000/svg" xmlns:xlink="http://www.w3.org/1999/xlink" x="0px" y="0px"
	 viewBox="0 0 364 52" style="enable-background:new 0 0 364 52;" xml:space="preserve">
<style type="text/css">
	.st0{fill:#FED737;}
	.st1{fill:#FFCD00;}
	.st2{fill:#FBEBAA;}
	.st3{fill:#FCE68F;}
	.st4{fill:#FDDE5F;}
	.st5{fill:#FAF1CD;}
</style>
<path class="st0" d="M151.8,25h-1h0h-1h0h-1V25h0V25h-1V25h0v2h4.1V27h0V25z"/>
<path class="st0" d="M147.7,41.6h-2v2h2V41.6z"/>
<path class="st0" d="M147.7,8.3h-2v2h2V8.3z"/>
<path class="st0" d="M145.6,39.6h-2v2h2V39.6z"/>
<path class="st0" d="M145.6,10.4h-2v2h2V10.4z"/>
<path class="st0" d="M116.4,39.6h-2v2h2V39.6z"/>
<path class="st0" d="M116.4,10.4h-2v2h2V10.4z"/>
<path class="st0" d="M114.4,41.6h-2v2h2V41.6z"/>
<path class="st0" d="M114.4,8.3h-2v2h2V8.3z"/>
<polygon class="st0" points="112.3,25 112.3,25 111.8,25 111.8,25 111.8,25 111.8,25 111.3,25 111.3,25 111.3,25 111.3,25 110.8,25 
	110.8,25 110.7,25 110.7,25 110.2,25 110.2,25 110.2,25 110.2,25 109.7,25 109.7,25 109.7,25 109.7,25 109.2,25 109.2,25 109.2,25 
	109.2,25 108.7,25 108.7,25 108.7,25 108.7,25 108.2,25 108.2,27 108.2,27 108.2,27.1 110.2,27.1 110.2,27 110.3,27 110.3,27.1 
	112.3,27.1 112.3,25 "/>
<path class="st0" d="M143.5,20.8L143.5,20.8l0-2v-0.1v-2h0v-0.1h-2v-2h-2h-0.1v-0.1v-2h-2h-0.1h-2h0v-2.1h-10.4v2.1h0h-2h-0.1h-2v2
	v0.1h-0.1h-2v2h-2.1v0.1h0v4.1h0v0h-2.1v10.4h2.1v0h0v2h0v0.1h0v2h0v0.1h2.1v2h2.1v0.1v2v0h2v0h0.1v0h2v0h0v2.1h10.4v-2.1h0v0h2v0
	h0.1v0h2v0v-2v-0.1h2.1v-2h2v-0.1h0v-2h0v-0.1h0v-2h0v0h2.1v0v-2v-0.1v-2V27v-2v-0.1v-2v-0.1v-2v0L143.5,20.8L143.5,20.8z"/>
<path class="st0" d="M131,7.4L131,7.4V6.5v0V5.6v0V4.7h-2v0.9v0v0.9v0v0.9v0v0.9h2V7.4z"/>
<polygon class="st0" points="129,43.7 129,43.7 129,44.2 129,44.2 129,44.7 129,44.8 129,45.3 129,45.3 129,45.8 129,45.8 129,45.8 
	129,45.8 129,46.3 129,46.3 129,46.8 129,46.8 129,47.3 129,47.4 129,47.9 129,47.9 131,47.9 131,47.9 131,47.4 131,47.3 131,46.8 
	131,46.8 131,46.3 131,46.3 131,45.8 131,45.8 131,45.8 131,45.8 131,45.3 131,45.3 131,44.8 131,44.7 131,44.2 131,44.2 131,43.7 
	131,43.7 "/>
<path class="st1" d="M97.8,43.7h-2v2h2V43.7z"/>
<path class="st1" d="M97.8,6.2h-2v2h2V6.2z"/>
<path class="st1" d="M95.7,41.6h-2v2h2V41.6z"/>
<path class="st1" d="M95.7,8.3h-2v2h2V8.3z"/>
<path class="st1" d="M93.6,39.6h-2v2h2V39.6z"/>
<polygon class="st1" points="99.8,25 97.8,25 95.7,25 95.7,27 97.8,27 99.8,27 101.8,27 101.8,25 "/>
<polygon class="st1" points="58.2,25 56.2,25 54.1,25 54.1,27 56.2,27 58.2,27 60.2,27 60.2,25 "/>
<polygon class="st1" points="79,47.7 79,45.7 79,43.7 77,43.7 77,45.7 77,47.7 77,49.8 79,49.8 "/>
<polygon class="st1" points="79,6.3 79,4.3 79,2.2 77,2.2 77,4.3 77,6.3 77,8.3 79,8.3 "/>
<path class="st1" d="M93.6,10.4h-2v2h2V10.4z"/>
<path class="st1" d="M64.4,39.6h-2v2h2V39.6z"/>
<path class="st1" d="M64.4,10.4h-2v2h2V10.4z"/>
<path class="st1" d="M62.4,41.6h-2v2h2V41.6z"/>
<path class="st1" d="M62.4,8.3h-2v2h2V8.3z"/>
<path class="st1" d="M60.3,43.7h-2v2h2V43.7z"/>
<path class="st1" d="M60.3,6.2h-2v2h2V6.2z"/>
<path class="st1" d="M91.5,20.8L91.5,20.8l0-2v-0.1v-2h0v-0.1h-2v-2h-2h-0.1v-0.1v-2h-2h-0.1h-2h0v-2.1H72.8v2.1h0h-2h-0.1h-2v2v0.1
	h-0.1h-2v2h-2.1v0.1h0v4.1h0v0h-2.1v10.4h2.1v0h0v2h0v0.1h0v2h0v0.1h2.1v2h2.1v0.1v2v0h2v0h0.1v0h2v0h0v2.1h10.4v-2.1h0v0h2v0h0.1v0
	h2v0v-2v-0.1h2.1v-2h2v-0.1h0v-2h0v-0.1h0v-2h0v0h2.1v0v-2v-0.1v-2V27v-2v-0.1v-2v-0.1v-2v0L91.5,20.8L91.5,20.8z"/>
<path class="st1" d="M52,25h-2h-0.1h-2h-0.1h-2V25h-0.1V25h-2V25h0v2H52V27h0V25z"/>
<path class="st1" d="M47.8,45.8h-2v2h2V45.8z"/>
<path class="st1" d="M47.8,4.2h-2v2h2V4.2z"/>
<path class="st1" d="M45.8,43.7h-2v2h2V43.7z"/>
<path class="st1" d="M45.8,6.2h-2v2h2V6.2z"/>
<path class="st1" d="M43.7,41.6h-2v2h2V41.6z"/>
<path class="st1" d="M43.7,8.3h-2v2h2V8.3z"/>
<path class="st1" d="M41.6,39.6h-2v2h2V39.6z"/>
<path class="st1" d="M41.6,10.4h-2v2h2V10.4z"/>
<path class="st1" d="M12.4,39.6h-2v2h2V39.6z"/>
<path class="st1" d="M12.4,10.4h-2v2h2V10.4z"/>
<path class="st1" d="M10.4,41.6h-2v2h2V41.6z"/>
<path class="st1" d="M10.4,8.3h-2v2h2V8.3z"/>
<path class="st1" d="M8.3,43.7h-2v2h2V43.7z"/>
<path class="st1" d="M8.3,25h-2V25H6.2V25h-2V25H4.1V25h-2V25H2V25H0v2h0v0.1h8.3L8.3,25L8.3,25L8.3,25z"/>
<path class="st1" d="M8.3,6.2h-2v2h2V6.2z"/>
<path class="st1" d="M6.2,45.8h-2v2h2V45.8z"/>
<path class="st1" d="M6.2,4.2h-2v2h2V4.2z"/>
<path class="st1" d="M39.5,20.8L39.5,20.8l0-2v-0.1v-2h0v-0.1h-2v-2h-2h-0.1v-0.1v-2h-2h-0.1h-2h0v-2.1H20.8v2.1h0h-2h-0.1h-2v2v0.1
	h-0.1h-2v2h-2.1v0.1h0v4.1h0v0h-2.1v10.4h2.1v0h0v2h0v0.1h0v2h0v0.1h2.1v2h2.1v0.1v2v0h2v0h0.1v0h2v0h0v2.1h10.4v-2.1h0v0h2v0h0.1v0
	h2v0v-2v-0.1h2.1v-2h2v-0.1h0v-2h0v-0.1h0v-2h0v0h2.1v0v-2v-0.1v-2V27v-2v-0.1v-2v-0.1v-2v0L39.5,20.8L39.5,20.8z"/>
<path class="st1" d="M27,6.2L27,6.2V4.2V4.1v-2V2V0h-2v2v0.1v2v0.1v2v0.1v2h2V6.2z"/>
<path class="st1" d="M25,43.7v2v0.1v2v0.1v2V50v2v0h2v0v-2v-0.1v-2v-0.1v-2v-0.1v-2v0L25,43.7L25,43.7z"/>
<g>
	<polygon class="st2" points="289.1,12.5 289.1,39.5 291.2,39.5 291.2,41.6 280.8,41.6 280.8,39.7 280.3,39.7 280.3,39.5 
		276.7,39.5 276.7,37.4 274.6,37.4 274.6,35.3 272.5,35.3 272.5,31.2 270.4,31.2 270.4,20.8 272.5,20.8 272.5,18.7 280.3,18.7 
		280.3,18.7 272.5,18.7 272.5,16.6 274.6,16.6 274.6,14.6 276.7,14.6 276.7,12.5 280.8,12.5 280.8,10.4 291.2,10.4 291.2,12.5 	"/>
</g>
<g>
	<polygon class="st3" points="245.4,20.8 245.4,31.2 243.3,31.2 243.3,35.3 241.2,35.3 241.2,37.4 239.1,37.4 239.1,41.6 
		228.8,41.6 228.8,39.7 228.2,39.7 228.2,39.5 224.6,39.5 224.6,37.4 222.5,37.4 222.5,35.3 220.4,35.3 220.4,31.2 218.4,31.2 
		218.4,20.8 220.4,20.8 220.4,18.7 220.5,18.7 220.5,18.7 220.4,18.7 220.4,16.6 222.5,16.6 222.5,14.6 224.6,14.6 224.6,12.5 
		228.8,12.5 228.8,10.4 230.8,10.4 230.8,10.4 235,10.4 235,10.4 239.1,10.4 239.1,14.5 241.2,14.5 241.2,16.6 243.3,16.6 
		243.3,20.8 	"/>
</g>
<g>
	<polygon class="st4" points="201.2,25 201.2,25 200.7,25 200.7,25 200.2,25 200.2,25 200.2,25 200.2,25 199.7,25 199.7,25 
		199.7,25 199.7,27.1 201.7,27.1 201.7,27 201.8,27 201.8,25 	"/>
	<rect x="195.6" y="39.6" class="st4" width="2" height="2"/>
	<rect x="195.6" y="10.4" class="st4" width="2" height="2"/>
	<rect x="166.4" y="39.6" class="st4" width="2" height="2"/>
	<rect x="166.4" y="10.4" class="st4" width="2" height="2"/>
	<polygon class="st4" points="164.3,25 163.8,25 163.8,25 163.8,25 163.8,25 163.3,25 163.3,25 163.3,25 163.3,25 162.8,25 
		162.8,25 162.7,25 162.7,25 162.2,25 162.2,27 162.3,27 162.3,27.1 164.3,27.1 164.3,25 164.3,25 	"/>
	<polygon class="st4" points="183,7.8 183,7.8 183,7.2 183,7.2 183,6.7 183,6.7 183,6.2 181,6.2 181,6.7 181,6.7 181,7.2 181,7.2 
		181,7.8 181,7.8 181,8.3 183,8.3 	"/>
	<polygon class="st4" points="181,43.7 181,44.2 181,44.2 181,44.7 181,44.8 181,45.3 181,45.3 181,45.8 181,45.8 183,45.8 
		183,45.8 183,45.3 183,45.3 183,44.8 183,44.7 183,44.2 183,44.2 183,43.7 183,43.7 181,43.7 	"/>
	<polygon class="st4" points="195.5,20.8 195.5,31.2 193.5,31.2 193.5,35.3 191.4,35.3 191.4,37.4 189.3,37.4 189.3,39.5 
		187.2,39.5 187.2,41.6 176.8,41.6 176.8,39.7 176.3,39.7 176.3,39.5 172.7,39.5 172.7,37.4 170.6,37.4 170.6,35.3 168.5,35.3 
		168.5,31.2 166.4,31.2 166.4,20.8 168.5,20.8 168.5,18.7 168.5,18.7 168.5,18.7 168.5,18.7 168.5,16.6 170.6,16.6 170.6,14.6 
		172.7,14.6 172.7,12.5 176.8,12.5 176.8,10.4 181,10.4 181,10.4 185.2,10.4 185.2,10.4 187.2,10.4 187.2,12.5 189.3,12.5 
		189.3,14.5 191.4,14.5 191.4,16.6 193.5,16.6 193.5,20.8 	"/>
</g>
<polygon class="st5" points="334.9,18.7 334.9,18.7 337,18.7 337,16.6 339,16.6 339,14.6 341.1,14.6 341.1,12.5 343.2,12.5 
	343.2,10.4 332.8,10.4 332.8,12.5 328.7,12.5 328.7,14.6 326.6,14.6 326.6,16.6 324.5,16.6 324.5,17.8 324.5,18.7 324.5,18.7 
	324.5,20.8 322.4,20.8 322.4,31.2 324.5,31.2 324.5,35.3 326.6,35.3 326.6,37.4 328.7,37.4 328.7,39.5 332.8,39.5 332.8,41.6 
	343.2,41.6 343.2,39.5 341.1,39.5 341.1,37.4 339,37.4 339,35.3 337,35.3 337,33.3 334.9,33.3 334.9,21.2 "/>
</svg>
