<svg width="1680" height="1050" viewBox="0 0 1680 1050" fill="none" xmlns="http://www.w3.org/2000/svg">
<g clip-path="url(#clip0)">
<path d="M-50.1728 441.403C-30.543 424.67 -27.7227 432.465 30.8768 404.421C86.5374 377.779 107.617 359.441 118.516 368.834C128.116 377.109 125.224 402.941 117.198 419.074C108.902 435.758 96.9486 438.382 89.5224 459.546C85.2986 471.596 88.0068 474.06 83.5919 481.177C74.38 496.033 56.1405 495.649 40.7609 500.715C22.4951 506.73 25.625 515.138 -12.6132 552.351C-53.6915 592.327 -65.0516 592.006 -70.5999 590.729C-86.4276 587.094 -94.4008 566.691 -95.6396 563.516C-110.551 525.333 -85.202 471.261 -50.1728 441.403Z" stroke="black" stroke-miterlimit="10"/>
<path d="M-49.1843 459.197C-43.5635 453.189 -37.7319 446.958 -28.0982 441.752C-9.18007 431.537 0.783088 438.047 18.6865 427.099C31.997 418.963 35.5751 409.808 39.7725 411.747C45.5976 414.434 45.4262 435.193 38.4547 452.219C30.6133 471.366 20.6567 469.985 12.756 489.899C6.62129 505.362 11.3261 509.458 4.1898 521.998C0.0318967 529.303 -2.37323 529.331 -20.1909 545.722C-39.8537 563.816 -40.17 566.768 -48.5253 570.843C-52.3208 572.692 -72.2208 582.398 -82.1313 574.332C-99.7513 559.992 -81.1033 493.319 -49.1843 459.197Z" stroke="black" stroke-miterlimit="10"/>
<path d="M839.982 63.5524C831.324 45.9264 810.139 40.0091 794.515 35.641C782.812 32.3684 765.166 27.442 744.436 34.9432C721.94 43.0864 710.098 60.7055 706.876 65.6458C696.399 81.7158 694.916 97.9742 692.38 129.842C689.118 170.788 687.49 191.261 697.651 206.598C705.058 217.777 715.68 224.085 722.691 243.581C725.01 250.029 725.458 253.818 729.28 257.537C731.758 259.944 739.922 266.482 766.84 259.63C776.263 257.23 786.272 253.629 810.33 240.79C841.181 224.322 844.7 219.584 857.773 218.461C863.223 217.993 877.423 216.772 891.379 224.741C904.631 232.305 905.889 241.439 916.419 243.581C928.524 246.044 939.666 236.589 945.412 231.719C961.701 217.903 967.19 199.335 972.429 180.78C977.384 163.224 982.28 145.884 978.359 123.562C976.251 111.56 972.238 88.6797 954.637 76.1126C936.78 63.3571 912.992 66.9576 898.628 69.1347C875.545 72.6306 870.952 74.0192 870.952 74.0192C860.725 77.1174 855.039 80.383 849.207 77.5081C843.777 74.8286 842.657 68.9952 839.982 63.5524Z" stroke="black" stroke-miterlimit="10"/>
<path d="M857.773 232.417C852.976 229.032 847.019 237.692 827.462 246.372C809.98 254.125 801.348 253.148 789.903 263.817C784.493 268.855 781.91 273.279 781.336 274.284C775.781 284.004 776.493 292.14 775.406 302.893C772.876 327.881 764.527 328.278 766.181 342.667C767.868 357.292 778.49 374.186 789.903 374.067C800.966 373.956 809.809 357.879 812.965 347.551C816.741 335.18 812.735 329.855 817.578 310.569C819.713 302.063 820.78 297.813 824.167 293.124C831.034 283.613 837.465 285.755 847.23 275.679C855.803 266.831 858.445 257.328 859.091 254.746C859.533 253.001 863.651 236.569 857.773 232.417Z" stroke="black" stroke-miterlimit="10"/>
<path d="M861.727 266.606C857.384 266.536 858.057 280.603 845.253 291.028C839.191 295.969 835.765 295.48 830.757 301.495C824.833 308.619 823.324 316.874 822.849 319.637C820.642 332.539 826.315 335.568 823.508 345.456C820.543 355.908 812.88 357.206 813.624 363.598C814.441 370.59 824.642 377.805 832.734 376.158C841.254 374.421 841.148 364.142 854.479 356.62C858.485 354.359 863.723 351.408 868.975 353.131C877.937 356.076 879.749 370.304 881.495 369.878C884.585 369.124 877.041 325.059 876.224 320.335C869.127 279.229 865.825 266.669 861.727 266.606Z" stroke="black" stroke-miterlimit="10"/>
<path d="M834.833 446.798C804.772 440.42 797.978 425.18 782.981 427.762C766.58 430.581 757.711 451.731 756.709 454.118C751.984 465.387 754.93 470.195 756.017 502.439C757.144 535.849 754.35 541.564 760.168 553.685C765.545 564.884 776.991 578.889 787.132 577.109C796.186 575.525 795.553 562.888 809.253 555.143C821.008 548.5 833.719 550.887 836.909 551.48C854.95 554.864 857.079 567.243 869.401 566.852C886.263 566.322 897.722 542.674 899.132 539.764C905.86 525.878 905.227 512.732 904.661 500.96C904.18 490.961 903.804 483.187 899.132 474.605C892.002 461.514 880.076 456.113 877.012 454.836C871.951 452.729 870.916 453.497 850.048 449.715C843.537 448.549 837.357 447.335 834.833 446.798Z" stroke="black" stroke-miterlimit="10"/>
<path d="M764.863 367.09C762.056 367.745 761.871 376.879 761.568 383.139C760.118 413.227 753.463 429.493 757.614 431.286C759.176 431.963 760.27 429.73 766.84 425.704C772.032 422.522 777.514 419.165 782.654 418.726C790.357 418.07 792.729 424.371 809.012 434.077C817.789 439.31 825.459 443.888 828.78 441.055C830.19 439.855 830.137 437.894 828.121 418.726C826.889 407.003 826.671 405.475 826.803 401.979C827.172 392.433 829.287 391.372 828.121 386.628C826.263 379.036 818.547 372.302 811.647 372.672C807.747 372.881 807.694 375.17 800.446 378.254C795.523 380.347 789.547 382.887 783.313 381.045C779.294 379.859 776.269 377.173 772.77 374.067C767.775 369.629 766.536 366.699 764.863 367.09Z" stroke="black" stroke-miterlimit="10"/>
<path d="M862.715 360.462C858.828 361.836 856.047 363.937 849.536 370.231C842.637 376.901 839.185 380.237 837.676 382.791C833.696 389.517 832.839 395.993 832.404 399.538C831.963 403.138 832.206 404.436 833.722 419.773C835.224 434.964 835.35 437.323 837.676 440.009C841.016 443.868 845.741 444.754 850.195 445.591C859.328 447.308 860.449 443.659 867.987 445.591C874.853 447.357 881.633 452.36 883.801 453.965C887.913 457.007 889.132 458.696 890.391 458.152C892.704 457.147 891.748 449.325 889.732 433.729C886.206 406.411 885.772 403.773 885.119 400.235C882.194 384.333 883.123 394.855 877.871 372.324C876.711 367.356 875.459 361.662 871.281 359.764C868.402 358.452 865.371 359.52 862.715 360.462Z" stroke="black" stroke-miterlimit="10"/>
<path d="M768.487 379.3C767.993 379.524 766.517 380.326 765.192 384.185C762.774 391.226 765.423 395.133 765.192 402.327C764.856 412.857 758.728 418.879 760.58 420.47C761.417 421.189 762.814 420.093 769.146 416.981C778.872 412.194 781.099 412.062 782.325 412.096C783.741 412.138 784.723 412.445 792.209 416.981C802.791 423.394 808.083 426.596 810.659 428.843C814.165 431.9 815.259 433.497 816.59 433.03C819.706 431.927 819.39 421.189 819.225 415.585C819.021 408.628 818.112 406.835 819.225 402.327C820.227 398.28 821.472 397.666 821.861 393.954C822.032 392.321 822.632 386.669 819.225 382.789C815.575 378.624 809.697 379.203 808.682 379.3C801.282 380.026 800.61 385.992 793.527 386.976C788.664 387.653 784.071 385.525 779.689 383.487C774.068 380.877 771.327 378.003 768.487 379.3Z" stroke="black" stroke-miterlimit="10"/>
<path d="M861.397 367.438C857.543 370.794 858.043 369.524 852.831 373.718C847.072 378.351 844.192 380.661 841.629 384.185C836.087 391.791 835.277 400.234 835.04 403.025C834.882 404.902 835.811 410.819 837.676 422.563C839.217 432.269 839.646 434.391 841.629 436.519C845.662 440.838 852.014 440.74 854.149 440.706C862.537 440.573 864.046 435.647 869.305 437.217C873.627 438.507 874.168 442.303 881.166 444.892C883.729 445.841 885.304 446.42 886.437 445.59C888.467 444.097 887.221 439.415 884.46 426.052C882.477 416.437 881.482 411.636 881.166 408.607C880.091 398.364 881.686 397.408 879.848 391.163C877.772 384.115 875.393 384.185 874.576 377.905C873.97 373.237 874.892 370.229 872.599 366.74C872.092 365.966 870.438 363.454 867.987 363.251C865.825 363.07 864.422 364.8 861.397 367.438Z" stroke="black" stroke-miterlimit="10"/>
<path d="M863.704 369.879C860.356 369.921 858.412 372.943 853.161 379.648C844.509 390.694 844.562 389.159 842.618 392.906C838.901 400.072 838.183 406.743 838.005 409.653C837.412 419.262 840.325 425.793 841.3 427.795C842.644 430.559 843.988 433.322 845.912 433.378C848.976 433.468 852.581 426.7 853.161 420.12C853.912 411.614 849.095 409.248 850.525 401.977C851.606 396.465 855.408 392.55 857.773 390.115C862.939 384.791 867.124 384.337 868.975 378.95C869.377 377.785 870.3 374.966 868.975 372.67C867.862 370.738 865.549 369.858 863.704 369.879Z" stroke="black" stroke-miterlimit="10"/>
<path d="M867.657 388.022C863.144 388.238 860.383 392.613 858.432 395.698C857.45 397.254 855.52 400.387 855.138 404.769C854.742 409.298 856.436 410.184 857.114 415.236C858.386 424.733 853.49 429.673 856.455 433.378C857.74 434.983 859.974 435.702 861.727 435.471C865.424 434.99 865.898 430.461 868.975 429.889C873.463 429.052 876.836 437.858 879.518 436.867C881.726 436.051 881.983 429.15 880.836 423.609C879.182 415.647 875.677 415.578 875.565 409.653C875.466 404.581 878.003 402.417 876.883 396.395C876.375 393.646 875.505 392.279 874.906 391.511C873.206 389.341 870.418 387.889 867.657 388.022Z" stroke="black" stroke-miterlimit="10"/>
<path d="M773.1 387.673C771.248 388.511 770.642 391.093 770.464 391.86C769.357 396.598 772.671 398.594 772.441 403.722C772.223 408.572 769.047 411.377 769.805 412.096C770.859 413.087 775.36 406.227 781.666 406.514C783.616 406.604 785.85 407.972 790.232 410.7C797.764 415.396 799.002 417.525 801.434 416.98C805.427 416.087 807.213 409.221 807.364 408.607C808.827 402.732 805.875 399.919 808.023 395.349C809.638 391.909 812.339 391.309 811.977 389.767C811.509 387.778 806.495 386.564 802.093 387.673C796.307 389.132 796.215 393.437 791.55 393.953C788.275 394.316 784.96 392.558 779.689 389.767C776.77 388.218 774.912 386.85 773.1 387.673Z" stroke="black" stroke-miterlimit="10"/>
<path d="M830.427 317.198C828.826 319.228 828.055 321.74 827.792 326.269C827.133 337.538 830.862 339.338 829.109 345.109C827.561 350.196 824.405 349.645 821.861 356.971C820.866 359.825 819.832 362.965 821.202 366.043C822.375 368.68 825.05 370.676 827.792 370.927C832.318 371.339 835.989 366.894 838.993 363.251C842.44 359.072 841.794 357.913 844.924 354.878C848.548 351.361 852.548 349.875 854.149 349.296C860.488 347.007 863.934 348.423 864.692 346.505C865.924 343.379 857.813 337.022 857.444 336.736C852.772 333.121 851.639 334.391 848.219 331.153C844.232 327.371 841.735 321.81 840.97 319.989C839.409 316.256 839.33 314.399 837.676 313.709C835.356 312.746 832.16 315.007 830.427 317.198Z" stroke="black" stroke-miterlimit="10"/>
<path d="M848.548 241.489C844.97 244.719 842.295 244.119 835.369 246.373C828.226 248.697 824.655 249.862 822.191 252.653C817.552 257.907 820.952 262.729 816.919 276.378C814.58 284.284 811.7 288.561 812.965 289.636C813.558 290.138 814.784 289.719 822.849 284.053C829.577 279.322 830.711 278.213 835.369 274.982C842.756 269.861 843.31 270.279 846.571 267.307C849.108 264.99 852.64 261.696 855.137 256.142C858.676 248.271 857.384 241.984 857.114 240.791C856.785 239.304 856.1 236.248 854.479 235.906C852.719 235.536 851.599 238.739 848.548 241.489Z" stroke="black" stroke-miterlimit="10"/>
<path d="M894.674 641.321C880.144 653.986 890.186 671.751 878.2 706.913C872.744 722.927 867.618 728.174 869.634 739.011C870.932 745.996 875.789 752.136 885.449 764.131C900.196 782.441 903.286 781.541 910.488 793.438C917.098 804.352 916.037 807.659 923.008 816.465C927.515 822.159 938.816 834.496 944.094 831.816C948.931 829.36 946.289 813.632 940.8 782.274C934.928 748.724 925.361 715.761 922.349 681.793C920.214 657.74 920.939 639.542 911.806 635.739C904.69 632.78 895.82 640.316 894.674 641.321Z" stroke="black" stroke-miterlimit="10"/>
<path d="M961.227 923.224C961.378 919.421 961.912 910.768 957.932 908.57C954.881 906.889 951.797 910.44 942.117 915.548C928.998 922.477 925.473 920.81 915.101 928.108C912.524 929.923 910.528 931.646 906.535 935.086C893.382 946.425 894.463 948.379 888.743 951.833C878.207 958.204 873.054 952.475 864.363 959.509C861.114 962.139 859.124 965.684 855.137 972.767C850.446 981.112 846.327 988.432 844.594 998.585C843.382 1005.67 841.207 1018.38 846.571 1026.5C857.213 1042.6 885.402 1022.2 931.574 1032.78C954.473 1038.02 967.842 1047.68 975.064 1040.45C978.88 1036.64 978.287 1030.8 975.723 1011.84C963.381 920.628 960.746 935.512 961.227 923.224Z" stroke="black" stroke-miterlimit="10"/>
<path d="M861.727 1021.61C856.633 1018.7 850.98 1012.43 850.525 1004.87C850.202 999.472 852.805 998.209 862.386 981.142C868.804 969.698 868.745 968.281 871.611 966.488C879.156 961.757 884.586 968.421 894.674 965.093C898.456 963.844 899.207 962.406 912.465 949.043C928.273 933.113 930.566 931.773 933.551 931.599C944.958 930.936 954.123 948.06 954.637 949.043C962.314 963.76 954.618 970.417 961.227 991.608C965.523 1005.4 971.414 1011.01 968.475 1016.73C966.182 1021.19 960.377 1022.07 950.684 1023.01C905.046 1027.41 903.062 1020.36 878.859 1023.71C874.985 1024.24 868.264 1025.36 861.727 1021.61Z" stroke="black" stroke-miterlimit="10"/>
<path d="M917.078 826.231C894.832 818.765 875.617 822.875 866.998 824.836C856.541 827.208 847.322 829.427 838.005 837.396C834.203 840.655 825.492 848.1 822.19 860.423C819.957 868.748 821.98 872.634 830.098 905.081C835.791 927.843 835.995 930.725 839.982 935.784C840.898 936.949 852.864 951.672 869.634 950.437C877.403 949.865 883.327 946.083 887.425 943.459C895.175 938.505 895.405 935.428 902.581 929.504C906.759 926.05 908.347 925.722 930.257 915.548C947.323 907.621 949.946 906.163 952.002 902.29C953.379 899.694 953.115 898.641 953.319 879.961C953.504 863.165 953.761 860.409 952.002 855.538C949.596 848.875 945.748 844.723 942.776 841.583C941.043 839.748 933.09 831.604 917.078 826.231Z" stroke="black" stroke-miterlimit="10"/>
<path d="M1159.31 239.638C1158.37 235.333 1157.51 233.651 1151.11 219.591C1141.03 197.401 1140.28 195.245 1136.7 191.931C1134.89 190.263 1126.36 182.378 1116.01 183.697C1114.39 183.906 1111.89 184.443 1098.9 194.178C1088.79 201.755 1083.65 205.642 1079.68 210.513C1075.71 215.376 1071.41 220.645 1069.5 228.955C1068.9 231.579 1065.86 244.851 1072.53 252.91C1076.8 258.053 1080.3 255.373 1087.94 261.325C1093.15 265.387 1092.39 267.312 1100.58 277.109C1107.59 285.497 1111.1 289.697 1116.16 291.114C1120.3 292.279 1124.76 291.065 1133.69 288.637C1141.84 286.425 1145.91 285.315 1149.35 282.496C1156.51 276.628 1158.51 267.843 1159.66 262.742C1162.01 252.443 1160.26 243.999 1159.31 239.638Z" stroke="black" stroke-miterlimit="10"/>
<path d="M1165.31 245.771C1164.38 224.921 1155.66 210.002 1151.67 203.345C1146.83 195.272 1142.47 188.182 1133.78 182.705C1130.23 180.465 1122.1 175.35 1111.91 176.187C1105.03 176.76 1102.72 179.593 1080.82 195.921C1065.46 207.371 1063.37 208.39 1060.75 213.219C1060.15 214.328 1052.65 228.682 1058.49 242.393C1061.19 248.743 1065.76 252.602 1068.92 255.274C1074.9 260.319 1077.27 259.615 1083.81 263.899C1087.62 266.39 1088.33 267.625 1102.37 283.025C1113.3 295.02 1115.16 296.793 1118.66 297.379C1121.01 297.777 1121.72 297.239 1135.75 291.936C1148.37 287.17 1150.51 286.57 1153.64 283.667C1157.91 279.69 1159.89 275.252 1161.37 271.833C1162.22 269.837 1165.99 260.78 1165.31 245.771Z" stroke="black" stroke-miterlimit="10"/>
<path d="M1239.85 185.775C1253.37 200.966 1269.15 206.29 1276.27 208.593C1284.91 211.391 1292.58 213.764 1302.54 211.935C1306.62 211.189 1315.93 209.479 1323.15 201.817C1328.03 196.64 1328.04 192.9 1334.64 165.414C1339.27 146.134 1340.24 143.922 1339.26 138.452C1339.04 137.195 1335.92 121.119 1323.06 114.734C1317.1 111.775 1311.26 111.991 1307.22 112.145C1299.57 112.431 1298.21 114.601 1290.62 115.85C1286.19 116.583 1284.89 116.136 1264.77 114.113C1249.1 112.536 1246.6 112.473 1243.58 114.441C1241.56 115.753 1241.35 116.653 1233.95 130.35C1227.29 142.666 1226.03 144.592 1225.45 148.953C1224.64 154.919 1225.87 159.657 1226.85 163.265C1227.4 165.372 1230.11 174.841 1239.85 185.775Z" stroke="black" stroke-miterlimit="10"/>
<path d="M1234.85 188.318C1251.2 206.133 1269.97 212.692 1278.43 215.539C1288.71 218.986 1297.82 221.931 1309.54 220.109C1314.33 219.363 1325.29 217.66 1333.63 209.063C1339.26 203.258 1339.18 198.953 1346.29 167.58C1351.28 145.572 1352.37 143.053 1351.07 136.745C1350.78 135.294 1346.69 116.753 1331.35 109.057C1324.24 105.491 1317.36 105.582 1312.58 105.645C1303.56 105.763 1302 108.212 1293.07 109.441C1287.86 110.152 1286.31 109.608 1262.51 106.726C1243.96 104.479 1241 104.34 1237.49 106.51C1235.13 107.961 1234.9 108.987 1226.5 124.513C1218.95 138.468 1217.51 140.646 1216.92 145.635C1216.12 152.466 1217.68 157.937 1218.92 162.109C1219.65 164.538 1223.08 175.486 1234.85 188.318Z" stroke="black" stroke-miterlimit="10"/>
<path d="M935.528 941.365C931.113 943.508 929.071 942.454 925.644 943.459C922.185 944.478 921.756 946.292 912.465 956.717C905.869 964.113 905.665 963.667 905.217 965.09C903.181 971.552 909.171 974.936 915.101 990.21C919.16 1000.66 918.659 1005.02 923.667 1009.05C925.736 1010.72 929.525 1012.96 934.21 1013.24C941.07 1013.64 943.402 1009.46 948.048 1011.14C952.621 1012.8 952.601 1017.65 956.614 1018.12C959.843 1018.5 963.691 1015.8 964.522 1012.54C965.464 1008.82 961.912 1006.59 958.591 999.979C954.756 992.325 954.321 984.963 953.978 979.046C953.392 968.963 955.711 967.888 953.978 960.206C952.68 954.463 950.42 950.8 948.048 946.948C943.442 939.481 940.8 939.279 940.141 939.272C938.553 939.244 938.006 940.158 935.528 941.365Z" stroke="black" stroke-miterlimit="10"/>
<path d="M899.286 971.373C895.53 969.098 893.521 972.294 886.766 971.373C881.139 970.605 879.525 967.974 876.223 969.279C874.411 969.998 873.456 971.394 871.611 974.164C867.519 980.311 868.468 982.635 865.021 988.12C862.379 992.32 861.364 991.685 858.432 996.493C856.258 1000.07 854.399 1003.11 854.478 1006.26C854.656 1013.46 864.863 1018.47 866.998 1019.52C876.869 1024.36 881.785 1021.18 907.853 1020.92C916.946 1020.82 925.189 1021.12 925.644 1018.82C926.079 1016.64 918.837 1015.26 915.101 1007.66C913.862 1005.13 914.897 1005.77 912.465 996.493C910.462 988.845 908.986 985.496 907.853 983.235C907.227 981.986 906.146 979.969 904.558 977.653C902.153 974.136 900.953 972.377 899.286 971.373Z" stroke="black" stroke-miterlimit="10"/>
<path d="M932.233 965.092C931.7 965.329 929.631 966.271 928.28 968.581C925.901 972.649 928.715 975.838 930.257 988.119C930.757 992.117 930.724 993.896 932.233 995.794C934.302 998.404 938.329 1000.05 940.8 998.586C944.411 996.443 943.594 988.314 943.435 986.723C943.066 983.06 942.032 981.783 942.776 979.048C943.574 976.124 945.234 975.831 945.412 973.465C945.689 969.781 941.933 966.85 941.459 966.487C941.241 966.32 936.82 963.075 932.233 965.092Z" stroke="black" stroke-miterlimit="10"/>
<path d="M872.936 989.806C872.593 989.632 871.249 988.962 869.568 989.262C866.623 989.792 866.366 992.674 861.299 998.863C859.645 1000.88 858.801 1001.64 858.577 1003.27C858.261 1005.5 859.256 1008.33 861.029 1008.98C863.612 1009.94 867.058 1005.95 867.73 1005.16C869.278 1003.36 869.423 1002.26 871.031 1001.45C872.745 1000.59 873.614 1001.33 874.794 1000.38C876.639 998.912 876.362 995.661 876.323 995.256C876.303 995.067 875.888 991.327 872.936 989.806Z" stroke="black" stroke-miterlimit="10"/>
<path d="M871.611 697.839C875.855 705.208 858.116 716.156 857.773 733.426C857.556 744.332 864.382 752.866 872.27 762.733C881.956 774.847 887.986 775.426 897.969 789.249C899.168 790.91 910.119 806.066 907.194 809.485C904.215 812.967 892.249 797.874 874.247 798.32C860.376 798.662 848.423 808.089 836.028 817.858C822.48 828.541 818.751 835.575 814.283 833.907C808.069 831.584 806.02 814.551 809.671 800.413C814.85 780.359 827.785 780.589 831.416 762.733C834.691 746.642 825.169 741.646 830.098 723.657C833.669 710.629 841.26 703.749 843.277 702.026C846.262 699.472 855.085 691.908 865.022 694.35C867.908 695.055 870.359 695.662 871.611 697.839Z" stroke="black" stroke-miterlimit="10"/>
<path d="M832.734 784.365C830.216 789.48 824.833 787.429 819.555 792.041C810.31 800.115 814.053 817.545 814.283 818.557C814.745 820.581 815.641 824.509 817.578 824.837C819.654 825.186 820.965 821.062 826.144 815.068C828.536 812.298 831.264 809.144 835.369 806.695C841.128 803.262 843.132 805.069 847.889 801.81C849.115 800.966 854.031 797.596 855.796 791.343C858.07 783.291 853.517 776.153 851.184 772.503C848.871 768.882 846.176 764.653 842.618 764.827C838.394 765.03 835.205 771.324 834.051 775.294C832.674 780.018 834.21 781.365 832.734 784.365Z" stroke="black" stroke-miterlimit="10"/>
<path d="M610.177 836.875C565.375 799.097 565.046 787.709 547.525 785.783C532.323 784.109 531.163 792.524 481.268 817.051C442.865 835.933 431.13 837.05 427.255 849.84C423.367 862.686 433.186 868.185 441.659 905.509C448.335 934.935 443.524 937.189 449.58 945.925C464.472 967.396 491.324 950.579 525.918 972.615C549.271 987.492 549.284 1002.96 564.084 1003.12C582.85 1003.32 585.756 978.47 618.815 961.179C640.639 949.763 649.436 955.331 658.424 943.636C670.72 927.636 666.891 900.785 659.142 883.39C651.36 865.91 642.247 863.914 610.177 836.875Z" stroke="black" stroke-miterlimit="10"/>
<path d="M684.835 638.702C673.507 632.596 652.336 621.18 625.372 626.937C615.125 629.121 594.408 633.545 584.728 652.155C579.562 662.078 579.78 672.224 580.215 692.501C580.465 704.154 580.847 717.321 586.237 732.847C591.206 747.152 595.667 760.012 605.057 763.103C618.288 767.464 634.617 750.215 649.469 734.529C663.874 719.31 666.14 711.299 678.825 705.954C688.755 701.768 693.216 704.217 700.656 698.39C708.826 691.992 715.936 679.264 714.203 667.29C712.187 653.446 699.226 646.454 684.835 638.702Z" stroke="black" stroke-miterlimit="10"/>
<path d="M375.087 560.211C341.211 551.077 321.449 546.06 296.034 554.81C284.344 558.836 268.457 566.805 253.216 582.882C242.699 593.97 230.14 607.214 226.041 629.306C223.564 642.661 226.035 655.124 230.983 680.049C237.408 712.405 246.403 733.778 251.569 744.824C259.595 761.976 263.608 770.558 269.683 773.971C275.976 777.508 284.166 777.683 324.856 751.3C355.885 731.182 358.917 726.026 373.44 722.153C391.527 717.324 394.532 723.256 407.204 716.752C431.011 704.534 441.146 672.924 442.615 668.172C444.308 662.681 455.669 624.184 440.968 594.758C431.275 575.36 412.548 570.308 375.087 560.211Z" stroke="black" stroke-miterlimit="10"/>
<path d="M1424.3 688.344C1395.78 680.679 1379.14 676.479 1357.75 683.814C1347.9 687.189 1334.53 693.872 1321.7 707.349C1312.84 716.649 1302.27 727.749 1298.82 746.282C1296.73 757.487 1298.81 767.935 1302.98 788.83C1308.39 815.965 1315.96 833.89 1320.31 843.153C1327.06 857.538 1330.44 864.73 1335.56 867.595C1340.86 870.565 1347.76 870.708 1382.01 848.583C1408.13 831.715 1410.68 827.387 1422.9 824.14C1438.13 820.09 1440.66 825.062 1451.32 819.61C1471.37 809.365 1479.9 782.86 1481.13 778.87C1482.55 774.265 1492.12 741.984 1479.74 717.309C1471.6 701.049 1455.83 696.819 1424.3 688.344Z" stroke="black" stroke-miterlimit="10"/>
<path d="M534.102 410.631C522.881 405.411 484.715 387.667 450.602 406.095C440.362 411.629 433.719 418.669 424.191 428.766C409.022 444.85 397.801 456.748 398.499 470.333C399.145 482.942 409.372 483.731 434.187 510.393C457.408 535.339 460.729 547.836 479.865 555.742C488.339 559.238 497.887 563.181 506.275 558.764C520.64 551.2 512.469 529.185 529.826 507.372C539.044 495.789 543.769 498.95 559.801 481.672C571.609 468.952 578.086 461.967 578.357 452.952C578.989 431.502 543.934 415.201 534.102 410.631Z" stroke="black" stroke-miterlimit="10"/>
<path d="M1618.89 488.851C1604.91 482.343 1557.39 460.218 1514.91 483.196C1502.16 490.096 1493.89 498.874 1482.03 511.464C1463.14 531.519 1449.17 546.353 1450.04 563.293C1450.84 579.015 1463.58 579.998 1494.48 613.243C1523.39 644.347 1527.52 659.93 1551.35 669.788C1561.9 674.147 1573.79 679.062 1584.24 673.555C1602.12 664.124 1591.95 636.673 1613.56 609.476C1625.04 595.033 1630.92 598.974 1650.88 577.432C1665.59 561.57 1673.65 552.861 1673.99 541.62C1674.78 514.875 1631.13 494.55 1618.89 488.851Z" stroke="black" stroke-miterlimit="10"/>
<path d="M1629.23 489.076C1613.73 482.098 1561.03 458.366 1513.91 483.012C1499.77 490.409 1490.6 499.829 1477.45 513.338C1456.5 534.851 1441.01 550.76 1441.96 568.931C1442.85 585.789 1456.97 586.85 1491.24 622.5C1523.31 655.861 1527.9 672.58 1554.33 683.144C1566.03 687.826 1579.21 693.095 1590.79 687.184C1610.63 677.066 1599.35 647.62 1623.32 618.452C1636.04 602.962 1642.57 607.19 1664.71 584.086C1681.01 567.074 1689.97 557.731 1690.34 545.673C1691.21 516.994 1642.8 495.189 1629.23 489.076Z" stroke="black" stroke-miterlimit="10"/>
<path d="M592.708 173.307C549.085 161.879 548.781 156.057 534.515 158.583C520.672 161.029 510.992 168.804 491.638 184.355C471.908 200.207 461.408 208.633 461.012 222.087C460.602 235.914 470.989 250.789 482.453 254.299C493.66 257.73 497.526 247.731 519.972 242.339C535.711 238.558 549.336 239.742 555.197 240.496C576.81 243.284 579.817 251.44 591.182 247.858C601.867 244.491 608.223 234.452 617.216 220.252C625.852 206.616 631.872 197.109 629.467 188.961C626.956 180.479 617.177 179.716 592.708 173.307Z" stroke="black" stroke-miterlimit="10"/>
<path d="M145.269 575.063C132.623 568.623 121.323 569.551 103.755 570.995C83.2557 572.684 73.0027 573.521 63.7775 581.581C61.1747 583.855 56.147 591.782 46.0982 607.636C39.9634 617.307 37.466 621.836 35.3377 627.99C32.2934 636.761 29.3874 645.156 33.0314 651.603C38.3029 660.926 53.6825 659.816 54.5589 659.747C71.922 658.274 73.4705 642.7 90.6952 639.392C104.625 636.72 107.979 646.07 123.754 642.651C135.147 640.181 142.699 633.28 147.588 628.814C155.357 621.717 167.916 610.232 166.038 597.064C164.272 584.749 150.922 577.945 145.269 575.063Z" stroke="black" stroke-miterlimit="10"/>
<path d="M1613.72 887.685C1596.66 878.01 1581.41 879.404 1557.71 881.574C1530.05 884.111 1516.22 885.368 1503.77 897.474C1500.26 900.891 1493.48 912.798 1479.92 936.612C1471.64 951.139 1468.27 957.941 1465.4 967.186C1461.3 980.361 1457.37 992.97 1462.29 1002.66C1469.4 1016.66 1490.15 1014.99 1491.34 1014.89C1514.76 1012.68 1516.85 989.281 1540.09 984.313C1558.89 980.298 1563.41 994.343 1584.7 989.207C1600.07 985.497 1610.26 975.131 1616.85 968.423C1627.33 957.763 1644.28 940.511 1641.75 920.733C1639.36 902.233 1621.35 892.013 1613.72 887.685Z" stroke="black" stroke-miterlimit="10"/>
<path d="M1612.3 896.569C1596.61 888.573 1582.59 889.724 1560.79 891.517C1535.35 893.611 1522.63 894.65 1511.18 904.65C1507.96 907.469 1501.72 917.308 1489.24 936.978C1481.63 948.98 1478.53 954.597 1475.89 962.231C1472.11 973.11 1468.5 983.527 1473.03 991.524C1479.56 1003.09 1498.64 1001.72 1499.73 1001.63C1521.28 999.8 1523.2 980.478 1544.57 976.375C1561.85 973.054 1566.01 984.665 1585.59 980.415C1599.73 977.345 1609.09 968.783 1615.16 963.243C1624.8 954.437 1640.38 940.188 1638.05 923.846C1635.88 908.592 1619.32 900.149 1612.3 896.569Z" stroke="black" stroke-miterlimit="10"/>
<path d="M-26.2995 843.551C-18.4647 839.866 -5.96466 839.496 13.5861 827.99C29.8158 818.437 29.5653 813.769 45.7753 803.54C58.9475 795.229 84.231 779.264 102.451 788.719C106.582 790.861 111.735 797.559 122.041 810.95C134.844 827.585 136.459 833.46 143.733 835.4C146.422 836.119 148.135 835.833 168.226 829.476C186.94 823.552 188.706 822.77 192.014 823.552C200.685 825.583 204.118 834.556 213.007 850.968C213.007 850.968 224.532 872.25 241.698 896.91C260.491 923.901 266.54 923.286 270.388 937.661C274.375 952.559 271.172 965.516 266.889 982.856C266.889 982.856 260.148 1010.14 246.6 1031.76C216.091 1080.43 41.7953 1141.08 -30.4838 1045.09C-81.3671 977.532 -60.9861 859.865 -26.2995 843.551Z" stroke="black" stroke-miterlimit="10"/>
<path d="M293.062 872.286C279.383 876.096 272.2 870.814 266.705 877.171C259.259 885.781 265.472 903.505 266.046 905.082C272.029 921.564 283.04 920.754 286.473 934.389C287.692 939.225 286.591 940.46 281.201 967.883C276.622 991.175 276.266 996.122 279.224 999.283C283.725 1004.1 293.484 1002.19 299.652 999.283C311.308 993.784 315.064 982.383 324.032 962.998C326.016 958.707 336.915 935.15 349.072 915.549C367.061 886.549 377.064 883.541 378.065 867.402C378.975 852.727 371.931 835.345 360.933 831.814C353.171 829.323 344.993 835.038 328.645 846.468C306.551 861.917 306.109 868.651 293.062 872.286Z" stroke="black" stroke-miterlimit="10"/>
<path d="M320.738 872.984C315.44 877.582 309.918 878.957 300.311 881.357C286.203 884.874 280.496 883.199 277.907 887.637C276.193 890.575 276.793 894.552 280.542 903.686C289.728 926.057 296.278 926.943 298.993 937.878C303.862 957.5 287.507 973.814 293.721 979.745C296.588 982.48 302.485 981.301 306.241 979.047C316.501 972.879 311.677 958.107 320.738 934.389C323.525 927.097 328.269 914.669 339.188 903.686C350.726 892.082 358.179 893.129 364.887 881.357C366.376 878.747 374.336 864.778 368.181 854.143C364.61 847.975 357.526 845.065 351.708 845.072C342.997 845.079 336.901 851.618 332.599 856.237C325.311 864.059 327.123 867.443 320.738 872.984Z" stroke="black" stroke-miterlimit="10"/>
<path d="M313.819 1023.36C312.955 1019.65 314.016 1017.8 328.315 990.561C340.545 967.262 353.282 944.256 365.216 920.783C384.529 882.781 388.984 867.269 399.481 867.053C408.937 866.858 416.429 879.222 417.931 881.707C425.766 894.644 420.059 902.591 425.179 927.76C427.868 940.99 429.963 950.683 437.699 959.161C444.743 966.878 454.476 971.414 458.126 973.116C469.625 978.475 472.761 976.445 477.895 981.49C485.11 988.586 485.967 999.563 486.461 1005.91C487.251 1016.1 485.13 1024.19 484.484 1026.15C473.816 1058.46 322.543 1060.63 313.819 1023.36Z" stroke="black" stroke-miterlimit="10"/>
<path d="M328.645 1023.01C327.63 1021.4 326.556 1018.24 330.622 1006.96C337.415 988.125 346.529 979.954 356.32 965.091C363.865 953.634 367.812 944.269 373.453 930.9C385.617 902.053 386.184 887.037 393.221 886.241C398.677 885.627 405.629 893.833 407.059 902.29C408.634 911.627 402.874 917.705 385.314 944.855C369.664 969.055 368.194 973.576 368.84 979.047C370.145 990.086 378.856 994.97 376.748 1004.86C375.469 1010.88 371.1 1014.48 367.522 1017.43C354.64 1028.04 333.692 1030.98 328.645 1023.01Z" stroke="black" stroke-miterlimit="10"/>
<path d="M407.718 941.366C396.166 941.7 385.729 955.9 382.678 967.881C381.472 972.626 382.322 973.464 383.337 993.002C384.589 1017.1 383.502 1020.01 386.632 1023.7C390.104 1027.79 393.788 1026.98 418.261 1027.89C442.18 1028.78 446.971 1029.85 454.502 1025.8C457.876 1023.98 467.767 1018.65 468.999 1009.75C470.304 1000.31 460.769 994.941 441.982 974.859C419.012 950.297 417.154 941.086 407.718 941.366Z" stroke="black" stroke-miterlimit="10"/>
<path d="M699.272 710.777C691.951 705.153 679.616 710.791 677.547 711.733C659.768 719.855 664.401 737.621 645.641 755.742C637.325 763.774 625.932 769.866 603.146 782.056C592.201 787.91 586.389 790.374 585.229 796.116C584.847 798.021 583.813 806.067 608.16 825.835C638.531 850.495 650.036 846.001 661.1 864.011C661.258 868.016 668.697 898.677 674.977 898.321C681.929 897.923 679.319 859.985 690.785 797.058C699.74 747.927 710.704 719.555 699.272 710.777Z" stroke="black" stroke-miterlimit="10"/>
<path d="M499.31 1024.4C494.487 1016.3 492.154 1003.92 496.675 993.004C498.572 988.434 500.753 983.165 505.241 981.84C513.128 979.509 519.619 991.874 540.823 1009.05C552.566 1018.56 558.569 1023.32 565.204 1023.01C573.467 1022.63 580.709 1014.84 594.857 999.284C609.221 983.493 608.978 980.43 617.26 974.862C619.784 973.166 640 959.915 652.184 968.582C653.706 969.663 657.759 972.978 660.092 982.537C664.698 1001.42 658.8 1029.14 641.641 1045.34C620.918 1064.9 589.822 1057.21 527.645 1041.85C519.144 1039.75 506.335 1036.21 499.31 1024.4Z" stroke="black" stroke-miterlimit="10"/>
<path d="M671.293 1031.38C665.198 1019.95 673.171 1015.24 682.495 948.344C685.816 924.529 688.426 899.499 688.426 899.499C693.855 847.437 692.722 829.909 698.969 828.325C707.93 826.057 723.297 858.839 727.962 868.797C744.073 903.169 741.701 920.112 754.979 926.015C766.023 930.927 781.685 925.443 789.902 916.246C799.82 905.144 797.388 890.281 803.74 889.032C809.348 887.93 815.707 898.62 819.555 905.081C830.282 923.105 825.986 931.479 836.028 942.064C842.255 948.623 847.013 948.679 848.548 954.624C850.301 961.414 845.438 966.57 841.3 974.86C830.098 997.294 840.331 1010.39 830.757 1024.4C824.253 1033.92 813.433 1036.8 801.763 1039.06C751.684 1048.71 687.174 1061.16 671.293 1031.38Z" stroke="black" stroke-miterlimit="10"/>
<path d="M677.883 1021.61C672.868 1008.86 684.947 1002.42 691.721 961.603C694.343 945.805 694.831 932.938 695.674 910.665C697.13 872.175 694.712 855.253 698.969 854.144C703.647 852.923 712.253 871.903 719.396 887.638C733.438 918.591 734.934 934.103 747.73 939.274C754.695 942.086 762.062 940.648 765.522 939.972C781.178 936.915 784.881 925.855 791.879 927.411C802.205 929.707 811.99 957.744 803.74 977.652C798.126 991.203 787.155 993.743 783.313 1010.45C780.928 1020.8 784.222 1023.85 781.995 1029.29C772.474 1052.55 689.79 1051.9 677.883 1021.61Z" stroke="black" stroke-miterlimit="10"/>
<path d="M514.466 637.131C498.447 672.279 478.033 711.62 451.867 752.964C426.945 792.34 406.373 818.409 412.989 826.929C420.086 836.07 454.641 820.063 471.635 810.182C499.686 793.875 498.836 783.234 519.737 778.084C536.646 773.918 550.134 777.693 560.592 766.222C562.641 763.968 565.916 759.669 568.499 750.173C579.114 711.138 550.418 686.053 562.568 659.461C569.369 644.57 581.559 645.449 582.337 632.945C583.279 617.838 566.594 598.635 549.39 599.451C537.68 600.009 529.45 609.667 525.668 614.104C518.255 622.806 515.54 632.191 514.466 637.131Z" stroke="black" stroke-miterlimit="10"/>
<path d="M404.423 727.844C387.304 731.863 389.267 729.896 379.383 732.729C375.034 733.971 363.292 737.606 335.234 755.058C307.15 772.523 307.888 775.74 295.698 779.48C279.514 784.442 277.781 778.908 258.797 784.365C247.352 787.658 229.534 792.78 221.897 808.787C218.042 816.875 218.319 824.508 218.602 830.419C220.085 861.421 243.951 888.914 252.208 885.544C257.341 883.45 252.432 871.086 260.774 863.215C268.207 856.209 276.615 861.763 292.403 857.632C302.202 855.064 308.27 850.494 320.079 841.583C342.423 824.725 342.054 815.465 354.344 812.974C367.173 810.378 382.513 817.44 387.949 828.325C391.857 836.147 389.195 843.049 391.244 843.677C395.969 845.128 399.356 805.187 426.827 773.898C434.55 765.099 444.803 756.272 446.595 741.102C446.99 737.76 448.242 727.146 442.641 722.262C436.895 717.252 428.448 722.199 404.423 727.844Z" stroke="black" stroke-miterlimit="10"/>
<path d="M449.89 593.871C446.74 605.224 454.746 610.618 457.797 626.667C461.48 646.037 454.7 663.873 451.866 671.325C444.895 689.67 436.065 695.085 438.688 704.819C440.467 711.427 447.056 718.286 453.843 718.775C469.776 719.926 477.005 685.295 511.171 624.574C530.801 589.684 540.593 579.476 556.638 548.515C571.938 518.985 570.35 514.156 581.678 500.368C585.177 496.111 589.664 491.29 588.267 487.808C586.112 482.421 570.337 481.332 559.933 488.505C554.167 492.476 555.57 495.176 546.754 503.159C539.38 509.83 536.56 509.613 532.257 515.021C529.18 518.887 527.75 522.62 525.009 532.466C517.378 559.889 519.652 562.757 515.125 567.355C510.73 571.821 502.75 572.658 486.79 574.333C472.992 575.784 468.465 574.277 461.751 578.52C460.149 579.532 452.453 584.646 449.89 593.871Z" stroke="black" stroke-miterlimit="10"/>
<path d="M210.344 598.355C150.521 649.188 111.643 685.401 86.4655 709.943C32.8695 762.19 25.4233 777.094 2.76354 785.282C-2.20501 787.08 -18.8651 792.51 -22.0123 805.183C-23.7533 812.205 -21.3828 821.587 -15.9857 824.373C-9.23598 827.856 -1.07337 819.305 23.5216 800.918C45.485 784.5 56.7011 776.234 68.3859 773.199C76.0262 771.216 94.7889 766.341 110.572 776.042C132.515 789.525 130.995 820.3 146.731 822.241C153.534 823.079 153.581 817.301 166.15 814.423C184.779 810.151 194.749 820.521 202.979 813.712C208.583 809.078 205.001 803.413 210.344 794.522C219.692 778.97 237.169 785.424 243.825 774.621C250.421 763.91 238 749.844 219.05 699.992C205.055 663.168 205.898 655.237 206.996 650.24C210.833 632.77 224.206 621.76 219.719 609.017C217.811 603.601 213.525 600.274 210.344 598.355Z" stroke="black" stroke-miterlimit="10"/>
<path d="M204.764 618.293C181.998 629.946 152.207 662.574 144.801 670.627C129.052 687.744 128.69 687.032 127.668 690.165C120.769 711.28 143.977 723.038 150.072 764.13C152.603 781.212 150.744 793.688 158.638 798.322C164.114 801.538 169.063 797.917 184.337 801.811C191.368 803.604 192.389 804.902 194.88 803.904C203.084 800.617 199.038 783.689 208.718 777.388C214.708 773.494 219.959 777.556 223.873 773.201C228.012 768.603 225.962 759.839 224.532 754.361C218.167 729.994 210.168 717.734 202.787 697.84C195.19 677.354 191.473 666.887 195.539 655.973C195.869 655.087 195.737 655.569 206.082 634.342C211.097 624.057 213.686 618.635 212.013 616.897C210.616 615.446 206.866 617.218 204.764 618.293Z" stroke="black" stroke-miterlimit="10"/>
<path d="M373.618 453.677C360.9 465.49 341.58 483.179 317.476 504.217C286.769 531.012 264.807 548.834 267.205 553.118C269.485 557.186 289.51 541.535 322.78 540.314C345.217 539.483 364.676 545.547 374.527 548.617C395.982 555.302 404.878 562.35 426.537 563.892C436.237 564.583 450.898 565.469 454.667 557.821C458.015 551.025 451.102 540.823 445.824 533.05C442.477 528.109 432.276 514.035 403.435 492.927C391.415 484.128 384.292 480.067 383.535 472.112C383.172 468.33 385.03 463.18 388.753 453.035C393.096 441.221 395.738 436.937 394.71 436.023C393.722 435.143 389.379 437.544 373.618 453.677Z" stroke="black" stroke-miterlimit="10"/>
<path d="M680.848 182.524C687.912 184.143 683.293 200.834 695.345 215.32C702.066 223.393 707.976 223.582 711.818 232.765C713.69 237.231 714.487 242.429 713.795 249.512C711.568 272.35 696.175 290.967 694.686 292.774C682.541 307.546 684.281 297.282 629.451 416.98C623.197 430.629 612.977 446.287 597.163 472.105C592.069 480.423 578.758 479.376 577.394 476.99C576.057 474.652 584.537 469.914 587.279 458.847C589.862 448.408 585.697 438.926 584.643 436.518C580.729 427.6 575.839 426.03 572.782 421.167C561.969 403.966 587.305 366.537 591.891 359.762C611.014 331.515 621.702 331.557 650.537 293.472C663.841 275.895 668.868 266.244 669.646 254.396C670.259 245.116 668.486 231.153 667.01 219.507C665.528 207.798 664.098 201.078 667.669 193.689C670.246 188.365 676.031 181.415 680.848 182.524Z" stroke="black" stroke-miterlimit="10"/>
<path d="M432.428 400.931C462.357 366.879 476.57 361.339 522.044 317.895C541.298 299.501 540.243 299.068 554.991 285.796C575.174 267.64 581.374 264.64 609.683 239.743C627.21 224.321 635.974 216.618 638.017 213.924C643.104 207.219 648.178 198.789 652.514 199.969C655.05 200.66 656.217 204.33 657.126 207.644C661.304 222.877 664.592 234.872 661.08 252.303C660.276 256.28 657.95 266.356 650.537 279.516C640.27 297.735 631.724 301.511 607.706 325.57C586.89 346.427 576.479 356.852 572.123 368.833C564.387 390.122 569.948 406.702 561.58 410.7C555.656 413.526 551.043 406.095 533.246 398.14C525.872 394.846 509.583 387.757 489.097 388.371C483.212 388.545 468.103 389.173 452.196 398.14C442.747 403.471 435.518 410.323 434.405 411.398C427.104 418.404 423.124 424.635 412.66 433.029C409.167 435.827 404.792 439.344 404.093 438.611C402.584 437.027 418.972 416.24 432.428 400.931Z" stroke="black" stroke-miterlimit="10"/>
<path d="M680.189 190.897C678.41 189.767 675.352 191.162 673.6 192.99C670.061 196.675 670.964 202.976 671.623 208.342C673.547 223.965 675.003 235.779 674.259 246.72C673.402 259.329 670.206 262.176 672.941 268.351C676.025 275.308 684.353 281.351 692.05 279.516C699.773 277.674 703.015 268.826 705.229 262.769C706.257 259.964 710.349 248.792 705.888 237.649C704.306 233.699 701.539 230.594 696.004 224.391C686.396 213.624 683.359 213.931 681.507 208.342C678.766 200.059 683.279 192.865 680.189 190.897Z" stroke="black" stroke-miterlimit="10"/>
<path d="M682.495 225.439C680.215 227.113 682.186 231.244 681.836 239.394C681.303 251.829 676.196 254.083 677.883 261.724C679.365 268.429 685.124 274.968 689.744 274.284C693.262 273.76 695.18 269.19 698.31 261.724C701.341 254.495 703.146 250.196 702.263 244.279C700.979 235.654 695.068 230.756 693.697 229.625C693.051 229.088 685.757 223.052 682.495 225.439Z" stroke="black" stroke-miterlimit="10"/>
<path d="M542.141 354.53C535.96 358.564 530.353 360.28 526.327 361.508C515.164 364.92 508.772 363.874 501.287 369.882C499.468 371.34 495.403 374.606 496.015 377.557C496.602 380.383 501.149 381.416 509.194 383.14C533.021 388.247 533.496 387.822 536.87 389.42C548.777 395.065 551.129 404.297 555.32 402.678C558.536 401.436 559.662 392.546 561.909 374.766C563.01 366.065 563.01 363.385 565.204 359.415C568.341 353.742 571.596 353.344 575.088 346.855C577.078 343.15 580.202 335.523 577.724 332.899C575.108 330.129 567.418 334.176 564.545 335.69C553.6 341.447 552.645 347.678 542.141 354.53Z" stroke="black" stroke-miterlimit="10"/>
<path d="M568.499 339.875C566.871 338.689 561.567 342.994 557.956 347.551C551.716 355.429 553.251 360.676 548.072 363.6C544.382 365.679 542.504 363.635 538.188 366.391C537.746 366.677 531.75 370.585 532.257 374.764C532.685 378.288 537.291 378.323 543.459 383.836C549.831 389.53 550.879 394.826 552.684 394.302C554.813 393.681 553.508 386.25 555.32 371.275C556.374 362.532 556.954 358.101 559.274 355.226C562.529 351.193 566.865 350.181 568.499 344.76C568.637 344.299 569.685 340.733 568.499 339.875Z" stroke="black" stroke-miterlimit="10"/>
<path d="M740.811 269.049C735.355 269.614 727.573 271.198 719.725 276.027C698.969 288.803 692.9 314.949 690.073 325.569C679.932 363.641 653.917 394.804 636.04 429.54C592.82 513.518 571.207 555.511 561.58 565.608C561.349 565.845 544.467 583.548 547.742 588.635C549.785 591.81 557.185 586.213 566.851 590.03C574.462 593.038 579.615 600.344 584.643 607.475C590.033 615.116 589.763 617.46 593.209 619.337C599.785 622.917 607.271 617.921 615.613 614.453C617.959 613.476 641.134 604.146 661.08 610.266C664.684 611.369 663.636 611.585 699.957 632.595C705.288 635.679 707.996 637.215 709.841 636.782C721.498 634.061 718.322 596.666 725.656 537.696C730.723 496.988 733.985 500.756 739.494 454.66C744.146 415.758 741.984 411.711 747.401 379.997C748.554 373.235 753.213 346.747 756.626 323.476C760.744 295.376 758.221 304.943 759.921 296.262C761.601 287.68 763.011 283.765 761.239 279.516C758.069 271.896 747.414 269.754 740.811 269.049Z" stroke="black" stroke-miterlimit="10"/>
<path d="M743.777 277.076C741.359 276.957 732.588 276.817 722.032 283.356C719.034 285.212 710.876 290.403 704.899 300.8C697.796 313.158 702.33 317.98 696.333 334.294C689.816 352.018 680.591 356.867 683.154 362.206C686.021 368.172 701.15 369.623 710.83 362.903C721.564 355.451 719.106 342.458 729.939 337.783C737.168 334.664 742.116 338.788 746.413 334.294C749.543 331.021 747.777 327.937 749.707 316.849C751.671 305.573 754.307 304.08 754.979 293.823C755.638 283.788 753.397 280.934 752.343 279.867C751.526 279.036 749.516 277.355 743.777 277.076Z" stroke="black" stroke-miterlimit="10"/>
<path d="M704.24 332.2C699.786 339.136 702.264 342.506 696.992 352.436C694.047 357.983 691.543 360.181 692.38 361.507C693.625 363.482 701.275 361.912 706.876 357.32C712.714 352.534 710.803 349.01 718.078 340.574C722.407 335.556 725.241 334.307 725.326 330.805C725.412 327.267 722.658 323.45 719.396 322.431C713.736 320.659 707.225 327.56 704.24 332.2Z" stroke="black" stroke-miterlimit="10"/>
<path d="M625.168 465.478C621.833 473.014 622.65 476.119 617.26 480.83C600.741 495.267 606.493 509.536 592.221 534.559C577.777 559.882 557.903 569.783 561.25 576.426C562.285 578.478 564.288 577.745 576.406 581.311C587.779 584.66 593.519 586.411 596.174 590.382C600.853 597.381 595.772 605 599.469 607.826C604.081 611.35 612.068 599.579 628.462 596.662C637.529 595.05 644.837 596.913 654.82 599.453C658.866 600.486 669.336 603.43 681.836 610.618C697.341 619.535 701.038 626.395 704.24 624.573C709.584 621.538 706.968 598.106 695.674 579.217C685.441 562.108 678.68 566.441 670.634 550.608C660.006 529.702 661.791 502.461 662.068 498.274C662.424 492.894 663.05 489.545 662.727 482.923C661.989 467.774 657.765 466.183 657.456 453.616C657.166 441.83 660.717 436.869 656.797 431.287C654.965 428.677 651.69 426.2 648.23 426.402C641.839 426.772 637.885 436.081 636.369 439.66C631.401 451.369 629.319 456.107 625.168 465.478Z" stroke="black" stroke-miterlimit="10"/>
<path d="M744.429 565.429C741.293 563.713 737.57 566.127 737.576 569.867C737.682 625.822 729.03 669.099 720.384 699.585C707.37 745.493 703.582 776.691 705.229 807.044C706.375 828.152 730.506 829.82 736.858 855.889C740.067 869.07 738.907 879.705 747.401 894.268C750.854 900.192 758.247 912.864 767.169 912.41C772.355 912.145 774.839 907.609 791.55 879.614C803.786 859.12 805.506 856.441 805.388 851.005C805.104 837.565 794.219 836.365 790.891 821C787.438 805.063 795.457 789.342 802.093 776.342C810.132 760.586 814.797 760.474 817.249 749.128C820.385 734.6 813.572 730.937 816.59 717.03C818.909 706.347 826.599 691.658 838.994 687.025C848.094 683.62 854.321 687.66 866.669 681.443C871.084 679.217 873.581 677.961 875.894 675.163C886.035 662.896 872.942 644.921 881.166 633.994C888.414 624.364 903.477 631.816 908.182 622.829C911.332 616.814 905.395 611.902 901.593 594.918C896.881 573.865 901.336 560.573 896.321 558.633C892.928 557.321 890.496 563.252 879.848 569.797C873.667 573.593 863.612 579.783 852.831 578.171C842.545 576.636 842.222 569.588 828.451 565.611C822.718 563.957 815.318 561.822 808.023 564.913C797.467 569.386 799.404 579.608 788.255 586.544C780.618 591.296 768.355 593.564 761.239 587.94C755.051 583.048 756.738 575.338 748.719 568.402C747.296 567.174 745.839 566.197 744.429 565.429Z" stroke="black" stroke-miterlimit="10"/>
<path d="M600.457 137.867C572.439 150.525 556.704 151.739 556.967 156.708C557.343 163.804 589.875 168.772 593.209 169.268C611.705 172.01 621.655 169.777 629.451 178.339C633.226 182.484 634.505 186.978 639.335 188.108C644.27 189.259 648.824 185.952 654.49 181.828C658.022 179.26 664.025 174.801 668.987 166.477C672.328 160.873 673.217 156.84 676.235 144.148C683.233 114.694 684.294 111.749 682.166 109.258C680.202 106.963 675.576 105.113 652.514 113.445C628.594 122.084 620.693 128.726 600.457 137.867Z" stroke="black" stroke-miterlimit="10"/>
<path d="M-9.39104 648.996C-1.04228 640.818 10.8911 633.533 15.6487 637.134C21.421 641.509 11.2535 657.858 18.9433 669.93C24.6498 678.896 37.7495 681.653 47.2777 680.397C63.9028 678.206 65.0559 664.396 85.4962 658.068C96.8234 654.558 98.0227 658.319 113.831 655.276C137.019 650.818 149.756 639.779 150.731 641.321C152.431 644.014 108.348 669.176 63.0923 716.681C50.5658 729.835 37.1696 741.962 10.3771 766.224C-8.85072 783.634 -17.5553 790.814 -24.5467 787.856C-34.8525 783.494 -34.635 759.986 -34.4307 738.313C-34.1738 710.967 -33.8179 672.923 -9.39104 648.996Z" stroke="black" stroke-miterlimit="10"/>
<path d="M-19.6047 567.702C-21.3245 574.512 -28.3356 599.326 -16.9689 613.058C-11.737 619.38 -3.05214 622.813 4.77606 622.129C14.502 621.278 20.8081 614.265 29.1568 604.685C41.703 590.289 41.3142 583.486 50.9018 572.586C61.0627 561.038 72.5019 556.188 79.8952 553.048C114.634 538.297 165.663 544.863 179.395 572.586C186.525 586.975 179.58 598.949 185.325 602.591C197.233 610.134 233.935 563.117 271.647 520.95C330.661 454.968 365.44 416.08 418.59 380.695C446.041 362.42 474.231 338.277 530.61 289.983C537.779 283.843 554.002 269.754 551.037 262.77C546.78 252.756 504.924 261.751 500.299 262.77C474.198 268.519 467.161 275.972 454.832 271.143C443.742 266.796 433.62 254.564 433.746 242.534C433.917 225.578 454.351 216.367 452.196 211.133C448.124 201.246 395.527 220.205 395.527 220.205C209.752 287.178 70.67 350.691 -37.3961 395.349C-84.8727 414.971 -4.10645 506.443 -19.6047 567.702Z" stroke="black" stroke-miterlimit="10"/>
<path d="M-25.5351 474.201C-28.2961 479.574 -11.3943 484.605 -17.6279 492.343C-24.382 500.724 -12.1323 513.081 -11.6974 536.304C-11.1571 564.878 -29.1 577.459 -20.9226 593.522C-20.514 594.325 -15.1964 604.436 -6.42589 605.385C8.82197 607.038 14.5284 578.848 44.3124 550.259C55.8373 539.2 70.6898 524.944 93.074 520.952C107.083 518.454 119.326 521.846 143.812 528.628C179.263 538.446 185.497 548.864 187.302 552.353C192.449 562.31 189.688 570.321 193.233 571.891C200.514 575.115 221.91 545.612 239.359 509.788C288.621 408.658 259.825 352.814 305.252 313.71C315.394 304.981 345.751 282.868 363.239 270.447C386.849 253.687 398.815 246.206 397.504 242.536C394.96 235.412 344.736 249.395 336.882 251.607C253.519 275.095 238.568 298.149 155.673 332.55C38.0393 381.367 -20.7776 405.776 -25.5351 406.516C-28.8628 407.032 -40.671 408.749 -43.3265 416.285C-50.1861 435.732 -19.5058 462.464 -25.5351 474.201Z" stroke="black" stroke-miterlimit="10"/>
<path d="M503.923 -19.484C502.236 -5.00499 530.405 -1.66956 551.366 41.9211C558.272 56.2815 560.671 67.2647 573.111 87.2772C591.357 116.626 601.973 118.371 604.74 118.678C615.277 119.836 616.918 111.518 635.711 104.722C659.34 96.1739 670.733 104.268 677.883 94.9528C685.592 84.8977 674.239 72.9935 679.86 56.5746C686.66 36.7017 711.732 29.4726 726.644 25.1742C734.604 22.8785 768.157 13.7306 803.74 29.361C824.773 38.5996 834.018 51.0133 839.982 46.8056C847.085 41.8025 842.954 17.8824 834.71 2.14732C821.222 -23.608 790.673 -38.9732 720.055 -46.6977C626.716 -56.9063 507.362 -48.9655 503.923 -19.484Z" stroke="black" stroke-miterlimit="10"/>
<path d="M534.893 54.4819C553.238 72.8406 561.356 87.0266 572.453 106.816C578.495 117.597 579.114 120.15 578.383 122.865C575.358 134.127 553.87 130.862 518.419 142.403C490.474 151.502 479.048 161.592 474.271 156.359C469.348 150.965 474.791 132.941 485.473 122.865C495.33 113.563 503.185 117.143 507.218 109.607C512.351 100.019 501.419 90.8644 498.651 66.3442C498.21 62.4506 495.35 37.0931 503.923 32.8505C510.183 29.7524 519.718 39.2981 534.893 54.4819Z" stroke="black" stroke-miterlimit="10"/>
<path d="M876.883 242.884C864.85 249.701 886.694 302.956 899.946 383.139C904.723 412.034 909.599 451.794 912.465 451.522C914.95 451.284 908.123 421.838 923.667 403.374C934.138 390.933 952.351 386.356 967.157 388.721C993.541 392.936 1005.86 418.663 1012.62 414.539C1020.33 409.843 1008.49 373.942 1006.69 368.485C991.611 322.759 977.384 324.12 963.204 281.96C957.438 264.815 954.954 250.218 945.412 247.768C935.996 245.347 930.408 257.516 916.419 255.444C908.452 254.265 906.983 249.834 893.356 245.675C884.085 242.849 879.446 241.432 876.883 242.884Z" stroke="black" stroke-miterlimit="10"/>
<path d="M884.131 268.003C876.223 289.676 893.56 312.417 902.581 358.017C905.546 373.006 906.693 385.831 909.829 385.929C913.045 386.027 914.225 372.608 924.326 351.737C930.54 338.905 934.092 331.802 941.458 328.71C952.186 324.203 961.207 332.304 964.521 328.013C967.875 323.665 958.169 315.948 952.66 295.217C949.175 282.098 950.268 274.667 943.435 267.305C941.412 265.128 937.742 261.172 932.233 260.327C920.768 258.576 915.193 272.406 905.876 270.096C898.463 268.261 896.73 258.206 891.379 258.932C887.234 259.497 884.862 265.994 884.131 268.003Z" stroke="black" stroke-miterlimit="10"/>
<path d="M1115.33 557.816C1135.89 561.801 1148.26 600.646 1173 678.345C1177.81 693.452 1179.99 701.337 1176.03 707.268C1166.77 721.154 1136.84 704.903 1076.63 703.249C1053.71 702.621 1056.11 704.924 1018.97 704.854C946.809 704.721 938.289 696.027 934.744 690.389C925.762 676.084 930.085 651.578 941.57 637.357C959.955 614.595 992.474 623.394 996.203 609.236C1000.16 594.192 975.211 567.669 979 560C982.11 553.699 996.032 573.768 1034.9 572.275C1047.55 571.786 1058.41 569.937 1068.29 568.255C1105.33 561.954 1105.3 555.877 1115.33 557.816Z" stroke="black" stroke-miterlimit="10"/>
<path d="M916.558 515.018C934.428 565.831 924.827 631.779 937.644 632.944C941.881 633.328 941.934 626.015 952.799 618.988C967.797 609.289 981.134 614.536 983.77 607.824C985.852 602.527 977.925 598.285 973.227 584.797C969.919 575.293 967.118 558.037 973.886 550.605C981.813 541.904 997.957 552.022 1027.92 557.583C1046.26 560.988 1091.22 569.334 1101.72 552.001C1109.04 539.922 1090.95 529.672 1073.39 473.849C1066.84 453.048 1062.18 431.661 1048.35 427.795C1044.71 426.776 1043.63 427.865 1032.53 427.795C1029.15 427.774 1013.43 427.669 1002.88 425.004C979.012 418.968 977.121 398.655 962.684 399.883C951.159 400.867 939.673 414.886 938.303 427.795C936.827 441.751 947.6 450.389 942.915 457.8C939.654 462.963 933.394 460.388 923.806 468.266C923.503 468.511 918.212 472.914 915.24 478.035C907.715 491 914.594 509.436 916.558 515.018Z" stroke="black" stroke-miterlimit="10"/>
<path d="M956.389 413.84C949.754 415.989 947.526 426.742 947.164 428.493C944.106 443.251 951.935 456.9 960.343 470.36C981.363 504.022 991.88 520.852 1001.86 528.974C1032.19 553.655 1075.75 562.426 1082.91 550.606C1088.69 541.046 1065.42 526.7 1061.16 489.201C1060.52 483.548 1059.92 473.87 1054.57 462.685C1052.28 457.884 1047.55 448.254 1038.1 442.449C1029.74 437.313 1026.74 440.718 1012.4 437.564C990.562 432.764 971.545 420.12 971.545 420.12C965.384 416.024 961.12 412.305 956.389 413.84Z" stroke="black" stroke-miterlimit="10"/>
<path d="M1186.58 815.766C1157.33 812.158 1142.7 810.351 1133.21 814.37C1113.08 822.897 1096.46 847.11 1094.99 870.891C1093.38 896.981 1111.14 904.189 1111.47 942.763C1111.57 955.448 1109.7 960.368 1113.44 967.883C1122.15 985.376 1147.13 988.44 1161.54 990.212C1194.57 994.266 1200.12 982.697 1225.46 989.514C1246.04 995.048 1247.02 1003.92 1264.34 1004.87C1278.47 1005.63 1300.45 1000.96 1309.81 983.932C1317.17 970.534 1313.61 955.141 1309.15 935.785C1306.7 925.192 1303.75 918.11 1297.94 904.384C1285.6 875.182 1279.42 860.577 1267.63 848.561C1253.66 834.32 1238.64 828.277 1230.07 824.837C1217.04 819.596 1206.71 818.25 1186.58 815.766Z" stroke="black" stroke-miterlimit="10"/>
<path d="M1280.81 1022.31C1282.55 1014.38 1299.99 1018.11 1313.76 1001.38C1316.18 998.439 1321.63 991.824 1323.64 981.838C1325.21 974.114 1323.61 969.809 1324.96 969.278C1328.76 967.771 1336.87 1003.74 1364.5 1034.17C1375.44 1046.22 1383.05 1050.37 1381.63 1055.11C1379.08 1063.56 1350.91 1062.87 1328.92 1056.5C1303.84 1049.25 1278.64 1032.29 1280.81 1022.31Z" stroke="black" stroke-miterlimit="10"/>
<path d="M987.584 1027.89C976.461 1014 985.943 1005.28 975.723 946.947C968.62 906.385 961.734 897.467 963.862 870.889C964.706 860.401 967.935 820.083 988.902 812.973C1001.4 808.737 1016.37 817.578 1024.48 825.533C1040.3 841.038 1039.18 862.139 1046.89 862.515C1055.12 862.92 1057.8 838.909 1070.61 837.395C1077.04 836.635 1084.11 841.77 1087.08 847.862C1092.7 859.375 1080.58 867.923 1081.81 886.24C1082.93 902.868 1093.39 902.722 1098.29 923.921C1102.23 941.009 1096.08 943.863 1099.6 963.694C1101.48 974.217 1104.6 991.766 1116.74 1000.68C1123.89 1005.93 1130.09 1005.18 1162.2 1002.77C1204.7 999.574 1209.85 999.665 1216.9 1001.37C1237.71 1006.43 1260.29 1022.01 1258.41 1030.68C1255.67 1043.3 1203.68 1029.89 1106.19 1034.87C1033.84 1038.57 1004.42 1048.92 987.584 1027.89Z" stroke="black" stroke-miterlimit="10"/>
<path d="M1000.76 1021.61C996.085 1016.06 994.747 1009.91 992.856 1000.68C988.322 978.566 993.067 968.12 992.856 949.74C992.579 925.939 984.441 928.653 978.359 891.126C974.761 868.944 971.585 847.682 982.972 836.699C984.165 835.548 991.314 828.912 999.445 830.419C1012.4 832.819 1011.91 852.936 1032.39 868.797C1037.7 872.907 1045.18 878.531 1052.82 876.473C1062.94 873.751 1066.16 859.516 1068.63 860.424C1071.35 861.414 1072.79 880.387 1062.7 892.522C1049.95 907.866 1030.29 898.432 1021.85 912.06C1017.16 919.638 1022.44 923.838 1021.85 949.74C1021.31 973.59 1016.72 975.251 1019.21 985.327C1025.52 1010.75 1058.45 1014.98 1056.77 1023.71C1055.03 1032.82 1016.74 1040.56 1000.76 1021.61Z" stroke="black" stroke-miterlimit="10"/>
<path d="M939.482 717.377C928.332 724.927 942.091 747.012 946.73 771.106C951.817 797.517 948.726 825.75 956.614 825.534C962.67 825.366 961.872 810.315 976.382 800.413C988.019 792.472 1006.62 789.814 1019.21 798.32C1035.36 809.219 1034.3 833.509 1043.59 833.907C1050.39 834.193 1051.48 821.263 1062.04 818.556C1073.23 815.688 1079.53 828.29 1091.04 826.231C1100.37 824.564 1102.33 815.206 1110.15 807.391C1127.94 789.598 1159.75 796.101 1194.49 803.204C1229.52 810.364 1247.96 827.948 1252.48 822.045C1254.34 819.609 1252.33 815.395 1239.96 792.04C1206.74 729.309 1214 745.902 1208.33 734.124C1200.24 717.314 1197.23 707.971 1192.51 708.306C1186.54 708.724 1188.03 723.943 1178.68 732.728C1165.3 745.288 1144.14 731.172 1101.58 725.052C1083.28 722.422 1092.76 725.834 1036.35 722.959C992.322 720.719 970.313 719.596 965.18 718.772C948.357 716.072 944.318 714.104 939.482 717.377Z" stroke="black" stroke-miterlimit="10"/>
<path d="M1218.3 427.224C1208.95 421.634 1163.77 394.609 1130.57 418.257C1117.5 427.566 1104.72 445.841 1105.94 465.525C1106.84 480.074 1115.05 490.024 1129.8 507.902C1140.79 521.229 1146.29 527.893 1153.65 528.277C1169.06 529.073 1172.67 505.32 1192.13 502.201C1206.93 499.828 1211.21 512.549 1228.29 511.167C1242.85 509.988 1259.65 499.151 1262.93 485.091C1269.19 458.303 1223.93 430.587 1218.3 427.224Z" stroke="black" stroke-miterlimit="10"/>
<path d="M1229.76 421.035C1218.92 414.545 1166.45 383.166 1127.89 410.624C1112.72 421.433 1097.88 442.652 1099.29 465.505C1100.34 482.398 1109.87 493.953 1127 514.713C1139.77 530.19 1146.15 537.928 1154.7 538.368C1172.59 539.296 1176.78 511.712 1199.38 508.084C1216.57 505.327 1221.53 520.093 1241.38 518.495C1258.28 517.127 1277.78 504.546 1281.59 488.211C1288.84 457.124 1236.29 424.942 1229.76 421.035Z" stroke="black" stroke-miterlimit="10"/>
<path d="M1249.07 418.363C1236.97 407.694 1178.47 356.079 1125.53 383.46C1104.7 394.241 1082.23 418.545 1079.47 448.389C1077.43 470.446 1086.91 487.388 1103.93 517.833C1116.62 540.525 1122.97 551.871 1133.43 554.243C1155.3 559.204 1165.9 524.434 1194.47 524.51C1216.2 524.566 1219.42 544.704 1244.19 546.812C1265.3 548.605 1291.82 536.443 1299.73 516.137C1314.8 477.459 1256.35 424.79 1249.07 418.363Z" stroke="black" stroke-miterlimit="10"/>
<path d="M1488.54 170.573C1479.38 171.327 1435.07 174.962 1422.14 208.561C1417.04 221.784 1416.2 241.231 1425.94 254.608C1433.14 264.495 1443.46 267.419 1462.01 272.666C1475.83 276.581 1482.74 278.535 1488.15 275.088C1499.46 267.866 1491.32 249.158 1503.74 237.1C1513.19 227.931 1521.96 234.805 1533.49 225.182C1543.31 216.983 1550.35 200.794 1546.35 189.134C1538.71 166.938 1494.05 170.12 1488.54 170.573Z" stroke="black" stroke-miterlimit="10"/>
<path d="M1488.85 169.651C1478.16 170.53 1426.41 174.78 1411.31 214.016C1405.37 229.458 1404.38 252.171 1415.76 267.795C1424.16 279.343 1436.22 282.755 1457.88 288.882C1474.02 293.452 1482.09 295.741 1488.4 291.708C1501.61 283.272 1492.1 261.424 1506.61 247.343C1517.65 236.632 1527.9 244.663 1541.36 233.429C1552.82 223.855 1561.05 204.945 1556.37 191.331C1547.46 165.409 1495.3 169.128 1488.85 169.651Z" stroke="black" stroke-miterlimit="10"/>
<path d="M1495.11 157.747C1482.69 158.766 1422.61 163.699 1405.07 209.257C1398.16 227.191 1397.02 253.56 1410.23 271.702C1419.99 285.107 1433.99 289.07 1459.14 296.195C1477.89 301.505 1487.26 304.156 1494.59 299.474C1509.93 289.677 1498.89 264.306 1515.74 247.957C1528.55 235.522 1540.45 244.844 1556.08 231.796C1569.39 220.68 1578.96 198.721 1573.52 182.916C1563.16 152.821 1502.59 157.133 1495.11 157.747Z" stroke="black" stroke-miterlimit="10"/>
<path d="M1060.73 431.982C1039.81 377.401 1015.7 341.005 996.151 316.847C983.782 301.566 956.654 270.675 963.862 247.069C965.2 242.694 967.256 240.077 975.723 219.157C982.51 202.396 983.13 199.27 986.266 198.224C992.566 196.116 998.958 205.739 1025.14 235.206C1042.08 254.263 1048.45 260.41 1056.77 266.607C1067.33 274.464 1069.88 274.101 1081.15 281.26C1104.57 296.137 1106.07 305.669 1133.21 329.407C1156.56 349.832 1169.01 354.639 1167.47 360.11C1164.94 369.153 1130.81 356.412 1100.26 377.555C1091.81 383.409 1084.01 388.81 1079.84 399.186C1074.97 411.286 1077.81 423.287 1069.95 429.191C1066.78 431.57 1063.17 431.982 1060.73 431.982Z" stroke="black" stroke-miterlimit="10"/>
<path d="M1046.89 219.158C1031.83 226.31 1017.08 199.864 1014.6 197.527C1011.29 194.415 991.518 188.79 989.561 169.615C987.868 153.057 996.19 145.591 991.538 129.842C988.138 118.335 981.502 114.895 982.972 112.397C986.451 106.487 1021.55 129.025 1075.22 147.286C1097.28 154.794 1125.85 162.728 1125.3 165.429C1124.82 167.829 1102.61 159.895 1083.79 172.406C1078.68 175.805 1075.61 179.524 1069.95 186.362C1053.87 205.823 1055.69 214.978 1046.89 219.158Z" stroke="black" stroke-miterlimit="10"/>
<path d="M1373.06 1023.7C1368.26 1025.64 1348.23 967.079 1299.92 877.169C1271.66 824.57 1268.26 825.526 1239.3 769.71C1208.16 709.694 1192.59 679.689 1185.27 656.669C1175.63 626.364 1172.41 600.107 1154.3 583.402C1152.13 581.406 1146.65 576.682 1147.05 570.842C1147.96 557.514 1178.66 550.355 1180.65 549.908C1188.43 548.164 1199.09 546.956 1214.26 549.21C1249.3 554.416 1255.17 570.179 1273.56 565.957C1293.15 561.463 1304.45 539.469 1305.85 536.65C1315.28 517.719 1309.73 502.577 1316.4 499.667C1323.58 496.527 1333.04 512.828 1354.61 534.557C1383.73 563.885 1393.29 561.184 1415.24 587.588C1425.03 599.374 1447.17 626.008 1440.28 638.527C1434.62 648.791 1415.32 638.883 1377.68 643.411C1359.36 645.616 1330.21 649.119 1305.19 670.625C1297.38 677.345 1272.09 701.181 1268.95 736.217C1267.08 757.122 1274.3 768.608 1297.94 816.462C1323.28 867.728 1339.85 901.48 1353.3 939.97C1366.88 978.844 1377.11 1022.07 1373.06 1023.7Z" stroke="black" stroke-miterlimit="10"/>
<path d="M1328.26 531.768C1323.69 532.152 1326.45 549.101 1316.4 561.773C1304.87 576.287 1290.63 567.425 1278.84 580.613C1276.28 583.474 1274.24 586.921 1268.95 632.947C1266.17 657.181 1266.12 661.556 1268.95 663.65C1274.88 668.032 1285.6 656.651 1311.78 642.018C1332.33 630.533 1345.38 623.241 1361.86 621.085C1393.81 616.898 1414.58 635.152 1418.53 628.76C1422.46 622.41 1405.6 598.574 1384.27 583.404C1364.24 569.169 1350.19 569.63 1339.46 552.004C1333.22 541.753 1331.81 531.468 1328.26 531.768Z" stroke="black" stroke-miterlimit="10"/>
<path d="M1419.85 845.769C1402.8 853.25 1400.21 861.009 1384.93 870.192C1368.58 880.017 1363.33 876.088 1359.23 883.45C1355.41 890.295 1357.73 897.678 1364.5 921.828C1370.85 944.492 1374.03 955.817 1375.04 960.206C1382.8 993.672 1378.4 1003.62 1388.88 1017.42C1391.38 1020.72 1399.54 1031.48 1411.94 1032.78C1430.3 1034.7 1446.21 1014.65 1452.8 999.282C1458.46 986.066 1454.17 983.422 1458.07 965.091C1464.72 933.774 1483.44 912.24 1496.94 896.708C1508.24 883.715 1513.89 877.219 1521.33 872.983C1556.56 852.915 1601.01 874.393 1616.87 882.054C1627.22 887.05 1637 891.774 1647.84 901.592C1665.55 917.62 1669.13 931.841 1678.15 931.597C1687.96 931.325 1696.81 914.173 1699.9 900.894C1708.31 864.707 1684.7 811.236 1645.87 792.738C1620.4 780.61 1574.2 795.347 1481.79 824.836C1461.45 831.325 1457.55 833.495 1431.71 841.583C1426.62 843.174 1423.91 843.983 1419.85 845.769Z" stroke="black" stroke-miterlimit="10"/>
<path d="M1501.56 1032.77C1499.12 1020.19 1521.21 998.632 1542.41 995.792C1562.61 993.085 1572.62 1008.63 1591.83 1002.07C1594.03 1001.32 1595.88 1000.44 1618.85 980.441C1642.47 959.87 1644.3 957.505 1650.48 955.321C1662.67 951.008 1679.4 951.762 1691.33 960.903C1708.7 974.217 1714.95 1004.63 1707.15 1023.01C1683.13 1079.57 1507.81 1065.01 1501.56 1032.77Z" stroke="black" stroke-miterlimit="10"/>
<path d="M1476.52 646.901C1471.61 646.664 1460.76 646.294 1454.11 653.879C1447.23 661.743 1447.17 675.538 1451.48 685.279C1457.7 699.332 1469.5 696.995 1481.79 712.493C1492.25 725.674 1494.34 740.767 1494.97 745.289C1499.12 775.182 1481.17 793.331 1487.72 800.414C1493.27 806.422 1507.53 794.81 1535.82 785.76C1577.45 772.446 1598.54 780.959 1603.03 769.711C1605.89 762.58 1599.39 754.206 1560.86 712.493C1516.65 664.624 1499.7 648.031 1476.52 646.901Z" stroke="black" stroke-miterlimit="10"/>
<path d="M1162.2 189.853C1158.66 195.512 1173.74 206.425 1179.34 235.907C1181.31 246.332 1183.65 259.555 1178.02 274.285C1176.35 278.653 1169.04 296.056 1152.98 302.894C1145.49 306.076 1141.43 304.708 1140.46 307.081C1137.19 315.049 1178.89 340.379 1205.03 358.019C1212.25 362.89 1280.54 409.46 1338.8 473.154C1380.75 519.026 1399.55 554.153 1422.48 548.515C1427.35 547.321 1430.11 544.851 1448.18 523.394C1493.87 469.148 1491.9 466.274 1502.22 459.896C1535.14 439.534 1560.43 465.513 1580.63 444.545C1595.67 428.928 1596.08 399.516 1587.88 379.65C1579.11 358.41 1560.64 348.397 1550.98 343.366C1486.34 309.711 1437.23 302.099 1380.31 280.565C1367.07 275.555 1329.75 257.685 1255.11 221.951C1218.61 204.471 1168.32 180.063 1162.2 189.853Z" stroke="black" stroke-miterlimit="10"/>
<path d="M1685.4 401.977C1679.41 395.187 1662.95 388.146 1630.05 374.065C1617.12 368.532 1609.39 365.747 1606.33 369.181C1601.53 374.567 1615.46 387.176 1615.55 408.954C1615.65 430.676 1601.87 439.399 1606.99 451.519C1610.23 459.195 1617.83 460.639 1632.03 466.173C1673.9 482.508 1680.18 498.222 1690.01 493.386C1706.62 485.215 1710.03 429.846 1685.4 401.977Z" stroke="black" stroke-miterlimit="10"/>
<path d="M1356.59 101.233C1347.3 114.617 1366.97 132.529 1360.54 161.941C1357.59 175.464 1352.49 176.001 1350 192.643C1347.7 208.05 1350.82 215.991 1345.39 221.252C1337.62 228.767 1322.37 221.127 1321.01 224.741C1319.58 228.516 1335.63 238.536 1338.14 240.093C1358.9 252.939 1382.14 267.32 1390.2 259.631C1398.08 252.094 1380.66 233.589 1386.9 204.505C1387.49 201.77 1392.42 180.209 1409.96 166.127C1431.95 148.487 1450.69 161.11 1467.29 143.1C1474.87 134.88 1481.43 120.897 1477.84 108.909C1472.81 92.162 1450.37 87.2496 1440.93 85.1841C1426.56 82.0371 1410.7 85.6446 1378.99 92.8598C1360.75 97.0116 1358.4 98.6235 1356.59 101.233Z" stroke="black" stroke-miterlimit="10"/>
<path d="M362.91 180.781C347.28 191.938 338.153 213.66 343.142 219.857C347.583 225.369 360.399 215.084 394.539 204.505C434.365 192.162 451.656 195.385 457.797 181.478C462.172 171.57 459.029 157.196 451.867 152.869C443.116 147.587 434.385 160.922 407.718 169.616C383.429 177.536 376.451 171.116 362.91 180.781Z" stroke="black" stroke-miterlimit="10"/>
<path d="M868.316 4.93743C863.236 12.6689 862.241 21.3842 861.727 25.871C861.094 31.3835 858.966 50.0283 867.657 56.5736C873.93 61.2906 880.111 55.4152 899.945 52.3869C910.824 50.7261 924.392 48.6537 938.823 53.0846C949.082 56.2386 957.082 62.6303 973.088 75.4138C988.144 87.4436 987.327 88.881 995.492 94.9518C1018.36 111.957 1030.12 104.623 1067.97 120.77C1087.28 129.004 1099.17 137.286 1100.92 134.726C1104.24 129.883 1060.65 101.699 1066 77.5071C1067.51 70.6967 1076.22 64.1236 1093.67 50.9913C1116.28 33.9723 1124.39 32.5907 1129.92 20.9865C1133.42 13.6179 1137.72 -1.71247 1131.23 -11.1116C1124.17 -21.3551 1107.84 -19.4223 1033.05 -7.62271C988.256 -0.554146 986.418 -0.0308072 979.018 -0.644859C948.008 -3.20573 939.416 -15.738 909.17 -13.205C898.061 -12.2769 878.345 -10.3301 868.316 4.93743Z" stroke="black" stroke-miterlimit="10"/>
<path d="M1142.43 12.6129C1132.15 28.0967 1128.91 46.2671 1109.49 57.2712C1098.08 63.7396 1088.18 63.7047 1084.45 72.6224C1080.26 82.6287 1087.51 95.0423 1092.36 103.325C1098.5 113.834 1104.95 119.981 1131.23 141.703C1148.44 155.924 1157.16 163.111 1162.86 166.824C1170.31 171.673 1202.66 192.739 1209.65 184.966C1215.35 178.623 1196.25 161.848 1201.08 137.517C1203.24 126.673 1210.44 112.801 1222.17 106.116C1227.73 102.941 1230.9 103.332 1245.89 96.3472C1257.85 90.7718 1259.44 88.846 1260.38 87.2759C1264.31 80.7726 1260.3 75.3229 1258.41 57.2712C1256.96 43.4201 1255.97 33.993 1260.38 24.4752C1264.19 16.2693 1268.19 16.2623 1270.27 9.12394C1273.21 -0.986975 1268.64 -12.7098 1264.34 -18.0897C1246.43 -40.4886 1171.13 -30.601 1142.43 12.6129Z" stroke="black" stroke-miterlimit="10"/>
<path d="M1693.31 169.617C1674.77 158.864 1643.38 157.74 1619.51 171.71C1613.32 175.331 1598.38 184.075 1589.86 201.715C1582.65 216.619 1586.38 224.742 1577.34 234.511C1570.36 242.047 1560.93 245.005 1547.68 249.164C1533.23 253.7 1529.12 252.095 1523.96 257.538C1518.11 263.706 1522.35 266.867 1514.74 281.262C1510.93 288.456 1506.95 293.208 1504.85 302.894C1504.03 306.676 1503.63 308.56 1504.19 310.569C1506.98 320.415 1528.33 321.629 1536.48 322.432C1541.61 322.934 1567.21 334.175 1618.19 356.623C1685.36 386.202 1686.75 387.849 1691.99 385.93C1737.08 369.4 1752.49 203.962 1693.31 169.617Z" stroke="black" stroke-miterlimit="10"/>
</g>
<defs>
<clipPath id="clip0">
<rect width="1680" height="1050" fill="white"/>
</clipPath>
</defs>
</svg>
