<svg width="163" height="164" viewBox="0 0 163 164" fill="none" xmlns="http://www.w3.org/2000/svg">
<path d="M109.135 7.72293C84.7545 1.14979 70.5281 -2.45773 52.236 3.8363C43.8213 6.73211 32.3887 12.4679 21.4173 24.0441C13.8461 32.0268 4.81211 41.5586 1.86006 57.4611C0.0743323 67.0766 1.8534 76.0431 5.41827 93.9832C10.044 117.275 16.5148 132.661 20.2378 140.609C26.0167 152.96 28.9029 159.128 33.2782 161.592C37.8118 164.139 43.7027 164.264 72.9925 145.27C95.3306 130.791 97.5116 127.079 107.962 124.288C120.976 120.813 123.144 125.084 132.264 120.401C149.397 111.609 156.698 88.8545 157.752 85.4284C158.971 81.472 167.148 53.7628 156.566 32.585C149.574 18.6293 136.092 14.9939 109.135 7.72293Z" stroke="black" stroke-miterlimit="10"/>
</svg>
