<svg width="168" height="174" viewBox="0 0 168 174" fill="none" xmlns="http://www.w3.org/2000/svg">
<g clip-path="url(#clip0)">
<mask id="mask0" mask-type="alpha" maskUnits="userSpaceOnUse" x="-130" y="-151" width="427" height="414">
<path d="M-129 73.2715L29.1503 262.35M-36.9536 -3.71854L121.197 185.36M-82.9768 34.7765L75.1735 223.855M9.06957 -42.2135L167.22 146.865M96.5136 -115.354L254.664 73.7245M-105.988 54.024L52.1619 243.103M-13.942 -22.966L144.208 166.113M73.502 -96.1066L231.652 92.9721M-59.9652 15.529L98.1851 204.608M32.0812 -61.4611L190.232 127.618M119.525 -134.602L277.676 54.477M-119.795 65.5725L38.355 254.651M-27.749 -11.4175L130.401 177.661M59.6951 -84.5581L217.845 104.521M-73.7722 27.0775L84.3782 216.156M18.2742 -49.9125L176.425 139.166M105.718 -123.053L263.869 66.0255M-96.7838 46.325L61.3666 235.404M-4.73738 -30.665L153.413 158.414M82.7067 -103.806L240.857 85.273M-50.7606 7.82997L107.39 196.909M41.2858 -69.1601L199.436 119.919M128.73 -142.301L286.88 46.778M-124.398 69.422L33.7527 258.501M-32.3513 -7.56804L125.799 181.511M55.0928 -80.7086L213.243 108.37M-78.3745 30.927L79.7758 220.006M13.6719 -46.063L171.822 143.016M101.116 -119.204L259.266 69.875M-101.386 50.1745L56.7642 239.253M-9.3397 -26.8155L148.811 162.263M78.1044 -99.9561L236.255 89.1225M-55.3629 11.6795L102.787 200.758M36.6835 -65.3106L194.834 123.768M124.128 -138.451L282.278 50.6275M-115.193 61.723L42.9573 250.802M-23.1467 -15.267L135.004 173.812M64.2974 -88.4076L222.448 100.671M-69.1699 23.228L88.9805 212.307M22.8765 -53.762L181.027 135.317M110.321 -126.903L268.471 62.176M-92.1814 42.4755L65.9689 231.554M-0.135065 -34.5145L158.015 154.564M87.309 -107.655L245.459 81.4235M-46.1583 3.98047L111.992 193.059M45.8881 -73.0096L204.038 116.069M133.332 -146.15L291.483 42.9285M-110.591 57.8735L47.5596 246.952M-18.5443 -19.1165L139.606 169.962M68.8997 -92.2571L227.05 96.8216M-64.5675 19.3785L93.5828 208.457M27.4789 -57.6116L185.629 131.467M114.923 -130.752L273.073 58.3265M-87.5791 38.626L70.5712 227.705M4.46725 -38.364L162.618 150.715M91.9113 -111.505L250.062 77.574M-41.5559 0.130965L116.594 189.21M50.4904 -76.8591L208.641 112.22M137.935 -150L296.085 39.079" stroke="black"/>
</mask>
<g mask="url(#mask0)">
<path d="M111.977 13.1585C87.5963 6.58533 73.3699 2.97782 55.0777 9.27184C46.6631 12.1677 35.2305 17.9034 24.2591 29.4797C16.6879 37.4624 7.6539 46.9941 4.70186 62.8967C2.91613 72.5121 4.6952 81.4787 8.26006 99.4187C12.8858 122.711 19.3566 138.097 23.0796 146.045C28.8585 158.396 31.7447 164.564 36.12 167.027C40.6535 169.574 46.5445 169.7 75.8343 150.706C98.1724 136.227 100.353 132.515 110.804 129.724C123.818 126.249 125.986 130.519 135.106 125.837C152.238 117.045 159.539 94.2901 160.594 90.864C161.813 86.9075 169.99 59.1984 159.408 38.0206C152.416 24.0649 138.934 20.4294 111.977 13.1585Z" fill="black" stroke="black" stroke-miterlimit="10"/>
</g>
</g>
<defs>
<clipPath id="clip0">
<rect width="168" height="174" fill="white"/>
</clipPath>
</defs>
</svg>
