<?xml version="1.0" encoding="utf-8"?>
<!-- Generator: Adobe Illustrator 24.0.1, SVG Export Plug-In . SVG Version: 6.00 Build 0)  -->
<svg version="1.1" id="Слой_1" xmlns="http://www.w3.org/2000/svg" xmlns:xlink="http://www.w3.org/1999/xlink" x="0px" y="0px"
	 viewBox="0 0 163 164" style="enable-background:new 0 0 163 164;" xml:space="preserve">
<style type="text/css">
	.st0{fill:none;stroke:#FFFFFF;stroke-miterlimit:10;}
</style>
<path class="st0" d="M109.1,7.7C84.8,1.1,70.5-2.5,52.2,3.8C43.8,6.7,32.4,12.5,21.4,24C13.8,32,4.8,41.6,1.9,57.5
	C0.1,67.1,1.9,76,5.4,94c4.6,23.3,11.1,38.7,14.8,46.6c5.8,12.4,8.7,18.5,13,21c4.5,2.5,10.4,2.7,39.7-16.3
	c22.3-14.5,24.5-18.2,35-21c13-3.5,15.2,0.8,24.3-3.9c17.1-8.8,24.4-31.5,25.5-35c1.2-4,9.4-31.7-1.2-52.8
	C149.6,18.6,136.1,15,109.1,7.7z"/>
</svg>
