<svg width="153" height="350" viewBox="0 0 153 350" fill="none" xmlns="http://www.w3.org/2000/svg">
<path d="M152.691 144.574H145.74V152.18H152.691V144.574Z" fill="#E6A47B"/>
<path d="M152.691 136.955H145.74V144.569H152.691V136.955Z" fill="#E6A47B"/>
<path d="M145.74 152.176H138.802V159.789H145.74V152.176Z" fill="#E6A47B"/>
<path d="M145.74 144.574H138.802V152.18H145.74V144.574Z" fill="#E6A47B"/>
<path d="M145.74 136.955H138.802V144.569H145.74V136.955Z" fill="#E6A47B"/>
<path d="M145.74 129.348H138.802V136.953H145.74V129.348Z" fill="#E6A47B"/>
<path d="M145.74 121.748H138.802V129.354H145.74V121.748Z" fill="#E6A47B"/>
<path d="M145.74 114.135H138.802V121.748H145.74V114.135Z" fill="#E6A47B"/>
<path d="M145.74 53.2637H138.802V60.8771H145.74V53.2637Z" fill="#E6A47B"/>
<path d="M145.74 22.832H138.802V30.4377H145.74V22.832Z" fill="#E6A47B"/>
<path d="M145.74 15.2188H138.802V22.8322H145.74V15.2188Z" fill="#E6A47B"/>
<path d="M138.804 175H131.866V182.613H138.804V175Z" fill="#E6A47B"/>
<path d="M138.804 167.395H131.866V175H138.804V167.395Z" fill="#E6A47B"/>
<path d="M138.804 159.787H131.866V167.393H138.804V159.787Z" fill="#E6A47B"/>
<path d="M138.804 152.176H131.866V159.789H138.804V152.176Z" fill="#E6A47B"/>
<path d="M138.804 144.574H131.866V152.18H138.804V144.574Z" fill="#E6A47B"/>
<path d="M138.804 136.955H131.866V144.569H138.804V136.955Z" fill="#E6A47B"/>
<path d="M138.804 129.348H131.866V136.953H138.804V129.348Z" fill="#E6A47B"/>
<path d="M138.804 121.748H131.866V129.354H138.804V121.748Z" fill="#E6A47B"/>
<path d="M138.804 114.135H131.866V121.748H138.804V114.135Z" fill="#E6A47B"/>
<path d="M138.804 106.527H131.866V114.133H138.804V106.527Z" fill="#E6A47B"/>
<path d="M138.804 83.7012H131.866V91.3069H138.804V83.7012Z" fill="#E6A47B"/>
<path d="M138.804 76.0879H131.866V83.7013H138.804V76.0879Z" fill="#E6A47B"/>
<path d="M138.804 53.2637H131.866V60.8771H138.804V53.2637Z" fill="#E6A47B"/>
<path d="M138.804 45.6562H131.866V53.2619H138.804V45.6562Z" fill="#E6A47B"/>
<path d="M138.804 22.832H131.866V30.4377H138.804V22.832Z" fill="#E6A47B"/>
<path d="M131.865 190.219H124.921V197.832H131.865V190.219Z" fill="#E6A47B"/>
<path d="M131.865 182.613H124.921V190.219H131.865V182.613Z" fill="#E6A47B"/>
<path d="M131.865 175H124.921V182.613H131.865V175Z" fill="#E6A47B"/>
<path d="M131.865 167.395H124.921V175H131.865V167.395Z" fill="white"/>
<path d="M131.865 159.787H124.921V167.393H131.865V159.787Z" fill="white"/>
<path d="M131.865 152.176H124.921V159.789H131.865V152.176Z" fill="white"/>
<path d="M131.865 144.574H124.921V152.18H131.865V144.574Z" fill="white"/>
<path d="M131.865 136.955H124.921V144.569H131.865V136.955Z" fill="white"/>
<path d="M131.865 129.348H124.921V136.953H131.865V129.348Z" fill="white"/>
<path d="M131.865 121.748H124.921V129.354H131.865V121.748Z" fill="white"/>
<path d="M131.865 114.135H124.921V121.748H131.865V114.135Z" fill="#E6A47B"/>
<path d="M131.865 106.527H124.921V114.133H131.865V106.527Z" fill="#E6A47B"/>
<path d="M131.865 98.9121H124.921V106.526H131.865V98.9121Z" fill="#E6A47B"/>
<path d="M131.865 91.3086H124.921V98.9142H131.865V91.3086Z" fill="#E6A47B"/>
<path d="M131.865 83.7012H124.921V91.3069H131.865V83.7012Z" fill="#E6A47B"/>
<path d="M131.865 76.0879H124.921V83.7013H131.865V76.0879Z" fill="#E6A47B"/>
<path d="M131.865 68.4824H124.921V76.0881H131.865V68.4824Z" fill="#E6A47B"/>
<path d="M131.865 45.6562H124.921V53.2619H131.865V45.6562Z" fill="#E6A47B"/>
<path d="M131.865 22.832H124.921V30.4377H131.865V22.832Z" fill="#E6A47B"/>
<path d="M131.865 15.2188H124.921V22.8322H131.865V15.2188Z" fill="#E6A47B"/>
<path d="M124.922 251.086H117.984V258.699H124.922V251.086Z" fill="#E6A47B"/>
<path d="M124.922 243.482H117.984V251.088H124.922V243.482Z" fill="#E6A47B"/>
<path d="M124.922 213.047H117.984V220.66H124.922V213.047Z" fill="#E6A47B"/>
<path d="M124.922 205.438H117.984V213.043H124.922V205.438Z" fill="#E6A47B"/>
<path d="M124.922 197.832H117.984V205.438H124.922V197.832Z" fill="#E6A47B"/>
<path d="M124.922 190.219H117.984V197.832H124.922V190.219Z" fill="#E6A47B"/>
<path d="M124.922 182.613H117.984V190.219H124.922V182.613Z" fill="white"/>
<path d="M124.922 175H117.984V182.613H124.922V175Z" fill="white"/>
<path d="M124.922 167.395H117.984V175H124.922V167.395Z" fill="white"/>
<path d="M124.922 159.787H117.984V167.393H124.922V159.787Z" fill="white"/>
<path d="M124.922 152.176H117.984V159.789H124.922V152.176Z" fill="white"/>
<path d="M124.922 144.574H117.984V152.18H124.922V144.574Z" fill="white"/>
<path d="M124.922 136.955H117.984V144.569H124.922V136.955Z" fill="white"/>
<path d="M124.922 129.348H117.984V136.953H124.922V129.348Z" fill="white"/>
<path d="M124.922 121.748H117.984V129.354H124.922V121.748Z" fill="white"/>
<path d="M124.922 114.135H117.984V121.748H124.922V114.135Z" fill="white"/>
<path d="M124.922 106.527H117.984V114.133H124.922V106.527Z" fill="white"/>
<path d="M124.922 98.9121H117.984V106.526H124.922V98.9121Z" fill="white"/>
<path d="M124.922 91.3086H117.984V98.9142H124.922V91.3086Z" fill="#E6A47B"/>
<path d="M124.922 83.7012H117.984V91.3069H124.922V83.7012Z" fill="#E6A47B"/>
<path d="M124.922 76.0879H117.984V83.7013H124.922V76.0879Z" fill="#E6A47B"/>
<path d="M124.922 68.4824H117.984V76.0881H124.922V68.4824Z" fill="#E6A47B"/>
<path d="M124.922 60.877H117.984V68.4826H124.922V60.877Z" fill="#E6A47B"/>
<path d="M124.922 45.6562H117.984V53.2619H124.922V45.6562Z" fill="#E6A47B"/>
<path d="M124.922 15.2188H117.984V22.8322H124.922V15.2188Z" fill="#E6A47B"/>
<path d="M124.922 7.61328H117.984V15.219H124.922V7.61328Z" fill="#E6A47B"/>
<path d="M117.983 342.395H111.039V350H117.983V342.395Z" fill="white"/>
<path d="M117.983 243.482H111.039V251.088H117.983V243.482Z" fill="#E6A47B"/>
<path d="M117.983 235.877H111.039V243.483H117.983V235.877Z" fill="white"/>
<path d="M117.983 228.264H111.039V235.877H117.983V228.264Z" fill="white"/>
<path d="M117.983 220.656H111.039V228.262H117.983V220.656Z" fill="white"/>
<path d="M117.983 213.047H111.039V220.66H117.983V213.047Z" fill="white"/>
<path d="M117.983 205.438H111.039V213.043H117.983V205.438Z" fill="white"/>
<path d="M117.983 197.832H111.039V205.438H117.983V197.832Z" fill="white"/>
<path d="M117.983 190.219H111.039V197.832H117.983V190.219Z" fill="white"/>
<path d="M117.983 182.613H111.039V190.219H117.983V182.613Z" fill="white"/>
<path d="M117.983 175H111.039V182.613H117.983V175Z" fill="white"/>
<path d="M117.983 167.395H111.039V175H117.983V167.395Z" fill="white"/>
<path d="M117.983 159.787H111.039V167.393H117.983V159.787Z" fill="white"/>
<path d="M117.983 152.176H111.039V159.789H117.983V152.176Z" fill="#C1C1C1"/>
<path d="M117.983 144.574H111.039V152.18H117.983V144.574Z" fill="#C1C1C1"/>
<path d="M117.983 136.955H111.039V144.569H117.983V136.955Z" fill="#C1C1C1"/>
<path d="M117.983 129.348H111.039V136.953H117.983V129.348Z" fill="#C1C1C1"/>
<path d="M117.983 121.748H111.039V129.354H117.983V121.748Z" fill="#C1C1C1"/>
<path d="M117.983 114.135H111.039V121.748H117.983V114.135Z" fill="#C1C1C1"/>
<path d="M117.983 106.527H111.039V114.133H117.983V106.527Z" fill="white"/>
<path d="M117.983 98.9121H111.039V106.526H117.983V98.9121Z" fill="white"/>
<path d="M117.983 91.3086H111.039V98.9142H117.983V91.3086Z" fill="white"/>
<path d="M117.983 83.7012H111.039V91.3069H117.983V83.7012Z" fill="white"/>
<path d="M117.983 76.0879H111.039V83.7013H117.983V76.0879Z" fill="white"/>
<path d="M117.983 68.4824H111.039V76.0881H117.983V68.4824Z" fill="#E6A47B"/>
<path d="M117.983 60.877H111.039V68.4826H117.983V60.877Z" fill="#E6A47B"/>
<path d="M117.983 53.2637H111.039V60.8771H117.983V53.2637Z" fill="#E6A47B"/>
<path d="M117.983 38.0449H111.039V45.6584H117.983V38.0449Z" fill="#E6A47B"/>
<path d="M117.983 30.4375H111.039V38.0432H117.983V30.4375Z" fill="#E6A47B"/>
<path d="M117.983 15.2188H111.039V22.8322H117.983V15.2188Z" fill="#E6A47B"/>
<path d="M117.983 7.61328H111.039V15.219H117.983V7.61328Z" fill="#E6A47B"/>
<path d="M111.04 342.395H104.103V350H111.04V342.395Z" fill="white"/>
<path d="M111.04 266.309H104.103V273.922H111.04V266.309Z" fill="white"/>
<path d="M111.04 258.703H104.103V266.309H111.04V258.703Z" fill="white"/>
<path d="M111.04 251.086H104.103V258.699H111.04V251.086Z" fill="white"/>
<path d="M111.04 243.482H104.103V251.088H111.04V243.482Z" fill="#E6A47B"/>
<path d="M111.04 235.877H104.103V243.483H111.04V235.877Z" fill="white"/>
<path d="M111.04 228.264H104.103V235.877H111.04V228.264Z" fill="white"/>
<path d="M111.04 220.656H104.103V228.262H111.04V220.656Z" fill="#C1C1C1"/>
<path d="M111.04 213.047H104.103V220.66H111.04V213.047Z" fill="white"/>
<path d="M111.04 205.438H104.103V213.043H111.04V205.438Z" fill="white"/>
<path d="M111.04 197.832H104.103V205.438H111.04V197.832Z" fill="white"/>
<path d="M111.04 190.219H104.103V197.832H111.04V190.219Z" fill="white"/>
<path d="M111.04 182.613H104.103V190.219H111.04V182.613Z" fill="white"/>
<path d="M111.04 175H104.103V182.613H111.04V175Z" fill="#C1C1C1"/>
<path d="M111.04 167.395H104.103V175H111.04V167.395Z" fill="#C1C1C1"/>
<path d="M111.04 159.787H104.103V167.393H111.04V159.787Z" fill="#C1C1C1"/>
<path d="M111.04 152.176H104.103V159.789H111.04V152.176Z" fill="#C1C1C1"/>
<path d="M111.04 144.574H104.103V152.18H111.04V144.574Z" fill="white"/>
<path d="M111.04 136.955H104.103V144.569H111.04V136.955Z" fill="white"/>
<path d="M111.04 129.348H104.103V136.953H111.04V129.348Z" fill="white"/>
<path d="M111.04 121.748H104.103V129.354H111.04V121.748Z" fill="white"/>
<path d="M111.04 114.135H104.103V121.748H111.04V114.135Z" fill="#C1C1C1"/>
<path d="M111.04 106.527H104.103V114.133H111.04V106.527Z" fill="#C1C1C1"/>
<path d="M111.04 98.9121H104.103V106.526H111.04V98.9121Z" fill="#C1C1C1"/>
<path d="M111.04 91.3086H104.103V98.9142H111.04V91.3086Z" fill="white"/>
<path d="M111.04 83.7012H104.103V91.3069H111.04V83.7012Z" fill="white"/>
<path d="M111.04 76.0879H104.103V83.7013H111.04V76.0879Z" fill="white"/>
<path d="M111.04 68.4824H104.103V76.0881H111.04V68.4824Z" fill="#E6A47B"/>
<path d="M111.04 60.877H104.103V68.4826H111.04V60.877Z" fill="#E6A47B"/>
<path d="M111.04 53.2637H104.103V60.8771H111.04V53.2637Z" fill="#E6A47B"/>
<path d="M111.04 45.6562H104.103V53.2619H111.04V45.6562Z" fill="#E6A47B"/>
<path d="M111.04 38.0449H104.103V45.6584H111.04V38.0449Z" fill="#E6A47B"/>
<path d="M111.04 30.4375H104.103V38.0432H111.04V30.4375Z" fill="#E6A47B"/>
<path d="M111.04 22.832H104.103V30.4377H111.04V22.832Z" fill="#E6A47B"/>
<path d="M111.04 15.2188H104.103V22.8322H111.04V15.2188Z" fill="#E6A47B"/>
<path d="M104.102 342.395H97.1575V350H104.102V342.395Z" fill="white"/>
<path d="M104.102 334.787H97.1575V342.393H104.102V334.787Z" fill="white"/>
<path d="M104.102 289.131H97.1575V296.744H104.102V289.131Z" fill="white"/>
<path d="M104.102 281.527H97.1575V289.133H104.102V281.527Z" fill="white"/>
<path d="M104.102 273.922H97.1575V281.528H104.102V273.922Z" fill="white"/>
<path d="M104.102 266.309H97.1575V273.922H104.102V266.309Z" fill="white"/>
<path d="M104.102 258.703H97.1575V266.309H104.102V258.703Z" fill="white"/>
<path d="M104.102 251.086H97.1575V258.699H104.102V251.086Z" fill="white"/>
<path d="M104.102 243.482H97.1575V251.088H104.102V243.482Z" fill="#E6A47B"/>
<path d="M104.102 235.877H97.1575V243.483H104.102V235.877Z" fill="#E6A47B"/>
<path d="M104.102 228.264H97.1575V235.877H104.102V228.264Z" fill="white"/>
<path d="M104.102 220.656H97.1575V228.262H104.102V220.656Z" fill="#C1C1C1"/>
<path d="M104.102 213.047H97.1575V220.66H104.102V213.047Z" fill="#E6A47B"/>
<path d="M104.102 205.438H97.1575V213.043H104.102V205.438Z" fill="white"/>
<path d="M104.102 197.832H97.1575V205.438H104.102V197.832Z" fill="white"/>
<path d="M104.102 190.219H97.1575V197.832H104.102V190.219Z" fill="#C1C1C1"/>
<path d="M104.102 182.613H97.1575V190.219H104.102V182.613Z" fill="#C1C1C1"/>
<path d="M104.102 175H97.1575V182.613H104.102V175Z" fill="#C1C1C1"/>
<path d="M104.102 167.395H97.1575V175H104.102V167.395Z" fill="white"/>
<path d="M104.102 159.787H97.1575V167.393H104.102V159.787Z" fill="white"/>
<path d="M104.102 152.176H97.1575V159.789H104.102V152.176Z" fill="white"/>
<path d="M104.102 144.574H97.1575V152.18H104.102V144.574Z" fill="white"/>
<path d="M104.102 136.955H97.1575V144.569H104.102V136.955Z" fill="white"/>
<path d="M104.102 129.348H97.1575V136.953H104.102V129.348Z" fill="white"/>
<path d="M104.102 121.748H97.1575V129.354H104.102V121.748Z" fill="white"/>
<path d="M104.102 114.135H97.1575V121.748H104.102V114.135Z" fill="#C1C1C1"/>
<path d="M104.102 106.527H97.1575V114.133H104.102V106.527Z" fill="white"/>
<path d="M104.102 98.9121H97.1575V106.526H104.102V98.9121Z" fill="#C1C1C1"/>
<path d="M104.102 91.3086H97.1575V98.9142H104.102V91.3086Z" fill="#C1C1C1"/>
<path d="M104.102 83.7012H97.1575V91.3069H104.102V83.7012Z" fill="white"/>
<path d="M104.102 76.0879H97.1575V83.7013H104.102V76.0879Z" fill="white"/>
<path d="M104.102 68.4824H97.1575V76.0881H104.102V68.4824Z" fill="white"/>
<path d="M104.102 60.877H97.1575V68.4826H104.102V60.877Z" fill="#E6A47B"/>
<path d="M104.102 53.2637H97.1575V60.8771H104.102V53.2637Z" fill="#E6A47B"/>
<path d="M104.102 45.6562H97.1575V53.2619H104.102V45.6562Z" fill="#E6A47B"/>
<path d="M104.102 38.0449H97.1575V45.6584H104.102V38.0449Z" fill="#E6A47B"/>
<path d="M104.102 30.4375H97.1575V38.0432H104.102V30.4375Z" fill="#E6A47B"/>
<path d="M104.102 22.832H97.1575V30.4377H104.102V22.832Z" fill="#E6A47B"/>
<path d="M104.102 15.2188H97.1575V22.8322H104.102V15.2188Z" fill="#E6A47B"/>
<path d="M104.102 7.61328H97.1575V15.219H104.102V7.61328Z" fill="#E6A47B"/>
<path d="M97.157 342.395H90.2197V350H97.157V342.395Z" fill="white"/>
<path d="M97.157 334.787H90.2197V342.393H97.157V334.787Z" fill="white"/>
<path d="M97.157 311.955H90.2197V319.569H97.157V311.955Z" fill="white"/>
<path d="M97.157 304.35H90.2197V311.955H97.157V304.35Z" fill="white"/>
<path d="M97.157 296.748H90.2197V304.354H97.157V296.748Z" fill="white"/>
<path d="M97.157 289.131H90.2197V296.744H97.157V289.131Z" fill="white"/>
<path d="M97.157 281.527H90.2197V289.133H97.157V281.527Z" fill="white"/>
<path d="M97.157 273.922H90.2197V281.528H97.157V273.922Z" fill="white"/>
<path d="M97.157 266.309H90.2197V273.922H97.157V266.309Z" fill="white"/>
<path d="M97.157 258.703H90.2197V266.309H97.157V258.703Z" fill="white"/>
<path d="M97.157 251.086H90.2197V258.699H97.157V251.086Z" fill="white"/>
<path d="M97.157 243.482H90.2197V251.088H97.157V243.482Z" fill="white"/>
<path d="M97.157 235.877H90.2197V243.483H97.157V235.877Z" fill="#E6A47B"/>
<path d="M97.157 228.264H90.2197V235.877H97.157V228.264Z" fill="#E6A47B"/>
<path d="M97.157 220.656H90.2197V228.262H97.157V220.656Z" fill="#E6A47B"/>
<path d="M97.157 213.047H90.2197V220.66H97.157V213.047Z" fill="#E6A47B"/>
<path d="M97.157 205.438H90.2197V213.043H97.157V205.438Z" fill="#C1C1C1"/>
<path d="M97.157 197.832H90.2197V205.438H97.157V197.832Z" fill="#C1C1C1"/>
<path d="M97.157 190.219H90.2197V197.832H97.157V190.219Z" fill="#C1C1C1"/>
<path d="M97.157 182.613H90.2197V190.219H97.157V182.613Z" fill="white"/>
<path d="M97.157 175H90.2197V182.613H97.157V175Z" fill="white"/>
<path d="M97.157 167.395H90.2197V175H97.157V167.395Z" fill="white"/>
<path d="M97.157 159.787H90.2197V167.393H97.157V159.787Z" fill="white"/>
<path d="M97.157 152.176H90.2197V159.789H97.157V152.176Z" fill="white"/>
<path d="M97.157 144.574H90.2197V152.18H97.157V144.574Z" fill="white"/>
<path d="M97.157 136.955H90.2197V144.569H97.157V136.955Z" fill="white"/>
<path d="M97.157 129.348H90.2197V136.953H97.157V129.348Z" fill="white"/>
<path d="M97.157 121.748H90.2197V129.354H97.157V121.748Z" fill="white"/>
<path d="M97.157 114.135H90.2197V121.748H97.157V114.135Z" fill="#C1C1C1"/>
<path d="M97.157 106.527H90.2197V114.133H97.157V106.527Z" fill="white"/>
<path d="M97.157 98.9121H90.2197V106.526H97.157V98.9121Z" fill="white"/>
<path d="M97.157 91.3086H90.2197V98.9142H97.157V91.3086Z" fill="#C1C1C1"/>
<path d="M97.157 83.7012H90.2197V91.3069H97.157V83.7012Z" fill="white"/>
<path d="M97.157 76.0879H90.2197V83.7013H97.157V76.0879Z" fill="white"/>
<path d="M97.157 68.4824H90.2197V76.0881H97.157V68.4824Z" fill="white"/>
<path d="M97.157 60.877H90.2197V68.4826H97.157V60.877Z" fill="white"/>
<path d="M97.157 53.2637H90.2197V60.8771H97.157V53.2637Z" fill="white"/>
<path d="M97.157 45.6562H90.2197V53.2619H97.157V45.6562Z" fill="white"/>
<path d="M97.157 38.0449H90.2197V45.6584H97.157V38.0449Z" fill="white"/>
<path d="M97.157 30.4375H90.2197V38.0432H97.157V30.4375Z" fill="white"/>
<path d="M97.157 22.832H90.2197V30.4377H97.157V22.832Z" fill="white"/>
<path d="M97.157 15.2188H90.2197V22.8322H97.157V15.2188Z" fill="white"/>
<path d="M97.157 7.61328H90.2197V15.219H97.157V7.61328Z" fill="#E6A47B"/>
<path d="M97.157 0H90.2197V7.61344H97.157V0Z" fill="#E6A47B"/>
<path d="M90.2203 342.395H83.29V350H90.2203V342.395Z" fill="white"/>
<path d="M90.2203 334.787H83.29V342.393H90.2203V334.787Z" fill="white"/>
<path d="M90.2203 327.176H83.29V334.789H90.2203V327.176Z" fill="white"/>
<path d="M90.2203 319.568H83.29V327.174H90.2203V319.568Z" fill="white"/>
<path d="M90.2203 311.955H83.29V319.569H90.2203V311.955Z" fill="white"/>
<path d="M90.2203 304.35H83.29V311.955H90.2203V304.35Z" fill="white"/>
<path d="M90.2203 296.748H83.29V304.354H90.2203V296.748Z" fill="white"/>
<path d="M90.2203 289.131H83.29V296.744H90.2203V289.131Z" fill="white"/>
<path d="M90.2203 281.527H83.29V289.133H90.2203V281.527Z" fill="white"/>
<path d="M90.2203 273.922H83.29V281.528H90.2203V273.922Z" fill="white"/>
<path d="M90.2203 266.309H83.29V273.922H90.2203V266.309Z" fill="white"/>
<path d="M90.2203 258.703H83.29V266.309H90.2203V258.703Z" fill="white"/>
<path d="M90.2203 251.086H83.29V258.699H90.2203V251.086Z" fill="white"/>
<path d="M90.2203 243.482H83.29V251.088H90.2203V243.482Z" fill="#C1C1C1"/>
<path d="M90.2203 235.877H83.29V243.483H90.2203V235.877Z" fill="#C1C1C1"/>
<path d="M90.2203 228.264H83.29V235.877H90.2203V228.264Z" fill="#C1C1C1"/>
<path d="M90.2203 220.656H83.29V228.262H90.2203V220.656Z" fill="#C1C1C1"/>
<path d="M90.2203 213.047H83.29V220.66H90.2203V213.047Z" fill="#C1C1C1"/>
<path d="M90.2203 205.438H83.29V213.043H90.2203V205.438Z" fill="#C1C1C1"/>
<path d="M90.2203 197.832H83.29V205.438H90.2203V197.832Z" fill="#C1C1C1"/>
<path d="M90.2203 190.219H83.29V197.832H90.2203V190.219Z" fill="white"/>
<path d="M90.2203 182.613H83.29V190.219H90.2203V182.613Z" fill="white"/>
<path d="M90.2203 175H83.29V182.613H90.2203V175Z" fill="white"/>
<path d="M90.2203 167.395H83.29V175H90.2203V167.395Z" fill="white"/>
<path d="M90.2203 159.787H83.29V167.393H90.2203V159.787Z" fill="white"/>
<path d="M90.2203 152.176H83.29V159.789H90.2203V152.176Z" fill="white"/>
<path d="M90.2203 144.574H83.29V152.18H90.2203V144.574Z" fill="white"/>
<path d="M90.2203 136.955H83.29V144.569H90.2203V136.955Z" fill="white"/>
<path d="M90.2203 129.348H83.29V136.953H90.2203V129.348Z" fill="white"/>
<path d="M90.2203 121.748H83.29V129.354H90.2203V121.748Z" fill="white"/>
<path d="M90.2203 114.135H83.29V121.748H90.2203V114.135Z" fill="#C1C1C1"/>
<path d="M90.2203 106.527H83.29V114.133H90.2203V106.527Z" fill="white"/>
<path d="M90.2203 98.9121H83.29V106.526H90.2203V98.9121Z" fill="white"/>
<path d="M90.2203 91.3086H83.29V98.9142H90.2203V91.3086Z" fill="#E6A47B"/>
<path d="M90.2203 83.7012H83.29V91.3069H90.2203V83.7012Z" fill="white"/>
<path d="M90.2203 76.0879H83.29V83.7013H90.2203V76.0879Z" fill="white"/>
<path d="M90.2203 68.4824H83.29V76.0881H90.2203V68.4824Z" fill="white"/>
<path d="M90.2203 60.877H83.29V68.4826H90.2203V60.877Z" fill="white"/>
<path d="M90.2203 53.2637H83.29V60.8771H90.2203V53.2637Z" fill="white"/>
<path d="M90.2203 45.6562H83.29V53.2619H90.2203V45.6562Z" fill="white"/>
<path d="M90.2203 38.0449H83.29V45.6584H90.2203V38.0449Z" fill="white"/>
<path d="M90.2203 30.4375H83.29V38.0432H90.2203V30.4375Z" fill="white"/>
<path d="M90.2203 22.832H83.29V30.4377H90.2203V22.832Z" fill="white"/>
<path d="M90.2203 15.2188H83.29V22.8322H90.2203V15.2188Z" fill="white"/>
<path d="M90.2203 7.61328H83.29V15.219H90.2203V7.61328Z" fill="white"/>
<path d="M90.2203 0H83.29V7.61344H90.2203V0Z" fill="#E6A47B"/>
<path d="M83.2906 342.395H76.3391V350H83.2906V342.395Z" fill="white"/>
<path d="M83.2906 334.787H76.3391V342.393H83.2906V334.787Z" fill="white"/>
<path d="M83.2906 327.176H76.3391V334.789H83.2906V327.176Z" fill="white"/>
<path d="M83.2906 319.568H76.3391V327.174H83.2906V319.568Z" fill="#C1C1C1"/>
<path d="M83.2906 311.955H76.3391V319.569H83.2906V311.955Z" fill="#C1C1C1"/>
<path d="M83.2906 304.35H76.3391V311.955H83.2906V304.35Z" fill="#C1C1C1"/>
<path d="M83.2906 296.748H76.3391V304.354H83.2906V296.748Z" fill="white"/>
<path d="M83.2906 289.131H76.3391V296.744H83.2906V289.131Z" fill="white"/>
<path d="M83.2906 281.527H76.3391V289.133H83.2906V281.527Z" fill="white"/>
<path d="M83.2906 273.922H76.3391V281.528H83.2906V273.922Z" fill="#C1C1C1"/>
<path d="M83.2906 266.309H76.3391V273.922H83.2906V266.309Z" fill="#C1C1C1"/>
<path d="M83.2906 258.703H76.3391V266.309H83.2906V258.703Z" fill="#C1C1C1"/>
<path d="M83.2906 251.086H76.3391V258.699H83.2906V251.086Z" fill="#C1C1C1"/>
<path d="M83.2906 243.482H76.3391V251.088H83.2906V243.482Z" fill="#C1C1C1"/>
<path d="M83.2906 235.877H76.3391V243.483H83.2906V235.877Z" fill="#C1C1C1"/>
<path d="M83.2906 228.264H76.3391V235.877H83.2906V228.264Z" fill="white"/>
<path d="M83.2906 220.656H76.3391V228.262H83.2906V220.656Z" fill="white"/>
<path d="M83.2906 213.047H76.3391V220.66H83.2906V213.047Z" fill="white"/>
<path d="M83.2906 205.438H76.3391V213.043H83.2906V205.438Z" fill="white"/>
<path d="M83.2906 197.832H76.3391V205.438H83.2906V197.832Z" fill="white"/>
<path d="M83.2906 190.219H76.3391V197.832H83.2906V190.219Z" fill="white"/>
<path d="M83.2906 182.613H76.3391V190.219H83.2906V182.613Z" fill="white"/>
<path d="M83.2906 175H76.3391V182.613H83.2906V175Z" fill="white"/>
<path d="M83.2906 167.395H76.3391V175H83.2906V167.395Z" fill="white"/>
<path d="M83.2906 159.787H76.3391V167.393H83.2906V159.787Z" fill="white"/>
<path d="M83.2906 152.176H76.3391V159.789H83.2906V152.176Z" fill="white"/>
<path d="M83.2906 144.574H76.3391V152.18H83.2906V144.574Z" fill="white"/>
<path d="M83.2906 136.955H76.3391V144.569H83.2906V136.955Z" fill="white"/>
<path d="M83.2906 129.348H76.3391V136.953H83.2906V129.348Z" fill="white"/>
<path d="M83.2906 121.748H76.3391V129.354H83.2906V121.748Z" fill="#C1C1C1"/>
<path d="M83.2906 114.135H76.3391V121.748H83.2906V114.135Z" fill="#C1C1C1"/>
<path d="M83.2906 106.527H76.3391V114.133H83.2906V106.527Z" fill="white"/>
<path d="M83.2906 98.9121H76.3391V106.526H83.2906V98.9121Z" fill="white"/>
<path d="M83.2906 91.3086H76.3391V98.9142H83.2906V91.3086Z" fill="#E6A47B"/>
<path d="M83.2906 83.7012H76.3391V91.3069H83.2906V83.7012Z" fill="#E6A47B"/>
<path d="M83.2906 76.0879H76.3391V83.7013H83.2906V76.0879Z" fill="#E6A47B"/>
<path d="M83.2906 68.4824H76.3391V76.0881H83.2906V68.4824Z" fill="white"/>
<path d="M83.2906 60.877H76.3391V68.4826H83.2906V60.877Z" fill="white"/>
<path d="M83.2906 53.2637H76.3391V60.8771H83.2906V53.2637Z" fill="white"/>
<path d="M83.2906 45.6562H76.3391V53.2619H83.2906V45.6562Z" fill="white"/>
<path d="M83.2906 38.0449H76.3391V45.6584H83.2906V38.0449Z" fill="white"/>
<path d="M83.2906 30.4375H76.3391V38.0432H83.2906V30.4375Z" fill="white"/>
<path d="M83.2906 22.832H76.3391V30.4377H83.2906V22.832Z" fill="black"/>
<path d="M83.2906 15.2188H76.3391V22.8322H83.2906V15.2188Z" fill="white"/>
<path d="M83.2906 7.61328H76.3391V15.219H83.2906V7.61328Z" fill="white"/>
<path d="M83.2906 0H76.3391V7.61344H83.2906V0Z" fill="#E6A47B"/>
<path d="M76.3389 342.395H69.4016V350H76.3389V342.395Z" fill="#C1C1C1"/>
<path d="M76.3389 334.787H69.4016V342.393H76.3389V334.787Z" fill="#C1C1C1"/>
<path d="M76.3389 327.176H69.4016V334.789H76.3389V327.176Z" fill="#C1C1C1"/>
<path d="M76.3389 319.568H69.4016V327.174H76.3389V319.568Z" fill="#C1C1C1"/>
<path d="M76.3389 311.955H69.4016V319.569H76.3389V311.955Z" fill="#C1C1C1"/>
<path d="M76.3389 304.35H69.4016V311.955H76.3389V304.35Z" fill="#C1C1C1"/>
<path d="M76.3389 296.748H69.4016V304.354H76.3389V296.748Z" fill="#C1C1C1"/>
<path d="M76.3389 289.131H69.4016V296.744H76.3389V289.131Z" fill="#C1C1C1"/>
<path d="M76.3389 281.527H69.4016V289.133H76.3389V281.527Z" fill="#C1C1C1"/>
<path d="M76.3389 273.922H69.4016V281.528H76.3389V273.922Z" fill="#C1C1C1"/>
<path d="M76.3389 251.086H69.4016V258.699H76.3389V251.086Z" fill="white"/>
<path d="M76.3389 243.482H69.4016V251.088H76.3389V243.482Z" fill="white"/>
<path d="M76.3389 235.877H69.4016V243.483H76.3389V235.877Z" fill="white"/>
<path d="M76.3389 228.264H69.4016V235.877H76.3389V228.264Z" fill="white"/>
<path d="M76.3389 220.656H69.4016V228.262H76.3389V220.656Z" fill="white"/>
<path d="M76.3389 213.047H69.4016V220.66H76.3389V213.047Z" fill="white"/>
<path d="M76.3389 205.438H69.4016V213.043H76.3389V205.438Z" fill="white"/>
<path d="M76.3389 197.832H69.4016V205.438H76.3389V197.832Z" fill="white"/>
<path d="M76.3389 190.219H69.4016V197.832H76.3389V190.219Z" fill="white"/>
<path d="M76.3389 182.613H69.4016V190.219H76.3389V182.613Z" fill="white"/>
<path d="M76.3389 175H69.4016V182.613H76.3389V175Z" fill="white"/>
<path d="M76.3389 167.395H69.4016V175H76.3389V167.395Z" fill="white"/>
<path d="M76.3389 159.787H69.4016V167.393H76.3389V159.787Z" fill="white"/>
<path d="M76.3389 152.176H69.4016V159.789H76.3389V152.176Z" fill="white"/>
<path d="M76.3389 144.574H69.4016V152.18H76.3389V144.574Z" fill="white"/>
<path d="M76.3389 136.955H69.4016V144.569H76.3389V136.955Z" fill="white"/>
<path d="M76.3389 129.348H69.4016V136.953H76.3389V129.348Z" fill="white"/>
<path d="M76.3389 121.748H69.4016V129.354H76.3389V121.748Z" fill="#C1C1C1"/>
<path d="M76.3389 114.135H69.4016V121.748H76.3389V114.135Z" fill="white"/>
<path d="M76.3389 106.527H69.4016V114.133H76.3389V106.527Z" fill="white"/>
<path d="M76.3389 98.9121H69.4016V106.526H76.3389V98.9121Z" fill="white"/>
<path d="M76.3389 91.3086H69.4016V98.9142H76.3389V91.3086Z" fill="#C1C1C1"/>
<path d="M76.3389 83.7012H69.4016V91.3069H76.3389V83.7012Z" fill="white"/>
<path d="M76.3389 76.0879H69.4016V83.7013H76.3389V76.0879Z" fill="#E6A47B"/>
<path d="M76.3389 68.4824H69.4016V76.0881H76.3389V68.4824Z" fill="#E6A47B"/>
<path d="M76.3389 60.877H69.4016V68.4826H76.3389V60.877Z" fill="#E6A47B"/>
<path d="M76.3389 53.2637H69.4016V60.8771H76.3389V53.2637Z" fill="#E6A47B"/>
<path d="M76.3389 45.6562H69.4016V53.2619H76.3389V45.6562Z" fill="white"/>
<path d="M76.3389 38.0449H69.4016V45.6584H76.3389V38.0449Z" fill="white"/>
<path d="M76.3389 30.4375H69.4016V38.0432H76.3389V30.4375Z" fill="white"/>
<path d="M76.3389 22.832H69.4016V30.4377H76.3389V22.832Z" fill="white"/>
<path d="M76.3389 15.2188H69.4016V22.8322H76.3389V15.2188Z" fill="white"/>
<path d="M76.3389 7.61328H69.4016V15.219H76.3389V7.61328Z" fill="white"/>
<path d="M76.3389 0H69.4016V7.61344H76.3389V0Z" fill="#E6A47B"/>
<path d="M69.4017 258.703H62.4644V266.309H69.4017V258.703Z" fill="white"/>
<path d="M69.4017 251.086H62.4644V258.699H69.4017V251.086Z" fill="white"/>
<path d="M69.4017 243.482H62.4644V251.088H69.4017V243.482Z" fill="white"/>
<path d="M69.4017 235.877H62.4644V243.483H69.4017V235.877Z" fill="white"/>
<path d="M69.4017 228.264H62.4644V235.877H69.4017V228.264Z" fill="white"/>
<path d="M69.4017 220.656H62.4644V228.262H69.4017V220.656Z" fill="white"/>
<path d="M69.4017 213.047H62.4644V220.66H69.4017V213.047Z" fill="white"/>
<path d="M69.4017 205.438H62.4644V213.043H69.4017V205.438Z" fill="white"/>
<path d="M69.4017 197.832H62.4644V205.438H69.4017V197.832Z" fill="white"/>
<path d="M69.4017 190.219H62.4644V197.832H69.4017V190.219Z" fill="white"/>
<path d="M69.4017 182.613H62.4644V190.219H69.4017V182.613Z" fill="white"/>
<path d="M69.4017 175H62.4644V182.613H69.4017V175Z" fill="white"/>
<path d="M69.4017 167.395H62.4644V175H69.4017V167.395Z" fill="white"/>
<path d="M69.4017 159.787H62.4644V167.393H69.4017V159.787Z" fill="white"/>
<path d="M69.4017 152.176H62.4644V159.789H69.4017V152.176Z" fill="white"/>
<path d="M69.4017 144.574H62.4644V152.18H69.4017V144.574Z" fill="white"/>
<path d="M69.4017 136.955H62.4644V144.569H69.4017V136.955Z" fill="#C1C1C1"/>
<path d="M69.4017 129.348H62.4644V136.953H69.4017V129.348Z" fill="#C1C1C1"/>
<path d="M69.4017 121.748H62.4644V129.354H69.4017V121.748Z" fill="#C1C1C1"/>
<path d="M69.4017 114.135H62.4644V121.748H69.4017V114.135Z" fill="white"/>
<path d="M69.4017 106.527H62.4644V114.133H69.4017V106.527Z" fill="white"/>
<path d="M69.4017 98.9121H62.4644V106.526H69.4017V98.9121Z" fill="white"/>
<path d="M69.4017 91.3086H62.4644V98.9142H69.4017V91.3086Z" fill="#C1C1C1"/>
<path d="M69.4017 83.7012H62.4644V91.3069H69.4017V83.7012Z" fill="#C1C1C1"/>
<path d="M69.4017 76.0879H62.4644V83.7013H69.4017V76.0879Z" fill="white"/>
<path d="M69.4017 68.4824H62.4644V76.0881H69.4017V68.4824Z" fill="white"/>
<path d="M69.4017 60.877H62.4644V68.4826H69.4017V60.877Z" fill="white"/>
<path d="M69.4017 53.2637H62.4644V60.8771H69.4017V53.2637Z" fill="#E6A47B"/>
<path d="M69.4017 45.6562H62.4644V53.2619H69.4017V45.6562Z" fill="white"/>
<path d="M69.4017 38.0449H62.4644V45.6584H69.4017V38.0449Z" fill="white"/>
<path d="M69.4017 30.4375H62.4644V38.0432H69.4017V30.4375Z" fill="white"/>
<path d="M69.4017 22.832H62.4644V30.4377H69.4017V22.832Z" fill="white"/>
<path d="M69.4017 15.2188H62.4644V22.8322H69.4017V15.2188Z" fill="white"/>
<path d="M69.4017 7.61328H62.4644V15.219H69.4017V7.61328Z" fill="white"/>
<path d="M69.4017 0H62.4644V7.61344H69.4017V0Z" fill="#E6A47B"/>
<path d="M62.4644 273.922H55.52V281.528H62.4644V273.922Z" fill="white"/>
<path d="M62.4644 266.309H55.52V273.922H62.4644V266.309Z" fill="white"/>
<path d="M62.4644 258.703H55.52V266.309H62.4644V258.703Z" fill="white"/>
<path d="M62.4644 251.086H55.52V258.699H62.4644V251.086Z" fill="white"/>
<path d="M62.4644 243.482H55.52V251.088H62.4644V243.482Z" fill="white"/>
<path d="M62.4644 235.877H55.52V243.483H62.4644V235.877Z" fill="white"/>
<path d="M62.4644 228.264H55.52V235.877H62.4644V228.264Z" fill="white"/>
<path d="M62.4644 220.656H55.52V228.262H62.4644V220.656Z" fill="white"/>
<path d="M62.4644 213.047H55.52V220.66H62.4644V213.047Z" fill="white"/>
<path d="M62.4644 205.438H55.52V213.043H62.4644V205.438Z" fill="white"/>
<path d="M62.4644 197.832H55.52V205.438H62.4644V197.832Z" fill="white"/>
<path d="M62.4644 190.219H55.52V197.832H62.4644V190.219Z" fill="white"/>
<path d="M62.4644 182.613H55.52V190.219H62.4644V182.613Z" fill="white"/>
<path d="M62.4644 175H55.52V182.613H62.4644V175Z" fill="white"/>
<path d="M62.4644 167.395H55.52V175H62.4644V167.395Z" fill="white"/>
<path d="M62.4644 159.787H55.52V167.393H62.4644V159.787Z" fill="#606060"/>
<path d="M62.4644 152.176H55.52V159.789H62.4644V152.176Z" fill="#606060"/>
<path d="M62.4644 144.574H55.52V152.18H62.4644V144.574Z" fill="white"/>
<path d="M62.4644 136.955H55.52V144.569H62.4644V136.955Z" fill="#C1C1C1"/>
<path d="M62.4644 129.348H55.52V136.953H62.4644V129.348Z" fill="white"/>
<path d="M62.4644 121.748H55.52V129.354H62.4644V121.748Z" fill="white"/>
<path d="M62.4644 114.135H55.52V121.748H62.4644V114.135Z" fill="white"/>
<path d="M62.4644 106.527H55.52V114.133H62.4644V106.527Z" fill="white"/>
<path d="M62.4644 98.9121H55.52V106.526H62.4644V98.9121Z" fill="#C1C1C1"/>
<path d="M62.4644 91.3086H55.52V98.9142H62.4644V91.3086Z" fill="#C1C1C1"/>
<path d="M62.4644 83.7012H55.52V91.3069H62.4644V83.7012Z" fill="#C1C1C1"/>
<path d="M62.4644 76.0879H55.52V83.7013H62.4644V76.0879Z" fill="white"/>
<path d="M62.4644 68.4824H55.52V76.0881H62.4644V68.4824Z" fill="white"/>
<path d="M62.4644 60.877H55.52V68.4826H62.4644V60.877Z" fill="white"/>
<path d="M55.5201 281.527H48.5828V289.133H55.5201V281.527Z" fill="white"/>
<path d="M55.5201 273.922H48.5828V281.528H55.5201V273.922Z" fill="white"/>
<path d="M55.5201 266.309H48.5828V273.922H55.5201V266.309Z" fill="white"/>
<path d="M55.5201 258.703H48.5828V266.309H55.5201V258.703Z" fill="white"/>
<path d="M55.5201 251.086H48.5828V258.699H55.5201V251.086Z" fill="white"/>
<path d="M55.5201 243.482H48.5828V251.088H55.5201V243.482Z" fill="white"/>
<path d="M55.5201 235.877H48.5828V243.483H55.5201V235.877Z" fill="white"/>
<path d="M55.5201 228.264H48.5828V235.877H55.5201V228.264Z" fill="white"/>
<path d="M55.5201 220.656H48.5828V228.262H55.5201V220.656Z" fill="white"/>
<path d="M55.5201 213.047H48.5828V220.66H55.5201V213.047Z" fill="white"/>
<path d="M55.5201 205.438H48.5828V213.043H55.5201V205.438Z" fill="white"/>
<path d="M55.5201 197.832H48.5828V205.438H55.5201V197.832Z" fill="white"/>
<path d="M55.5201 190.219H48.5828V197.832H55.5201V190.219Z" fill="white"/>
<path d="M55.5201 182.613H48.5828V190.219H55.5201V182.613Z" fill="white"/>
<path d="M55.5201 152.176H48.5828V159.789H55.5201V152.176Z" fill="#606060"/>
<path d="M55.5201 144.574H48.5828V152.18H55.5201V144.574Z" fill="white"/>
<path d="M55.5201 136.955H48.5828V144.569H55.5201V136.955Z" fill="white"/>
<path d="M55.5201 129.348H48.5828V136.953H55.5201V129.348Z" fill="white"/>
<path d="M55.5201 121.748H48.5828V129.354H55.5201V121.748Z" fill="white"/>
<path d="M55.5201 114.135H48.5828V121.748H55.5201V114.135Z" fill="white"/>
<path d="M55.5201 106.527H48.5828V114.133H55.5201V106.527Z" fill="#C1C1C1"/>
<path d="M55.5201 98.9121H48.5828V106.526H55.5201V98.9121Z" fill="#C1C1C1"/>
<path d="M55.5201 91.3086H48.5828V98.9142H55.5201V91.3086Z" fill="white"/>
<path d="M55.5201 83.7012H48.5828V91.3069H55.5201V83.7012Z" fill="white"/>
<path d="M55.5201 76.0879H48.5828V83.7013H55.5201V76.0879Z" fill="white"/>
<path d="M55.5201 68.4824H48.5828V76.0881H55.5201V68.4824Z" fill="white"/>
<path d="M55.5201 60.877H48.5828V68.4826H55.5201V60.877Z" fill="white"/>
<path d="M48.5831 296.748H41.6387V304.354H48.5831V296.748Z" fill="white"/>
<path d="M48.5831 289.131H41.6387V296.744H48.5831V289.131Z" fill="white"/>
<path d="M48.5831 281.527H41.6387V289.133H48.5831V281.527Z" fill="white"/>
<path d="M48.5831 273.922H41.6387V281.528H48.5831V273.922Z" fill="white"/>
<path d="M48.5831 266.309H41.6387V273.922H48.5831V266.309Z" fill="white"/>
<path d="M48.5831 258.703H41.6387V266.309H48.5831V258.703Z" fill="white"/>
<path d="M48.5831 251.086H41.6387V258.699H48.5831V251.086Z" fill="white"/>
<path d="M48.5831 228.264H41.6387V235.877H48.5831V228.264Z" fill="white"/>
<path d="M48.5831 220.656H41.6387V228.262H48.5831V220.656Z" fill="white"/>
<path d="M48.5831 144.574H41.6387V152.18H48.5831V144.574Z" fill="white"/>
<path d="M48.5831 136.955H41.6387V144.569H48.5831V136.955Z" fill="white"/>
<path d="M48.5831 129.348H41.6387V136.953H48.5831V129.348Z" fill="white"/>
<path d="M48.5831 121.748H41.6387V129.354H48.5831V121.748Z" fill="white"/>
<path d="M48.5831 114.135H41.6387V121.748H48.5831V114.135Z" fill="white"/>
<path d="M48.5831 106.527H41.6387V114.133H48.5831V106.527Z" fill="#C1C1C1"/>
<path d="M48.5831 98.9121H41.6387V106.526H48.5831V98.9121Z" fill="#C1C1C1"/>
<path d="M48.5831 91.3086H41.6387V98.9142H48.5831V91.3086Z" fill="white"/>
<path d="M48.5831 83.7012H41.6387V91.3069H48.5831V83.7012Z" fill="white"/>
<path d="M48.5831 76.0879H41.6387V83.7013H48.5831V76.0879Z" fill="white"/>
<path d="M48.5831 68.4824H41.6387V76.0881H48.5831V68.4824Z" fill="white"/>
<path d="M41.6382 311.955H34.7009V319.569H41.6382V311.955Z" fill="white"/>
<path d="M41.6382 304.35H34.7009V311.955H41.6382V304.35Z" fill="white"/>
<path d="M41.6382 296.748H34.7009V304.354H41.6382V296.748Z" fill="white"/>
<path d="M41.6382 289.131H34.7009V296.744H41.6382V289.131Z" fill="white"/>
<path d="M41.6382 281.527H34.7009V289.133H41.6382V281.527Z" fill="white"/>
<path d="M41.6382 273.922H34.7009V281.528H41.6382V273.922Z" fill="white"/>
<path d="M41.6382 266.309H34.7009V273.922H41.6382V266.309Z" fill="white"/>
<path d="M41.6382 152.176H34.7009V159.789H41.6382V152.176Z" fill="white"/>
<path d="M41.6382 144.574H34.7009V152.18H41.6382V144.574Z" fill="white"/>
<path d="M41.6382 136.955H34.7009V144.569H41.6382V136.955Z" fill="white"/>
<path d="M41.6382 129.348H34.7009V136.953H41.6382V129.348Z" fill="white"/>
<path d="M41.6382 121.748H34.7009V129.354H41.6382V121.748Z" fill="white"/>
<path d="M41.6382 114.135H34.7009V121.748H41.6382V114.135Z" fill="white"/>
<path d="M41.6382 106.527H34.7009V114.133H41.6382V106.527Z" fill="white"/>
<path d="M41.6382 98.9121H34.7009V106.526H41.6382V98.9121Z" fill="white"/>
<path d="M41.6382 91.3086H34.7009V98.9142H41.6382V91.3086Z" fill="white"/>
<path d="M34.7012 319.568H27.7568V327.174H34.7012V319.568Z" fill="white"/>
<path d="M34.7012 311.955H27.7568V319.569H34.7012V311.955Z" fill="white"/>
<path d="M34.7012 304.35H27.7568V311.955H34.7012V304.35Z" fill="white"/>
<path d="M34.7012 296.748H27.7568V304.354H34.7012V296.748Z" fill="white"/>
<path d="M34.7012 289.131H27.7568V296.744H34.7012V289.131Z" fill="white"/>
<path d="M34.7012 281.527H27.7568V289.133H34.7012V281.527Z" fill="white"/>
<path d="M34.7012 152.176H27.7568V159.789H34.7012V152.176Z" fill="white"/>
<path d="M34.7012 144.574H27.7568V152.18H34.7012V144.574Z" fill="white"/>
<path d="M34.7012 136.955H27.7568V144.569H34.7012V136.955Z" fill="white"/>
<path d="M34.7012 129.348H27.7568V136.953H34.7012V129.348Z" fill="white"/>
<path d="M34.7012 121.748H27.7568V129.354H34.7012V121.748Z" fill="white"/>
<path d="M34.7012 114.135H27.7568V121.748H34.7012V114.135Z" fill="white"/>
<path d="M27.7564 334.787H20.8191V342.393H27.7564V334.787Z" fill="white"/>
<path d="M27.7564 327.176H20.8191V334.789H27.7564V327.176Z" fill="white"/>
<path d="M27.7564 319.568H20.8191V327.174H27.7564V319.568Z" fill="white"/>
<path d="M27.7564 311.955H20.8191V319.569H27.7564V311.955Z" fill="white"/>
<path d="M27.7564 304.35H20.8191V311.955H27.7564V304.35Z" fill="white"/>
<path d="M27.7564 296.748H20.8191V304.354H27.7564V296.748Z" fill="white"/>
<path d="M20.8194 334.787H13.8892V342.393H20.8194V334.787Z" fill="white"/>
<path d="M20.8194 327.176H13.8892V334.789H20.8194V327.176Z" fill="white"/>
<path d="M20.8194 319.568H13.8892V327.174H20.8194V319.568Z" fill="white"/>
<path d="M13.889 342.395H6.9375V350H13.889V342.395Z" fill="white"/>
<path d="M13.889 334.787H6.9375V342.393H13.889V334.787Z" fill="white"/>
<path d="M13.889 327.176H6.9375V334.789H13.889V327.176Z" fill="white"/>
<path d="M6.93731 342.395H0V350H6.93731V342.395Z" fill="white"/>
<path d="M6.93731 334.787H0V342.393H6.93731V334.787Z" fill="white"/>
</svg>
