<?xml version="1.0" encoding="utf-8"?>
<!-- Generator: Adobe Illustrator 24.1.1, SVG Export Plug-In . SVG Version: 6.00 Build 0)  -->
<svg version="1.1" id="Слой_1" xmlns="http://www.w3.org/2000/svg" xmlns:xlink="http://www.w3.org/1999/xlink" x="0px" y="0px"
	 viewBox="0 0 153 350" style="enable-background:new 0 0 153 350;" xml:space="preserve">
<style type="text/css">
	.st0{fill:#FFFFFF;}
	.st1{fill:#C1C1C1;}
	.st2{fill:#E6A47B;}
	.st3{fill:#606060;}
</style>
<path class="st0" d="M145.7,136.9L145.7,136.9v-8.3v-14.5h-6.9v0v-6.3v-1.3h-6.9V91.3h6.9V76.1h-6.9v-7.6h-7v-7.6H118v-7.6h13.9v7.6
	h13.9v-7.6h-6.9v-7.6H118V30.4H111v-7.6h13.9v7.6h20.8V15.2h-6.9v7.6h-6.9v-7.6h-7V7.6H111v7.6h-6.9V7.6h-6.9V0H62.5v7.6v45.7v7.6
	H48.6v7.6h-6.9v22.8h-6.9v22.8h-6.3h-0.6v7.6v15.2h0.6v0h-0.6v22.8h13.9v-7.6h6.9v7.6h6.9v7.6h6.9v0h-6.9v15.2h-6.9v25.1v5.3v0v7.6
	h-6.9v15.2h6.9v15.2h-6.9v15.2h-6.9v15.2h-6.9v9.2v6v0h-6.9v22.8h-6.9v4.9h0v2.7H6.9v7.6H0V350h13.9v-7.6h13.9v-4.1v-11.1v0h6.9
	v-7.6h6.9v-15.2h6.9v-2.6v-5v0v-6v-1.6h6.9v-7.6h6.9v-15.2h6.9v-7.6h6.9v15.2h-6.9v14.7v8.2v0v9.5v13.2v7.8v0v11.4V350h6.9H118v-7.6
	h-13.9v-7.6H90.2v-7.6v0v-4.4v-3.2h6.9v-18.1v-4.8v0h6.9v-22.8h6.9v-22.8h6.9v7.6h6.9v-15.2H118v-22.8h6.9V213v0v-5.7v-9.5h7v-15.2
	h6.9v-6.5v-8.7v0v-5v-2.6h6.9v-7.6h7v-15.2H145.7z M111,114.1L111,114.1l6.9,0v0H111z M76.3,114.1h27.8h0v0L76.3,114.1L76.3,114.1z
	 M104.1,167.4L104.1,167.4L104.1,167.4L104.1,167.4L104.1,167.4z M56.1,136.9h6.3v0L56.1,136.9L56.1,136.9z M90.2,213L90.2,213
	l6.9,0h6.9v0H90.2z M125.1,114.1h-0.2v0L125.1,114.1L125.1,114.1z M41.6,114.1L41.6,114.1l13.9,0v0H41.6z M83.3,327.2h-6.9v0
	L83.3,327.2L83.3,327.2z"/>
<rect x="97.2" y="220.7" class="st1" width="13.9" height="7.6"/>
<polygon class="st2" points="124.9,243.5 124.9,258.7 118,258.7 118,251.1 97.2,251.1 97.2,243.5 90.2,243.5 90.2,213 104.1,213 
	104.1,220.7 97.2,220.7 97.2,235.9 104.1,235.9 104.1,243.5 "/>
<rect x="69.4" y="327.2" class="st1" width="6.9" height="22.8"/>
<rect x="76.3" y="22.8" width="6.9" height="7.6"/>
<rect x="69.4" y="83.7" class="st0" width="6.9" height="7.6"/>
<polygon class="st2" points="90.2,91.3 90.2,98.9 76.3,98.9 76.3,83.7 69.4,83.7 69.4,60.9 62.5,60.9 62.5,53.3 76.3,53.3 
	76.3,76.1 83.3,76.1 83.3,91.3 "/>
<rect x="118" y="213" class="st2" width="6.9" height="7.6"/>
<polygon class="st3" points="62.5,152.2 62.5,167.4 55.5,167.4 55.5,159.8 48.6,159.8 48.6,152.2 "/>
<polygon class="st1" points="76.3,91.3 76.3,98.9 62.5,98.9 62.5,106.5 55.5,106.5 55.5,114.1 41.6,114.1 41.6,98.9 55.5,98.9 
	55.5,83.7 69.4,83.7 69.4,91.3 "/>
<polygon class="st0" points="83.3,121.8 83.3,129.3 69.4,129.3 69.4,137 69.4,137 69.4,144.6 56.1,144.6 56.1,137 62.5,137 
	62.5,121.8 76.3,121.8 76.3,114.1 104.1,114.1 104.1,106.5 97.2,106.5 97.2,98.9 62.5,98.9 62.5,106.5 55.5,106.5 55.5,106.5 
	55.5,114.1 55.5,114.1 41.6,114.1 41.6,98.9 55.5,98.9 55.5,83.7 69.4,83.7 69.4,60.9 48.6,60.9 48.6,68.5 41.6,68.5 41.6,91.3 
	34.7,91.3 34.7,114.1 28.4,114.1 27.8,114.1 27.8,121.8 27.8,137 28.4,137 28.4,137 27.8,137 27.8,159.8 41.6,159.8 41.6,152.2 
	62.5,152.2 62.5,154.6 62.5,167.4 62.5,167.4 55.5,167.4 55.5,182.6 48.6,182.6 48.6,207.7 48.6,213 48.6,213 48.6,220.7 
	41.6,220.7 41.6,235.9 48.6,235.9 48.6,251.1 41.6,251.1 41.6,266.3 34.7,266.3 34.7,281.5 27.8,281.5 27.8,290.7 27.8,296.7 
	27.8,296.8 20.8,296.8 20.8,319.6 13.9,319.6 13.9,324.4 13.9,324.4 13.9,327.2 6.9,327.2 6.9,334.8 0,334.8 0,350 13.9,350 
	13.9,342.4 27.8,342.4 27.8,338.3 27.8,327.2 27.8,327.2 34.7,327.2 34.7,319.6 41.6,319.6 41.6,304.3 48.6,304.3 48.6,301.8 
	48.6,296.8 48.6,296.7 48.6,290.7 48.6,289.1 55.5,289.1 55.5,281.5 62.5,281.5 62.5,266.3 69.4,266.3 69.4,258.7 76.3,258.7 
	76.3,235.9 83.3,235.9 83.3,231.9 83.3,213 83.3,213 83.3,207.7 83.3,197.8 90.2,197.8 90.2,190.2 97.2,190.2 97.2,175 104.1,175 
	104.1,167.4 104.1,167.4 104.1,154.6 104.1,152.2 111,152.2 111,145.2 111,137 111,137 111,126.1 111,121.8 "/>
<path class="st0" d="M124.9,121.8v-9.5h0V98.9H118V76.1h-13.9v-7.6h-6.9V15.2h-6.9V7.6H62.5v45.7h13.9v22.8h6.9v15.2h20.8v7.6h6.9
	v15.2h6.9v0v13.4v2v7.4v0v22.8H111v4.1v3.5v0v9.9v5.3h-6.9v15.2h-6.9V213h6.9v0v5.3v2.3h6.9v7.6H97.2v7.6h6.9v7.6H118v-25.1V213v0
	v-2v-20.8h6.9V175h7v-7.6v0V137v0v-7.4v-7.8H124.9z M83.3,30.4h-6.9v-7.6h6.9V30.4z"/>
<polygon class="st0" points="104.1,342.4 104.1,334.8 90.2,334.8 90.2,327.2 90.2,327.2 90.2,322.8 90.2,319.6 97.2,319.6 
	97.2,301.5 97.2,296.8 97.2,296.7 104.1,296.7 104.1,273.9 111,273.9 111,251.1 97.2,251.1 97.2,243.5 90.2,243.5 90.2,251.1 
	83.3,251.1 83.3,281.5 76.3,281.5 76.3,296.7 76.3,296.7 76.3,296.8 76.3,296.8 76.3,304.3 83.3,304.3 83.3,322.8 83.3,327.2 
	83.3,327.2 76.3,327.2 76.3,350 118,350 118,342.4 "/>
<polygon class="st1" points="111,114.1 111,114.1 111,109.2 111,98.9 104.1,98.9 104.1,91.3 90.2,91.3 90.2,98.9 97.2,98.9 
	97.2,106.5 104.1,106.5 104.1,114.1 104.1,114.1 104.1,114.1 76.3,114.1 76.3,121.8 62.5,121.8 62.5,128.6 62.5,137 62.5,137 
	55.5,137 55.5,144.6 69.4,144.6 69.4,142.6 69.4,137 69.4,137 69.4,129.3 83.3,129.3 83.3,121.8 111,121.8 111,128.6 111,137 
	111,137 111,147.8 111,152.2 104.1,152.2 104.1,167.4 104.2,167.4 104.2,167.4 104.1,167.4 104.1,175 97.2,175 97.2,190.2 
	90.2,190.2 90.2,197.8 83.3,197.8 83.3,208.8 83.3,213 83.3,213 83.3,231.5 83.3,235.9 76.3,235.9 76.3,273.9 69.4,273.9 
	69.4,288.6 69.4,296.7 69.4,296.8 69.4,306.2 69.4,319.4 69.4,327.2 69.4,338.6 76.3,338.6 76.3,327.2 83.3,327.2 83.3,304.3 
	76.3,304.3 76.3,288.6 76.3,288.6 76.3,281.5 83.3,281.5 83.3,251.1 90.2,251.1 90.2,231.5 90.2,213 90.2,213 97.2,213 97.2,197.8 
	104.1,197.8 104.1,182.6 111,182.6 111,173.5 111,167.4 111,167.4 111,162.9 111,159.8 118,159.8 118,147.8 118,137 118,137 
	118,128.6 118,114.1 "/>
<polygon class="st2" points="145.7,137 145.7,137 145.7,128.6 145.7,114.1 138.8,114.1 138.8,114.1 138.8,107.8 138.8,106.5 
	131.9,106.5 131.9,91.3 138.8,91.3 138.8,76.1 131.9,76.1 131.9,68.5 124.9,68.5 124.9,60.9 118,60.9 118,53.3 131.9,53.3 
	131.9,60.9 145.7,60.9 145.7,53.3 138.8,53.3 138.8,45.7 118,45.7 118,30.4 111,30.4 111,22.8 124.9,22.8 124.9,30.4 145.7,30.4 
	145.7,15.2 138.8,15.2 138.8,22.8 131.9,22.8 131.9,15.2 124.9,15.2 124.9,7.6 111,7.6 111,15.2 104.1,15.2 104.1,7.6 97.2,7.6 
	97.2,0 62.5,0 62.5,7.6 90.2,7.6 90.2,15.2 97.2,15.2 97.2,68.5 104.1,68.5 104.1,76.1 118,76.1 118,98.9 124.9,98.9 124.9,114.1 
	125.1,114.1 125.1,114.1 124.9,114.1 124.9,121.8 131.9,121.8 131.9,128.6 131.9,137 131.9,137 131.9,148.9 131.9,162.4 
	131.9,167.4 131.9,167.4 131.9,175 124.9,175 124.9,190.2 118,190.2 118,207.4 118,213 118,220.7 124.9,220.7 124.9,213 
	124.9,207.4 124.9,197.8 131.9,197.8 131.9,182.6 138.8,182.6 138.8,176.1 138.8,167.4 138.8,167.4 138.8,162.4 138.8,159.8 
	145.7,159.8 145.7,152.2 152.7,152.2 152.7,137 "/>
</svg>
