<svg width="228" height="181" viewBox="0 0 228 181" fill="none" xmlns="http://www.w3.org/2000/svg">
<path d="M102.497 12.4833C82.0961 -2.38654 57.5111 1.58386 55.0532 2.01649C33.9145 5.74964 16.67 20.4869 7.6096 37.6036C-1.38493 54.5877 0.295369 71.9555 3.65596 106.684C7.49758 146.381 9.41509 166.226 22.7652 175.067C37.4464 184.787 57.7417 176.993 82.7287 167.392C121.217 152.606 131.596 134.554 152.576 139.48C169.247 143.395 170.908 156.716 183.546 155.529C206.932 153.331 219.445 105.994 221.106 99.7065C225.784 82.0106 229.923 66.3593 222.424 52.2571C211.835 32.3423 183.395 25.5947 163.778 27.1368C145.46 28.5742 137.276 37.0523 123.583 31.3235C113.435 27.081 113.725 20.6683 102.497 12.4833Z" stroke="black" stroke-miterlimit="10"/>
</svg>
