<?xml version="1.0" encoding="utf-8"?>
<!-- Generator: Adobe Illustrator 24.0.1, SVG Export Plug-In . SVG Version: 6.00 Build 0)  -->
<svg version="1.1" id="Слой_1" xmlns="http://www.w3.org/2000/svg" xmlns:xlink="http://www.w3.org/1999/xlink" x="0px" y="0px"
	 viewBox="0 0 228 181" style="enable-background:new 0 0 228 181;" xml:space="preserve">
<style type="text/css">
	.st0{fill:none;stroke:#FFFFFF;stroke-miterlimit:10;}
</style>
<path class="st0" d="M102.5,12.5C82.1-2.4,57.5,1.6,55.1,2C33.9,5.7,16.7,20.5,7.6,37.6c-9,17-7.3,34.4-4,69.1
	c3.8,39.7,5.8,59.5,19.1,68.4c14.7,9.7,35,1.9,60-7.7c38.5-14.8,48.9-32.8,69.8-27.9c16.7,3.9,18.3,17.2,31,16
	c23.4-2.2,35.9-49.5,37.6-55.8c4.7-17.7,8.8-33.3,1.3-47.4c-10.6-19.9-39-26.7-58.6-25.1c-18.3,1.4-26.5,9.9-40.2,4.2
	C113.4,27.1,113.7,20.7,102.5,12.5z"/>
</svg>
