<svg width="226" height="178" viewBox="0 0 226 178" fill="none" xmlns="http://www.w3.org/2000/svg">
<g clip-path="url(#clip0)">
<mask id="mask0" mask-type="alpha" maskUnits="userSpaceOnUse" x="-72" y="-138" width="427" height="414">
<path d="M-71 86.2715L87.1503 275.35M21.0464 9.28146L179.197 198.36M-24.9768 47.7765L133.174 236.855M67.0696 -29.2135L225.22 159.865M154.514 -102.354L312.664 86.7245M-47.9884 67.024L110.162 256.103M44.058 -9.96604L202.208 179.113M131.502 -83.1066L289.652 105.972M-1.96521 28.529L156.185 217.608M90.0812 -48.4611L248.232 140.618M177.525 -121.602L335.676 67.477M-61.7954 78.5725L96.355 267.651M30.251 1.58246L188.401 190.661M117.695 -71.5581L275.845 117.521M-15.7722 40.0775L142.378 229.156M76.2742 -36.9125L234.425 152.166M163.718 -110.053L321.869 79.0255M-38.7838 59.325L119.367 248.404M53.2626 -17.665L211.413 171.414M140.707 -90.8056L298.857 98.273M7.23943 20.83L165.39 209.909M99.2858 -56.1601L257.436 132.919M186.73 -129.301L344.88 59.778M-66.3977 82.422L91.7527 271.501M25.6487 5.43196L183.799 194.511M113.093 -67.7086L271.243 121.37M-20.3745 43.927L137.776 233.006M71.6719 -33.063L229.822 156.016M159.116 -106.204L317.266 82.875M-43.3861 63.1745L114.764 252.253M48.6603 -13.8155L206.811 175.263M136.104 -86.9561L294.255 102.123M2.63711 24.6795L160.787 213.758M94.6835 -52.3106L252.834 136.768M182.128 -125.451L340.278 63.6275M-57.193 74.723L100.957 263.802M34.8533 -2.26704L193.004 186.812M122.297 -75.4076L280.448 113.671M-11.1699 36.228L146.98 225.307M80.8765 -40.762L239.027 148.317M168.321 -113.903L326.471 75.176M-34.1814 55.4755L123.969 244.554M57.8649 -21.5145L216.015 167.564M145.309 -94.6551L303.459 94.4235M11.8417 16.9805L169.992 206.059M103.888 -60.0096L262.038 129.069M191.332 -133.15L349.483 55.9285M-52.5907 70.8735L105.56 259.952M39.4557 -6.11654L197.606 182.962M126.9 -79.2571L285.05 109.822M-6.56753 32.3785L151.583 221.457M85.4789 -44.6116L243.629 144.467M172.923 -117.752L331.073 71.3265M-29.5791 51.626L128.571 240.705M62.4673 -25.364L220.618 163.715M149.911 -98.5046L308.062 90.574M16.4441 13.131L174.594 202.21M108.49 -63.8591L266.641 125.22M195.935 -137L354.085 52.079" stroke="black"/>
</mask>
<g mask="url(#mask0)">
<path d="M101.537 11.2665C81.1366 -3.60333 56.5516 0.367067 54.0938 0.799694C32.955 4.53285 15.7105 19.2701 6.65012 36.3868C-2.3444 53.3709 -0.664104 70.7387 2.69649 105.468C6.5381 145.165 8.45562 165.01 21.8057 173.851C36.4869 183.571 56.7822 175.776 81.7692 166.175C120.258 151.389 130.636 133.337 151.617 138.263C168.288 142.178 169.948 155.499 182.587 154.313C205.973 152.115 218.486 104.777 220.146 98.4897C224.825 80.7938 228.963 65.1425 221.464 51.0403C210.875 31.1255 182.435 24.3779 162.819 25.92C144.5 27.3574 136.316 35.8355 122.623 30.1067C112.476 25.8642 112.766 19.4515 101.537 11.2665Z" fill="black" stroke="black" stroke-miterlimit="10"/>
</g>
</g>
<defs>
<clipPath id="clip0">
<rect width="226" height="178" fill="white"/>
</clipPath>
</defs>
</svg>
