<?xml version="1.0" encoding="utf-8"?>
<!-- Generator: Adobe Illustrator 24.0.1, SVG Export Plug-In . SVG Version: 6.00 Build 0)  -->
<svg version="1.1" id="Слой_1" xmlns="http://www.w3.org/2000/svg" xmlns:xlink="http://www.w3.org/1999/xlink" x="0px" y="0px"
	 viewBox="0 0 220 165" style="enable-background:new 0 0 220 165;" xml:space="preserve">
<style type="text/css">
	.st0{fill:#8768E1;}
</style>
<polygon class="st0" points="214.5,159.5 214.5,154 203.5,154 203.5,148.5 192.5,148.5 192.5,137.5 181.5,137.5 181.5,126.5 
	176,126.5 176,115.5 170.5,115.5 170.5,99 165,99 165,88 165,81.2 165,77 159.5,77 159.5,49.5 154,49.5 154,44 148.5,44 148.5,27.5 
	148.5,11 143,11 143,5.5 137.5,5.5 137.5,0 126.5,0 126.5,5.5 115.5,5.5 115.5,0 77,0 77,11 66,11 66,27.5 66,48.2 66,66 60.5,66 
	60.5,81.2 60.5,88 60.5,99 55,99 55,115.5 49.5,115.5 49.5,121 44,121 44,132 38.5,132 38.5,126.5 33,126.5 33,132 27.5,132 
	27.5,143 16.5,143 16.5,154 5.5,154 5.5,159.5 0,159.5 0,165 220,165 220,159.5 "/>
</svg>
