<svg width="120" height="90" viewBox="0 0 120 90" fill="none" xmlns="http://www.w3.org/2000/svg">
<path d="M116.998 87.0011V84.0023H114.002H110.998V81.0003H107.999H105V78.0014V75.0026H102.001H98.9994V72.0006V69.0017H95.9976V65.9998V63.0009H92.9988V60.002V57.0001V54.0012H90V50.9993V48.0004V45.0015V41.9996H86.9982V39.0007V35.9988V32.9999V30.001V26.9991H83.9994V24.0002H81.0037V20.9983V17.9994V15.0005V11.9986V8.99969V5.99776H77.9988V2.99888H75V0H72.0012H68.9994V2.99888H66.0006H62.9988V0H60H56.9982H53.9994H51.0037H47.9988H45H42.0012V2.99888V5.99776H38.9994H36.0006V8.99969V11.9986V15.0005V17.9994V20.9983V24.0002V26.9991V30.001V32.9999V35.9988H32.9988V39.0007V41.9996V45.0015V48.0004V50.9993V54.0012H30V57.0001V60.002V63.0009H26.9982V65.9998H23.9994V69.0017V72.0006H21.0037V69.0017H17.9988V72.0006H15V75.0026V78.0014H12.0012H9.00245V81.0003V84.0023H6.00061H2.99878V87.0011H0V90H2.99878H6.00061H9.00245H12.0012H15H17.9988H21.0037H23.9994H26.9982H30H32.9988H36.0006H38.9994H42.0012H45H47.9988H51.0037H53.9994H56.9982H60H62.9988H66.0006H68.9994H72.0012H75H77.9988H81.0037H83.9994H86.9982H90H92.9988H95.9976H98.9994H102.001H105H107.999H110.998H114.002H116.998H120V87.0011H116.998Z" fill="black"/>
</svg>
