<?xml version="1.0" encoding="utf-8"?>
<!-- Generator: Adobe Illustrator 24.1.1, SVG Export Plug-In . SVG Version: 6.00 Build 0)  -->
<svg version="1.1" id="Слой_1" xmlns="http://www.w3.org/2000/svg" xmlns:xlink="http://www.w3.org/1999/xlink" x="0px" y="0px"
	 viewBox="0 0 2280 116.8" style="enable-background:new 0 0 2280 116.8;" xml:space="preserve">
<style type="text/css">
	.st0{fill:#FFCD00;}
	.st1{fill:#5F3002;}
	.st2{fill:#8768E1;}
	.st3{fill:#DB0303;}
</style>
<g id="Слой_2_1_">
	<g>
		<path class="st0" d="M176.5,22.2l-0.6,0.6l-1.3-1.3l-0.6,0.6l-0.7-0.7l-1.3,1.3l0.7,0.7l-2.5,2.5l2.6,2.6l-0.6,0.6l2.5,2.5
			l-0.6,0.6l2,2l-0.6,0.6l0.6,0.6l-0.6,0.6l0.7,0.7l-0.6,0.6l0.6,0.6l-0.6,0.6l0.7,0.7l-1.2,1.3l0.6,0.6l-1.8,1.8l0.6,0.6l-1.9,1.9
			l0.7,0.7l-2.5,2.5l0.6,0.6l-1.2,1.2l0.6,0.6l-0.6,0.6l1.3,1.3l0.6-0.6l0.6,0.6l1.2-1.2l0.7,0.7l1.2-1.2l0.7,0.6l4.3-4.4l-0.7-0.6
			l1.8-1.8l-0.7-0.7l1.3-1.3l-0.6-0.6l1.2-1.3l-0.6-0.6l1.2-1.2l-0.7-0.7l0.6-0.6l-0.6-0.6l0.6-0.6l-0.7-0.7l0.6-0.6l-0.6-0.6
			l0.6-0.6l-1.3-1.3l0.6-0.6l-1.2-1.2l0.6-0.6l-1.3-1.3l0.6-0.6l-2-2l0.6-0.6L176.5,22.2z"/>
		<path class="st1" d="M172.1,21.5l-0.6,0.6l-0.6,0.6l-1.3-1.3L169,22l-1.3-1.3l-0.6,0.6l-0.7-0.6l-1.2,1.3l0.7,0.6l-0.6,0.6
			l1.3,1.3l1.3-1.3l1.3,1.3l0.6-0.6l1.3,1.3l0.6-0.6l0.6-0.6l0.6-0.6l-0.7-0.7l0.6-0.6L172.1,21.5z"/>
	</g>
	<g>
		<path class="st0" d="M295.6,10.5l-0.6,0.6l-1.3-1.3l-0.6,0.6l-0.7-0.7l-1.3,1.3l0.7,0.7l-2.5,2.5l2.6,2.6l-0.6,0.6L294,20
			l-0.6,0.6l2,2l-0.6,0.6l0.6,0.6l-0.6,0.6l0.7,0.7l-0.6,0.6l0.6,0.6l-0.6,0.6l0.7,0.7l-1.2,1.3l0.6,0.6l-1.8,1.8l0.6,0.6l-1.9,1.9
			l0.7,0.7l-2.5,2.5l0.6,0.6l-1.2,1.2l0.6,0.6l-0.6,0.6l1.3,1.3l0.6-0.6l0.6,0.6l1.2-1.2l0.7,0.7l1.2-1.2l0.7,0.6l4.3-4.4l-0.7-0.6
			l1.8-1.8l-0.7-0.7l1.3-1.3l-0.6-0.6l1.2-1.3l-0.6-0.6l1.2-1.2l-0.7-0.7l0.6-0.6l-0.6-0.6l0.6-0.6l-0.7-0.7l0.6-0.6l-0.6-0.6
			l0.6-0.6l-1.3-1.3l0.6-0.6l-1.2-1.2l0.6-0.6l-1.3-1.3l0.6-0.6l-2-2l0.6-0.6L295.6,10.5z"/>
		<path class="st1" d="M291.2,9.8l-0.6,0.6L290,11l-1.3-1.3l-0.6,0.6L286.8,9l-0.6,0.6L285.5,9l-1.2,1.3l0.7,0.6l-0.6,0.6l1.3,1.3
			l1.3-1.3l1.3,1.3l0.6-0.6l1.3,1.3l0.6-0.6l0.6-0.6l0.6-0.6l-0.7-0.7l0.6-0.6L291.2,9.8z"/>
	</g>
	<g>
		<path class="st0" d="M392.7,7.9v0.9h-1.8v0.8h-1v1.8h1v3.5h3.7v0.8h3.6v0.9h2.8v0.9h0.9v0.9h1v0.9h0.9v0.9h1V22h0.9v2.6h0.9v2.7h1
			v3.5h0.9v1.7h0.9v0.9h1.9v-0.9h0.9v-1.7h1V29h0.9l0.1-6.2h-0.9v-2.6h-1v-1.8h-0.9v-1.8h-0.9v-1.7h-1V14h-0.9v-0.9h-1v-0.9h-0.9
			v-0.9h-1.9v-0.9h-1.7V9.5h-1.9V8.6h-2.8V7.7L392.7,7.9z"/>
		<path class="st1" d="M389,10.5v0.9v0.9h-1.8v0.9h-1.8v0.9h-0.9v1.8h0.9v0.9h1.8V15h1.8v-0.9h1.8v-0.9v-0.9v-0.9h-1v-0.9L389,10.5z
			"/>
	</g>
	<g>
		<path class="st0" d="M504.9,5.8l0.4,0.8l-1.6,0.7L504,8l-0.9,0.4l0.7,1.7l0.9-0.4l1.4,3.2l3.4-1.5l0.3,0.8l3.3-1.5l0.4,0.8
			l2.6-1.2l0.3,0.8l0.8-0.4l0.4,0.8l0.9-0.4l0.3,0.8l0.8-0.3l0.4,0.8l0.9-0.4l0.7,1.6l0.8-0.4l1.1,2.4l0.8-0.3l1.1,2.5l0.9-0.4
			l1.4,3.2l0.8-0.4l0.7,1.6l0.8-0.3l0.4,0.8l1.7-0.8l-0.4-0.8l0.8-0.3l-0.7-1.6l0.9-0.4l-0.7-1.6l0.8-0.4l-2.5-5.6l-0.8,0.4l-1-2.4
			l-0.9,0.4l-0.7-1.7L526,7.9l-0.7-1.6l-0.8,0.4l-0.7-1.6l-0.9,0.4l-0.4-0.8L521.7,5l-0.4-0.8l-0.9,0.4l-0.3-0.8l-0.8,0.4l-0.4-0.8
			l-1.7,0.8l-0.3-0.8L515.3,4l-0.4-0.8L513.2,4l-0.4-0.8l-2.6,1.1l-0.4-0.8L504.9,5.8z"/>
		<path class="st1" d="M502.7,9.6l0.4,0.8l0.4,0.8l-1.7,0.8l0.4,0.8l-1.7,0.8l0.4,0.8l-0.8,0.4l0.7,1.6l0.8-0.4l0.4,0.8l1.7-0.8
			l-0.7-1.6l1.7-0.8l-0.4-0.8L506,12l-0.4-0.8l-0.4-0.8l-0.4-0.8l-0.9,0.4l-0.4-0.8L502.7,9.6z"/>
	</g>
	<g>
		<path class="st0" d="M622.5,20.6l0.9,0.1l-0.2,1.8l0.8,0.1l-0.1,0.9l1.8,0.3l0.1-0.9l3.5,0.5l0.5-3.7l0.8,0.1l0.5-3.5l0.9,0.1
			l0.4-2.8l0.9,0.1l0.1-0.9l0.9,0.1l0.1-1l0.8,0.1l0.1-0.8l0.9,0.1l0.1-1l1.8,0.3l0.1-0.9l2.6,0.4l0.1-0.8l2.7,0.4l0.1-1l3.5,0.5
			l0.1-0.9l1.7,0.2l0.1-0.8l0.9,0.1l0.3-1.9L649.5,6l0.1-0.8L647.9,5l0.1-1l-1.7-0.3l0.1-0.9l-6.1-0.9l-0.1,0.9l-2.5-0.4l-0.1,1
			l-1.8-0.3L635.6,4l-1.7-0.3l-0.1,0.9L632,4.3l-0.1,1L631,5.2L630.8,6l-0.9-0.1l-0.1,1L629,6.7l-0.1,0.9L628,7.5l-0.3,1.8l-0.8-0.1
			l-0.2,1.7l-0.9-0.1l-0.3,1.9l-0.9-0.1l-0.4,2.8l-0.9-0.1L622.5,20.6z"/>
		<path class="st1" d="M624.6,24.6l0.9,0.1l0.9,0.1l-0.3,1.8l0.9,0.1l-0.3,1.8l0.9,0.1l-0.1,0.9l1.8,0.3l0.1-0.9l0.9,0.1l0.3-1.8
			l-1.8-0.3l0.3-1.8l-0.9-0.1l0.3-1.8l-0.9-0.1l-0.9-0.1l-0.9-0.1l-0.1,1l-0.9-0.1L624.6,24.6z"/>
	</g>
	<g>
		<path class="st0" d="M736.1,28.6l0.9,0.1l-0.2,1.8l0.8,0.1l-0.1,0.9l1.8,0.3l0.1-0.9l3.5,0.5l0.5-3.7l0.8,0.1l0.5-3.5l0.9,0.1
			l0.4-2.8l0.9,0.1l0.1-0.9l0.9,0.1l0.1-1l0.8,0.1l0.1-0.8l0.9,0.1l0.1-1l1.8,0.3l0.1-0.9l2.6,0.4l0.1-0.8l2.7,0.4l0.1-1l3.5,0.5
			l0.1-0.9l1.7,0.2l0.1-0.8l0.9,0.1l0.3-1.9l-0.9-0.1l0.1-0.8l-1.7-0.2l0.1-1l-1.7-0.3l0.1-0.9l-6.1-0.9l-0.1,0.9l-2.5-0.4l-0.1,1
			l-1.8-0.3l-0.1,0.8l-1.7-0.3l-0.1,0.9l-1.7-0.2l-0.1,1l-0.9-0.1l-0.1,0.8l-0.9-0.1l-0.1,1l-0.8-0.1l-0.1,0.9l-0.9-0.1l-0.3,1.8
			l-0.8-0.1l-0.2,1.7l-0.9-0.1l-0.3,1.9l-0.9-0.1l-0.4,2.8l-0.9-0.1L736.1,28.6z"/>
		<path class="st1" d="M738.2,32.6l0.9,0.1l0.9,0.1l-0.3,1.8l0.9,0.1l-0.3,1.8l0.9,0.1l-0.1,0.9l1.8,0.3l0.1-0.9l0.9,0.1l0.3-1.8
			l-1.8-0.3l0.3-1.8l-0.9-0.1l0.3-1.8l-0.9-0.1l-0.9-0.1l-0.9-0.1l-0.1,1l-0.9-0.1L738.2,32.6z"/>
	</g>
	<g>
		<path class="st0" d="M857.7,33.6l0.9-0.2l0.4,1.7l0.8-0.2l0.2,0.9l1.8-0.4l-0.2-0.9l3.4-0.8l-0.9-3.6l0.8-0.2l-0.9-3.5l0.9-0.2
			l-0.7-2.7l0.8-0.2l-0.2-0.9l0.9-0.2l-0.2-0.9l0.8-0.2l-0.2-0.8L867,20l-0.2-1l1.7-0.4l-0.2-0.9l2.5-0.6l-0.2-0.8l2.6-0.6l-0.2-1
			l3.4-0.8l-0.2-0.9l1.7-0.4l-0.2-0.8l0.9-0.2l-0.5-1.8l-0.9,0.2L877,9.1l-1.7,0.4l-0.2-1L873.4,9l-0.2-0.9l-6,1.5l0.2,0.9l-2.5,0.6
			l0.2,1l-1.8,0.4l0.2,0.8l-1.7,0.4l0.2,0.9l-1.7,0.4l0.2,1l-0.9,0.2l0.2,0.8l-0.9,0.2l0.2,1l-0.8,0.2l0.2,0.9l-0.9,0.2l0.5,1.8
			l-0.8,0.2l0.4,1.7l-0.9,0.2l0.5,1.8l-0.8,0.2l0.7,2.7l-0.9,0.2L857.7,33.6z"/>
		<path class="st1" d="M861.2,36.5l0.9-0.2l0.9-0.2l0.4,1.8l0.9-0.2l0.4,1.8l0.9-0.2l0.2,0.9l1.7-0.4l-0.2-0.9l0.9-0.2l-0.4-1.8
			l-1.7,0.4l-0.4-1.8l-0.9,0.2l-0.4-1.8l-0.9,0.2l-0.9,0.2l-0.9,0.2l0.2,1l-0.9,0.2L861.2,36.5z"/>
	</g>
	<g>
		<path class="st0" d="M986.9,51.6l0.7-0.6l1.2,1.3l0.6-0.6l0.7,0.7l1.3-1.3l-0.7-0.7l2.6-2.4l-2.5-2.7l0.6-0.6l-2.5-2.6l0.6-0.6
			l-1.9-2l0.6-0.6l-0.6-0.6l0.7-0.6l-0.7-0.7l0.6-0.6l-0.6-0.6l0.6-0.6l-0.7-0.7l1.3-1.2l-0.6-0.6l1.9-1.8l-0.6-0.6l2-1.9l-0.7-0.7
			l2.6-2.4l-0.6-0.6l1.3-1.2l-0.6-0.6l0.7-0.6l-1.3-1.4l-0.7,0.6l-0.6-0.6l-1.3,1.2l-0.7-0.7l-1.3,1.2l-0.6-0.7l-4.5,4.2l0.6,0.7
			l-1.9,1.8l0.7,0.7l-1.3,1.3L982,31l-1.3,1.2l0.6,0.6L980,34l0.7,0.7l-0.7,0.6l0.6,0.6l-0.6,0.6l0.7,0.7l-0.6,0.6l0.6,0.7l-0.7,0.6
			l1.3,1.4l-0.6,0.6l1.2,1.2l-0.7,0.6l1.3,1.4l-0.6,0.6l1.9,2l-0.6,0.6L986.9,51.6z"/>
		<path class="st1" d="M991.3,52.4l0.6-0.6l0.6-0.6l1.3,1.3l0.6-0.6l1.3,1.3l0.6-0.6l0.6,0.7l1.3-1.2l-0.6-0.7l0.6-0.6l-1.3-1.3
			l-1.3,1.2l-1.3-1.3l-0.6,0.6l-1.3-1.3l-0.6,0.6l-0.6,0.6l-0.6,0.6l0.7,0.7l-0.6,0.6L991.3,52.4z"/>
	</g>
	<g>
		<path class="st0" d="M1110.7,59.7l0.7-0.6l1.2,1.3l0.6-0.6l0.7,0.7l1.3-1.3l-0.7-0.7l2.6-2.4l-2.5-2.7l0.6-0.6l-2.5-2.6l0.6-0.6
			l-1.9-2l0.6-0.6l-0.6-0.6l0.7-0.6l-0.7-0.7l0.6-0.6l-0.6-0.6l0.6-0.6l-0.7-0.7l1.3-1.2l-0.6-0.6l1.9-1.8l-0.6-0.6l2-1.9l-0.7-0.7
			l2.6-2.4l-0.6-0.6l1.3-1.2l-0.6-0.6l0.7-0.6l-1.3-1.4l-0.7,0.6l-0.6-0.6l-1.3,1.2l-0.7-0.7l-1.3,1.2l-0.6-0.7l-4.5,4.2l0.6,0.7
			l-1.9,1.8l0.7,0.7l-1.3,1.3l0.6,0.6l-1.3,1.2l0.6,0.6l-1.3,1.2l0.7,0.7l-0.7,0.6l0.6,0.6l-0.6,0.6l0.7,0.7l-0.6,0.6l0.6,0.7
			l-0.7,0.6l1.3,1.4l-0.6,0.6l1.2,1.2l-0.7,0.6l1.3,1.4l-0.6,0.6l1.9,2l-0.6,0.6L1110.7,59.7z"/>
		<path class="st1" d="M1115.1,60.6l0.6-0.6l0.6-0.6l1.3,1.3l0.6-0.6l1.3,1.3l0.6-0.6l0.6,0.7l1.3-1.2l-0.6-0.7l0.6-0.6l-1.3-1.3
			l-1.3,1.2l-1.3-1.3l-0.6,0.6l-1.3-1.3l-0.6,0.6l-0.6,0.6l-0.6,0.6l0.7,0.7l-0.6,0.6L1115.1,60.6z"/>
	</g>
	<g>
		<path class="st0" d="M1246.1,71.1l-0.1-0.9l1.8-0.2l-0.1-0.8l0.9-0.1l-0.2-1.8l-0.9,0.1l-0.5-3.5l-3.7,0.5l-0.1-0.8l-3.5,0.5
			l-0.1-0.9l-2.8,0.4l-0.1-0.9l-0.9,0.1l-0.1-0.9l-1,0.1l-0.1-0.8l-0.8,0.1l-0.1-0.9l-1,0.1l-0.2-1.8l-0.9,0.1l-0.3-2.6l-0.8,0.1
			l-0.4-2.7l-1,0.1l-0.5-3.5l-0.9,0.1l-0.2-1.7l-0.8,0.1l-0.1-0.9l-1.9,0.3l0.1,0.9l-0.8,0.1l0.2,1.7l-1,0.1l0.2,1.7l-0.9,0.1
			l0.8,6.1l0.9-0.1l0.3,2.6l1-0.1l0.2,1.8l0.8-0.1l0.2,1.8l0.9-0.1l0.2,1.7l1-0.1l0.1,0.9l0.8-0.1l0.1,0.9l1-0.1l0.1,0.8l0.9-0.1
			l0.1,0.9l1.8-0.3l0.1,0.9l1.7-0.2l0.1,0.9l1.9-0.3l0.1,0.9l2.8-0.4l0.1,0.9L1246.1,71.1z"/>
		<path class="st1" d="M1249.4,68l-0.1-0.9l-0.1-0.9l1.8-0.3l-0.1-0.9l1.8-0.3l-0.1-0.9l0.9-0.1l-0.2-1.8l-0.9,0.1l-0.1-0.9
			l-1.8,0.3l0.2,1.8l-1.8,0.3l0.1,0.9l-1.8,0.3l0.1,0.9l0.1,0.9l0.1,0.9l1-0.1l0.1,0.9L1249.4,68z"/>
	</g>
	<g>
		<path class="st0" d="M1371.6,69.5l-0.5-0.8l1.5-0.9l-0.4-0.7l0.8-0.5l-0.9-1.6l-0.8,0.5l-1.8-3l-3.2,1.9l-0.4-0.7l-3.1,1.8
			l-0.5-0.8l-2.4,1.4l-0.4-0.7l-0.8,0.5l-0.5-0.8l-0.8,0.5l-0.4-0.7l-0.7,0.4l-0.5-0.8L1355,65l-0.9-1.5l-0.8,0.5l-1.3-2.2l-0.7,0.4
			l-1.4-2.3l-0.8,0.5l-1.8-3l-0.8,0.5l-0.9-1.5l-0.7,0.4l-0.5-0.8l-1.6,1l0.5,0.8l-0.7,0.4l0.9,1.5l-0.8,0.5l0.9,1.5l-0.8,0.5
			l3.2,5.3l0.8-0.5l1.3,2.2l0.8-0.5l0.9,1.6l0.7-0.4l0.9,1.5l0.8-0.5l0.9,1.5l0.8-0.5l0.5,0.8l0.7-0.4l0.5,0.8l0.8-0.5l0.4,0.7
			l0.8-0.5l0.5,0.8l1.6-1l0.4,0.7l1.5-0.9l0.5,0.8l1.6-1l0.4,0.7l2.4-1.4l0.5,0.8L1371.6,69.5z"/>
		<path class="st1" d="M1373.3,65.3l-0.5-0.8l-0.5-0.8l1.6-0.9l-0.5-0.8l1.6-0.9l-0.5-0.8l0.8-0.5l-0.9-1.5l-0.8,0.5l-0.5-0.8
			l-1.6,0.9l0.9,1.5l-1.6,0.9l0.5,0.8l-1.6,0.9l0.5,0.8l0.5,0.8l0.5,0.8l0.8-0.5l0.5,0.8L1373.3,65.3z"/>
	</g>
	<polygon class="st0" points="319.1,19.6 319.7,18.5 316.9,17 316.9,16.9 317.5,16 318.4,16.7 319.1,16 319.5,16.3 321.3,14.4 
		321.7,14.9 323.1,13.1 320.8,11.3 321.1,10.6 319.7,10 319.8,9.5 318.1,9.4 317.9,9.3 317.9,9.4 316.4,9.3 316.3,10.6 315.3,10.2 
		315.2,11.5 315,12.1 314.4,12 314.3,13.4 315.9,13.5 315.8,14 315.1,15.5 314.9,15.9 312.5,14.6 311.7,16 310.4,15.2 303.8,27.5 
		304.8,28.1 304.2,29.3 307.6,31.1 307.1,31.9 306.2,31.2 305.5,31.9 305.1,31.6 303.3,33.5 302.9,33 301.5,34.8 303.8,36.6 
		303.5,37.3 304.9,37.9 304.9,38.4 306.5,38.5 306.7,38.6 306.7,38.5 308.2,38.6 308.3,37.3 309.3,37.7 309.4,36.4 309.6,35.8 
		310.2,35.9 310.3,34.5 308.7,34.4 308.8,34 309.5,32.4 309.6,32.2 311.7,33.3 312.4,32 313.7,32.7 320.4,20.3 	"/>
	<polygon class="st0" points="438.7,13.8 439.3,12.7 436.5,11.2 436.5,11.1 437.1,10.2 438,10.9 438.7,10.2 439.1,10.5 440.9,8.6 
		441.3,9.1 442.7,7.3 440.4,5.5 440.7,4.7 439.3,4.2 439.4,3.7 437.7,3.6 437.5,3.5 437.5,3.6 436,3.5 435.9,4.7 434.9,4.4 
		434.8,5.7 434.6,6.3 434,6.2 434,7.6 435.5,7.7 435.4,8.1 434.7,9.7 434.5,10.1 432.1,8.8 431.4,10.2 430,9.4 423.4,21.7 
		424.4,22.3 423.8,23.4 427.2,25.3 426.7,26.1 425.8,25.4 425.1,26.1 424.7,25.8 423,27.7 422.5,27.2 421.1,28.9 423.4,30.8 
		423.1,31.5 424.5,32.1 424.5,32.6 426.1,32.7 426.3,32.8 426.3,32.7 427.8,32.8 427.9,31.5 428.9,31.8 429,30.6 429.3,30 
		429.8,30.1 429.9,28.7 428.3,28.6 428.4,28.2 429.1,26.6 429.2,26.4 431.3,27.5 432,26.2 433.3,26.9 440,14.5 	"/>
	<polygon class="st0" points="564.1,10.2 565.2,9.6 563.7,6.8 563.7,6.8 564.7,6.3 565.1,7.4 566.1,7.1 566.3,7.6 568.7,7 
		568.9,7.6 571,6.9 570,4 570.6,3.6 569.8,2.4 570.1,2 568.8,1 568.6,0.9 568.6,0.9 567.3,0 566.6,1 565.9,0.2 565.2,1.3 564.7,1.6 
		564.2,1.3 563.4,2.4 564.7,3.3 564.4,3.7 562.9,4.6 562.6,4.8 561.2,2.5 559.9,3.2 559.1,1.9 547,8.7 547.6,9.8 546.4,10.5 
		548.3,13.9 547.5,14.3 547.1,13.2 546.1,13.4 545.9,12.9 543.4,13.6 543.3,13 541.2,13.7 542.2,16.5 541.5,17 542.4,18.1 
		542.1,18.5 543.4,19.5 543.6,19.7 543.6,19.6 544.9,20.5 545.6,19.5 546.3,20.3 547,19.3 547.5,18.9 548,19.2 548.8,18.1 
		547.5,17.2 547.8,16.9 549.3,16 549.4,15.8 550.6,17.9 551.9,17.1 552.6,18.4 564.9,11.4 	"/>
	<polygon class="st0" points="687,15.3 688.3,15.6 688.8,12.5 688.9,12.4 690,12.7 689.6,13.8 690.5,14.2 690.3,14.7 692.6,15.8 
		692.3,16.3 694.4,17.1 695.5,14.4 696.3,14.4 696.3,12.9 696.8,12.8 696.4,11.2 696.4,11 696.4,11 696,9.5 694.7,9.9 694.7,8.8 
		693.5,9.1 692.9,9.1 692.8,8.6 691.4,8.9 691.9,10.4 691.4,10.5 689.7,10.2 689.2,10.2 689.7,7.5 688.2,7.2 688.4,5.7 674.7,3.3 
		674.5,4.5 673.2,4.3 672.5,8.1 671.6,7.9 672,6.8 671.1,6.4 671.2,5.9 668.9,4.8 669.2,4.3 667.1,3.5 666.1,6.2 665.3,6.2 
		665.2,7.7 664.7,7.8 665.1,9.3 665.1,9.6 665.2,9.6 665.6,11.1 666.8,10.7 666.8,11.8 668,11.5 668.7,11.5 668.8,12 670.1,11.7 
		669.7,10.2 670.2,10.1 671.9,10.3 672.1,10.4 671.7,12.7 673.2,12.9 672.9,14.3 686.8,16.8 	"/>
	<polygon class="st0" points="813.8,28.5 814.7,29.4 816.9,27.2 817,27.2 817.7,28 816.8,28.7 817.3,29.6 816.9,29.9 818.2,32.1 
		817.6,32.4 818.9,34.2 821.3,32.5 822,33 822.8,31.8 823.3,32 823.9,30.4 824,30.3 824,30.2 824.5,28.8 823.3,28.4 823.9,27.5 
		822.7,27 822.2,26.7 822.4,26.2 821.1,25.7 820.6,27.2 820.1,27 818.9,25.8 818.5,25.5 820.4,23.6 819.3,22.5 820.4,21.4 
		810.4,11.6 809.6,12.5 808.6,11.6 805.9,14.4 805.3,13.7 806.2,13 805.7,12.1 806.1,11.8 804.8,9.6 805.4,9.3 804.1,7.5 801.6,9.2 
		801,8.7 800.1,9.9 799.7,9.7 799.1,11.2 799,11.4 799,11.5 798.5,12.9 799.7,13.3 799.1,14.2 800.3,14.6 800.8,15 800.6,15.5 
		801.9,16 802.4,14.5 802.8,14.7 804.1,15.9 804.3,16 802.7,17.7 803.7,18.7 802.7,19.7 812.8,29.6 	"/>
	<polygon class="st0" points="930.2,31.5 930.4,32.7 933.5,32.1 933.6,32.2 933.7,33.3 932.5,33.3 932.4,34.3 931.9,34.3 
		931.7,36.9 931.1,36.8 931,39 934,39.1 934.2,39.8 935.6,39.4 935.9,39.8 937.3,38.9 937.5,38.8 937.5,38.7 938.7,37.9 938,36.8 
		939,36.5 938.3,35.4 938.1,34.8 938.5,34.5 937.8,33.4 936.5,34.3 936.3,33.9 935.9,32.2 935.8,31.7 938.5,31.3 938.2,29.8 
		939.7,29.5 937.4,15.8 936.2,16 935.9,14.6 932.1,15.3 932,14.4 933.1,14.4 933.2,13.4 933.7,13.4 934,10.8 934.6,10.9 934.6,8.7 
		931.7,8.6 931.4,7.9 930,8.3 929.8,7.9 928.4,8.8 928.2,8.9 928.2,8.9 927,9.8 927.7,10.9 926.7,11.2 927.4,12.3 927.6,12.9 
		927.1,13.2 927.9,14.3 929.2,13.4 929.4,13.8 929.8,15.5 929.8,15.7 927.5,16.1 927.8,17.6 926.4,17.8 928.8,31.7 	"/>
	<polygon class="st0" points="1053.1,44.2 1053.3,45.4 1056.4,44.9 1056.4,44.9 1056.5,46 1055.4,46 1055.3,47.1 1054.8,47.1 
		1054.5,49.6 1053.9,49.5 1053.9,51.8 1056.8,51.8 1057.1,52.5 1058.5,52.1 1058.8,52.6 1060.1,51.6 1060.3,51.6 1060.3,51.5 
		1061.6,50.6 1060.8,49.6 1061.8,49.2 1061.1,48.2 1060.9,47.6 1061.4,47.3 1060.6,46.2 1059.4,47.1 1059.1,46.6 1058.7,45 
		1058.6,44.5 1061.3,44 1061.1,42.5 1062.6,42.3 1060.2,28.5 1059,28.7 1058.8,27.4 1054.9,28.1 1054.8,27.1 1056,27.2 1056.1,26.1 
		1056.6,26.1 1056.8,23.6 1057.4,23.7 1057.5,21.4 1054.5,21.4 1054.3,20.6 1052.9,21.1 1052.6,20.6 1051.3,21.6 1051,21.6 
		1051.1,21.7 1049.8,22.6 1050.5,23.6 1049.5,24 1050.2,25 1050.4,25.6 1050,25.9 1050.8,27 1052,26.1 1052.2,26.6 1052.6,28.2 
		1052.7,28.5 1050.4,28.9 1050.6,30.3 1049.2,30.6 1051.6,44.5 	"/>
	<polygon class="st0" points="1163.3,53.9 1162.9,55.1 1165.8,56.1 1165.8,56.1 1165.4,57.2 1164.4,56.6 1163.8,57.5 1163.4,57.2 
		1161.9,59.3 1161.4,58.9 1160.3,60.9 1162.9,62.4 1162.7,63.1 1164.2,63.4 1164.2,63.9 1165.8,63.8 1166,63.8 1166.1,63.8 
		1167.6,63.6 1167.5,62.4 1168.5,62.5 1168.4,61.3 1168.5,60.7 1169,60.6 1168.9,59.3 1167.4,59.4 1167.4,58.9 1167.9,57.3 
		1168,56.8 1170.6,57.7 1171.1,56.3 1172.5,56.8 1177.1,43.6 1176,43.2 1176.4,42 1172.7,40.7 1173.1,39.8 1174.1,40.4 1174.7,39.5 
		1175.1,39.8 1176.6,37.7 1177.1,38.1 1178.2,36.1 1175.6,34.6 1175.8,33.9 1174.4,33.6 1174.3,33.1 1172.7,33.2 1172.5,33.2 
		1172.4,33.2 1170.9,33.4 1171.1,34.6 1170,34.5 1170.1,35.7 1170,36.3 1169.5,36.4 1169.6,37.8 1171.1,37.6 1171.1,38.1 
		1170.6,39.7 1170.6,39.9 1168.4,39.2 1167.9,40.6 1166.5,40.1 1161.9,53.4 	"/>
	<polygon class="st0" points="1281,64.5 1280.6,65.7 1283.5,66.7 1283.6,66.7 1283.1,67.8 1282.1,67.2 1281.5,68 1281.1,67.8 
		1279.6,69.9 1279.1,69.5 1278,71.5 1280.6,73 1280.4,73.7 1281.9,74 1281.9,74.5 1283.5,74.4 1283.8,74.4 1283.8,74.4 1285.3,74.2 
		1285.2,73 1286.2,73.1 1286.1,71.8 1286.2,71.3 1286.8,71.2 1286.6,69.8 1285.1,70 1285.1,69.5 1285.6,67.9 1285.7,67.4 
		1288.3,68.3 1288.8,66.9 1290.3,67.4 1294.8,54.2 1293.7,53.8 1294.1,52.6 1290.5,51.3 1290.8,50.4 1291.8,51 1292.4,50.1 
		1292.8,50.4 1294.3,48.3 1294.8,48.7 1295.9,46.7 1293.3,45.2 1293.5,44.5 1292.1,44.2 1292,43.7 1290.4,43.8 1290.2,43.8 
		1290.2,43.8 1288.6,44 1288.8,45.2 1287.7,45.1 1287.8,46.3 1287.7,46.9 1287.2,47 1287.3,48.4 1288.8,48.2 1288.8,48.7 
		1288.3,50.3 1288.3,50.5 1286.1,49.8 1285.6,51.2 1284.2,50.7 1279.6,64 	"/>
	<polygon class="st0" points="1397.9,73.5 1397.5,74.7 1400.5,75.7 1400.5,75.8 1400.1,76.8 1399.1,76.2 1398.5,77.1 1398.1,76.8 
		1396.6,79 1396.1,78.6 1395,80.5 1397.6,82 1397.4,82.7 1398.8,83.1 1398.9,83.6 1400.5,83.4 1400.7,83.5 1400.7,83.4 1402.3,83.3 
		1402.1,82 1403.2,82.1 1403.1,80.9 1403.2,80.3 1403.7,80.2 1403.6,78.9 1402.1,79 1402.1,78.6 1402.6,76.9 1402.7,76.5 
		1405.3,77.4 1405.8,75.9 1407.2,76.4 1411.8,63.3 1410.7,62.9 1411.1,61.6 1407.4,60.3 1407.8,59.5 1408.8,60 1409.4,59.2 
		1409.8,59.4 1411.3,57.3 1411.8,57.7 1412.9,55.7 1410.3,54.3 1410.5,53.5 1409,53.2 1409,52.7 1407.4,52.8 1407.1,52.8 
		1407.1,52.9 1405.6,53 1405.7,54.3 1404.7,54.1 1404.8,55.4 1404.7,56 1404.1,56 1404.3,57.4 1405.8,57.2 1405.8,57.7 1405.3,59.3 
		1405.3,59.6 1403.1,58.8 1402.6,60.2 1401.2,59.7 1396.6,73 	"/>
	<polygon class="st0" points="194.6,33 195.2,31.9 192.4,30.4 192.4,30.3 193,29.4 193.9,30.1 194.6,29.4 195,29.7 196.8,27.8 
		197.2,28.3 198.6,26.5 196.3,24.7 196.6,23.9 195.3,23.4 195.3,22.9 193.7,22.8 193.4,22.7 193.4,22.8 191.9,22.7 191.8,23.9 
		190.8,23.6 190.7,24.9 190.5,25.5 190,25.4 189.9,26.8 191.4,26.9 191.3,27.3 190.6,28.9 190.4,29.3 188,28 187.3,29.4 185.9,28.6 
		179.3,40.9 180.4,41.5 179.7,42.6 183.2,44.5 182.7,45.3 181.8,44.6 181.1,45.3 180.7,45 178.9,46.9 178.5,46.4 177,48.1 179.4,50 
		179.1,50.7 180.4,51.3 180.4,51.8 182,51.9 182.2,52 182.3,51.9 183.8,52 183.9,50.7 184.9,51 184.9,49.8 185.2,49.2 185.7,49.3 
		185.8,47.9 184.3,47.8 184.3,47.4 185.1,45.8 185.2,45.6 187.2,46.7 187.9,45.4 189.2,46.1 195.9,33.7 	"/>
</g>
<path class="st2" d="M597,113.8v-3h-3h-3v-3h-3h-3v-3v-3h-3h-3v-3v-3h-3v-3v-3h-3v-3v-3v-3h-3v-3v-3v-3v-3h-3v-3v-3v-3v-3v-3h-3v-3
	h-3v-3v-3v-3v-3v-3v-3h-3v-3h-3v-3h-3h-3v3h-3h-3v-3h-3h-3h-3h-3h-3h-3h-3v3v3h-3h-3v3v3v3v3v3v3v3v3v3v3h-3v3v3v3v3v3v3h-3v3v3v3
	h-3v3h-3v3v3h-3v-3h-3v3h-3v3v3h-3h-3v3v3h-3h-3v3h-3v3h3h3h3h3h3h3h3h3h3h3h3h3h3h3h3h3h3h3h3h3h3h3h3h3h3h3h3h3h3h3h3h3h3h3h3h3h3
	h3h3h3v-3H597z"/>
<path class="st2" d="M237,113.8v-3h-3h-3v-3h-3h-3v-3v-3h-3h-3v-3v-3h-3v-3v-3h-3v-3v-3v-3h-3v-3v-3v-3v-3h-3v-3v-3v-3v-3v-3h-3v-3
	h-3v-3v-3v-3v-3v-3v-3h-3v-3h-3v-3h-3h-3v3h-3h-3v-3h-3h-3h-3h-3h-3h-3h-3v3v3h-3h-3v3v3v3v3v3v3v3v3v3v3h-3v3v3v3v3v3v3h-3v3v3v3
	h-3v3h-3v3v3h-3v-3h-3v3h-3v3v3h-3h-3v3v3h-3h-3v3h-3v3h3h3h3h3h3h3h3h3h3h3h3h3h3h3h3h3h3h3h3h3h3h3h3h3h3h3h3h3h3h3h3h3h3h3h3h3h3
	h3h3h3v-3H237z"/>
<path class="st2" d="M117,113.8v-3h-3h-3v-3h-3h-3v-3v-3h-3h-3v-3v-3h-3v-3v-3h-3v-3v-3v-3h-3v-3v-3v-3v-3h-3v-3v-3v-3v-3v-3h-3v-3
	h-3v-3v-3v-3v-3v-3v-3h-3v-3h-3v-3h-3h-3v3h-3h-3v-3h-3h-3h-3h-3h-3h-3h-3v3v3h-3h-3v3v3v3v3v3v3v3v3v3v3h-3v3v3v3v3v3v3h-3v3v3v3
	h-3v3h-3v3v3h-3v-3h-3v3h-3v3v3h-3H9v3v3H6H3v3H0v3h3h3h3h3h3h3h3h3h3h3h3h3h3h3h3h3h3h3h3h3h3h3h3h3h3h3h3h3h3h3h3h3h3h3h3h3h3h3h3
	h3v-3H117z"/>
<rect x="183.1" y="23.8" class="st3" width="6" height="6"/>
<rect x="303.1" y="23.8" class="st3" width="18" height="6"/>
<rect x="542.9" y="23.8" class="st3" width="18" height="6"/>
<rect x="558" y="26.8" class="st3" width="6" height="6"/>
<rect x="516" y="20.8" class="st3" width="6" height="12"/>
<rect x="522" y="20.8" class="st3" width="6" height="6"/>
<rect x="510" y="32.8" class="st3" width="6" height="6"/>
<rect x="560.9" y="17.9" class="st3" width="6" height="6"/>
<path class="st2" d="M2277,113.8v-3h-3h-3v-3h-3h-3v-3v-3h-3h-3v-3v-3h-3v-3v-3h-3v-3v-3v-3h-3v-3v-3v-3v-3h-3v-3v-3v-3v-3v-3h-3v-3
	h-3v-3v-3v-3v-3v-3v-3h-3v-3h-3v-3h-3h-3v3h-3h-3v-3h-3h-3h-3h-3h-3h-3h-3v3v3h-3h-3v3v3v3v3v3v3v3v3v3v3h-3v3v3v3v3v3v3h-3v3v3v3
	h-3v3h-3v3v3h-3v-3h-3v3h-3v3v3h-3h-3v3v3h-3h-3v3h-3v3h3h3h3h3h3h3h3h3h3h3h3h3h3h3h3h3h3h3h3h3h3h3h3h3h3h3h3h3h3h3h3h3h3h3h3h3h3
	h3h3h3v-3H2277z"/>
<rect x="680.9" y="44.8" class="st3" width="6" height="6"/>
<rect x="662.9" y="23.8" class="st3" width="18" height="6"/>
<rect x="636" y="20.8" class="st3" width="26.9" height="6"/>
<rect x="678" y="26.8" class="st3" width="6" height="6"/>
<rect x="636" y="20.8" class="st3" width="6" height="12"/>
<rect x="630" y="32.8" class="st3" width="6" height="12"/>
<path class="st2" d="M477,113.8v-3h-3h-3v-3h-3h-3v-3v-3h-3h-3v-3v-3h-3v-3v-3h-3v-3v-3v-3h-3v-3v-3v-3v-3h-3v-3v-3v-3v-3v-3h-3v-3
	h-3v-3v-3v-3v-3v-3v-3h-3v-3h-3v-3h-3h-3v3h-3h-3v-3h-3h-3h-3h-3h-3h-3h-3v3v3h-3h-3v3v3v3v3v3v3v3v3v3v3h-3v3v3v3v3v3v3h-3v3v3v3
	h-3v3h-3v3v3h-3v-3h-3v3h-3v3v3h-3h-3v3v3h-3h-3v3h-3v3h3h3h3h3h3h3h3h3h3h3h3h3h3h3h3h3h3h3h3h3h3h3h3h3h3h3h3h3h3h3h3h3h3h3h3h3h3
	h3h3h3v-3H477z"/>
<path class="st2" d="M357,113.8v-3h-3h-3v-3h-3h-3v-3v-3h-3h-3v-3v-3h-3v-3v-3h-3v-3v-3v-3h-3v-3v-3v-3v-3h-3v-3v-3v-3v-3v-3h-3v-3
	h-3v-3v-3v-3v-3v-3v-3h-3v-3h-3v-3h-3h-3v3h-3h-3v-3h-3h-3h-3h-3h-3h-3h-3v3v3h-3h-3v3v3v3v3v3v3v3v3v3v3h-3v3v3v3v3v3v3h-3v3v3v3
	h-3v3h-3v3v3h-3v-3h-3v3h-3v3v3h-3h-3v3v3h-3h-3v3h-3v3h3h3h3h3h3h3h3h3h3h3h3h3h3h3h3h3h3h3h3h3h3h3h3h3h3h3h3h3h3h3h3h3h3h3h3h3h3
	h3h3h3v-3H357z"/>
<rect x="422.9" y="23.8" class="st3" width="18" height="6"/>
<rect x="438" y="26.8" class="st3" width="6" height="6"/>
<rect x="396" y="20.8" class="st3" width="6" height="6"/>
<rect x="2207.9" y="45.2" class="st3" width="6" height="6"/>
<rect x="2202" y="59.8" class="st3" width="6" height="6"/>
<path class="st2" d="M2157,113.8v-3h-3h-3v-3h-3h-3v-3v-3h-3h-3v-3v-3h-3v-3v-3h-3v-3v-3v-3h-3v-3v-3v-3v-3h-3v-3v-3v-3v-3v-3h-3v-3
	h-3v-3v-3v-3v-3v-3v-3h-3v-3h-3v-3h-3h-3v3h-3h-3v-3h-3h-3h-3h-3h-3h-3h-3v3v3h-3h-3v3v3v3v3v3v3v3v3v3v3h-3v3v3v3v3v3v3h-3v3v3v3
	h-3v3h-3v3v3h-3v-3h-3v3h-3v3v3h-3h-3v3v3h-3h-3v3h-3v3h3h3h3h3h3h3h3h3h3h3h3h3h3h3h3h3h3h3h3h3h3h3h3h3h3h3h3h3h3h3h3h3h3h3h3h3h3
	h3h3h3v-3H2157z"/>
<rect x="2120.9" y="62.8" class="st3" width="6" height="6"/>
<rect x="2129.9" y="74.8" class="st3" width="6" height="6"/>
<rect x="2097" y="62.8" class="st3" width="6" height="6"/>
<rect x="2087.9" y="37.3" class="st3" width="6" height="13.9"/>
<rect x="2115" y="50.5" class="st3" width="6" height="8.6"/>
<rect x="2082" y="53.8" class="st3" width="6" height="6"/>
<path class="st2" d="M2037,113.8v-3h-3h-3v-3h-3h-3v-3v-3h-3h-3v-3v-3h-3v-3v-3h-3v-3v-3v-3h-3v-3v-3v-3v-3h-3v-3v-3v-3v-3v-3h-3v-3
	h-3v-3v-3v-3v-3v-3v-3h-3v-3h-3v-3h-3h-3v3h-3h-3v-3h-3h-3h-3h-3h-3h-3h-3v3v3h-3h-3v3v3v3v3v3v3v3v3v3v3h-3v3v3v3v3v3v3h-3v3v3v3
	h-3v3h-3v3v3h-3v-3h-3v3h-3v3v3h-3h-3v3v3h-3h-3v3h-3v3h3h3h3h3h3h3h3h3h3h3h3h3h3h3h3h3h3h3h3h3h3h3h3h3h3h3h3h3h3h3h3h3h3h3h3h3h3
	h3h3h3v-3H2037z"/>
<rect x="2000.9" y="59.1" class="st3" width="6" height="9.7"/>
<rect x="1995" y="37.3" class="st3" width="6" height="13.5"/>
<rect x="2012.9" y="83.8" class="st3" width="6" height="6"/>
<rect x="2009.9" y="74.8" class="st3" width="6" height="6"/>
<rect x="1941" y="86" class="st3" width="6" height="6.7"/>
<rect x="1977" y="59.1" class="st3" width="6" height="9.7"/>
<rect x="1967.9" y="26.7" class="st3" width="6" height="18.5"/>
<rect x="1995" y="40.3" class="st3" width="6" height="18.8"/>
<rect x="1962" y="45.2" class="st3" width="6" height="8.6"/>
<rect x="1956" y="95.1" class="st3" width="6" height="5.8"/>
<path class="st2" d="M1917,113.8v-3h-3h-3v-3h-3h-3v-3v-3h-3h-3v-3v-3h-3v-3v-3h-3v-3v-3v-3h-3v-3v-3v-3v-3h-3v-3v-3v-3v-3v-3h-3v-3
	h-3v-3v-3v-3v-3v-3v-3h-3v-3h-3v-3h-3h-3v3h-3h-3v-3h-3h-3h-3h-3h-3h-3h-3v3v3h-3h-3v3v3v3v3v3v3v3v3v3v3h-3v3v3v3v3v3v3h-3v3v3v3
	h-3v3h-3v3v3h-3v-3h-3v3h-3v3v3h-3h-3v3v3h-3h-3v3h-3v3h3h3h3h3h3h3h3h3h3h3h3h3h3h3h3h3h3h3h3h3h3h3h3h3h3h3h3h3h3h3h3h3h3h3h3h3h3
	h3h3h3v-3H1917z"/>
<rect x="1880.9" y="45.2" class="st3" width="6" height="23.6"/>
<rect x="1875" y="37.3" class="st3" width="6" height="13.5"/>
<rect x="1892.9" y="80.8" class="st3" width="6" height="9"/>
<rect x="1889.9" y="74.8" class="st3" width="6" height="6"/>
<rect x="1824" y="80.8" class="st3" width="6" height="9"/>
<rect x="1821" y="86" class="st3" width="6" height="6.7"/>
<rect x="1857" y="53.8" class="st3" width="6" height="15"/>
<rect x="1847.9" y="26.7" class="st3" width="6" height="18.5"/>
<rect x="1875" y="40.3" class="st3" width="6" height="18.8"/>
<rect x="1842" y="32.8" class="st3" width="6" height="21"/>
<rect x="1836" y="89.3" class="st3" width="6" height="11.6"/>
<path class="st2" d="M1797,113.8v-3h-3h-3v-3h-3h-3v-3v-3h-3h-3v-3v-3h-3v-3v-3h-3v-3v-3v-3h-3v-3v-3v-3v-3h-3v-3v-3v-3v-3v-3h-3v-3
	h-3v-3v-3v-3v-3v-3v-3h-3v-3h-3v-3h-3h-3v3h-3h-3v-3h-3h-3h-3h-3h-3h-3h-3v3v3h-3h-3v3v3v3v3v3v3v3v3v3v3h-3v3v3v3v3v3v3h-3v3v3v3
	h-3v3h-3v3v3h-3v-3h-3v3h-3v3v3h-3h-3v3v3h-3h-3v3h-3v3h3h3h3h3h3h3h3h3h3h3h3h3h3h3h3h3h3h3h3h3h3h3h3h3h3h3h3h3h3h3h3h3h3h3h3h3h3
	h3h3h3v-3H1797z"/>
<rect x="1710" y="54" class="st3" width="6" height="8.8"/>
<rect x="1760.9" y="40.3" class="st3" width="6" height="28.5"/>
<rect x="1755" y="37.3" class="st3" width="6" height="13.5"/>
<rect x="1766.9" y="62.8" class="st3" width="6" height="6"/>
<rect x="1772.9" y="80.8" class="st3" width="6" height="9"/>
<rect x="1769.9" y="68.8" class="st3" width="6" height="12"/>
<rect x="1707" y="71.8" class="st3" width="6" height="9"/>
<rect x="1704" y="79.3" class="st3" width="6" height="10.6"/>
<rect x="1701" y="79.3" class="st3" width="6" height="13.4"/>
<rect x="1737" y="40.3" class="st3" width="6" height="28.5"/>
<rect x="1727.9" y="26.7" class="st3" width="6" height="18.5"/>
<rect x="1755" y="29.8" class="st3" width="6" height="29.3"/>
<rect x="1722" y="26.8" class="st3" width="6" height="27"/>
<rect x="1716" y="80.8" class="st3" width="6" height="20.1"/>
<path class="st2" d="M1677,113.8v-3h-3h-3v-3h-3h-3v-3v-3h-3h-3v-3v-3h-3v-3v-3h-3v-3v-3v-3h-3v-3v-3v-3v-3h-3v-3v-3v-3v-3v-3h-3v-3
	h-3v-3v-3v-3v-3v-3v-3h-3v-3h-3v-3h-3h-3v3h-3h-3v-3h-3h-3h-3h-3h-3h-3h-3v3v3h-3h-3v3v3v3v3v3v3v3v3v3v3h-3v3v3v3v3v3v3h-3v3v3v3
	h-3v3h-3v3v3h-3v-3h-3v3h-3v3v3h-3h-3v3v3h-3h-3v3h-3v3h3h3h3h3h3h3h3h3h3h3h3h3h3h3h3h3h3h3h3h3h3h3h3h3h3h3h3h3h3h3h3h3h3h3h3h3h3
	h3h3h3v-3H1677z"/>
<rect x="1622.9" y="26.8" class="st3" width="18" height="6"/>
<rect x="1596" y="26.8" class="st3" width="26.9" height="6"/>
<rect x="1638" y="26.8" class="st3" width="3" height="6"/>
<rect x="1590" y="45.2" class="st3" width="6" height="17.6"/>
<rect x="1640.9" y="37.3" class="st3" width="6" height="31.5"/>
<rect x="1635" y="26.8" class="st3" width="6" height="24"/>
<rect x="1646.9" y="59.1" class="st3" width="6" height="9.7"/>
<rect x="1652.9" y="80.8" class="st3" width="6" height="9"/>
<rect x="1649.9" y="68.8" class="st3" width="6" height="12"/>
<rect x="1587" y="71.8" class="st3" width="6" height="9"/>
<rect x="1584" y="71.8" class="st3" width="6" height="18"/>
<rect x="1581" y="79.3" class="st3" width="6" height="13.4"/>
<rect x="1617" y="40.3" class="st3" width="6" height="28.5"/>
<rect x="1607.9" y="26.7" class="st3" width="6" height="18.5"/>
<rect x="1635" y="31.3" class="st3" width="6" height="27.8"/>
<rect x="1602" y="26.8" class="st3" width="6" height="27"/>
<rect x="1596" y="71.8" class="st3" width="6" height="29.1"/>
<path class="st2" d="M1557,113.8v-3h-3h-3v-3h-3h-3v-3v-3h-3h-3v-3v-3h-3v-3v-3h-3v-3v-3v-3h-3v-3v-3v-3v-3h-3v-3v-3v-3v-3v-3h-3v-3
	h-3v-3v-3v-3v-3v-3v-3h-3v-3h-3v-3h-3h-3v3h-3h-3v-3h-3h-3h-3h-3h-3h-3h-3v3v3h-3h-3v3v3v3v3v3v3v3v3v3v3h-3v3v3v3v3v3v3h-3v3v3v3
	h-3v3h-3v3v3h-3v-3h-3v3h-3v3v3h-3h-3v3v3h-3h-3v3h-3v3h3h3h3h3h3h3h3h3h3h3h3h3h3h3h3h3h3h3h3h3h3h3h3h3h3h3h3h3h3h3h3h3h3h3h3h3h3
	h3h3h3v-3H1557z"/>
<rect x="1502.9" y="23.8" class="st3" width="18" height="6"/>
<rect x="1476" y="23.8" class="st3" width="26.9" height="6"/>
<rect x="1518" y="26.8" class="st3" width="3" height="6"/>
<rect x="1476" y="20.8" class="st3" width="6" height="12"/>
<rect x="1470" y="37.3" class="st3" width="6" height="25.5"/>
<rect x="1520.9" y="32.8" class="st3" width="6" height="36"/>
<rect x="1515" y="23.8" class="st3" width="6" height="27"/>
<rect x="1526.9" y="53.8" class="st3" width="6" height="15"/>
<rect x="1532.9" y="80.8" class="st3" width="6" height="9"/>
<rect x="1529.9" y="68.8" class="st3" width="6" height="12"/>
<rect x="1467" y="62.8" class="st3" width="6" height="18"/>
<rect x="1464" y="71.8" class="st3" width="6" height="18"/>
<rect x="1461" y="79.3" class="st3" width="6" height="13.4"/>
<rect x="1497" y="26.1" class="st3" width="6" height="42.7"/>
<rect x="1487.9" y="21" class="st3" width="6" height="24.2"/>
<rect x="1515" y="31.3" class="st3" width="6" height="27.8"/>
<rect x="1482" y="26.8" class="st3" width="6" height="27"/>
<rect x="1476" y="71.8" class="st3" width="6" height="29.1"/>
<path class="st2" d="M1437,113.8v-3h-3h-3v-3h-3h-3v-3v-3h-3h-3v-3v-3h-3v-3v-3h-3v-3v-3v-3h-3v-3v-3v-3v-3h-3v-3v-3v-3v-3v-3h-3v-3
	h-3v-3v-3v-3v-3v-3v-3h-3v-3h-3v-3h-3h-3v3h-3h-3v-3h-3h-3h-3h-3h-3h-3h-3v3v3h-3h-3v3v3v3v3v3v3v3v3v3v3h-3v3v3v3v3v3v3h-3v3v3v3
	h-3v3h-3v3v3h-3v-3h-3v3h-3v3v3h-3h-3v3v3h-3h-3v3h-3v3h3h3h3h3h3h3h3h3h3h3h3h3h3h3h3h3h3h3h3h3h3h3h3h3h3h3h3h3h3h3h3h3h3h3h3h3h3
	h3h3h3v-3H1437z"/>
<rect x="1382.9" y="23.8" class="st3" width="18" height="6"/>
<rect x="1356" y="20.8" class="st3" width="26.9" height="6"/>
<rect x="1398" y="26.8" class="st3" width="3" height="6"/>
<rect x="1356" y="20.8" class="st3" width="6" height="12"/>
<rect x="1350" y="37.3" class="st3" width="6" height="25.5"/>
<rect x="1400.9" y="32.8" class="st3" width="6" height="36"/>
<rect x="1395" y="23.8" class="st3" width="6" height="27"/>
<rect x="1406.9" y="47.8" class="st3" width="6" height="21"/>
<rect x="1412.9" y="68.8" class="st3" width="6" height="21"/>
<rect x="1409.9" y="59.8" class="st3" width="6" height="21"/>
<rect x="1347" y="62.8" class="st3" width="6" height="18"/>
<rect x="1344" y="71.8" class="st3" width="6" height="18"/>
<rect x="1341" y="74.6" class="st3" width="6" height="18"/>
<rect x="1377" y="26.1" class="st3" width="6" height="42.7"/>
<rect x="1367.9" y="21" class="st3" width="6" height="24.2"/>
<rect x="1395" y="31.3" class="st3" width="6" height="27.8"/>
<rect x="1362" y="26.8" class="st3" width="6" height="27"/>
<rect x="1356" y="62.8" class="st3" width="6" height="38.1"/>
<path class="st2" d="M1317,113.8v-3h-3h-3v-3h-3h-3v-3v-3h-3h-3v-3v-3h-3v-3v-3h-3v-3v-3v-3h-3v-3v-3v-3v-3h-3v-3v-3v-3v-3v-3h-3v-3
	h-3v-3v-3v-3v-3v-3v-3h-3v-3h-3v-3h-3h-3v3h-3h-3v-3h-3h-3h-3h-3h-3h-3h-3v3v3h-3h-3v3v3v3v3v3v3v3v3v3v3h-3v3v3v3v3v3v3h-3v3v3v3
	h-3v3h-3v3v3h-3v-3h-3v3h-3v3v3h-3h-3v3v3h-3h-3v3h-3v3h3h3h3h3h3h3h3h3h3h3h3h3h3h3h3h3h3h3h3h3h3h3h3h3h3h3h3h3h3h3h3h3h3h3h3h3h3
	h3h3h3v-3H1317z"/>
<rect x="1262.9" y="23.8" class="st3" width="18" height="6"/>
<rect x="1236" y="20.8" class="st3" width="26.9" height="6"/>
<rect x="1278" y="26.8" class="st3" width="9" height="6"/>
<rect x="1236" y="20.8" class="st3" width="6" height="12"/>
<rect x="1230" y="32.8" class="st3" width="6" height="30"/>
<rect x="1280.9" y="26.8" class="st3" width="6" height="42"/>
<rect x="1275" y="23.8" class="st3" width="6" height="27"/>
<rect x="1286.9" y="47.8" class="st3" width="6" height="21"/>
<rect x="1292.9" y="68.8" class="st3" width="6" height="21"/>
<rect x="1289.9" y="59.8" class="st3" width="6" height="21"/>
<rect x="1227" y="62.8" class="st3" width="6" height="18"/>
<rect x="1224" y="71.8" class="st3" width="6" height="18"/>
<rect x="1221" y="74.6" class="st3" width="6" height="18"/>
<rect x="1257" y="26.1" class="st3" width="6" height="42.7"/>
<rect x="1247.9" y="17.4" class="st3" width="6" height="27.8"/>
<rect x="1275" y="31.3" class="st3" width="6" height="27.8"/>
<rect x="1242" y="26.8" class="st3" width="6" height="27"/>
<rect x="1236" y="62.8" class="st3" width="6" height="38.1"/>
<path class="st2" d="M1197,113.8v-3h-3h-3v-3h-3h-3v-3v-3h-3h-3v-3v-3h-3v-3v-3h-3v-3v-3v-3h-3v-3v-3v-3v-3h-3v-3v-3v-3v-3v-3h-3v-3
	h-3v-3v-3v-3v-3v-3v-3h-3v-3h-3v-3h-3h-3v3h-3h-3v-3h-3h-3h-3h-3h-3h-3h-3v3v3h-3h-3v3v3v3v3v3v3v3v3v3v3h-3v3v3v3v3v3v3h-3v3v3v3
	h-3v3h-3v3v3h-3v-3h-3v3h-3v3v3h-3h-3v3v3h-3h-3v3h-3v3h3h3h3h3h3h3h3h3h3h3h3h3h3h3h3h3h3h3h3h3h3h3h3h3h3h3h3h3h3h3h3h3h3h3h3h3h3
	h3h3h3v-3H1197z"/>
<rect x="1142.9" y="23.8" class="st3" width="18" height="6"/>
<rect x="1116" y="20.8" class="st3" width="26.9" height="6"/>
<rect x="1158" y="26.8" class="st3" width="9" height="6"/>
<rect x="1116" y="20.8" class="st3" width="6" height="12"/>
<rect x="1110" y="32.8" class="st3" width="6" height="30"/>
<rect x="1160.9" y="26.8" class="st3" width="6" height="27"/>
<rect x="1155" y="23.8" class="st3" width="6" height="27"/>
<rect x="1166.9" y="47.8" class="st3" width="6" height="21"/>
<rect x="1172.9" y="68.8" class="st3" width="6" height="21"/>
<rect x="1169.9" y="59.8" class="st3" width="6" height="21"/>
<rect x="1107" y="62.8" class="st3" width="6" height="18"/>
<rect x="1104" y="71.8" class="st3" width="6" height="18"/>
<rect x="1101" y="74.6" class="st3" width="6" height="18"/>
<rect x="1137" y="26.1" class="st3" width="6" height="27.8"/>
<rect x="1127.9" y="17.4" class="st3" width="6" height="27.8"/>
<rect x="1155" y="31.3" class="st3" width="6" height="27.8"/>
<rect x="1122" y="26.8" class="st3" width="6" height="15"/>
<rect x="1116" y="62.8" class="st3" width="6" height="15"/>
<path class="st2" d="M1077,113.8v-3h-3h-3v-3h-3h-3v-3v-3h-3h-3v-3v-3h-3v-3v-3h-3v-3v-3v-3h-3v-3v-3v-3v-3h-3v-3v-3v-3v-3v-3h-3v-3
	h-3v-3v-3v-3v-3v-3v-3h-3v-3h-3v-3h-3h-3v3h-3h-3v-3h-3h-3h-3h-3h-3h-3h-3v3v3h-3h-3v3v3v3v3v3v3v3v3v3v3h-3v3v3v3v3v3v3h-3v3v3v3
	h-3v3h-3v3v3h-3v-3h-3v3h-3v3v3h-3h-3v3v3h-3h-3v3h-3v3h3h3h3h3h3h3h3h3h3h3h3h3h3h3h3h3h3h3h3h3h3h3h3h3h3h3h3h3h3h3h3h3h3h3h3h3h3
	h3h3h3v-3H1077z"/>
<rect x="1022.9" y="23.8" class="st3" width="18" height="6"/>
<rect x="996" y="20.8" class="st3" width="26.9" height="6"/>
<rect x="1038" y="26.8" class="st3" width="9" height="6"/>
<rect x="996" y="20.8" class="st3" width="6" height="12"/>
<rect x="990" y="32.8" class="st3" width="6" height="30"/>
<rect x="1040.9" y="26.8" class="st3" width="6" height="27"/>
<rect x="1035" y="23.8" class="st3" width="6" height="27"/>
<rect x="1046.9" y="47.8" class="st3" width="6" height="21"/>
<rect x="1049.9" y="59.8" class="st3" width="6" height="21"/>
<rect x="987" y="62.8" class="st3" width="6" height="18"/>
<rect x="984" y="71.8" class="st3" width="6" height="18"/>
<rect x="981" y="74.6" class="st3" width="6" height="18"/>
<rect x="1017" y="26.1" class="st3" width="6" height="27.8"/>
<rect x="1002" y="26.8" class="st3" width="6" height="15"/>
<path class="st2" d="M957,113.8v-3h-3h-3v-3h-3h-3v-3v-3h-3h-3v-3v-3h-3v-3v-3h-3v-3v-3v-3h-3v-3v-3v-3v-3h-3v-3v-3v-3v-3v-3h-3v-3
	h-3v-3v-3v-3v-3v-3v-3h-3v-3h-3v-3h-3h-3v3h-3h-3v-3h-3h-3h-3h-3h-3h-3h-3v3v3h-3h-3v3v3v3v3v3v3v3v3v3v3h-3v3v3v3v3v3v3h-3v3v3v3
	h-3v3h-3v3v3h-3v-3h-3v3h-3v3v3h-3h-3v3v3h-3h-3v3h-3v3h3h3h3h3h3h3h3h3h3h3h3h3h3h3h3h3h3h3h3h3h3h3h3h3h3h3h3h3h3h3h3h3h3h3h3h3h3
	h3h3h3v-3H957z"/>
<rect x="902.9" y="23.8" class="st3" width="18" height="6"/>
<rect x="876" y="20.8" class="st3" width="26.9" height="6"/>
<rect x="918" y="26.8" class="st3" width="9" height="6"/>
<rect x="876" y="20.8" class="st3" width="6" height="12"/>
<rect x="870" y="32.8" class="st3" width="6" height="30"/>
<rect x="920.9" y="26.8" class="st3" width="6" height="27"/>
<rect x="926.9" y="47.8" class="st3" width="6" height="21"/>
<rect x="867" y="62.8" class="st3" width="6" height="18"/>
<rect x="864" y="71.8" class="st3" width="6" height="18"/>
<rect x="897" y="29.8" class="st3" width="6" height="15"/>
<path class="st2" d="M837,113.8v-3h-3h-3v-3h-3h-3v-3v-3h-3h-3v-3v-3h-3v-3v-3h-3v-3v-3v-3h-3v-3v-3v-3v-3h-3v-3v-3v-3v-3v-3h-3v-3
	h-3v-3v-3v-3v-3v-3v-3h-3v-3h-3v-3h-3h-3v3h-3h-3v-3h-3h-3h-3h-3h-3h-3h-3v3v3h-3h-3v3v3v3v3v3v3v3v3v3v3h-3v3v3v3v3v3v3h-3v3v3v3
	h-3v3h-3v3v3h-3v-3h-3v3h-3v3v3h-3h-3v3v3h-3h-3v3h-3v3h3h3h3h3h3h3h3h3h3h3h3h3h3h3h3h3h3h3h3h3h3h3h3h3h3h3h3h3h3h3h3h3h3h3h3h3h3
	h3h3h3v-3H837z"/>
<rect x="782.9" y="23.8" class="st3" width="18" height="6"/>
<rect x="756" y="20.8" class="st3" width="26.9" height="6"/>
<rect x="798" y="26.8" class="st3" width="9" height="6"/>
<rect x="756" y="20.8" class="st3" width="6" height="12"/>
<rect x="750" y="32.8" class="st3" width="6" height="30"/>
<path class="st2" d="M717,113.8v-3h-3h-3v-3h-3h-3v-3v-3h-3h-3v-3v-3h-3v-3v-3h-3v-3v-3v-3h-3v-3v-3v-3v-3h-3v-3v-3v-3v-3v-3h-3v-3
	h-3v-3v-3v-3v-3v-3v-3h-3v-3h-3v-3h-3h-3v3h-3h-3v-3h-3h-3h-3h-3h-3h-3h-3v3v3h-3h-3v3v3v3v3v3v3v3v3v3v3h-3v3v3v3v3v3v3h-3v3v3v3
	h-3v3h-3v3v3h-3v-3h-3v3h-3v3v3h-3h-3v3v3h-3h-3v3h-3v3h3h3h3h3h3h3h3h3h3h3h3h3h3h3h3h3h3h3h3h3h3h3h3h3h3h3h3h3h3h3h3h3h3h3h3h3h3
	h3h3h3v-3H717z"/>
<rect x="800.9" y="26.8" class="st3" width="6" height="23.9"/>
<rect x="747" y="62.8" class="st3" width="6" height="6"/>
<rect x="777" y="29.8" class="st3" width="6" height="6"/>
</svg>
